<svg width="1202" height="724" viewBox="0 0 1202 724" fill="none" xmlns="http://www.w3.org/2000/svg">
<path d="M3.57988 1.53309C391.21 1.07269 774.479 0.781917 1199.96 2.21157M2.34408 1C363.926 2.6962 726.234 3.05967 1200.15 1.43617M1198.19 4.27124C1196.03 230.496 1198.02 451.608 1200.71 723M1199.28 2.38119C1200.18 167.615 1200.39 335.709 1201.02 719.22M1199.93 721.183C934.867 718.057 672.416 719.511 1.05981 719.511M1201.34 719.753C890.79 717.596 580.264 716.579 2.73178 720.504M4.79146 719.874C5.27608 448.506 8.57156 184.965 4.54914 2.62351M1.39905 720.94C0.98712 533.559 3.38603 350.393 2.82871 1.77541" stroke="black" stroke-linecap="round"/>
<path d="M26.0647 159.935C30.5959 149.007 36.8961 149.055 46.7341 136.164M26.0647 159.935C30.6444 155.404 36.6538 147.698 46.7341 136.164M27.0339 173.601C45.1106 157.051 46.4191 160.323 58.8256 137.036M27.0339 173.601C32.1952 162.964 41.6697 158.626 58.8256 137.036M26.4039 189.11C36.8719 171.857 58.7771 155.743 70.9171 137.909M26.4039 189.11C33.6249 173.771 48.8422 157.269 70.9171 137.909M27.3489 202.776C47.2187 190.927 60.3279 164.587 84.5836 136.939M27.3489 202.776C39.1496 186.396 60.3279 165.823 84.5836 136.939M26.7189 218.284C53.5431 199.505 71.0624 169.046 96.6751 137.812M26.7189 218.284C52.1619 190.418 67.7185 172.196 96.6751 137.812M26.0889 233.792C54.7062 190.951 83.8082 160.177 105.568 142.343M26.0889 233.792C48.6726 208.059 70.1174 178.278 105.568 142.343M27.0339 247.459C42.6147 227.88 71.4017 205.563 109.712 152.35M27.0339 247.459C42.7117 226.184 62.6784 205.999 109.712 152.35M26.4039 262.967C50.5869 237.475 61.3214 205.345 113.831 162.382M26.4039 262.967C56.4509 220.974 92.0469 185.475 113.831 162.382M27.3732 276.633C55.4332 250.875 88.5575 213.389 114.8 176.049M27.3732 276.633C52.9858 257.757 68.6393 229.285 114.8 176.049M26.7189 292.142C49.2299 262.991 85.9163 218.405 114.17 191.557M26.7189 292.142C54.4154 259.356 76.2722 231.999 114.17 191.557M26.0889 307.65C55.6512 286.156 71.5713 240.262 115.115 205.223M26.0889 307.65C46.3221 280.147 71.0382 248.767 115.115 205.223M27.0581 321.316C60.9822 284.048 75.3756 266.456 114.485 220.732M27.0581 321.316C45.6437 297.763 65.1257 272.926 114.485 220.732M26.4281 336.824C66.2888 304.5 100.504 266.941 113.855 236.24M26.4281 336.824C47.5822 315.598 73.0737 284.048 113.855 236.24M27.3732 350.491C49.0361 331.106 59.8433 304.669 114.8 249.906M27.3732 350.491C58.0744 309.976 93.6946 276.391 114.8 249.906M26.7431 365.999C54.052 320.42 90.4718 297.061 114.17 265.414M26.7431 365.999C52.2588 335.637 85.2136 302.707 114.17 265.414M26.1131 381.507C35.9269 368.713 62.6299 346.468 115.139 279.081M26.1131 381.507C55.942 339.538 98.0563 302.198 115.139 279.081M27.0581 395.174C52.5012 354.319 78.4288 320.08 114.509 294.589M27.0581 395.174C51.9681 364.933 65.8769 340.047 114.509 294.589M26.4281 410.682C57.2021 381.895 91.0776 338.375 113.855 310.097M26.4281 410.682C57.9775 374.092 80.9489 338.084 113.855 310.097M27.3974 424.348C58.1229 399.729 66.9673 374.359 114.824 323.764M27.3974 424.348C57.4444 393.623 74.576 367.259 114.824 323.764M26.7431 439.856C62.2907 396.967 102.563 372.445 114.194 339.272M26.7431 439.856C56.0632 407.968 87.2248 365.442 114.194 339.272M26.1131 455.365C49.5207 435.083 60.9579 422.725 115.139 352.938M26.1131 455.365C48.7695 425.657 74.7214 400.65 115.139 352.938M27.0824 469.031C55.3847 440.559 58.971 433.726 114.509 368.446M27.0824 469.031C66.1192 429.655 96.9174 394.301 114.509 368.446M26.4524 484.539C56.7901 450.639 78.9377 420.835 113.879 383.955M26.4524 484.539C56.984 454.783 84.8501 420.035 113.879 383.955M27.3974 498.206C54.997 477.367 60.3522 451.488 114.824 397.621M27.3974 498.206C47.7276 479.014 62.5572 457.957 114.824 397.621M26.7674 513.714C53.7127 485.824 87.4914 447.417 114.194 413.129M26.7674 513.714C54.6093 479.887 87.1521 448.192 114.194 413.129M26.1374 529.198C39.5858 499.902 67.5489 489.773 115.164 426.796M26.1374 529.198C48.3334 504.457 66.7977 478.094 115.164 426.796M27.0824 542.889C58.4136 518.027 79.1073 480.832 114.534 442.304M27.0824 542.889C54.1489 515.362 71.0382 487.98 114.534 442.304M26.4524 558.397C55.0939 521.541 75.933 486.55 113.879 457.812M26.4524 558.397C54.1731 521.977 84.0747 487.568 113.879 457.812M27.3974 572.063C51.4107 542.259 85.0924 494.571 114.849 471.479M27.3974 572.063C58.4379 538.43 80.7792 505.33 114.849 471.479M26.7674 587.571C53.9066 540.393 101.255 507.511 114.219 486.987M26.7674 587.571C63.9384 550.643 92.8465 511.897 114.219 486.987M26.1374 603.055C58.0502 571.457 89.3329 537.146 115.164 500.653M26.1374 603.055C63.163 569.761 88.2425 531.185 115.164 500.653M27.1066 616.746C48.503 592.878 73.8733 569.374 114.534 516.161M27.1066 616.746C54.6093 592.03 74.6972 561.838 114.534 516.161M26.4766 632.23C35.6603 605.745 64.3261 586.529 113.904 531.669M26.4766 632.23C57.9048 594.041 91.9742 554.035 113.904 531.669M29.0209 644.079C53.5916 629.879 67.4762 609.355 114.849 545.336M29.0209 644.079C43.584 618.975 68.3001 600.923 114.849 545.336M36.3146 650.452C63.7203 612.602 102.684 585.851 114.219 560.844M36.3146 650.452C62.436 618.757 91.5865 587.305 114.219 560.844M43.6325 656.801C55.3362 626.657 82.6935 602.74 115.188 574.511M43.6325 656.801C73.534 623.773 100.94 589.679 115.188 574.511M55.7239 657.673C73.5583 642.141 87.4187 633.151 114.534 590.019M55.7239 657.673C79.1557 635.889 95.6089 609.234 114.534 590.019M67.8154 658.545C69.0997 648.247 88.3637 635.986 113.904 605.527M67.8154 658.545C89.6722 637.658 104.647 620.09 113.904 605.527M79.8827 659.418C95.3666 645.46 95.7785 638.506 114.873 619.193M79.8827 659.418C93.0646 644.612 106.271 625.106 114.873 619.193M93.5734 658.473C96.9901 650.597 106.561 650.234 114.243 634.701M93.5734 658.473C96.7235 652.802 107.628 641.947 114.243 634.701M50.8534 651.785C44.9894 648.925 31.759 635.477 25.265 629.54M50.8534 651.785C39.5616 643.037 32.6314 636.543 25.265 629.54M66.3615 652.415C53.1312 640.638 38.2288 626.899 26.1374 617.449M66.3615 652.415C57.5898 635.743 43.4144 626.729 26.1374 617.449M81.8697 653.045C59.0921 643.546 47.5579 614.299 25.1681 603.782M81.8697 653.045C57.8078 632.036 37.2838 617.618 25.1681 603.782M91.8772 648.925C75.2303 632.836 53.0343 604.679 26.0404 591.691M91.8772 648.925C68.4697 625.93 45.0379 608.871 26.0404 591.691M105.568 647.956C76.1753 629.249 51.12 617.352 25.0954 578.024M105.568 647.956C81.2639 632.278 64.4715 605.672 25.0954 578.024M108.258 637.464C86.1829 609.355 45.7406 591.109 25.9677 565.933M108.258 637.464C76.0783 609.816 46.0071 579.599 25.9677 565.933M112.789 628.571C86.8129 608.362 54.8758 580.447 24.9985 552.266M112.789 628.571C94.3489 610.155 73.5583 590.455 24.9985 552.266M111.82 614.88C95.8997 591.448 70.8686 571.942 25.8708 540.175M111.82 614.88C93.2827 602.353 78.7196 583.137 25.8708 540.175M112.716 602.813C95.6331 596.367 83.2509 564.164 24.9258 526.508M112.716 602.813C88.5091 583.137 54.2943 557.452 24.9258 526.508M111.747 589.122C75.9572 560.19 44.3352 532.348 25.7981 514.417M111.747 589.122C86.2313 565.375 47.8972 539.545 25.7981 514.417M112.619 577.055C88.1456 563.97 60.231 529.028 26.6704 502.325M112.619 577.055C75.8845 550.982 42.2513 517.736 26.6704 502.325M113.492 564.963C85.8921 532.299 41.6697 501.017 25.7012 488.659M113.492 564.963C92.2165 546.087 74.0671 527.526 25.7012 488.659M112.547 551.297C87.6367 515.265 47.8972 504.482 26.5735 476.567M112.547 551.297C84.6805 525.248 60.5218 503.609 26.5735 476.567M113.419 539.205C86.5221 519.844 44.9167 491.033 25.6285 462.901M113.419 539.205C80.6823 518.366 60.5702 492.003 25.6285 462.901M112.45 525.539C93.8158 508.601 74.6487 486.623 26.5008 450.809M112.45 525.539C89.5753 510.879 66.4342 493.335 26.5008 450.809M113.322 513.447C85.1167 481.68 58.8256 476.519 25.5558 437.143M113.322 513.447C87.4429 492.972 66.4342 476.228 25.5558 437.143M112.377 499.781C75.9087 462.658 56.0874 450.324 26.4281 425.051M112.377 499.781C78.6711 472.52 50.1992 443.637 26.4281 425.051M113.249 487.689C92.3134 455.825 52.8404 434.622 25.4589 411.385M113.249 487.689C83.8809 460.066 45.6921 430.624 25.4589 411.385M112.28 474.023C78.6953 455.098 60.4248 423.234 26.3312 399.293M112.28 474.023C95.0758 452.554 73.001 438.427 26.3312 399.293M113.152 461.931C86.7886 435.955 57.3474 426.505 25.3862 385.626M113.152 461.931C91.1745 444.024 74.2852 432.296 25.3862 385.626M112.207 448.265C92.4103 435.713 75.3029 419.454 26.2585 373.535M112.207 448.265C82.4997 419.429 47.8972 398.833 26.2585 373.535M113.08 436.173C85.0682 415.48 64.3503 401.789 25.2893 359.868M113.08 436.173C80.5369 405.787 53.4704 382.04 25.2893 359.868M112.11 422.507C90.7868 408.889 63.0418 385.021 26.1616 347.777M112.11 422.507C82.2089 398.396 47.5822 367.065 26.1616 347.777M112.983 410.415C79.6646 396.894 59.0436 374.044 25.2166 334.11M112.983 410.415C81.482 378.721 41.9847 350.951 25.2166 334.11M112.038 396.749C82.0151 381.725 60.9095 360.814 26.0889 322.019M112.038 396.749C86.7644 367.695 52.8404 347.292 26.0889 322.019M112.91 384.657C85.1409 354.853 46.2494 325.654 25.1196 308.352M112.91 384.657C77.193 355.652 48.188 321.898 25.1196 308.352M111.941 370.991C84.5594 340.508 53.9066 311.115 25.992 296.261M111.941 370.991C86.304 350.176 71.8621 330.137 25.992 296.261M112.813 358.899C93.2342 339.393 81.4577 326.599 25.0469 282.594M112.813 358.899C90.3749 344.263 81.0943 329.555 25.0469 282.594M111.868 345.233C76.7326 328.901 46.7583 291.633 25.9193 270.503M111.868 345.233C90.9322 326.308 67.9366 307.189 25.9193 270.503M112.741 333.141C86.2071 311.745 80.0281 293.523 24.95 256.836M112.741 333.141C77.3626 300.017 42.2755 273.944 24.95 256.836M111.795 319.475C94.1792 294.637 56.1116 279.493 25.8223 244.745M111.795 319.475C90.4718 304.136 69.8509 283.467 25.8223 244.745M112.668 307.383C96.6993 285.333 79.6888 281.262 26.6947 232.653M112.668 307.383C89.7449 284.969 65.2227 265.729 26.6947 232.653M113.54 295.292C79.8827 281.334 69.7539 254.486 25.7497 218.987M113.54 295.292C84.6805 271.569 62.9449 252.329 25.7497 218.987M112.571 281.625C78.865 259.55 57.5898 233.429 26.622 206.895M112.571 281.625C88.6787 255.746 66.7735 234.543 26.622 206.895M113.443 269.534C69.6328 238.929 44.529 213.777 25.677 193.229M113.443 269.534C89.5995 254.316 75.9814 237.694 25.677 193.229M112.498 255.867C82.2816 244.454 63.2599 213.898 26.5493 181.137M112.498 255.867C78.0169 224.681 45.159 200.135 26.5493 181.137M113.371 243.776C77.7261 211.669 54.4154 189.449 25.58 167.471M113.371 243.776C90.1568 223.542 63.4053 201.007 25.58 167.471M112.401 230.109C80.3189 199.965 73.8975 187.753 26.4524 155.379M112.401 230.109C87.5641 215.328 69.8751 195.967 26.4524 155.379M113.274 218.018C102.563 197.203 72.0559 180.847 29.1663 144.887M113.274 218.018C88.0971 201.468 63.1388 177.139 29.1663 144.887M112.329 204.351C80.4642 185.911 59.7464 156.155 33.6976 135.994M112.329 204.351C80.9731 182.107 50.9503 150.557 33.6976 135.994M113.201 192.26C99.1709 179.441 77.3142 168.125 47.3641 135.025M113.201 192.26C92.9677 178.714 70.0205 151.018 47.3641 135.025M112.232 178.593C96.6024 159.693 75.7149 152.787 62.8722 135.679M112.232 178.593C102.418 163.86 85.2863 153.029 62.8722 135.679M113.104 166.502C103.508 161.922 81.9424 138.417 76.5387 134.71M113.104 166.502C102.83 155.84 97.1839 145.348 76.5387 134.71M112.159 152.835C107.846 147.892 93.8885 137.085 92.0469 135.34M112.159 152.835C107.603 150.363 101.449 144.645 92.0469 135.34" stroke="#CED4DA" stroke-width="0.5" stroke-linecap="round"/>
<path d="M45.5711 135.825C49.0119 144.354 62.7027 133.668 88.2911 135.825M45.5711 135.825C62.315 136.358 76.5389 136.697 88.2911 135.825M88.2911 135.825C110.875 137.157 108.088 152.375 109.639 157.197M88.2911 135.825C113.201 126.859 102.854 139.072 109.639 157.197M109.639 157.197C126.746 305.857 112.377 439.784 109.639 631.866M109.639 157.197C100.94 311.333 102.781 468.765 109.639 631.866M109.639 631.866C107.943 649.192 96.8206 657.237 88.2911 653.238M109.639 631.866C113.831 637.246 110.172 644.467 88.2911 653.238M88.2911 653.238C67.5732 656.897 64.932 645.048 45.5711 653.238M88.2911 653.238C74.0672 652.027 58.0745 652.245 45.5711 653.238M45.5711 653.238C34.2792 662.907 30.4022 636.616 24.1989 631.866M45.5711 653.238C23.2055 647.932 14.7245 640.735 24.1989 631.866M24.1989 631.866C23.3024 483.182 18.8196 349.861 24.1989 157.197M24.1989 631.866C23.3751 454.783 21.5093 279.081 24.1989 157.197M24.1989 157.197C17.0507 140.041 24.4655 138.03 45.5711 135.825M24.1989 157.197C27.3975 147.771 35.2969 142.779 45.5711 135.825" stroke="black" stroke-linecap="round"/>
<path d="M45.6927 212.695C49.3516 208.382 44.9415 204.117 57.0572 189.796M42.2276 214.464C46.8558 201.791 55.361 197.429 60.3043 191.832M53.2771 221.491C58.7777 205.765 77.9932 189.215 75.4974 190.038M42.0095 221.055C62.2185 213.179 71.7415 191.444 77.9205 183.108M61.0797 234.455C69.4637 227.791 73.5589 200.143 86.5469 182.406M51.5567 233.146C63.4543 212.162 75.9578 200.628 88.4612 185.701M56.5968 238.089C61.6612 228.106 77.5813 220.618 100.989 199.61M52.1383 248.897C73.4377 223.163 89.8182 203.293 97.4511 194.327M57.348 240.125C78.4051 232.904 81.7975 230.481 96.6999 206.928M66.1925 247.418C75.9093 240.319 84.8749 230.917 97.9841 203.414M74.1889 248.436C75.037 244.826 83.2757 234.261 107.774 206.976M71.5234 249.745C78.6959 241.288 92.7744 233.17 105.254 219.577" stroke="#868E96" stroke-width="0.5" stroke-linecap="round"/>
<path d="M77.6058 180.419C84.5359 182.09 93.4047 188.56 97.2332 194.012C101.086 199.44 100.916 206.104 100.65 213.083C100.359 220.037 100.504 229.705 95.5613 235.86C90.5938 242.015 78.2358 248.63 70.9179 249.963C63.6 251.32 56.0398 247.952 51.6297 243.953C47.2195 239.931 46.1291 233.292 44.4329 225.877C42.7125 218.462 39.732 206.225 41.3798 199.392C43.0517 192.558 44.9175 183.496 54.392 184.901C63.8665 186.307 91.8296 199.101 98.2025 207.8C104.6 216.523 92.4839 236.975 92.6777 237.193M47.0015 190.571C50.7573 184.15 60.7891 174.603 67.7436 173.973C74.698 173.343 82.5005 181.364 88.728 186.791C94.9555 192.219 104.357 198.35 105.084 206.588C105.811 214.803 97.2332 229.221 93.0654 236.102C88.8976 242.984 84.5844 246.28 80.0289 247.879C75.4734 249.454 71.9356 247.515 65.7324 245.625C59.5291 243.735 46.226 244.196 42.7367 236.539C39.2716 228.857 43.4394 208.769 44.8933 199.586C46.3714 190.426 50.8542 184.562 51.4843 181.509C52.1385 178.456 47.3165 180.225 48.7219 181.267" stroke="black" stroke-linecap="round"/>
<path d="M51.2751 319.974C58.3022 300.08 65.4505 294.192 76.9604 292.835M53.7952 311.905C57.2118 302.794 72.4534 293.61 79.8197 288.061M47.81 331.484C58.593 324.19 68.4552 300.855 93.3893 298.602M47.3496 335.458C67.5344 317.575 73.8346 300.346 86.4591 290.848M55.3702 351.717C73.5196 329.739 70.9026 313.019 86.7015 306.065M54.0617 342.873C65.1839 323.172 85.7322 308.73 89.9969 297.317M52.6321 346.822C69.7879 335.555 89.3912 327.098 105.117 313.601M63.4393 354.479C67.8494 341.855 78.0508 327.171 99.8349 301.122M57.6964 366.91C70.8299 349.73 88.8581 329.569 106.305 307.567M64.9901 363.348C79.432 349.706 91.7174 329.86 102.791 311.832M74.1496 355.424C85.9261 347.428 91.8385 347.549 97.0241 330.345M75.2642 357.848C87.9373 349.803 100.853 338.099 107.734 327.316" stroke="#868E96" stroke-width="0.5" stroke-linecap="round"/>
<path d="M57.1637 295.137C62.1311 289.491 71.0241 282.997 76.7427 282.924C82.4371 282.851 87.2834 289.951 91.4027 294.725C95.5463 299.498 99.9807 304.175 101.507 311.541C103.034 318.932 103.446 330.563 100.562 338.947C97.6544 347.307 90.0458 358.575 84.1575 361.773C78.2693 364.947 71.2906 361.7 65.2328 358.066C59.1749 354.455 50.6939 347.404 47.8346 340.013C44.9753 332.647 42.1887 322.979 48.1011 313.771C54.0378 304.563 75.095 286.462 83.3579 284.766C91.6208 283.094 97.7514 303.351 97.7029 303.642M85.781 281.252C90.9908 282.173 92.7354 287.431 96.3459 294.725C99.9322 302.018 107.226 317.139 107.395 324.99C107.541 332.817 101.41 336.112 97.3152 341.782C93.2443 347.452 89.5611 355.57 82.8733 358.962C76.1854 362.379 64.0697 366.038 57.1395 362.185C50.2335 358.308 42.746 343.6 41.4133 335.773C40.0805 327.946 47.4711 322.785 49.1431 315.2C50.8151 307.64 46.8653 295.864 51.4693 290.387C56.0733 284.887 72.6718 281.906 76.7185 282.294C80.7894 282.682 75.3373 290.557 75.7977 292.665" stroke="black" stroke-linecap="round"/>
<path d="M50.2998 428.11C47.2709 417.957 58.3204 404.896 81.2676 400.002M42.2307 424.669C53.0379 419.678 63.7725 406.883 76.494 397.07M48.8459 436.058C60.792 427.31 56.818 430.509 91.154 404.484M52.7956 444.03C59.4835 426.656 66.7529 416.6 83.3999 400.123M59.5562 459.441C68.0372 425.445 81.9218 405.987 102.785 410.348M50.6875 447.011C60.6951 438.19 75.9366 419.459 94.0375 402.522M54.0072 456.194C68.3764 450.694 85.6534 437.003 111.024 403.709M61.6643 455.031C70.3392 443.497 76.9301 437.027 98.5446 406.883M73.2227 458.763C84.8054 448.319 93.3106 431.793 102.519 414.952M69.6607 467.632C85.92 449.264 96.0972 424.596 106.783 413.038M67.2618 473.423C82.2126 455.274 106.711 427.892 114.101 432.544M70.1211 471.194C85.4838 462.228 96.4607 449.894 110.563 421.883" stroke="#868E96" stroke-width="0.5" stroke-linecap="round"/>
<path d="M79.6922 395.034C85.9197 394.113 91.5656 395.495 96.4604 400.074C101.379 404.63 108.818 414.129 109.133 422.416C109.448 430.727 102.761 442.843 98.302 449.918C93.8676 456.994 87.7371 462.228 82.4546 464.821C77.1964 467.389 72.5924 468.455 66.6799 465.426C60.7917 462.398 51.0022 453.335 47.1009 446.623C43.1997 439.935 42.0123 432.423 43.2966 425.251C44.5809 418.054 47.8521 409.282 54.7823 403.539C61.7125 397.821 78.626 391.133 84.8535 390.891C91.081 390.648 92.6561 400.874 92.1957 402.085M92.438 398.911C97.8173 402.667 101.791 416.649 104.118 424.693C106.444 432.738 110.054 440.008 106.395 447.229C102.736 454.45 89.1183 465.281 82.1396 468.019C75.1367 470.733 68.885 467.389 64.378 463.633C59.8709 459.853 58.417 451.324 55.1216 445.387C51.8261 439.426 43.6358 436.446 44.5809 427.892C45.5017 419.363 55.4366 400.583 60.7432 394.138C66.0257 387.716 70.8962 388.782 76.3483 389.316C81.8004 389.849 89.094 395.204 93.4799 397.336C97.8658 399.444 101.549 400.341 102.688 402.037" stroke="black" stroke-linecap="round"/>
<path d="M48.2799 530.149C57.924 521.062 64.7815 523.776 76.558 512.266M45.0571 534.995C58.239 527.871 64.1273 523.533 73.7956 504.706M48.5465 552.975C61.171 526.78 85.7417 525.157 90.5638 509.091M56.4944 547.329C59.3537 534.219 69.4824 527.992 86.2264 513.356M64.4423 559.396C63.8607 539.478 77.818 532.935 101.032 513.574M52.0116 555.495C67.5439 546.796 73.1656 534.147 93.2292 513.986M55.5493 569.355C78.3996 558.427 92.9385 546.287 97.2032 512.605M54.3862 573.644C65.3631 556.658 81.4528 538.29 100.378 524.309M60.6622 578.926C76.1945 561.843 85.6448 549.001 102.801 541.683M69.5309 579.871C83.0278 558.136 90.2245 543.282 100.886 537.491M77.6242 574.953C85.9598 573.329 86.0083 560.68 110.603 545.342M75.6372 581.204C86.9775 572.311 95.2889 559.953 101.008 546.917" stroke="#868E96" stroke-width="0.5" stroke-linecap="round"/>
<path d="M67.0835 502.064C72.0509 499.423 77.7938 503.954 82.8824 506.789C87.971 509.625 94.3439 512.435 97.6393 519.075C100.935 525.714 103.818 537.418 102.679 546.577C101.541 555.761 95.7735 568.967 90.7818 574.129C85.8144 579.29 79.2234 578.951 72.8263 577.521C66.405 576.116 56.664 571.609 52.3508 565.648C48.0376 559.687 47.1168 549.509 46.9714 541.755C46.826 534.026 46.9714 525.545 51.4542 519.172C55.937 512.823 66.9381 505.893 73.8683 503.542C80.7742 501.216 92.3569 504.003 92.9384 505.166M50.7757 508.389C54.5316 504.124 67.447 505.554 74.256 505.142C81.0893 504.73 86.2506 501.41 91.6784 505.869C97.1305 510.351 105.66 522.152 106.896 531.99C108.132 541.828 103.382 557.724 99.0932 564.896C94.8285 572.093 86.4444 572.457 81.2104 575.122C75.9764 577.788 74.6195 583.458 67.665 580.913C60.7348 578.393 44.3059 568.168 39.605 559.905C34.9284 551.618 37.9573 538.218 39.5566 531.263C41.1558 524.309 46.826 520.408 49.2007 518.202C51.5511 515.997 52.1811 517.839 53.732 518.057" stroke="black" stroke-linecap="round"/>
<path d="M180.564 52.6399H183.718L191.132 70.7507H191.388L198.803 52.6399H201.956V74.4581H199.485V57.8814H199.272L192.453 74.4581H190.067L183.249 57.8814H183.036V74.4581H180.564V52.6399ZM211.728 74.8417C210.691 74.8417 209.75 74.6463 208.905 74.2557C208.06 73.858 207.389 73.2863 206.891 72.5405C206.394 71.7877 206.146 70.8786 206.146 69.8132C206.146 68.8757 206.33 68.1158 206.7 67.5334C207.069 66.9439 207.563 66.4823 208.18 66.1485C208.798 65.8147 209.48 65.5661 210.226 65.4027C210.979 65.2323 211.735 65.0973 212.495 64.9979C213.489 64.8701 214.296 64.7742 214.913 64.7103C215.538 64.6392 215.993 64.522 216.277 64.3587C216.568 64.1953 216.714 63.9113 216.714 63.5064V63.4212C216.714 62.3701 216.426 61.5533 215.851 60.9709C215.283 60.3885 214.42 60.0973 213.262 60.0973C212.062 60.0973 211.121 60.3601 210.439 60.8857C209.757 61.4113 209.278 61.9723 209.001 62.5689L206.614 61.7167C207.041 60.7223 207.609 59.9482 208.319 59.3942C209.036 58.8331 209.818 58.4425 210.663 58.2223C211.515 57.9951 212.353 57.8814 213.177 57.8814C213.702 57.8814 214.306 57.9453 214.988 58.0732C215.677 58.1939 216.341 58.4461 216.98 58.8296C217.626 59.2131 218.163 59.7919 218.589 60.5661C219.015 61.3402 219.228 62.3772 219.228 63.6769V74.4581H216.714V72.2422H216.586C216.416 72.5973 216.131 72.9773 215.734 73.3821C215.336 73.787 214.807 74.1314 214.146 74.4155C213.486 74.6996 212.68 74.8417 211.728 74.8417ZM212.112 72.5831C213.106 72.5831 213.944 72.3878 214.626 71.9972C215.315 71.6066 215.833 71.1023 216.181 70.4844C216.536 69.8665 216.714 69.2167 216.714 68.5348V66.2337C216.607 66.3615 216.373 66.4787 216.011 66.5853C215.656 66.6847 215.244 66.7735 214.775 66.8516C214.313 66.9226 213.862 66.9865 213.422 67.0434C212.989 67.0931 212.637 67.1357 212.367 67.1712C211.714 67.2564 211.103 67.3949 210.535 67.5867C209.974 67.7713 209.519 68.0519 209.171 68.4283C208.83 68.7976 208.66 69.3019 208.66 69.9411C208.66 70.8147 208.983 71.4752 209.629 71.9226C210.283 72.363 211.11 72.5831 212.112 72.5831ZM223.817 80.5945V58.0945H226.246V60.6939H226.544C226.729 60.4098 226.985 60.0476 227.311 59.6073C227.645 59.1598 228.121 58.7621 228.739 58.4141C229.364 58.059 230.209 57.8814 231.274 57.8814C232.652 57.8814 233.867 58.2259 234.918 58.9148C235.969 59.6037 236.789 60.5803 237.379 61.8445C237.968 63.1087 238.263 64.6002 238.263 66.3189C238.263 68.0519 237.968 69.554 237.379 70.8253C236.789 72.0895 235.973 73.0696 234.929 73.7657C233.884 74.4546 232.681 74.799 231.317 74.799C230.266 74.799 229.424 74.625 228.792 74.277C228.16 73.9219 227.674 73.5206 227.333 73.0732C226.992 72.6186 226.729 72.2422 226.544 71.9439H226.331V80.5945H223.817ZM226.289 66.2763C226.289 67.5121 226.47 68.6023 226.832 69.5469C227.194 70.4844 227.723 71.2195 228.419 71.7522C229.115 72.2777 229.968 72.5405 230.976 72.5405C232.027 72.5405 232.904 72.2635 233.607 71.7096C234.318 71.1485 234.85 70.3956 235.206 69.451C235.568 68.4993 235.749 67.4411 235.749 66.2763C235.749 65.1257 235.571 64.0888 235.216 63.1655C234.868 62.2351 234.339 61.5 233.629 60.9603C232.926 60.4134 232.041 60.1399 230.976 60.1399C229.953 60.1399 229.094 60.3992 228.398 60.9176C227.702 61.429 227.176 62.1463 226.821 63.0696C226.466 63.9858 226.289 65.0547 226.289 66.2763Z" fill="black"/>
<path d="M155.658 141.696C158.832 136.196 167.313 137.262 167.604 129.023M154.107 144.774C159.971 137.844 164.26 134.403 167.774 130.138M155.125 162.245C165.423 155.775 174.801 141.842 174.655 127.036M158.566 154.903C165.787 147.367 171.845 135.808 184.033 125.994M159.172 173.609C160.335 165.225 165.859 154.03 202.134 134.645M160.117 176.711C164.333 157.616 175.576 144.895 197.942 130.235M151.03 188.221C174.413 162.681 185.22 163.553 205.599 126.552M157.984 190.426C171.263 176.25 180.398 154.588 207.319 132.077M155.004 203.414C184.421 179.013 187.522 161.469 216.237 120.736M161.134 204.625C182.167 167.842 205.502 145.719 222.803 130.574M148.146 212.84C172.353 183.835 212.675 164.014 241.195 120.93M153.041 216.984C172.353 201.693 189.994 179.134 235.694 131.471M147.952 227.064C181.779 185.701 218.466 165.54 244.636 125.364M152.581 236.296C178.048 200.361 205.017 179.255 241.825 130.308M164.502 254.13C197.191 199.076 218.272 179.086 253.214 126.043M158.081 247.03C176.642 228.372 199.153 194.085 261.186 124.444M149.188 261.981C194.307 231.28 217.884 178.044 280.983 137.335M155.658 262.321C188.734 224.447 212.917 191.637 274.029 125.825M152.266 284.541C206.907 232.613 251.251 176.299 279.723 137.165M152.314 278.216C198.281 216.668 255.298 163.723 289.076 124.71M155.222 287.134C217.981 224.544 271.969 165.007 296.346 134.257M155.27 287.957C201.407 237.508 237.415 189.02 298.89 131.277M158.76 302.254C191.254 256.65 232.132 217.541 307.032 128.733M154.64 304.653C222.294 240.076 277.615 166.267 309.358 129.847M154.325 313.255C214.516 250.181 273.374 167.018 316.531 121.245M154.907 316.211C197.191 273.709 239.814 220.206 324.212 130.041M150.424 333.004C219.847 261.86 259.974 196.484 327.822 131.737M154.059 338.213C203.127 280.833 251.13 223.041 335.552 130.841M155.706 355.006C212.069 279.525 293.22 206.007 344.639 131.01M157.378 348.996C203.224 300.437 239.111 259.873 347.329 132.925M146.983 373.785C243.642 265.81 309.552 185.991 360.462 136.996M156.627 361.839C215.049 298.789 276.209 234.43 365.793 131.64M157.209 385.004C212.65 298.595 293.535 226.361 380.453 126.939M161.474 379.916C238.748 293.022 314.81 199.246 374.516 129.605M150.157 385.465C220.913 312.116 292.057 240.125 390.969 133.7M153.041 390.044C244.369 299.467 326.95 199.755 392.69 129.605M162.976 413.064C237.269 309.693 325.811 214.754 401.026 119.258M160.359 405.795C242.407 317.544 319.099 222.484 401.631 127.618M153.598 420.164C226.705 350.499 288.519 256.457 411.712 128.999M157.5 421.885C228.134 347.203 300.804 271.795 412.899 125.316M162.612 429.954C244.636 327.527 336.497 240.294 418.86 126.479M159.414 438.071C220.283 368.26 284.593 296.487 423.755 132.731M149.212 458.813C247.083 365.958 322.564 255.196 439.166 130.283M156.021 452.804C247.204 352.098 338.193 252.313 435.265 134.039M156.748 477.617C212.868 396.03 278.487 331.55 443.116 136.487M153.477 466.567C218.199 402.742 278.124 333.222 454.553 129.653M164.357 490.484C274.271 343.569 385.13 222.193 462.234 138.013M153.235 486.34C271.824 349.941 382.464 219.067 467.832 129.968M148.582 504.296C220.55 416.36 296.2 349.021 479.438 126.188M156.143 499.256C259.126 370.102 362.837 258.516 477.863 130.38M162.37 514.158C245.532 416.99 319.026 316.502 490.609 136.293M151.878 516.145C244.175 407.006 338.533 303.296 488.913 125.534M163.945 534.246C260.217 394.115 385.154 258.807 510.503 136.608M157.378 526.782C239.232 419.97 328.283 317.665 505.681 126.867M151.224 550.093C246.381 430.681 350.551 315.63 522.013 128.926M156.627 540.207C241.898 433.346 327.944 335.475 511.909 132.101M149.261 552.153C285.684 426.585 411.59 272.813 536.649 126.721M160.819 552.298C293.293 390.965 434.126 224.738 530.664 126.867M160.165 577.281C244.515 483.36 327.798 378.123 544.161 131.519M159.68 575.294C255.758 463.175 349.34 353.14 542.44 130.065M156.118 593.249C302.428 424.477 448.616 256.19 554.895 131.083M155.343 590.753C284.739 442.481 417.988 293.458 553.877 128.006M151.902 598.483C291.378 434 450.797 261.739 566.841 125.946M154.689 602.239C249.288 492.834 350.963 380.013 565.702 128.224M162.734 620.655C319.123 436.86 486.005 245.698 575.468 125.146M154.446 614.234C311.321 430.899 474.301 243.662 583.319 126.843M151.442 622.545C262.155 500.709 371.003 385.053 588.553 125.364M158.105 633.183C278.439 492.228 404.466 348.924 594.514 129.266M164.721 633.982C293.123 492.301 423.391 332.495 604.594 123.208M168.04 626.252C304.778 472.601 446.29 312.528 603.164 126.503M189.194 634.152C319.366 460.776 467.226 297.359 612.566 125.437M179.962 633.716C301.24 495.112 429.885 349.869 621.362 130.671M191.811 633.861C299.229 520.603 389.079 413.888 631.103 129.944M193.629 627.391C359.517 445.341 520.729 256.408 635.125 128.611M212.917 623.393C349.51 458.038 501.513 281.318 647.338 136.244M209.428 626.761C320.02 502.212 439.311 363.826 642.177 132.537M225.202 628.918C324.745 525.474 427.825 397.508 656.498 126.576M223.991 630.057C311.781 522.154 395.04 422.563 655.02 126.043M238.142 632.577C348.371 505.386 452.954 364.117 676.052 121.439M237.851 627.246C330.609 520.507 429.037 405.746 671.061 129.896M247.204 628.894C345.778 505.992 437.348 397.096 679.711 130.72M251.106 628.845C341.925 531.241 430.321 435.987 683.225 125.437M262.882 635.145C349.413 517.744 442.728 410.084 701.98 133.845M263.536 626.301C405.654 466.01 555.549 297.892 695.219 127.788M275.143 627.343C374.177 500.443 484.115 375.433 712.06 121.245M270.176 628.312C430.588 442.384 593.375 249.478 709.492 124.541M282.461 625.913C437.227 438.313 597.106 262.006 718.239 134.766M284.133 628.748C432.672 468.99 574.692 305.598 720.008 126.188M301.24 631.656C458.672 455.421 611.451 279.767 730.622 130.283M302.089 627.949C403.715 520.095 504.615 405.165 736.34 129.266M304.706 636.163C472.581 453.482 631.636 271.771 753.011 129.46M311.878 630.638C432.551 480.428 561.22 335.572 746.542 127.545M322.588 633.013C480.505 436.302 640.505 259.655 759.82 130.671M325.835 629.718C459.641 476.866 595.58 324.183 755.532 131.132M334.849 628.239C511.085 437.635 675.107 259.122 779.181 122.069M335.746 626.713C477.04 475.654 606.993 317.253 771.5 129.241M356.319 621.382C490.706 477.156 618.478 320.185 786.596 122.093M353.629 630.566C451.984 520.531 549.249 403.226 783.495 125.873M360.486 631.075C456.079 520.967 559.16 405.068 804.697 130.574M366.738 632.989C527.15 434.727 697.037 243.347 802.274 131.107M377.715 632.65C528.386 447.57 699.363 246.376 811.942 123.886M376.697 631.68C492.693 495.33 615.716 353.164 807.629 128.733M381.713 634.806C483.534 506.573 591.412 388.615 827.353 126.624M385.13 626.568C523.249 456.124 667.232 293.628 826.893 127.957M401.922 635.679C562.262 450.502 716.616 273.782 834.284 131.519M401.752 631.244C503.379 522.978 602.607 411.877 837.24 131.01M411.009 635.897C585.039 426.343 750.176 237.968 849.961 125.849M415.831 628.409C539.048 478.78 672.369 323.844 851.561 124.589M429.182 633.861C515.059 529.666 592.26 416.966 864.5 131.858M426.396 627.924C552.133 491.235 671.497 352.752 858.515 130.283M443.309 622.085C615.522 443.111 792.266 247.927 880.227 127.691M437.93 628.094C534.662 514.933 632.872 406.861 878.191 128.248M451.16 627.537C570.985 488.812 699.242 356.339 880.76 133.094M452.954 628.506C585.815 467.125 720.469 315.145 887.157 130.332M470.861 632.674C640.311 433.225 813.105 236.805 900.654 130.332M467.614 628.918C634.18 433.758 795.998 247.903 904.288 126.116M479.608 630.929C614.068 474.006 744.312 325.298 918.924 134.766M479.438 627.149C596.573 488.812 725.291 342.817 915.701 126.14M498.484 622.957C602.558 501.751 716.18 372.089 928.859 130.865M490.343 625.404C602.873 507.034 705.687 384.132 930.555 130.38M501.053 627.004C594.174 521.476 693.281 407.612 936.928 127.715M507.014 628.118C604.763 532.501 692.166 426.149 936.08 126.406M513.266 629.887C672.902 455.372 805.812 302.763 957.234 125.171M521.141 625.816C615.159 517.671 716.785 406.352 953.357 125.631M537.085 627.585C674.817 473.934 810.319 308.554 965.4 124.177M532.505 630.566C693.814 443.887 855.026 257.91 962.25 131.107M544.936 621.43C632.193 516.314 722.504 414.349 983.162 122.99M544.282 629.596C684.558 467.294 830.213 307.851 979.745 128.975M553.999 628.361C689.259 498.286 813.735 343.423 987.233 127.618M555.913 628.53C697.231 472.213 829.025 313.788 992.466 131.301M575.419 632.189C666.384 520.506 756.864 416.214 1007.34 134.742M566.042 627.367C686.981 485.541 810.61 346.743 1003.3 131.762M583.246 623.805C669.34 527.364 765.418 423.484 1012.87 132.925M580.411 626.131C692.409 513.213 796.991 393.728 1016.94 131.834M599.142 627.779C734.159 462.618 888.368 295.978 1025.13 134.064M592.139 631.05C687.78 521.209 791.515 404.099 1025.54 129.823M601.032 622.23C757.494 469.887 895.395 290.768 1035.04 126.188M604.812 629.936C714.338 511.42 814.559 387.403 1040.3 128.757M622.986 625.404C731.688 507.494 843.37 377.517 1047.11 128.999M620.199 628.651C731.373 513.189 827.426 396.563 1053.97 126.964M633.672 630.832C767.26 473.013 889.507 332.083 1074.05 129.968M631.127 626.374C748.165 512.801 855.268 387.161 1066.61 131.858M649.664 635.364C790.861 467.197 919.53 311.874 1075.39 124.637M645.569 631.341C798.106 443.16 959.173 258.08 1078.22 127.666M652.136 625.477C812.524 450.453 965.836 279.961 1087.41 128.054M657.006 626.955C777.146 490.92 900.581 353.673 1091.82 127.036M669.025 623.635C838.136 435.842 1006.42 253.5 1101.85 124.831M667.862 628.409C763.601 518.035 868.183 400.803 1106.14 131.277M677.555 626.059C810.198 478.053 926.775 335.33 1120.31 125.607M683.273 630.59C764.764 523.753 857.352 423.217 1118.76 129.048M693.62 628.264C848.338 454.234 1012.12 267.651 1138.44 132.295M696.358 628.482C791.83 515.127 892.803 403.541 1133.76 132.101M705.881 636.212C845.624 483.408 963.316 335.499 1140.13 134.185M706.366 631.123C870.922 455.518 1027.97 268.645 1142.27 128.757M719.984 631.632C833.726 491.429 955.538 359.149 1155.33 135.324M718.772 629.403C839.372 494.264 955.174 349.869 1158.67 128.805M738.036 628.288C903.586 450.793 1043.26 266.658 1156 144.677M733.432 632.504C891.446 450.308 1036.23 276.132 1155.62 149.087M741.889 637.738C838.985 522.712 943.301 419.461 1150.31 161.663M744.724 627.755C868.959 490.435 995.423 342.745 1151.72 163.19M764.812 633.958C872.303 502.212 964.358 384.665 1151.23 174.094M759.82 625.598C860.841 512.462 971.409 383.478 1158.96 178.552M765.854 625.453C917.688 466.034 1059.85 289.751 1163.13 194.763M776.274 626.398C930.192 461.939 1082.27 286.746 1153.17 190.668M781.071 621.842C911.582 498.189 1029.83 352.437 1155.93 212.67M783.858 627.343C875.38 534.221 957.258 431.383 1154.14 208.163M796.313 627.876C883.91 533.373 953.115 440.591 1162.26 218.437M798.421 627.076C940.926 463.563 1081.11 306.882 1155.16 217.177M820.375 622.884C916.259 511.105 1018.81 387.646 1154.94 236.95M815.601 625.865C894.256 530.781 967.29 438.241 1155.67 232.128M818.146 638.102C920.33 521.863 1032.59 411.829 1153.75 245.31M827.862 630.299C918.488 508.342 1015.85 391.959 1154.07 250.302M839.033 636.551C946.257 514.4 1032.81 413.331 1150.07 256.069M834.768 627.997C947.711 497.341 1056.49 364.044 1158.28 262.684M846.23 638.829C908.844 551.377 976.401 476.139 1149.9 269.881M847.078 625.913C946.184 533.858 1039.09 427.797 1158.67 274.485M865.688 620.946C940.539 556.829 987.426 485.129 1155.18 297.917M869.347 626.519C972.33 526.589 1060.02 409.163 1158.14 291.786M877.682 633.473C969.859 522.76 1056.87 415.027 1152.73 307.464M873.248 629.645C961.814 518.277 1060.9 417.62 1152.73 305.646M882.553 627.488C993.29 521.621 1074.9 411.441 1163.1 318.441M885.606 625.647C987.208 521.112 1077.49 405.601 1152.98 324.547M903.198 638.247C948.801 568.679 1019.78 496.978 1153.94 345.265M904.991 627.198C970.682 538.389 1042.17 458.038 1157.02 339.037M915.944 629.354C1011.66 538.656 1094.97 422.127 1163.3 359.149M911.727 633.231C994.526 545.101 1067.49 458.086 1159.08 355.248M930.482 637.69C1011.73 521.282 1102.19 422.854 1146.97 374.948M930.071 631.68C992.709 553.873 1057.62 490.75 1153.19 368.672M938.697 638.804C998.5 544.253 1068.82 468.336 1159.74 374.609M939.594 633.062C998.185 559.568 1066.01 491.55 1151.59 388.033M944.416 624.532C990.504 573.379 1039.14 521.427 1152.64 404.244M954.956 625.38C1010.01 561.215 1076.99 495.718 1157.58 399.737M973.663 622.375C1000.12 576.772 1062.23 525.934 1157.77 419.001M969.98 625.962C1029.27 557.653 1092.71 483.384 1158.19 410.181M984.761 638.465C1032.57 562.621 1103.96 499.958 1159.42 419.97M975.626 627.755C1047.67 549.536 1107.88 481.179 1151.84 430.777M987.039 628.046C1043.74 558.404 1099.64 511.662 1154.7 443.887M993.218 631.171C1033.83 586.44 1075.1 533.373 1152.47 441.924M1010.45 630.396C1044.27 589.857 1083.5 532.138 1160.46 448.03M1006.71 627.44C1046.07 585.374 1080.62 540.57 1158.94 455.736M1011.17 622.957C1045.9 581.812 1093.63 549.512 1165.43 465.307M1015.12 630.445C1049.68 591.795 1078.39 557.435 1157.41 470.856M1035.14 636.963C1066.06 589.275 1100.47 538.753 1160.1 487.964M1032.93 630.856C1068.87 584.574 1110.5 540.522 1152.49 485.589M1045.99 630.905C1091.4 582.66 1127.36 526.71 1162.81 507.494M1045.51 628.143C1066.03 596.278 1095.98 575.633 1156.39 502.333M1049.85 625.477C1083.19 595.091 1118.32 556.248 1164.22 523.826M1057.77 633.062C1080.57 606.068 1100.61 579.801 1153.97 510.959M1078.42 635.339C1095.47 608.588 1109.5 580.455 1153.46 527.122M1069.21 631.826C1095.89 603.111 1117.06 567.346 1159.61 532.138M1081.01 629.548C1092.66 617.287 1118.45 588.209 1147.96 536.427M1083.79 627.44C1104.03 607.522 1118.76 577.499 1151.67 543.139M1101.68 637.641C1107.3 606.528 1127.12 591.892 1145.54 561.118M1094.58 632.819C1114.98 604.977 1143.53 579.365 1152.1 558.647M1112.97 632.795C1116.58 622.206 1140.96 598.944 1150.89 582.515M1112.97 625.041C1119.29 616.73 1137.2 602.118 1157.41 577.257M1115.44 637.666C1125.42 612.441 1127.39 610.163 1158.4 582.539M1124.31 625.622C1132.31 620.922 1139.82 609.921 1152.2 593.734M1129.33 627.634C1145.44 626.568 1140.59 611.011 1157.72 603.62M1135.82 626.713C1140.52 625.283 1141.25 619.25 1155.88 604.153M1145.92 630.832C1147.86 628.021 1152.68 624.023 1154.57 615.906M1146.19 628.894C1149.53 625.647 1153.51 622.23 1157 618.014" stroke="#CED4DA" stroke-width="0.5" stroke-linecap="round"/>
<path d="M154.713 128.733C411.493 131.955 669.316 131.592 1150.92 125.292M156.7 130.429C457.533 138.134 760.765 135.105 1150.84 128.951M1154.89 126.334C1147.35 298.498 1145.46 453.943 1157.39 633.013M1150.02 126.309C1154.87 230.456 1154.45 333.973 1154.84 625.816M1149.1 631.172C880.057 636.575 601.08 632.407 159.825 631.802M1152.49 627.198C807.459 625.477 464.827 622.23 157.427 629.863M148.122 628.676C145.553 480.549 160.286 340.176 160.771 128.539M153.501 631.05C163.339 457.577 168.258 285.147 152.362 132.343" stroke="black" stroke-linecap="round"/>
<path fill-rule="evenodd" clip-rule="evenodd" d="M473.638 218.253L489.437 247.33L468.646 277.498L458.857 249.148" fill="#E64980"/>
<path d="M471.941 225.74C480.786 236.426 478.799 253.219 492.805 251.547M469.3 225.304C474.97 232.719 474.801 236.111 490.285 251.741M482.337 252.08C476.618 262.717 474.898 281.376 465.472 289.033M488.443 253.34C486.141 260.924 478.217 266.667 471.578 286.004M475.988 279.219C464.817 270.229 458.735 268.921 447.686 249.947M472.814 284.283C466.344 271.804 456.894 267.709 454.228 253.8M457.185 255.351C466.029 242.896 470.803 235.627 469.47 225.983M451.345 253.703C459.196 243.647 467.822 231.023 472.135 226.71" stroke="black" stroke-linecap="round"/>
<path fill-rule="evenodd" clip-rule="evenodd" d="M724.336 294.105L751.354 318.288L728.213 343.125L712.39 318.336" fill="#E64980"/>
<path d="M726.105 279.638C725.426 298.49 732.332 302.683 743.043 320.977M727.68 284.654C727.22 292.118 733.229 306.802 744.908 313.538M738.099 310.945C740.498 321.026 736.282 327.423 730.927 345.645M743.261 311.43C735.167 321.753 730.66 329.022 725.959 345.16M731.048 342.301C715.952 332.996 718.739 321.413 704.03 314.096M723.439 342.713C723.415 337.091 715.879 326.793 711.299 317.124M712.341 319.596C707.156 306.923 721.38 297.909 721.646 282.619M710.694 315.21C710.282 308.086 717.285 293.644 725.281 281.916" stroke="black" stroke-linecap="round"/>
<path fill-rule="evenodd" clip-rule="evenodd" d="M555.177 372.51L566.542 399.625L546.817 420.513L538.554 409.245" fill="#E64980"/>
<path d="M552.269 374.037C559.151 385.425 562.398 396.766 575.313 396.378M552.754 367.955C560.532 375.539 565.281 387.122 574.829 398.535M571.945 395.118C564.239 412.492 554.401 415.4 555.443 423.663M572.357 401.418C569.28 404.568 561.429 416.466 558.472 426.086M560.871 423.105C550.427 425.916 543.667 409.802 536.107 399.455M556.558 425.117C553.432 419.786 543.182 413.534 535.428 399.407M540.735 399.867C547.617 390.999 556.073 374.957 549.846 376.314M538.191 402.194C540.856 390.369 548.562 381.476 557.309 371.056" stroke="black" stroke-linecap="round"/>
<path fill-rule="evenodd" clip-rule="evenodd" d="M912.687 352.083L928.971 384.02L923.931 407.694L901.25 381.015" fill="#E64980"/>
<path d="M918.914 353.779C920.562 372.243 926.354 378.035 939.438 388.624M921.992 356.251C921.483 366.525 928.728 374.86 933.405 387.364M933.453 387.34C927.032 401.418 927.832 410.602 912.639 421.215M932.775 387.291C934.108 398.22 928.025 403.575 919.205 417.653M913.365 421.821C913.632 411.401 906.823 395.578 907.041 382.299M920.78 416.66C914.141 408.615 907.332 399.698 899.142 384.941M900.45 386.031C911.669 373.188 910.53 366.719 912.929 360.273M904.351 388.406C911.451 375.442 912.081 367.954 921.701 358.092" stroke="black" stroke-linecap="round"/>
<path fill-rule="evenodd" clip-rule="evenodd" d="M720.992 451.657L736.089 474.29L716.485 498.254L715.419 476.373" fill="#E64980"/>
<path d="M724.627 448.895C735.046 451.681 734.126 454.904 745.03 474.604M728.116 443.104C733.908 453.596 737.082 466.947 739.529 471.454M743.019 471.503C738.463 476.228 732.187 482.698 719.926 500.338M741.419 474.314C733.278 482.552 727.632 491.469 726.154 502.301M726.808 506.154C717.576 488.852 719.175 492.075 707.423 467.408M726.929 497.527C721.453 491.397 720.023 488.828 706.768 470.752M705.581 468.619C712.535 461.907 719.95 452.239 720.12 436.609M708.852 471.89C716.34 459.726 722.18 452.699 728.383 444.751" stroke="black" stroke-linecap="round"/>
</svg>
