<svg width="498" height="301" viewBox="0 0 498 301" fill="none" xmlns="http://www.w3.org/2000/svg">
<path d="M1.99876 2.5049C195.849 2.9649 388.469 3.2849 496.239 3.0349M2.49876 2.4649C108.329 0.804901 213.449 1.0049 496.489 2.5349M495.979 1.6149C497.419 105.485 495.389 207.445 495.969 300.355M496.239 3.1949C497.679 65.5349 497.219 127.925 496.459 298.585M496.279 299.215C358.249 299.195 220.089 299.475 2.76876 298.855M496.299 298.985C314.119 296.955 131.489 297.315 2.60876 299.265M2.34876 299.715C0.00876296 188.545 1.84876 77.5649 1.61876 3.8949M2.96876 299.245C1.02876 233.025 0.968763 167.555 2.17876 1.8949" stroke="black" stroke-linecap="round"/>
<path d="M18.4427 75.5822C23.8227 70.0722 25.2127 67.2422 26.9727 65.7722M18.4427 75.5822C20.2827 72.3322 22.4627 69.6722 26.9727 65.7722M18.8427 81.2222C24.4027 79.7422 24.9627 72.0522 31.9627 66.1322M18.8427 81.2222C22.7827 76.7722 27.4627 70.0222 31.9627 66.1322M18.5827 87.6222C21.9527 80.5222 28.2627 70.1622 36.9527 66.4922M18.5827 87.6222C25.8627 79.6722 33.1327 73.5922 36.9527 66.4922M18.9727 93.2622C27.2527 85.9522 31.1327 83.1622 42.5927 66.0922M18.9727 93.2622C25.8027 86.0522 29.0527 83.1222 42.5927 66.0922M18.7127 99.6622C24.2127 88.5722 31.7827 84.9322 47.5827 66.4522M18.7127 99.6622C30.5527 86.6322 40.3227 75.3922 47.5827 66.4522M18.4527 106.062C27.8627 99.7122 30.1027 87.0922 51.2527 68.3222M18.4527 106.062C29.3427 92.3522 40.3127 81.5322 51.2527 68.3222M18.8427 111.702C24.7327 97.5122 33.1127 91.6022 52.9627 72.4522M18.8427 111.702C32.5627 94.8822 44.3727 79.8922 52.9627 72.4522M18.5827 118.102C30.0427 102.102 37.5527 97.9122 54.6627 76.5922M18.5827 118.102C28.4527 107.162 35.5627 96.9122 54.6627 76.5922M18.9827 123.742C23.0027 118.442 31.9727 106.762 55.0627 82.2322M18.9827 123.742C28.2427 114.572 34.3927 107.532 55.0627 82.2322M18.7127 130.142C28.1427 117.932 47.0927 98.1022 54.8027 88.6322M18.7127 130.142C31.3727 116.242 41.9727 103.672 54.8027 88.6322M18.4527 136.542C28.3727 126.712 39.1627 107.992 55.1927 94.2722M18.4527 136.542C31.6327 118.342 47.9427 105.542 55.1927 94.2722M18.8527 142.182C25.0527 136.712 30.7427 122.462 54.9327 100.672M18.8527 142.182C24.3627 134.322 32.6327 125.202 54.9327 100.672M18.5927 148.582C33.1427 134.702 46.1127 122.402 54.6727 107.072M18.5927 148.582C29.4627 136.202 39.2927 125.442 54.6727 107.072M18.9827 154.222C26.6727 146.132 32.6127 131.192 55.0627 112.712M18.9827 154.222C29.3627 139.572 43.3927 128.862 55.0627 112.712M18.7227 160.622C29.2427 149.742 41.0527 134.692 54.8027 119.112M18.7227 160.622C31.6527 145.492 45.5627 132.162 54.8027 119.112M18.4627 167.022C30.9427 147.312 43.6027 137.722 55.2027 124.752M18.4627 167.022C30.5827 155.942 42.9827 141.362 55.2027 124.752M18.8527 172.662C26.9227 159.592 40.7827 145.632 54.9427 131.152M18.8527 172.662C27.7627 162.342 37.2527 152.522 54.9427 131.152M18.5927 179.062C31.4227 169.702 43.0027 152.732 54.6727 137.552M18.5927 179.062C31.0627 167.382 43.7427 154.332 54.6727 137.552M18.9927 184.702C35.8527 167.572 43.8227 151.252 55.0727 143.192M18.9927 184.702C28.9327 171.992 39.1927 161.662 55.0727 143.192M18.7227 191.102C29.9727 179.502 41.6927 160.282 54.8127 149.592M18.7227 191.102C30.5027 179.122 40.0127 168.092 54.8127 149.592M18.4627 197.502C30.9027 183.152 42.6927 172.882 55.2027 155.232M18.4627 197.502C32.2727 183.052 47.6427 167.122 55.2027 155.232M18.8627 203.142C27.6527 190.832 44.0627 177.852 54.9427 161.632M18.8627 203.142C30.5527 187.632 41.6627 175.482 54.9427 161.632M18.6027 209.542C29.9127 192.332 43.7727 180.392 54.6827 168.032M18.6027 209.542C29.0227 194.982 39.6527 181.182 54.6827 168.032M18.9927 215.182C25.2927 203.472 37.1627 198.942 55.0727 173.672M18.9927 215.182C30.5727 200.392 41.3027 185.242 55.0727 173.672M18.7327 221.582C33.8327 206.692 43.2327 195.412 54.8127 180.072M18.7327 221.582C26.8427 209.902 36.2027 197.202 54.8127 180.072M18.4727 227.972C35.2027 213.402 44.6627 196.442 55.2127 185.712M18.4727 227.972C30.9327 215.392 39.2127 200.712 55.2127 185.712M18.8627 233.622C31.7127 218.362 37.0027 208.452 54.9527 192.112M18.8627 233.622C29.5727 221.972 41.1027 206.402 54.9527 192.112M18.6027 240.022C29.4727 228.382 43.6027 212.272 54.6827 198.512M18.6027 240.022C32.0827 226.112 42.1827 214.162 54.6827 198.512M18.9927 245.662C27.0227 231.822 39.4727 217.182 55.0827 204.152M18.9927 245.662C28.1927 233.112 37.9927 220.542 55.0827 204.152M18.7327 252.062C34.3927 239.572 48.5127 220.332 54.8227 210.552M18.7327 252.062C32.7627 240.432 40.5327 223.782 54.8227 210.552M18.4727 258.452C28.6327 250.442 36.6627 237.942 55.2127 216.192M18.4727 258.452C28.4927 245.182 43.5927 231.182 55.2127 216.192M18.8727 264.102C26.1927 252.532 42.1627 242.482 54.9527 222.592M18.8727 264.102C25.8327 254.092 37.1227 245.122 54.9527 222.592M18.6127 270.492C23.4827 265.072 35.1127 253.992 54.6927 228.992M18.6127 270.492C32.3527 256.252 42.2427 244.112 54.6927 228.992M19.6627 275.382C31.8127 256.322 47.8427 242.372 55.0827 234.632M19.6627 275.382C27.9427 264.042 37.1127 255.162 55.0827 234.632M22.6727 278.012C32.2527 269.932 40.0727 255.992 54.8227 241.032M22.6727 278.012C31.2727 265.532 42.7527 254.682 54.8227 241.032M25.6927 280.632C36.9127 270.332 49.3327 256.222 55.2227 246.672M25.6927 280.632C34.4127 270.062 46.6427 256.562 55.2227 246.672M30.6827 280.992C39.1727 273.872 50.0027 260.572 54.9527 253.072M30.6827 280.992C35.3827 273.442 45.2727 266.982 54.9527 253.072M35.6727 281.352C44.1327 270.662 50.1727 263.882 54.6927 259.472M35.6727 281.352C39.6827 274.082 44.0727 270.352 54.6927 259.472M40.6527 281.712C48.9127 273.592 48.9627 273.662 55.0927 265.112M40.6527 281.712C45.4427 276.002 47.2327 273.322 55.0927 265.112M46.3027 281.322C46.6427 279.792 50.9427 276.102 54.8327 271.512M46.3027 281.322C48.9427 277.862 51.6227 273.492 54.8327 271.512M28.6727 278.562C25.1727 273.182 21.6927 270.632 18.1127 269.382M28.6727 278.562C26.5027 276.402 22.0527 272.602 18.1127 269.382M35.0727 278.822C25.6527 270.962 26.0127 272.602 18.4727 264.392M35.0727 278.822C30.5527 274.602 26.6227 271.322 18.4727 264.392M41.4727 279.082C34.7827 276.042 31.7027 272.042 18.0727 258.752M41.4727 279.082C33.3927 273.252 26.2527 267.782 18.0727 258.752M45.6027 277.382C33.4227 265.912 23.0527 260.542 18.4327 253.762M45.6027 277.382C40.7727 273.242 33.2427 268.182 18.4327 253.762M51.2527 276.982C40.0927 270.622 32.0527 259.902 18.0427 248.122M51.2527 276.982C44.7627 269.682 36.3027 264.522 18.0427 248.122M52.3627 272.652C43.7227 265.482 33.9427 260.662 18.4027 243.132M52.3627 272.652C37.3027 259.322 26.3327 250.572 18.4027 243.132M54.2327 268.982C47.4027 265.662 37.6427 250.412 18.0027 237.492M54.2327 268.982C43.9927 256.412 29.4727 249.592 18.0027 237.492M53.8327 263.332C39.8627 249.422 27.7827 243.322 18.3627 232.502M53.8327 263.332C45.5227 254.292 33.5927 247.542 18.3627 232.502M54.2027 258.352C46.8027 253.702 40.8727 246.362 17.9727 226.862M54.2027 258.352C48.1627 254.052 39.6227 244.282 17.9727 226.862M53.8027 252.702C39.7927 241.222 29.9027 232.872 18.3327 221.872M53.8027 252.702C40.4227 241.202 25.3227 231.122 18.3327 221.872M54.1627 247.722C48.6227 243.182 37.3727 233.062 18.6927 216.882M54.1627 247.722C43.0827 235.972 30.3627 227.482 18.6927 216.882M54.5227 242.732C39.3227 232.352 27.6727 217.442 18.2927 211.242M54.5227 242.732C40.7827 229.432 27.5227 219.622 18.2927 211.242M54.1327 237.092C48.0327 225.022 38.9727 217.242 18.6527 206.252M54.1327 237.092C41.7227 228.932 33.3527 215.782 18.6527 206.252M54.4927 232.102C39.8127 223.582 31.9227 209.512 18.2627 200.612M54.4927 232.102C39.7527 222.202 29.0327 211.972 18.2627 200.612M54.0927 226.462C45.1227 214.312 30.8127 206.632 18.6227 195.622M54.0927 226.462C45.5727 218.062 36.6527 210.902 18.6227 195.622M54.4527 221.472C43.3027 215.392 33.7427 209.962 18.2327 189.982M54.4527 221.472C43.4027 214.842 34.2427 204.722 18.2327 189.982M54.0627 215.832C37.8327 206.472 26.7027 187.772 18.5927 184.992M54.0627 215.832C41.7527 206.102 30.5627 193.002 18.5927 184.992M54.4227 210.842C46.9727 203.942 39.7627 196.742 18.1927 179.352M54.4227 210.842C40.9027 200.142 28.8427 187.602 18.1927 179.352M54.0227 205.202C43.6427 193.982 26.9727 182.832 18.5527 174.362M54.0227 205.202C45.3427 198.892 35.4227 188.742 18.5527 174.362M54.3827 200.212C40.0327 186.112 27.3527 174.342 18.1627 168.722M54.3827 200.212C41.7827 191.372 29.7327 179.502 18.1627 168.722M53.9927 194.572C44.4627 190.182 36.3127 179.312 18.5227 163.732M53.9927 194.572C39.8927 182.152 28.4327 168.992 18.5227 163.732M54.3527 189.582C49.3127 184.002 37.4027 172.562 18.1227 158.092M54.3527 189.582C47.6327 181.272 39.0427 176.552 18.1227 158.092M53.9527 183.942C39.2727 171.462 29.2627 162.012 18.4827 153.102M53.9527 183.942C41.5727 174.212 31.6627 164.952 18.4827 153.102M54.3127 178.952C44.0127 170.022 27.6027 157.832 18.0927 147.462M54.3127 178.952C41.4627 167.932 30.9127 157.362 18.0927 147.462M53.9227 173.312C41.3927 165.442 30.9927 152.052 18.4527 142.472M53.9227 173.312C44.2627 165.312 33.3127 156.012 18.4527 142.472M54.2827 168.322C42.8627 163.122 37.6327 147.822 18.0527 136.832M54.2827 168.322C41.2927 159.292 31.8827 147.712 18.0527 136.832M53.8827 162.682C48.8927 156.592 37.1027 147.532 18.4127 131.842M53.8827 162.682C41.1527 154.582 31.8627 143.772 18.4127 131.842M54.2427 157.692C42.0027 149.062 26.2727 135.632 18.0227 126.202M54.2427 157.692C45.2827 149.412 35.2627 140.622 18.0227 126.202M53.8527 152.052C47.3427 141.862 37.7327 133.622 18.3827 121.212M53.8527 152.052C44.1627 145.082 36.3727 136.822 18.3827 121.212M54.2127 147.062C44.1127 136.362 31.9727 127.522 17.9827 115.572M54.2127 147.062C44.1727 141.332 39.3327 134.192 17.9827 115.572M53.8227 141.422C45.5827 129.832 37.2427 121.702 18.3427 110.582M53.8227 141.422C45.4127 136.122 38.7127 128.612 18.3427 110.582M54.1827 136.432C47.2127 130.112 37.7027 117.382 18.7027 105.592M54.1827 136.432C39.5927 126.482 30.6427 116.892 18.7027 105.592M54.5427 131.442C43.5927 124.602 37.9627 117.132 18.3127 99.9522M54.5427 131.442C41.4227 120.732 26.7527 109.202 18.3127 99.9522M54.1427 125.802C41.5427 115.502 37.5127 106.262 18.6727 94.9622M54.1427 125.802C42.1727 112.912 26.8627 101.822 18.6727 94.9622M54.5027 120.812C43.1127 110.622 21.2527 92.3022 18.2827 89.3222M54.5027 120.812C42.6027 109.072 26.0427 95.7622 18.2827 89.3222M54.1127 115.172C40.3127 104.392 27.6627 92.1322 18.6427 84.3322M54.1127 115.172C41.4027 103.402 31.0927 92.8822 18.6427 84.3322M54.4727 110.182C48.8627 106.572 39.5927 94.8122 18.2427 78.6922M54.4727 110.182C40.9927 96.5022 25.5227 86.5322 18.2427 78.6922M54.0727 104.542C45.0627 97.0922 27.9627 80.7922 18.6027 73.7022M54.0727 104.542C47.1527 95.8522 34.9727 88.9622 18.6027 73.7022M54.4327 99.5522C39.0727 92.6722 35.2627 79.3022 19.7227 69.3722M54.4327 99.5522C40.4627 87.8122 26.7427 77.1022 19.7227 69.3722M54.0427 93.9122C45.7927 81.2522 27.2127 69.7622 21.5927 65.7022M54.0427 93.9122C42.0227 83.1922 30.1527 72.6822 21.5927 65.7022M54.4027 88.9222C44.7027 79.4922 39.5827 69.7522 27.2327 65.3022M54.4027 88.9222C44.7327 81.5222 36.7327 70.4522 27.2327 65.3022M54.0027 83.2822C47.0627 76.6122 40.8427 68.8022 33.6327 65.5722M54.0027 83.2822C47.6127 76.5922 38.3027 68.6022 33.6327 65.5722M54.3627 78.2922C52.4227 74.1222 45.7427 71.7122 39.2727 65.1722M54.3627 78.2922C49.2127 72.9022 45.0127 69.5422 39.2727 65.1722M53.9727 72.6522C52.1427 72.6722 48.9727 71.1322 45.6727 65.4322M53.9727 72.6522C52.4027 70.2122 49.3727 68.0522 45.6727 65.4322" stroke="#CED4DA" stroke-width="0.5" stroke-linecap="round"/>
<path d="M26.4927 65.6322C36.1327 68.7822 38.5227 65.5422 44.1227 65.6322M26.4927 65.6322C29.4927 66.7522 33.9727 66.7822 44.1227 65.6322M44.1227 65.6322C53.4527 62.9522 56.0227 70.9122 52.9327 74.4522M44.1227 65.6322C46.4527 62.7022 52.6027 70.9822 52.9327 74.4522M52.9327 74.4522C51.6727 128.182 57.1827 176.882 52.9327 270.342M52.9327 74.4522C50.7827 140.892 51.5327 211.682 52.9327 270.342M52.9327 270.342C54.3327 274.212 46.1027 279.462 44.1227 279.162M52.9327 270.342C54.0627 274.262 51.4027 277.852 44.1227 279.162M44.1227 279.162C43.8427 276.142 35.4327 277.552 26.4927 279.162M44.1227 279.162C36.7327 277.532 30.5127 279.382 26.4927 279.162M26.4927 279.162C19.6027 277.712 15.0127 278.162 17.6727 270.342M26.4927 279.162C16.3627 275.432 17.9727 272.302 17.6727 270.342M17.6727 270.342C20.8727 221.652 15.8627 171.492 17.6727 74.4522M17.6727 270.342C18.3527 203.682 17.3127 140.312 17.6727 74.4522M17.6727 74.4522C20.0727 71.7022 18.0527 67.4122 26.4927 65.6322M17.6727 74.4522C15.6927 65.6822 17.4027 63.1122 26.4927 65.6322" stroke="black" stroke-linecap="round"/>
<path d="M24.1531 97.9355C26.1731 95.2155 33.2731 87.3255 36.7331 83.1155M25.1331 96.5855C28.5531 92.6755 31.9231 91.9555 36.9131 81.2055M27.1231 105.396C30.0331 96.9755 29.8131 94.4255 41.2331 84.7355M25.6231 104.296C30.3831 95.8255 37.3831 91.1755 40.7931 84.2655M26.2331 105.176C34.2231 101.956 35.0731 94.9655 43.6031 84.9155M27.3831 109.566C34.1331 100.866 38.9431 93.7555 46.5731 85.7555M31.2531 111.306C34.5231 106.536 41.1731 95.6755 51.4231 88.9455M31.3331 112.326C37.5131 103.046 41.6931 97.4355 49.8431 87.8955M35.5631 110.586C36.8031 102.636 48.8831 96.8855 47.2231 94.4955M32.9631 111.936C37.9131 108.326 42.4031 104.466 49.8331 92.3955M37.3331 116.246C39.5331 111.786 50.7231 100.726 54.6431 93.9555M36.2231 114.086C38.0831 112.716 44.2931 107.356 52.2031 95.9455M41.5231 114.426C45.3731 112.776 47.6331 108.736 51.3131 107.286M42.8431 112.506C45.1231 111.176 48.5231 107.166 48.9131 105.826" stroke="#868E96" stroke-width="0.5" stroke-linecap="round"/>
<path d="M44.9331 85.1055C47.0331 87.0855 51.5231 92.1855 52.1331 96.1255C52.7531 100.065 50.3931 106.175 48.6231 108.765C46.8531 111.355 44.1931 110.805 41.5131 111.675C38.8431 112.535 35.5031 115.035 32.5731 113.965C29.6331 112.895 25.4231 108.575 23.9131 105.255C22.3931 101.945 22.2931 97.4855 23.4931 94.0655C24.6831 90.6555 28.7531 86.7955 31.0731 84.7755C33.4031 82.7555 34.8831 81.1955 37.4431 81.9455C40.0031 82.6855 44.8131 87.6455 46.4231 89.2255C48.0331 90.8055 46.8431 91.0455 47.0931 91.4155M44.9831 84.5955C47.0331 85.8755 45.9731 87.2455 47.0631 89.8355C48.1531 92.4255 51.8931 96.4455 51.5231 100.125C51.1631 103.795 47.5631 109.295 44.8731 111.905C42.1831 114.515 38.5431 116.185 35.3931 115.775C32.2331 115.365 28.1731 112.495 25.9631 109.435C23.7531 106.375 21.7431 100.795 22.1331 97.4155C22.5131 94.0355 26.5131 91.4055 28.2631 89.1755C30.0131 86.9355 30.3631 84.5555 32.6331 84.0155C34.8931 83.4755 39.9731 86.2555 41.8531 85.9255C43.7331 85.5855 43.4431 82.1555 43.9031 82.0155" stroke="black" stroke-linecap="round"/>
<path d="M28.0467 137.608C32.6667 137.008 32.3767 128.818 38.0367 124.438M26.7767 139.778C29.6367 136.368 35.5067 130.268 36.2367 125.638M30.2667 145.818C30.2067 136.938 36.0267 133.368 41.4967 131.368M29.1667 143.718C31.7267 139.918 38.1067 133.318 41.0267 127.448M26.1167 152.278C30.6467 145.558 31.4067 140.048 42.8267 134.548M30.4967 149.478C33.7667 142.668 38.6167 140.978 43.6567 132.458M31.3267 152.128C38.5167 146.868 39.6167 145.188 45.8367 138.008M32.3367 154.318C35.4567 146.168 42.2467 144.318 44.7867 136.488M31.6467 152.598C34.7767 153.808 40.0967 143.408 51.0267 135.708M32.9967 156.128C39.3367 150.548 45.4267 143.288 48.9267 139.658M38.3567 154.348C46.4967 153.088 48.0267 147.538 50.1267 137.048M36.1967 155.838C43.6467 152.998 47.1267 145.818 52.1167 140.688M44.1567 158.198C48.4767 155.038 48.9867 153.278 55.2967 148.488M41.0867 156.968C45.9467 155.728 46.5167 151.048 52.9667 147.458" stroke="#868E96" stroke-width="0.5" stroke-linecap="round"/>
<path d="M43.9467 131.868C46.1267 133.828 49.1867 136.198 50.5867 139.238C51.9967 142.278 53.6267 147.018 52.3567 150.118C51.0867 153.218 45.4767 156.728 42.9667 157.828C40.4567 158.928 39.6867 157.818 37.3067 156.718C34.9367 155.618 30.6567 153.418 28.7167 151.198C26.7667 148.988 25.6467 146.738 25.6467 143.428C25.6367 140.128 26.8567 134.288 28.6767 131.368C30.5067 128.448 32.9467 125.268 36.6167 125.908C40.2767 126.548 48.3467 131.658 50.6867 135.198C53.0267 138.728 50.6467 146.548 50.6567 147.118M41.8467 125.718C44.6267 125.998 45.9367 131.848 47.2667 134.768C48.6067 137.688 49.4567 140.318 49.8467 143.248C50.2467 146.178 50.8067 150.188 49.6367 152.368C48.4767 154.538 45.7567 155.968 42.8467 156.298C39.9267 156.628 35.2767 155.398 32.1567 154.338C29.0467 153.288 25.1067 152.968 24.1467 149.978C23.1867 146.988 24.8567 139.958 26.3867 136.398C27.9067 132.838 30.4867 129.838 33.2767 128.618C36.0767 127.388 42.2267 128.728 43.1767 129.048C44.1167 129.368 39.3467 130.098 38.9367 130.538" stroke="black" stroke-linecap="round"/>
<path d="M25.8141 185.035C31.8741 178.375 31.2041 178.885 35.3641 173.345M27.7341 183.015C31.5041 181.455 32.8641 175.625 36.4241 172.785M29.8941 186.745C32.1341 181.075 39.7141 175.325 45.7341 173.135M27.7941 187.765C32.2241 185.935 33.8441 181.265 41.8141 169.835M33.2741 191.855C35.7241 183.305 39.3841 179.185 49.3041 172.735M30.4741 194.005C33.0841 189.025 40.8341 181.095 47.2041 174.655M30.6941 200.325C37.0941 189.525 47.1241 182.795 51.7441 177.375M32.8841 197.095C33.3941 195.065 40.2741 187.385 50.2241 176.575M30.3441 198.835C40.9341 194.705 40.0041 191.825 49.8441 181.375M33.8841 202.395C40.6541 196.125 45.7541 186.425 53.7941 181.165M34.5541 206.745C43.4741 198.095 48.1341 190.385 50.2641 185.275M36.0441 203.935C41.7841 199.335 43.2041 195.635 53.9041 184.615M41.6341 208.155C47.5941 198.615 55.2441 195.175 59.0241 185.295M40.1041 205.865C47.1241 198.005 49.8341 193.225 57.7441 188.535" stroke="#868E96" stroke-width="0.5" stroke-linecap="round"/>
<path d="M43.4741 171.265C46.4841 172.205 48.3641 176.465 49.9941 178.855C51.6341 181.245 53.2441 182.285 53.2841 185.625C53.3241 188.975 52.4041 195.985 50.2241 198.915C48.0441 201.835 43.2641 202.855 40.1941 203.175C37.1241 203.495 33.7341 202.685 31.7841 200.855C29.8341 199.025 29.4341 195.425 28.5041 192.195C27.5741 188.965 25.7441 184.525 26.2041 181.445C26.6541 178.375 27.2941 173.755 31.2241 173.735C35.1541 173.715 46.5941 177.205 49.7641 181.305C52.9241 185.405 49.9541 198.125 50.2141 198.335M28.7341 174.145C30.4841 171.435 37.4641 169.455 40.5841 169.765C43.7041 170.085 45.6641 173.305 47.4441 176.025C49.2241 178.745 51.0541 182.965 51.2641 186.085C51.4841 189.205 50.2441 192.515 48.7141 194.755C47.1941 197.005 44.0541 198.345 42.1241 199.555C40.1941 200.775 39.6141 202.565 37.1341 202.055C34.6541 201.555 29.1341 199.035 27.2341 196.555C25.3341 194.065 24.9141 191.005 25.7141 187.175C26.5141 183.335 30.7741 175.445 32.0641 173.535C33.3441 171.625 33.0941 175.315 33.4241 175.715" stroke="black" stroke-linecap="round"/>
<path d="M28.3606 232.155C26.3406 226.465 31.9906 222.325 38.4606 218.305M26.2006 230.945C30.4406 226.645 30.1206 223.615 37.8606 220.005M25.4706 233.575C30.7806 230.285 36.0506 228.115 42.2406 216.405M26.4806 236.295C31.6806 230.915 34.0606 226.115 38.9406 221.205M26.7406 240.985C29.6506 233.075 36.9406 232.185 43.5406 221.535M28.8906 239.185C35.3106 235.325 38.8206 228.445 45.4706 222.505M34.0906 243.085C35.9906 240.535 41.9706 233.285 47.8306 220.195M30.8706 242.095C39.3306 237.815 42.1706 229.775 47.0306 223.635M30.7406 249.375C39.0406 236.075 48.5906 229.845 52.2206 228.855M34.3006 247.395C41.1406 239.435 44.5306 235.675 52.0106 226.285M40.5506 250.755C43.2006 244.135 46.7806 231.905 55.6606 224.625M37.7406 250.285C42.7906 241.965 48.6606 236.125 55.0006 229.835M44.2606 250.425C43.7006 249.845 47.7106 247.545 49.4106 240.145M42.5406 250.355C43.4706 245.915 46.6906 245.755 51.8406 239.225" stroke="#868E96" stroke-width="0.5" stroke-linecap="round"/>
<path d="M28.3006 222.585C30.6306 219.985 35.9906 218.405 38.6106 218.075C41.2206 217.745 41.6906 219.125 44.0006 220.595C46.3006 222.065 51.3306 224.015 52.4406 226.915C53.5506 229.815 52.0906 234.435 50.6706 237.975C49.2606 241.515 46.6406 246.655 43.9606 248.175C41.2806 249.685 37.3906 248.355 34.5906 247.055C31.7906 245.765 28.7106 243.275 27.1506 240.405C25.5906 237.545 23.5906 233.555 25.2206 229.845C26.8506 226.145 33.2106 219.495 36.9406 218.155C40.6606 216.815 47.4406 221.945 47.5706 221.815M45.6906 223.015C47.3006 225.375 48.5806 228.035 49.3406 230.945C50.1006 233.855 51.1306 238.035 50.2506 240.475C49.3806 242.915 46.9306 244.825 44.0906 245.585C41.2606 246.345 36.5506 245.685 33.2706 245.025C29.9806 244.355 25.7006 244.435 24.4006 241.615C23.1006 238.795 24.3006 231.805 25.4706 228.115C26.6406 224.425 28.8306 221.075 31.4306 219.485C34.0306 217.885 38.7906 217.805 41.0606 218.545C43.3306 219.285 44.1006 223.025 45.0706 223.945C46.0306 224.865 46.7806 224.105 46.8406 224.075" stroke="black" stroke-linecap="round"/>
<path d="M85.4277 84.8093C84.9177 83.2693 89.0077 81.6593 88.7277 78.4793M84.8377 83.7093C86.4877 82.1993 89.3377 80.0193 90.5677 77.8093M82.8477 92.1493C86.4777 87.6793 88.6277 82.2193 94.2977 79.8593M83.8577 91.1493C86.9777 86.7893 89.9477 85.6393 96.8877 76.8993M81.9377 99.3693C86.8677 89.4593 99.4077 82.8093 97.5577 75.7893M83.8077 95.4293C87.9077 88.2293 95.7477 84.1893 101.098 77.7493M81.6277 99.5893C90.0177 97.5993 98.1377 89.9093 104.028 81.4893M83.4677 102.149C93.9077 93.0293 101.368 83.7993 108.098 79.1793M86.0977 110.739C96.5777 96.9393 96.8977 89.8493 112.608 76.9893M86.9477 107.819C97.6577 94.3493 104.388 83.1493 111.848 76.6293M87.4977 118.119C93.5677 97.6993 104.448 90.0793 118.808 76.7293M84.8777 115.259C96.3377 103.289 105.258 89.7093 118.698 75.7893M85.6077 122.979C102.078 103.019 112.688 90.6993 123.448 77.8793M87.0177 119.409C93.9577 110.499 105.968 97.4693 121.398 77.5793M84.2077 126.559C99.1377 111.839 114.018 93.6393 128.128 76.0593M83.1177 128.639C100.788 110.279 115.808 92.3393 127.128 79.2493M85.8177 130.529C98.2277 122.289 108.048 110.409 136.238 77.0993M86.4077 130.679C101.508 114.199 115.728 101.199 131.218 79.4993M84.7677 140.799C103.568 118.519 123.518 93.2293 140.468 80.7793M83.2377 137.689C98.1777 121.159 116.218 104.529 137.198 75.6193M86.0177 143.959C98.9777 124.919 120.368 108.239 139.768 76.6193M84.5177 144.179C96.8777 126.869 113.818 109.809 142.468 76.5993M85.4577 147.329C107.088 126.109 134.218 103.799 150.908 75.5793M86.6477 152.359C106.298 124.129 131.158 97.8693 150.398 76.2493M82.7977 154.189C107.328 127.049 129.738 99.7193 153.428 81.8393M85.0577 156.769C114.778 124.609 142.948 93.6393 151.978 78.3793M95.0877 153.239C114.108 130.279 132.208 106.779 157.178 76.5293M92.3377 155.119C109.398 133.519 129.728 113.529 157.918 77.8293M97.8877 159.969C118.108 135.599 139.178 107.599 163.268 77.4993M95.9977 155.039C114.108 135.339 131.388 116.809 164.288 77.6793M97.8877 153.279C120.588 129.889 140.348 112.279 167.618 75.0493M103.778 156.069C119.998 136.229 135.588 117.469 168.638 78.3193M105.308 156.549C134.778 131.849 152.008 102.339 177.938 75.7193M108.628 156.069C121.758 138.279 136.168 120.519 175.618 78.6393M113.418 157.359C131.778 129.939 147.838 108.459 177.208 77.9693M112.858 156.369C134.168 134.759 152.368 112.939 181.108 77.0393M115.518 159.249C144.128 129.609 173.178 95.3293 188.728 75.9993M117.748 154.889C138.958 132.869 161.348 105.329 185.858 76.7093M124.458 157.469C143.698 130.159 166.848 101.429 191.548 75.4493M123.718 155.239C148.918 131.639 170.618 101.779 191.588 78.5993M125.618 158.739C150.198 130.089 179.768 98.5993 193.528 81.2093M127.868 155.869C151.208 131.129 174.408 104.599 194.618 78.6593M136.418 156.989C157.308 131.209 186.348 103.599 202.178 81.8293M132.198 155.189C158.208 128.549 181.238 102.009 201.358 77.6593M135.328 153.099C159.328 130.489 183.798 101.689 204.898 81.5993M137.168 156.679C154.908 140.199 169.888 123.979 205.178 78.5693M145.338 154.669C167.038 125.929 199.208 92.1193 213.278 76.5193M145.838 154.039C157.908 138.889 173.498 123.109 211.348 79.9593M146.988 155.749C174.268 123.249 204.578 94.5893 217.978 78.7893M149.518 156.299C175.038 124.969 200.668 96.3393 216.488 77.8293M153.868 152.619C176.388 135.209 194.898 109.959 221.658 80.5893M155.858 156.949C181.778 127.999 206.068 97.3893 222.218 78.7893M157.588 155.519C176.538 135.819 191.878 122.959 226.558 77.7793M158.488 155.039C176.508 139.189 188.168 122.419 227.228 77.1393M162.638 157.119C182.308 136.309 203.958 113.909 235.418 81.7193M164.498 157.109C182.668 135.639 201.208 113.469 232.958 76.0293M166.698 156.569C194.088 136.359 207.378 115.569 239.038 78.9493M171.318 154.499C189.128 133.029 207.018 114.029 239.718 76.5293M172.878 159.499C188.748 137.009 205.968 120.489 241.258 74.9893M175.668 156.789C197.888 131.969 216.358 109.989 244.268 78.8393M184.558 154.479C204.848 124.749 230.428 95.9193 240.558 84.8393M180.958 157.609C205.398 127.359 228.268 103.919 242.098 86.1093M182.448 156.789C201.588 135.889 219.158 121.839 241.398 91.6393M186.988 155.819C196.268 145.219 209.658 129.169 243.358 92.5293M192.008 152.169C212.218 135.639 231.968 107.839 246.078 93.0493M190.018 156.589C205.118 140.339 219.378 121.689 245.388 95.0093M196.508 156.599C207.068 144.579 223.258 128.199 239.598 103.919M196.428 156.589C212.658 140.969 228.118 121.609 242.108 101.329M204.508 159.969C211.058 142.979 219.288 135.019 240.488 108.799M202.818 157.009C216.808 142.079 231.608 123.639 243.588 107.909M210.858 153.919C222.088 140.239 230.258 127.729 245.808 113.749M205.648 156.799C219.158 141.879 229.968 127.029 241.608 113.089M216.178 155.549C226.928 142.229 236.488 135.029 242.018 122.729M213.358 157.709C220.448 150.059 225.688 141.459 245.148 122.829M219.888 155.149C223.258 145.819 234.788 141.379 241.248 129.699M219.988 157.479C226.898 146.219 233.088 140.719 245.288 128.229M223.708 155.969C228.688 148.629 234.788 142.229 245.538 134.569M225.318 154.879C227.178 151.949 232.338 145.839 244.148 134.839M232.648 154.009C230.998 147.949 238.778 148.009 241.758 135.699M228.478 154.949C232.308 150.539 235.948 149.439 242.278 140.499M234.448 154.339C238.918 153.379 239.078 151.969 242.848 142.779M235.578 154.569C236.928 152.129 240.118 149.309 244.158 144.799M239.808 156.069C239.768 154.209 242.978 152.609 242.678 150.559M239.528 156.439C240.508 154.659 240.928 153.439 243.148 152.319" stroke="#CED4DA" stroke-width="0.5" stroke-linecap="round"/>
<path d="M84.4077 78.9692C136.598 77.9392 187.028 80.4592 244.068 77.2292M83.8077 78.1792C128.558 75.7292 174.528 78.1592 242.028 78.2492M241.958 78.4892C245.458 103.769 245.618 135.879 239.218 156.069M244.138 77.9492C242.078 96.9592 242.538 120.659 244.568 155.639M244.128 155.469C196.518 160.299 156.538 158.859 88.2477 151.489M242.518 156.279C189.698 157.799 137.738 158.399 85.0577 155.409M83.7677 157.779C83.3177 135.179 82.2477 110.069 84.9577 78.4692M83.6877 156.219C85.3477 137.369 86.2277 121.849 86.2077 78.8292" stroke="black" stroke-linecap="round"/>
<path d="M266.854 83.2595C268.194 81.4195 269.614 79.0295 271.234 78.0095M266.524 84.0695C267.604 83.9395 269.214 82.0295 272.074 79.2595M268.124 87.5395C269.064 86.1995 275.674 81.3995 275.854 81.3495M265.474 88.7895C269.854 87.8895 270.124 85.3795 278.524 77.2895M264.824 94.4395C271.054 89.8895 275.984 81.6895 285.954 76.1195M266.024 97.6795C270.654 90.1995 277.324 85.5795 281.404 79.3995M269.784 105.24C270.504 91.0995 279.304 81.7395 287.864 80.2595M266.034 101.28C272.404 97.5095 275.784 92.1195 287.204 78.1795M263.494 105.46C277.604 98.4195 286.254 83.3595 290.364 80.4395M265.314 109.57C275.654 98.4595 287.524 83.9595 292.304 76.4895M268.004 114.78C273.204 99.3995 285.144 93.8495 297.384 74.9595M266.914 114.84C276.674 102.27 287.894 92.4495 298.254 78.7195M263.494 122.29C275.454 111.51 292.204 91.2295 300.614 78.3295M265.774 120.71C280.034 103.33 296.684 88.9895 301.714 79.7395M264.614 126.6C275.384 114.93 291.404 97.3695 307.054 81.0395M265.574 127.51C279.884 113.44 290.964 99.2995 310.564 77.9795M267.284 136.24C274.264 119.08 287.784 109.76 315.974 77.2795M266.234 134.15C284.484 111.4 300.874 92.3195 313.554 76.5995M265.734 141.46C280.754 125.02 300.774 103.41 322.464 80.6995M265.524 139.24C282.284 120.07 302.514 100.18 320.384 76.5695M263.314 146.73C285.294 116.01 312.894 93.5095 326.364 80.1695M266.534 147C280.824 127.96 296.084 112.32 323.394 77.8395M268.784 154.73C279.334 137.05 292.584 113.54 327.834 79.4895M266.594 152.55C286.014 126.65 307.754 105.45 329.644 76.4195M271.224 155.32C293.334 128.22 316.734 98.9795 336.304 77.2295M268.794 156.4C280.934 140.15 294.094 123.38 334.534 77.5395M276.994 156.85C293.804 131.4 322.564 104.27 342.014 74.3495M275.544 152.97C300.784 124.15 327.844 94.6095 341.974 76.7595M281.974 154.15C292.544 138.74 312.524 121.15 348.964 78.0895M281.484 156.06C301.234 128.85 325.084 104.4 345.944 77.0895M281.104 154.48C309.484 127.91 326.614 106.64 354.474 77.5995M283.644 154.17C299.094 138.48 311.864 124.74 350.674 78.1295M292.644 157.08C298.864 136.64 319.914 125.21 358.124 79.7595M290.294 155.34C308.214 131.85 329.754 110.03 356.254 77.1895M295.114 156.89C321.124 127.69 341.494 100.77 365.304 76.9095M294.534 156.36C319.904 126.65 345.754 99.8895 362.754 78.4095M302.834 152.3C325.134 121.51 350.094 94.9295 364.184 74.5995M302.464 155.84C322.204 129.85 341.614 106.42 367.834 77.8695M302.924 156.95C331.794 128.85 346.434 100.93 369.224 75.3395M306.784 155.33C326.144 133.2 345.734 109.93 370.904 76.7495M314.774 151.38C327.314 134.16 336.584 122.14 374.184 74.3595M310.934 152.48C329.304 138.03 343.824 117.71 378.704 78.4495M319.074 150.91C342.814 131.45 365.684 97.7595 378.934 76.0895M314.694 154.15C336.614 133.01 358.354 106.95 384.824 78.4095M324.644 158.01C336.594 138.53 354.784 111.41 385.784 78.1695M321.674 154.26C344.824 128.46 369.814 99.1495 386.584 77.5595M324.714 154.39C347.834 129.27 367.484 103 395.714 79.4595M328.224 155.21C353.104 126.21 374.624 99.0595 393.904 79.6695M333.224 156.97C359.724 126.65 381.154 93.9995 395.264 80.5195M332.314 153.22C352.764 131.46 370.314 111.14 400.864 77.1795M339.644 154.39C360.354 129.34 378.104 108.71 405.504 79.3895M337.034 156.21C359.964 132.5 379.324 107.18 403.244 80.3895M341.964 158.72C366.044 130.54 382.004 106.11 413.534 79.2895M344.184 156.96C356.714 135.75 374.544 118.73 410.664 78.5495M350.254 157.28C367.074 128.19 393.614 101.03 413.514 76.4395M350.454 154.18C366.224 133.93 383.104 111.7 416.254 76.9995M355.584 156.32C376.134 135.67 396.434 111.9 418.124 75.7295M352.984 153.67C375.044 128.9 399.394 102.36 420.744 78.2695M357.584 156.81C383.754 128.07 403.444 108.58 427.594 78.5395M357.524 153.44C369.904 139.54 385.314 124.63 426.074 79.2395M365.424 158.2C379.764 142.51 388.924 120.78 427.294 81.2395M364.074 156.82C388.274 126.66 409.294 100.93 425.674 83.0195M369.294 158.11C384.874 142.87 395.104 131.86 423.074 89.8295M370.964 153.62C389.044 131.82 406.754 112.92 424.374 90.9795M373.454 156.17C391.224 141.53 405.604 121.06 425.124 94.3195M376.524 153.22C393.284 132.73 411.524 111.76 426.914 98.4795M383.664 153.67C391.384 139.54 405.074 126.45 424.844 103.43M379.184 153.7C394.684 137.15 412.884 119.02 423.434 102.99M384.264 157.41C400.614 136.88 418.334 118.91 421.634 105.06M387.084 154.98C397.134 143.14 405.084 131.6 424.914 109.9M389.614 155.37C401.034 149.61 401.814 138.34 423.974 118.13M390.264 155.93C399.594 144.76 409.804 135.47 424.814 113.71M397.094 152.5C402.704 143.22 410.794 140.56 428.194 120.97M394.194 155.52C408.024 140.47 419.824 127.65 426.534 119.86M398.654 154.45C404.264 147.55 412.884 134.63 422.814 123.38M399.984 153.89C405.994 147.07 411.334 141.86 424.364 126.12M405.774 155.35C415.924 149.61 421.854 143.02 424.774 134.64M405.964 153.56C409.994 152.28 414.874 147.62 424.314 131.98M412.964 153.53C419.434 147.73 417.414 145.16 426.324 139.98M411.814 152.48C417.174 149.48 416.804 148.93 423.654 140.51M415.774 155.11C418.034 151.9 423.734 149.67 426.854 144.92M416.634 153.84C418.874 152.38 421.814 150.86 424.754 146.8M423.274 153.86C423.174 153.75 424.004 153.29 424.964 151.68M422.614 154.65C423.404 154.17 423.414 153.22 424.934 152.04" stroke="#CED4DA" stroke-width="0.5" stroke-linecap="round"/>
<path d="M268.044 74.7095C301.644 75.4395 331.804 78.7995 426.454 77.7095M265.414 76.5495C308.344 77.6195 354.604 79.5495 424.914 76.9195M425.944 79.3895C422.424 97.0695 428.334 118.51 428.514 154.3M423.014 76.3795C426.554 106.53 424.954 133.18 426.354 154.4M425.214 154.38C379.304 155.7 340.894 153.66 270.214 151.83M424.104 154.27C371.324 153.3 317.514 152.02 267.044 153.05M267.084 153.67C267.734 130.65 264.304 100.03 264.254 74.6295M264.604 154.24C263.534 130.64 265.384 106.45 267.624 78.0595" stroke="black" stroke-linecap="round"/>
<path d="M84.2416 183.866C87.0616 183.956 88.7616 180.376 89.9816 180.616M85.4316 185.086C86.6216 183.616 88.2916 180.656 89.4216 178.776M85.4116 192.746C87.1916 185.646 90.4016 183.406 97.4416 175.676M85.6616 191.986C89.6016 186.076 91.3516 183.406 96.9616 177.766M87.8516 196.766C87.2016 196.966 90.9116 188.696 97.6416 176.826M83.8716 196.736C86.5716 193.446 92.5216 191.316 100.452 180.826M86.7016 203.516C86.5316 199.866 91.1816 195.926 102.792 178.706M85.4416 200.866C94.3416 192.396 100.262 182.836 104.482 177.676M83.9816 206.676C92.7416 195.586 104.932 186.996 109.012 180.686M85.4516 210.716C93.8516 202.266 101.452 192.466 111.902 177.236M82.3416 214.186C96.2816 207.636 103.462 196.816 113.592 176.576M84.4716 217.616C94.0916 203.206 104.822 192.666 117.392 177.316M81.3516 224.646C91.4416 207.586 106.382 197.186 124.352 181.646M85.5716 219.626C99.0216 206.916 113.412 192.136 121.362 177.596M81.7716 227.416C99.3016 213.886 116.602 191.286 131.152 176.386M83.1716 226.886C94.8416 215.446 105.672 203.266 126.082 176.696M88.3816 235.036C105.962 210.376 117.312 194.096 130.892 182.256M86.5716 231.486C100.862 217.166 112.492 200.616 133.282 177.326M87.0416 239.026C92.5516 226.176 109.952 214.016 139.002 181.396M85.5516 240.606C100.082 225.496 113.232 207.996 140.312 179.396M87.4516 242.346C100.932 223.366 120.242 205.126 142.462 176.446M85.8416 246.376C108.192 221.166 131.522 196.136 141.772 177.166M87.4916 251.446C99.7616 234.156 111.572 222.726 151.302 182.226M86.0016 251.256C99.9516 236.016 116.362 215.666 149.572 180.326M88.1416 257.186C115.642 228.116 135.882 194.306 151.562 181.536M89.0116 254.406C104.272 240.976 116.922 222.136 154.642 179.166M90.3316 258.186C114.782 232.896 139.642 202.926 156.832 180.876M91.7916 256.336C110.552 235.636 127.842 215.066 159.002 177.676M99.3316 252.766C126.382 225.106 150.782 193.706 161.252 182.206M98.1016 256.256C115.062 236.446 132.202 216.976 165.402 178.676M102.212 256.956C123.762 231.276 145.262 199.666 167.002 174.706M104.732 255.476C125.802 232.836 143.502 208.526 169.442 176.956M108.062 252.006C129.552 231.306 148.052 208.286 177.282 178.526M110.322 254.236C123.982 239.386 135.702 224.916 177.232 180.386M117.062 252.106C128.842 241.746 143.552 219.676 183.852 180.486M112.982 256.886C136.712 229.876 157.132 204.666 181.442 179.016M115.872 256.156C144.782 224.446 170.692 196.646 183.992 177.916M118.452 256.936C138.112 234.746 157.902 213.696 187.002 178.256M126.732 251.556C142.482 233.076 165.012 209.256 192.032 178.316M125.672 254.286C147.212 230.256 165.052 203.216 191.202 179.976M130.912 253.856C152.282 221.096 184.112 191.536 200.332 179.196M130.962 256.246C150.272 231.706 168.262 210.376 197.292 179.606M133.702 254.616C157.022 226.656 182.602 202.906 198.162 176.466M133.602 254.736C160.432 229.756 180.892 205.396 201.972 180.056M143.302 253.836C156.902 244.976 172.082 222.256 207.922 180.546M139.342 256.126C162.422 227.116 187.832 199.566 208.332 177.036M143.062 251.976C165.962 236.346 179.542 216.556 209.482 176.296M145.282 254.596C162.842 230.776 183.352 210.626 210.672 180.506M151.772 257.976C172.042 230.626 191.942 205.116 214.972 179.536M152.762 257.576C168.412 232.726 185.982 212.756 218.062 180.476M154.532 257.706C172.652 228.446 193.682 210.076 221.852 176.806M154.882 255.536C182.042 226.686 207.222 195.746 223.912 180.176M159.702 257.776C183.502 229.336 216.982 198.776 232.332 181.086M162.092 255.186C181.952 234.786 200.352 213.796 230.112 177.156M170.452 253.226C193.412 226.916 220.502 196.406 230.442 179.616M166.292 256.536C184.262 239.076 200.752 216.296 232.652 180.436M169.742 255.346C192.002 234.976 210.152 210.876 241.472 181.526M170.542 254.096C189.482 234.236 206.062 216.816 237.782 179.616M179.802 251.356C201.522 229.866 223.422 199.856 245.022 181.726M177.072 253.906C191.772 238.626 206.292 220.196 243.572 178.006M183.172 256.196C196.862 244.416 202.842 227.526 244.582 183.326M181.022 254.756C198.612 239.816 211.132 222.626 242.182 184.526M190.172 256.276C203.182 235.286 219.612 214.456 246.862 188.336M186.462 253.246C202.772 237.886 214.992 220.186 243.842 193.726M191.912 253.206C203.452 243.076 214.222 234.626 245.692 196.026M192.122 256.936C214.722 232.226 233.412 210.356 245.302 197.536M195.792 255.546C205.152 243.306 222.272 231.736 246.802 205.626M199.412 253.476C209.102 242.646 223.232 230.956 243.312 205.346M202.492 258.606C215.912 245.886 226.092 228.946 246.732 208.796M202.122 255.716C216.582 240.196 229.232 227.096 242.112 209.856M209.492 252.116C218.712 240.216 237.212 225.346 241.832 217.456M210.532 254.846C220.682 244.386 227.852 232.686 243.042 216.256M212.072 256.036C222.212 243.496 234.972 231.636 247.042 224.196M213.002 253.496C223.292 246.166 229.102 237.716 244.012 224.036M222.762 256.276C231.862 250.216 235.392 237.916 244.242 226.326M220.142 254.886C230.282 247.076 238.712 237.096 244.432 228.406M224.422 256.476C230.752 251.716 239.002 244.836 242.512 233.896M226.402 255.966C230.752 250.876 233.122 247.866 242.072 233.676M229.682 253.716C236.932 253.156 236.382 243.796 240.942 238.116M230.242 256.476C233.992 252.406 237.982 244.676 244.572 239.076M234.722 257.156C235.302 252.336 239.172 253.476 244.922 246.866M235.752 255.856C239.422 253.446 242.632 248.606 243.332 247.316M241.732 254.796C242.472 254.516 242.372 254.446 243.082 253.066M241.362 255.136C241.652 254.436 242.152 254.016 243.502 252.886" stroke="#CED4DA" stroke-width="0.5" stroke-linecap="round"/>
<path d="M82.4616 178.006C148.162 181.176 208.322 180.236 243.642 179.816M86.2816 180.186C129.762 180.446 178.082 181.086 243.272 176.896M240.792 175.916C243.902 209.006 245.582 239.436 244.852 250.936M244.802 179.566C243.442 202.226 240.982 230.606 241.422 254.906M246.852 256.316C190.272 252.246 140.452 254.386 81.6016 249.496M244.962 255.116C200.942 254.256 159.362 252.096 84.5116 253.706M83.2316 256.706C80.5316 235.366 82.9916 208.866 84.7316 178.596M85.8016 254.286C87.6916 229.606 86.0416 204.476 83.9316 180.326" stroke="black" stroke-linecap="round"/>
<path d="M109.186 110.012V95.0124H110.806V96.7453H111.005C111.128 96.5559 111.298 96.3144 111.516 96.0209C111.738 95.7226 112.056 95.4574 112.468 95.2254C112.884 94.9887 113.448 94.8703 114.158 94.8703C115.077 94.8703 115.886 95.1 116.587 95.5592C117.288 96.0185 117.835 96.6696 118.228 97.5124C118.621 98.3552 118.817 99.3495 118.817 100.495C118.817 101.651 118.621 102.652 118.228 103.5C117.835 104.342 117.29 104.996 116.594 105.46C115.898 105.919 115.095 106.149 114.186 106.149C113.486 106.149 112.925 106.033 112.503 105.801C112.082 105.564 111.757 105.296 111.53 104.998C111.303 104.695 111.128 104.444 111.005 104.245H110.863V110.012H109.186ZM110.834 100.467C110.834 101.291 110.955 102.018 111.196 102.647C111.438 103.272 111.791 103.762 112.255 104.117C112.719 104.468 113.287 104.643 113.959 104.643C114.66 104.643 115.245 104.458 115.713 104.089C116.187 103.715 116.542 103.213 116.779 102.583C117.02 101.949 117.141 101.243 117.141 100.467C117.141 99.6999 117.023 99.0086 116.786 98.393C116.554 97.7728 116.201 97.2827 115.728 96.9229C115.259 96.5583 114.669 96.376 113.959 96.376C113.277 96.376 112.704 96.5488 112.24 96.8945C111.776 97.2354 111.426 97.7136 111.189 98.3291C110.952 98.9399 110.834 99.6525 110.834 100.467ZM124.584 106.177C123.893 106.177 123.265 106.047 122.702 105.787C122.139 105.521 121.691 105.14 121.36 104.643C121.028 104.141 120.863 103.535 120.863 102.825C120.863 102.2 120.986 101.693 121.232 101.305C121.478 100.912 121.807 100.604 122.219 100.382C122.631 100.159 123.086 99.9934 123.583 99.8845C124.085 99.7709 124.589 99.6809 125.095 99.6146C125.758 99.5294 126.296 99.4655 126.708 99.4229C127.124 99.3755 127.427 99.2974 127.617 99.1885C127.811 99.0796 127.908 98.8902 127.908 98.6203V98.5635C127.908 97.8627 127.716 97.3182 127.333 96.93C126.954 96.5417 126.379 96.3476 125.607 96.3476C124.807 96.3476 124.179 96.5228 123.725 96.8732C123.27 97.2235 122.951 97.5976 122.766 97.9953L121.175 97.4271C121.459 96.7643 121.838 96.2482 122.311 95.8788C122.79 95.5048 123.31 95.2444 123.874 95.0976C124.442 94.9461 125.001 94.8703 125.55 94.8703C125.9 94.8703 126.303 94.9129 126.757 94.9982C127.217 95.0786 127.659 95.2467 128.086 95.5024C128.516 95.7581 128.874 96.144 129.158 96.6601C129.442 97.1762 129.584 97.8675 129.584 98.7339V105.921H127.908V104.444H127.823C127.709 104.681 127.52 104.934 127.255 105.204C126.989 105.474 126.637 105.704 126.196 105.893C125.756 106.082 125.219 106.177 124.584 106.177ZM124.84 104.671C125.503 104.671 126.061 104.541 126.516 104.281C126.975 104.02 127.321 103.684 127.553 103.272C127.79 102.86 127.908 102.427 127.908 101.973V100.438C127.837 100.524 127.681 100.602 127.439 100.673C127.202 100.739 126.928 100.798 126.615 100.85C126.308 100.898 126.007 100.94 125.713 100.978C125.425 101.011 125.19 101.04 125.01 101.063C124.575 101.12 124.167 101.213 123.789 101.34C123.415 101.464 123.112 101.651 122.88 101.902C122.652 102.148 122.539 102.484 122.539 102.91C122.539 103.492 122.754 103.933 123.185 104.231C123.621 104.525 124.172 104.671 124.84 104.671ZM137.075 106.149C136.052 106.149 135.172 105.907 134.433 105.424C133.695 104.941 133.126 104.276 132.729 103.429C132.331 102.581 132.132 101.613 132.132 100.524C132.132 99.4158 132.336 98.438 132.743 97.5905C133.155 96.7382 133.728 96.073 134.462 95.5947C135.2 95.1118 136.062 94.8703 137.047 94.8703C137.814 94.8703 138.505 95.0124 139.121 95.2964C139.736 95.5805 140.24 95.9783 140.633 96.4896C141.026 97.001 141.27 97.5976 141.365 98.2794H139.689C139.561 97.7822 139.277 97.3419 138.837 96.9584C138.401 96.5701 137.814 96.376 137.075 96.376C136.422 96.376 135.849 96.5464 135.356 96.8874C134.869 97.2235 134.488 97.6994 134.213 98.3149C133.943 98.9257 133.808 99.643 133.808 100.467C133.808 101.31 133.941 102.044 134.206 102.669C134.476 103.294 134.855 103.779 135.342 104.125C135.835 104.47 136.412 104.643 137.075 104.643C137.511 104.643 137.906 104.567 138.261 104.416C138.616 104.264 138.917 104.046 139.163 103.762C139.41 103.478 139.585 103.137 139.689 102.74H141.365C141.27 103.384 141.036 103.964 140.662 104.48C140.293 104.991 139.802 105.398 139.192 105.701C138.586 106 137.88 106.149 137.075 106.149ZM145.378 101.944L145.349 99.8703H145.69L150.463 95.0124H152.537L147.452 100.154H147.31L145.378 101.944ZM143.815 105.921V91.376H145.491V105.921H143.815ZM150.747 105.921L146.486 100.524L147.679 99.3589L152.878 105.921H150.747ZM157.904 106.177C157.213 106.177 156.586 106.047 156.022 105.787C155.459 105.521 155.011 105.14 154.68 104.643C154.349 104.141 154.183 103.535 154.183 102.825C154.183 102.2 154.306 101.693 154.552 101.305C154.798 100.912 155.127 100.604 155.539 100.382C155.951 100.159 156.406 99.9934 156.903 99.8845C157.405 99.7709 157.909 99.6809 158.416 99.6146C159.079 99.5294 159.616 99.4655 160.028 99.4229C160.445 99.3755 160.748 99.2974 160.937 99.1885C161.131 99.0796 161.228 98.8902 161.228 98.6203V98.5635C161.228 97.8627 161.037 97.3182 160.653 96.93C160.274 96.5417 159.699 96.3476 158.927 96.3476C158.127 96.3476 157.5 96.5228 157.045 96.8732C156.59 97.2235 156.271 97.5976 156.086 97.9953L154.495 97.4271C154.779 96.7643 155.158 96.2482 155.632 95.8788C156.11 95.5048 156.631 95.2444 157.194 95.0976C157.762 94.9461 158.321 94.8703 158.87 94.8703C159.221 94.8703 159.623 94.9129 160.078 94.9982C160.537 95.0786 160.98 95.2467 161.406 95.5024C161.837 95.7581 162.194 96.144 162.478 96.6601C162.762 97.1762 162.904 97.8675 162.904 98.7339V105.921H161.228V104.444H161.143C161.029 104.681 160.84 104.934 160.575 105.204C160.31 105.474 159.957 105.704 159.517 105.893C159.076 106.082 158.539 106.177 157.904 106.177ZM158.16 104.671C158.823 104.671 159.382 104.541 159.836 104.281C160.296 104.02 160.641 103.684 160.873 103.272C161.11 102.86 161.228 102.427 161.228 101.973V100.438C161.157 100.524 161.001 100.602 160.76 100.673C160.523 100.739 160.248 100.798 159.936 100.85C159.628 100.898 159.327 100.94 159.034 100.978C158.745 101.011 158.51 101.04 158.331 101.063C157.895 101.12 157.488 101.213 157.109 101.34C156.735 101.464 156.432 101.651 156.2 101.902C155.973 102.148 155.859 102.484 155.859 102.91C155.859 103.492 156.074 103.933 156.505 104.231C156.941 104.525 157.492 104.671 158.16 104.671ZM170.367 110.24C169.557 110.24 168.861 110.135 168.279 109.927C167.697 109.724 167.211 109.454 166.823 109.117C166.44 108.786 166.134 108.431 165.907 108.052L167.242 107.115C167.394 107.313 167.585 107.541 167.817 107.796C168.049 108.057 168.367 108.282 168.769 108.471C169.176 108.665 169.709 108.762 170.367 108.762C171.248 108.762 171.975 108.549 172.548 108.123C173.12 107.697 173.407 107.029 173.407 106.12V103.904H173.265C173.142 104.103 172.967 104.349 172.739 104.643C172.517 104.932 172.195 105.19 171.773 105.417C171.357 105.64 170.793 105.751 170.083 105.751C169.202 105.751 168.412 105.543 167.711 105.126C167.015 104.709 166.463 104.103 166.056 103.308C165.654 102.512 165.452 101.546 165.452 100.41C165.452 99.2927 165.649 98.3196 166.042 97.491C166.435 96.6577 166.982 96.0138 167.682 95.5592C168.383 95.1 169.193 94.8703 170.111 94.8703C170.822 94.8703 171.385 94.9887 171.802 95.2254C172.223 95.4574 172.545 95.7226 172.768 96.0209C172.995 96.3144 173.17 96.5559 173.293 96.7453H173.464V95.0124H175.083V106.234C175.083 107.171 174.87 107.934 174.444 108.521C174.022 109.113 173.454 109.546 172.739 109.821C172.029 110.1 171.238 110.24 170.367 110.24ZM170.31 104.245C170.983 104.245 171.551 104.091 172.015 103.784C172.479 103.476 172.832 103.033 173.073 102.456C173.315 101.878 173.435 101.187 173.435 100.382C173.435 99.5957 173.317 98.902 173.08 98.3007C172.843 97.6994 172.493 97.2283 172.029 96.8874C171.565 96.5464 170.992 96.376 170.31 96.376C169.6 96.376 169.008 96.5559 168.535 96.9158C168.066 97.2756 167.713 97.7586 167.477 98.3646C167.244 98.9707 167.128 99.643 167.128 100.382C167.128 101.139 167.247 101.809 167.484 102.392C167.725 102.969 168.08 103.424 168.549 103.755C169.022 104.082 169.61 104.245 170.31 104.245ZM182.725 106.149C181.674 106.149 180.767 105.917 180.005 105.453C179.247 104.984 178.663 104.331 178.251 103.492C177.843 102.65 177.64 101.67 177.64 100.552C177.64 99.4347 177.843 98.4499 178.251 97.5976C178.663 96.7406 179.235 96.073 179.969 95.5947C180.708 95.1118 181.57 94.8703 182.555 94.8703C183.123 94.8703 183.684 94.965 184.238 95.1544C184.792 95.3438 185.296 95.6516 185.751 96.0777C186.205 96.4991 186.567 97.0578 186.837 97.7538C187.107 98.4499 187.242 99.3069 187.242 100.325V101.035H178.833V99.5862H185.538C185.538 98.9707 185.414 98.4214 185.168 97.9385C184.927 97.4555 184.581 97.0744 184.131 96.795C183.686 96.5157 183.161 96.376 182.555 96.376C181.887 96.376 181.309 96.5417 180.822 96.8732C180.339 97.1999 179.967 97.626 179.707 98.1516C179.446 98.6771 179.316 99.2406 179.316 99.8419V100.808C179.316 101.632 179.458 102.33 179.742 102.903C180.031 103.471 180.431 103.904 180.942 104.203C181.454 104.496 182.048 104.643 182.725 104.643C183.165 104.643 183.563 104.581 183.918 104.458C184.278 104.331 184.588 104.141 184.849 103.89C185.109 103.635 185.31 103.317 185.452 102.938L187.072 103.393C186.901 103.942 186.615 104.425 186.212 104.842C185.81 105.254 185.313 105.576 184.721 105.808C184.129 106.035 183.464 106.149 182.725 106.149Z" fill="black"/>
<path d="M109.186 131.421V120.512H110.863V131.421H109.186ZM110.039 118.694C109.712 118.694 109.43 118.583 109.193 118.36C108.961 118.138 108.845 117.87 108.845 117.558C108.845 117.245 108.961 116.978 109.193 116.755C109.43 116.533 109.712 116.421 110.039 116.421C110.365 116.421 110.645 116.533 110.877 116.755C111.113 116.978 111.232 117.245 111.232 117.558C111.232 117.87 111.113 118.138 110.877 118.36C110.645 118.583 110.365 118.694 110.039 118.694ZM115.609 124.859V131.421H113.932V120.512H115.552V122.217H115.694C115.95 121.663 116.338 121.218 116.859 120.882C117.379 120.541 118.052 120.37 118.876 120.37C119.614 120.37 120.261 120.522 120.815 120.825C121.369 121.123 121.799 121.578 122.107 122.188C122.415 122.795 122.569 123.562 122.569 124.49V131.421H120.893V124.603C120.893 123.746 120.67 123.079 120.225 122.6C119.78 122.117 119.169 121.876 118.393 121.876C117.858 121.876 117.379 121.992 116.958 122.224C116.541 122.456 116.212 122.795 115.971 123.24C115.729 123.685 115.609 124.224 115.609 124.859ZM133.359 122.956L131.853 123.382C131.759 123.131 131.619 122.887 131.434 122.65C131.254 122.409 131.008 122.21 130.696 122.054C130.383 121.897 129.983 121.819 129.495 121.819C128.828 121.819 128.271 121.973 127.826 122.281C127.386 122.584 127.166 122.97 127.166 123.438C127.166 123.855 127.317 124.184 127.62 124.426C127.923 124.667 128.397 124.868 129.041 125.029L130.66 125.427C131.635 125.664 132.362 126.026 132.84 126.514C133.319 126.997 133.558 127.619 133.558 128.382C133.558 129.007 133.378 129.565 133.018 130.058C132.663 130.55 132.166 130.938 131.527 131.223C130.887 131.507 130.144 131.649 129.296 131.649C128.184 131.649 127.263 131.407 126.534 130.924C125.805 130.441 125.343 129.736 125.149 128.808L126.74 128.41C126.891 128.997 127.178 129.438 127.599 129.731C128.025 130.025 128.581 130.171 129.268 130.171C130.049 130.171 130.67 130.006 131.129 129.674C131.593 129.338 131.825 128.936 131.825 128.467C131.825 128.088 131.692 127.771 131.427 127.515C131.162 127.255 130.755 127.061 130.206 126.933L128.387 126.507C127.388 126.27 126.654 125.903 126.186 125.406C125.722 124.904 125.49 124.277 125.49 123.524C125.49 122.908 125.662 122.364 126.008 121.89C126.358 121.417 126.834 121.045 127.436 120.775C128.042 120.505 128.728 120.37 129.495 120.37C130.575 120.37 131.422 120.607 132.038 121.081C132.658 121.554 133.099 122.179 133.359 122.956ZM140.825 120.512V121.933H135.172V120.512H140.825ZM136.82 117.899H138.496V128.296C138.496 128.77 138.564 129.125 138.702 129.362C138.844 129.594 139.024 129.75 139.241 129.831C139.464 129.906 139.698 129.944 139.945 129.944C140.129 129.944 140.281 129.935 140.399 129.916C140.517 129.892 140.612 129.873 140.683 129.859L141.024 131.365C140.91 131.407 140.752 131.45 140.548 131.492C140.345 131.54 140.087 131.563 139.774 131.563C139.301 131.563 138.837 131.462 138.382 131.258C137.932 131.054 137.558 130.744 137.26 130.328C136.966 129.911 136.82 129.385 136.82 128.751V117.899ZM146.557 131.677C145.865 131.677 145.238 131.547 144.675 131.287C144.111 131.021 143.664 130.64 143.332 130.143C143.001 129.641 142.835 129.035 142.835 128.325C142.835 127.7 142.958 127.193 143.204 126.805C143.451 126.412 143.78 126.104 144.192 125.882C144.604 125.659 145.058 125.493 145.555 125.385C146.057 125.271 146.561 125.181 147.068 125.115C147.731 125.029 148.268 124.965 148.68 124.923C149.097 124.876 149.4 124.797 149.589 124.688C149.784 124.58 149.881 124.39 149.881 124.12V124.063C149.881 123.363 149.689 122.818 149.305 122.43C148.927 122.042 148.351 121.848 147.579 121.848C146.779 121.848 146.152 122.023 145.697 122.373C145.243 122.724 144.923 123.098 144.739 123.495L143.148 122.927C143.432 122.264 143.811 121.748 144.284 121.379C144.762 121.005 145.283 120.744 145.847 120.598C146.415 120.446 146.973 120.37 147.523 120.37C147.873 120.37 148.276 120.413 148.73 120.498C149.189 120.579 149.632 120.747 150.058 121.002C150.489 121.258 150.847 121.644 151.131 122.16C151.415 122.676 151.557 123.367 151.557 124.234V131.421H149.881V129.944H149.795C149.682 130.181 149.492 130.434 149.227 130.704C148.962 130.974 148.609 131.204 148.169 131.393C147.729 131.582 147.191 131.677 146.557 131.677ZM146.812 130.171C147.475 130.171 148.034 130.041 148.489 129.781C148.948 129.52 149.293 129.184 149.526 128.772C149.762 128.36 149.881 127.927 149.881 127.473V125.938C149.81 126.024 149.653 126.102 149.412 126.173C149.175 126.239 148.901 126.298 148.588 126.35C148.28 126.398 147.98 126.44 147.686 126.478C147.397 126.511 147.163 126.54 146.983 126.563C146.547 126.62 146.14 126.713 145.761 126.84C145.387 126.964 145.084 127.151 144.852 127.402C144.625 127.648 144.511 127.984 144.511 128.41C144.511 128.992 144.727 129.433 145.158 129.731C145.593 130.025 146.145 130.171 146.812 130.171ZM156.292 116.876V131.421H154.616V116.876H156.292ZM161.038 116.876V131.421H159.362V116.876H161.038ZM167.318 131.677C166.627 131.677 166 131.547 165.436 131.287C164.873 131.021 164.425 130.64 164.094 130.143C163.763 129.641 163.597 129.035 163.597 128.325C163.597 127.7 163.72 127.193 163.966 126.805C164.212 126.412 164.541 126.104 164.953 125.882C165.365 125.659 165.82 125.493 166.317 125.385C166.819 125.271 167.323 125.181 167.83 125.115C168.493 125.029 169.03 124.965 169.442 124.923C169.859 124.876 170.162 124.797 170.351 124.688C170.545 124.58 170.642 124.39 170.642 124.12V124.063C170.642 123.363 170.451 122.818 170.067 122.43C169.688 122.042 169.113 121.848 168.341 121.848C167.541 121.848 166.914 122.023 166.459 122.373C166.005 122.724 165.685 123.098 165.5 123.495L163.909 122.927C164.193 122.264 164.572 121.748 165.046 121.379C165.524 121.005 166.045 120.744 166.608 120.598C167.176 120.446 167.735 120.37 168.284 120.37C168.635 120.37 169.037 120.413 169.492 120.498C169.951 120.579 170.394 120.747 170.82 121.002C171.251 121.258 171.608 121.644 171.892 122.16C172.176 122.676 172.318 123.367 172.318 124.234V131.421H170.642V129.944H170.557C170.443 130.181 170.254 130.434 169.989 130.704C169.724 130.974 169.371 131.204 168.931 131.393C168.49 131.582 167.953 131.677 167.318 131.677ZM167.574 130.171C168.237 130.171 168.796 130.041 169.25 129.781C169.71 129.52 170.055 129.184 170.287 128.772C170.524 128.36 170.642 127.927 170.642 127.473V125.938C170.571 126.024 170.415 126.102 170.174 126.173C169.937 126.239 169.662 126.298 169.35 126.35C169.042 126.398 168.741 126.44 168.448 126.478C168.159 126.511 167.925 126.54 167.745 126.563C167.309 126.62 166.902 126.713 166.523 126.84C166.149 126.964 165.846 127.151 165.614 127.402C165.387 127.648 165.273 127.984 165.273 128.41C165.273 128.992 165.488 129.433 165.919 129.731C166.355 130.025 166.907 130.171 167.574 130.171ZM180.122 120.512V121.933H174.469V120.512H180.122ZM176.116 117.899H177.793V128.296C177.793 128.77 177.861 129.125 177.999 129.362C178.141 129.594 178.32 129.75 178.538 129.831C178.761 129.906 178.995 129.944 179.241 129.944C179.426 129.944 179.578 129.935 179.696 129.916C179.814 129.892 179.909 129.873 179.98 129.859L180.321 131.365C180.207 131.407 180.049 131.45 179.845 131.492C179.642 131.54 179.383 131.563 179.071 131.563C178.597 131.563 178.133 131.462 177.679 131.258C177.229 131.054 176.855 130.744 176.557 130.328C176.263 129.911 176.116 129.385 176.116 128.751V117.899ZM182.643 131.421V120.512H184.32V131.421H182.643ZM183.496 118.694C183.169 118.694 182.887 118.583 182.651 118.36C182.418 118.138 182.302 117.87 182.302 117.558C182.302 117.245 182.418 116.978 182.651 116.755C182.887 116.533 183.169 116.421 183.496 116.421C183.822 116.421 184.102 116.533 184.334 116.755C184.57 116.978 184.689 117.245 184.689 117.558C184.689 117.87 184.57 118.138 184.334 118.36C184.102 118.583 183.822 118.694 183.496 118.694ZM191.821 131.649C190.836 131.649 189.972 131.414 189.229 130.946C188.49 130.477 187.913 129.821 187.496 128.978C187.084 128.135 186.878 127.151 186.878 126.024C186.878 124.887 187.084 123.895 187.496 123.048C187.913 122.2 188.49 121.542 189.229 121.073C189.972 120.605 190.836 120.37 191.821 120.37C192.806 120.37 193.668 120.605 194.407 121.073C195.15 121.542 195.728 122.2 196.139 123.048C196.556 123.895 196.764 124.887 196.764 126.024C196.764 127.151 196.556 128.135 196.139 128.978C195.728 129.821 195.15 130.477 194.407 130.946C193.668 131.414 192.806 131.649 191.821 131.649ZM191.821 130.143C192.569 130.143 193.185 129.951 193.668 129.568C194.151 129.184 194.508 128.68 194.74 128.055C194.972 127.43 195.088 126.753 195.088 126.024C195.088 125.295 194.972 124.615 194.74 123.985C194.508 123.356 194.151 122.847 193.668 122.458C193.185 122.07 192.569 121.876 191.821 121.876C191.073 121.876 190.458 122.07 189.975 122.458C189.492 122.847 189.134 123.356 188.902 123.985C188.67 124.615 188.554 125.295 188.554 126.024C188.554 126.753 188.67 127.43 188.902 128.055C189.134 128.68 189.492 129.184 189.975 129.568C190.458 129.951 191.073 130.143 191.821 130.143ZM200.999 124.859V131.421H199.323V120.512H200.942V122.217H201.084C201.34 121.663 201.728 121.218 202.249 120.882C202.77 120.541 203.442 120.37 204.266 120.37C205.005 120.37 205.651 120.522 206.205 120.825C206.759 121.123 207.19 121.578 207.498 122.188C207.806 122.795 207.959 123.562 207.959 124.49V131.421H206.283V124.603C206.283 123.746 206.061 123.079 205.616 122.6C205.171 122.117 204.56 121.876 203.783 121.876C203.248 121.876 202.77 121.992 202.349 122.224C201.932 122.456 201.603 122.795 201.361 123.24C201.12 123.685 200.999 124.224 200.999 124.859Z" fill="black"/>
<path d="M281.698 104.296V89.7501H286.784C287.797 89.7501 288.633 89.9253 289.291 90.2757C289.949 90.6214 290.439 91.0877 290.761 91.6749C291.083 92.2572 291.244 92.9035 291.244 93.6138C291.244 94.2388 291.133 94.7549 290.91 95.1621C290.692 95.5693 290.403 95.8912 290.044 96.128C289.688 96.3647 289.303 96.5399 288.886 96.6535V96.7956C289.331 96.824 289.778 96.9803 290.228 97.2643C290.678 97.5484 291.054 97.9556 291.357 98.4859C291.66 99.0162 291.812 99.6649 291.812 100.432C291.812 101.161 291.646 101.817 291.315 102.399C290.983 102.982 290.46 103.443 289.745 103.784C289.03 104.125 288.1 104.296 286.954 104.296H281.698ZM283.46 102.733H286.954C288.105 102.733 288.921 102.511 289.404 102.065C289.892 101.616 290.136 101.071 290.136 100.432C290.136 99.9395 290.01 99.485 289.759 99.0683C289.509 98.6469 289.151 98.3107 288.687 98.0598C288.223 97.8041 287.674 97.6763 287.039 97.6763H283.46V102.733ZM283.46 96.1422H286.727C287.257 96.1422 287.735 96.038 288.161 95.8297C288.592 95.6214 288.933 95.3278 289.184 94.949C289.44 94.5702 289.568 94.1251 289.568 93.6138C289.568 92.9746 289.345 92.4324 288.9 91.9874C288.455 91.5375 287.75 91.3126 286.784 91.3126H283.46V96.1422ZM299.053 104.523C298.002 104.523 297.095 104.291 296.333 103.827C295.575 103.358 294.99 102.705 294.578 101.867C294.171 101.024 293.968 100.044 293.968 98.9263C293.968 97.8089 294.171 96.824 294.578 95.9717C294.99 95.1147 295.563 94.4471 296.297 93.9689C297.036 93.4859 297.897 93.2445 298.882 93.2445C299.451 93.2445 300.012 93.3392 300.566 93.5285C301.12 93.7179 301.624 94.0257 302.078 94.4518C302.533 94.8732 302.895 95.432 303.165 96.128C303.435 96.824 303.57 97.681 303.57 98.699V99.4092H295.161V97.9604H301.865C301.865 97.3448 301.742 96.7956 301.496 96.3126C301.254 95.8297 300.909 95.4485 300.459 95.1692C300.014 94.8898 299.488 94.7501 298.882 94.7501C298.215 94.7501 297.637 94.9159 297.149 95.2473C296.666 95.574 296.295 96.0001 296.034 96.5257C295.774 97.0513 295.644 97.6147 295.644 98.216V99.182C295.644 100.006 295.786 100.704 296.07 101.277C296.359 101.845 296.759 102.279 297.27 102.577C297.781 102.87 298.376 103.017 299.053 103.017C299.493 103.017 299.891 102.956 300.246 102.833C300.606 102.705 300.916 102.515 301.176 102.264C301.437 102.009 301.638 101.691 301.78 101.313L303.399 101.767C303.229 102.316 302.942 102.799 302.54 103.216C302.138 103.628 301.64 103.95 301.049 104.182C300.457 104.409 299.791 104.523 299.053 104.523ZM310.551 104.523C309.529 104.523 308.648 104.281 307.909 103.798C307.171 103.315 306.602 102.65 306.205 101.803C305.807 100.955 305.608 99.9869 305.608 98.8979C305.608 97.7899 305.812 96.8122 306.219 95.9646C306.631 95.1124 307.204 94.4471 307.938 93.9689C308.676 93.4859 309.538 93.2445 310.523 93.2445C311.29 93.2445 311.981 93.3865 312.597 93.6706C313.212 93.9547 313.717 94.3524 314.11 94.8638C314.503 95.3751 314.746 95.9717 314.841 96.6535H313.165C313.037 96.1564 312.753 95.716 312.313 95.3325C311.877 94.9443 311.29 94.7501 310.551 94.7501C309.898 94.7501 309.325 94.9206 308.833 95.2615C308.345 95.5977 307.964 96.0735 307.689 96.6891C307.419 97.2999 307.284 98.0172 307.284 98.841C307.284 99.6839 307.417 100.418 307.682 101.043C307.952 101.668 308.331 102.153 308.818 102.499C309.311 102.844 309.888 103.017 310.551 103.017C310.987 103.017 311.382 102.941 311.737 102.79C312.093 102.638 312.393 102.421 312.639 102.137C312.886 101.852 313.061 101.512 313.165 101.114H314.841C314.746 101.758 314.512 102.338 314.138 102.854C313.769 103.365 313.279 103.772 312.668 104.075C312.062 104.374 311.356 104.523 310.551 104.523ZM320.502 104.551C319.81 104.551 319.183 104.421 318.62 104.161C318.056 103.895 317.609 103.514 317.277 103.017C316.946 102.515 316.78 101.909 316.78 101.199C316.78 100.574 316.903 100.067 317.149 99.6791C317.396 99.2861 317.725 98.9784 318.137 98.7558C318.549 98.5333 319.003 98.3676 319.5 98.2587C320.002 98.145 320.506 98.0551 321.013 97.9888C321.676 97.9035 322.213 97.8396 322.625 97.797C323.042 97.7497 323.345 97.6715 323.534 97.5626C323.728 97.4537 323.826 97.2643 323.826 96.9945V96.9376C323.826 96.2369 323.634 95.6924 323.25 95.3041C322.871 94.9159 322.296 94.7217 321.524 94.7217C320.724 94.7217 320.097 94.8969 319.642 95.2473C319.188 95.5977 318.868 95.9717 318.683 96.3695L317.093 95.8013C317.377 95.1384 317.755 94.6223 318.229 94.253C318.707 93.8789 319.228 93.6185 319.791 93.4717C320.36 93.3202 320.918 93.2445 321.468 93.2445C321.818 93.2445 322.22 93.2871 322.675 93.3723C323.134 93.4528 323.577 93.6209 324.003 93.8766C324.434 94.1322 324.791 94.5181 325.076 95.0342C325.36 95.5503 325.502 96.2416 325.502 97.1081V104.296H323.826V102.818H323.74C323.627 103.055 323.437 103.308 323.172 103.578C322.907 103.848 322.554 104.078 322.114 104.267C321.674 104.457 321.136 104.551 320.502 104.551ZM320.757 103.046C321.42 103.046 321.979 102.915 322.433 102.655C322.893 102.395 323.238 102.058 323.47 101.646C323.707 101.235 323.826 100.801 323.826 100.347V98.8126C323.754 98.8979 323.598 98.976 323.357 99.047C323.12 99.1133 322.845 99.1725 322.533 99.2246C322.225 99.2719 321.924 99.3145 321.631 99.3524C321.342 99.3856 321.108 99.414 320.928 99.4376C320.492 99.4945 320.085 99.5868 319.706 99.7146C319.332 99.8377 319.029 100.025 318.797 100.276C318.57 100.522 318.456 100.858 318.456 101.284C318.456 101.867 318.672 102.307 319.102 102.605C319.538 102.899 320.09 103.046 320.757 103.046ZM328.561 104.296V93.3865H330.18V95.091H330.322C330.55 94.5087 330.917 94.0565 331.423 93.7345C331.93 93.4078 332.538 93.2445 333.248 93.2445C333.968 93.2445 334.567 93.4078 335.045 93.7345C335.528 94.0565 335.905 94.5087 336.175 95.091H336.288C336.568 94.5276 336.987 94.0802 337.545 93.7487C338.104 93.4125 338.774 93.2445 339.555 93.2445C340.531 93.2445 341.328 93.5499 341.949 94.1606C342.569 94.7667 342.879 95.7113 342.879 96.9945V104.296H341.203V96.9945C341.203 96.1895 340.983 95.6142 340.542 95.2686C340.102 94.923 339.584 94.7501 338.987 94.7501C338.22 94.7501 337.626 94.9821 337.204 95.4462C336.783 95.9054 336.572 96.4878 336.572 97.1933V104.296H334.868V96.824C334.868 96.2037 334.667 95.7042 334.264 95.3254C333.862 94.9419 333.343 94.7501 332.709 94.7501C332.273 94.7501 331.866 94.8661 331.487 95.0981C331.113 95.3302 330.81 95.6521 330.578 96.0641C330.351 96.4713 330.237 96.9424 330.237 97.4774V104.296H328.561ZM350.518 104.523C349.466 104.523 348.56 104.291 347.797 103.827C347.04 103.358 346.455 102.705 346.043 101.867C345.636 101.024 345.432 100.044 345.432 98.9263C345.432 97.8089 345.636 96.824 346.043 95.9717C346.455 95.1147 347.028 94.4471 347.762 93.9689C348.501 93.4859 349.362 93.2445 350.347 93.2445C350.915 93.2445 351.476 93.3392 352.03 93.5285C352.584 93.7179 353.089 94.0257 353.543 94.4518C353.998 94.8732 354.36 95.432 354.63 96.128C354.9 96.824 355.035 97.681 355.035 98.699V99.4092H346.626V97.9604H353.33C353.33 97.3448 353.207 96.7956 352.961 96.3126C352.719 95.8297 352.374 95.4485 351.924 95.1692C351.479 94.8898 350.953 94.7501 350.347 94.7501C349.68 94.7501 349.102 94.9159 348.614 95.2473C348.131 95.574 347.76 96.0001 347.499 96.5257C347.239 97.0513 347.109 97.6147 347.109 98.216V99.182C347.109 100.006 347.251 100.704 347.535 101.277C347.823 101.845 348.224 102.279 348.735 102.577C349.246 102.87 349.841 103.017 350.518 103.017C350.958 103.017 351.356 102.956 351.711 102.833C352.071 102.705 352.381 102.515 352.641 102.264C352.902 102.009 353.103 101.691 353.245 101.313L354.864 101.767C354.694 102.316 354.407 102.799 354.005 103.216C353.602 103.628 353.105 103.95 352.513 104.182C351.922 104.409 351.256 104.523 350.518 104.523ZM366.42 104.551C365.728 104.551 365.101 104.421 364.538 104.161C363.974 103.895 363.527 103.514 363.195 103.017C362.864 102.515 362.698 101.909 362.698 101.199C362.698 100.574 362.821 100.067 363.067 99.6791C363.314 99.2861 363.643 98.9784 364.055 98.7558C364.466 98.5333 364.921 98.3676 365.418 98.2587C365.92 98.145 366.424 98.0551 366.931 97.9888C367.594 97.9035 368.131 97.8396 368.543 97.797C368.96 97.7497 369.263 97.6715 369.452 97.5626C369.646 97.4537 369.743 97.2643 369.743 96.9945V96.9376C369.743 96.2369 369.552 95.6924 369.168 95.3041C368.789 94.9159 368.214 94.7217 367.442 94.7217C366.642 94.7217 366.015 94.8969 365.56 95.2473C365.106 95.5977 364.786 95.9717 364.601 96.3695L363.011 95.8013C363.295 95.1384 363.673 94.6223 364.147 94.253C364.625 93.8789 365.146 93.6185 365.709 93.4717C366.278 93.3202 366.836 93.2445 367.386 93.2445C367.736 93.2445 368.138 93.2871 368.593 93.3723C369.052 93.4528 369.495 93.6209 369.921 93.8766C370.352 94.1322 370.709 94.5181 370.993 95.0342C371.278 95.5503 371.42 96.2416 371.42 97.1081V104.296H369.743V102.818H369.658C369.545 103.055 369.355 103.308 369.09 103.578C368.825 103.848 368.472 104.078 368.032 104.267C367.591 104.457 367.054 104.551 366.42 104.551ZM366.675 103.046C367.338 103.046 367.897 102.915 368.351 102.655C368.811 102.395 369.156 102.058 369.388 101.646C369.625 101.235 369.743 100.801 369.743 100.347V98.8126C369.672 98.8979 369.516 98.976 369.275 99.047C369.038 99.1133 368.763 99.1725 368.451 99.2246C368.143 99.2719 367.842 99.3145 367.549 99.3524C367.26 99.3856 367.026 99.414 366.846 99.4376C366.41 99.4945 366.003 99.5868 365.624 99.7146C365.25 99.8377 364.947 100.025 364.715 100.276C364.488 100.522 364.374 100.858 364.374 101.284C364.374 101.867 364.59 102.307 365.02 102.605C365.456 102.899 366.008 103.046 366.675 103.046Z" fill="black"/>
<path d="M281.471 133.887V118.887H283.09V120.619H283.289C283.412 120.43 283.583 120.189 283.801 119.895C284.023 119.597 284.34 119.332 284.752 119.1C285.169 118.863 285.732 118.744 286.443 118.744C287.361 118.744 288.171 118.974 288.872 119.433C289.572 119.893 290.119 120.544 290.512 121.387C290.905 122.229 291.102 123.224 291.102 124.369C291.102 125.525 290.905 126.526 290.512 127.374C290.119 128.217 289.575 128.87 288.879 129.334C288.183 129.793 287.38 130.023 286.471 130.023C285.77 130.023 285.209 129.907 284.788 129.675C284.366 129.438 284.042 129.171 283.815 128.872C283.588 128.569 283.412 128.318 283.289 128.119H283.147V133.887H281.471ZM283.119 124.341C283.119 125.165 283.24 125.892 283.481 126.521C283.723 127.146 284.075 127.637 284.539 127.992C285.003 128.342 285.571 128.517 286.244 128.517C286.945 128.517 287.529 128.333 287.998 127.963C288.472 127.589 288.827 127.087 289.063 126.458C289.305 125.823 289.426 125.118 289.426 124.341C289.426 123.574 289.307 122.883 289.071 122.267C288.839 121.647 288.486 121.157 288.012 120.797C287.544 120.432 286.954 120.25 286.244 120.25C285.562 120.25 284.989 120.423 284.525 120.769C284.061 121.11 283.711 121.588 283.474 122.203C283.237 122.814 283.119 123.527 283.119 124.341ZM293.659 129.796V118.887H295.278V120.534H295.392C295.59 119.994 295.95 119.556 296.471 119.22C296.992 118.884 297.579 118.716 298.232 118.716C298.356 118.716 298.509 118.718 298.694 118.723C298.879 118.728 299.018 118.735 299.113 118.744V120.449C299.056 120.435 298.926 120.413 298.723 120.385C298.524 120.352 298.313 120.335 298.09 120.335C297.56 120.335 297.087 120.447 296.67 120.669C296.258 120.887 295.931 121.19 295.69 121.578C295.453 121.962 295.335 122.4 295.335 122.892V129.796H293.659ZM305.2 130.023C304.215 130.023 303.351 129.788 302.607 129.32C301.869 128.851 301.291 128.195 300.875 127.352C300.463 126.51 300.257 125.525 300.257 124.398C300.257 123.262 300.463 122.27 300.875 121.422C301.291 120.574 301.869 119.916 302.607 119.448C303.351 118.979 304.215 118.744 305.2 118.744C306.185 118.744 307.046 118.979 307.785 119.448C308.528 119.916 309.106 120.574 309.518 121.422C309.935 122.27 310.143 123.262 310.143 124.398C310.143 125.525 309.935 126.51 309.518 127.352C309.106 128.195 308.528 128.851 307.785 129.32C307.046 129.788 306.185 130.023 305.2 130.023ZM305.2 128.517C305.948 128.517 306.563 128.325 307.046 127.942C307.529 127.558 307.887 127.054 308.119 126.429C308.351 125.804 308.467 125.127 308.467 124.398C308.467 123.669 308.351 122.989 308.119 122.36C307.887 121.73 307.529 121.221 307.046 120.833C306.563 120.444 305.948 120.25 305.2 120.25C304.452 120.25 303.836 120.444 303.353 120.833C302.87 121.221 302.513 121.73 302.281 122.36C302.049 122.989 301.933 123.669 301.933 124.398C301.933 125.127 302.049 125.804 302.281 126.429C302.513 127.054 302.87 127.558 303.353 127.942C303.836 128.325 304.452 128.517 305.2 128.517ZM321.231 118.887L317.197 129.796H315.493L311.459 118.887H313.277L316.288 127.58H316.402L319.413 118.887H321.231ZM323.444 129.796V118.887H325.12V129.796H323.444ZM324.296 117.068C323.969 117.068 323.688 116.957 323.451 116.735C323.219 116.512 323.103 116.244 323.103 115.932C323.103 115.619 323.219 115.352 323.451 115.129C323.688 114.907 323.969 114.796 324.296 114.796C324.623 114.796 324.902 114.907 325.134 115.129C325.371 115.352 325.489 115.619 325.489 115.932C325.489 116.244 325.371 116.512 325.134 116.735C324.902 116.957 324.623 117.068 324.296 117.068ZM332.309 130.023C331.4 130.023 330.598 129.793 329.902 129.334C329.205 128.87 328.661 128.217 328.268 127.374C327.875 126.526 327.678 125.525 327.678 124.369C327.678 123.224 327.875 122.229 328.268 121.387C328.661 120.544 329.208 119.893 329.909 119.433C330.609 118.974 331.419 118.744 332.338 118.744C333.048 118.744 333.609 118.863 334.021 119.1C334.437 119.332 334.755 119.597 334.973 119.895C335.195 120.189 335.368 120.43 335.491 120.619H335.633V115.25H337.309V129.796H335.69V128.119H335.491C335.368 128.318 335.193 128.569 334.965 128.872C334.738 129.171 334.414 129.438 333.992 129.675C333.571 129.907 333.01 130.023 332.309 130.023ZM332.536 128.517C333.209 128.517 333.777 128.342 334.241 127.992C334.705 127.637 335.058 127.146 335.299 126.521C335.541 125.892 335.661 125.165 335.661 124.341C335.661 123.527 335.543 122.814 335.306 122.203C335.07 121.588 334.719 121.11 334.255 120.769C333.791 120.423 333.218 120.25 332.536 120.25C331.826 120.25 331.234 120.432 330.761 120.797C330.292 121.157 329.939 121.647 329.703 122.267C329.471 122.883 329.355 123.574 329.355 124.341C329.355 125.118 329.473 125.823 329.71 126.458C329.951 127.087 330.306 127.589 330.775 127.963C331.249 128.333 331.836 128.517 332.536 128.517ZM345.186 130.023C344.134 130.023 343.228 129.791 342.465 129.327C341.708 128.858 341.123 128.205 340.711 127.367C340.304 126.524 340.1 125.544 340.1 124.426C340.1 123.309 340.304 122.324 340.711 121.472C341.123 120.615 341.696 119.947 342.43 119.469C343.169 118.986 344.03 118.744 345.015 118.744C345.583 118.744 346.144 118.839 346.698 119.029C347.252 119.218 347.757 119.526 348.211 119.952C348.666 120.373 349.028 120.932 349.298 121.628C349.568 122.324 349.703 123.181 349.703 124.199V124.909H341.294V123.46H347.998C347.998 122.845 347.875 122.296 347.629 121.813C347.387 121.33 347.042 120.949 346.592 120.669C346.147 120.39 345.621 120.25 345.015 120.25C344.348 120.25 343.77 120.416 343.282 120.747C342.799 121.074 342.428 121.5 342.167 122.026C341.907 122.551 341.777 123.115 341.777 123.716V124.682C341.777 125.506 341.919 126.204 342.203 126.777C342.491 127.345 342.892 127.779 343.403 128.077C343.914 128.37 344.509 128.517 345.186 128.517C345.626 128.517 346.024 128.456 346.379 128.333C346.739 128.205 347.049 128.015 347.309 127.764C347.57 127.509 347.771 127.191 347.913 126.813L349.532 127.267C349.362 127.816 349.075 128.299 348.673 128.716C348.27 129.128 347.773 129.45 347.181 129.682C346.589 129.909 345.924 130.023 345.186 130.023ZM352.252 129.796V118.887H353.872V120.534H353.985C354.184 119.994 354.544 119.556 355.065 119.22C355.586 118.884 356.173 118.716 356.826 118.716C356.949 118.716 357.103 118.718 357.288 118.723C357.473 118.728 357.612 118.735 357.707 118.744V120.449C357.65 120.435 357.52 120.413 357.316 120.385C357.117 120.352 356.907 120.335 356.684 120.335C356.154 120.335 355.68 120.447 355.264 120.669C354.852 120.887 354.525 121.19 354.284 121.578C354.047 121.962 353.928 122.4 353.928 122.892V129.796H352.252Z" fill="black"/>
<path d="M102.123 208.767H97.6345V194.221H102.322C103.733 194.221 104.94 194.512 105.944 195.095C106.948 195.672 107.717 196.503 108.252 197.588C108.787 198.667 109.055 199.96 109.055 201.465C109.055 202.981 108.785 204.285 108.245 205.379C107.705 206.468 106.92 207.306 105.887 207.893C104.855 208.475 103.6 208.767 102.123 208.767ZM99.3958 207.204H102.009C103.212 207.204 104.209 206.972 105 206.508C105.79 206.044 106.38 205.384 106.768 204.527C107.156 203.67 107.35 202.649 107.35 201.465C107.35 200.291 107.159 199.28 106.775 198.433C106.392 197.581 105.819 196.927 105.056 196.473C104.294 196.013 103.345 195.784 102.208 195.784H99.3958V207.204ZM114.992 209.022C114.301 209.022 113.674 208.892 113.11 208.632C112.547 208.367 112.099 207.985 111.768 207.488C111.437 206.986 111.271 206.38 111.271 205.67C111.271 205.045 111.394 204.538 111.64 204.15C111.886 203.757 112.215 203.449 112.627 203.227C113.039 203.004 113.494 202.839 113.991 202.73C114.493 202.616 114.997 202.526 115.504 202.46C116.167 202.375 116.704 202.311 117.116 202.268C117.533 202.221 117.836 202.143 118.025 202.034C118.219 201.925 118.316 201.735 118.316 201.465V201.409C118.316 200.708 118.125 200.163 117.741 199.775C117.362 199.387 116.787 199.193 116.015 199.193C115.215 199.193 114.588 199.368 114.133 199.718C113.679 200.069 113.359 200.443 113.174 200.84L111.583 200.272C111.867 199.609 112.246 199.093 112.72 198.724C113.198 198.35 113.719 198.09 114.282 197.943C114.85 197.791 115.409 197.715 115.958 197.715C116.309 197.715 116.711 197.758 117.166 197.843C117.625 197.924 118.068 198.092 118.494 198.348C118.925 198.603 119.282 198.989 119.566 199.505C119.85 200.021 119.992 200.713 119.992 201.579V208.767H118.316V207.289H118.231C118.117 207.526 117.928 207.779 117.663 208.049C117.398 208.319 117.045 208.549 116.605 208.738C116.164 208.928 115.627 209.022 114.992 209.022ZM115.248 207.517C115.911 207.517 116.47 207.386 116.924 207.126C117.384 206.866 117.729 206.529 117.961 206.117C118.198 205.706 118.316 205.272 118.316 204.818V203.284C118.245 203.369 118.089 203.447 117.848 203.518C117.611 203.584 117.336 203.643 117.024 203.696C116.716 203.743 116.415 203.786 116.122 203.823C115.833 203.857 115.598 203.885 115.419 203.909C114.983 203.965 114.576 204.058 114.197 204.186C113.823 204.309 113.52 204.496 113.288 204.747C113.061 204.993 112.947 205.329 112.947 205.755C112.947 206.338 113.162 206.778 113.593 207.076C114.029 207.37 114.58 207.517 115.248 207.517ZM127.796 197.858V199.278H122.143V197.858H127.796ZM123.79 195.244H125.467V205.642C125.467 206.115 125.535 206.47 125.672 206.707C125.815 206.939 125.994 207.095 126.212 207.176C126.435 207.251 126.669 207.289 126.915 207.289C127.1 207.289 127.252 207.28 127.37 207.261C127.488 207.237 127.583 207.218 127.654 207.204L127.995 208.71C127.881 208.752 127.723 208.795 127.519 208.838C127.315 208.885 127.057 208.909 126.745 208.909C126.271 208.909 125.807 208.807 125.353 208.603C124.903 208.4 124.529 208.09 124.231 207.673C123.937 207.256 123.79 206.731 123.79 206.096V195.244ZM133.528 209.022C132.836 209.022 132.209 208.892 131.645 208.632C131.082 208.367 130.635 207.985 130.303 207.488C129.972 206.986 129.806 206.38 129.806 205.67C129.806 205.045 129.929 204.538 130.175 204.15C130.422 203.757 130.751 203.449 131.163 203.227C131.574 203.004 132.029 202.839 132.526 202.73C133.028 202.616 133.532 202.526 134.039 202.46C134.702 202.375 135.239 202.311 135.651 202.268C136.068 202.221 136.371 202.143 136.56 202.034C136.754 201.925 136.851 201.735 136.851 201.465V201.409C136.851 200.708 136.66 200.163 136.276 199.775C135.897 199.387 135.322 199.193 134.55 199.193C133.75 199.193 133.123 199.368 132.668 199.718C132.214 200.069 131.894 200.443 131.709 200.84L130.118 200.272C130.403 199.609 130.781 199.093 131.255 198.724C131.733 198.35 132.254 198.09 132.817 197.943C133.386 197.791 133.944 197.715 134.493 197.715C134.844 197.715 135.246 197.758 135.701 197.843C136.16 197.924 136.603 198.092 137.029 198.348C137.46 198.603 137.817 198.989 138.101 199.505C138.386 200.021 138.528 200.713 138.528 201.579V208.767H136.851V207.289H136.766C136.653 207.526 136.463 207.779 136.198 208.049C135.933 208.319 135.58 208.549 135.14 208.738C134.699 208.928 134.162 209.022 133.528 209.022ZM133.783 207.517C134.446 207.517 135.005 207.386 135.459 207.126C135.919 206.866 136.264 206.529 136.496 206.117C136.733 205.706 136.851 205.272 136.851 204.818V203.284C136.78 203.369 136.624 203.447 136.383 203.518C136.146 203.584 135.871 203.643 135.559 203.696C135.251 203.743 134.95 203.786 134.657 203.823C134.368 203.857 134.134 203.885 133.954 203.909C133.518 203.965 133.111 204.058 132.732 204.186C132.358 204.309 132.055 204.496 131.823 204.747C131.596 204.993 131.482 205.329 131.482 205.755C131.482 206.338 131.698 206.778 132.128 207.076C132.564 207.37 133.116 207.517 133.783 207.517ZM151.644 208.994C150.621 208.994 149.74 208.752 149.002 208.269C148.263 207.786 147.695 207.121 147.297 206.274C146.899 205.426 146.701 204.458 146.701 203.369C146.701 202.261 146.904 201.283 147.311 200.436C147.723 199.583 148.296 198.918 149.03 198.44C149.769 197.957 150.63 197.715 151.615 197.715C152.382 197.715 153.074 197.858 153.689 198.142C154.305 198.426 154.809 198.823 155.202 199.335C155.595 199.846 155.839 200.443 155.933 201.125H154.257C154.13 200.627 153.845 200.187 153.405 199.804C152.969 199.415 152.382 199.221 151.644 199.221C150.99 199.221 150.417 199.392 149.925 199.733C149.437 200.069 149.056 200.545 148.781 201.16C148.512 201.771 148.377 202.488 148.377 203.312C148.377 204.155 148.509 204.889 148.774 205.514C149.044 206.139 149.423 206.624 149.911 206.97C150.403 207.315 150.981 207.488 151.644 207.488C152.079 207.488 152.475 207.412 152.83 207.261C153.185 207.109 153.486 206.892 153.732 206.608C153.978 206.323 154.153 205.983 154.257 205.585H155.933C155.839 206.229 155.604 206.809 155.23 207.325C154.861 207.836 154.371 208.243 153.76 208.546C153.154 208.845 152.449 208.994 151.644 208.994ZM160.06 202.204V208.767H158.384V194.221H160.06V199.562H160.202C160.458 198.999 160.841 198.551 161.353 198.22C161.869 197.884 162.555 197.715 163.412 197.715C164.156 197.715 164.807 197.865 165.365 198.163C165.924 198.456 166.357 198.909 166.665 199.519C166.978 200.126 167.134 200.897 167.134 201.835V208.767H165.458V201.948C165.458 201.082 165.233 200.412 164.783 199.938C164.338 199.46 163.72 199.221 162.929 199.221C162.38 199.221 161.888 199.337 161.452 199.569C161.021 199.801 160.68 200.14 160.429 200.585C160.183 201.03 160.06 201.57 160.06 202.204ZM173.41 209.022C172.719 209.022 172.092 208.892 171.528 208.632C170.965 208.367 170.517 207.985 170.186 207.488C169.855 206.986 169.689 206.38 169.689 205.67C169.689 205.045 169.812 204.538 170.058 204.15C170.304 203.757 170.633 203.449 171.045 203.227C171.457 203.004 171.912 202.839 172.409 202.73C172.911 202.616 173.415 202.526 173.922 202.46C174.585 202.375 175.122 202.311 175.534 202.268C175.951 202.221 176.254 202.143 176.443 202.034C176.637 201.925 176.734 201.735 176.734 201.465V201.409C176.734 200.708 176.542 200.163 176.159 199.775C175.78 199.387 175.205 199.193 174.433 199.193C173.633 199.193 173.006 199.368 172.551 199.718C172.096 200.069 171.777 200.443 171.592 200.84L170.001 200.272C170.285 199.609 170.664 199.093 171.138 198.724C171.616 198.35 172.137 198.09 172.7 197.943C173.268 197.791 173.827 197.715 174.376 197.715C174.727 197.715 175.129 197.758 175.584 197.843C176.043 197.924 176.486 198.092 176.912 198.348C177.343 198.603 177.7 198.989 177.984 199.505C178.268 200.021 178.41 200.713 178.41 201.579V208.767H176.734V207.289H176.649C176.535 207.526 176.346 207.779 176.081 208.049C175.816 208.319 175.463 208.549 175.023 208.738C174.582 208.928 174.045 209.022 173.41 209.022ZM173.666 207.517C174.329 207.517 174.888 207.386 175.342 207.126C175.801 206.866 176.147 206.529 176.379 206.117C176.616 205.706 176.734 205.272 176.734 204.818V203.284C176.663 203.369 176.507 203.447 176.266 203.518C176.029 203.584 175.754 203.643 175.442 203.696C175.134 203.743 174.833 203.786 174.54 203.823C174.251 203.857 174.016 203.885 173.837 203.909C173.401 203.965 172.994 204.058 172.615 204.186C172.241 204.309 171.938 204.496 171.706 204.747C171.479 204.993 171.365 205.329 171.365 205.755C171.365 206.338 171.58 206.778 172.011 207.076C172.447 207.37 172.998 207.517 173.666 207.517ZM183.146 202.204V208.767H181.47V197.858H183.089V199.562H183.231C183.487 199.008 183.875 198.563 184.396 198.227C184.917 197.886 185.589 197.715 186.413 197.715C187.152 197.715 187.798 197.867 188.352 198.17C188.906 198.468 189.337 198.923 189.644 199.534C189.952 200.14 190.106 200.907 190.106 201.835V208.767H188.43V201.948C188.43 201.091 188.207 200.424 187.762 199.946C187.317 199.463 186.706 199.221 185.93 199.221C185.395 199.221 184.917 199.337 184.495 199.569C184.079 199.801 183.75 200.14 183.508 200.585C183.267 201.03 183.146 201.57 183.146 202.204ZM197.572 213.085C196.763 213.085 196.067 212.981 195.484 212.772C194.902 212.569 194.417 212.299 194.028 211.963C193.645 211.631 193.339 211.276 193.112 210.897L194.447 209.96C194.599 210.159 194.791 210.386 195.023 210.642C195.255 210.902 195.572 211.127 195.974 211.316C196.382 211.51 196.914 211.608 197.572 211.608C198.453 211.608 199.18 211.394 199.753 210.968C200.326 210.542 200.612 209.875 200.612 208.965V206.75H200.47C200.347 206.948 200.172 207.195 199.944 207.488C199.722 207.777 199.4 208.035 198.979 208.262C198.562 208.485 197.998 208.596 197.288 208.596C196.408 208.596 195.617 208.388 194.916 207.971C194.22 207.554 193.668 206.948 193.261 206.153C192.859 205.358 192.658 204.392 192.658 203.255C192.658 202.138 192.854 201.165 193.247 200.336C193.64 199.503 194.187 198.859 194.888 198.404C195.588 197.945 196.398 197.715 197.317 197.715C198.027 197.715 198.59 197.834 199.007 198.071C199.428 198.303 199.75 198.568 199.973 198.866C200.2 199.16 200.375 199.401 200.498 199.59H200.669V197.858H202.288V209.079C202.288 210.017 202.075 210.779 201.649 211.366C201.228 211.958 200.659 212.391 199.944 212.666C199.234 212.945 198.444 213.085 197.572 213.085ZM197.516 207.09C198.188 207.09 198.756 206.937 199.22 206.629C199.684 206.321 200.037 205.878 200.278 205.301C200.52 204.723 200.641 204.032 200.641 203.227C200.641 202.441 200.522 201.747 200.285 201.146C200.049 200.545 199.698 200.073 199.234 199.733C198.77 199.392 198.197 199.221 197.516 199.221C196.805 199.221 196.213 199.401 195.74 199.761C195.271 200.121 194.918 200.604 194.682 201.21C194.45 201.816 194.334 202.488 194.334 203.227C194.334 203.984 194.452 204.654 194.689 205.237C194.93 205.814 195.285 206.269 195.754 206.6C196.228 206.927 196.815 207.09 197.516 207.09ZM205.356 208.767V197.858H207.033V208.767H205.356ZM206.209 196.039C205.882 196.039 205.6 195.928 205.364 195.706C205.132 195.483 205.016 195.215 205.016 194.903C205.016 194.59 205.132 194.323 205.364 194.1C205.6 193.878 205.882 193.767 206.209 193.767C206.535 193.767 206.815 193.878 207.047 194.1C207.284 194.323 207.402 194.59 207.402 194.903C207.402 195.215 207.284 195.483 207.047 195.706C206.815 195.928 206.535 196.039 206.209 196.039ZM211.779 202.204V208.767H210.103V197.858H211.722V199.562H211.864C212.12 199.008 212.508 198.563 213.029 198.227C213.549 197.886 214.222 197.715 215.046 197.715C215.784 197.715 216.431 197.867 216.985 198.17C217.539 198.468 217.969 198.923 218.277 199.534C218.585 200.14 218.739 200.907 218.739 201.835V208.767H217.063V201.948C217.063 201.091 216.84 200.424 216.395 199.946C215.95 199.463 215.339 199.221 214.563 199.221C214.028 199.221 213.549 199.337 213.128 199.569C212.711 199.801 212.382 200.14 212.141 200.585C211.899 201.03 211.779 201.57 211.779 202.204ZM226.205 213.085C225.395 213.085 224.699 212.981 224.117 212.772C223.535 212.569 223.049 212.299 222.661 211.963C222.278 211.631 221.972 211.276 221.745 210.897L223.08 209.96C223.232 210.159 223.423 210.386 223.655 210.642C223.887 210.902 224.205 211.127 224.607 211.316C225.014 211.51 225.547 211.608 226.205 211.608C227.086 211.608 227.813 211.394 228.386 210.968C228.958 210.542 229.245 209.875 229.245 208.965V206.75H229.103C228.98 206.948 228.805 207.195 228.577 207.488C228.355 207.777 228.033 208.035 227.611 208.262C227.195 208.485 226.631 208.596 225.921 208.596C225.04 208.596 224.25 208.388 223.549 207.971C222.853 207.554 222.301 206.948 221.894 206.153C221.492 205.358 221.29 204.392 221.29 203.255C221.29 202.138 221.487 201.165 221.88 200.336C222.273 199.503 222.82 198.859 223.52 198.404C224.221 197.945 225.031 197.715 225.949 197.715C226.66 197.715 227.223 197.834 227.64 198.071C228.061 198.303 228.383 198.568 228.606 198.866C228.833 199.16 229.008 199.401 229.131 199.59H229.302V197.858H230.921V209.079C230.921 210.017 230.708 210.779 230.282 211.366C229.86 211.958 229.292 212.391 228.577 212.666C227.867 212.945 227.076 213.085 226.205 213.085ZM226.148 207.09C226.821 207.09 227.389 206.937 227.853 206.629C228.317 206.321 228.67 205.878 228.911 205.301C229.153 204.723 229.273 204.032 229.273 203.227C229.273 202.441 229.155 201.747 228.918 201.146C228.681 200.545 228.331 200.073 227.867 199.733C227.403 199.392 226.83 199.221 226.148 199.221C225.438 199.221 224.846 199.401 224.373 199.761C223.904 200.121 223.551 200.604 223.315 201.21C223.083 201.816 222.967 202.488 222.967 203.227C222.967 203.984 223.085 204.654 223.322 205.237C223.563 205.814 223.918 206.269 224.387 206.6C224.86 206.927 225.448 207.09 226.148 207.09Z" fill="black"/>
<path d="M84.236 46.9494C83.9426 46.9494 83.7153 46.8687 83.554 46.7074C83.4073 46.5314 83.334 46.2967 83.334 46.0034V32.2094C83.334 31.9014 83.4146 31.6741 83.576 31.5274C83.7373 31.3661 83.9646 31.2854 84.258 31.2854H89.472C91.1293 31.2854 92.4053 31.6741 93.3 32.4514C94.1946 33.2287 94.642 34.3361 94.642 35.7734C94.642 36.6827 94.4366 37.4747 94.026 38.1494C93.63 38.8094 93.0433 39.3154 92.266 39.6674C91.4887 40.0047 90.5573 40.1734 89.472 40.1734L89.692 39.8874H90.132C90.704 39.8874 91.2027 40.0341 91.628 40.3274C92.0533 40.6207 92.442 41.0901 92.794 41.7354L94.906 45.6734C95.0233 45.8787 95.0747 46.0841 95.06 46.2894C95.06 46.4801 94.994 46.6414 94.862 46.7734C94.73 46.8907 94.5393 46.9494 94.29 46.9494C94.0407 46.9494 93.8353 46.8907 93.674 46.7734C93.5126 46.6561 93.3733 46.4874 93.256 46.2674L90.858 41.8234C90.5206 41.1927 90.132 40.7747 89.692 40.5694C89.252 40.3494 88.6726 40.2394 87.954 40.2394H85.138V46.0034C85.138 46.2967 85.0646 46.5314 84.918 46.7074C84.7713 46.8687 84.544 46.9494 84.236 46.9494ZM85.138 38.8094H89.208C90.4106 38.8094 91.32 38.5601 91.936 38.0614C92.552 37.5481 92.86 36.7854 92.86 35.7734C92.86 34.7907 92.552 34.0501 91.936 33.5514C91.32 33.0381 90.4106 32.7814 89.208 32.7814H85.138V38.8094ZM102.39 46.9934C101.261 46.9934 100.286 46.7734 99.4645 46.3334C98.6578 45.8787 98.0271 45.2407 97.5725 44.4194C97.1325 43.5981 96.9125 42.6154 96.9125 41.4714C96.9125 40.3567 97.1325 39.3887 97.5725 38.5674C98.0125 37.7314 98.6138 37.0787 99.3765 36.6094C100.154 36.1401 101.048 35.9054 102.06 35.9054C102.779 35.9054 103.424 36.0301 103.996 36.2794C104.568 36.5141 105.052 36.8587 105.448 37.3134C105.859 37.7681 106.167 38.3181 106.372 38.9634C106.592 39.6087 106.702 40.3347 106.702 41.1414C106.702 41.3761 106.636 41.5521 106.504 41.6694C106.372 41.7721 106.182 41.8234 105.932 41.8234H98.2765V40.6574H105.514L105.162 40.9434C105.162 40.1514 105.045 39.4841 104.81 38.9414C104.576 38.3841 104.231 37.9587 103.776 37.6654C103.336 37.3721 102.779 37.2254 102.104 37.2254C101.356 37.2254 100.718 37.4014 100.19 37.7534C99.6771 38.0907 99.2885 38.5674 99.0245 39.1834C98.7605 39.7847 98.6285 40.4887 98.6285 41.2954V41.4274C98.6285 42.7767 98.9511 43.8034 99.5965 44.5074C100.256 45.2114 101.188 45.5634 102.39 45.5634C102.889 45.5634 103.38 45.4974 103.864 45.3654C104.363 45.2334 104.847 45.0134 105.316 44.7054C105.522 44.5734 105.705 44.5147 105.866 44.5294C106.042 44.5294 106.182 44.5807 106.284 44.6834C106.387 44.7714 106.453 44.8887 106.482 45.0354C106.526 45.1674 106.512 45.3141 106.438 45.4754C106.38 45.6367 106.255 45.7761 106.064 45.8934C105.58 46.2454 105.008 46.5167 104.348 46.7074C103.688 46.8981 103.036 46.9934 102.39 46.9934ZM117.883 50.9094C117.59 50.9094 117.363 50.8287 117.201 50.6674C117.055 50.5207 116.981 50.3007 116.981 50.0074V44.2874H117.223C116.989 45.1087 116.527 45.7687 115.837 46.2674C115.148 46.7514 114.319 46.9934 113.351 46.9934C112.398 46.9934 111.562 46.7661 110.843 46.3114C110.139 45.8567 109.589 45.2187 109.193 44.3974C108.812 43.5614 108.621 42.5787 108.621 41.4494C108.621 40.3054 108.812 39.3227 109.193 38.5014C109.589 37.6654 110.139 37.0274 110.843 36.5874C111.562 36.1327 112.398 35.9054 113.351 35.9054C114.319 35.9054 115.148 36.1547 115.837 36.6534C116.541 37.1374 117.011 37.7974 117.245 38.6334L117.003 38.9414V36.8514C117.003 36.5581 117.077 36.3381 117.223 36.1914C117.385 36.0301 117.605 35.9494 117.883 35.9494C118.177 35.9494 118.397 36.0301 118.543 36.1914C118.69 36.3381 118.763 36.5581 118.763 36.8514V50.0074C118.763 50.3007 118.683 50.5207 118.521 50.6674C118.375 50.8287 118.162 50.9094 117.883 50.9094ZM113.725 45.5634C114.385 45.5634 114.965 45.4021 115.463 45.0794C115.962 44.7567 116.343 44.2874 116.607 43.6714C116.886 43.0554 117.025 42.3147 117.025 41.4494C117.025 40.1147 116.725 39.0954 116.123 38.3914C115.537 37.6874 114.737 37.3354 113.725 37.3354C113.051 37.3354 112.464 37.4967 111.965 37.8194C111.481 38.1274 111.1 38.5894 110.821 39.2054C110.557 39.8067 110.425 40.5547 110.425 41.4494C110.425 42.7694 110.726 43.7887 111.327 44.5074C111.929 45.2114 112.728 45.5634 113.725 45.5634ZM125.892 46.9934C125.026 46.9934 124.308 46.8394 123.736 46.5314C123.178 46.2087 122.753 45.7321 122.46 45.1014C122.181 44.4707 122.042 43.6861 122.042 42.7474V36.8514C122.042 36.5434 122.115 36.3161 122.262 36.1694C122.423 36.0227 122.643 35.9494 122.922 35.9494C123.215 35.9494 123.435 36.0227 123.582 36.1694C123.743 36.3161 123.824 36.5434 123.824 36.8514V42.7254C123.824 43.6641 124.014 44.3681 124.396 44.8374C124.792 45.2921 125.408 45.5194 126.244 45.5194C127.153 45.5194 127.894 45.2114 128.466 44.5954C129.038 43.9794 129.324 43.1727 129.324 42.1754V36.8514C129.324 36.5434 129.397 36.3161 129.544 36.1694C129.705 36.0227 129.932 35.9494 130.226 35.9494C130.504 35.9494 130.717 36.0227 130.864 36.1694C131.025 36.3161 131.106 36.5434 131.106 36.8514V46.0254C131.106 46.6414 130.82 46.9494 130.248 46.9494C129.969 46.9494 129.749 46.8687 129.588 46.7074C129.441 46.5461 129.368 46.3187 129.368 46.0254V44.0234L129.654 44.3314C129.36 45.1967 128.876 45.8567 128.202 46.3114C127.542 46.7661 126.772 46.9934 125.892 46.9934ZM139.258 46.9934C138.128 46.9934 137.153 46.7734 136.332 46.3334C135.525 45.8787 134.894 45.2407 134.44 44.4194C134 43.5981 133.78 42.6154 133.78 41.4714C133.78 40.3567 134 39.3887 134.44 38.5674C134.88 37.7314 135.481 37.0787 136.244 36.6094C137.021 36.1401 137.916 35.9054 138.928 35.9054C139.646 35.9054 140.292 36.0301 140.864 36.2794C141.436 36.5141 141.92 36.8587 142.316 37.3134C142.726 37.7681 143.034 38.3181 143.24 38.9634C143.46 39.6087 143.57 40.3347 143.57 41.1414C143.57 41.3761 143.504 41.5521 143.372 41.6694C143.24 41.7721 143.049 41.8234 142.8 41.8234H135.144V40.6574H142.382L142.03 40.9434C142.03 40.1514 141.912 39.4841 141.678 38.9414C141.443 38.3841 141.098 37.9587 140.644 37.6654C140.204 37.3721 139.646 37.2254 138.972 37.2254C138.224 37.2254 137.586 37.4014 137.058 37.7534C136.544 38.0907 136.156 38.5674 135.892 39.1834C135.628 39.7847 135.496 40.4887 135.496 41.2954V41.4274C135.496 42.7767 135.818 43.8034 136.464 44.5074C137.124 45.2114 138.055 45.5634 139.258 45.5634C139.756 45.5634 140.248 45.4974 140.732 45.3654C141.23 45.2334 141.714 45.0134 142.184 44.7054C142.389 44.5734 142.572 44.5147 142.734 44.5294C142.91 44.5294 143.049 44.5807 143.152 44.6834C143.254 44.7714 143.32 44.8887 143.35 45.0354C143.394 45.1674 143.379 45.3141 143.306 45.4754C143.247 45.6367 143.122 45.7761 142.932 45.8934C142.448 46.2454 141.876 46.5167 141.216 46.7074C140.556 46.8981 139.903 46.9934 139.258 46.9934ZM149.757 46.9934C149.097 46.9934 148.429 46.9127 147.755 46.7514C147.095 46.5901 146.479 46.3114 145.907 45.9154C145.76 45.8127 145.657 45.6954 145.599 45.5634C145.54 45.4167 145.518 45.2774 145.533 45.1454C145.562 44.9987 145.621 44.8741 145.709 44.7714C145.811 44.6687 145.929 44.6101 146.061 44.5954C146.207 44.5661 146.369 44.5954 146.545 44.6834C147.117 45.0354 147.667 45.2847 148.195 45.4314C148.737 45.5634 149.273 45.6294 149.801 45.6294C150.637 45.6294 151.267 45.4754 151.693 45.1674C152.118 44.8594 152.331 44.4414 152.331 43.9134C152.331 43.5027 152.191 43.1801 151.913 42.9454C151.634 42.6961 151.194 42.5054 150.593 42.3734L148.591 41.9334C147.667 41.7427 146.977 41.4127 146.523 40.9434C146.083 40.4741 145.863 39.8654 145.863 39.1174C145.863 38.4574 146.031 37.8927 146.369 37.4234C146.721 36.9394 147.212 36.5654 147.843 36.3014C148.473 36.0374 149.207 35.9054 150.043 35.9054C150.688 35.9054 151.297 35.9934 151.869 36.1694C152.455 36.3307 152.983 36.5947 153.453 36.9614C153.599 37.0641 153.695 37.1887 153.739 37.3354C153.797 37.4674 153.805 37.6067 153.761 37.7534C153.731 37.8854 153.665 38.0027 153.563 38.1054C153.46 38.1934 153.335 38.2447 153.189 38.2594C153.042 38.2741 152.888 38.2301 152.727 38.1274C152.287 37.8341 151.839 37.6214 151.385 37.4894C150.93 37.3427 150.483 37.2694 150.043 37.2694C149.221 37.2694 148.598 37.4307 148.173 37.7534C147.747 38.0761 147.535 38.5014 147.535 39.0294C147.535 39.4401 147.667 39.7774 147.931 40.0414C148.195 40.3054 148.605 40.4961 149.163 40.6134L151.165 41.0314C152.118 41.2367 152.829 41.5667 153.299 42.0214C153.783 42.4614 154.025 43.0627 154.025 43.8254C154.025 44.7934 153.636 45.5634 152.859 46.1354C152.081 46.7074 151.047 46.9934 149.757 46.9934ZM160.923 46.9934C160.087 46.9934 159.383 46.8467 158.811 46.5534C158.254 46.2454 157.836 45.8054 157.557 45.2334C157.278 44.6467 157.139 43.9354 157.139 43.0994V37.4894H155.665C155.416 37.4894 155.225 37.4307 155.093 37.3134C154.961 37.1814 154.895 37.0054 154.895 36.7854C154.895 36.5654 154.961 36.3967 155.093 36.2794C155.225 36.1621 155.416 36.1034 155.665 36.1034H157.139V33.5734C157.139 33.2801 157.22 33.0601 157.381 32.9134C157.542 32.7521 157.762 32.6714 158.041 32.6714C158.32 32.6714 158.532 32.7521 158.679 32.9134C158.84 33.0601 158.921 33.2801 158.921 33.5734V36.1034H161.693C161.942 36.1034 162.133 36.1621 162.265 36.2794C162.397 36.3967 162.463 36.5654 162.463 36.7854C162.463 37.0054 162.397 37.1814 162.265 37.3134C162.133 37.4307 161.942 37.4894 161.693 37.4894H158.921V42.9234C158.921 43.7594 159.097 44.3974 159.449 44.8374C159.801 45.2627 160.373 45.4754 161.165 45.4754C161.444 45.4754 161.678 45.4461 161.869 45.3874C162.074 45.3287 162.243 45.2994 162.375 45.2994C162.507 45.2847 162.617 45.3287 162.705 45.4314C162.793 45.5341 162.837 45.7101 162.837 45.9594C162.837 46.1354 162.8 46.2967 162.727 46.4434C162.668 46.5901 162.558 46.6927 162.397 46.7514C162.221 46.8101 161.986 46.8614 161.693 46.9054C161.414 46.9641 161.158 46.9934 160.923 46.9934ZM167.932 46.9934C167.272 46.9934 166.605 46.9127 165.93 46.7514C165.27 46.5901 164.654 46.3114 164.082 45.9154C163.936 45.8127 163.833 45.6954 163.774 45.5634C163.716 45.4167 163.694 45.2774 163.708 45.1454C163.738 44.9987 163.796 44.8741 163.884 44.7714C163.987 44.6687 164.104 44.6101 164.236 44.5954C164.383 44.5661 164.544 44.5954 164.72 44.6834C165.292 45.0354 165.842 45.2847 166.37 45.4314C166.913 45.5634 167.448 45.6294 167.976 45.6294C168.812 45.6294 169.443 45.4754 169.868 45.1674C170.294 44.8594 170.506 44.4414 170.506 43.9134C170.506 43.5027 170.367 43.1801 170.088 42.9454C169.81 42.6961 169.37 42.5054 168.768 42.3734L166.766 41.9334C165.842 41.7427 165.153 41.4127 164.698 40.9434C164.258 40.4741 164.038 39.8654 164.038 39.1174C164.038 38.4574 164.207 37.8927 164.544 37.4234C164.896 36.9394 165.388 36.5654 166.018 36.3014C166.649 36.0374 167.382 35.9054 168.218 35.9054C168.864 35.9054 169.472 35.9934 170.044 36.1694C170.631 36.3307 171.159 36.5947 171.628 36.9614C171.775 37.0641 171.87 37.1887 171.914 37.3354C171.973 37.4674 171.98 37.6067 171.936 37.7534C171.907 37.8854 171.841 38.0027 171.738 38.1054C171.636 38.1934 171.511 38.2447 171.364 38.2594C171.218 38.2741 171.064 38.2301 170.902 38.1274C170.462 37.8341 170.015 37.6214 169.56 37.4894C169.106 37.3427 168.658 37.2694 168.218 37.2694C167.397 37.2694 166.774 37.4307 166.348 37.7534C165.923 38.0761 165.71 38.5014 165.71 39.0294C165.71 39.4401 165.842 39.7774 166.106 40.0414C166.37 40.3054 166.781 40.4961 167.338 40.6134L169.34 41.0314C170.294 41.2367 171.005 41.5667 171.474 42.0214C171.958 42.4614 172.2 43.0627 172.2 43.8254C172.2 44.7934 171.812 45.5634 171.034 46.1354C170.257 46.7074 169.223 46.9934 167.932 46.9934Z" fill="black"/>
</svg>
