<svg width="1183" height="714" viewBox="0 0 1183 714" fill="none" xmlns="http://www.w3.org/2000/svg">
<path d="M3.02765 3.86523C464.578 4.96047 923.2 5.72238 1179.8 5.12714M4.21813 3.76999C256.196 -0.182418 506.483 0.293775 1180.39 3.93666M1179.18 1.74617C1182.61 249.057 1177.77 491.821 1179.15 713.036M1179.8 5.50809C1183.23 153.938 1182.13 302.486 1180.32 708.822M1179.89 710.322C851.247 710.274 522.293 710.941 4.86099 709.465M1179.94 709.774C746.175 704.941 311.339 705.798 4.48004 710.441M3.86099 711.513C-1.71048 446.82 2.6705 182.581 2.12288 7.17477M5.33719 710.393C0.71811 552.726 0.575252 396.844 3.45622 2.41284" stroke="black" stroke-linecap="round"/>
<path d="M42.1806 177.86C54.9902 164.741 58.2997 158.003 62.4902 154.503M42.1806 177.86C46.5616 170.122 51.7521 163.789 62.4902 154.503M43.133 191.289C56.3711 187.765 57.7045 169.455 74.3713 155.36M43.133 191.289C52.514 180.693 63.6569 164.622 74.3713 155.36M42.5139 206.527C50.5378 189.622 65.5617 164.955 86.2523 156.217M42.5139 206.527C59.8474 187.598 77.157 173.122 86.2523 156.217M43.4425 219.956C63.1569 202.551 72.3951 195.908 99.6809 155.265M43.4425 219.956C59.7045 202.789 67.4426 195.813 99.6809 155.265M42.8234 235.194C55.9188 208.789 73.9427 200.122 111.562 156.122M42.8234 235.194C71.0141 204.17 94.2762 177.408 111.562 156.122M42.2044 250.432C64.6093 235.313 69.9427 205.265 120.3 160.574M42.2044 250.432C68.1331 217.789 94.2523 192.027 120.3 160.574M43.133 263.861C57.1569 230.075 77.1094 216.003 124.372 170.408M43.133 263.861C75.7998 223.813 103.919 188.122 124.372 170.408M42.5139 279.099C69.7998 241.003 87.6809 231.027 128.419 180.265M42.5139 279.099C66.0141 253.051 82.9427 228.646 128.419 180.265M43.4663 292.527C53.0378 279.908 74.3951 252.099 129.372 193.693M43.4663 292.527C65.5141 270.694 80.157 253.932 129.372 193.693M42.8234 307.766C65.276 278.694 110.395 231.479 128.753 208.932M42.8234 307.766C72.9665 274.67 98.2048 244.741 128.753 208.932M42.2044 323.004C65.8236 299.599 91.5142 255.027 129.681 222.36M42.2044 323.004C73.5855 279.67 112.419 249.194 129.681 222.36M43.1568 336.432C57.9188 323.409 71.4665 289.48 129.062 237.599M43.1568 336.432C56.2759 317.718 75.9665 296.004 129.062 237.599M42.5377 351.671C77.1808 318.623 108.062 289.337 128.443 252.837M42.5377 351.671C68.4188 322.194 91.8238 296.575 128.443 252.837M43.4663 365.099C61.7759 345.837 75.9189 310.266 129.372 266.265M43.4663 365.099C68.1807 330.218 101.586 304.718 129.372 266.265M42.8472 380.338C67.895 354.433 96.0143 318.599 128.753 281.504M42.8472 380.338C73.6332 344.313 106.752 312.575 128.753 281.504M42.2282 395.576C71.9427 348.647 102.086 325.813 129.705 294.932M42.2282 395.576C71.0855 369.195 100.61 334.48 129.705 294.932M43.1568 409.004C62.3712 377.885 95.3714 344.647 129.086 310.17M43.1568 409.004C64.3712 384.433 86.9666 361.052 129.086 310.17M42.5377 424.243C73.0855 401.957 100.657 361.552 128.443 325.409M42.5377 424.243C72.2284 396.433 102.419 365.361 128.443 325.409M43.4901 437.671C83.6332 396.885 102.61 358.028 129.395 338.837M43.4901 437.671C67.1569 407.409 91.5857 382.814 129.395 338.837M42.8472 452.909C69.6331 425.29 97.5381 379.528 128.776 354.075M42.8472 452.909C70.895 424.385 93.538 398.123 128.776 354.075M42.2282 468.148C71.8474 433.981 99.919 409.528 129.705 367.504M42.2282 468.148C75.1094 433.743 111.705 395.814 129.705 367.504M43.1806 481.576C64.1093 452.267 103.181 421.362 129.086 382.742M43.1806 481.576C71.0141 444.647 97.4666 415.719 129.086 382.742M42.5615 496.814C69.4903 455.838 102.49 427.409 128.467 397.98M42.5615 496.814C67.3712 462.148 92.6809 429.29 128.467 397.98M43.4901 510.243C58.4902 482.362 86.7523 471.576 129.395 411.409M43.4901 510.243C71.0617 475.029 96.6095 438.957 129.395 411.409M42.8711 525.481C78.8237 490.029 101.205 463.171 128.776 426.647M42.8711 525.481C62.1807 497.672 84.4666 467.433 128.776 426.647M42.252 540.696C82.0856 506.005 104.61 465.624 129.729 440.076M42.252 540.696C71.9189 510.743 91.6333 475.791 129.729 440.076M43.1806 554.148C73.776 517.815 86.3713 494.219 129.11 455.314M43.1806 554.148C68.6807 526.41 96.1333 489.338 129.11 455.314M42.5615 569.386C68.4427 541.672 102.086 503.315 128.467 470.552M42.5615 569.386C74.657 536.267 98.7047 507.815 128.467 470.552M43.4901 582.815C62.6093 549.862 92.2523 515.005 129.419 483.981M43.4901 582.815C65.395 552.934 88.7285 523.005 129.419 483.981M42.8711 598.053C80.157 568.315 113.776 522.505 128.8 499.219M42.8711 598.053C76.276 570.363 94.7762 530.719 128.8 499.219M42.252 613.268C66.4426 594.196 85.5618 564.434 129.729 512.648M42.252 613.268C66.1093 581.672 102.062 548.339 129.729 512.648M43.2044 626.72C60.6331 599.172 98.6571 575.244 129.11 527.886M43.2044 626.72C59.7759 602.887 86.6571 581.529 129.11 527.886M42.5853 641.934C54.1807 629.03 81.8713 602.648 128.491 543.124M42.5853 641.934C75.2998 608.029 98.8476 579.125 128.491 543.124M45.0854 653.577C74.0141 608.196 112.181 574.982 129.419 556.553M45.0854 653.577C64.7998 626.577 86.6332 605.434 129.419 556.553M52.2521 659.839C75.0617 640.601 93.6809 607.41 128.8 571.791M52.2521 659.839C72.7284 630.125 100.062 604.291 128.8 571.791M59.4426 666.077C86.1571 641.553 115.729 607.958 129.753 585.22M59.4426 666.077C80.2046 640.911 109.324 608.768 129.753 585.22M71.3236 666.935C91.538 649.982 117.324 618.315 129.11 600.458M71.3236 666.935C82.5142 648.958 106.062 633.577 129.11 600.458M83.2047 667.792C103.348 642.339 117.729 626.196 128.491 615.696M83.2047 667.792C92.7523 650.482 103.205 641.601 128.491 615.696M95.0619 668.649C114.729 649.315 114.848 649.482 129.443 629.125M95.0619 668.649C106.467 655.054 110.729 648.673 129.443 629.125M108.514 667.72C109.324 664.077 119.562 655.292 128.824 644.363M108.514 667.72C114.8 659.482 121.181 649.077 128.824 644.363M66.5379 661.149C58.2045 648.339 49.9187 642.268 41.3949 639.292M66.5379 661.149C61.3712 656.006 50.7759 646.958 41.3949 639.292M81.7761 661.768C59.3474 643.054 60.2045 646.958 42.252 627.411M81.7761 661.768C71.0141 651.72 61.6569 643.911 42.252 627.411M97.0143 662.387C81.0856 655.149 73.7522 645.625 41.2996 613.982M97.0143 662.387C77.776 648.506 60.7759 635.482 41.2996 613.982M106.848 658.339C77.8475 631.03 53.1568 618.244 42.1568 602.101M106.848 658.339C95.3476 648.482 77.4189 636.434 42.1568 602.101M120.3 657.387C93.7285 642.244 74.5855 616.72 41.2282 588.672M120.3 657.387C104.848 640.006 84.7047 627.72 41.2282 588.672M122.943 647.077C102.371 630.006 79.0856 618.53 42.0853 576.791M122.943 647.077C87.0856 615.339 60.9664 594.506 42.0853 576.791M127.395 638.339C111.133 630.434 87.8952 594.125 41.133 563.363M127.395 638.339C103.014 608.41 68.4427 592.172 41.133 563.363M126.443 624.887C93.1809 591.767 64.4188 577.244 41.9901 551.481M126.443 624.887C106.657 603.363 78.2522 587.291 41.9901 551.481M127.324 613.03C109.705 601.958 95.5857 584.482 41.0615 538.053M127.324 613.03C112.943 602.791 92.6095 579.529 41.0615 538.053M126.372 599.577C93.0142 572.244 69.4665 552.362 41.9187 526.172M126.372 599.577C94.5143 572.196 58.5616 548.196 41.9187 526.172M127.229 587.72C114.038 576.91 87.2523 552.815 42.7758 514.291M127.229 587.72C100.848 559.743 70.5617 539.529 42.7758 514.291M128.086 575.839C91.8952 551.124 64.1569 515.624 41.8234 500.862M128.086 575.839C95.3714 544.172 63.7998 520.815 41.8234 500.862M127.157 562.41C112.633 533.672 91.0618 515.148 42.6806 488.981M127.157 562.41C97.6095 542.981 77.6808 511.672 42.6806 488.981M128.014 550.529C93.0619 530.243 74.276 496.743 41.752 475.552M128.014 550.529C92.919 526.958 67.395 502.6 41.752 475.552M127.062 537.1C105.705 508.172 71.6331 489.886 42.6092 463.671M127.062 537.1C106.776 517.1 85.538 500.053 42.6092 463.671M127.919 525.219C101.371 510.743 78.6094 497.814 41.6806 450.243M127.919 525.219C101.61 509.434 79.7999 485.338 41.6806 450.243M126.991 511.791C88.3475 489.505 61.8474 444.981 42.5377 438.362M126.991 511.791C97.6809 488.624 71.0379 457.433 42.5377 438.362M127.848 499.91C110.11 483.481 92.9428 466.338 41.5853 424.933M127.848 499.91C95.6571 474.433 66.9426 444.576 41.5853 424.933M126.895 486.481C102.181 459.767 62.4902 433.219 42.4425 413.052M126.895 486.481C106.229 471.457 82.6094 447.29 42.4425 413.052M127.753 474.6C93.5857 441.028 63.395 413.004 41.5139 399.623M127.753 474.6C97.7524 453.552 69.0617 425.29 41.5139 399.623M126.824 461.171C104.133 450.719 84.7285 424.838 42.3711 387.742M126.824 461.171C93.2523 431.6 65.9664 400.266 42.3711 387.742M127.681 449.29C115.681 436.005 87.3237 408.766 41.4187 374.314M127.681 449.29C111.681 429.504 91.2285 418.266 41.4187 374.314M126.729 435.862C91.7761 406.147 67.9426 383.647 42.2758 362.433M126.729 435.862C97.2524 412.695 73.657 390.647 42.2758 362.433M127.586 423.981C103.062 402.719 63.9902 373.695 41.3472 349.004M127.586 423.981C96.9905 397.742 71.8712 372.576 41.3472 349.004M126.657 410.552C96.8238 391.814 72.0617 359.933 42.2044 337.123M126.657 410.552C103.657 391.504 77.5856 369.361 42.2044 337.123M127.514 398.671C100.324 386.29 87.8713 349.861 41.252 323.694M127.514 398.671C96.5857 377.171 74.1808 349.599 41.252 323.694M126.562 385.242C114.681 370.742 86.6094 349.171 42.1091 311.813M126.562 385.242C96.2524 365.956 74.1332 340.218 42.1091 311.813M127.419 373.361C98.2762 352.814 60.8236 320.837 41.1806 298.385M127.419 373.361C106.086 353.647 82.2285 332.718 41.1806 298.385M126.491 359.933C110.991 335.671 88.1094 316.051 42.0377 286.504M126.491 359.933C103.419 343.337 84.8713 323.67 42.0377 286.504M127.348 348.052C103.3 322.575 74.3951 301.527 41.0853 273.075M127.348 348.052C103.443 334.409 91.919 317.409 41.0853 273.075M126.419 334.623C106.8 307.028 86.9428 287.67 41.9425 261.194M126.419 334.623C106.395 322.004 90.4428 304.123 41.9425 261.194M127.276 322.742C110.681 307.694 88.038 277.384 42.7996 249.313M127.276 322.742C92.538 299.051 71.2284 276.218 42.7996 249.313M128.134 310.861C102.062 294.575 88.6571 276.789 41.8711 235.884M128.134 310.861C96.8952 285.361 61.9664 257.908 41.8711 235.884M127.181 297.432C97.1809 272.908 87.5856 250.908 42.7282 224.003M127.181 297.432C98.6809 266.742 62.2283 240.337 42.7282 224.003M128.038 285.551C100.919 261.289 48.8711 217.67 41.7996 210.575M128.038 285.551C99.7048 257.599 60.2759 225.908 41.7996 210.575M127.11 272.123C94.2523 246.456 64.1331 217.265 42.6568 198.693M127.11 272.123C96.8476 244.099 72.2998 219.051 42.6568 198.693M127.967 260.242C114.61 251.646 92.538 223.646 41.7044 185.265M127.967 260.242C95.8714 227.67 59.0378 203.932 41.7044 185.265M127.014 246.813C105.562 229.075 64.8474 190.265 42.5615 173.384M127.014 246.813C110.538 226.122 81.538 209.717 42.5615 173.384M127.872 234.932C91.2999 218.551 82.2285 186.717 45.2282 163.074M127.872 234.932C94.6095 206.979 61.9426 181.479 45.2282 163.074M126.943 221.503C107.3 191.36 63.0617 164.003 49.6806 154.336M126.943 221.503C98.3238 195.979 70.0617 170.955 49.6806 154.336M127.8 209.622C104.705 187.17 92.5142 163.979 63.1093 153.384M127.8 209.622C104.776 192.003 85.7285 165.646 63.1093 153.384M126.848 196.193C110.324 180.312 95.5143 161.717 78.3475 154.027M126.848 196.193C111.633 180.265 89.4666 161.241 78.3475 154.027M127.705 184.312C123.086 174.384 107.181 168.646 91.7761 153.074M127.705 184.312C115.443 171.479 105.443 163.479 91.7761 153.074M126.776 170.884C122.419 170.931 114.872 167.265 107.014 153.693M126.776 170.884C123.038 165.074 115.824 159.931 107.014 153.693" stroke="#CED4DA" stroke-width="0.5" stroke-linecap="round"/>
<path d="M61.3469 154.169C84.2995 161.669 89.99 153.955 103.323 154.169M61.3469 154.169C68.4898 156.836 79.1566 156.907 103.323 154.169M103.323 154.169C125.538 147.788 131.657 166.741 124.3 175.169M103.323 154.169C108.871 147.193 123.514 166.908 124.3 175.169M124.3 175.169C121.3 303.099 134.419 419.052 124.3 641.577M124.3 175.169C119.181 333.361 120.966 501.91 124.3 641.577M124.3 641.577C127.633 650.792 108.038 663.292 103.323 662.577M124.3 641.577C126.99 650.911 120.657 659.458 103.323 662.577M103.323 662.577C102.657 655.387 82.6328 658.744 61.3469 662.577M103.323 662.577C85.7281 658.696 70.9184 663.101 61.3469 662.577M61.3469 662.577C44.9421 659.125 34.0134 660.196 40.3468 641.577M61.3469 662.577C37.2277 653.696 41.0611 646.244 40.3468 641.577M40.3468 641.577C47.9659 525.648 36.0373 406.219 40.3468 175.169M40.3468 641.577C41.9659 482.862 39.4897 331.98 40.3468 175.169M40.3468 175.169C46.0611 168.622 41.2516 158.407 61.3469 154.169M40.3468 175.169C35.6325 154.288 39.7039 148.169 61.3469 154.169" stroke="black" stroke-linecap="round"/>
<path d="M55.7761 231.082C60.5857 224.606 77.4905 205.82 85.7287 195.796M58.1095 227.868C66.2524 218.559 74.2762 216.844 86.1573 191.249M62.8476 248.844C69.7762 228.797 69.2524 222.725 96.443 199.654M59.2761 246.225C70.6096 226.059 87.2763 214.987 95.3954 198.535M60.7285 248.321C79.7525 240.654 81.7763 224.011 102.086 200.082M63.4666 258.773C79.5382 238.059 90.9906 221.13 109.157 202.082M72.681 262.916C80.4668 251.559 96.3002 225.701 120.705 209.678M72.8715 265.345C87.5858 243.249 97.5383 229.892 116.943 207.178M82.943 261.202C85.8954 242.273 114.657 228.582 110.705 222.892M76.7524 264.416C88.5382 255.821 99.2288 246.63 116.919 217.892M87.1573 274.678C92.3954 264.059 119.038 237.725 128.372 221.606M84.5144 269.535C88.943 266.273 103.729 253.511 122.562 226.344M97.1335 270.345C106.3 266.416 111.681 256.797 120.443 253.344M100.276 265.773C105.705 262.606 113.8 253.059 114.729 249.868" stroke="#868E96" stroke-width="0.5" stroke-linecap="round"/>
<path d="M105.253 200.535C110.253 205.249 120.943 217.392 122.396 226.773C123.872 236.154 118.253 250.702 114.038 256.868C109.824 263.035 103.491 261.726 97.1096 263.797C90.7525 265.845 82.8 271.797 75.8238 269.249C68.8237 266.702 58.7999 256.416 55.2046 248.511C51.5855 240.63 51.3474 230.011 54.2046 221.868C57.038 213.749 66.7285 204.558 72.2523 199.749C77.8 194.939 81.3238 191.225 87.4191 193.011C93.5144 194.773 104.967 206.582 108.8 210.344C112.634 214.106 109.8 214.678 110.395 215.559M105.372 199.32C110.253 202.368 107.729 205.63 110.324 211.797C112.919 217.963 121.824 227.535 120.943 236.297C120.086 245.035 111.514 258.13 105.11 264.345C98.7049 270.559 90.0382 274.535 82.5381 273.559C75.0143 272.583 65.3475 265.749 60.0856 258.464C54.8237 251.178 50.0379 237.892 50.9665 229.844C51.8713 221.797 61.3951 215.535 65.5618 210.225C69.7285 204.892 70.5619 199.225 75.9667 197.939C81.3476 196.654 93.443 203.273 97.9192 202.487C102.395 201.678 101.705 193.511 102.8 193.177" stroke="black" stroke-linecap="round"/>
<path d="M65.0467 325.542C76.0468 324.113 75.3563 304.613 88.8325 294.184M62.0229 330.708C68.8324 322.589 82.8087 308.065 84.5468 297.042M70.3324 345.089C70.1896 323.946 84.0468 315.446 97.0707 310.684M67.7134 340.089C73.8086 331.042 88.9992 315.327 95.9516 301.351M60.4514 360.471C71.2372 344.47 73.0467 331.351 100.237 318.256M70.8801 353.804C78.6658 337.589 90.2135 333.566 102.214 313.28M72.8563 360.113C89.9754 347.589 92.5945 343.589 107.404 326.494M75.261 365.328C82.6897 345.923 98.8564 341.518 104.904 322.875M73.6182 361.232C81.0706 364.113 93.7373 339.351 119.761 321.018M76.8325 369.637C91.9278 356.351 106.428 339.066 114.761 330.423M89.5945 365.399C108.976 362.399 112.618 349.185 117.618 324.208M84.4516 368.947C102.19 362.185 110.476 345.089 122.357 332.875M103.404 374.566C113.69 367.042 114.904 362.851 129.928 351.447M96.0945 371.637C107.666 368.685 109.023 357.542 124.38 348.994" stroke="#868E96" stroke-width="0.5" stroke-linecap="round"/>
<path d="M102.904 311.875C108.095 316.542 115.38 322.184 118.714 329.423C122.071 336.661 125.952 347.947 122.928 355.328C119.904 362.709 106.547 371.066 100.571 373.685C94.5945 376.304 92.7612 373.661 87.0945 371.042C81.4516 368.423 71.2611 363.185 66.642 357.899C61.9991 352.637 59.3324 347.28 59.3324 339.399C59.3086 331.542 62.2134 317.637 66.5467 310.684C70.9039 303.732 76.7135 296.16 85.4516 297.684C94.166 299.208 113.38 311.375 118.952 319.804C124.523 328.208 118.857 346.827 118.88 348.185M97.9041 297.232C104.523 297.899 107.642 311.827 110.809 318.78C113.999 325.732 116.023 331.994 116.952 338.97C117.904 345.947 119.238 355.494 116.452 360.685C113.69 365.851 107.214 369.256 100.285 370.042C93.3326 370.828 82.2611 367.899 74.8325 365.375C67.4277 362.875 58.0467 362.113 55.761 354.994C53.4752 347.875 57.4514 331.137 61.0943 322.661C64.7134 314.184 70.8563 307.042 77.4992 304.137C84.1659 301.208 98.8089 304.399 101.071 305.161C103.309 305.922 91.9517 307.661 90.9755 308.708" stroke="black" stroke-linecap="round"/>
<path d="M59.7307 438.462C74.1594 422.605 72.5641 423.82 82.469 410.629M64.3022 433.653C73.2784 429.939 76.5165 416.058 84.9928 409.296M69.4451 442.534C74.7784 429.034 92.8262 415.343 107.16 410.129M64.445 444.963C74.9927 440.605 78.8499 429.486 97.8262 402.272M77.4927 454.701C83.3261 434.343 92.0404 424.534 115.66 409.177M70.826 459.82C77.0403 447.963 95.4928 429.081 110.66 413.748M71.3498 474.867C86.588 449.153 110.469 433.129 121.469 420.224M76.5642 467.177C77.7784 462.344 94.1595 444.058 117.85 418.32M70.5165 471.32C95.7309 461.486 93.5166 454.629 116.945 429.748M78.9451 479.796C95.0643 464.867 107.207 441.772 126.35 429.248M80.5404 490.153C101.779 469.558 112.874 451.201 117.945 439.034M84.088 483.463C97.7548 472.51 101.136 463.701 126.612 437.462M97.3976 493.51C111.588 470.796 129.803 462.606 138.803 439.082M93.7547 488.058C110.469 469.344 116.922 457.963 135.755 446.796" stroke="#868E96" stroke-width="0.5" stroke-linecap="round"/>
<path d="M101.779 405.677C108.946 407.915 113.422 418.058 117.303 423.748C121.208 429.439 125.041 431.915 125.136 439.867C125.231 447.843 123.041 464.534 117.85 471.51C112.66 478.463 101.279 480.891 93.9693 481.653C86.6598 482.415 78.5883 480.487 73.9454 476.129C69.3025 471.772 68.3501 463.201 66.1358 455.51C63.9215 447.82 59.5644 437.248 60.6596 429.915C61.731 422.605 63.2549 411.605 72.6121 411.558C81.9693 411.51 109.208 419.819 116.755 429.581C124.279 439.343 117.208 469.629 117.827 470.129M66.6835 412.534C70.8501 406.081 87.4693 401.367 94.8979 402.105C102.327 402.867 106.993 410.534 111.231 417.01C115.469 423.486 119.827 433.534 120.327 440.962C120.85 448.391 117.898 456.272 114.255 461.605C110.636 466.963 103.16 470.153 98.5646 473.034C93.9693 475.939 92.5884 480.201 86.6836 478.987C80.7788 477.796 67.6358 471.796 63.112 465.891C58.5882 459.963 57.5882 452.677 59.4929 443.558C61.3977 434.415 71.5406 415.629 74.6121 411.081C77.6597 406.534 77.0645 415.319 77.8502 416.272" stroke="black" stroke-linecap="round"/>
<path d="M65.7943 550.654C60.9848 537.106 74.4372 527.249 89.8421 517.677M60.6514 547.773C70.7467 537.535 69.9848 530.32 88.4135 521.725M58.9133 554.035C71.5563 546.201 84.104 541.035 98.8422 513.153M61.3181 560.511C73.6991 547.701 79.3658 536.273 90.985 524.582M61.9372 571.678C68.8658 552.844 86.223 550.725 101.937 525.368M67.0562 567.392C82.3421 558.201 90.6992 541.82 106.533 527.677M79.4373 576.678C83.9611 570.606 98.1993 553.344 112.152 522.177M71.7706 574.321C91.9135 564.13 98.6755 544.987 110.247 530.368M71.461 591.654C91.2231 559.987 113.961 545.154 122.604 542.797M79.9373 586.94C96.2231 567.987 104.295 559.035 122.104 536.677M94.8183 594.94C101.128 579.178 109.652 550.058 130.795 532.725M88.1278 593.821C100.152 574.011 114.128 560.106 129.223 545.13M103.652 594.154C102.318 592.773 111.866 587.297 115.914 569.678M99.5564 593.987C101.771 583.416 109.437 583.035 121.699 567.487" stroke="#868E96" stroke-width="0.5" stroke-linecap="round"/>
<path d="M65.6517 527.868C71.1994 521.677 83.9614 517.915 90.1995 517.13C96.4138 516.344 97.5329 519.63 103.033 523.13C108.509 526.63 120.485 531.273 123.128 538.177C125.771 545.082 122.295 556.082 118.914 564.511C115.557 572.94 109.319 585.178 102.938 588.797C96.5567 592.392 87.2947 589.225 80.628 586.13C73.9613 583.059 66.6279 577.13 62.9136 570.297C59.1993 563.487 54.4374 553.987 58.3183 545.154C62.1993 536.344 77.3423 520.511 86.2233 517.32C95.0805 514.13 111.223 526.344 111.533 526.035M107.057 528.892C110.89 534.511 113.938 540.844 115.747 547.773C117.557 554.701 120.009 564.654 117.914 570.463C115.843 576.273 110.009 580.821 103.247 582.63C96.5091 584.44 85.2947 582.868 77.4851 581.297C69.6517 579.702 59.4612 579.892 56.3659 573.178C53.2707 566.463 56.1278 549.82 58.9136 541.035C61.6993 532.249 66.9136 524.273 73.1041 520.487C79.2947 516.677 90.6281 516.487 96.0329 518.249C101.438 520.011 103.271 528.915 105.581 531.106C107.866 533.296 109.652 531.487 109.795 531.416" stroke="black" stroke-linecap="round"/>
<path d="M201.669 199.829C200.455 196.163 210.193 192.329 209.526 184.758M200.264 197.21C204.193 193.615 210.979 188.424 213.907 183.162M195.526 217.306C204.169 206.663 209.288 193.663 222.788 188.043M197.931 214.925C205.36 204.544 212.431 201.805 228.955 180.996M193.359 234.496C205.098 210.901 234.955 195.067 230.55 178.353M197.812 225.115C207.574 207.972 226.241 198.353 238.979 183.02M192.621 235.02C212.598 230.282 231.931 211.972 245.955 191.924M197.002 241.115C221.86 219.401 239.622 197.424 255.646 186.424M203.264 261.568C228.217 228.71 228.979 211.829 266.384 181.21M205.288 254.615C230.788 222.544 246.812 195.877 264.574 180.353M206.598 279.139C221.05 230.52 246.955 212.377 281.146 180.591M200.359 272.33C227.645 243.83 248.884 211.496 280.884 178.353M202.098 290.711C241.312 243.187 266.574 213.853 292.193 183.329M205.455 282.211C221.979 260.996 250.574 229.972 287.312 182.615M198.764 299.235C234.312 264.187 269.741 220.853 303.336 178.996M196.169 304.187C238.241 260.472 274.003 217.758 300.955 186.591M202.598 308.687C232.145 289.068 255.527 260.782 322.646 181.472M204.002 309.044C239.955 269.806 273.812 238.853 310.694 187.186M200.098 333.14C244.86 280.092 292.36 219.877 332.717 190.234M196.455 325.735C232.026 286.377 274.979 246.782 324.932 177.948M203.074 340.663C233.931 295.33 284.86 255.615 331.051 180.329M199.502 341.187C228.931 299.973 269.265 259.353 337.479 180.281M201.74 348.687C253.241 298.163 317.836 245.044 357.575 177.853M204.574 360.664C251.36 293.449 310.551 230.925 356.36 179.448M195.407 365.021C253.812 300.401 307.17 235.329 363.575 192.758M200.788 371.164C271.55 294.592 338.622 220.853 360.122 184.52M224.669 362.759C269.955 308.092 313.051 252.139 372.503 180.115M218.122 367.235C258.741 315.806 307.146 268.211 374.265 183.21M231.336 378.783C279.479 320.759 329.646 254.091 387.004 182.424M226.836 367.045C269.955 320.14 311.098 276.02 389.432 182.853M231.336 362.854C285.384 307.163 332.432 265.234 397.361 176.591M245.36 369.497C283.979 322.259 321.098 277.592 399.789 184.377M249.003 370.64C319.17 311.83 360.194 241.568 421.932 178.186M256.907 369.497C288.17 327.14 322.479 284.854 416.408 185.139M268.312 372.568C312.027 307.282 350.265 256.139 420.194 183.543M266.979 370.211C317.717 318.759 361.051 266.806 429.48 181.329M273.312 377.068C341.432 306.497 410.599 224.877 447.623 178.853M278.622 366.687C329.122 314.259 382.432 248.687 440.79 180.543M294.598 372.83C340.408 307.806 395.527 239.401 454.337 177.543M292.836 367.521C352.837 311.33 404.504 240.234 454.433 185.043M297.36 375.854C355.884 307.639 426.29 232.663 459.052 191.258M302.717 369.021C358.289 310.116 413.528 246.949 461.647 185.186M323.075 371.687C372.813 310.306 441.956 244.568 479.647 192.734M313.027 367.402C374.956 303.973 429.79 240.782 477.695 182.805M320.479 362.426C377.623 308.592 435.885 240.02 486.123 192.186M324.86 370.949C367.099 331.711 402.766 293.092 486.79 184.972M344.313 366.164C395.98 297.735 472.575 217.234 506.076 180.091M345.503 364.664C374.242 328.592 411.361 291.02 501.48 188.282M348.241 368.735C413.194 291.354 485.361 223.115 517.266 185.496M354.265 370.045C415.028 295.449 476.052 227.282 513.719 183.21M364.622 361.283C418.242 319.83 462.314 259.711 526.028 189.782M369.361 371.592C431.075 302.663 488.909 229.782 527.362 185.496M373.48 368.187C418.599 321.282 455.123 290.663 537.695 183.091M375.623 367.045C418.528 329.306 446.29 289.377 539.29 181.567M385.504 371.997C432.337 322.449 483.885 269.115 558.79 192.472M389.932 371.973C433.194 320.854 477.337 268.068 552.933 178.924M395.17 370.687C460.385 322.568 492.028 273.068 567.409 185.877M406.17 365.759C448.575 314.639 491.171 269.401 569.028 180.115M409.885 377.664C447.671 324.116 488.671 284.782 572.695 176.448M416.528 371.211C469.433 312.116 513.409 259.782 579.862 185.615M437.694 365.711C486.004 294.925 546.909 226.282 571.029 199.901M429.123 373.164C487.314 301.139 541.766 245.33 574.695 202.924M432.67 371.211C478.242 321.449 520.076 287.996 573.029 216.091M443.48 368.902C465.575 343.663 497.457 305.449 577.695 218.21M455.433 360.211C503.552 320.854 550.576 254.663 584.171 219.448M450.694 370.735C486.647 332.044 520.6 287.639 582.529 224.115M466.147 370.759C491.29 342.14 529.838 303.139 568.743 245.33M465.956 370.735C504.6 333.544 541.409 287.449 574.719 239.163M485.195 378.783C500.79 338.33 520.385 319.378 570.862 256.949M481.171 371.735C514.481 336.187 549.719 292.282 578.243 254.83M500.314 364.378C527.052 331.806 546.505 302.02 583.529 268.734M487.909 371.235C520.076 335.711 545.814 300.354 573.529 267.163M512.981 368.259C538.576 336.544 561.338 319.401 574.505 290.116M506.266 373.402C523.147 355.187 535.624 334.711 581.957 290.354M521.814 367.306C529.838 345.092 557.29 334.521 572.671 306.711M522.052 372.854C538.505 346.044 553.243 332.949 582.291 303.211M530.909 369.259C542.766 351.783 557.29 336.544 582.886 318.306M534.743 366.664C539.171 359.687 551.457 345.14 579.576 318.949M552.195 364.592C548.266 350.164 566.79 350.306 573.886 320.997M542.266 366.83C551.386 356.33 560.052 353.711 575.124 332.425M556.481 365.378C567.124 363.092 567.505 359.735 576.481 337.854M559.171 365.926C562.386 360.116 569.981 353.402 579.6 342.663M569.243 369.497C569.148 365.068 576.79 361.259 576.076 356.378M568.576 370.378C570.909 366.14 571.909 363.235 577.195 360.568" stroke="#CED4DA" stroke-width="0.5" stroke-linecap="round"/>
<path d="M199.24 185.924C323.503 183.472 443.575 189.472 579.386 181.781M197.812 184.043C304.36 178.21 413.813 183.996 574.529 184.21M574.362 184.781C582.695 244.972 583.076 321.425 567.838 369.497M579.552 183.496C574.648 228.758 575.743 285.187 580.576 368.473M579.529 368.068C466.171 379.568 370.98 376.14 208.383 358.592M575.695 369.997C449.933 373.616 326.217 375.045 200.788 367.925M197.717 373.568C196.645 319.759 194.098 259.972 200.55 184.734M197.526 369.854C201.479 324.973 203.574 288.02 203.526 185.591" stroke="black" stroke-linecap="round"/>
<path d="M633.639 196.139C636.83 191.758 640.211 186.068 644.068 183.639M632.853 198.068C635.425 197.758 639.258 193.211 646.068 186.616M636.663 206.33C638.901 203.139 654.639 191.711 655.068 191.592M630.353 209.306C640.782 207.163 641.425 201.187 661.425 181.925M628.806 222.759C643.639 211.925 655.377 192.401 679.116 179.139M631.663 230.473C642.687 212.663 658.568 201.663 668.282 186.949M640.615 248.473C642.33 214.806 663.282 192.52 683.663 188.997M631.687 239.044C646.853 230.068 654.901 217.235 682.092 184.044M625.639 248.997C659.234 232.235 679.83 196.378 689.616 189.425M629.972 258.783C654.592 232.33 682.854 197.806 694.235 180.02M636.377 271.188C648.758 234.568 677.187 221.354 706.33 176.377M633.782 271.33C657.02 241.402 683.735 218.021 708.401 185.33M625.639 289.069C654.115 263.402 693.997 215.116 714.021 184.401M631.068 285.307C665.02 243.925 704.663 209.782 716.64 187.758M628.306 299.331C653.949 271.545 692.092 229.735 729.354 190.854M630.591 301.497C664.663 267.997 691.044 234.33 737.711 183.568M634.663 322.283C651.282 281.426 683.473 259.235 750.592 181.901M632.163 317.307C675.616 263.14 714.64 217.711 744.83 180.282M630.972 334.712C666.735 295.569 714.401 244.116 766.045 190.044M630.472 329.426C670.377 283.783 718.544 236.425 761.092 180.211M625.21 347.259C677.544 274.116 743.259 220.544 775.33 188.782M632.877 347.902C666.901 302.569 703.235 265.33 768.259 183.235M638.234 366.307C663.354 324.212 694.901 268.235 778.83 187.163M633.02 361.117C679.258 299.45 731.021 248.973 783.14 179.854M644.044 367.712C696.687 303.188 752.402 233.568 798.997 181.782M638.258 370.283C667.163 331.593 698.497 291.664 794.783 182.52M657.782 371.355C697.806 310.759 766.283 246.164 812.593 174.925M654.33 362.117C714.425 293.497 778.854 223.163 812.497 180.663M669.639 364.926C694.806 328.236 742.378 286.354 829.14 183.83M668.473 369.474C715.497 304.688 772.283 246.473 821.95 181.449M667.568 365.712C735.14 302.45 775.926 251.806 842.259 182.663M673.616 364.974C710.401 327.616 740.806 294.902 833.212 183.925M695.044 371.902C709.854 323.235 759.973 296.021 850.95 187.806M689.449 367.76C732.116 311.831 783.402 259.878 846.498 181.687M700.925 371.45C762.854 301.926 811.354 237.83 868.045 181.02M699.544 370.188C759.949 299.45 821.497 235.735 861.974 184.592M719.306 360.521C772.402 287.211 831.831 223.925 865.379 175.52M718.425 368.95C765.426 307.069 811.64 251.283 874.069 183.306M719.521 371.593C788.259 304.688 823.116 238.211 877.379 177.282M728.711 367.736C774.807 315.045 821.45 259.64 881.379 180.639M747.735 358.331C777.592 317.331 799.664 288.711 889.188 174.949M738.592 360.95C782.331 326.545 816.902 278.164 899.95 184.687M757.973 357.212C814.497 310.878 868.95 230.663 900.498 179.068M747.545 364.926C799.735 314.593 851.498 252.545 914.522 184.592M771.235 374.117C799.688 327.735 842.998 263.164 916.808 184.02M764.164 365.188C819.283 303.759 878.783 233.973 918.712 182.568M771.402 365.498C826.45 305.688 873.236 243.14 940.451 187.092M779.759 367.45C838.998 298.402 890.236 233.759 936.141 187.592M791.664 371.641C854.76 299.45 905.784 221.711 939.379 189.616M789.497 362.712C838.188 310.902 879.974 262.521 952.713 181.663M806.95 365.498C856.26 305.854 898.522 256.735 963.76 186.925M800.735 369.831C855.331 313.378 901.426 253.092 958.379 189.306M812.474 375.807C869.807 308.712 907.807 250.545 982.879 186.687M817.759 371.617C847.593 321.116 890.045 280.592 976.046 184.925M832.212 372.379C872.26 303.116 935.451 238.449 982.832 179.901M832.688 364.998C870.236 316.783 910.427 263.854 989.356 181.235M844.902 370.093C893.831 320.926 942.165 264.33 993.808 178.211M838.712 363.783C891.236 304.807 949.213 241.616 1000.05 184.258M849.664 371.26C911.974 302.831 958.855 256.426 1016.36 184.901M849.521 363.236C878.998 330.14 915.688 294.64 1012.74 186.568M868.331 374.569C902.474 337.212 924.284 285.473 1015.64 191.33M865.117 371.283C922.736 299.473 972.784 238.211 1011.78 195.568M877.545 374.355C914.641 338.069 938.998 311.854 1005.59 211.782M881.522 363.664C924.57 311.759 966.736 266.759 1008.69 214.52M887.45 369.736C929.76 334.878 963.998 286.14 1010.47 222.473M894.76 362.712C934.665 313.926 978.094 263.997 1014.74 232.378M911.76 363.783C930.141 330.14 962.736 298.973 1009.81 244.164M901.093 363.855C937.998 324.45 981.332 281.283 1006.45 243.116M913.188 372.688C952.117 323.807 994.308 281.021 1002.17 248.045M919.903 366.902C943.832 338.712 962.76 311.235 1009.97 259.568M925.927 367.831C953.117 354.117 954.974 327.283 1007.74 279.164M927.474 369.164C949.689 342.569 973.998 320.45 1009.74 268.64M943.736 360.998C957.094 338.902 976.356 332.569 1017.78 285.926M936.832 368.188C969.76 332.355 997.856 301.831 1013.83 283.283M947.451 365.64C960.808 349.212 981.332 318.45 1004.97 291.664M950.617 364.307C964.927 348.069 977.641 335.664 1008.67 298.188M964.403 367.783C988.57 354.117 1002.69 338.426 1009.64 318.474M964.855 363.521C974.451 360.474 986.07 349.378 1008.55 312.14M981.522 363.45C996.927 349.64 992.118 343.521 1013.33 331.188M978.784 360.95C991.546 353.807 990.665 352.498 1006.97 332.45M988.213 367.212C993.594 359.569 1007.17 354.259 1014.59 342.95M990.26 364.188C995.594 360.712 1002.59 357.093 1009.59 347.426M1006.07 364.236C1005.83 363.974 1007.81 362.879 1010.09 359.045M1004.5 366.117C1006.38 364.974 1006.4 362.712 1010.02 359.902" stroke="#CED4DA" stroke-width="0.5" stroke-linecap="round"/>
<path d="M636.472 175.782C716.473 177.52 788.283 185.52 1013.64 182.925M630.21 180.163C732.425 182.711 842.569 187.306 1009.97 181.044M1012.43 186.925C1004.05 229.021 1018.12 280.068 1018.55 365.283M1005.45 179.758C1013.88 251.544 1010.07 314.997 1013.4 365.521M1010.69 365.474C901.379 368.617 809.926 363.759 641.639 359.402M1008.05 365.212C882.379 362.902 754.259 359.855 634.091 362.307M634.187 363.783C635.734 308.973 627.568 236.068 627.448 175.592M628.282 365.14C625.734 308.95 630.139 251.354 635.472 183.758" stroke="black" stroke-linecap="round"/>
<path d="M198.846 435.681C205.56 435.896 209.608 427.372 212.512 427.943M201.679 438.586C204.512 435.086 208.489 428.038 211.179 423.562M201.631 456.824C205.869 439.919 213.512 434.586 230.274 416.181M202.227 455.015C211.608 440.943 215.774 434.586 229.132 421.157M207.441 466.396C205.893 466.872 214.727 447.181 230.751 418.919M197.965 466.324C204.393 458.491 218.56 453.419 237.441 428.443M204.703 482.467C204.298 473.777 215.37 464.396 243.013 423.395M201.703 476.158C222.893 455.991 236.989 433.229 247.036 420.943M198.227 489.991C219.084 463.586 248.108 443.134 257.822 428.11M201.727 499.61C221.727 479.491 239.822 456.158 264.703 419.895M194.322 507.872C227.512 492.277 244.608 466.515 268.727 418.324M199.393 516.039C222.298 481.729 247.846 456.634 277.775 420.086M191.965 532.777C215.989 492.158 251.56 467.396 294.346 430.395M202.012 520.825C234.036 490.563 268.298 455.372 287.227 420.753M192.965 539.372C234.703 507.158 275.894 453.348 310.537 417.872M196.298 538.11C224.084 510.872 249.87 481.872 298.465 418.61M208.703 557.515C250.56 498.801 277.584 460.039 309.918 431.848M204.393 549.063C238.417 514.967 266.108 475.562 315.608 420.11M205.512 567.015C218.631 536.42 260.06 507.467 329.227 429.8M201.965 570.777C236.56 534.801 267.87 493.134 332.346 425.038M206.489 574.92C238.584 529.729 284.56 486.301 337.466 418.014M202.655 584.516C255.87 524.491 311.418 464.896 335.823 419.729M206.584 596.587C235.798 555.42 263.917 528.206 358.513 431.776M203.036 596.135C236.251 559.849 275.322 511.396 354.394 427.253M208.131 610.254C273.608 541.039 321.799 460.539 359.132 430.134M210.203 603.635C246.536 571.658 276.656 526.801 366.466 424.491M213.346 612.635C271.56 552.42 330.751 481.062 371.68 428.562M216.822 608.23C261.489 558.944 302.656 509.967 376.847 420.943M234.774 599.73C299.18 533.872 357.275 459.11 382.204 431.729M231.846 608.039C272.227 560.873 313.037 514.515 392.085 423.324M241.632 609.706C292.941 548.563 344.132 473.301 395.894 413.872M247.632 606.182C297.799 552.277 339.942 494.396 401.704 419.229M255.56 597.92C306.727 548.634 350.775 493.824 420.371 422.967M260.941 603.23C293.465 567.873 321.37 533.42 420.252 427.395M276.989 598.158C305.037 573.492 340.061 520.944 436.014 427.634M267.275 609.54C323.775 545.23 372.394 485.205 430.276 424.134M274.156 607.801C342.989 532.301 404.68 466.11 436.347 421.514M280.298 609.659C327.108 556.825 374.228 506.706 443.514 422.324M300.013 596.849C337.513 552.849 391.156 496.134 455.49 422.467M297.489 603.349C348.775 546.134 391.252 481.753 453.514 426.419M309.965 602.325C360.847 524.325 436.633 453.943 475.252 424.562M310.084 608.016C356.061 549.587 398.894 498.801 468.014 425.538M316.608 604.135C372.132 537.563 433.038 481.015 470.085 418.062M316.37 604.42C380.252 544.944 428.966 486.943 479.157 426.61M339.466 602.278C371.847 581.182 407.99 527.087 493.324 427.776M330.037 607.73C384.99 538.658 445.49 473.062 494.3 419.419M338.894 597.849C393.418 560.634 425.752 513.515 497.038 417.657M344.18 604.087C385.99 547.372 434.823 499.396 499.871 427.681M359.632 612.135C407.895 547.015 455.276 486.277 510.11 425.372M361.989 611.182C399.252 552.015 441.085 504.467 517.467 427.61M366.204 611.492C409.347 541.825 459.419 498.086 526.491 418.872M367.037 606.325C431.704 537.634 491.657 463.967 531.395 426.895M378.513 611.659C435.18 543.944 514.895 471.181 551.443 429.062M384.204 605.492C431.49 556.92 475.3 506.944 546.157 419.705M404.109 600.825C458.776 538.182 523.276 465.539 546.943 425.562M394.204 608.706C436.99 567.134 476.252 512.896 552.205 427.515M402.418 605.873C455.419 557.372 498.633 499.991 573.205 430.11M404.323 602.897C449.419 555.611 488.895 514.134 564.419 425.562M426.371 596.373C478.085 545.206 530.229 473.753 581.658 430.586M419.871 602.444C454.871 566.063 489.443 522.182 578.205 421.729M434.395 607.897C466.99 579.849 481.228 539.634 580.61 434.396M429.276 604.468C471.157 568.896 500.967 527.968 574.896 437.253M451.061 608.087C482.038 558.111 521.157 508.515 586.039 446.324M442.228 600.873C481.062 564.301 510.157 522.158 578.848 459.158M455.204 600.778C482.681 576.658 508.324 556.539 583.253 464.634M455.704 609.659C509.514 550.825 554.015 498.753 582.324 468.229M464.443 606.349C486.728 577.206 527.491 549.658 585.896 487.491M473.062 601.42C496.133 575.635 529.776 547.801 577.586 486.824M480.395 613.635C512.348 583.349 536.586 543.015 585.729 495.039M479.514 606.754C513.943 569.801 544.062 538.61 574.729 497.563M497.062 598.182C519.014 569.849 563.062 534.444 574.062 515.658M499.538 604.682C523.705 579.777 540.776 551.92 576.943 512.801M503.205 607.516C527.348 577.658 557.729 549.42 586.467 531.706M505.419 601.468C529.919 584.016 543.753 563.896 579.253 531.325M528.657 608.087C550.324 593.658 558.729 564.373 579.8 536.777M522.419 604.778C546.562 586.182 566.634 562.42 580.253 541.73M532.61 608.563C547.681 597.23 567.324 580.849 575.681 554.801M537.324 607.349C547.681 595.23 553.324 588.063 574.634 554.277M545.134 601.992C562.396 600.658 561.086 578.373 571.943 564.849M546.467 608.563C555.395 598.873 564.896 580.468 580.586 567.134M557.134 610.182C558.515 598.706 567.729 601.42 581.419 585.682M559.586 607.087C568.324 601.349 575.967 589.825 577.634 586.754M573.824 604.563C575.586 603.897 575.348 603.73 577.039 600.444M572.943 605.373C573.634 603.706 574.824 602.706 578.039 600.016" stroke="#CED4DA" stroke-width="0.5" stroke-linecap="round"/>
<path d="M194.607 421.729C351.037 429.277 494.276 427.038 578.372 426.038M203.703 426.919C307.227 427.538 422.276 429.062 577.491 419.086M571.586 416.753C578.991 495.539 582.991 567.992 581.253 595.373M581.134 425.443C577.896 479.396 572.038 546.968 573.086 604.825M586.015 608.182C451.3 598.492 332.68 603.587 192.56 591.944M581.515 605.325C476.704 603.278 377.704 598.135 199.488 601.968M196.441 609.111C190.012 558.301 195.869 495.206 200.012 423.134M202.56 603.349C207.06 544.587 203.131 484.753 198.107 427.253" stroke="black" stroke-linecap="round"/>
<path d="M257.04 242.404V218.404H259.631V221.176H259.949C260.146 220.873 260.419 220.487 260.767 220.017C261.123 219.54 261.631 219.116 262.29 218.745C262.956 218.366 263.858 218.176 264.994 218.176C266.464 218.176 267.759 218.544 268.881 219.279C270.002 220.014 270.877 221.055 271.506 222.404C272.134 223.752 272.449 225.343 272.449 227.176C272.449 229.025 272.134 230.627 271.506 231.983C270.877 233.332 270.006 234.377 268.892 235.12C267.778 235.854 266.494 236.222 265.04 236.222C263.919 236.222 263.021 236.036 262.347 235.665C261.672 235.286 261.153 234.858 260.79 234.381C260.426 233.896 260.146 233.495 259.949 233.176H259.722V242.404H257.04ZM259.676 227.131C259.676 228.449 259.869 229.612 260.256 230.62C260.642 231.62 261.206 232.404 261.949 232.972C262.691 233.533 263.6 233.813 264.676 233.813C265.797 233.813 266.733 233.517 267.483 232.926C268.241 232.328 268.809 231.525 269.187 230.517C269.574 229.502 269.767 228.373 269.767 227.131C269.767 225.904 269.578 224.798 269.199 223.813C268.828 222.82 268.263 222.036 267.506 221.461C266.756 220.877 265.812 220.586 264.676 220.586C263.585 220.586 262.669 220.862 261.926 221.415C261.184 221.961 260.623 222.726 260.244 223.711C259.866 224.688 259.676 225.828 259.676 227.131ZM281.676 236.267C280.57 236.267 279.566 236.059 278.665 235.642C277.763 235.218 277.047 234.608 276.517 233.813C275.987 233.01 275.722 232.04 275.722 230.904C275.722 229.904 275.919 229.093 276.312 228.472C276.706 227.843 277.233 227.351 277.892 226.995C278.551 226.639 279.278 226.373 280.074 226.199C280.877 226.017 281.684 225.873 282.494 225.767C283.555 225.631 284.415 225.529 285.074 225.461C285.741 225.385 286.225 225.26 286.528 225.086C286.839 224.911 286.994 224.608 286.994 224.176V224.086C286.994 222.964 286.687 222.093 286.074 221.472C285.468 220.851 284.547 220.54 283.312 220.54C282.032 220.54 281.028 220.82 280.301 221.381C279.574 221.942 279.062 222.54 278.767 223.176L276.222 222.267C276.676 221.207 277.282 220.381 278.04 219.79C278.805 219.192 279.638 218.775 280.54 218.54C281.449 218.298 282.343 218.176 283.222 218.176C283.782 218.176 284.426 218.245 285.153 218.381C285.888 218.51 286.597 218.779 287.278 219.188C287.968 219.597 288.54 220.214 288.994 221.04C289.449 221.866 289.676 222.972 289.676 224.358V235.858H286.994V233.495H286.858C286.676 233.873 286.373 234.279 285.949 234.711C285.525 235.142 284.96 235.51 284.256 235.813C283.551 236.116 282.691 236.267 281.676 236.267ZM282.085 233.858C283.146 233.858 284.04 233.65 284.767 233.233C285.502 232.817 286.055 232.279 286.426 231.62C286.805 230.961 286.994 230.267 286.994 229.54V227.086C286.881 227.222 286.631 227.347 286.244 227.461C285.866 227.567 285.426 227.661 284.926 227.745C284.434 227.82 283.953 227.889 283.483 227.949C283.021 228.002 282.646 228.048 282.358 228.086C281.661 228.176 281.009 228.324 280.403 228.529C279.805 228.726 279.32 229.025 278.949 229.426C278.585 229.82 278.403 230.358 278.403 231.04C278.403 231.972 278.748 232.676 279.437 233.154C280.134 233.623 281.017 233.858 282.085 233.858ZM301.662 236.222C300.026 236.222 298.616 235.836 297.435 235.063C296.253 234.29 295.344 233.226 294.707 231.87C294.071 230.514 293.753 228.964 293.753 227.222C293.753 225.449 294.079 223.885 294.73 222.529C295.389 221.165 296.306 220.101 297.48 219.336C298.662 218.563 300.041 218.176 301.616 218.176C302.844 218.176 303.95 218.404 304.935 218.858C305.919 219.313 306.726 219.949 307.355 220.767C307.984 221.586 308.374 222.54 308.526 223.631H305.844C305.639 222.836 305.185 222.131 304.48 221.517C303.783 220.896 302.844 220.586 301.662 220.586C300.616 220.586 299.7 220.858 298.912 221.404C298.132 221.942 297.522 222.703 297.082 223.688C296.651 224.665 296.435 225.813 296.435 227.131C296.435 228.479 296.647 229.654 297.071 230.654C297.503 231.654 298.109 232.43 298.889 232.983C299.677 233.536 300.601 233.813 301.662 233.813C302.359 233.813 302.991 233.692 303.56 233.449C304.128 233.207 304.609 232.858 305.003 232.404C305.397 231.949 305.677 231.404 305.844 230.767H308.526C308.374 231.798 307.999 232.726 307.401 233.551C306.81 234.37 306.026 235.021 305.048 235.506C304.079 235.983 302.95 236.222 301.662 236.222ZM314.946 229.495L314.901 226.176H315.446L323.082 218.404H326.401L318.264 226.631H318.037L314.946 229.495ZM312.446 235.858V212.586H315.128V235.858H312.446ZM323.537 235.858L316.719 227.222L318.628 225.358L326.946 235.858H323.537ZM334.989 236.267C333.883 236.267 332.879 236.059 331.977 235.642C331.076 235.218 330.36 234.608 329.83 233.813C329.299 233.01 329.034 232.04 329.034 230.904C329.034 229.904 329.231 229.093 329.625 228.472C330.019 227.843 330.545 227.351 331.205 226.995C331.864 226.639 332.591 226.373 333.386 226.199C334.189 226.017 334.996 225.873 335.807 225.767C336.867 225.631 337.727 225.529 338.386 225.461C339.053 225.385 339.538 225.26 339.841 225.086C340.151 224.911 340.307 224.608 340.307 224.176V224.086C340.307 222.964 340 222.093 339.386 221.472C338.78 220.851 337.86 220.54 336.625 220.54C335.345 220.54 334.341 220.82 333.614 221.381C332.886 221.942 332.375 222.54 332.08 223.176L329.534 222.267C329.989 221.207 330.595 220.381 331.352 219.79C332.117 219.192 332.951 218.775 333.852 218.54C334.761 218.298 335.655 218.176 336.534 218.176C337.095 218.176 337.739 218.245 338.466 218.381C339.201 218.51 339.909 218.779 340.591 219.188C341.28 219.597 341.852 220.214 342.307 221.04C342.761 221.866 342.989 222.972 342.989 224.358V235.858H340.307V233.495H340.17C339.989 233.873 339.686 234.279 339.261 234.711C338.837 235.142 338.273 235.51 337.568 235.813C336.864 236.116 336.004 236.267 334.989 236.267ZM335.398 233.858C336.458 233.858 337.352 233.65 338.08 233.233C338.814 232.817 339.367 232.279 339.739 231.62C340.117 230.961 340.307 230.267 340.307 229.54V227.086C340.193 227.222 339.943 227.347 339.557 227.461C339.178 227.567 338.739 227.661 338.239 227.745C337.746 227.82 337.265 227.889 336.795 227.949C336.333 228.002 335.958 228.048 335.67 228.086C334.973 228.176 334.322 228.324 333.716 228.529C333.117 228.726 332.633 229.025 332.261 229.426C331.898 229.82 331.716 230.358 331.716 231.04C331.716 231.972 332.061 232.676 332.75 233.154C333.447 233.623 334.33 233.858 335.398 233.858ZM354.929 242.767C353.634 242.767 352.52 242.601 351.588 242.267C350.656 241.942 349.88 241.51 349.259 240.972C348.645 240.442 348.156 239.873 347.793 239.267L349.929 237.767C350.171 238.086 350.478 238.449 350.849 238.858C351.221 239.275 351.728 239.635 352.372 239.938C353.024 240.248 353.876 240.404 354.929 240.404C356.338 240.404 357.501 240.063 358.418 239.381C359.334 238.699 359.793 237.631 359.793 236.176V232.631H359.565C359.368 232.949 359.088 233.343 358.724 233.813C358.368 234.275 357.853 234.688 357.179 235.051C356.512 235.408 355.611 235.586 354.474 235.586C353.065 235.586 351.8 235.252 350.679 234.586C349.565 233.919 348.683 232.949 348.031 231.676C347.387 230.404 347.065 228.858 347.065 227.04C347.065 225.252 347.38 223.695 348.009 222.37C348.637 221.036 349.512 220.006 350.634 219.279C351.755 218.544 353.05 218.176 354.52 218.176C355.656 218.176 356.558 218.366 357.224 218.745C357.899 219.116 358.414 219.54 358.77 220.017C359.134 220.487 359.414 220.873 359.611 221.176H359.884V218.404H362.474V236.358C362.474 237.858 362.134 239.078 361.452 240.017C360.777 240.964 359.868 241.658 358.724 242.097C357.588 242.544 356.323 242.767 354.929 242.767ZM354.838 233.176C355.914 233.176 356.823 232.93 357.565 232.438C358.308 231.945 358.872 231.237 359.259 230.313C359.645 229.389 359.838 228.283 359.838 226.995C359.838 225.737 359.649 224.627 359.27 223.665C358.891 222.703 358.33 221.949 357.588 221.404C356.846 220.858 355.929 220.586 354.838 220.586C353.702 220.586 352.755 220.873 351.997 221.449C351.247 222.025 350.683 222.798 350.304 223.767C349.933 224.737 349.747 225.813 349.747 226.995C349.747 228.207 349.937 229.279 350.315 230.211C350.702 231.135 351.27 231.862 352.02 232.392C352.777 232.915 353.717 233.176 354.838 233.176ZM374.702 236.222C373.02 236.222 371.569 235.851 370.349 235.108C369.137 234.358 368.202 233.313 367.543 231.972C366.891 230.623 366.565 229.055 366.565 227.267C366.565 225.479 366.891 223.904 367.543 222.54C368.202 221.169 369.118 220.101 370.293 219.336C371.474 218.563 372.853 218.176 374.429 218.176C375.338 218.176 376.236 218.328 377.122 218.631C378.009 218.934 378.815 219.426 379.543 220.108C380.27 220.783 380.849 221.676 381.281 222.79C381.713 223.904 381.929 225.275 381.929 226.904V228.04H368.474V225.722H379.202C379.202 224.737 379.005 223.858 378.611 223.086C378.224 222.313 377.671 221.703 376.952 221.256C376.24 220.809 375.399 220.586 374.429 220.586C373.361 220.586 372.437 220.851 371.656 221.381C370.884 221.904 370.289 222.586 369.872 223.426C369.455 224.267 369.247 225.169 369.247 226.131V227.676C369.247 228.995 369.474 230.112 369.929 231.029C370.391 231.938 371.031 232.631 371.849 233.108C372.668 233.578 373.618 233.813 374.702 233.813C375.406 233.813 376.043 233.714 376.611 233.517C377.187 233.313 377.683 233.01 378.099 232.608C378.516 232.199 378.838 231.692 379.065 231.086L381.656 231.813C381.384 232.692 380.925 233.464 380.281 234.131C379.637 234.79 378.842 235.305 377.895 235.676C376.948 236.04 375.884 236.222 374.702 236.222Z" fill="black"/>
<path d="M257.04 296.573V279.118H259.722V296.573H257.04ZM258.403 276.209C257.881 276.209 257.43 276.031 257.051 275.675C256.68 275.319 256.494 274.891 256.494 274.391C256.494 273.891 256.68 273.463 257.051 273.107C257.43 272.751 257.881 272.573 258.403 272.573C258.926 272.573 259.373 272.751 259.744 273.107C260.123 273.463 260.312 273.891 260.312 274.391C260.312 274.891 260.123 275.319 259.744 275.675C259.373 276.031 258.926 276.209 258.403 276.209ZM267.315 286.073V296.573H264.634V279.118H267.224V281.846H267.452C267.861 280.959 268.482 280.247 269.315 279.709C270.149 279.164 271.224 278.891 272.543 278.891C273.724 278.891 274.759 279.134 275.645 279.618C276.531 280.096 277.221 280.823 277.713 281.8C278.205 282.77 278.452 283.997 278.452 285.482V296.573H275.77V285.664C275.77 284.293 275.414 283.224 274.702 282.459C273.99 281.687 273.012 281.3 271.77 281.3C270.914 281.3 270.149 281.486 269.474 281.857C268.808 282.228 268.281 282.77 267.895 283.482C267.509 284.194 267.315 285.058 267.315 286.073ZM295.716 283.027L293.307 283.709C293.155 283.308 292.932 282.918 292.636 282.539C292.348 282.152 291.955 281.834 291.455 281.584C290.955 281.334 290.314 281.209 289.534 281.209C288.466 281.209 287.576 281.456 286.864 281.948C286.159 282.433 285.807 283.05 285.807 283.8C285.807 284.467 286.049 284.993 286.534 285.38C287.019 285.766 287.776 286.088 288.807 286.346L291.398 286.982C292.958 287.361 294.121 287.94 294.886 288.721C295.651 289.493 296.034 290.49 296.034 291.709C296.034 292.709 295.746 293.603 295.17 294.391C294.602 295.179 293.807 295.8 292.784 296.255C291.761 296.709 290.572 296.937 289.216 296.937C287.436 296.937 285.962 296.55 284.795 295.777C283.629 295.005 282.89 293.876 282.58 292.391L285.125 291.755C285.367 292.694 285.826 293.399 286.5 293.868C287.182 294.338 288.072 294.573 289.17 294.573C290.42 294.573 291.413 294.308 292.148 293.777C292.89 293.24 293.261 292.596 293.261 291.846C293.261 291.24 293.049 290.732 292.625 290.323C292.201 289.906 291.549 289.596 290.67 289.391L287.761 288.709C286.163 288.331 284.989 287.743 284.239 286.948C283.496 286.145 283.125 285.141 283.125 283.937C283.125 282.952 283.401 282.081 283.955 281.323C284.515 280.565 285.276 279.971 286.239 279.539C287.208 279.107 288.307 278.891 289.534 278.891C291.261 278.891 292.617 279.27 293.602 280.027C294.595 280.785 295.299 281.785 295.716 283.027ZM307.662 279.118V281.391H298.616V279.118H307.662ZM301.253 274.937H303.935V291.573C303.935 292.331 304.044 292.899 304.264 293.277C304.491 293.649 304.779 293.899 305.128 294.027C305.484 294.149 305.859 294.209 306.253 294.209C306.548 294.209 306.791 294.194 306.98 294.164C307.169 294.126 307.321 294.096 307.435 294.073L307.98 296.482C307.798 296.55 307.544 296.618 307.219 296.687C306.893 296.762 306.48 296.8 305.98 296.8C305.223 296.8 304.48 296.637 303.753 296.312C303.033 295.986 302.435 295.49 301.957 294.823C301.488 294.156 301.253 293.315 301.253 292.3V274.937ZM316.832 296.982C315.726 296.982 314.723 296.774 313.821 296.357C312.919 295.933 312.204 295.323 311.673 294.527C311.143 293.724 310.878 292.755 310.878 291.618C310.878 290.618 311.075 289.808 311.469 289.187C311.863 288.558 312.389 288.065 313.048 287.709C313.707 287.353 314.435 287.088 315.23 286.914C316.033 286.732 316.84 286.588 317.651 286.482C318.711 286.346 319.571 286.243 320.23 286.175C320.897 286.099 321.382 285.974 321.685 285.8C321.995 285.626 322.151 285.323 322.151 284.891V284.8C322.151 283.679 321.844 282.808 321.23 282.187C320.624 281.565 319.704 281.255 318.469 281.255C317.188 281.255 316.185 281.535 315.457 282.096C314.73 282.656 314.219 283.255 313.923 283.891L311.378 282.982C311.832 281.921 312.438 281.096 313.196 280.505C313.961 279.906 314.794 279.49 315.696 279.255C316.605 279.012 317.499 278.891 318.378 278.891C318.938 278.891 319.582 278.959 320.31 279.096C321.044 279.224 321.753 279.493 322.435 279.902C323.124 280.312 323.696 280.929 324.151 281.755C324.605 282.581 324.832 283.687 324.832 285.073V296.573H322.151V294.209H322.014C321.832 294.588 321.529 294.993 321.105 295.425C320.681 295.857 320.116 296.224 319.412 296.527C318.707 296.831 317.848 296.982 316.832 296.982ZM317.241 294.573C318.302 294.573 319.196 294.365 319.923 293.948C320.658 293.531 321.211 292.993 321.582 292.334C321.961 291.675 322.151 290.982 322.151 290.255V287.8C322.037 287.937 321.787 288.062 321.401 288.175C321.022 288.281 320.582 288.376 320.082 288.459C319.59 288.535 319.109 288.603 318.639 288.664C318.177 288.717 317.802 288.762 317.514 288.8C316.817 288.891 316.166 289.039 315.56 289.243C314.961 289.44 314.476 289.74 314.105 290.141C313.741 290.535 313.56 291.073 313.56 291.755C313.56 292.687 313.904 293.391 314.594 293.868C315.291 294.338 316.173 294.573 317.241 294.573ZM332.409 273.3V296.573H329.727V273.3H332.409ZM340.003 273.3V296.573H337.321V273.3H340.003ZM350.051 296.982C348.945 296.982 347.941 296.774 347.04 296.357C346.138 295.933 345.422 295.323 344.892 294.527C344.362 293.724 344.097 292.755 344.097 291.618C344.097 290.618 344.294 289.808 344.687 289.187C345.081 288.558 345.608 288.065 346.267 287.709C346.926 287.353 347.653 287.088 348.449 286.914C349.252 286.732 350.059 286.588 350.869 286.482C351.93 286.346 352.79 286.243 353.449 286.175C354.116 286.099 354.6 285.974 354.903 285.8C355.214 285.626 355.369 285.323 355.369 284.891V284.8C355.369 283.679 355.062 282.808 354.449 282.187C353.843 281.565 352.922 281.255 351.687 281.255C350.407 281.255 349.403 281.535 348.676 282.096C347.949 282.656 347.437 283.255 347.142 283.891L344.597 282.982C345.051 281.921 345.657 281.096 346.415 280.505C347.18 279.906 348.013 279.49 348.915 279.255C349.824 279.012 350.718 278.891 351.597 278.891C352.157 278.891 352.801 278.959 353.528 279.096C354.263 279.224 354.972 279.493 355.653 279.902C356.343 280.312 356.915 280.929 357.369 281.755C357.824 282.581 358.051 283.687 358.051 285.073V296.573H355.369V294.209H355.233C355.051 294.588 354.748 294.993 354.324 295.425C353.9 295.857 353.335 296.224 352.631 296.527C351.926 296.831 351.066 296.982 350.051 296.982ZM350.46 294.573C351.521 294.573 352.415 294.365 353.142 293.948C353.877 293.531 354.43 292.993 354.801 292.334C355.18 291.675 355.369 290.982 355.369 290.255V287.8C355.256 287.937 355.006 288.062 354.619 288.175C354.241 288.281 353.801 288.376 353.301 288.459C352.809 288.535 352.328 288.603 351.858 288.664C351.396 288.717 351.021 288.762 350.733 288.8C350.036 288.891 349.384 289.039 348.778 289.243C348.18 289.44 347.695 289.74 347.324 290.141C346.96 290.535 346.778 291.073 346.778 291.755C346.778 292.687 347.123 293.391 347.812 293.868C348.509 294.338 349.392 294.573 350.46 294.573ZM370.537 279.118V281.391H361.491V279.118H370.537ZM364.128 274.937H366.81V291.573C366.81 292.331 366.919 292.899 367.139 293.277C367.366 293.649 367.654 293.899 368.003 294.027C368.359 294.149 368.734 294.209 369.128 294.209C369.423 294.209 369.666 294.194 369.855 294.164C370.044 294.126 370.196 294.096 370.31 294.073L370.855 296.482C370.673 296.55 370.419 296.618 370.094 296.687C369.768 296.762 369.355 296.8 368.855 296.8C368.098 296.8 367.355 296.637 366.628 296.312C365.908 295.986 365.31 295.49 364.832 294.823C364.363 294.156 364.128 293.315 364.128 292.3V274.937ZM374.571 296.573V279.118H377.253V296.573H374.571ZM375.935 276.209C375.412 276.209 374.961 276.031 374.582 275.675C374.211 275.319 374.026 274.891 374.026 274.391C374.026 273.891 374.211 273.463 374.582 273.107C374.961 272.751 375.412 272.573 375.935 272.573C376.457 272.573 376.904 272.751 377.276 273.107C377.654 273.463 377.844 273.891 377.844 274.391C377.844 274.891 377.654 275.319 377.276 275.675C376.904 276.031 376.457 276.209 375.935 276.209ZM389.256 296.937C387.68 296.937 386.297 296.562 385.108 295.812C383.926 295.062 383.002 294.012 382.335 292.664C381.676 291.315 381.347 289.74 381.347 287.937C381.347 286.118 381.676 284.531 382.335 283.175C383.002 281.819 383.926 280.766 385.108 280.016C386.297 279.266 387.68 278.891 389.256 278.891C390.831 278.891 392.21 279.266 393.392 280.016C394.581 280.766 395.506 281.819 396.165 283.175C396.831 284.531 397.165 286.118 397.165 287.937C397.165 289.74 396.831 291.315 396.165 292.664C395.506 294.012 394.581 295.062 393.392 295.812C392.21 296.562 390.831 296.937 389.256 296.937ZM389.256 294.527C390.453 294.527 391.437 294.221 392.21 293.607C392.983 292.993 393.555 292.187 393.926 291.187C394.297 290.187 394.483 289.103 394.483 287.937C394.483 286.77 394.297 285.683 393.926 284.675C393.555 283.668 392.983 282.853 392.21 282.232C391.437 281.611 390.453 281.3 389.256 281.3C388.059 281.3 387.074 281.611 386.301 282.232C385.528 282.853 384.956 283.668 384.585 284.675C384.214 285.683 384.028 286.77 384.028 287.937C384.028 289.103 384.214 290.187 384.585 291.187C384.956 292.187 385.528 292.993 386.301 293.607C387.074 294.221 388.059 294.527 389.256 294.527ZM403.94 286.073V296.573H401.259V279.118H403.849V281.846H404.077C404.486 280.959 405.107 280.247 405.94 279.709C406.774 279.164 407.849 278.891 409.168 278.891C410.349 278.891 411.384 279.134 412.27 279.618C413.156 280.096 413.846 280.823 414.338 281.8C414.83 282.77 415.077 283.997 415.077 285.482V296.573H412.395V285.664C412.395 284.293 412.039 283.224 411.327 282.459C410.615 281.687 409.637 281.3 408.395 281.3C407.539 281.3 406.774 281.486 406.099 281.857C405.433 282.228 404.906 282.77 404.52 283.482C404.134 284.194 403.94 285.058 403.94 286.073Z" fill="black"/>
<path d="M667.608 231.987V208.714H675.744C677.365 208.714 678.702 208.995 679.755 209.555C680.808 210.108 681.593 210.855 682.108 211.794C682.623 212.726 682.88 213.76 682.88 214.896C682.88 215.896 682.702 216.722 682.346 217.374C681.998 218.025 681.536 218.54 680.96 218.919C680.392 219.298 679.774 219.578 679.108 219.76V219.987C679.82 220.033 680.536 220.283 681.255 220.737C681.975 221.192 682.577 221.843 683.062 222.692C683.547 223.54 683.79 224.578 683.79 225.805C683.79 226.972 683.524 228.021 682.994 228.953C682.464 229.885 681.627 230.624 680.483 231.169C679.339 231.714 677.85 231.987 676.017 231.987H667.608ZM670.426 229.487H676.017C677.858 229.487 679.165 229.131 679.937 228.419C680.718 227.699 681.108 226.828 681.108 225.805C681.108 225.017 680.907 224.29 680.505 223.624C680.104 222.949 679.532 222.411 678.79 222.01C678.047 221.601 677.168 221.396 676.153 221.396H670.426V229.487ZM670.426 218.942H675.653C676.502 218.942 677.267 218.775 677.949 218.442C678.638 218.108 679.183 217.639 679.585 217.033C679.994 216.427 680.199 215.714 680.199 214.896C680.199 213.874 679.843 213.006 679.13 212.294C678.418 211.574 677.29 211.214 675.744 211.214H670.426V218.942ZM695.375 232.351C693.693 232.351 692.242 231.98 691.023 231.237C689.81 230.487 688.875 229.442 688.216 228.101C687.564 226.752 687.238 225.184 687.238 223.396C687.238 221.608 687.564 220.033 688.216 218.669C688.875 217.298 689.791 216.23 690.966 215.464C692.148 214.692 693.526 214.305 695.102 214.305C696.011 214.305 696.909 214.457 697.795 214.76C698.682 215.063 699.488 215.555 700.216 216.237C700.943 216.911 701.523 217.805 701.954 218.919C702.386 220.033 702.602 221.404 702.602 223.033V224.169H689.148V221.851H699.875C699.875 220.866 699.678 219.987 699.284 219.214C698.898 218.442 698.344 217.832 697.625 217.385C696.913 216.938 696.072 216.714 695.102 216.714C694.034 216.714 693.11 216.98 692.329 217.51C691.557 218.033 690.962 218.714 690.545 219.555C690.129 220.396 689.92 221.298 689.92 222.26V223.805C689.92 225.124 690.148 226.241 690.602 227.158C691.064 228.067 691.704 228.76 692.523 229.237C693.341 229.707 694.291 229.942 695.375 229.942C696.079 229.942 696.716 229.843 697.284 229.646C697.86 229.442 698.356 229.139 698.773 228.737C699.189 228.328 699.511 227.821 699.738 227.214L702.329 227.942C702.057 228.821 701.598 229.593 700.954 230.26C700.31 230.919 699.515 231.434 698.568 231.805C697.621 232.169 696.557 232.351 695.375 232.351ZM713.773 232.351C712.136 232.351 710.727 231.964 709.545 231.192C708.363 230.419 707.454 229.355 706.818 227.999C706.182 226.642 705.863 225.093 705.863 223.351C705.863 221.578 706.189 220.014 706.841 218.658C707.5 217.294 708.416 216.23 709.591 215.464C710.773 214.692 712.151 214.305 713.727 214.305C714.954 214.305 716.06 214.533 717.045 214.987C718.03 215.442 718.837 216.078 719.466 216.896C720.094 217.714 720.485 218.669 720.636 219.76H717.954C717.75 218.964 717.295 218.26 716.591 217.646C715.894 217.025 714.954 216.714 713.773 216.714C712.727 216.714 711.81 216.987 711.023 217.533C710.242 218.071 709.632 218.832 709.193 219.817C708.761 220.794 708.545 221.942 708.545 223.26C708.545 224.608 708.757 225.783 709.182 226.783C709.613 227.783 710.219 228.559 711 229.112C711.788 229.665 712.712 229.942 713.773 229.942C714.469 229.942 715.102 229.821 715.67 229.578C716.238 229.336 716.719 228.987 717.113 228.533C717.507 228.078 717.788 227.533 717.954 226.896H720.636C720.485 227.927 720.11 228.855 719.511 229.68C718.92 230.499 718.136 231.15 717.159 231.635C716.189 232.112 715.06 232.351 713.773 232.351ZM729.693 232.396C728.587 232.396 727.583 232.188 726.682 231.771C725.78 231.347 725.064 230.737 724.534 229.942C724.004 229.139 723.738 228.169 723.738 227.033C723.738 226.033 723.935 225.222 724.329 224.601C724.723 223.972 725.25 223.48 725.909 223.124C726.568 222.767 727.295 222.502 728.091 222.328C728.894 222.146 729.701 222.002 730.511 221.896C731.572 221.76 732.432 221.658 733.091 221.589C733.757 221.514 734.242 221.389 734.545 221.214C734.856 221.04 735.011 220.737 735.011 220.305V220.214C735.011 219.093 734.704 218.222 734.091 217.601C733.485 216.98 732.564 216.669 731.329 216.669C730.049 216.669 729.045 216.949 728.318 217.51C727.591 218.071 727.079 218.669 726.784 219.305L724.238 218.396C724.693 217.336 725.299 216.51 726.057 215.919C726.822 215.321 727.655 214.904 728.557 214.669C729.466 214.427 730.36 214.305 731.238 214.305C731.799 214.305 732.443 214.374 733.17 214.51C733.905 214.639 734.613 214.908 735.295 215.317C735.985 215.726 736.557 216.343 737.011 217.169C737.466 217.995 737.693 219.101 737.693 220.487V231.987H735.011V229.624H734.875C734.693 230.002 734.39 230.408 733.966 230.839C733.541 231.271 732.977 231.639 732.273 231.942C731.568 232.245 730.708 232.396 729.693 232.396ZM730.102 229.987C731.163 229.987 732.057 229.779 732.784 229.362C733.519 228.946 734.072 228.408 734.443 227.749C734.822 227.089 735.011 226.396 735.011 225.669V223.214C734.898 223.351 734.648 223.476 734.261 223.589C733.882 223.696 733.443 223.79 732.943 223.874C732.451 223.949 731.969 224.017 731.5 224.078C731.038 224.131 730.663 224.177 730.375 224.214C729.678 224.305 729.026 224.453 728.42 224.658C727.822 224.855 727.337 225.154 726.966 225.555C726.602 225.949 726.42 226.487 726.42 227.169C726.42 228.101 726.765 228.805 727.454 229.283C728.151 229.752 729.034 229.987 730.102 229.987ZM742.588 231.987V214.533H745.179V217.26H745.406C745.77 216.328 746.357 215.605 747.167 215.089C747.978 214.567 748.951 214.305 750.088 214.305C751.239 214.305 752.198 214.567 752.963 215.089C753.736 215.605 754.338 216.328 754.77 217.26H754.951C755.398 216.358 756.069 215.642 756.963 215.112C757.857 214.574 758.929 214.305 760.179 214.305C761.739 214.305 763.016 214.794 764.008 215.771C765.001 216.741 765.497 218.252 765.497 220.305V231.987H762.815V220.305C762.815 219.017 762.463 218.097 761.758 217.544C761.054 216.991 760.224 216.714 759.27 216.714C758.042 216.714 757.092 217.086 756.417 217.828C755.743 218.563 755.406 219.495 755.406 220.624V231.987H752.679V220.033C752.679 219.04 752.357 218.241 751.713 217.635C751.069 217.021 750.239 216.714 749.224 216.714C748.527 216.714 747.876 216.9 747.27 217.271C746.671 217.642 746.186 218.158 745.815 218.817C745.451 219.468 745.27 220.222 745.27 221.078V231.987H742.588ZM777.719 232.351C776.037 232.351 774.586 231.98 773.366 231.237C772.154 230.487 771.219 229.442 770.559 228.101C769.908 226.752 769.582 225.184 769.582 223.396C769.582 221.608 769.908 220.033 770.559 218.669C771.219 217.298 772.135 216.23 773.309 215.464C774.491 214.692 775.87 214.305 777.446 214.305C778.355 214.305 779.253 214.457 780.139 214.76C781.025 215.063 781.832 215.555 782.559 216.237C783.287 216.911 783.866 217.805 784.298 218.919C784.73 220.033 784.946 221.404 784.946 223.033V224.169H771.491V221.851H782.219C782.219 220.866 782.022 219.987 781.628 219.214C781.241 218.442 780.688 217.832 779.969 217.385C779.256 216.938 778.415 216.714 777.446 216.714C776.378 216.714 775.453 216.98 774.673 217.51C773.9 218.033 773.306 218.714 772.889 219.555C772.472 220.396 772.264 221.298 772.264 222.26V223.805C772.264 225.124 772.491 226.241 772.946 227.158C773.408 228.067 774.048 228.76 774.866 229.237C775.684 229.707 776.635 229.942 777.719 229.942C778.423 229.942 779.059 229.843 779.628 229.646C780.203 229.442 780.7 229.139 781.116 228.737C781.533 228.328 781.855 227.821 782.082 227.214L784.673 227.942C784.4 228.821 783.942 229.593 783.298 230.26C782.654 230.919 781.859 231.434 780.912 231.805C779.965 232.169 778.9 232.351 777.719 232.351ZM803.162 232.396C802.056 232.396 801.052 232.188 800.15 231.771C799.249 231.347 798.533 230.737 798.003 229.942C797.472 229.139 797.207 228.169 797.207 227.033C797.207 226.033 797.404 225.222 797.798 224.601C798.192 223.972 798.719 223.48 799.378 223.124C800.037 222.767 800.764 222.502 801.559 222.328C802.362 222.146 803.169 222.002 803.98 221.896C805.04 221.76 805.9 221.658 806.559 221.589C807.226 221.514 807.711 221.389 808.014 221.214C808.325 221.04 808.48 220.737 808.48 220.305V220.214C808.48 219.093 808.173 218.222 807.559 217.601C806.953 216.98 806.033 216.669 804.798 216.669C803.518 216.669 802.514 216.949 801.787 217.51C801.059 218.071 800.548 218.669 800.253 219.305L797.707 218.396C798.162 217.336 798.768 216.51 799.525 215.919C800.29 215.321 801.124 214.904 802.025 214.669C802.934 214.427 803.828 214.305 804.707 214.305C805.268 214.305 805.912 214.374 806.639 214.51C807.374 214.639 808.082 214.908 808.764 215.317C809.453 215.726 810.025 216.343 810.48 217.169C810.934 217.995 811.162 219.101 811.162 220.487V231.987H808.48V229.624H808.344C808.162 230.002 807.859 230.408 807.434 230.839C807.01 231.271 806.446 231.639 805.741 231.942C805.037 232.245 804.177 232.396 803.162 232.396ZM803.571 229.987C804.631 229.987 805.525 229.779 806.253 229.362C806.987 228.946 807.54 228.408 807.912 227.749C808.29 227.089 808.48 226.396 808.48 225.669V223.214C808.366 223.351 808.116 223.476 807.73 223.589C807.351 223.696 806.912 223.79 806.412 223.874C805.919 223.949 805.438 224.017 804.969 224.078C804.506 224.131 804.131 224.177 803.844 224.214C803.147 224.305 802.495 224.453 801.889 224.658C801.29 224.855 800.806 225.154 800.434 225.555C800.071 225.949 799.889 226.487 799.889 227.169C799.889 228.101 800.234 228.805 800.923 229.283C801.62 229.752 802.503 229.987 803.571 229.987Z" fill="black"/>
<path d="M667.244 299.247V275.247H669.835V278.02H670.153C670.35 277.717 670.623 277.331 670.971 276.861C671.327 276.384 671.835 275.959 672.494 275.588C673.161 275.209 674.062 275.02 675.199 275.02C676.668 275.02 677.964 275.387 679.085 276.122C680.206 276.857 681.081 277.899 681.71 279.247C682.339 280.596 682.653 282.187 682.653 284.02C682.653 285.869 682.339 287.471 681.71 288.827C681.081 290.175 680.21 291.221 679.096 291.963C677.983 292.698 676.699 293.065 675.244 293.065C674.123 293.065 673.225 292.88 672.551 292.509C671.877 292.13 671.358 291.702 670.994 291.225C670.63 290.74 670.35 290.338 670.153 290.02H669.926V299.247H667.244ZM669.88 283.975C669.88 285.293 670.074 286.456 670.46 287.463C670.846 288.463 671.411 289.247 672.153 289.815C672.896 290.376 673.805 290.656 674.88 290.656C676.002 290.656 676.937 290.361 677.687 289.77C678.445 289.172 679.013 288.369 679.392 287.361C679.778 286.346 679.971 285.217 679.971 283.975C679.971 282.747 679.782 281.641 679.403 280.656C679.032 279.664 678.468 278.88 677.71 278.304C676.96 277.721 676.017 277.429 674.88 277.429C673.79 277.429 672.873 277.706 672.13 278.259C671.388 278.804 670.827 279.569 670.449 280.554C670.07 281.531 669.88 282.672 669.88 283.975ZM686.744 292.702V275.247H689.335V277.884H689.517C689.835 277.02 690.411 276.319 691.244 275.781C692.077 275.244 693.017 274.975 694.062 274.975C694.259 274.975 694.505 274.978 694.801 274.986C695.096 274.994 695.32 275.005 695.471 275.02V277.747C695.38 277.725 695.172 277.69 694.846 277.645C694.528 277.592 694.191 277.565 693.835 277.565C692.987 277.565 692.229 277.744 691.562 278.1C690.903 278.448 690.38 278.933 689.994 279.554C689.615 280.168 689.426 280.869 689.426 281.656V292.702H686.744ZM705.21 293.065C703.634 293.065 702.252 292.69 701.062 291.94C699.88 291.19 698.956 290.141 698.29 288.793C697.63 287.444 697.301 285.869 697.301 284.065C697.301 282.247 697.63 280.66 698.29 279.304C698.956 277.948 699.88 276.895 701.062 276.145C702.252 275.395 703.634 275.02 705.21 275.02C706.786 275.02 708.165 275.395 709.346 276.145C710.536 276.895 711.46 277.948 712.119 279.304C712.786 280.66 713.119 282.247 713.119 284.065C713.119 285.869 712.786 287.444 712.119 288.793C711.46 290.141 710.536 291.19 709.346 291.94C708.165 292.69 706.786 293.065 705.21 293.065ZM705.21 290.656C706.407 290.656 707.392 290.35 708.165 289.736C708.937 289.122 709.509 288.315 709.88 287.315C710.252 286.315 710.437 285.232 710.437 284.065C710.437 282.899 710.252 281.812 709.88 280.804C709.509 279.797 708.937 278.982 708.165 278.361C707.392 277.74 706.407 277.429 705.21 277.429C704.013 277.429 703.028 277.74 702.255 278.361C701.483 278.982 700.911 279.797 700.54 280.804C700.168 281.812 699.983 282.899 699.983 284.065C699.983 285.232 700.168 286.315 700.54 287.315C700.911 288.315 701.483 289.122 702.255 289.736C703.028 290.35 704.013 290.656 705.21 290.656ZM730.861 275.247L724.406 292.702H721.679L715.224 275.247H718.133L722.951 289.156H723.133L727.951 275.247H730.861ZM734.4 292.702V275.247H737.082V292.702H734.4ZM735.764 272.338C735.241 272.338 734.79 272.16 734.412 271.804C734.04 271.448 733.855 271.02 733.855 270.52C733.855 270.02 734.04 269.592 734.412 269.236C734.79 268.88 735.241 268.702 735.764 268.702C736.287 268.702 736.734 268.88 737.105 269.236C737.484 269.592 737.673 270.02 737.673 270.52C737.673 271.02 737.484 271.448 737.105 271.804C736.734 272.16 736.287 272.338 735.764 272.338ZM748.585 293.065C747.13 293.065 745.846 292.698 744.733 291.963C743.619 291.221 742.748 290.175 742.119 288.827C741.49 287.471 741.176 285.869 741.176 284.02C741.176 282.187 741.49 280.596 742.119 279.247C742.748 277.899 743.623 276.857 744.744 276.122C745.865 275.387 747.161 275.02 748.63 275.02C749.767 275.02 750.665 275.209 751.324 275.588C751.99 275.959 752.498 276.384 752.846 276.861C753.202 277.331 753.479 277.717 753.676 278.02H753.903V269.429H756.585V292.702H753.994V290.02H753.676C753.479 290.338 753.199 290.74 752.835 291.225C752.471 291.702 751.952 292.13 751.278 292.509C750.604 292.88 749.706 293.065 748.585 293.065ZM748.949 290.656C750.024 290.656 750.933 290.376 751.676 289.815C752.418 289.247 752.983 288.463 753.369 287.463C753.755 286.456 753.949 285.293 753.949 283.975C753.949 282.672 753.759 281.531 753.38 280.554C753.002 279.569 752.441 278.804 751.699 278.259C750.956 277.706 750.04 277.429 748.949 277.429C747.812 277.429 746.865 277.721 746.108 278.304C745.358 278.88 744.793 279.664 744.415 280.656C744.043 281.641 743.858 282.747 743.858 283.975C743.858 285.217 744.047 286.346 744.426 287.361C744.812 288.369 745.38 289.172 746.13 289.77C746.888 290.361 747.827 290.656 748.949 290.656ZM769.187 293.065C767.505 293.065 766.055 292.694 764.835 291.952C763.623 291.202 762.687 290.156 762.028 288.815C761.377 287.467 761.051 285.899 761.051 284.111C761.051 282.323 761.377 280.747 762.028 279.384C762.687 278.012 763.604 276.944 764.778 276.179C765.96 275.406 767.339 275.02 768.915 275.02C769.824 275.02 770.721 275.172 771.608 275.475C772.494 275.778 773.301 276.27 774.028 276.952C774.755 277.626 775.335 278.52 775.767 279.634C776.199 280.747 776.415 282.119 776.415 283.747V284.884H762.96V282.565H773.687C773.687 281.581 773.49 280.702 773.096 279.929C772.71 279.156 772.157 278.547 771.437 278.1C770.725 277.653 769.884 277.429 768.915 277.429C767.846 277.429 766.922 277.694 766.142 278.225C765.369 278.747 764.774 279.429 764.358 280.27C763.941 281.111 763.733 282.012 763.733 282.975V284.52C763.733 285.838 763.96 286.956 764.415 287.872C764.877 288.781 765.517 289.475 766.335 289.952C767.153 290.422 768.104 290.656 769.187 290.656C769.892 290.656 770.528 290.558 771.096 290.361C771.672 290.156 772.168 289.853 772.585 289.452C773.002 289.043 773.324 288.535 773.551 287.929L776.142 288.656C775.869 289.535 775.411 290.308 774.767 290.975C774.123 291.634 773.327 292.149 772.38 292.52C771.433 292.884 770.369 293.065 769.187 293.065ZM780.494 292.702V275.247H783.085V277.884H783.267C783.585 277.02 784.161 276.319 784.994 275.781C785.827 275.244 786.767 274.975 787.812 274.975C788.009 274.975 788.255 274.978 788.551 274.986C788.846 274.994 789.07 275.005 789.221 275.02V277.747C789.13 277.725 788.922 277.69 788.596 277.645C788.278 277.592 787.941 277.565 787.585 277.565C786.737 277.565 785.979 277.744 785.312 278.1C784.653 278.448 784.13 278.933 783.744 279.554C783.365 280.168 783.176 280.869 783.176 281.656V292.702H780.494Z" fill="black"/>
<path d="M236.54 480.729H229.358V457.457H236.858C239.116 457.457 241.047 457.922 242.653 458.854C244.259 459.778 245.491 461.108 246.347 462.843C247.203 464.57 247.631 466.638 247.631 469.047C247.631 471.472 247.199 473.559 246.335 475.309C245.472 477.051 244.214 478.392 242.563 479.332C240.911 480.263 238.903 480.729 236.54 480.729ZM232.176 478.229H236.358C238.282 478.229 239.877 477.858 241.142 477.116C242.407 476.373 243.35 475.316 243.972 473.945C244.593 472.574 244.903 470.941 244.903 469.047C244.903 467.169 244.597 465.551 243.983 464.195C243.369 462.832 242.453 461.786 241.233 461.059C240.013 460.324 238.494 459.957 236.676 459.957H232.176V478.229ZM257.131 481.138C256.025 481.138 255.021 480.93 254.119 480.513C253.218 480.089 252.502 479.479 251.972 478.684C251.441 477.881 251.176 476.911 251.176 475.775C251.176 474.775 251.373 473.964 251.767 473.343C252.161 472.714 252.688 472.222 253.347 471.866C254.006 471.51 254.733 471.244 255.528 471.07C256.331 470.888 257.138 470.744 257.949 470.638C259.009 470.502 259.869 470.4 260.528 470.332C261.195 470.256 261.68 470.131 261.983 469.957C262.294 469.782 262.449 469.479 262.449 469.047V468.957C262.449 467.835 262.142 466.964 261.528 466.343C260.922 465.722 260.002 465.411 258.767 465.411C257.487 465.411 256.483 465.691 255.756 466.252C255.028 466.813 254.517 467.411 254.222 468.047L251.676 467.138C252.131 466.078 252.737 465.252 253.494 464.661C254.259 464.063 255.093 463.646 255.994 463.411C256.903 463.169 257.797 463.047 258.676 463.047C259.237 463.047 259.881 463.116 260.608 463.252C261.343 463.381 262.051 463.65 262.733 464.059C263.422 464.468 263.994 465.085 264.449 465.911C264.903 466.737 265.131 467.843 265.131 469.229V480.729H262.449V478.366H262.313C262.131 478.744 261.828 479.15 261.403 479.582C260.979 480.013 260.415 480.381 259.71 480.684C259.006 480.987 258.146 481.138 257.131 481.138ZM257.54 478.729C258.6 478.729 259.494 478.521 260.222 478.104C260.956 477.688 261.509 477.15 261.881 476.491C262.259 475.832 262.449 475.138 262.449 474.411V471.957C262.335 472.093 262.085 472.218 261.699 472.332C261.32 472.438 260.881 472.532 260.381 472.616C259.888 472.691 259.407 472.76 258.938 472.82C258.475 472.873 258.1 472.919 257.813 472.957C257.116 473.047 256.464 473.195 255.858 473.4C255.259 473.597 254.775 473.896 254.403 474.297C254.04 474.691 253.858 475.229 253.858 475.911C253.858 476.843 254.203 477.547 254.892 478.025C255.589 478.494 256.472 478.729 257.54 478.729ZM277.616 463.275V465.547H268.571V463.275H277.616ZM271.207 459.093H273.889V475.729C273.889 476.487 273.999 477.055 274.219 477.434C274.446 477.805 274.734 478.055 275.082 478.184C275.438 478.305 275.813 478.366 276.207 478.366C276.503 478.366 276.745 478.35 276.935 478.32C277.124 478.282 277.276 478.252 277.389 478.229L277.935 480.638C277.753 480.707 277.499 480.775 277.173 480.843C276.848 480.919 276.435 480.957 275.935 480.957C275.177 480.957 274.435 480.794 273.707 480.468C272.988 480.142 272.389 479.646 271.912 478.979C271.442 478.313 271.207 477.472 271.207 476.457V459.093ZM286.787 481.138C285.681 481.138 284.677 480.93 283.776 480.513C282.874 480.089 282.158 479.479 281.628 478.684C281.098 477.881 280.832 476.911 280.832 475.775C280.832 474.775 281.029 473.964 281.423 473.343C281.817 472.714 282.344 472.222 283.003 471.866C283.662 471.51 284.389 471.244 285.185 471.07C285.988 470.888 286.795 470.744 287.605 470.638C288.666 470.502 289.526 470.4 290.185 470.332C290.851 470.256 291.336 470.131 291.639 469.957C291.95 469.782 292.105 469.479 292.105 469.047V468.957C292.105 467.835 291.798 466.964 291.185 466.343C290.579 465.722 289.658 465.411 288.423 465.411C287.143 465.411 286.139 465.691 285.412 466.252C284.685 466.813 284.173 467.411 283.878 468.047L281.332 467.138C281.787 466.078 282.393 465.252 283.151 464.661C283.916 464.063 284.749 463.646 285.651 463.411C286.56 463.169 287.454 463.047 288.332 463.047C288.893 463.047 289.537 463.116 290.264 463.252C290.999 463.381 291.707 463.65 292.389 464.059C293.079 464.468 293.651 465.085 294.105 465.911C294.56 466.737 294.787 467.843 294.787 469.229V480.729H292.105V478.366H291.969C291.787 478.744 291.484 479.15 291.06 479.582C290.635 480.013 290.071 480.381 289.366 480.684C288.662 480.987 287.802 481.138 286.787 481.138ZM287.196 478.729C288.257 478.729 289.151 478.521 289.878 478.104C290.613 477.688 291.166 477.15 291.537 476.491C291.916 475.832 292.105 475.138 292.105 474.411V471.957C291.991 472.093 291.741 472.218 291.355 472.332C290.976 472.438 290.537 472.532 290.037 472.616C289.545 472.691 289.063 472.76 288.594 472.82C288.132 472.873 287.757 472.919 287.469 472.957C286.772 473.047 286.12 473.195 285.514 473.4C284.916 473.597 284.431 473.896 284.06 474.297C283.696 474.691 283.514 475.229 283.514 475.911C283.514 476.843 283.859 477.547 284.548 478.025C285.245 478.494 286.128 478.729 287.196 478.729ZM315.773 481.093C314.136 481.093 312.727 480.707 311.545 479.934C310.364 479.161 309.455 478.097 308.818 476.741C308.182 475.385 307.864 473.835 307.864 472.093C307.864 470.32 308.189 468.756 308.841 467.4C309.5 466.036 310.417 464.972 311.591 464.207C312.773 463.434 314.152 463.047 315.727 463.047C316.955 463.047 318.061 463.275 319.045 463.729C320.03 464.184 320.837 464.82 321.466 465.638C322.095 466.457 322.485 467.411 322.636 468.502H319.955C319.75 467.707 319.295 467.002 318.591 466.388C317.894 465.767 316.955 465.457 315.773 465.457C314.727 465.457 313.811 465.729 313.023 466.275C312.242 466.813 311.633 467.574 311.193 468.559C310.761 469.536 310.545 470.684 310.545 472.002C310.545 473.35 310.758 474.525 311.182 475.525C311.614 476.525 312.22 477.301 313 477.854C313.788 478.407 314.712 478.684 315.773 478.684C316.47 478.684 317.102 478.563 317.67 478.32C318.239 478.078 318.72 477.729 319.114 477.275C319.508 476.82 319.788 476.275 319.955 475.638H322.636C322.485 476.669 322.11 477.597 321.511 478.422C320.92 479.241 320.136 479.892 319.159 480.377C318.189 480.854 317.061 481.093 315.773 481.093ZM329.239 470.229V480.729H326.557V457.457H329.239V466.002H329.466C329.875 465.1 330.489 464.385 331.307 463.854C332.133 463.316 333.231 463.047 334.602 463.047C335.792 463.047 336.833 463.286 337.727 463.763C338.621 464.233 339.314 464.957 339.807 465.934C340.307 466.903 340.557 468.138 340.557 469.638V480.729H337.875V469.82C337.875 468.434 337.515 467.362 336.795 466.604C336.083 465.839 335.095 465.457 333.83 465.457C332.951 465.457 332.163 465.642 331.466 466.013C330.777 466.385 330.231 466.926 329.83 467.638C329.436 468.35 329.239 469.214 329.239 470.229ZM350.599 481.138C349.493 481.138 348.49 480.93 347.588 480.513C346.687 480.089 345.971 479.479 345.44 478.684C344.91 477.881 344.645 476.911 344.645 475.775C344.645 474.775 344.842 473.964 345.236 473.343C345.63 472.714 346.156 472.222 346.815 471.866C347.474 471.51 348.202 471.244 348.997 471.07C349.8 470.888 350.607 470.744 351.418 470.638C352.478 470.502 353.338 470.4 353.997 470.332C354.664 470.256 355.149 470.131 355.452 469.957C355.762 469.782 355.918 469.479 355.918 469.047V468.957C355.918 467.835 355.611 466.964 354.997 466.343C354.391 465.722 353.471 465.411 352.236 465.411C350.956 465.411 349.952 465.691 349.224 466.252C348.497 466.813 347.986 467.411 347.69 468.047L345.145 467.138C345.599 466.078 346.206 465.252 346.963 464.661C347.728 464.063 348.562 463.646 349.463 463.411C350.372 463.169 351.266 463.047 352.145 463.047C352.706 463.047 353.349 463.116 354.077 463.252C354.812 463.381 355.52 463.65 356.202 464.059C356.891 464.468 357.463 465.085 357.918 465.911C358.372 466.737 358.599 467.843 358.599 469.229V480.729H355.918V478.366H355.781C355.599 478.744 355.296 479.15 354.872 479.582C354.448 480.013 353.884 480.381 353.179 480.684C352.474 480.987 351.615 481.138 350.599 481.138ZM351.009 478.729C352.069 478.729 352.963 478.521 353.69 478.104C354.425 477.688 354.978 477.15 355.349 476.491C355.728 475.832 355.918 475.138 355.918 474.411V471.957C355.804 472.093 355.554 472.218 355.168 472.332C354.789 472.438 354.349 472.532 353.849 472.616C353.357 472.691 352.876 472.76 352.406 472.82C351.944 472.873 351.569 472.919 351.281 472.957C350.584 473.047 349.933 473.195 349.327 473.4C348.728 473.597 348.243 473.896 347.872 474.297C347.509 474.691 347.327 475.229 347.327 475.911C347.327 476.843 347.671 477.547 348.361 478.025C349.058 478.494 349.94 478.729 351.009 478.729ZM366.176 470.229V480.729H363.494V463.275H366.085V466.002H366.313C366.722 465.116 367.343 464.403 368.176 463.866C369.009 463.32 370.085 463.047 371.403 463.047C372.585 463.047 373.619 463.29 374.506 463.775C375.392 464.252 376.081 464.979 376.574 465.957C377.066 466.926 377.313 468.153 377.313 469.638V480.729H374.631V469.82C374.631 468.449 374.275 467.381 373.563 466.616C372.85 465.843 371.873 465.457 370.631 465.457C369.775 465.457 369.009 465.642 368.335 466.013C367.669 466.385 367.142 466.926 366.756 467.638C366.369 468.35 366.176 469.214 366.176 470.229ZM389.259 487.638C387.963 487.638 386.849 487.472 385.918 487.138C384.986 486.813 384.209 486.381 383.588 485.843C382.974 485.313 382.486 484.744 382.122 484.138L384.259 482.638C384.501 482.957 384.808 483.32 385.179 483.729C385.55 484.146 386.058 484.506 386.702 484.809C387.353 485.119 388.206 485.275 389.259 485.275C390.668 485.275 391.831 484.934 392.747 484.252C393.664 483.57 394.122 482.502 394.122 481.047V477.502H393.895C393.698 477.82 393.418 478.214 393.054 478.684C392.698 479.146 392.183 479.559 391.509 479.922C390.842 480.278 389.94 480.457 388.804 480.457C387.395 480.457 386.13 480.123 385.009 479.457C383.895 478.79 383.012 477.82 382.361 476.547C381.717 475.275 381.395 473.729 381.395 471.911C381.395 470.123 381.709 468.566 382.338 467.241C382.967 465.907 383.842 464.877 384.963 464.15C386.084 463.415 387.38 463.047 388.849 463.047C389.986 463.047 390.887 463.237 391.554 463.616C392.228 463.987 392.743 464.411 393.099 464.888C393.463 465.358 393.743 465.744 393.94 466.047H394.213V463.275H396.804V481.229C396.804 482.729 396.463 483.949 395.781 484.888C395.107 485.835 394.198 486.528 393.054 486.968C391.918 487.415 390.652 487.638 389.259 487.638ZM389.168 478.047C390.243 478.047 391.152 477.801 391.895 477.309C392.637 476.816 393.202 476.108 393.588 475.184C393.974 474.26 394.168 473.153 394.168 471.866C394.168 470.608 393.978 469.498 393.599 468.536C393.221 467.574 392.66 466.82 391.918 466.275C391.175 465.729 390.259 465.457 389.168 465.457C388.031 465.457 387.084 465.744 386.327 466.32C385.577 466.896 385.012 467.669 384.634 468.638C384.262 469.608 384.077 470.684 384.077 471.866C384.077 473.078 384.266 474.15 384.645 475.082C385.031 476.006 385.599 476.733 386.349 477.263C387.107 477.786 388.046 478.047 389.168 478.047ZM401.713 480.729V463.275H404.395V480.729H401.713ZM403.077 460.366C402.554 460.366 402.103 460.188 401.724 459.832C401.353 459.475 401.168 459.047 401.168 458.547C401.168 458.047 401.353 457.619 401.724 457.263C402.103 456.907 402.554 456.729 403.077 456.729C403.599 456.729 404.046 456.907 404.418 457.263C404.796 457.619 404.986 458.047 404.986 458.547C404.986 459.047 404.796 459.475 404.418 459.832C404.046 460.188 403.599 460.366 403.077 460.366ZM411.989 470.229V480.729H409.307V463.275H411.898V466.002H412.125C412.534 465.116 413.155 464.403 413.989 463.866C414.822 463.32 415.898 463.047 417.216 463.047C418.398 463.047 419.432 463.29 420.318 463.775C421.205 464.252 421.894 464.979 422.386 465.957C422.879 466.926 423.125 468.153 423.125 469.638V480.729H420.443V469.82C420.443 468.449 420.087 467.381 419.375 466.616C418.663 465.843 417.686 465.457 416.443 465.457C415.587 465.457 414.822 465.642 414.148 466.013C413.481 466.385 412.955 466.926 412.568 467.638C412.182 468.35 411.989 469.214 411.989 470.229ZM435.071 487.638C433.776 487.638 432.662 487.472 431.73 487.138C430.798 486.813 430.022 486.381 429.401 485.843C428.787 485.313 428.298 484.744 427.935 484.138L430.071 482.638C430.313 482.957 430.62 483.32 430.991 483.729C431.363 484.146 431.87 484.506 432.514 484.809C433.166 485.119 434.018 485.275 435.071 485.275C436.48 485.275 437.643 484.934 438.56 484.252C439.476 483.57 439.935 482.502 439.935 481.047V477.502H439.707C439.51 477.82 439.23 478.214 438.866 478.684C438.51 479.146 437.995 479.559 437.321 479.922C436.654 480.278 435.753 480.457 434.616 480.457C433.207 480.457 431.942 480.123 430.821 479.457C429.707 478.79 428.825 477.82 428.173 476.547C427.529 475.275 427.207 473.729 427.207 471.911C427.207 470.123 427.522 468.566 428.151 467.241C428.779 465.907 429.654 464.877 430.776 464.15C431.897 463.415 433.192 463.047 434.662 463.047C435.798 463.047 436.7 463.237 437.366 463.616C438.041 463.987 438.556 464.411 438.912 464.888C439.276 465.358 439.556 465.744 439.753 466.047H440.026V463.275H442.617V481.229C442.617 482.729 442.276 483.949 441.594 484.888C440.92 485.835 440.01 486.528 438.866 486.968C437.73 487.415 436.465 487.638 435.071 487.638ZM434.98 478.047C436.056 478.047 436.965 477.801 437.707 477.309C438.45 476.816 439.014 476.108 439.401 475.184C439.787 474.26 439.98 473.153 439.98 471.866C439.98 470.608 439.791 469.498 439.412 468.536C439.033 467.574 438.473 466.82 437.73 466.275C436.988 465.729 436.071 465.457 434.98 465.457C433.844 465.457 432.897 465.744 432.139 466.32C431.389 466.896 430.825 467.669 430.446 468.638C430.075 469.608 429.889 470.684 429.889 471.866C429.889 473.078 430.079 474.15 430.457 475.082C430.844 476.006 431.412 476.733 432.162 477.263C432.92 477.786 433.859 478.047 434.98 478.047Z" fill="black"/>
<path d="M196.223 90.1622C195.797 90.1622 195.466 90.0449 195.231 89.8102C195.018 89.5542 194.911 89.2129 194.911 88.7862V68.7222C194.911 68.2742 195.029 67.9436 195.263 67.7302C195.498 67.4956 195.829 67.3782 196.255 67.3782H203.839C206.25 67.3782 208.106 67.9436 209.407 69.0742C210.709 70.2049 211.359 71.8156 211.359 73.9062C211.359 75.2289 211.061 76.3809 210.463 77.3622C209.887 78.3222 209.034 79.0582 207.903 79.5702C206.773 80.0609 205.418 80.3062 203.839 80.3062L204.159 79.8902H204.799C205.631 79.8902 206.357 80.1036 206.975 80.5302C207.594 80.9569 208.159 81.6396 208.671 82.5782L211.743 88.3062C211.914 88.6049 211.989 88.9036 211.967 89.2022C211.967 89.4796 211.871 89.7142 211.679 89.9062C211.487 90.0769 211.21 90.1622 210.847 90.1622C210.485 90.1622 210.186 90.0769 209.951 89.9062C209.717 89.7356 209.514 89.4902 209.343 89.1702L205.855 82.7062C205.365 81.7889 204.799 81.1809 204.159 80.8822C203.519 80.5622 202.677 80.4022 201.631 80.4022H197.535V88.7862C197.535 89.2129 197.429 89.5542 197.215 89.8102C197.002 90.0449 196.671 90.1622 196.223 90.1622ZM197.535 78.3222H203.455C205.205 78.3222 206.527 77.9596 207.423 77.2342C208.319 76.4876 208.767 75.3782 208.767 73.9062C208.767 72.4769 208.319 71.3996 207.423 70.6742C206.527 69.9276 205.205 69.5542 203.455 69.5542H197.535V78.3222ZM222.63 90.2262C220.987 90.2262 219.568 89.9062 218.374 89.2662C217.2 88.6049 216.283 87.6769 215.622 86.4822C214.982 85.2876 214.662 83.8582 214.662 82.1942C214.662 80.5729 214.982 79.1649 215.622 77.9702C216.262 76.7542 217.136 75.8049 218.246 75.1222C219.376 74.4396 220.678 74.0982 222.15 74.0982C223.195 74.0982 224.134 74.2796 224.966 74.6422C225.798 74.9836 226.502 75.4849 227.078 76.1462C227.675 76.8076 228.123 77.6076 228.422 78.5462C228.742 79.4849 228.902 80.5409 228.902 81.7142C228.902 82.0556 228.806 82.3116 228.614 82.4822C228.422 82.6316 228.144 82.7062 227.782 82.7062H216.646V81.0102H227.174L226.662 81.4262C226.662 80.2742 226.491 79.3036 226.15 78.5142C225.808 77.7036 225.307 77.0849 224.646 76.6582C224.006 76.2316 223.195 76.0182 222.214 76.0182C221.126 76.0182 220.198 76.2742 219.43 76.7862C218.683 77.2769 218.118 77.9702 217.734 78.8662C217.35 79.7409 217.158 80.7649 217.158 81.9382V82.1302C217.158 84.0929 217.627 85.5862 218.566 86.6102C219.526 87.6342 220.88 88.1462 222.63 88.1462C223.355 88.1462 224.07 88.0502 224.774 87.8582C225.499 87.6662 226.203 87.3462 226.886 86.8982C227.184 86.7062 227.451 86.6209 227.686 86.6422C227.942 86.6422 228.144 86.7169 228.294 86.8662C228.443 86.9942 228.539 87.1649 228.582 87.3782C228.646 87.5702 228.624 87.7836 228.518 88.0182C228.432 88.2529 228.251 88.4556 227.974 88.6262C227.27 89.1382 226.438 89.5329 225.478 89.8102C224.518 90.0876 223.568 90.2262 222.63 90.2262ZM245.165 95.9222C244.738 95.9222 244.408 95.8049 244.173 95.5702C243.96 95.3569 243.853 95.0369 243.853 94.6102V86.2902H244.205C243.864 87.4849 243.192 88.4449 242.189 89.1702C241.186 89.8742 239.981 90.2262 238.573 90.2262C237.186 90.2262 235.97 89.8956 234.925 89.2342C233.901 88.5729 233.101 87.6449 232.525 86.4502C231.97 85.2342 231.693 83.8049 231.693 82.1622C231.693 80.4982 231.97 79.0689 232.525 77.8742C233.101 76.6582 233.901 75.7302 234.925 75.0902C235.97 74.4289 237.186 74.0982 238.573 74.0982C239.981 74.0982 241.186 74.4609 242.189 75.1862C243.213 75.8902 243.896 76.8502 244.237 78.0662L243.885 78.5142V75.4742C243.885 75.0476 243.992 74.7276 244.205 74.5142C244.44 74.2796 244.76 74.1622 245.165 74.1622C245.592 74.1622 245.912 74.2796 246.125 74.5142C246.338 74.7276 246.445 75.0476 246.445 75.4742V94.6102C246.445 95.0369 246.328 95.3569 246.093 95.5702C245.88 95.8049 245.57 95.9222 245.165 95.9222ZM239.117 88.1462C240.077 88.1462 240.92 87.9116 241.645 87.4422C242.37 86.9729 242.925 86.2902 243.309 85.3942C243.714 84.4982 243.917 83.4209 243.917 82.1622C243.917 80.2209 243.48 78.7382 242.605 77.7142C241.752 76.6902 240.589 76.1782 239.117 76.1782C238.136 76.1782 237.282 76.4129 236.557 76.8822C235.853 77.3302 235.298 78.0022 234.893 78.8982C234.509 79.7729 234.317 80.8609 234.317 82.1622C234.317 84.0822 234.754 85.5649 235.629 86.6102C236.504 87.6342 237.666 88.1462 239.117 88.1462ZM256.813 90.2262C255.555 90.2262 254.509 90.0022 253.677 89.5542C252.867 89.0849 252.248 88.3916 251.821 87.4742C251.416 86.5569 251.213 85.4156 251.213 84.0502V75.4742C251.213 75.0262 251.32 74.6956 251.533 74.4822C251.768 74.2689 252.088 74.1622 252.493 74.1622C252.92 74.1622 253.24 74.2689 253.453 74.4822C253.688 74.6956 253.805 75.0262 253.805 75.4742V84.0182C253.805 85.3836 254.083 86.4076 254.637 87.0902C255.213 87.7516 256.109 88.0822 257.325 88.0822C258.648 88.0822 259.725 87.6342 260.557 86.7382C261.389 85.8422 261.805 84.6689 261.805 83.2182V75.4742C261.805 75.0262 261.912 74.6956 262.125 74.4822C262.36 74.2689 262.691 74.1622 263.117 74.1622C263.523 74.1622 263.832 74.2689 264.045 74.4822C264.28 74.6956 264.397 75.0262 264.397 75.4742V88.8182C264.397 89.7142 263.981 90.1622 263.149 90.1622C262.744 90.1622 262.424 90.0449 262.189 89.8102C261.976 89.5756 261.869 89.2449 261.869 88.8182V85.9062L262.285 86.3542C261.859 87.6129 261.155 88.5729 260.173 89.2342C259.213 89.8956 258.093 90.2262 256.813 90.2262ZM276.255 90.2262C274.612 90.2262 273.193 89.9062 271.999 89.2662C270.825 88.6049 269.908 87.6769 269.247 86.4822C268.607 85.2876 268.287 83.8582 268.287 82.1942C268.287 80.5729 268.607 79.1649 269.247 77.9702C269.887 76.7542 270.761 75.8049 271.871 75.1222C273.001 74.4396 274.303 74.0982 275.775 74.0982C276.82 74.0982 277.759 74.2796 278.591 74.6422C279.423 74.9836 280.127 75.4849 280.703 76.1462C281.3 76.8076 281.748 77.6076 282.047 78.5462C282.367 79.4849 282.527 80.5409 282.527 81.7142C282.527 82.0556 282.431 82.3116 282.239 82.4822C282.047 82.6316 281.769 82.7062 281.407 82.7062H270.271V81.0102H280.799L280.287 81.4262C280.287 80.2742 280.116 79.3036 279.775 78.5142C279.433 77.7036 278.932 77.0849 278.271 76.6582C277.631 76.2316 276.82 76.0182 275.839 76.0182C274.751 76.0182 273.823 76.2742 273.055 76.7862C272.308 77.2769 271.743 77.9702 271.359 78.8662C270.975 79.7409 270.783 80.7649 270.783 81.9382V82.1302C270.783 84.0929 271.252 85.5862 272.191 86.6102C273.151 87.6342 274.505 88.1462 276.255 88.1462C276.98 88.1462 277.695 88.0502 278.399 87.8582C279.124 87.6662 279.828 87.3462 280.511 86.8982C280.809 86.7062 281.076 86.6209 281.311 86.6422C281.567 86.6422 281.769 86.7169 281.919 86.8662C282.068 86.9942 282.164 87.1649 282.207 87.3782C282.271 87.5702 282.249 87.7836 282.143 88.0182C282.057 88.2529 281.876 88.4556 281.599 88.6262C280.895 89.1382 280.063 89.5329 279.103 89.8102C278.143 90.0876 277.193 90.2262 276.255 90.2262ZM291.526 90.2262C290.566 90.2262 289.595 90.1089 288.614 89.8742C287.654 89.6396 286.758 89.2342 285.926 88.6582C285.713 88.5089 285.563 88.3382 285.478 88.1462C285.393 87.9329 285.361 87.7302 285.382 87.5382C285.425 87.3249 285.51 87.1436 285.638 86.9942C285.787 86.8449 285.958 86.7596 286.15 86.7382C286.363 86.6956 286.598 86.7382 286.854 86.8662C287.686 87.3782 288.486 87.7409 289.254 87.9542C290.043 88.1462 290.822 88.2422 291.59 88.2422C292.806 88.2422 293.723 88.0182 294.342 87.5702C294.961 87.1222 295.27 86.5142 295.27 85.7462C295.27 85.1489 295.067 84.6796 294.662 84.3382C294.257 83.9756 293.617 83.6982 292.742 83.5062L289.83 82.8662C288.486 82.5889 287.483 82.1089 286.822 81.4262C286.182 80.7436 285.862 79.8582 285.862 78.7702C285.862 77.8102 286.107 76.9889 286.598 76.3062C287.11 75.6022 287.825 75.0582 288.742 74.6742C289.659 74.2902 290.726 74.0982 291.942 74.0982C292.881 74.0982 293.766 74.2262 294.598 74.4822C295.451 74.7169 296.219 75.1009 296.902 75.6342C297.115 75.7836 297.254 75.9649 297.318 76.1782C297.403 76.3702 297.414 76.5729 297.35 76.7862C297.307 76.9782 297.211 77.1489 297.062 77.2982C296.913 77.4262 296.731 77.5009 296.518 77.5222C296.305 77.5436 296.081 77.4796 295.846 77.3302C295.206 76.9036 294.555 76.5942 293.894 76.4022C293.233 76.1889 292.582 76.0822 291.942 76.0822C290.747 76.0822 289.841 76.3169 289.222 76.7862C288.603 77.2556 288.294 77.8742 288.294 78.6422C288.294 79.2396 288.486 79.7302 288.87 80.1142C289.254 80.4982 289.851 80.7756 290.662 80.9462L293.574 81.5542C294.961 81.8529 295.995 82.3329 296.678 82.9942C297.382 83.6342 297.734 84.5089 297.734 85.6182C297.734 87.0262 297.169 88.1462 296.038 88.9782C294.907 89.8102 293.403 90.2262 291.526 90.2262ZM307.768 90.2262C306.552 90.2262 305.528 90.0129 304.696 89.5862C303.885 89.1382 303.277 88.4982 302.872 87.6662C302.467 86.8129 302.264 85.7782 302.264 84.5622V76.4022H300.12C299.757 76.4022 299.48 76.3169 299.288 76.1462C299.096 75.9542 299 75.6982 299 75.3782C299 75.0582 299.096 74.8129 299.288 74.6422C299.48 74.4716 299.757 74.3862 300.12 74.3862H302.264V70.7062C302.264 70.2796 302.381 69.9596 302.616 69.7462C302.851 69.5116 303.171 69.3942 303.576 69.3942C303.981 69.3942 304.291 69.5116 304.504 69.7462C304.739 69.9596 304.856 70.2796 304.856 70.7062V74.3862H308.888C309.251 74.3862 309.528 74.4716 309.72 74.6422C309.912 74.8129 310.008 75.0582 310.008 75.3782C310.008 75.6982 309.912 75.9542 309.72 76.1462C309.528 76.3169 309.251 76.4022 308.888 76.4022H304.856V84.3062C304.856 85.5222 305.112 86.4502 305.624 87.0902C306.136 87.7089 306.968 88.0182 308.12 88.0182C308.525 88.0182 308.867 87.9756 309.144 87.8902C309.443 87.8049 309.688 87.7622 309.88 87.7622C310.072 87.7409 310.232 87.8049 310.36 87.9542C310.488 88.1036 310.552 88.3596 310.552 88.7222C310.552 88.9782 310.499 89.2129 310.392 89.4262C310.307 89.6396 310.147 89.7889 309.912 89.8742C309.656 89.9596 309.315 90.0342 308.888 90.0982C308.483 90.1836 308.109 90.2262 307.768 90.2262ZM317.963 90.2262C317.003 90.2262 316.033 90.1089 315.051 89.8742C314.091 89.6396 313.195 89.2342 312.363 88.6582C312.15 88.5089 312.001 88.3382 311.915 88.1462C311.83 87.9329 311.798 87.7302 311.819 87.5382C311.862 87.3249 311.947 87.1436 312.075 86.9942C312.225 86.8449 312.395 86.7596 312.587 86.7382C312.801 86.6956 313.035 86.7382 313.291 86.8662C314.123 87.3782 314.923 87.7409 315.691 87.9542C316.481 88.1462 317.259 88.2422 318.027 88.2422C319.243 88.2422 320.161 88.0182 320.779 87.5702C321.398 87.1222 321.707 86.5142 321.707 85.7462C321.707 85.1489 321.505 84.6796 321.099 84.3382C320.694 83.9756 320.054 83.6982 319.179 83.5062L316.267 82.8662C314.923 82.5889 313.921 82.1089 313.259 81.4262C312.619 80.7436 312.299 79.8582 312.299 78.7702C312.299 77.8102 312.545 76.9889 313.035 76.3062C313.547 75.6022 314.262 75.0582 315.179 74.6742C316.097 74.2902 317.163 74.0982 318.379 74.0982C319.318 74.0982 320.203 74.2262 321.035 74.4822C321.889 74.7169 322.657 75.1009 323.339 75.6342C323.553 75.7836 323.691 75.9649 323.755 76.1782C323.841 76.3702 323.851 76.5729 323.787 76.7862C323.745 76.9782 323.649 77.1489 323.499 77.2982C323.35 77.4262 323.169 77.5009 322.955 77.5222C322.742 77.5436 322.518 77.4796 322.283 77.3302C321.643 76.9036 320.993 76.5942 320.331 76.4022C319.67 76.1889 319.019 76.0822 318.379 76.0822C317.185 76.0822 316.278 76.3169 315.659 76.7862C315.041 77.2556 314.731 77.8742 314.731 78.6422C314.731 79.2396 314.923 79.7302 315.307 80.1142C315.691 80.4982 316.289 80.7756 317.099 80.9462L320.011 81.5542C321.398 81.8529 322.433 82.3329 323.115 82.9942C323.819 83.6342 324.171 84.5089 324.171 85.6182C324.171 87.0262 323.606 88.1462 322.475 88.9782C321.345 89.8102 319.841 90.2262 317.963 90.2262Z" fill="black"/>
</svg>
