<svg width="1196" height="724" viewBox="0 0 1196 724" fill="none" xmlns="http://www.w3.org/2000/svg">
<path d="M1 2.32299C439.454 3.55203 878.583 4.41959 1192.45 5.23895M3.79546 4.1063C387.569 0.00950377 773.126 0.154097 1194.49 3.43154M1191.67 4.92566C1192.9 180.052 1190.69 360.648 1195 719.673M1193.89 3.50383C1188.85 221.454 1189.02 443.91 1194.4 717.624M1194.35 718.154C727.724 719.311 259.363 719.697 4.80761 716.925M1194.54 718.275C727.82 719.166 263.629 720.685 2.27724 717.793M3.45808 721.311C0.0119485 469.43 1.26509 223.357 1.72296 2.85316M2.90381 716.732C0.493925 507.868 0.349332 299.124 3.65087 2.0579" stroke="black" stroke-linecap="round"/>
<path d="M25.8919 161.738C31.531 147.736 35.411 144.893 46.4482 138.097M25.8919 161.738C31.3142 152.315 38.592 146.965 46.4482 138.097M26.8559 175.329C34.8567 167.594 46.8338 141.422 58.4735 138.964M26.8559 175.329C33.0493 166.292 43.3154 148.821 58.4735 138.964M26.2293 190.753C48.5207 182.824 51.6777 152.315 70.4988 139.832M26.2293 190.753C47.1471 175.185 62.3775 155.183 70.4988 139.832M27.1692 204.344C38.8089 189.5 61.1485 171.883 84.0906 138.868M27.1692 204.344C44.4721 181.017 66.2333 162.702 84.0906 138.868M26.5426 219.768C41.7007 203.983 66.7394 176.534 96.1159 139.736M26.5426 219.768C41.026 199.043 59.076 184.535 96.1159 139.736M25.916 235.191C55.2684 196.127 85.0786 179.306 104.96 144.242M25.916 235.191C52.4247 206.321 72.9087 180.005 104.96 144.242M26.8559 248.783C45.5325 221.19 68.6673 206.128 109.081 154.195M26.8559 248.783C53.461 229.383 67.4383 199.983 109.081 154.195M26.2293 264.206C50.4486 234.42 78.9334 207.55 113.178 164.172M26.2293 264.206C52.5693 223.961 87.4403 188.849 113.178 164.172M27.1933 277.798C60.4496 242.493 87.5608 204.537 114.142 177.763M27.1933 277.798C45.5325 252.446 76.3067 224.105 114.142 177.763M26.5426 293.221C48.593 265.989 93.5373 215.02 113.515 193.187M26.5426 293.221C49.0509 275.532 61.8233 252.928 113.515 193.187M25.916 308.644C47.2194 273.773 74.4269 256.904 114.455 206.778M25.916 308.644C48.4966 285.076 68.2335 252.446 114.455 206.778M26.88 322.236C49.6534 291.341 88.4765 252.277 113.829 222.202M26.88 322.236C40.785 299.8 60.3532 276.376 113.829 222.202M26.2534 337.659C58.1361 320.332 76.403 280.93 113.202 237.625M26.2534 337.659C48.7135 308.933 80.0902 278.207 113.202 237.625M27.1933 351.251C48.0869 324.357 73.1738 285.461 114.142 251.217M27.1933 351.251C60.4255 317.609 81.4879 291.245 114.142 251.217M26.5667 366.674C47.3158 335.996 60.2327 322.597 113.515 266.64M26.5667 366.674C61.0762 328.477 90.3563 291.124 113.515 266.64M25.9401 382.097C57.7024 348.214 80.9577 304.065 114.479 280.232M25.9401 382.097C51.9427 355.107 73.2702 319.392 114.479 280.232M26.88 395.689C58.4494 367.855 91.3202 335.611 113.853 295.655M26.88 395.689C50.1112 380.29 62.5221 357.276 113.853 295.655M26.2534 411.112C36.8569 382.121 73.9932 372.41 113.202 311.078M26.2534 411.112C52.4729 373.88 86.3318 340.961 113.202 311.078M27.2174 424.704C49.1473 400.268 88.6693 353.106 114.166 324.67M27.2174 424.704C64.7392 390.508 91.5612 345.612 114.166 324.67M26.5667 440.127C49.4606 418.053 83.0302 383.495 113.539 340.093M26.5667 440.127C48.4484 409.956 76.3307 383.567 113.539 340.093M25.9401 455.551C45.1469 433.163 69.8482 409.618 114.479 353.685M25.9401 455.551C57.9193 423.788 79.0057 386.146 114.479 353.685M26.9041 469.142C52.1596 441.019 75.6078 397.858 113.853 369.108M26.9041 469.142C54.5936 441.067 84.6207 410.438 113.853 369.108M26.2775 484.566C45.3397 464.756 73.4148 429.283 113.226 384.531M26.2775 484.566C56.2082 449.405 90.9346 409.57 113.226 384.531M27.2174 498.157C67.125 469.407 87.3921 427.813 114.166 398.123M27.2174 498.157C54.1357 468.54 74.7161 441.718 114.166 398.123M26.5908 513.581C55.895 486.542 86.6209 450.538 113.539 413.546M26.5908 513.581C50.9065 488.542 69.0288 468.516 113.539 413.546M25.9642 528.98C62.8113 503.218 85.5124 463.696 114.503 427.138M25.9642 528.98C52.4006 505.291 74.4751 472.492 114.503 427.138M26.9041 542.596C46.8097 513.532 71.752 485.288 113.877 442.561M26.9041 542.596C55.7986 510.665 79.9938 479.89 113.877 442.561M26.2775 558.019C48.1833 538.041 58.3048 509.122 113.226 457.985M26.2775 558.019C50.8342 531.847 84.3316 499.772 113.226 457.985M27.2174 571.61C50.545 527.437 83.9219 497.892 114.19 471.576M27.2174 571.61C47.605 554.91 61.751 532.233 114.19 471.576M26.5908 587.034C37.6521 554.862 62.5703 526.642 113.563 487M26.5908 587.034C58.1843 561.368 83.2712 525.052 113.563 487M25.9642 602.433C46.5205 582.045 64.9802 551.247 114.503 500.591M25.9642 602.433C49.9907 576.213 67.4624 553.392 114.503 500.591M26.9282 616.049C56.3528 573.9 92.3324 537.246 113.877 516.015M26.9282 616.049C57.4373 574.792 85.7534 541.704 113.877 516.015M26.3016 631.448C54.1839 608.048 61.7269 591.853 113.25 531.438M26.3016 631.448C50.0871 599.613 74.0655 576.695 113.25 531.438M28.832 643.232C52.9308 629.568 71.2941 592.842 114.19 545.029M28.832 643.232C67.1491 608 100.622 563.32 114.19 545.029M36.0857 649.57C55.413 618.989 78.1141 598.77 113.563 560.453M36.0857 649.57C53.22 628.026 73.222 606.963 113.563 560.453M43.3636 655.884C61.6787 618.314 95.2242 605.783 114.527 574.044M43.3636 655.884C67.7757 630.773 84.0665 601.662 114.527 574.044M55.3889 656.752C65.4622 645.425 76.138 628.243 113.877 589.468M55.3889 656.752C70.8844 643.594 77.8249 629.399 113.877 589.468M67.4142 657.619C77.4634 635.858 105.37 622.869 113.25 604.891M67.4142 657.619C80.3794 645.088 97.3449 621.808 113.25 604.891M79.4154 658.487C93.8747 646.052 91.2238 635.762 114.214 618.483M79.4154 658.487C89.1754 642.967 103.683 625.905 114.214 618.483M93.0312 657.547C102.719 645.955 100.309 639.955 113.588 633.906M93.0312 657.547C101.683 650.173 104.984 643.738 113.588 633.906M50.545 650.896C47.8218 652.486 43.7973 634.749 25.0967 628.773M50.545 650.896C39.9174 647.016 36.0134 635.954 25.0967 628.773M65.9683 651.522C51.509 638.051 32.4227 623.423 25.9642 616.748M65.9683 651.522C57.4855 636.822 40.4235 630.098 25.9642 616.748M81.3915 652.149C68.3781 647.233 65.2212 638.87 25.0003 603.156M81.3915 652.149C63.8476 641.762 49.1473 626.845 25.0003 603.156M91.3443 648.052C72.4508 618.989 50.6655 600.553 25.8678 591.131M91.3443 648.052C71.2459 627.857 51.2198 612.627 25.8678 591.131M104.96 647.088C87.3439 632.918 59.3652 618.169 24.928 577.539M104.96 647.088C81.8253 629.11 64.7151 608.53 24.928 577.539M107.635 636.653C87.127 624.122 65.7996 593.179 25.7955 565.513M107.635 636.653C88.838 616.266 67.1732 600.264 25.7955 565.513M112.142 627.809C93.3686 615.494 67.125 599.83 24.8316 551.922M112.142 627.809C89.4405 606.674 62.0161 586.6 24.8316 551.922M111.178 614.193C79.9697 588.335 49.075 551.657 25.6991 539.896M111.178 614.193C78.7406 589.781 56.1359 565.104 25.6991 539.896M112.069 602.192C79.6082 570.381 57.7747 555.175 24.7593 526.305M112.069 602.192C82.2591 579.491 48.7858 549.97 24.7593 526.305M111.105 588.576C95.8267 573.418 82.2591 556.958 25.6268 514.279M111.105 588.576C89.561 569.731 65.5586 549.054 25.6268 514.279M111.973 576.575C86.8378 554.476 37.869 519.147 26.4944 502.254M111.973 576.575C78.8852 553.777 48.0869 525.799 26.4944 502.254M112.84 564.55C84.2593 546.379 56.5215 511.219 25.5304 488.662M112.84 564.55C86.8137 547.198 68.836 529.1 25.5304 488.662M111.901 550.958C91.4407 528.883 64.5705 511.315 26.398 476.637M111.901 550.958C89.4887 535.848 78.4996 517.774 26.398 476.637M112.768 538.932C82.8374 504.278 46.0385 488.229 25.4581 463.045M112.768 538.932C91.0551 516.159 67.0286 501.338 25.4581 463.045M111.804 525.341C89.8261 496.494 44.3034 464.106 26.3257 451.02M111.804 525.341C85.0063 498.591 63.0041 483.843 26.3257 451.02M112.672 513.315C92.5734 494.301 59.2929 472.179 25.3858 437.428M112.672 513.315C87.8018 486.18 59.2206 464.925 25.3858 437.428M111.732 499.724C74.4751 468.13 60.9798 453.502 26.2534 425.403M111.732 499.724C98.333 479.071 76.0416 467.889 26.2534 425.403M112.599 487.698C86.2595 457.478 46.7615 429.668 25.2895 411.811M112.599 487.698C83.8255 470.082 67.7998 441.477 25.2895 411.811M111.636 474.107C74.2582 451.165 44.6649 425.62 26.157 399.786M111.636 474.107C87.5367 457.334 70.3783 437.332 26.157 399.786M112.503 462.081C81.753 430.705 43.7732 417.932 25.2172 386.194M112.503 462.081C88.6934 443.501 65.4381 423.114 25.2172 386.194M111.563 448.49C97.5618 436.464 70.1133 412.076 26.0847 374.169M111.563 448.49C88.8139 424.535 57.8952 406.341 26.0847 374.169M112.431 436.464C91.1274 407.835 51.6054 389.231 25.1208 360.577M112.431 436.464C92.4529 421.595 74.3064 402.485 25.1208 360.577M111.467 422.873C81.7048 396.508 49.2196 361.999 25.9883 348.552M111.467 422.873C81.3915 396.436 44.1588 366.843 25.9883 348.552M112.334 410.847C89.0067 397.448 77.4152 371.325 25.0485 334.96M112.334 410.847C84.9099 392.797 63.8958 372.506 25.0485 334.96M111.395 397.255C78.4514 374.868 53.5092 330.863 25.916 322.935M111.395 397.255C89.2959 378.748 72.1135 360.119 25.916 322.935M112.262 385.23C97.2485 373.229 68.4504 348.961 24.9521 309.343M112.262 385.23C81.0541 365.807 59.317 336.31 24.9521 309.343M111.298 371.638C92.3565 356.167 68.9806 338.695 25.8196 297.318M111.298 371.638C81.6084 345.805 44.689 309.03 25.8196 297.318M112.166 359.613C91.2238 338.744 63.3656 316.308 24.8798 283.726M112.166 359.613C81.6084 330.815 46.0626 301.318 24.8798 283.726M111.226 346.021C76.8127 311.343 52.3042 284.545 25.7473 271.701M111.226 346.021C84.2352 319.705 47.9664 298.619 25.7473 271.701M112.093 333.996C91.7781 323.417 75.8247 300.378 24.7834 258.109M112.093 333.996C89.6092 317.464 71.3182 294.811 24.7834 258.109M111.154 320.404C97.6582 297.221 76.9573 280.786 25.6509 246.084M111.154 320.404C93.465 304.186 72.3785 289.365 25.6509 246.084M112.021 308.379C85.0786 280.714 76.3066 267.965 26.5185 234.058M112.021 308.379C89.6333 289.172 67.2214 274.785 26.5185 234.058M112.889 296.354C83.9219 272.544 49.4606 247.216 25.5786 220.467M112.889 296.354C80.1866 268.881 48.4484 241.794 25.5786 220.467M111.925 282.762C71.6556 257.892 51.4126 219.527 26.4462 208.441M111.925 282.762C89.9948 261.435 63.3415 241.505 26.4462 208.441M112.792 270.737C81.4638 248.18 40.0138 211.984 25.5063 194.85M112.792 270.737C89.3923 253.699 65.3417 224.997 25.5063 194.85M111.852 257.145C69.7759 221.021 49.6293 193.596 26.3739 182.824M111.852 257.145C90.4768 237.288 58.4494 210.996 26.3739 182.824M112.72 245.12C70.4747 220.033 51.9668 190.97 25.4099 169.232M112.72 245.12C84.6207 214.538 52.8585 192.777 25.4099 169.232M111.756 231.528C96.4292 213.623 68.7396 201.573 26.2775 157.207M111.756 231.528C75.7524 201.718 48.9545 174.848 26.2775 157.207M112.624 219.503C99.2728 209.02 77.0055 183.089 28.9766 146.772M112.624 219.503C84.4039 192.584 54.0634 169.522 28.9766 146.772M111.684 205.911C92.1396 198.44 79.078 186.969 33.483 137.928M111.684 205.911C84.187 180.607 50.5691 157.689 33.483 137.928M112.551 193.886C88.3561 184.68 78.2828 161.208 47.0748 136.964M112.551 193.886C96.4292 180.222 86.5968 165.497 47.0748 136.964M111.587 180.294C103.297 170.389 71.4146 152.966 62.498 137.615M111.587 180.294C98.9354 166.702 90.6454 160.75 62.498 137.615M112.455 168.269C103.611 159.786 94.9832 144.603 76.0898 136.651M112.455 168.269C101.948 156.749 91.1997 150.339 76.0898 136.651M111.515 154.677C104.96 145.471 101.297 142.676 91.513 137.277M111.515 154.677C106.647 150.725 101.08 141.784 91.513 137.277" stroke="#CED4DA" stroke-width="0.5" stroke-linecap="round"/>
<path d="M45.2914 137.759C50.3522 143.037 68.4022 142.676 87.7776 137.759M45.2914 137.759C60.0158 134.265 64.8115 139.663 87.7776 137.759M87.7776 137.759C111.178 138.988 103.611 145.784 109.009 159.015M87.7776 137.759C100.478 128.361 105.273 153.857 109.009 159.015M109.009 159.015C115.13 305.8 123.878 437.019 109.009 631.086M109.009 159.015C108.96 342.889 107.924 524.666 109.009 631.086M109.009 631.086C116.455 638.942 96.646 646.293 87.7776 652.341M109.009 631.086C110.816 654.583 94.2361 655.836 87.7776 652.341M87.7776 652.341C77.2706 647.473 73.8726 659.908 45.2914 652.341M87.7776 652.341C71.2217 648.823 61.6786 655.715 45.2914 652.341M45.2914 652.341C35.2422 659.282 30.2779 654.751 24.0363 631.086M45.2914 652.341C29.9646 646.534 28.1331 645.136 24.0363 631.086M24.0363 631.086C21.0239 446.923 29.9405 272.086 24.0363 159.015M24.0363 631.086C24.9038 458.563 19.9877 292.136 24.0363 159.015M24.0363 159.015C32.9528 153.399 38.351 143.832 45.2914 137.759M24.0363 159.015C28.9765 143.447 40.2548 136.024 45.2914 137.759" stroke="black" stroke-linecap="round"/>
<path d="M41.0268 204.256C42.304 204.015 45.461 198.496 66.8607 184.543M37.8457 209.582C50.8109 197.436 57.1007 190.688 63.4628 180.591M34.5442 214.305C61.4867 215.365 59.5829 192.231 70.7165 183.651M44.3524 221.149C54.2811 214.112 58.2333 197.87 68.3789 186.182M45.7983 237.536C54.9077 222.643 60.9806 205.196 100.045 174.47M47.6539 234.018C59.4865 224.065 62.2578 213.654 94.9117 177.241M58.4743 249.682C54.5944 238.235 66.7884 227.053 99.0085 189.459M48.6902 243.513C64.499 231.222 73.8012 217.221 94.0201 189.917M56.7874 258.526C67.174 222.716 94.1888 213.076 97.5626 192.399M52.546 255.851C73.512 241.754 84.742 219.655 104.142 195.219M70.9816 250.236C79.6572 237.536 95.2009 222.378 116.384 193.604M65.3666 254.863C76.8617 235.729 93.7309 221.511 111.371 204.352M86.4048 253.683C98.3097 244.838 108.696 227.776 114.456 213.63M84.7902 249.345C90.6703 233.753 102.672 221.607 115.516 214.715" stroke="#868E96" stroke-width="0.5" stroke-linecap="round"/>
<path d="M65.2701 182.254C71.8009 178.591 78.9823 174.879 85.4167 177.217C91.8511 179.531 100.551 188.158 103.949 196.159C107.323 204.16 108.118 217.245 105.732 225.222C103.37 233.199 96.3335 240.043 89.7304 243.995C83.1514 247.947 72.6925 248.429 66.2099 248.911C59.7514 249.417 55.6306 252.237 50.9554 246.959C46.2802 241.681 39.8217 226.041 38.2071 217.221C36.5684 208.401 34.2549 199.46 41.1713 194.062C48.0876 188.64 69.4392 183.097 79.7294 184.784C89.9955 186.447 102.021 204.425 102.84 204.111M91.2245 179.723C97.7071 183.627 104.238 192.592 106.334 200.4C108.407 208.184 108.286 217.775 103.756 226.475C99.2253 235.151 86.6216 248.911 79.151 252.502C71.6563 256.068 63.5591 249.538 58.7875 247.923C54.04 246.308 54.2087 249.538 50.5698 242.79C46.9309 236.042 36.0864 216.45 36.954 207.461C37.7974 198.448 50.7867 192.689 55.7269 188.809C60.6672 184.929 59.9442 184.109 66.5473 184.158C73.1745 184.182 90.7907 189.146 95.3936 189.05C99.9724 188.929 94.3574 183.483 94.1164 183.555" stroke="black" stroke-linecap="round"/>
<path d="M33.6616 316.852C49.0126 304.152 59.1823 306.417 68.3398 298.151M38.9875 322.298C43.253 312.924 52.9648 308.297 64.3876 292.657M37.8548 339.264C60.0016 316.948 57.8809 307.188 71.786 294.729M44.6989 333.311C56.4109 318.274 58.8931 305.646 74.3163 292.681M56.8206 336.83C66.0263 318.611 72.6053 319.334 81.0399 288.704M53.3022 341.939C66.3637 321.238 78.9192 314.803 83.8113 293.139M64.7009 340.517C77.7384 327.262 91.0891 319.334 93.5713 296.392M58.5316 351.12C70.2918 336.203 80.341 314.707 94.0292 307.767M69.2797 349.674C66.3155 344.445 89.5468 319.31 97.4753 307.863M66.6047 359.338C75.5695 348.566 76.5816 336.613 100.295 307.477M67.641 363.676C74.5814 359.507 79.0879 347.867 99.6201 314.442M72.2679 359.94C78.871 351.434 90.3902 334.685 110.368 317.912M94.3424 354.036C98.7284 350.638 98.4874 343.842 106.103 335.504M91.9326 349.65C95.7884 343.626 101.572 338.782 106.705 334.564" stroke="#868E96" stroke-width="0.5" stroke-linecap="round"/>
<path d="M67.9781 290.415C73.1594 288.005 77.9551 291.186 83.3773 294.681C88.7995 298.175 96.7039 305.091 100.536 311.405C104.367 317.695 107.91 325.913 106.392 332.492C104.873 339.071 97.8366 345.843 91.4263 350.903C84.9919 355.94 73.7619 362.977 67.8576 362.784C61.9293 362.567 60.7003 355.964 55.9769 349.674C51.2536 343.36 41.0839 333.335 39.5415 324.973C37.9751 316.587 39.4451 305.067 46.6748 299.38C53.9044 293.693 74.7017 291.427 82.8953 290.849C91.113 290.271 96.8485 295.428 95.8605 295.958M58.917 292.994C64.6043 290.68 73.3522 292.247 79.5215 293.717C85.6908 295.211 91.3299 296.151 95.9569 301.959C100.584 307.766 108.295 318.996 107.259 328.588C106.223 338.203 94.3904 354.494 89.7635 359.531C85.1606 364.591 86.3173 359.097 79.5938 358.928C72.8461 358.735 55.3745 363.82 49.398 358.47C43.4214 353.12 42.9877 334.95 43.7347 326.829C44.4577 318.731 49.6871 315.454 53.7839 309.815C57.8566 304.176 66.7973 295.476 68.2432 293.018C69.6651 290.56 62.6041 295.524 62.339 295.09" stroke="black" stroke-linecap="round"/>
<path d="M41.2949 427.939C45.9219 421.312 62.7429 410.322 70.3099 397.357M45.7291 424.83C50.1392 420.468 58.4051 408.997 65.8516 403.888M56.0675 444.013C52.766 422.516 62.4778 415.986 80.3591 398.08M49.8018 441.169C54.2119 423.529 61.1764 415.672 78.1902 400.635M50.7176 450.592C63.6345 424.83 95.4932 401.117 87.1068 400.611M55.8265 450.905C63.9237 433.747 86.3115 408.322 91.541 400.153M50.3802 464.979C62.8152 451.821 80.817 430.493 93.9267 409.359M60.9837 457.797C75.0815 438.446 82.4316 425.24 105.301 405.695M55.5132 457.942C77.3468 453.315 79.3711 434.18 106.362 402.298M65.1769 471.582C76.2623 449.411 85.9741 437.723 105.976 406.659M74.961 463.87C91.8542 446.953 101.277 432.566 107.567 425.842M71.2257 463.605C85.5886 452.279 91.6856 448.832 111.037 420.781M96.1197 464.015C101.518 453.965 102.867 448.037 114.676 442.735M90.8421 458.086C98.9393 449.628 108.482 443.266 113.567 435.144" stroke="#868E96" stroke-width="0.5" stroke-linecap="round"/>
<path d="M88.5765 391.212C94.9868 392.417 104.241 401.093 108.048 408.804C111.832 416.54 113.205 429.505 111.278 437.578C109.374 445.651 102.843 452.857 96.5532 457.219C90.2634 461.605 79.9732 462.762 73.5147 463.822C67.0563 464.858 62.7185 468.377 57.7541 463.509C52.7898 458.641 45.8011 443.362 43.7286 434.638C41.632 425.914 42.4032 417.07 45.2468 411.166C48.0905 405.262 51.7294 400.225 60.7906 399.237C69.8517 398.249 92.3118 403.503 99.6379 405.214C106.964 406.9 105.205 409.913 104.795 409.431M61.5617 394.369C66.8635 389.188 76.6476 385.067 81.8529 386.802C87.0583 388.513 89.0826 398.948 92.7697 404.708C96.4568 410.467 101.349 412.66 104 421.336C106.627 430.011 112.097 449.965 108.603 456.809C105.108 463.677 89.3718 460.954 83.0579 462.496C76.7681 464.039 76.9609 467.413 70.7675 466.063C64.5741 464.738 49.1749 461.051 45.8975 454.447C42.6201 447.844 48.5002 435.795 51.1028 426.445C53.7296 417.118 59.5374 402.442 61.5858 398.442C63.6101 394.466 64.0198 401.261 63.3209 402.49" stroke="black" stroke-linecap="round"/>
<path d="M43.7203 525.876C54.0346 526.985 59.6015 521.876 58.3724 510.598M40.3706 531.13C50.8777 524.864 53.7214 519.201 65.3852 505.32M52.0344 539.299C47.1183 532.166 57.1193 525.419 77.7479 504.019M49.2149 540.673C53.3117 525.346 67.2167 514.333 80.3023 510.911M53.0225 548.457C57.3603 551.325 63.7224 522.213 88.4959 517.683M53.3117 550.915C65.096 544.408 68.6144 523.659 88.0381 510.044M63.144 558.169C77.5069 548.722 83.6762 521.466 98.2078 519.49M55.9384 566.483C62.4692 547.951 75.097 542.481 94.5448 516.863M50.2511 576.653C72.3979 552.482 79.9409 541.758 88.9297 524.093M63.8911 575.159C65.4334 560.988 77.3382 546.312 93.2916 529.033M61.2402 589.136C69.9158 572.676 81.0976 549.758 104.57 530.262M60.9751 584.798C68.3493 572.387 83.7485 562.121 99.5091 533.805M89.1948 580.316C90.954 566.242 98.2319 558.795 115.222 549.999M81.3145 573.568C88.761 568.001 99.0271 558.338 105.1 542.336" stroke="#868E96" stroke-width="0.5" stroke-linecap="round"/>
<path d="M90.1831 516.839C94.5691 521.707 100.401 531.154 102.353 538.191C104.329 545.228 105.269 553.325 101.919 559.012C98.5695 564.7 89.6288 569.399 82.2787 572.339C74.9285 575.303 63.337 579.255 57.8425 576.725C52.3479 574.219 52.4684 564.989 49.3115 557.229C46.1545 549.469 38.4429 538.48 38.8767 530.19C39.2864 521.9 45.4316 511.393 51.8419 507.465C58.2522 503.537 67.9881 502.476 77.3384 506.67C86.6647 510.863 103.895 524.527 107.823 532.648C111.752 540.77 102.401 556.072 100.931 555.373M71.4824 507.706C77.7963 506.838 84.8813 506.284 90.7856 511.032C96.6898 515.755 106.402 526.358 106.932 536.143C107.462 545.903 97.4609 563.254 93.9666 569.64C90.4482 576.026 92.4725 572.773 85.8694 574.484C79.2663 576.171 61.2645 583.617 54.3722 579.81C47.5041 576.002 45.3834 559.229 44.5881 551.59C43.7929 543.975 46.998 540.48 49.673 534.022C52.3238 527.587 56.2761 517.104 60.5897 512.959C64.9034 508.839 72.4946 510.959 75.5551 509.2C78.6157 507.417 78.2542 502.091 78.9048 502.356" stroke="black" stroke-linecap="round"/>
<path d="M169.569 519.906L1143.09 519.978L1147.98 599.842L170.243 589.359" fill="#CED4DA"/>
<path d="M171.81 518.677C414.196 514.532 647.978 523.834 1152.39 516.725M170.605 516.58C536.883 509.616 901.377 509.399 1148.97 516.845M1156.13 526.919C1145.93 533.016 1149.02 544.246 1148.05 587.527M1144.51 522.075C1149.02 546.246 1148.82 569.694 1150.15 592.154M1152.46 587.961C916.777 597.143 696.899 594.588 170.605 596.42M1146.41 594.684C831.298 584.105 519.291 584.587 175.497 592.13M175.617 596.396C168.822 574.586 173.93 542.535 171.497 512.098M176.437 594.106C172.051 562.754 171.545 537.329 174.147 520.075" stroke="black" stroke-linecap="round"/>
<path d="M173.587 614.631C177.443 610.631 178.985 607.209 186.191 598.292M175.877 614.463C176.648 609.113 182.07 603.209 188.553 597.57M176.19 622.223C175.78 621.885 181.516 612.246 200.192 592.75M175.274 628.753C178.6 619.692 192.722 611.932 200.867 601.016M172.286 639.983C180.817 641.502 197.927 632.826 215.471 604.968M175.515 646.707C180.817 626.657 199.71 619.837 210.29 597.57M177.154 656.033C190.457 642.851 203.133 624.126 225.255 596.822M174.84 651.768C185.854 645.96 201.614 626.488 222.604 598.726M176.118 673.89C189.396 652.491 199.06 641.357 230.774 595.714M177.805 670.83C189.854 656.539 205.47 638.538 235.377 597.015M167.78 683.072C206.555 647.695 225.785 625.91 249.017 602.847M176.985 691.193C206.169 650.201 229.424 626.175 249.908 601.353M174.696 696.447C196.505 674.975 232.268 640.465 257.355 601.377M174.575 703.05C197.445 672.951 221.158 653.961 265.621 602.317M178.022 709.942C218.363 673.168 240.799 636.417 278.996 594.22M176.527 710.689C214.965 675.385 242.847 640.08 280.393 593.834M187.107 717.461C219.592 679.265 250.366 647.623 289.117 593.81M186.287 712.232C228.653 664.878 264.681 623.813 284.852 595.497M201.879 705.243C233.16 671.071 267.332 632.441 300.251 602.293M197.831 716.304C233.111 681.554 257.957 654.009 301.191 597.16M216.411 711.653C237.522 688.735 257.957 655.961 307.023 601.184M210.242 718.762C243.787 685.048 267.621 646.177 319.602 600.341M233.907 706.376C260.126 691.675 276.2 662.709 333.025 589.4M224.966 710.231C262.175 674.589 296.371 631.597 327.579 601.69M230.509 714.955C273.718 688.639 291.84 652.539 336.905 592.268M240.052 717.389C273.549 679.096 308.276 633.139 342.616 595.593M260.199 721.919C293.913 670.709 322.855 631.621 355.726 603.112M250.559 709.195C274.104 684.735 301.841 657.118 354.81 596.196M264.392 718.305C309.071 666.83 340.134 635.67 372.379 592.244M261.982 715.485C296.419 680.759 321.289 647.912 369.246 601.642M273.164 720.377C320.542 661.431 361.992 627.115 381.946 602.799M280.972 713.75C302.781 687.169 323.313 667.769 377.391 596.678M291.961 720.811C322.253 681.241 347.991 638.947 394.067 605.474M290.346 718.835C315.313 681.602 346.183 654.443 389.995 593.955M308.468 709.147C328.133 671.842 380.211 636.995 402.767 594.437M305.697 719.799C332.182 684.157 360.233 651.888 408.358 598.196M322.277 710.4C340.134 693.7 366.522 672.806 408.238 596.244M319.554 712.256C350.714 670.902 393.224 632.826 418.721 599.281M335.797 707.918C362.763 676.059 410.165 624.247 425.203 592.195M332.712 711.316C360.209 683.12 386.838 644.153 431.059 594.172M341.918 721.727C369.053 678.252 405.876 644.104 446.772 604.486M343.171 717.485C362.377 690.302 382.331 661.287 444.434 599.377M345.653 721.1C383.368 688.181 404.406 649.045 451.35 600.919M350.063 719.485C387.826 681.891 422.673 642.586 455.399 597.473M372.619 720.425C401.779 683.096 439.47 641.984 470.702 591.473M363.655 716.063C393.875 677.433 418.913 649.069 469.834 598.389M375.029 711.147C412.286 692.736 428.866 666.589 484.727 589.545M380.331 718.907C398.598 687.41 422.6 668.083 476.076 594.533M394.308 718.883C416.214 687.555 444.892 663.335 486.029 594.075M392.429 716.714C422.046 680.084 453.375 645.96 492.053 594.075M409.37 716.184C437.301 672.42 463.303 643.839 501.596 598.437M401.972 716.377C437.325 670.878 473.425 634.682 501.524 594.919M422.118 718.256C458.676 663.167 507.573 611.908 524.249 589.882M420.793 716.931C442.675 685.988 466.87 656.178 521.96 596.919M421.227 714.955C460.074 672.131 488.703 648.105 534.226 597.16M426.432 712.159C454.001 687.458 487.547 653.479 531.31 595.039M448.579 708.617C476.678 683.699 491.595 652.467 546.203 593.497M449.013 712.569C469.955 688.759 490.39 656.154 545.504 601.281M447.254 723.269C494.005 683.265 527.213 638.706 553.819 602.004M459.592 719.293C490.824 672.83 523.406 639.381 554.71 599.305M462.918 707.436C489.089 683.385 509.573 674.397 576.761 598.702M466.846 717.027C507.501 671.143 535.817 629.741 572.037 595.136M472.63 716.883C504.946 686.133 521.839 675.77 586.015 598.774M482.438 715.461C520.875 674.638 550.035 628.488 579.484 600.823M489.667 721.052C530.78 674.589 571.507 633.742 589.388 597.859M492.367 713.22C521.357 690.519 538.492 662.106 595.702 598.437M508.127 708.593C528.322 684.566 572.326 653.623 614.644 600.726M509.019 710.424C538.13 681.168 568.76 642.924 612.596 600.702M530.66 706.038C546.107 674.758 592.81 638.393 621.633 601.04M523.478 711.244C552.445 681.048 581.267 640.369 624.332 595.81M532.298 709.677C554.108 687.458 583.87 668.637 639.514 590.701M528.491 717.1C563.048 672.252 600.618 641.285 631.393 598.365M545.962 704.279C582.038 670.155 612.62 637.236 640.309 597.545M547.794 709.942C579.701 671.77 615.897 634.899 650.503 594.268M549.264 710.665C576.279 684.735 611.583 662.636 657.034 598.196M562.952 713.003C577.194 688.928 608.282 658.226 660.649 601.233M567.772 709.774C593.678 692.157 613.174 654.901 676.385 594.437M569.796 717.991C599.293 679.722 623.874 650.539 670.939 594.413M588.81 719.823C617.078 666.348 668.818 631.621 679.687 603.04M580.785 717.389C622.886 676.011 657.516 631.067 685.832 595.81M591.196 719.172C622.283 690.952 643.201 666.564 689.977 597.28M598.04 717.558C620.235 688.302 638.936 655.262 696.002 599.955M609.848 705.364C644.816 678.084 663.324 646.755 716.558 593.159M612.258 714.111C629.754 680.662 660.841 660.684 710.943 595.834M622.597 723.438C654.431 691.001 675.71 670.179 724.751 590.87M625.85 714.039C651.732 681.988 678.699 644.321 720.872 598.509M635.562 711.099C670.77 672.71 692.628 643.189 734.897 603.209M633.899 709.436C667.228 677.12 705.111 631.091 739.187 594.099M647.25 719.871C671.348 674.493 714.943 641.598 751.935 598.871M647.442 718.883C676.722 685.024 704.605 657.576 752.875 601.956M656.817 721.558C689.953 681.096 708.244 657.576 756.49 598.847M664.794 712.858C696.411 671.987 728.318 635.597 763.406 601.04M666.48 713.87C711.184 680.132 744.006 634.971 773.07 599.401M675.542 713.003C709.015 675.047 752.513 629.235 779.191 600.606M690.097 719.654C723.787 680.59 755.887 637.911 780.492 592.412M689.615 717.654C705.255 684.084 726.993 666.902 785.384 596.533M697.544 718.979C732.511 687.193 760.707 646.008 791.385 593.834M702.846 714.232C723.113 686.205 748.465 659.287 795.988 602.992M719.667 706.183C739.789 688.085 756.417 668.372 822.062 604.389M716.341 710.738C752.055 665.938 790.975 621.331 815.676 597.304M715.787 718.353C741.548 682.807 771.118 658.467 817.918 599.449M721.281 719.413C760.177 674.493 788.155 642.273 824.328 599.787M736.15 718.907C766.78 678.132 799.337 636.055 835.196 605.522M737.693 711.027C776.516 675.312 811.531 633.332 835.245 599.232M751.116 722.498C766.129 696.784 800.904 664.034 850.788 593.545M750.947 714.16C792.71 667.577 828.738 626.874 850.812 594.364M755.718 717.051C807.314 664.878 837.365 625.958 866.935 594.051M760.201 711.726C794.325 684.422 818.351 650.129 862.862 596.437M772.298 711.557C815.194 679.048 856.692 628.127 875.176 590.412M772.684 711.316C798.47 682.108 825.099 655.768 875.755 593.352M781.625 716.088C812.929 689.988 839.052 661.745 883.948 595.521M784.733 709.171C833.076 668.107 874.14 618.849 887.587 600.702M802.591 712.328C834.04 687.916 857.271 659.769 901.854 602.847M805.025 712.4C822.496 683.506 841.438 663.287 903.517 596.871M823.436 710.738C863.633 675.698 893.082 627.765 907.396 605.161M816.279 712.521C860.524 667.962 894.046 620.343 917.012 593.256M823.436 721.172C867.585 677.698 900.841 631.959 928.627 603.57M827.316 717.292C849.728 690.567 872.453 659.624 932.869 598.533M837.606 715.34C875.899 674.131 909.131 626.97 935.857 587.665M842.98 716.618C865.103 693.676 884.382 667.432 938.725 592.244M851.415 723.365C894.046 673.601 937.881 616.174 959.691 602.389M856.62 714.642C873.658 686.832 903.468 657.455 957.064 595.16M868.838 717.967C898.697 668.251 939.689 632.633 964.583 593.087M861.874 714.039C895.371 677.457 924.097 637.501 968.463 594.774M880.647 712.232C903.444 681.723 928.555 649.334 986.175 588.267M880.358 710.617C905.035 681.024 928.844 655.238 982.994 596.34M886.238 710.641C928.531 680.277 953.763 636.489 985.525 602.413M888.479 715.581C925.904 673.842 959.04 629.38 992.297 596.437M901.854 708.569C940.195 673.866 965.354 648.755 1005.65 606.582M904.48 709.798C940.267 672.445 969.379 637.236 1002.39 595.569M924.651 720.594C951.329 681.819 977.042 641.67 1024.28 606.631M915.18 714.16C953.907 681.096 978.994 641.044 1013.21 602.51M921.735 721.992C958.462 676.71 989.67 652.25 1021.94 604.727M934.17 715.075C958.39 679.915 990.345 648.924 1030.32 599.136M948.22 715.75C981.332 670.758 1012.83 637.935 1050.06 599.377M938.315 715.461C985.862 667.552 1026.13 622.078 1038.25 601.594M962.944 712.473C978.874 678.517 1027.63 639.791 1064.47 605.763M954.63 718.064C981.621 685.506 1002.56 665.36 1056.98 597.232M965.86 720.377C990.441 682.084 1029.84 661.19 1062.59 607.161M967.981 718.666C995.694 676.059 1030.18 646.346 1068.86 595.666M987.043 705.894C1024.54 676.734 1047.8 623.62 1072.67 592.653M979.139 718.329C1007.5 682.783 1042.54 648.9 1086.28 592.822M992.899 718.618C1019.75 669.264 1056.18 634.152 1098.38 604.968M989.429 716.545C1029.79 668.854 1066.04 624.102 1097.8 602.582M1010.06 717.003C1045.43 680.18 1079.53 627.187 1107.9 604.727M1010.66 713.822C1034.9 683.217 1060.93 644.9 1106.93 601.666M1012.37 712.473C1046.4 687.289 1081.44 658.323 1113.51 595.256M1020.85 714.617C1035.99 684.518 1059.8 661.263 1116.96 599.907M1025.46 710.858C1051.8 694.712 1075.41 655.479 1141.47 602.63M1032.08 710.472C1058.62 682.397 1094.19 645.044 1130.99 594.533M1052.23 721.63C1065.39 679.698 1103.73 650.129 1137.93 588.484M1046.01 711.943C1077.85 673.674 1116.79 631.573 1146.46 602.124M1061.92 718.497C1087.46 677.843 1117.9 638.827 1147.83 607.064M1054.47 712.497C1075.05 689.049 1103.03 658.25 1152.1 597.184M1069.63 706.496C1086.07 694.881 1119.63 669.866 1163.08 621.572M1071.99 710.738C1091.27 686.133 1120.57 655.599 1151.28 621.042M1086.98 721.221C1105.54 681.626 1112.33 661.431 1148.29 637.839M1078.52 712.906C1110.89 687.386 1131.83 659.19 1150.63 629.549M1085.87 722.305C1114.07 695.459 1133.3 677.626 1160.77 636.923M1090.62 716.425C1114.91 694.76 1127.23 676.638 1156.34 641.237M1103.44 708.472C1129.11 692.639 1124.79 680.542 1158.39 660.636M1104.12 712.593C1119.54 693.989 1134.31 688.205 1156.84 662.106M1128.65 707.195C1129.3 695.772 1152.22 678.252 1160.46 677.819M1117.15 718.232C1127.61 697.7 1145.61 682.783 1160.07 670.999M1129.76 717.292C1141.11 702.881 1148.63 708.087 1154.17 689.723M1130.05 713.437C1143.11 701.676 1148.36 692.832 1157.69 689.675M1148.43 713.991C1147.71 708.689 1152.63 708.087 1155.13 706.834M1145.2 715.196C1149.59 711.967 1151.01 707.749 1155.35 703.99" stroke="#CED4DA" stroke-width="0.5" stroke-linecap="round"/>
<path d="M178.745 595.666C435.614 596.027 693.182 595.352 1151.76 601.763M172.262 598.533C395.851 590.749 611.535 592.219 1151.9 597.304M1147.01 602.727C1152.12 625.283 1147.52 646.201 1157.52 710.737M1149.23 593.617C1155.01 633.212 1149.06 681.361 1152.36 716.015M1152.53 718.835C923.736 700.761 697.472 701.773 178.938 708.713M1149.13 713.509C891.853 717.003 632.815 717.654 176.383 711.605M165.587 707.074C169.491 661.431 175.708 632.127 172.672 598.943M178.48 713.605C176.431 666.203 169.057 625.813 177.516 596.871" stroke="black" stroke-linecap="round"/>
<path d="M171.818 170.385V193.658H169V170.385H171.818ZM179.787 183.158V193.658H177.105V176.203H179.696V178.931H179.923C180.332 178.044 180.953 177.332 181.787 176.794C182.62 176.249 183.696 175.976 185.014 175.976C186.196 175.976 187.23 176.219 188.116 176.703C189.003 177.181 189.692 177.908 190.184 178.885C190.677 179.855 190.923 181.082 190.923 182.567V193.658H188.241V182.749C188.241 181.378 187.885 180.31 187.173 179.544C186.461 178.772 185.484 178.385 184.241 178.385C183.385 178.385 182.62 178.571 181.946 178.942C181.279 179.313 180.753 179.855 180.366 180.567C179.98 181.279 179.787 182.143 179.787 183.158ZM203.596 176.203V178.476H194.187V176.203H203.596ZM197.006 193.658V173.794C197.006 172.794 197.24 171.961 197.71 171.294C198.18 170.628 198.79 170.128 199.54 169.794C200.29 169.461 201.081 169.294 201.915 169.294C202.574 169.294 203.112 169.347 203.528 169.453C203.945 169.56 204.256 169.658 204.46 169.749L203.687 172.067C203.551 172.022 203.362 171.965 203.119 171.897C202.884 171.828 202.574 171.794 202.187 171.794C201.301 171.794 200.661 172.018 200.267 172.465C199.881 172.912 199.687 173.567 199.687 174.431V193.658H197.006ZM213.727 194.022C212.151 194.022 210.769 193.647 209.579 192.897C208.398 192.147 207.473 191.097 206.807 189.749C206.148 188.4 205.818 186.825 205.818 185.022C205.818 183.203 206.148 181.616 206.807 180.26C207.473 178.904 208.398 177.851 209.579 177.101C210.769 176.351 212.151 175.976 213.727 175.976C215.303 175.976 216.682 176.351 217.863 177.101C219.053 177.851 219.977 178.904 220.636 180.26C221.303 181.616 221.636 183.203 221.636 185.022C221.636 186.825 221.303 188.4 220.636 189.749C219.977 191.097 219.053 192.147 217.863 192.897C216.682 193.647 215.303 194.022 213.727 194.022ZM213.727 191.613C214.924 191.613 215.909 191.306 216.682 190.692C217.454 190.078 218.026 189.272 218.398 188.272C218.769 187.272 218.954 186.188 218.954 185.022C218.954 183.855 218.769 182.768 218.398 181.76C218.026 180.753 217.454 179.938 216.682 179.317C215.909 178.696 214.924 178.385 213.727 178.385C212.53 178.385 211.545 178.696 210.773 179.317C210 179.938 209.428 180.753 209.057 181.76C208.685 182.768 208.5 183.855 208.5 185.022C208.5 186.188 208.685 187.272 209.057 188.272C209.428 189.272 210 190.078 210.773 190.692C211.545 191.306 212.53 191.613 213.727 191.613Z" fill="black"/>
<path d="M180.405 457.328V434.056H183.223V444.419H195.632V434.056H198.45V457.328H195.632V446.919H183.223V457.328H180.405ZM203.729 457.328V439.874H206.411V457.328H203.729ZM205.092 436.965C204.57 436.965 204.119 436.787 203.74 436.431C203.369 436.074 203.183 435.646 203.183 435.146C203.183 434.646 203.369 434.218 203.74 433.862C204.119 433.506 204.57 433.328 205.092 433.328C205.615 433.328 206.062 433.506 206.433 433.862C206.812 434.218 207.002 434.646 207.002 435.146C207.002 435.646 206.812 436.074 206.433 436.431C206.062 436.787 205.615 436.965 205.092 436.965ZM223.686 443.783L221.277 444.465C221.126 444.063 220.902 443.673 220.607 443.294C220.319 442.908 219.925 442.59 219.425 442.34C218.925 442.09 218.285 441.965 217.504 441.965C216.436 441.965 215.546 442.211 214.834 442.703C214.129 443.188 213.777 443.806 213.777 444.556C213.777 445.222 214.02 445.749 214.504 446.135C214.989 446.521 215.747 446.843 216.777 447.101L219.368 447.737C220.929 448.116 222.092 448.696 222.857 449.476C223.622 450.249 224.004 451.245 224.004 452.465C224.004 453.465 223.717 454.359 223.141 455.146C222.573 455.934 221.777 456.556 220.754 457.01C219.732 457.465 218.542 457.692 217.186 457.692C215.406 457.692 213.932 457.306 212.766 456.533C211.599 455.76 210.86 454.631 210.55 453.146L213.095 452.51C213.338 453.449 213.796 454.154 214.47 454.624C215.152 455.093 216.042 455.328 217.141 455.328C218.391 455.328 219.383 455.063 220.118 454.533C220.86 453.995 221.232 453.351 221.232 452.601C221.232 451.995 221.02 451.487 220.595 451.078C220.171 450.662 219.52 450.351 218.641 450.146L215.732 449.465C214.133 449.086 212.959 448.499 212.209 447.703C211.467 446.9 211.095 445.896 211.095 444.692C211.095 443.707 211.372 442.836 211.925 442.078C212.485 441.321 213.247 440.726 214.209 440.294C215.179 439.862 216.277 439.646 217.504 439.646C219.232 439.646 220.588 440.025 221.573 440.783C222.565 441.54 223.27 442.54 223.686 443.783ZM235.632 439.874V442.146H226.587V439.874H235.632ZM229.223 435.692H231.905V452.328C231.905 453.086 232.015 453.654 232.235 454.033C232.462 454.404 232.75 454.654 233.098 454.783C233.454 454.904 233.829 454.965 234.223 454.965C234.519 454.965 234.761 454.949 234.95 454.919C235.14 454.881 235.291 454.851 235.405 454.828L235.95 457.237C235.769 457.306 235.515 457.374 235.189 457.442C234.863 457.518 234.45 457.556 233.95 457.556C233.193 457.556 232.45 457.393 231.723 457.067C231.003 456.741 230.405 456.245 229.928 455.578C229.458 454.912 229.223 454.071 229.223 453.056V435.692ZM246.57 457.692C244.994 457.692 243.611 457.317 242.422 456.567C241.24 455.817 240.316 454.768 239.649 453.419C238.99 452.071 238.661 450.495 238.661 448.692C238.661 446.874 238.99 445.287 239.649 443.931C240.316 442.574 241.24 441.521 242.422 440.771C243.611 440.021 244.994 439.646 246.57 439.646C248.146 439.646 249.524 440.021 250.706 440.771C251.896 441.521 252.82 442.574 253.479 443.931C254.146 445.287 254.479 446.874 254.479 448.692C254.479 450.495 254.146 452.071 253.479 453.419C252.82 454.768 251.896 455.817 250.706 456.567C249.524 457.317 248.146 457.692 246.57 457.692ZM246.57 455.283C247.767 455.283 248.752 454.976 249.524 454.362C250.297 453.749 250.869 452.942 251.24 451.942C251.611 450.942 251.797 449.859 251.797 448.692C251.797 447.525 251.611 446.438 251.24 445.431C250.869 444.423 250.297 443.609 249.524 442.987C248.752 442.366 247.767 442.056 246.57 442.056C245.373 442.056 244.388 442.366 243.615 442.987C242.842 443.609 242.271 444.423 241.899 445.431C241.528 446.438 241.342 447.525 241.342 448.692C241.342 449.859 241.528 450.942 241.899 451.942C242.271 452.942 242.842 453.749 243.615 454.362C244.388 454.976 245.373 455.283 246.57 455.283ZM258.573 457.328V439.874H261.163V442.51H261.345C261.663 441.646 262.239 440.946 263.073 440.408C263.906 439.87 264.845 439.601 265.891 439.601C266.088 439.601 266.334 439.605 266.629 439.612C266.925 439.62 267.148 439.631 267.3 439.646V442.374C267.209 442.351 267.001 442.317 266.675 442.271C266.357 442.218 266.02 442.192 265.663 442.192C264.815 442.192 264.057 442.37 263.391 442.726C262.732 443.074 262.209 443.559 261.823 444.181C261.444 444.794 261.254 445.495 261.254 446.283V457.328H258.573ZM272.737 463.874C272.283 463.874 271.878 463.836 271.521 463.76C271.165 463.692 270.919 463.624 270.783 463.556L271.465 461.192C272.116 461.359 272.692 461.419 273.192 461.374C273.692 461.328 274.135 461.105 274.521 460.703C274.915 460.309 275.275 459.669 275.601 458.783L276.101 457.419L269.646 439.874H272.556L277.374 453.783H277.556L282.374 439.874H285.283L277.874 459.874C277.54 460.775 277.128 461.521 276.635 462.112C276.143 462.711 275.571 463.154 274.919 463.442C274.275 463.73 273.548 463.874 272.737 463.874Z" fill="black"/>
<path d="M161.77 252.214C165.891 250.769 168.686 243.37 176.759 239.731M160.685 251.684C164.806 249.973 167.264 242.792 175.41 239.322M160.878 262.384C163.119 254.263 171.602 253.178 187.242 237.948M165.602 269.662C165.626 260.938 174.325 252.287 187.652 235.972M159.649 273.59C170.132 272.698 172.253 258.263 190.881 237.514M162.276 277.374C175.795 262.505 189.243 251.13 201.798 237.827M155.866 287.061C174.301 277.398 184.254 265.421 217.462 242.286M158.589 295.424C178.398 280.482 187.315 266.457 218.016 233.201M168.566 313.16C182.688 283.495 197.026 279.253 228.138 228.766M160.42 312.534C188.423 284.386 208.305 253.106 228.403 233.056M168.71 320.149C196.111 297.448 211.871 263.493 242.911 244.647M165.818 322.511C179.651 310.967 190.833 286.242 239.151 238.02M165.264 330.897C191.893 316.534 221.366 287.326 245.152 245.901M158.806 337.548C196.448 301.593 227.415 266.264 255.731 240.237M156.203 346.995C188.929 318.92 217.269 274.482 266.118 232.261M160.444 352.225C183.7 323.788 211.389 298.267 264.551 235.153M153.649 370.395C202.111 332.464 223.607 291.182 270.359 238.165M160.71 366.877C198.665 335.018 225.391 292.7 276.022 233.152M165.698 375.191C194.954 344.802 247.297 298.484 297.952 236.984M161.505 379.986C201.702 333.476 240.091 296.605 286.891 232.887M163.481 406.302C218.836 343.645 255.948 277.711 311.472 228.453M166.3 401.627C214.161 338.103 269.805 270.505 304.049 232.935M170.662 403.603C224.692 347.188 268.479 295.375 318.822 239.177M166.975 404.591C195.725 364.274 229.656 327.379 316.46 233.923M177.651 413.387C215.872 350.899 263.587 301.593 336.053 236.502M176.88 411.821C236.645 346.296 289.951 285.302 328.726 240.695M197.484 409.556C227.849 370.419 252.116 334.56 336.559 244.792M193.845 405.989C222.884 372.178 249.152 340.344 342.607 235.394M213.39 409.122C253.851 355.213 298.675 313.112 348.801 240.045M208.69 407.893C241.778 360.611 272.938 325.33 351.885 237.538M210.594 414.4C249.152 349.983 294.217 312.63 367.092 227.537M221.173 410.592C268.094 342.103 323.618 274.265 362.633 238.502M222.137 413.677C278.625 349.092 346.391 267.035 372.128 232.863M231.247 410.399C273.034 363.672 313.496 313.98 378.394 232.743M233.633 410.688C277.95 367.792 323.858 322.583 395.986 244.599M243.609 409.001C286.144 358.972 334.438 306.099 391.504 238.912M248.453 405.917C288.168 366.828 324.148 326.246 407.698 243.949M258.936 405.941C297.518 360.37 335.836 322.246 406.783 234.791M269.467 406.905C305.953 357.864 336.992 313.835 416.904 243.78M268.696 410.327C321.521 348.441 365.622 293.881 413.602 236.261M287.204 409.532C336.607 351.67 382.298 289.327 436.4 241.153M285.132 404.423C311.93 374.058 350.415 338.03 429.002 241.804M300.169 408.278C343.62 354.201 390.877 294.05 449.341 238.888M297.422 413.267C352.584 343.79 405.77 290.267 439.003 236.189M302.868 416.062C347.042 367.31 381.238 336.753 456.86 227.561M311.231 410.255C349.62 349.718 402.613 299.689 459.438 241.515M325.57 416.689C360.778 356.731 400.999 323.764 467.849 244.575M314.701 406.182C363.477 352.899 415.024 308.606 471.175 233.201M324.268 405.844C386.467 364.081 416.567 304.702 485.465 241.515M335.45 414.4C387.359 343.404 439.581 276.313 477.175 240.165M344.029 411.435C399.167 353.116 436.834 303.304 488.911 229.441M347.138 405.507C388.564 367.431 424.688 321.185 497.587 241.033M354.584 417.942C401.336 368.515 439.677 300.099 498.599 240.912M358.946 406.423C396.3 362.201 447.196 319.137 502.961 233.61M371.646 407.049C431.628 349.791 474.187 278.145 519.445 243.756M366.706 407.772C418.519 353.743 454.378 310.823 515.275 237.105M381.045 406.808C425.531 356.08 462.668 322.366 528.915 238.189M386.274 404.712C422.374 364.804 458.354 326.897 531.759 236.237M403.746 414.761C451.63 350.104 513.998 286.941 535.952 228.405M396.709 408.616C430.809 361.141 473.609 317.522 548.532 241.418M400.661 408.519C445.22 364.346 488.212 316.004 549.761 242.479M412.181 410.64C452.161 352.417 500.888 304.774 561.738 232.767M414.856 403.941C465.222 367.6 497.201 316.944 561.642 246.262M425.074 412.664C451.895 374.106 484.839 337.862 571.811 239.539M437.822 407.652C462.499 368.708 505.25 311.907 590.801 240.286M429.749 410.303C478.115 362.467 517.806 314.992 584.56 236.044M455.173 417.701C504.359 335.5 561.449 284.338 589.235 231.562M442.834 404.471C503.395 345.718 556.629 281.446 596.392 240.31M467.222 414.4C496.743 369.552 520.119 325.644 603.091 234.092M459.39 413.243C509.733 348.369 566.003 285.832 614.394 238.936M476.886 399.531C503.467 369.576 544.965 320.221 619.671 240.599M473.199 406.399C523.421 346.923 567.907 295.496 622.371 237.442M490.96 406.64C536.217 359.527 566.124 305.617 632.564 242.382M481.248 413.701C526.963 354.803 571.161 311.425 639.577 233.514M507.901 405.218C543.736 356.707 596.344 291.327 642.71 239.587M494.285 411.146C544.483 348.875 593.428 293.761 648.108 238.309M519.252 407.266C567.257 353.598 606.297 293.833 665.773 241.731M512.384 410.014C554.388 359.31 600.633 310.967 661.266 240.045M516.721 410.134C584.053 347.14 617.021 298.508 675.484 239.539M525.927 410.64C565.377 351.55 608.345 308.654 670.327 235.056M531.952 406.808C592.078 338.512 638.951 283.23 687.847 243.949M539.278 404.615C575.595 364.78 618.78 317.329 683.847 239.466M547.447 405.652C588.584 355.165 626.708 319.715 704.74 238.623M552.58 405.724C588.849 368.78 623.286 326.487 703.367 233.562M555.545 402.23C617.888 349.791 656.952 309.666 720.911 238.285M566.052 413.604C612.297 349.983 666.038 285.278 714.741 231.273M584.921 399.049C605.646 380.107 637.432 333.403 725.369 241.25M571.474 406.085C621.31 365.093 655.772 315.498 721.393 234.14M586.102 416.014C631.118 360.659 662.23 330.343 745.443 231.755M585.499 408.953C625.817 357.719 668.616 308.75 734.165 235.249M591.5 415.46C631.432 361.816 671.749 331.451 740.358 238.96M600.778 412.881C649.313 356.659 705.704 297.906 745.058 241.153M608.586 399.916C650.759 365.19 679.894 335.355 764.457 241.876M617.695 405.266C665.748 339.79 720.935 285.495 759.083 236.116M629.239 413.339C673.05 355.647 728.309 302.894 780.145 229.537M627.889 411.411C681.75 348.176 738.479 284.242 774.121 234.092M635.312 408.399C677.003 357.382 715.151 314.727 794.002 230.526M642.493 411.604C671.604 368.564 703.921 324.607 785.616 232.863M657.579 411.146C689.944 362.539 733.297 308.582 806.172 236.43M648.373 410.929C685.534 364.539 719.778 330.439 796.991 235.128M667.484 405.82C715.753 345.405 768.964 304.678 811.594 231.465M667.026 412.158C695.776 373.215 728.116 327.379 814.631 241.25M674.544 402.977C716.742 361.744 752.456 334.512 826.536 231.538M672.135 408.495C709.464 360.756 749.709 322.896 829.379 231.875M695.149 401.458C725.827 365.527 765.662 325.017 831.886 236.695M687.1 404.76C735.032 355.815 786.99 297.858 840.513 237.707M695.92 418.087C744.19 350.056 792.677 303.4 857.527 231.658M702.596 410.062C744.841 359.189 784.363 311.353 856.442 235.345M716.525 410.929C746.72 370.66 769.831 338.681 867.937 234.791M716.163 410.712C746.937 366.25 783.182 327.379 860.852 236.454M736.045 405.387C782.411 354.634 835.525 295.52 884.999 240.671M727.056 411.17C788.243 338.657 846.49 274.819 880.927 231.682M737.924 417.556C798.22 335.837 854.49 266.867 892.807 230.405M737.105 407.073C788.942 358.587 835.356 308.919 885.963 241.322M749.853 406.784C786.749 368.323 812.197 333.982 902.881 230.14M755.276 406.664C811.522 341.958 868.058 279.205 903.893 239.996M773.783 411.05C788.749 371.214 824.078 339.765 916.593 244.069M769.687 403.941C799.328 377.818 822.198 334.247 919.75 236.141M787.182 403.097C832.826 355.719 868.829 306.148 932.57 235.851M780.917 409.821C822.174 356.345 868.395 298.171 924.811 235.297M788.845 406.688C840.007 362.418 874.661 317.57 947.825 235.225M793.448 405.844C829.934 357.55 880.999 310.196 940.33 232.863M800.027 410.399C855.358 355.55 905.604 292.845 945.753 242.117M800.75 404.302C860.346 341.091 922.449 279.253 951.078 235.201M813.884 406.832C875.986 346.513 913.942 281.422 974.358 237.056M815.209 411.7C878.951 342.272 927.269 279.904 967.562 233.08M835.211 402.832C885.337 343.718 934.306 293.086 980.069 239.466M834.03 411.604C889.482 348.152 941.824 281.47 978.84 232.478M849.14 400.832C887.313 372.275 916.448 322.607 1001.71 240.912M840.152 405.29C893.314 344.658 948.572 283.712 995.517 237.611M860.925 409.098C916.979 343.718 963.851 277.325 1002.63 245.949M854.972 404.23C894.326 364.684 939.8 311.04 1000.96 235.418M864.515 403.724C910.327 353.164 972.334 292.821 1014.7 234.839M871.769 403.266C902.206 370.154 935.752 325.74 1021.47 236.888M882.445 416.038C937.246 356.466 972.334 299.183 1031.91 241.9M879.505 411.725C917.147 373.528 953.537 331.741 1032.7 241.274M894.253 400.061C925.558 368.78 967.851 321.137 1035.14 242.117M891.048 409.001C941.053 357.261 981.636 308.558 1045.81 239.876M903.531 407.146C964.839 345.959 1012.43 285.929 1051.31 238.671M907.435 405.146C942.523 370.564 972.02 335.042 1054.03 237.586M927.678 413.845C959.609 356.129 1011.18 295.4 1064.1 244.117M920.617 405.121C963.296 357.334 1014.15 303.617 1072.15 235.514M926.449 401.193C973.322 348.296 1037.5 300.798 1073.14 232.911M932.113 412.568C986.6 350.658 1029.45 293.761 1083.28 233.345M938.161 403.748C1007.3 339.741 1071.28 271.469 1101.09 238.237M947.801 412.737C988.335 357.526 1037.14 311.281 1097.58 240.864M951.946 413.604C1008.39 347.333 1079.07 282.724 1098.61 246.816M959.658 413.122C999.252 351.67 1046.32 299.496 1108.37 241.683M966.719 410.086C997.854 377.046 1040.46 333.187 1124.93 237.803M969.466 407.001C1031.04 340.633 1086.35 270.12 1122.32 233.731M979.25 417.966C1024.6 366.973 1061.23 313.883 1137.07 231.827M980.093 404.471C1013.08 373.215 1049.33 335.163 1134.74 241.201M1004.58 402.326C1047.35 341.115 1118.28 278.603 1151.36 233.562M1000.1 405.652C1029.76 364.009 1067.57 325.619 1149.89 239.322M1006.1 403.82C1053.06 376.42 1077.93 335.042 1165.82 243.924M1005.93 412.423C1067.81 336.777 1123.12 279.47 1154.95 235.659M1012.55 414.183C1064.01 356.418 1111.31 310.726 1159.63 250.383M1023.64 411.267C1058.92 361.286 1097.72 318.655 1151.73 252.142M1028.75 415.219C1072.51 357.406 1136.04 302.34 1148.23 274.458M1033.47 404.254C1063.57 373.962 1091.86 341.886 1157.12 268.023M1056.05 408.495C1083.48 356.225 1117.96 314.63 1149.58 284.435M1051.28 411.194C1095 362.563 1134.61 311.546 1153.56 278.94M1061.16 415.773C1091.53 365.431 1125.46 340.802 1164.16 301.472M1062.25 404.278C1088.56 380.83 1109.79 349.983 1158.93 298.195M1073.62 412.303C1089.02 380.709 1123.6 353.333 1161.27 305.545M1073.28 406.495C1108.47 377.215 1139.72 332.632 1158.52 312.51M1077.33 404.399C1103.72 388.734 1116.59 360.033 1157.48 322.824M1085.28 407.122C1107.7 387.698 1126.45 361.454 1157.65 332.464M1089 401.169C1127.17 383.336 1135.15 361.045 1164.33 350.899M1097.48 411.917C1120.64 383.408 1147.56 352.755 1152.18 348.007M1107.46 415.171C1135.15 392.229 1143.56 375.914 1158.95 360.105M1108.42 406.712C1126.71 392.952 1133.51 377.673 1160.11 360.177M1114.88 414.761C1124.54 401.025 1143 393.241 1150.95 371.745M1120.47 407.724C1131.55 401.507 1142.69 388.349 1156.95 374.275M1140.13 404.254C1147.89 397.771 1146.98 397.988 1152.38 384.493M1139.46 406.64C1142.88 402.447 1152.64 395.675 1153.94 385.023M1150.28 407.555C1152.33 405.82 1153.8 401.266 1157.75 400.928M1149.07 408.447C1153.15 405.82 1155.2 403.194 1155.8 402.037" stroke="#CED4DA" stroke-width="0.5" stroke-linecap="round"/>
<path d="M164.614 234.574C478.742 238.671 790.098 238.984 1148.69 232.357M162.589 235.586C467.946 231.923 770.458 233.586 1152.79 238.02M1153.58 245.708C1145.34 293.954 1154.74 355.454 1162.06 409.098M1150.64 234.164C1154.01 283.712 1149.03 341.115 1155.27 405.7M1158.06 408.134C868.516 404.543 571.281 407.122 164.855 402.326M1150.91 407.652C784.99 395 419.917 396.687 159.987 405.652M169.674 399.41C152.492 357.43 160.131 311.329 159.842 229.441M165.072 408.013C160.035 345.308 162.324 279.205 162.758 239.225" stroke="black" stroke-linecap="round"/>
<path d="M385.824 519.409C385.173 550.69 385.968 675.738 386.378 708.175M395.608 512.469C397.102 544.81 401.319 684.318 399.102 716.056" stroke="black" stroke-linecap="round"/>
<path d="M684.577 516.301C683.999 547.388 691.903 668.268 691.927 698.681M694.313 510.276C692.482 542.352 686.818 671.907 687.469 704.031" stroke="black" stroke-linecap="round"/>
<path d="M999.958 521.82C999.717 553.269 995.259 673.473 996.946 704.922M1010.83 516.18C1013 548.81 1009.07 677.329 1008.83 711.043" stroke="black" stroke-linecap="round"/>
<path d="M169.707 74.9812C169.28 74.9812 168.95 74.8639 168.715 74.6292C168.502 74.3732 168.395 74.0319 168.395 73.6052V53.5412C168.395 53.0932 168.512 52.7625 168.747 52.5492C168.982 52.3145 169.312 52.1972 169.739 52.1972H177.323C179.734 52.1972 181.59 52.7945 182.891 53.9892C184.192 55.1625 184.843 56.8265 184.843 58.9812C184.843 61.1145 184.192 62.7785 182.891 63.9732C181.59 65.1679 179.734 65.7652 177.323 65.7652H171.019V73.6052C171.019 74.0319 170.912 74.3732 170.699 74.6292C170.486 74.8639 170.155 74.9812 169.707 74.9812ZM171.019 63.5572H177.003C178.731 63.5572 180.032 63.1732 180.907 62.4052C181.803 61.6159 182.251 60.4745 182.251 58.9812C182.251 57.4665 181.803 56.3252 180.907 55.5572C180.032 54.7679 178.731 54.3732 177.003 54.3732H171.019V63.5572ZM189.292 74.9812C188.866 74.9812 188.535 74.8639 188.3 74.6292C188.087 74.3945 187.98 74.0639 187.98 73.6372V60.2932C187.98 59.8665 188.087 59.5465 188.3 59.3332C188.514 59.0985 188.823 58.9812 189.228 58.9812C189.634 58.9812 189.943 59.0985 190.156 59.3332C190.391 59.5465 190.508 59.8665 190.508 60.2932V62.8852H190.188C190.53 61.6265 191.18 60.6559 192.14 59.9732C193.1 59.2905 194.284 58.9279 195.692 58.8852C196.012 58.8639 196.268 58.9385 196.46 59.1092C196.652 59.2585 196.759 59.5252 196.78 59.9092C196.802 60.2719 196.716 60.5599 196.524 60.7732C196.332 60.9865 196.034 61.1145 195.628 61.1572L195.116 61.2212C193.666 61.3492 192.546 61.8185 191.756 62.6292C190.988 63.4185 190.604 64.5065 190.604 65.8932V73.6372C190.604 74.0639 190.487 74.3945 190.252 74.6292C190.039 74.8639 189.719 74.9812 189.292 74.9812ZM205.726 75.0452C204.211 75.0452 202.899 74.7145 201.79 74.0532C200.68 73.3919 199.816 72.4639 199.198 71.2692C198.6 70.0532 198.302 68.6239 198.302 66.9812C198.302 65.7439 198.472 64.6345 198.814 63.6532C199.155 62.6505 199.656 61.7972 200.318 61.0932C200.979 60.3892 201.758 59.8559 202.654 59.4932C203.571 59.1092 204.595 58.9172 205.726 58.9172C207.24 58.9172 208.552 59.2479 209.662 59.9092C210.771 60.5705 211.624 61.5092 212.222 62.7252C212.84 63.9199 213.15 65.3385 213.15 66.9812C213.15 68.2185 212.979 69.3279 212.638 70.3092C212.296 71.2905 211.795 72.1439 211.134 72.8692C210.472 73.5732 209.683 74.1172 208.766 74.5012C207.87 74.8639 206.856 75.0452 205.726 75.0452ZM205.726 72.9652C206.686 72.9652 207.528 72.7305 208.254 72.2612C208.979 71.7919 209.534 71.1092 209.918 70.2132C210.323 69.3172 210.526 68.2399 210.526 66.9812C210.526 65.0399 210.088 63.5572 209.214 62.5332C208.36 61.5092 207.198 60.9972 205.726 60.9972C204.744 60.9972 203.891 61.2319 203.166 61.7012C202.462 62.1492 201.907 62.8212 201.502 63.7172C201.118 64.5919 200.926 65.6799 200.926 66.9812C200.926 68.9012 201.363 70.3839 202.238 71.4292C203.112 72.4532 204.275 72.9652 205.726 72.9652ZM218.999 74.9812C218.593 74.9812 218.273 74.8639 218.039 74.6292C217.825 74.3945 217.719 74.0639 217.719 73.6372V61.2212H215.671C215.329 61.2212 215.052 61.1359 214.839 60.9652C214.647 60.7732 214.551 60.5172 214.551 60.1972C214.551 59.8772 214.647 59.6319 214.839 59.4612C215.052 59.2905 215.329 59.2052 215.671 59.2052H218.423L217.719 59.8772V58.6612C217.719 56.6559 218.199 55.1199 219.159 54.0532C220.14 52.9865 221.58 52.3785 223.479 52.2292L224.439 52.1332C224.759 52.1119 225.015 52.1652 225.207 52.2932C225.399 52.3999 225.516 52.5492 225.559 52.7412C225.623 52.9332 225.633 53.1359 225.591 53.3492C225.548 53.5625 225.452 53.7439 225.303 53.8932C225.175 54.0425 225.015 54.1279 224.823 54.1492L223.863 54.2132C222.604 54.2985 221.697 54.6932 221.143 55.3972C220.588 56.0799 220.311 57.0612 220.311 58.3412V59.6852L219.927 59.2052H228.631C229.036 59.2052 229.345 59.3225 229.559 59.5572C229.793 59.7919 229.911 60.1332 229.911 60.5812V73.5092C229.911 73.9572 229.804 74.3092 229.591 74.5652C229.377 74.7999 229.057 74.9172 228.631 74.9172C228.204 74.9172 227.873 74.7999 227.639 74.5652C227.425 74.3092 227.319 73.9572 227.319 73.5092V61.2212H220.311V73.6372C220.311 74.5332 219.873 74.9812 218.999 74.9812ZM228.663 55.4612C228.129 55.4612 227.713 55.3225 227.415 55.0452C227.137 54.7465 226.999 54.3519 226.999 53.8612C226.999 53.3492 227.137 52.9652 227.415 52.7092C227.713 52.4319 228.129 52.2932 228.663 52.2932C229.196 52.2932 229.601 52.4319 229.879 52.7092C230.177 52.9652 230.327 53.3492 230.327 53.8612C230.327 54.3519 230.177 54.7465 229.879 55.0452C229.601 55.3225 229.196 55.4612 228.663 55.4612ZM239.498 75.0452C237.962 75.0452 236.788 74.5759 235.978 73.6372C235.167 72.6985 234.762 71.3545 234.762 69.6052V53.2852C234.762 52.8585 234.868 52.5385 235.082 52.3252C235.295 52.0905 235.615 51.9732 236.042 51.9732C236.447 51.9732 236.767 52.0905 237.002 52.3252C237.236 52.5385 237.354 52.8585 237.354 53.2852V69.4132C237.354 70.5652 237.578 71.4292 238.026 72.0052C238.495 72.5599 239.178 72.8372 240.074 72.8372C240.266 72.8372 240.436 72.8265 240.586 72.8052C240.735 72.7839 240.884 72.7732 241.034 72.7732C241.268 72.7519 241.428 72.8052 241.514 72.9332C241.62 73.0612 241.674 73.3172 241.674 73.7012C241.674 74.0852 241.588 74.3732 241.418 74.5652C241.247 74.7572 240.97 74.8852 240.586 74.9492C240.415 74.9705 240.234 74.9919 240.042 75.0132C239.85 75.0345 239.668 75.0452 239.498 75.0452ZM251.082 75.0452C249.44 75.0452 248.021 74.7252 246.826 74.0852C245.653 73.4239 244.736 72.4959 244.074 71.3012C243.434 70.1065 243.114 68.6772 243.114 67.0132C243.114 65.3919 243.434 63.9839 244.074 62.7892C244.714 61.5732 245.589 60.6239 246.698 59.9412C247.829 59.2585 249.13 58.9172 250.602 58.9172C251.648 58.9172 252.586 59.0985 253.418 59.4612C254.25 59.8025 254.954 60.3039 255.53 60.9652C256.128 61.6265 256.576 62.4265 256.874 63.3652C257.194 64.3039 257.354 65.3599 257.354 66.5332C257.354 66.8745 257.258 67.1305 257.066 67.3012C256.874 67.4505 256.597 67.5252 256.234 67.5252H245.098V65.8292H255.626L255.114 66.2452C255.114 65.0932 254.944 64.1225 254.602 63.3332C254.261 62.5225 253.76 61.9039 253.098 61.4772C252.458 61.0505 251.648 60.8372 250.666 60.8372C249.578 60.8372 248.65 61.0932 247.882 61.6052C247.136 62.0959 246.57 62.7892 246.186 63.6852C245.802 64.5599 245.61 65.5839 245.61 66.7572V66.9492C245.61 68.9119 246.08 70.4052 247.018 71.4292C247.978 72.4532 249.333 72.9652 251.082 72.9652C251.808 72.9652 252.522 72.8692 253.226 72.6772C253.952 72.4852 254.656 72.1652 255.338 71.7172C255.637 71.5252 255.904 71.4399 256.138 71.4612C256.394 71.4612 256.597 71.5359 256.746 71.6852C256.896 71.8132 256.992 71.9839 257.034 72.1972C257.098 72.3892 257.077 72.6025 256.97 72.8372C256.885 73.0719 256.704 73.2745 256.426 73.4452C255.722 73.9572 254.89 74.3519 253.93 74.6292C252.97 74.9065 252.021 75.0452 251.082 75.0452Z" fill="black"/>
</svg>
