<svg width="497" height="300" viewBox="0 0 497 300" fill="none" xmlns="http://www.w3.org/2000/svg">
<path d="M2.04 1.35623C162.01 1.16623 320.18 1.04623 495.77 1.63623M1.53 1.13623C150.75 1.83623 300.27 1.98623 495.85 1.31623M495.04 2.48623C494.15 95.8462 494.97 187.096 496.08 299.096M495.49 1.70623C495.86 69.8962 495.95 139.266 496.21 297.536M495.76 298.346C386.37 297.056 278.06 297.656 1 297.656M496.34 297.756C368.18 296.866 240.03 296.446 1.69 298.066M2.54 297.806C2.74 185.816 4.1 77.0562 2.44 1.80623M1.14 298.246C0.97 220.916 1.96 145.326 1.73 1.45623" stroke="black" stroke-linecap="round"/>
<path d="M11.3192 66.7266C13.1892 62.2166 15.7892 62.2366 19.8492 56.9166M11.3192 66.7266C13.2092 64.8566 15.6892 61.6766 19.8492 56.9166M11.7192 72.3666C19.1792 65.5366 19.7192 66.8866 24.8392 57.2766M11.7192 72.3666C13.8492 67.9766 17.7592 66.1866 24.8392 57.2766M11.4592 78.7666C15.7792 71.6466 24.8192 64.9966 29.8292 57.6366M11.4592 78.7666C14.4392 72.4366 20.7192 65.6266 29.8292 57.6366M11.8492 84.4066C20.0492 79.5166 25.4592 68.6466 35.4692 57.2366M11.8492 84.4066C16.7192 77.6466 25.4592 69.1566 35.4692 57.2366M11.5892 90.8066C22.6592 83.0566 29.8892 70.4866 40.4592 57.5966M11.5892 90.8066C22.0892 79.3066 28.5092 71.7866 40.4592 57.5966M11.3292 97.2066C23.1392 79.5266 35.1492 66.8266 44.1292 59.4666M11.3292 97.2066C20.6492 86.5866 29.4992 74.2966 44.1292 59.4666M11.7192 102.847C18.1492 94.7666 30.0292 85.5566 45.8392 63.5966M11.7192 102.847C18.1892 94.0666 26.4292 85.7366 45.8392 63.5966M11.4592 109.247C21.4392 98.7266 25.8692 85.4666 47.5392 67.7366M11.4592 109.247C23.8592 91.9166 38.5492 77.2666 47.5392 67.7366M11.8592 114.887C23.4392 104.257 37.1092 88.7866 47.9392 73.3766M11.8592 114.887C22.4292 107.097 28.8892 95.3466 47.9392 73.3766M11.5892 121.287C20.8792 109.257 36.0192 90.8566 47.6792 79.7766M11.5892 121.287C23.0192 107.757 32.0392 96.4666 47.6792 79.7766M11.3292 127.687C23.5292 118.817 30.0992 99.8766 48.0692 85.4166M11.3292 127.687C19.6792 116.337 29.8792 103.387 48.0692 85.4166M11.7292 133.327C25.7292 117.947 31.6692 110.687 47.8092 91.8166M11.7292 133.327C19.3992 123.607 27.4392 113.357 47.8092 91.8166M11.4692 139.727C27.9192 126.387 42.0392 110.887 47.5492 98.2166M11.4692 139.727C20.1992 130.967 30.7192 117.947 47.5492 98.2166M11.8592 145.367C20.7992 137.367 25.2592 126.457 47.9392 103.857M11.8592 145.367C24.5292 128.647 39.2292 114.787 47.9392 103.857M11.5992 151.767C22.8692 132.957 37.8992 123.317 47.6792 110.257M11.5992 151.767C22.1292 139.237 35.7292 125.647 47.6792 110.257M11.3392 158.167C15.3892 152.887 26.4092 143.707 48.0792 115.897M11.3392 158.167C23.6492 140.847 41.0292 125.437 48.0792 115.897M11.7292 163.807C22.2292 146.947 32.9292 132.817 47.8192 122.297M11.7292 163.807C22.0092 151.327 27.7492 141.057 47.8192 122.297M11.4692 170.207C24.1692 158.327 38.1492 140.367 47.5492 128.697M11.4692 170.207C24.4892 155.107 33.9692 140.247 47.5492 128.697M11.8692 175.847C24.5492 165.687 28.1992 155.217 47.9492 134.337M11.8692 175.847C24.2692 163.167 31.3392 152.287 47.9492 134.337M11.5992 182.247C26.2692 164.547 42.8892 154.427 47.6892 140.737M11.5992 182.247C23.6992 169.087 36.5592 151.537 47.6892 140.737M11.3392 188.647C20.9992 180.277 25.7192 175.177 48.0792 146.377M11.3392 188.647C20.6892 176.387 31.3992 166.067 48.0792 146.377M11.7392 194.287C23.4192 182.537 24.8992 179.717 47.8192 152.777M11.7392 194.287C27.8492 178.037 40.5592 163.447 47.8192 152.777M11.4792 200.687C23.9992 186.697 33.1392 174.397 47.5592 159.177M11.4792 200.687C24.0792 188.407 35.5792 174.067 47.5592 159.177M11.8692 206.327C23.2592 197.727 25.4692 187.047 47.9492 164.817M11.8692 206.327C20.2592 198.407 26.3792 189.717 47.9492 164.817M11.6092 212.727C22.7292 201.217 36.6692 185.367 47.6892 171.217M11.6092 212.727C23.0992 198.767 36.5292 185.687 47.6892 171.217M11.3492 219.117C16.8992 207.027 28.4392 202.847 48.0892 176.857M11.3492 219.117C20.5092 208.907 28.1292 198.027 48.0892 176.857M11.7392 224.767C24.6692 214.507 33.2092 199.157 47.8292 183.257M11.7392 224.767C22.9092 213.407 29.8792 202.107 47.8292 183.257M11.4792 231.167C23.2992 215.957 31.8992 201.517 47.5592 189.657M11.4792 231.167C22.9192 216.137 35.2592 201.937 47.5592 189.657M11.8692 236.807C21.7792 224.507 35.6792 204.827 47.9592 195.297M11.8692 236.807C24.6792 222.927 33.8992 209.267 47.9592 195.297M11.6092 243.207C22.8092 223.737 42.3492 210.167 47.6992 201.697M11.6092 243.207C26.9492 227.967 38.8792 211.977 47.6992 201.697M11.3492 249.597C24.5192 236.557 37.4292 222.397 48.0892 207.337M11.3492 249.597C26.6292 235.857 36.9792 219.937 48.0892 207.337M11.7492 255.247C20.5792 245.397 31.0492 235.697 47.8292 213.737M11.7492 255.247C23.0992 245.047 31.3892 232.587 47.8292 213.737M11.4892 261.637C15.2792 250.707 27.1092 242.777 47.5692 220.137M11.4892 261.637C24.4592 245.877 38.5192 229.367 47.5692 220.137M12.5392 266.527C22.6792 260.667 28.4092 252.197 47.9592 225.777M12.5392 266.527C18.5492 256.167 28.7492 248.717 47.9592 225.777M15.5492 269.157C26.8592 253.537 42.9392 242.497 47.6992 232.177M15.5492 269.157C26.3292 256.077 38.3592 243.097 47.6992 232.177M18.5692 271.777C23.3992 259.337 34.6892 249.467 48.0992 237.817M18.5692 271.777C30.9092 258.147 42.2192 244.077 48.0992 237.817M23.5592 272.137C30.9192 265.727 36.6392 262.017 47.8292 244.217M23.5592 272.137C33.2292 263.147 40.0192 252.147 47.8292 244.217M28.5492 272.497C29.0792 268.247 37.0292 263.187 47.5692 250.617M28.5492 272.497C37.5692 263.877 43.7492 256.627 47.5692 250.617M33.5292 272.857C39.9192 267.097 40.0892 264.227 47.9692 256.257M33.5292 272.857C38.9692 266.747 44.4192 258.697 47.9692 256.257M39.1792 272.467C40.5892 269.217 44.5392 269.067 47.7092 262.657M39.1792 272.467C40.4792 270.127 44.9792 265.647 47.7092 262.657M21.5492 269.707C19.1292 268.527 13.6692 262.977 10.9892 260.527M21.5492 269.707C16.8892 266.097 14.0292 263.417 10.9892 260.527M27.9492 269.967C22.4892 265.107 16.3392 259.437 11.3492 255.537M27.9492 269.967C24.3292 263.087 18.4792 259.367 11.3492 255.537M34.3492 270.227C24.9492 266.307 20.1892 254.237 10.9492 249.897M34.3492 270.227C24.4192 261.557 15.9492 255.607 10.9492 249.897M38.4792 268.527C31.6092 261.887 22.4492 250.267 11.3092 244.907M38.4792 268.527C28.8192 259.037 19.1492 251.997 11.3092 244.907M44.1292 268.127C31.9992 260.407 21.6592 255.497 10.9192 239.267M44.1292 268.127C34.0992 261.657 27.1692 250.677 10.9192 239.267M45.2392 263.797C36.1292 252.197 19.4392 244.667 11.2792 234.277M45.2392 263.797C31.9592 252.387 19.5492 239.917 11.2792 234.277M47.1092 260.127C36.3892 251.787 23.2092 240.267 10.8792 228.637M47.1092 260.127C39.4992 252.527 30.9192 244.397 10.8792 228.637M46.7092 254.477C40.1392 244.807 29.8092 236.757 11.2392 223.647M46.7092 254.477C39.0592 249.307 33.0492 241.377 11.2392 223.647M47.0792 249.497C40.0292 246.837 34.9192 233.547 10.8492 218.007M47.0792 249.497C37.0892 241.377 22.9692 230.777 10.8492 218.007M46.6792 243.847C31.9092 231.907 18.8592 220.417 11.2092 213.017M46.6792 243.847C36.1492 234.047 20.3292 223.387 11.2092 213.017M47.0392 238.867C36.9392 233.467 25.4192 219.047 11.5692 208.027M47.0392 238.867C31.8792 228.107 17.9992 214.387 11.5692 208.027M47.3992 233.877C36.0092 220.397 17.7592 207.487 11.1692 202.387M47.3992 233.877C38.6192 226.087 31.1292 218.427 11.1692 202.387M47.0092 228.237C36.7292 213.367 20.3292 208.917 11.5292 197.397M47.0092 228.237C35.5092 217.487 25.5392 208.557 11.5292 197.397M47.3692 223.247C36.2692 215.257 19.0992 203.367 11.1392 191.757M47.3692 223.247C33.8592 214.647 25.5592 203.767 11.1392 191.757M46.9692 217.607C39.2792 210.617 31.3692 201.547 11.4992 186.767M46.9692 217.607C37.5292 211.557 27.9792 204.317 11.4992 186.767M47.3292 212.617C35.6892 199.507 24.8392 197.377 11.1092 181.127M47.3292 212.617C36.6492 204.167 27.9792 197.257 11.1092 181.127M46.9392 206.977C31.8892 191.657 23.7092 186.567 11.4692 176.137M46.9392 206.977C33.0292 195.727 21.2792 183.807 11.4692 176.137M47.2992 201.987C38.6592 188.837 22.3692 180.087 11.0692 170.497M47.2992 201.987C35.1792 190.587 19.4192 178.437 11.0692 170.497M46.8992 196.347C33.0392 188.537 25.4992 175.387 11.4292 165.507M46.8992 196.347C39.7992 187.487 30.6892 181.657 11.4292 165.507M47.2592 191.357C36.3792 180.637 24.2292 176.737 11.0392 159.867M47.2592 191.357C38.1892 183.967 31.2192 179.127 11.0392 159.867M46.8692 185.717C38.6992 180.537 31.6392 173.827 11.3992 154.877M46.8692 185.717C34.6092 173.817 20.3292 165.317 11.3992 154.877M47.2292 180.727C35.6692 172.187 27.1192 166.537 10.9992 149.237M47.2292 180.727C33.7992 168.187 22.6292 158.387 10.9992 149.237M46.8292 175.087C38.0292 169.467 26.5792 159.617 11.3592 144.247M46.8292 175.087C34.4892 165.137 20.1992 152.207 11.3592 144.247M47.1892 170.097C33.4392 164.517 24.9292 155.087 10.9692 138.607M47.1892 170.097C34.1892 157.017 17.8892 145.557 10.9692 138.607M46.7992 164.457C34.4092 158.257 25.6992 149.627 11.3292 133.617M46.7992 164.457C36.3692 152.467 22.3692 144.047 11.3292 133.617M47.1592 159.467C35.6992 147.167 19.6492 135.117 10.9292 127.977M47.1592 159.467C32.4192 147.497 20.4492 133.567 10.9292 127.977M46.7592 153.827C35.4592 141.247 22.8092 129.117 11.2892 122.987M46.7592 153.827C36.1792 145.237 30.2192 136.967 11.2892 122.987M47.1192 148.837C39.0392 140.787 34.1792 135.507 10.8992 117.347M47.1192 148.837C37.8592 142.797 34.0292 136.727 10.8992 117.347M46.7292 143.197C32.2292 136.457 19.8592 121.077 11.2592 112.357M46.7292 143.197C38.0892 135.387 28.5992 127.497 11.2592 112.357M47.0892 138.207C36.1392 129.377 33.5892 121.857 10.8592 106.717M47.0892 138.207C32.4892 124.537 18.0092 113.777 10.8592 106.717M46.6992 132.567C39.4292 122.317 23.7192 116.067 11.2192 101.727M46.6992 132.567C37.8992 126.237 29.3892 117.707 11.2192 101.727M47.0592 127.577C40.4692 118.477 33.4492 116.797 11.5792 96.7366M47.0592 127.577C37.5992 118.327 27.4792 110.387 11.5792 96.7366M47.4192 122.587C33.5292 116.827 29.3492 105.747 11.1892 91.0966M47.4192 122.587C35.5092 112.797 26.5392 104.857 11.1892 91.0966M47.0192 116.947C33.1092 107.837 24.3292 97.0566 11.5492 86.1066M47.0192 116.947C37.1592 106.267 28.1192 97.5166 11.5492 86.1066M47.3792 111.957C29.2992 99.3266 18.9392 88.9466 11.1592 80.4666M47.3792 111.957C37.5392 105.677 31.9192 98.8166 11.1592 80.4666M46.9892 106.317C34.5192 101.607 26.6692 88.9966 11.5192 75.4766M46.9892 106.317C32.7592 93.4466 19.1992 83.3166 11.5192 75.4766M47.3492 101.327C32.6392 88.0766 23.0192 78.9066 11.1192 69.8366M47.3492 101.327C37.7692 92.9766 26.7292 83.6766 11.1192 69.8366M46.9492 95.6866C33.7092 83.2466 31.0592 78.2066 11.4792 64.8466M46.9492 95.6866C36.6992 89.5866 29.3992 81.5966 11.4792 64.8466M47.3092 90.6966C42.8892 82.1066 30.2992 75.3566 12.5992 60.5166M47.3092 90.6966C36.9192 83.8666 26.6192 73.8266 12.5992 60.5166M46.9192 85.0566C33.7692 77.4466 25.2192 65.1666 14.4692 56.8466M46.9192 85.0566C33.9792 75.8766 21.5892 62.8566 14.4692 56.8466M47.2792 80.0666C41.4892 74.7766 32.4692 70.1066 20.1092 56.4466M47.2792 80.0666C38.9292 74.4766 29.4592 63.0466 20.1092 56.4466M46.8792 74.4266C40.4292 66.6266 31.8092 63.7766 26.5092 56.7166M46.8792 74.4266C42.8292 68.3466 35.7592 63.8766 26.5092 56.7166M47.2392 69.4366C43.2792 67.5466 34.3792 57.8466 32.1492 56.3166M47.2392 69.4366C42.9992 65.0366 40.6692 60.7066 32.1492 56.3166M46.8492 63.7966C45.0692 61.7566 39.3092 57.2966 38.5492 56.5766M46.8492 63.7966C44.9692 62.7766 42.4292 60.4166 38.5492 56.5766" stroke="#CED4DA" stroke-width="0.5" stroke-linecap="round"/>
<path d="M19.3692 56.7766C20.7892 60.2966 26.4392 55.8866 36.9992 56.7766M19.3692 56.7766C26.2792 56.9966 32.1492 57.1366 36.9992 56.7766M36.9992 56.7766C46.3192 57.3266 45.1692 63.6066 45.8092 65.5966M36.9992 56.7766C47.2792 53.0766 43.0092 58.1166 45.8092 65.5966M45.8092 65.5966C52.8692 126.947 46.9392 182.217 45.8092 261.487M45.8092 65.5966C42.2192 129.207 42.9792 194.177 45.8092 261.487M45.8092 261.487C45.1092 268.637 40.5192 271.957 36.9992 270.307M45.8092 261.487C47.5392 263.707 46.0292 266.687 36.9992 270.307M36.9992 270.307C28.4492 271.817 27.3592 266.927 19.3692 270.307M36.9992 270.307C31.1292 269.807 24.5292 269.897 19.3692 270.307M19.3692 270.307C14.7092 274.297 13.1092 263.447 10.5492 261.487M19.3692 270.307C10.1392 268.117 6.63919 265.147 10.5492 261.487M10.5492 261.487C10.1792 200.127 8.32919 145.107 10.5492 65.5966M10.5492 261.487C10.2092 188.407 9.43919 115.897 10.5492 65.5966M10.5492 65.5966C7.59919 58.5166 10.6592 57.6866 19.3692 56.7766M10.5492 65.5966C11.8692 61.7066 15.1292 59.6466 19.3692 56.7766" stroke="black" stroke-linecap="round"/>
<path d="M19.4195 88.4999C20.9295 86.7199 19.1095 84.9599 24.1095 79.0499M17.9895 89.2299C19.8995 83.9999 23.4095 82.1999 25.4495 79.8899M22.5495 92.1299C24.8195 85.6399 32.7495 78.8099 31.7195 79.1499M17.8995 91.9499C26.2395 88.6999 30.1695 79.7299 32.7195 76.2899M25.7695 97.4799C29.2295 94.7299 30.9195 83.3199 36.2795 75.9999M21.8395 96.9399C26.7495 88.2799 31.9095 83.5199 37.0695 77.3599M23.9195 98.9799C26.0095 94.8599 32.5795 91.7699 42.2395 83.0999M22.0795 103.44C30.8695 92.8199 37.6295 84.6199 40.7795 80.9199M24.2295 99.8199C32.9195 96.8399 34.3195 95.8399 40.4695 86.1199M27.8795 102.83C31.8895 99.8999 35.5895 96.0199 40.9995 84.6699M31.1795 103.25C31.5295 101.76 34.9295 97.3999 45.0395 86.1399M30.0795 103.79C33.0395 100.3 38.8495 96.9499 43.9995 91.3399" stroke="#868E96" stroke-width="0.5" stroke-linecap="round"/>
<path d="M32.5896 75.1799C35.4496 75.8699 39.1096 78.5399 40.6896 80.7899C42.2796 83.0299 42.2096 85.7799 42.0996 88.6599C41.9796 91.5299 42.0396 95.5199 39.9996 98.0599C37.9496 100.6 32.8496 103.33 29.8296 103.88C26.8096 104.44 23.6896 103.05 21.8696 101.4C20.0496 99.7399 19.5996 96.9999 18.8996 93.9399C18.1896 90.8799 16.9596 85.8299 17.6396 83.0099C18.3296 80.1899 19.0996 76.4499 23.0096 77.0299C26.9196 77.6099 38.4596 82.8899 41.0896 86.4799C43.7296 90.0799 38.7296 98.5199 38.8096 98.6099M19.9596 79.3699C21.5096 76.7199 25.6496 72.7799 28.5196 72.5199C31.3896 72.2599 34.6096 75.5699 37.1796 77.8099C39.7496 80.0499 43.6296 82.5799 43.9296 85.9799C44.2296 89.3699 40.6896 95.3199 38.9696 98.1599C37.2496 101 35.4696 102.36 33.5896 103.02C31.7096 103.67 30.2496 102.87 27.6896 102.09C25.1296 101.31 19.6396 101.5 18.1996 98.3399C16.7696 95.1699 18.4896 86.8799 19.0896 83.0899C19.6996 79.3099 21.5496 76.8899 21.8096 75.6299C22.0796 74.3699 20.0896 75.0999 20.6696 75.5299" stroke="black" stroke-linecap="round"/>
<path d="M21.7233 132.773C24.6233 124.563 27.5733 122.133 32.3233 121.573M22.7633 129.443C24.1733 125.683 30.4633 121.893 33.5033 119.603M20.2933 137.523C24.7433 134.513 28.8133 124.883 39.1033 123.953M20.1033 139.163C28.4333 131.783 31.0333 124.673 36.2433 120.753M23.4133 145.873C30.9033 136.803 29.8233 129.903 36.3433 127.033M22.8733 142.223C27.4633 134.093 35.9433 128.133 37.7033 123.423M22.2833 143.853C29.3633 139.203 37.4533 135.713 43.9433 130.143M26.7433 147.013C28.5633 141.803 32.7733 135.743 41.7633 124.993M24.3733 152.143C29.7933 145.053 37.2333 136.733 44.4333 127.653M27.3833 150.673C33.3433 145.043 38.4133 136.853 42.9833 129.413M31.1633 147.403C36.0233 144.103 38.4633 144.153 40.6033 137.053M31.6233 148.403C36.8533 145.083 42.1833 140.253 45.0233 135.803" stroke="#868E96" stroke-width="0.5" stroke-linecap="round"/>
<path d="M24.1532 122.523C26.2032 120.193 29.8732 117.513 32.2332 117.483C34.5832 117.453 36.5832 120.383 38.2832 122.353C39.9932 124.323 41.8232 126.253 42.4532 129.293C43.0832 132.343 43.2532 137.143 42.0632 140.603C40.8632 144.053 37.7232 148.703 35.2932 150.023C32.8632 151.333 29.9832 149.993 27.4832 148.493C24.9832 147.003 21.4832 144.093 20.3032 141.043C19.1232 138.003 17.9732 134.013 20.4132 130.213C22.8632 126.413 31.5532 118.943 34.9632 118.243C38.3732 117.553 40.9032 125.913 40.8832 126.033M35.9632 116.793C38.1132 117.173 38.8332 119.343 40.3232 122.353C41.8032 125.363 44.8132 131.603 44.8832 134.843C44.9432 138.073 42.4132 139.433 40.7232 141.773C39.0432 144.113 37.5232 147.463 34.7632 148.863C32.0032 150.273 27.0032 151.783 24.1432 150.193C21.2932 148.593 18.2032 142.523 17.6532 139.293C17.1032 136.063 20.1532 133.933 20.8432 130.803C21.5332 127.683 19.9032 122.823 21.8032 120.563C23.7032 118.293 30.5532 117.063 32.2232 117.223C33.9032 117.383 31.6532 120.633 31.8432 121.503" stroke="black" stroke-linecap="round"/>
<path d="M21.3207 177.399C20.0707 173.209 24.6307 167.819 34.1007 165.799M17.9907 175.979C22.4507 173.919 26.8807 168.639 32.1307 164.589M20.7207 180.679C25.6507 177.069 24.0107 178.389 38.1807 167.649M22.3507 183.969C25.1107 176.799 28.1107 172.649 34.9807 165.849M25.1407 190.329C28.6407 176.299 34.3707 168.269 42.9807 170.069M21.4807 185.199C25.6107 181.559 31.9007 173.829 39.3707 166.839M22.8507 188.989C28.7807 186.719 35.9107 181.069 46.3807 167.329M26.0107 188.509C29.5907 183.749 32.3107 181.079 41.2307 168.639M30.7807 190.049C35.5607 185.739 39.0707 178.919 42.8707 171.969M29.3107 193.709C36.0207 186.129 40.2207 175.949 44.6307 171.179M28.3207 196.099C34.4907 188.609 44.6007 177.309 47.6507 179.229M29.5007 195.179C35.8407 191.479 40.3707 186.389 46.1907 174.829" stroke="#868E96" stroke-width="0.5" stroke-linecap="round"/>
<path d="M33.4507 163.749C36.0207 163.369 38.3507 163.939 40.3707 165.829C42.4007 167.709 45.4707 171.629 45.6007 175.049C45.7307 178.479 42.9707 183.479 41.1307 186.399C39.3007 189.319 36.7707 191.479 34.5907 192.549C32.4207 193.609 30.5207 194.049 28.0807 192.799C25.6507 191.549 21.6107 187.809 20.0007 185.039C18.3907 182.279 17.9007 179.179 18.4307 176.219C18.9607 173.249 20.3107 169.629 23.1707 167.259C26.0307 164.899 33.0107 162.139 35.5807 162.039C38.1507 161.939 38.8007 166.159 38.6107 166.659M38.7107 165.349C40.9307 166.899 42.5707 172.669 43.5307 175.989C44.4907 179.309 45.9807 182.309 44.4707 185.289C42.9607 188.269 37.3407 192.739 34.4607 193.869C31.5707 194.989 28.9907 193.609 27.1307 192.059C25.2707 190.499 24.6707 186.979 23.3107 184.529C21.9507 182.069 18.5707 180.839 18.9607 177.309C19.3407 173.789 23.4407 166.039 25.6307 163.379C27.8107 160.729 29.8207 161.169 32.0707 161.389C34.3207 161.609 37.3307 163.819 39.1407 164.699C40.9507 165.569 42.4707 165.939 42.9407 166.639" stroke="black" stroke-linecap="round"/>
<path d="M20.4871 219.509C24.4671 215.759 27.2971 216.879 32.1571 212.129M19.1571 221.509C24.5971 218.569 27.0271 216.779 31.0171 209.009M20.5971 228.929C25.8071 218.119 35.9471 217.449 37.9371 210.819M23.8771 226.599C25.0571 221.189 29.2371 218.619 36.1471 212.579M27.1571 231.579C26.9171 223.359 32.6771 220.659 42.2571 212.669M22.0271 229.969C28.4371 226.379 30.7571 221.159 39.0371 212.839M23.4871 235.689C32.9171 231.179 38.9171 226.169 40.6771 212.269M23.0071 237.459C27.5371 230.449 34.1771 222.869 41.9871 217.099M25.5971 239.639C32.0071 232.589 35.9071 227.289 42.9871 224.269M29.2571 240.029C34.8271 231.059 37.7971 224.929 42.1971 222.539M32.5971 237.999C36.0371 237.329 36.0571 232.109 46.2071 225.779M31.7771 240.579C36.4571 236.909 39.8871 231.809 42.2471 226.429" stroke="#868E96" stroke-width="0.5" stroke-linecap="round"/>
<path d="M28.2471 207.919C30.2971 206.829 32.6671 208.699 34.7671 209.869C36.8671 211.039 39.4971 212.199 40.8571 214.939C42.2171 217.679 43.4071 222.509 42.9371 226.289C42.4671 230.079 40.0871 235.529 38.0271 237.659C35.9771 239.789 33.2571 239.649 30.6171 239.059C27.9671 238.479 23.9471 236.619 22.1671 234.159C20.3871 231.699 20.0071 227.499 19.9471 224.299C19.8871 221.109 19.9471 217.609 21.7971 214.979C23.6471 212.359 28.1871 209.499 31.0471 208.529C33.8971 207.569 38.6771 208.719 38.9171 209.199M21.5171 210.529C23.0671 208.769 28.3971 209.359 31.2071 209.189C34.0271 209.019 36.1571 207.649 38.3971 209.489C40.6471 211.339 44.1671 216.209 44.6771 220.269C45.1871 224.329 43.2271 230.889 41.4571 233.849C39.6971 236.819 36.2371 236.969 34.0771 238.069C31.9171 239.169 31.3571 241.509 28.4871 240.459C25.6271 239.419 18.8471 235.199 16.9071 231.789C14.9771 228.369 16.2271 222.839 16.8871 219.969C17.5471 217.099 19.8871 215.489 20.8671 214.579C21.8371 213.669 22.0971 214.429 22.7371 214.519" stroke="black" stroke-linecap="round"/>
<path d="M75.75 23.9381H77.8523L82.7955 36.0119H82.9659L87.9091 23.9381H90.0114V38.4835H88.3636V27.4324H88.2216L83.6761 38.4835H82.0852L77.5398 27.4324H77.3977V38.4835H75.75V23.9381ZM96.5259 38.7392C95.8346 38.7392 95.2073 38.609 94.6438 38.3486C94.0804 38.0834 93.6329 37.7023 93.3015 37.2051C92.9701 36.7032 92.8043 36.0972 92.8043 35.3869C92.8043 34.7619 92.9274 34.2553 93.1737 33.867C93.4199 33.4741 93.7489 33.1663 94.1609 32.9437C94.5728 32.7212 95.0274 32.5555 95.5245 32.4466C96.0264 32.333 96.5307 32.243 97.0373 32.1767C97.7002 32.0915 98.2376 32.0276 98.6495 31.9849C99.0662 31.9376 99.3692 31.8595 99.5586 31.7506C99.7527 31.6417 99.8498 31.4523 99.8498 31.1824V31.1256C99.8498 30.4248 99.658 29.8803 99.2745 29.492C98.8957 29.1038 98.3204 28.9097 97.5487 28.9097C96.7485 28.9097 96.1211 29.0848 95.6666 29.4352C95.212 29.7856 94.8924 30.1597 94.7078 30.5574L93.1168 29.9892C93.4009 29.3263 93.7797 28.8102 94.2532 28.4409C94.7314 28.0669 95.2523 27.8064 95.8157 27.6597C96.3839 27.5081 96.9426 27.4324 97.4918 27.4324C97.8422 27.4324 98.2447 27.475 98.6992 27.5602C99.1585 27.6407 99.6012 27.8088 100.027 28.0645C100.458 28.3202 100.816 28.7061 101.1 29.2222C101.384 29.7383 101.526 30.4295 101.526 31.296V38.4835H99.8498V37.0062H99.7646C99.6509 37.243 99.4615 37.4963 99.1964 37.7662C98.9312 38.0361 98.5785 38.2657 98.1382 38.4551C97.6978 38.6445 97.1604 38.7392 96.5259 38.7392ZM96.7816 37.2335C97.4445 37.2335 98.0032 37.1033 98.4578 36.8429C98.917 36.5825 99.2627 36.2463 99.4947 35.8344C99.7314 35.4224 99.8498 34.9892 99.8498 34.5347V33.0006C99.7788 33.0858 99.6225 33.1639 99.381 33.2349C99.1443 33.3012 98.8697 33.3604 98.5572 33.4125C98.2494 33.4598 97.9488 33.5025 97.6552 33.5403C97.3664 33.5735 97.132 33.6019 96.9521 33.6256C96.5165 33.6824 96.1093 33.7747 95.7305 33.9026C95.3564 34.0257 95.0534 34.2127 94.8214 34.4636C94.5941 34.7098 94.4805 35.046 94.4805 35.4722C94.4805 36.0545 94.6959 36.4949 95.1268 36.7932C95.5624 37.0867 96.114 37.2335 96.7816 37.2335ZM104.585 42.5744V27.5744H106.205V29.3074H106.403C106.527 29.118 106.697 28.8765 106.915 28.583C107.137 28.2847 107.455 28.0195 107.866 27.7875C108.283 27.5508 108.847 27.4324 109.557 27.4324C110.475 27.4324 111.285 27.662 111.986 28.1213C112.687 28.5806 113.233 29.2316 113.626 30.0744C114.019 30.9172 114.216 31.9116 114.216 33.0574C114.216 34.2127 114.019 35.2141 113.626 36.0616C113.233 36.9044 112.689 37.5579 111.993 38.0219C111.297 38.4812 110.494 38.7108 109.585 38.7108C108.884 38.7108 108.323 38.5948 107.902 38.3628C107.481 38.126 107.156 37.8585 106.929 37.5602C106.702 37.2572 106.527 37.0062 106.403 36.8074H106.261V42.5744H104.585ZM106.233 33.029C106.233 33.8528 106.354 34.5796 106.595 35.2094C106.837 35.8344 107.189 36.3244 107.653 36.6795C108.117 37.0299 108.686 37.2051 109.358 37.2051C110.059 37.2051 110.643 37.0205 111.112 36.6511C111.586 36.2771 111.941 35.7752 112.178 35.1455C112.419 34.511 112.54 33.8055 112.54 33.029C112.54 32.2619 112.421 31.5706 112.185 30.9551C111.953 30.3348 111.6 29.8448 111.126 29.4849C110.658 29.1204 110.068 28.9381 109.358 28.9381C108.676 28.9381 108.103 29.1109 107.639 29.4565C107.175 29.7974 106.825 30.2757 106.588 30.8912C106.351 31.502 106.233 32.2146 106.233 33.029Z" fill="black"/>
<path d="M64.8007 59.1998C66.1107 56.9298 69.6107 57.3698 69.7307 53.9698M64.1607 60.4698C66.5807 57.6098 68.3507 56.1898 69.8007 54.4298M64.5807 67.6798C68.8307 65.0098 72.7007 59.2598 72.6407 53.1498M66.0007 64.6498C68.9807 61.5398 71.4807 56.7698 76.5107 52.7198M66.2507 72.3698C66.7307 68.9098 69.0107 64.2898 83.9807 56.2898M66.6407 73.6498C68.3807 65.7698 73.0207 60.5198 82.2507 54.4698M62.8907 78.3998C72.5407 67.8598 77.0007 68.2198 85.4107 52.9498M65.7607 79.3098C71.2407 73.4598 75.0107 64.5198 86.1207 55.2298M64.5307 84.6698C76.6707 74.5998 77.9507 67.3598 89.8007 50.5498M67.0607 85.1698C75.7407 69.9898 85.3707 60.8598 92.5107 54.6098M61.7007 88.5598C71.6907 76.5898 88.3307 68.4098 100.101 50.6298M63.7207 90.2698C71.6907 83.9598 78.9707 74.6498 97.8307 54.9798M61.6207 94.4298C75.5807 77.3598 90.7207 69.0398 101.521 52.4598M63.5307 98.2398C74.0407 83.4098 85.1707 74.6998 100.361 54.4998M68.4507 105.6C81.9407 82.8798 90.6407 74.6298 105.061 52.7398M65.8007 102.67C73.4607 94.9698 82.7507 80.8198 108.351 52.0798M62.1307 108.84C80.7507 96.1698 90.4807 74.1998 116.521 57.3998M64.8007 108.98C78.4507 93.3498 88.4307 79.8098 113.651 52.6498M63.4007 118.15C85.9507 96.7198 104.251 73.4798 116.001 57.3298M63.4207 115.54C82.3907 90.1398 105.921 68.2898 119.861 52.1898M64.6207 119.22C90.5207 93.3898 112.801 68.8198 122.861 56.1298M64.6407 119.56C83.6807 98.7398 98.5407 78.7298 123.911 54.8998M66.0807 125.46C79.4907 106.64 96.3607 90.4998 127.271 53.8498M64.3807 126.45C92.3007 99.7998 115.131 69.3398 128.231 54.3098M64.2507 130C89.0907 103.97 113.381 69.6498 131.191 50.7598M64.4907 131.22C81.9407 113.68 99.5307 91.5998 134.361 54.3898M62.6407 138.15C91.2907 108.79 107.851 81.8098 135.851 55.0898M64.1407 140.3C84.3907 116.62 104.201 92.7698 139.041 54.7198M64.8207 147.23C88.0807 116.08 121.571 85.7398 142.791 54.7898M65.5107 144.75C84.4307 124.71 99.2407 107.97 143.901 55.5798M61.2207 154.98C101.111 110.42 128.311 77.4798 149.321 57.2598M65.2007 150.05C89.3107 124.03 114.551 97.4698 151.521 55.0498M65.4407 159.61C88.3207 123.95 121.701 94.1398 157.571 53.1098M67.2007 157.51C99.0907 121.65 130.481 82.9498 155.121 54.2098M62.5307 159.8C91.7307 129.53 121.091 99.8198 161.911 55.8998M63.7207 161.69C101.411 124.31 135.491 83.1598 162.621 54.2098M67.8207 171.19C98.4807 128.53 135.021 89.3498 166.061 49.9398M66.7407 168.19C100.601 131.77 132.251 92.5398 166.311 53.3898M63.9507 174.12C94.1207 145.37 119.631 106.56 170.471 53.9598M65.5607 174.83C94.7107 144.01 124.701 112.89 170.961 52.4398M67.6707 178.16C101.521 135.89 139.431 99.8898 173.421 52.9198M66.3507 181.51C91.4707 152.7 118.011 123.08 175.441 55.4998M62.1407 190.07C102.531 151.75 133.681 106.04 181.801 54.4898M64.9507 187.59C102.581 146.03 140.131 104.85 180.191 56.0398M65.2507 197.83C88.4107 164.16 115.491 137.55 183.431 57.0498M63.9007 193.27C90.6107 166.93 115.341 138.24 188.151 54.2298M68.3907 203.14C113.751 142.51 159.501 92.4198 191.321 57.6798M63.8007 201.43C112.741 145.14 158.401 91.1298 193.631 54.3598M61.8807 208.84C91.5807 172.55 122.801 144.76 198.421 52.7998M65.0007 206.76C107.501 153.46 150.301 107.41 197.771 54.5298M67.5707 212.91C101.891 172.81 132.221 131.34 203.031 56.9698M63.2407 213.73C101.331 168.69 140.271 125.89 202.331 52.5298M68.2207 221.2C107.951 163.37 159.511 107.53 211.241 57.0998M65.5107 218.12C99.2907 174.04 136.041 131.82 209.251 53.0798M62.9707 227.74C102.241 178.46 145.231 130.98 215.991 53.9298M65.2007 223.66C100.391 179.56 135.901 139.17 211.821 55.2398M62.1607 228.59C118.461 176.77 170.421 113.31 222.031 53.0198M66.9307 228.65C121.601 162.07 179.721 93.4698 219.561 53.0798M66.6607 238.96C101.471 200.2 135.841 156.77 225.131 54.9998M66.4607 238.14C106.111 191.87 144.731 146.46 224.421 54.3998M64.9907 245.55C125.371 175.9 185.701 106.45 229.561 54.8198M64.6707 244.52C118.071 183.33 173.061 121.83 229.141 53.5498M63.2507 247.71C120.811 179.83 186.601 108.74 234.491 52.6998M64.4007 249.26C103.441 204.11 145.401 157.55 234.021 53.6398M67.7207 256.86C132.261 181.01 201.131 102.12 238.051 52.3698M64.3007 254.21C129.041 178.55 196.301 101.28 241.291 53.0698M63.0607 257.64C108.751 207.36 153.671 159.63 243.451 52.4598M65.8107 262.03C115.471 203.86 167.481 144.72 245.911 54.0698M68.5407 262.36C121.531 203.89 175.291 137.94 250.071 51.5698M69.9107 259.17C126.341 195.76 184.741 129.7 249.481 52.9298M78.6407 262.43C132.361 190.88 193.381 123.44 253.361 52.4898M74.8307 262.25C124.881 205.05 177.971 145.11 256.991 54.6498M79.7207 262.31C124.051 215.57 161.131 171.53 261.011 54.3498M80.4707 259.64C148.931 184.51 215.461 106.54 262.671 53.7998M88.4307 257.99C144.801 189.75 207.531 116.82 267.711 56.9498M86.9907 259.38C132.631 207.98 181.861 150.87 265.581 55.4198M93.5007 260.27C134.581 217.58 177.121 164.77 271.491 52.9598M93.0007 260.74C129.231 216.21 163.591 175.11 270.881 52.7398M98.8407 261.78C144.331 209.29 187.491 150.99 279.561 50.8398M98.7207 259.58C137.001 215.53 177.621 168.17 277.501 54.3298M102.581 260.26C143.261 209.54 181.051 164.6 281.071 54.6698M104.191 260.24C141.671 219.96 178.151 180.65 282.521 52.4898M109.051 262.84C144.761 214.39 183.271 169.96 290.261 55.9598M109.321 259.19C167.971 193.04 229.831 123.66 287.471 53.4598M114.111 259.62C154.981 207.25 200.351 155.66 294.421 50.7598M112.061 260.02C178.261 183.29 245.441 103.68 293.361 52.1198M117.131 259.03C181.001 181.61 246.981 108.85 296.971 56.3398M117.821 260.2C179.121 194.27 237.731 126.84 297.701 52.7998M124.881 261.4C189.851 188.67 252.901 116.18 302.081 54.4898M125.231 259.87C167.171 215.36 208.811 167.93 304.441 54.0698M126.311 263.26C195.591 187.87 261.231 112.88 311.321 54.1498M129.271 260.98C179.071 198.99 232.171 139.21 308.651 53.3598M133.691 261.96C198.861 180.78 264.891 107.88 314.131 54.6498M135.031 260.6C190.251 197.52 246.351 134.51 312.361 54.8398M138.751 259.99C211.481 181.33 279.171 107.66 322.121 51.0998M139.121 259.36C197.431 197.02 251.061 131.65 318.951 54.0598M147.611 257.16C203.071 197.64 255.801 132.86 325.181 51.1098M146.501 260.95C187.091 215.54 227.231 167.13 323.901 52.6698M149.331 261.16C188.781 215.72 231.321 167.89 332.651 54.6098M151.911 261.95C218.111 180.13 288.221 101.15 331.651 54.8298M156.441 261.81C218.621 185.43 289.181 102.4 335.641 51.8498M156.021 261.41C203.891 205.14 254.661 146.47 333.861 53.8498M158.091 262.7C200.111 209.78 244.631 161.1 342.001 52.9798M159.501 259.3C216.501 188.96 275.921 121.9 341.811 53.5298M166.431 263.06C232.601 186.64 296.301 113.71 344.861 54.9998M166.361 261.23C208.301 216.55 249.251 170.7 346.081 54.7898M170.181 263.15C242.001 176.67 310.151 98.9298 351.331 52.6598M172.171 260.06C223.021 198.31 278.041 134.37 351.991 52.1398M177.681 262.31C213.121 219.31 244.981 172.8 357.331 55.1398M176.531 259.86C228.421 203.45 277.681 146.3 354.861 54.4898M183.511 257.45C254.581 183.59 327.521 103.04 363.821 53.4198M181.291 259.93C221.211 213.23 261.741 168.63 362.981 53.6498M186.751 259.7C236.201 202.45 289.131 147.78 364.041 55.6498M187.491 260.1C242.321 193.5 297.891 130.78 366.681 54.5098M194.881 261.82C264.811 179.51 336.121 98.4498 372.251 54.5098M193.541 260.27C262.281 179.73 329.061 103.03 373.751 52.7698M198.491 261.1C253.981 196.34 307.731 134.97 379.791 56.3398M198.421 259.54C246.761 202.45 299.881 142.2 378.461 52.7798M206.281 257.81C249.231 207.79 296.121 154.28 383.891 54.7298M202.921 258.82C249.361 209.97 291.791 159.25 384.591 54.5298M207.341 259.48C245.771 215.93 286.671 168.94 387.221 53.4298M209.801 259.94C250.141 220.48 286.211 176.59 386.871 52.8898M212.381 260.67C278.261 188.65 333.111 125.67 395.601 52.3798M215.631 258.99C254.431 214.36 296.371 168.42 394.001 52.5698M222.211 259.72C279.051 196.31 334.971 128.06 398.971 51.9698M220.321 260.95C286.891 183.91 353.421 107.16 397.671 54.8298M225.451 257.18C261.461 213.8 298.731 171.72 406.301 51.4798M225.181 260.55C283.071 193.57 343.181 127.77 404.891 53.9498M229.191 260.04C285.011 206.36 336.381 142.45 407.981 53.3898M229.981 260.11C288.301 195.6 342.691 130.22 410.141 54.9098M238.031 261.62C275.571 215.53 312.911 172.49 416.281 56.3298M234.161 259.63C284.071 201.1 335.091 143.82 414.611 55.0998M241.261 258.16C276.791 218.36 316.441 175.49 418.561 55.5798M240.091 259.12C286.311 212.52 329.471 163.21 420.241 55.1298M247.821 259.8C303.541 191.64 367.181 122.87 423.621 56.0498M244.931 261.15C284.401 215.82 327.211 167.49 423.791 54.2998M248.601 257.51C313.171 194.64 370.081 120.72 427.711 52.7998M250.161 260.69C295.361 211.78 336.721 160.6 429.881 53.8598M257.661 258.82C302.521 210.16 348.611 156.52 432.691 53.9598M256.511 260.16C302.391 212.51 342.031 164.38 435.521 53.1198M262.071 261.06C317.201 195.93 367.651 137.77 443.811 54.3598M261.021 259.22C309.321 212.35 353.521 160.5 440.741 55.1398M268.671 262.93C326.941 193.53 380.041 129.43 444.361 52.1598M266.981 261.27C329.931 183.61 396.401 107.23 445.531 53.4098M269.691 258.85C335.881 186.62 399.151 116.26 449.321 53.5698M271.701 259.46C321.281 203.32 372.221 146.68 451.141 53.1498M276.661 258.09C346.451 180.59 415.901 105.34 455.281 52.2398M276.181 260.06C315.691 214.51 358.851 166.13 457.051 54.8998M280.181 259.09C334.921 198.01 383.031 139.11 462.901 52.5598M282.541 260.96C316.171 216.87 354.381 175.38 462.261 53.9798M286.811 260C350.661 188.18 418.251 111.18 470.381 55.3198M287.941 260.09C327.341 213.31 369.011 167.26 468.451 55.2398M291.871 263.28C349.541 200.22 398.111 139.18 471.081 56.0998M292.071 261.18C359.981 188.71 424.791 111.59 471.961 53.8598M297.691 261.39C344.631 203.53 394.901 148.94 477.351 56.5698M297.191 260.47C346.961 204.7 394.751 145.11 478.731 53.8798M305.141 260.01C373.461 186.76 431.101 110.77 477.631 60.4298M303.241 261.75C368.451 186.56 428.201 114.68 477.471 62.2498M306.731 263.91C346.801 216.44 389.851 173.83 475.281 67.4398M307.901 259.79C359.171 203.12 411.361 142.17 475.861 68.0698M316.191 262.35C360.551 207.98 398.541 159.47 475.661 72.5698M314.131 258.9C355.821 212.21 401.451 158.98 478.851 74.4098M316.621 258.84C379.281 193.05 437.951 120.3 480.571 81.0998M320.921 259.23C384.441 191.36 447.201 119.06 476.461 79.4098M322.901 257.35C376.761 206.32 425.561 146.17 477.601 88.4898M324.051 259.62C361.821 221.19 395.611 178.75 476.861 86.6298M329.191 259.84C365.341 220.84 393.901 182.55 480.211 90.8698M330.061 259.51C388.871 192.03 446.721 127.37 477.281 90.3498M339.121 257.78C378.691 211.65 421.011 160.7 477.191 98.5098M337.151 259.01C369.611 219.77 399.751 181.58 477.491 96.5198M338.201 264.06C380.371 216.09 426.701 170.68 476.701 101.96M342.211 260.84C379.611 210.51 419.791 162.48 476.831 104.02M346.821 263.42C391.071 213.01 426.791 171.3 475.181 106.4M345.061 259.89C391.671 205.97 436.561 150.96 478.571 109.13M349.791 264.36C375.631 228.27 403.511 197.22 475.111 112.1M350.141 259.03C391.041 221.04 429.381 177.27 478.731 114M357.821 256.98C388.711 230.52 408.061 200.93 477.291 123.67M359.331 259.28C401.831 218.04 438.021 169.58 478.511 121.14M362.771 262.15C400.811 216.46 436.721 172 476.281 127.61M360.941 260.57C397.491 214.61 438.381 173.07 476.281 126.86M364.781 259.68C410.481 215.99 444.161 170.52 480.561 132.14M366.041 258.92C407.971 215.78 445.231 168.11 476.381 134.66M373.301 264.12C392.121 235.41 421.411 205.82 476.781 143.21M374.041 259.56C401.151 222.91 430.651 189.75 478.051 140.64M378.561 260.45C418.061 223.02 452.441 174.93 480.641 148.94M376.821 262.05C410.991 225.68 441.101 189.77 478.901 147.33M384.561 263.89C418.091 215.85 455.421 175.23 473.901 155.46M384.391 261.41C410.241 229.3 437.031 203.25 476.471 152.87M387.951 264.35C412.631 225.33 441.651 194 479.171 155.32M388.321 261.98C412.501 231.65 440.491 203.58 475.811 160.86M390.311 258.46C409.331 237.35 429.401 215.91 476.241 167.55M394.661 258.81C417.381 232.33 445.021 205.3 478.281 165.69M402.381 257.57C413.301 238.75 438.931 217.77 478.361 173.64M400.861 259.05C425.331 230.86 451.511 200.21 478.531 170M406.961 264.21C426.691 232.91 456.151 207.05 479.041 174.04M403.191 259.79C432.921 227.51 457.771 199.3 475.911 178.5M407.901 259.91C431.301 231.17 454.371 211.88 477.091 183.91M410.451 261.2C427.211 242.74 444.241 220.84 476.171 183.1M417.561 260.88C431.521 244.15 447.711 220.33 479.471 185.62M416.021 259.66C432.261 242.3 446.521 223.81 478.841 188.8M417.861 257.81C432.191 240.83 451.891 227.5 481.521 192.75M419.491 260.9C433.751 244.95 445.601 230.77 478.211 195.04M427.751 263.59C440.511 243.91 454.711 223.06 479.321 202.1M426.841 261.07C441.671 241.97 458.851 223.79 476.181 201.12M432.231 261.09C450.971 241.18 465.811 218.09 480.441 210.16M432.031 259.95C440.501 246.8 452.861 238.28 477.791 208.03M433.821 258.85C447.581 246.31 462.081 230.28 481.021 216.9M437.091 261.98C446.501 250.84 454.771 240 476.791 211.59M445.611 262.92C452.651 251.88 458.441 240.27 476.581 218.26M441.811 261.47C452.821 249.62 461.561 234.86 479.121 220.33M446.681 260.53C451.491 255.47 462.131 243.47 474.311 222.1M447.831 259.66C456.181 251.44 462.261 239.05 475.841 224.87M455.211 263.87C457.531 251.03 465.711 244.99 473.311 232.29M452.281 261.88C460.701 250.39 472.481 239.82 476.021 231.27M459.871 261.87C461.361 257.5 471.421 247.9 475.521 241.12M459.871 258.67C462.481 255.24 469.871 249.21 478.211 238.95M460.891 263.88C465.011 253.47 465.821 252.53 478.621 241.13M464.551 258.91C467.851 256.97 470.951 252.43 476.061 245.75M466.621 259.74C473.271 259.3 471.271 252.88 478.341 249.83M469.301 259.36C471.241 258.77 471.541 256.28 477.581 250.05M473.471 261.06C474.271 259.9 476.261 258.25 477.041 254.9M473.581 260.26C474.961 258.92 476.601 257.51 478.041 255.77" stroke="#CED4DA" stroke-width="0.5" stroke-linecap="round"/>
<path d="M64.4107 53.8498C170.381 55.1798 276.781 55.0298 475.531 52.4298M65.2307 54.5498C189.381 57.7298 314.521 56.4798 475.501 53.9398M477.171 52.8598C474.061 123.91 473.281 188.06 478.201 261.96M475.161 52.8498C477.161 95.8298 476.991 138.55 477.151 258.99M474.781 261.2C363.751 263.43 248.621 261.71 66.5207 261.46M476.181 259.56C333.791 258.85 192.391 257.51 65.5307 260.66M61.6907 260.17C60.6307 199.04 66.7107 141.11 66.9107 53.7698M63.9107 261.15C67.9707 189.56 70.0007 118.4 63.4407 55.3398" stroke="black" stroke-linecap="round"/>
<path fill-rule="evenodd" clip-rule="evenodd" d="M196.027 90.7936L202.547 102.794L193.967 115.244L189.927 103.544" fill="#E64980"/>
<path d="M195.327 93.8836C198.977 98.2936 198.157 105.224 203.937 104.534M194.237 93.7036C196.577 96.7636 196.507 98.1636 202.897 104.614M199.617 104.754C197.257 109.144 196.547 116.844 192.657 120.004M202.137 105.274C201.187 108.404 197.917 110.774 195.177 118.754M196.997 115.954C192.387 112.244 189.877 111.704 185.317 103.874M195.687 118.044C193.017 112.894 189.117 111.204 188.017 105.464M189.237 106.104C192.887 100.964 194.857 97.9636 194.307 93.9836M186.827 105.424C190.067 101.274 193.627 96.0636 195.407 94.2836" stroke="black" stroke-linecap="round"/>
<path fill-rule="evenodd" clip-rule="evenodd" d="M299.487 122.097L310.637 132.077L301.087 142.327L294.557 132.097" fill="#E64980"/>
<path d="M300.217 116.127C299.937 123.907 302.787 125.637 307.207 133.187M300.867 118.197C300.677 121.277 303.157 127.337 307.977 130.117M305.167 129.047C306.157 133.207 304.417 135.847 302.207 143.367M307.297 129.247C303.957 133.507 302.097 136.507 300.157 143.167M302.257 141.987C296.027 138.147 297.177 133.367 291.107 130.347M299.117 142.157C299.107 139.837 295.997 135.587 294.107 131.597M294.537 132.617C292.397 127.387 298.267 123.667 298.377 117.357M293.857 130.807C293.687 127.867 296.577 121.907 299.877 117.067" stroke="black" stroke-linecap="round"/>
<path fill-rule="evenodd" clip-rule="evenodd" d="M229.677 154.454L234.367 165.644L226.227 174.264L222.817 169.614" fill="#E64980"/>
<path d="M228.477 155.084C231.317 159.784 232.657 164.464 237.987 164.304M228.677 152.574C231.887 155.704 233.847 160.484 237.787 165.194M236.597 163.784C233.417 170.954 229.357 172.154 229.787 175.564M236.767 166.384C235.497 167.684 232.257 172.594 231.037 176.564M232.027 175.334C227.717 176.494 224.927 169.844 221.807 165.574M230.247 176.164C228.957 173.964 224.727 171.384 221.527 165.554M223.717 165.744C226.557 162.084 230.047 155.464 227.477 156.024M222.667 166.704C223.767 161.824 226.947 158.154 230.557 153.854" stroke="black" stroke-linecap="round"/>
<path fill-rule="evenodd" clip-rule="evenodd" d="M377.217 146.024L383.937 159.204L381.857 168.974L372.497 157.964" fill="#E64980"/>
<path d="M379.787 146.724C380.467 154.344 382.857 156.734 388.257 161.104M381.057 147.744C380.847 151.984 383.837 155.424 385.767 160.584M385.787 160.574C383.137 166.384 383.467 170.174 377.197 174.554M385.507 160.554C386.057 165.064 383.547 167.274 379.907 173.084M377.497 174.804C377.607 170.504 374.797 163.974 374.887 158.494M380.557 172.674C377.817 169.354 375.007 165.674 371.627 159.584M372.167 160.034C376.797 154.734 376.327 152.064 377.317 149.404M373.777 161.014C376.707 155.664 376.967 152.574 380.937 148.504" stroke="black" stroke-linecap="round"/>
<path fill-rule="evenodd" clip-rule="evenodd" d="M298.107 187.117L304.337 196.457L296.247 206.347L295.807 197.317" fill="#E64980"/>
<path d="M299.607 185.977C303.907 187.127 303.527 188.457 308.027 196.587M301.047 183.587C303.437 187.917 304.747 193.427 305.757 195.287M307.197 195.307C305.317 197.257 302.727 199.927 297.667 207.207M306.537 196.467C303.177 199.867 300.847 203.547 300.237 208.017M300.507 209.607C296.697 202.467 297.357 203.797 292.507 193.617M300.557 206.047C298.297 203.517 297.707 202.457 292.237 194.997M291.747 194.117C294.617 191.347 297.677 187.357 297.747 180.907M293.097 195.467C296.187 190.447 298.597 187.547 301.157 184.267" stroke="black" stroke-linecap="round"/>
</svg>
