<svg width="1196" height="720" viewBox="0 0 1196 720" fill="none" xmlns="http://www.w3.org/2000/svg">
<path d="M2.6064 1.80699C298.342 4.6691 591.913 1.56648 1192.19 1.9513M3.85707 2.55258C441.832 1.66268 880.601 1.49432 1192.4 2.98551M1195 4.81341C1186.29 171.345 1185.96 345.26 1191.61 714.521M1191.37 2.38422C1191.3 190.009 1189.32 376.864 1190.53 715.747M1191.9 716.084C737.279 719.74 282.684 720.293 3.30389 717.094M1191.15 715.483C842.383 717.286 490.68 717.118 3.54441 716.685M4.31405 713.053C1.90892 533.678 -0.448117 349.974 2.10133 4.21213M3.73682 716.228C4.41026 461.837 3.32794 209.178 1.76461 1.49432" stroke="black" stroke-linecap="round"/>
<path d="M339.314 238.934C341.575 234.34 346.867 229.626 352.543 223.084M338.328 238.02C343.283 231.911 348.743 225.97 351.509 224.046M341.599 250.07C347.179 243.311 357.714 229.409 361.61 220.414M341.215 252.21C345.448 244.754 348.983 240.257 363.029 220.535M343.403 270.561C355.982 252.667 361.273 236.865 375.969 225.754M340.709 265.366C349.416 254.663 364.087 237.635 377.869 222.074M341.599 280.11C349.825 268.589 367.479 248.747 388.788 220.847M338.785 278.835C359.421 255.529 379.023 233.282 390.712 221.4M347.54 294.204C364.424 267.892 389.125 235.158 405.263 223.95M345.616 290.789C359.59 274.289 371.615 254.784 404.229 224.022M354.323 294.613C365.338 273.784 377.051 267.435 411.06 224.311M355.212 291.39C376.065 271.403 395.571 249.132 415.702 221.473M369.042 288.456C389.774 262.528 414.932 238.357 428.665 224.936M370.293 292.472C390.279 267.218 411.685 244.105 430.156 221.088M381.404 291.654C393.598 269.647 413.176 257.886 441.292 223.036M380.13 293.386C399.756 265.583 421.474 244.826 439.344 220.679M393.502 291.558C420.247 268.517 432.417 242.036 450.047 224.527M397.35 290.62C410.915 271.812 423.855 257.02 454.713 224.383M409.737 290.235C421.955 274.386 437.179 255.048 465.199 224.383M409.256 288.72C422.628 274.818 434.221 254.495 467.051 222.242M418.371 294.396C439.272 261.133 469.384 233.787 476.696 221.184M419.117 289.586C436.698 272.918 448.532 255.962 479.462 225.152M429.483 291.558C448.532 267.627 476.311 245.452 493.532 226.331M431.143 288.864C445.116 275.42 459.764 260.965 491.127 220.366M446.92 288.023C455.074 278.041 472.27 256.972 504.764 220.823M448.532 289.345C463.443 271.74 481.939 251.657 506.135 221.04M458.176 294.613C475.974 268.613 488.745 256.708 518.786 222.29M458.417 292.544C472.078 276.117 486.99 255.746 517.246 221.665M473.689 287.758C480.424 271.764 492.233 260.436 533.914 222.362M473.329 287.999C481.963 275.083 496.466 261.807 529.296 223.469M487.904 291.39C499.112 280.11 513.398 264.188 539.253 225.08M482.252 293.001C505.605 265.607 531.509 237.779 542.765 223.661M499.136 289.947C511.065 274.145 522.49 259.979 552.674 222.555M497.043 288.937C516.765 265.727 534.515 243.768 553.275 221.521M509.309 290.981C520.71 270.08 537.906 259.305 573.43 223.781M508.299 289.923C525.688 271.547 543.029 249.444 568.764 222.002M524.582 286.315C534.828 269.623 557.941 251.08 581.8 220.751M522.105 288.792C537.185 274.578 548.681 259.137 580.093 222.747M535.67 295.43C550.942 274.073 559.505 262.648 597.506 217.24M535.165 291.991C547.623 275.732 562.439 259.017 592.792 222.386M547.551 288.095C567.826 261.518 594.451 237.707 602.244 223.781M547.455 289.586C569.534 267.218 588.967 245.933 607.126 222.002M559.625 295.022C581.487 268.95 609.916 236.793 615.905 220.823M561.501 290.259C574.176 272.461 590.579 252.835 619.416 225.609M576.196 292.256C590.94 273.399 607.776 249.901 636.685 221.809M575.739 291.294C596.688 265.895 617.709 245.163 634.184 222.988M586.755 292.304C598.131 274.361 615.977 264.573 643.636 225.441M583.748 289.514C608.184 266.473 627.762 243.72 644.791 222.723M593.97 288.215C619.681 268.998 635.916 245.067 658.38 222.122M599.718 291.51C616.867 271.499 632.885 248.482 656.456 221.569M611.6 287.614C631.707 264.861 657.971 235.663 672.618 222.819M612.802 291.462C623.241 277.536 636.757 260.364 668.842 222.723M618.935 293.891C646.45 266.064 666.605 246.197 682.407 225.008M625.453 289.995C636.757 275.708 646.619 261.566 681.228 222.459M641.784 293.53C655.854 263.683 674.542 241.339 692.605 222.362M638.08 292.232C648.879 276.839 662.444 260.388 694.409 223.637M650.972 294.324C670.069 266.4 689.694 244.249 712.784 218.899M650.707 292.472C661.53 273.929 674.807 258.271 711.076 222.435M664.152 291.606C674.446 280.807 689.622 260.436 723.126 219.284M663.551 289.682C678.823 270.177 699.7 249.204 723.246 221.641M673.195 287.397C690.224 272.389 702.827 252.715 737.677 223.781M673.821 291.342C696.982 269.816 714.203 247.039 736.715 222.386M688.251 294.925C704.534 271.644 708.503 266.833 751.049 218.61M686.039 290.548C706.651 273.52 722.38 249.877 748.813 222.964M703.5 290.5C716.44 278.57 727.094 262.817 763.099 218.947M699.195 289.057C709.85 276.743 721.418 264.164 758.554 220.078M712.519 285.473C728.153 273.255 746.191 255.193 773.802 220.799M712.134 288.84C733.348 263.442 758.746 239.319 773.081 222.29M722.164 287.566C745.686 268.276 768.775 237.298 788.762 224.816M725.339 291.029C747.779 265.462 769.882 240.545 784.313 222.194M738.831 286.363C753.647 271.908 771.686 251.729 794.679 226.571M741.333 292.304C751.627 274.049 765.24 262.191 799.345 224.455M753.767 291.606C770.723 273.832 788.281 253.461 813.03 221.136M752.108 288.696C768.006 273.977 779.117 257.429 812.26 222.675M767.621 289.682C783.759 269.84 799.272 245.476 827.485 222.362M763.58 291.125C781.523 275.42 795.977 255.962 825.007 222.723M775.798 291.775C797.685 267.194 824.502 236.625 837.562 219.164M778.228 290.789C793.091 268.228 810.745 247.448 838.332 219.572M793.067 290.139C805.742 265.727 820.582 250.406 853.364 223.757M790.614 289.177C814.16 262.841 831.934 241.555 848.746 220.486M800.331 287.109C819.379 271.211 839.631 242.157 862.648 218.346M803.77 292.159C819.764 269.479 836.961 249.156 863.393 222.17M817.527 289.899C835.566 264.717 849.347 243.335 873.687 222.507M815.05 292.039C831.525 273.111 847.255 257.261 872.99 224.046M830.9 291.342C846.822 268.613 864.788 250.262 891.942 220.727M827.701 290.5C842.878 271.307 856.948 256.924 886.026 219.909M837.153 293.723C859.978 274.53 871.066 253.076 890.884 225.609M841.603 290.187C855.625 274.626 866.279 256.924 896.801 226.379M857.453 289.466C864.74 269.912 880.614 256.371 899.134 248.025M855.12 288.84C864.163 276.598 875.443 265.871 895.598 244.874M866.039 285.425C878.498 281.24 882.755 268.108 897.113 257.79M865.678 290.091C875.876 281.601 883.091 275.612 897.185 255.409M879.917 290.644C882.057 287.061 884.847 283.501 893.89 270.633M879.796 289.345C882.514 285.281 887.493 282.322 895.646 272.606" stroke="#CED4DA" stroke-width="0.5" stroke-linecap="round"/>
<path d="M335.442 223.853C547.094 225.778 757.568 223.3 890.211 221.857M339.339 222.651C522.105 216.71 705.905 216.71 887.349 221.593M893.41 221.064C892.616 243.359 886.074 271.162 886.94 290.716M890.331 221.785C889.874 245.019 890.62 268.156 891.053 288.72M887.469 284.872C768.992 284.463 643.805 282.178 340.613 286.098M888.022 286.146C683.369 284.968 478.331 284.511 339.267 285.689M335.875 287.181C338.593 273.495 342.706 257.02 343.476 218.394M340.758 284.583C341.575 271.307 337.078 260.82 339.291 221.737" stroke="black" stroke-linecap="round"/>
<path d="M337.165 327.708C340.941 325.663 340.965 319.963 351.62 310.992M336.395 326.77C340.773 323.331 343.563 320.3 350.105 313.638M335.505 342.115C345.896 327.539 355.901 324.172 364.078 311.978M339.233 342.018C343.779 333.36 351.067 326.409 363.068 312.435M335.77 358.614C345.198 347.526 359.172 337.112 370.717 315.201M337.622 356.473C352.991 342.331 365.401 326.072 377.547 310.655M336.203 368.114C348.493 353.611 368.72 337.352 387.889 315.033M338.993 372.083C354.434 355.078 367.855 334.635 389.26 309.79M340.436 387.788C353.64 357.363 376.08 337.208 396.716 310.824M338.031 381.823C353.833 365.805 370.452 346.251 399.963 310.655M351.668 382.28C373.891 362.005 398.015 337.016 413.143 313.181M353.039 382.497C372.593 357.075 394.311 331.748 416.39 312.7M365.69 383.747C374.781 365.974 388.972 355.319 429.811 310.487M364.151 383.122C386.374 356.858 413.576 331.292 425.433 310.728M380.818 383.844C387.865 367.2 407.154 354.549 436.184 306.976M376.2 384.95C392.772 361.187 412.903 344.736 440.393 312.94M386.158 386.537C416.847 352.385 433.491 328.141 456.436 308.25M389.669 385.142C410.401 357.628 437.098 333.071 452.13 313.349M399.578 384.012C421.657 367.32 437.459 344.135 463.771 311.569M400.18 382.978C417.641 365.589 433.539 347.959 465.792 309.91M420.335 385.239C428.536 364.073 444.434 350.773 476.062 310.391M415.669 383.483C435.415 362.943 456.965 339.373 475.941 310.583M428.729 382.208C441.163 361.741 466.633 343.005 489.266 313.542M426.997 384.204C445.613 360.682 465.84 339.758 493.619 313.037M444.41 378.697C453.357 363.641 468.846 348.079 505.909 311.401M439.696 383.844C460.885 363.689 475.364 343.221 502.422 310.679M449.148 385.239C471.035 361.019 487.029 345.073 516.564 314.119M454.031 383.459C473.416 364.17 489.819 341.97 519.041 310.704M464.397 380.477C489.458 353.323 517.478 329.079 528.181 308.371M467.908 385.263C486.307 363.232 501.748 342.668 530.105 311.473M483.59 383.266C507.352 350.316 527.531 329.151 545.738 314.72M481.088 384.445C494.076 362.414 514.592 343.558 543.285 310.896M492.104 385.094C512.187 367.489 528.854 339.036 552.425 315.49M493.258 382.377C514.159 358.614 535.276 333.889 552.809 312.58M505.284 383.603C527.002 355.126 551.366 337.28 568.25 312.219M503.36 383.026C529.215 360.658 548.336 334.057 566.543 310.15M521.11 382.449C533.448 365.565 554.06 341.73 582.056 311.088M517.31 382.353C542.131 355.776 563.151 328.934 581.238 312.82M529.311 386.465C543.405 364.458 562.141 346.66 590.931 313.253M528.133 383.916C546.46 367.801 559.279 353.419 595.116 310.295M541.096 382.016C554.854 363.761 569.381 351.711 609.33 309.79M542.876 383.291C564.114 360.273 584.269 339.084 607.069 312.772M559.688 380.356C567.601 370.808 587.443 351.471 620.057 312.195M557.98 383.892C568.01 369.726 582.994 352.36 618.181 313.012M571.594 378.913C592.566 355.896 619.792 330.305 629.942 309.621M571.738 381.294C586.914 361.548 605.987 337.93 629.221 312.267M584.581 385.239C599.301 361.476 610.653 344.929 643.507 317.342M583.619 383.844C599.517 362.246 619.889 337.208 645.455 315.057M599.517 378.264C607.382 370.784 618.037 349.282 657.409 315.995M597.304 382.593C617.748 354.79 641.992 328.477 656.375 312.82M610.004 380.404C625.42 360.586 650.217 328.285 664.696 309.044M605.458 381.535C623.593 365.468 638.24 345.121 666.332 311.882M622.294 380.452C644.397 362.751 661.906 332.59 679.752 308.202M621.572 381.92C637.013 366.286 652.166 346.444 680.522 310.463M635.666 386.273C659.646 360.105 676.53 328.309 694.4 314.119M631.217 383.675C647.908 367.369 666.717 346.107 692.379 312.099M641.583 388.029C660.632 364.049 682.037 342.355 712.414 311.329M646.249 385.912C659.092 364.41 676.337 350.677 708.133 312.483M659.934 382.617C677.828 357.532 702.794 332.831 715.445 316.332M659.164 384.156C678.021 362.27 694.977 341.273 719.654 312.724M674.389 383.82C688.748 359.239 708.518 334.947 735.768 314.72M671.912 384.18C696.083 356.305 719.317 327.01 733.844 311.04M684.466 380.645C704.14 363.472 727.567 338.723 745.365 309.333M685.236 381.03C699.643 363.737 714.771 349.33 745.485 311.281M700.268 385.215C713.015 370.134 722.925 354.79 757.607 315.105M695.65 381.968C712.101 365.444 724.175 348.681 757.126 309.669M709.552 379.803C733.195 361.259 759.362 333.48 773.841 310.992M710.298 383.627C730.477 361.211 749.886 337.425 770.979 313.012M720.592 383.964C734.277 367.537 746.014 349.619 789.066 311.834M719.894 385.527C741.42 359.913 759.843 339.445 784.833 311.064M738.847 382.208C751.498 359.167 771.388 339.541 796.257 310.583M732.93 381.39C749.357 368.86 763.499 348.151 798.494 313.975M742.526 381.631C767.083 353.683 791.327 332.085 811.073 311.738M748.419 382.377C767.756 364.458 785.53 342.403 809.509 310.126M764.966 387.692C771.123 368.619 785.338 357.411 818.649 312.026M761.431 384.565C775.332 368.595 790.316 350.268 819.731 313.205M774.154 384.854C794.044 354.621 815.931 326.361 836.736 314.624M774.25 382.232C788.705 361.789 806.719 341.273 835.798 310.559M783.895 379.611C804.074 361.404 830.025 339.252 843.205 309.838M787.406 383.555C803.569 362.414 817.47 345.169 846.909 310.174M800.586 381.246C817.591 356.642 842.532 335.669 858.502 308.515M796.522 385.575C817.519 361.211 836.158 341.417 858.887 313.012M809.437 387.115C833.128 363.184 859.32 332.23 873.101 313.181M812.155 384.854C826.321 363.905 838.058 351.495 871.947 312.05M827.067 382.665C850.541 354.79 872.644 336.15 889.889 314.744M822.954 381.415C845.947 358.397 866.824 337.28 884.453 314.383M839.526 384.349C850.156 360.754 870.143 346.636 883.828 328.574M839.526 384.613C853.716 365.998 871.297 347.67 883.491 328.405M845.394 381.992C857.973 370.158 864.298 367.609 883.972 337.569M848.088 383.291C864.25 367.994 878.441 351.302 883.419 341.706M861.581 382.016C871.851 373.959 879.86 362.582 887.412 357.219M863.529 381.27C869.373 373.838 876.925 368.427 885.969 356.786M875.506 384.517C878.874 381.751 881.11 376.532 882.914 372.323M874.833 383.555C879.042 379.202 882.361 375.786 883.852 371.986" stroke="#CED4DA" stroke-width="0.5" stroke-linecap="round"/>
<path d="M337.237 314.071C512.692 313.133 687.617 315.153 880.966 310.15M338.848 310.944C534.121 314.119 732.353 316.524 883.395 311.016M882.048 310.487C888.446 333.721 882.673 356.93 880.316 381.342M883.972 311.04C885.175 326.361 884.357 342.572 885.439 381.366M886.113 382.665C684.731 378.985 488.953 380.501 338.56 383.916M885.223 382.737C696.973 380.765 513.726 378.48 339.281 380.982M333.076 384.084C339.137 366.286 339.979 348.103 338.127 314.48M337.718 381.246C338.921 352.24 338.44 326.674 336.924 311.161" stroke="black" stroke-linecap="round"/>
<path d="M334.978 443.513C337.991 439.525 343.077 436.448 351.052 425.537M336.558 444.168C339.571 437.132 344.262 430.978 349.102 427.076M338.237 460.121C346.509 445.251 352.583 435.28 363.497 428.187M335.694 458.668C343.299 448.754 349.991 443.655 363.843 424.027M335.892 482.227C345.028 461.745 353.472 456.104 378.658 421.435M337.25 476.758C345.102 464.565 350.065 456.617 377.497 426.42M338.855 488.551C358.707 473.937 368.904 442.516 386.312 430.124M337.966 492.71C349.917 476.473 358.978 467.271 390.238 425.025M340.139 501.997C361.744 481.088 384.905 452.686 401.127 423.743M341.373 502.71C358.756 480.689 377.472 456.987 401.621 426.136M357.522 509.404C372.09 485.133 380.016 470.006 413.572 422.973M353.349 503.878C371.151 483.424 388.189 465.135 416.411 422.831M366.682 506.157C379.571 482.74 392.189 474.621 426.337 423.572M367.571 504.134C388.534 475.761 407.868 449.324 428.263 428.728M382.682 507.524C399.497 470.718 424.313 441.69 442.461 427.959M379.67 501.969C399.473 484.221 415.572 458.469 441.325 423.828M394.386 499.975C409.522 488.523 417.498 470.092 452.14 425.509M394.559 505.758C415.053 479.065 438.066 448.698 453.696 428.443M405.201 502.994C419.794 481.629 437.35 463.682 470.313 423.942M404.51 507.154C422.238 489.349 434.164 468.154 469.153 426.221M423.275 510.401C435.053 487.326 447.35 460.149 483.968 429.668M422.658 507.438C443.35 472.769 464.165 446.874 480.733 426.791M436.56 505.416C452.461 486.13 472.288 462.713 489.696 422.29M435.053 506.812C454.609 477.441 477.4 448.384 492.215 422.717M448.757 505.701C465.054 480.461 480.609 458.554 510.215 425.965M445.3 503.422C464.708 482.654 486.313 453.968 506.61 423.942M456.412 509.376C474.165 480.518 494.807 461.403 523.104 426.99M458.091 504.903C475.128 484.791 491.449 460.178 518.165 426.022M476.338 503.764C495.597 473.396 514.042 448.498 536.783 422.461M471.202 502.368C494.165 479.578 514.783 450.35 535.227 427.389M483.326 502.681C501.128 480.119 515.523 458.583 548.783 428.899M483.548 504.789C501.202 485.987 515.894 465.932 547.721 426.221M496.881 509.376C515.943 474.023 544.067 452.743 562.413 428.443M497.227 507.353C516.98 479.692 535.795 457.956 559.845 426.221M508.931 508.436C525.746 480.375 548.536 459.608 574.808 422.945M510.684 508.578C525.375 483.338 543.129 462.571 572.265 422.09M521.301 508.493C546.141 481.572 559.302 450.72 583.623 425.851M525.696 507.353C549.104 470.918 574.438 439.809 585.327 428.13M542.413 511.113C558.117 473.539 589.87 439.411 594.759 425.11M535.622 508.493C560.734 472.2 584.339 440.351 600.932 423.885M555.771 508.208C568.388 472.2 595.993 447.359 609.45 420.552M552.042 502.824C563.252 487.013 579.598 467.157 610.907 422.489M565.968 507.723C577.524 488.865 599.352 464.565 620.488 423.315M563.573 506.869C577.228 489.577 592.24 471.886 622.018 424.255M577.055 508.236C594.956 489.036 610.611 461.545 636.883 425.338M577.129 502.966C598.216 477.299 620.241 454.11 637.55 422.973M589.228 502.054C610.586 478.837 626.142 458.383 654.192 431.634M591.623 507.581C609.821 481.8 623.377 461.203 651.352 426.563M606.66 506.584C622.883 474.735 643.969 451.204 665.599 419.897M604.734 505.672C627.623 475.533 650.216 443.199 665.451 424.882M614.611 510.515C634.315 478.866 651.278 453.74 673.624 428.927M616.142 507.581C637.673 478.096 659.945 447.359 675.797 426.62M626.71 505.273C644.043 482.113 666.982 463.34 692.982 424.968M629.352 506.185C642.488 486.187 656.76 467.157 691.624 425.11M642.315 510.8C659.5 490.545 674.217 467.072 702.884 424.398M645.105 505.33C663.377 477.47 686.834 444.624 701.526 423.828M654.241 504.59C666.019 487.725 687.007 473.937 719.18 428.301M658.266 505.473C673.18 483.965 690.464 461.688 717.304 424.911M665.402 504.504C688.883 477.755 707.945 448.84 726.785 431.292M670.957 503.678C688.834 481.259 704.908 455.136 730.316 426.278M685.081 511.085C697.871 480.945 713.995 459.437 742.045 424.483M682.859 504.048C696.266 485.161 716.686 463.653 740.514 427.133M694.365 500.089C714.563 472.997 734.588 445.564 755.057 426.99M692.735 507.068C711.995 482.626 734.069 456.446 757.082 425.11M705.328 511.626C728.316 483.708 738.588 465.363 772.094 420.609M707.205 507.438C727.822 483.167 746.094 460.178 768.391 421.891M722.736 507.182C742.39 475.647 759.699 446.618 777.897 426.99M723.674 507.296C741.946 473.111 765.65 443.057 782.094 425.879M735.995 503.678C746.835 481.8 768.613 466.815 797.774 419.327M736.069 507.809C750.193 487.383 763.576 464.252 795.033 423.714M751.625 508.094C757.822 484.876 772.045 471.117 810.465 422.404M749.057 503.279C764.193 486.415 776.292 466.872 808.687 422.831M755.501 503.536C787.156 475.191 810.712 449.809 820.144 424.341M759.008 506.755C782.415 479.863 797.848 449.979 823.675 423.002M774.983 509.062C790.341 486.358 806.465 462.001 838.441 431.064M773.181 504.191C791.551 479.578 812.811 452.515 835.651 424.626M781.946 508.806C809.872 472.94 826.243 448.242 847.873 423.486M785.773 508.777C806.712 481.714 825.181 458.64 849.404 423.087M804.267 500.402C817.305 481.914 833.009 455.876 862.663 423.543M802.07 503.593C811.897 489.634 825.428 473.282 859.898 422.916M809.033 503.935C829.008 483.053 849.157 458.497 872.589 428.557M814.366 507.211C828.762 481.173 848.021 457.984 876.416 426.107M824.021 507.752C846.021 488.551 863.626 464.793 884.12 420.096M826.243 505.159C842.465 485.047 858.589 461.631 888.688 423.771M840.564 500.203C848.441 494.534 861.231 484.506 888.91 443.285M838.317 503.992C850.145 494.676 858.219 482.512 886.268 443.598M856.071 506.669C863.206 493.907 866.268 487.896 881.429 464.28M852.737 502.71C864.145 489.52 871.923 480.603 884.96 464.223M865.478 506.698C866.984 496.214 876.54 492.625 883.577 481.287M864.318 506.498C868.861 499.32 873.898 494.22 886.935 478.78M878.244 505.273C880.12 502.197 882.589 500.288 886.367 495.673M878.737 504.875C880.886 502.254 883.108 499.519 885.034 496.328" stroke="#CED4DA" stroke-width="0.5" stroke-linecap="round"/>
<path d="M338.361 425.053C470.683 425.993 606.388 419.071 882.071 429.753M338.484 423.087C446.683 430.722 557.894 430.409 883.725 425.879M884.466 421.236C886.268 451.803 880.713 482.199 889.231 501.371M886.441 426.734C885.552 445.877 884.614 469.465 885.799 499.861M880.268 498.55C706.883 500.972 527.844 504.561 340.781 495.588M882.318 500.459C692.513 498.123 500.708 497.696 335.818 502.567M333.818 497.667C335.225 481.259 335.398 473.823 333.818 423.885M336.04 500.972C339.077 473.994 338.855 444.823 335.2 425.509" stroke="black" stroke-linecap="round"/>
<path d="M499.925 539.636L731.804 530.665L739.741 543.244L738.515 605.297L728.966 620.954L714.824 628.939L487.948 614.051L463.127 620.473L479.313 553.346L480.78 538.41L481.791 545.673" fill="#CED4DA"/>
<path d="M491.123 538.963C571.117 531.339 669.536 544.062 718.384 538.963M491.123 538.963C560.535 532.036 636.393 537.015 718.384 538.963M718.384 538.963C727.884 530.016 731.829 547.261 739.429 560.008M718.384 538.963C729.183 546.154 744.648 555.486 739.429 560.008M739.429 560.008C741.088 569.268 742.628 595.267 739.429 602.098M739.429 560.008C738.346 577.325 742.94 589.735 739.429 602.098M739.429 602.098C746.572 624.586 724.06 625.5 718.384 623.143M739.429 602.098C748.087 620.666 734.378 625.596 718.384 623.143M718.384 623.143C651.16 631.176 573.763 617.876 491.123 623.143M718.384 623.143C657.293 618.958 597.983 620.353 491.123 623.143M491.123 623.143C479.867 620.762 478.832 609.818 470.078 602.098M491.123 623.143C486.769 623.095 462.934 616.168 470.078 602.098M470.078 602.098C474.455 591.347 474.142 579.393 470.078 560.008M470.078 602.098C472.122 588.124 469.933 570.254 470.078 560.008M470.078 560.008C471.858 547.982 483.378 533.046 491.123 538.963M470.078 560.008C463.415 535.692 487.491 548.439 491.123 538.963" stroke="black" stroke-linecap="round"/>
<path d="M536.181 566.021C535.976 564.29 535.145 562.946 533.687 561.99C532.229 561.033 530.441 560.555 528.323 560.555C526.774 560.555 525.419 560.806 524.258 561.307C523.107 561.808 522.208 562.497 521.559 563.373C520.921 564.25 520.602 565.247 520.602 566.363C520.602 567.297 520.824 568.099 521.268 568.771C521.724 569.432 522.305 569.984 523.011 570.428C523.717 570.861 524.457 571.22 525.231 571.504C526.006 571.778 526.717 572 527.367 572.171L530.92 573.127C531.831 573.366 532.844 573.697 533.96 574.118C535.088 574.539 536.164 575.114 537.189 575.843C538.225 576.561 539.079 577.483 539.751 578.611C540.423 579.738 540.759 581.122 540.759 582.761C540.759 584.652 540.263 586.36 539.273 587.886C538.293 589.412 536.858 590.625 534.968 591.525C533.089 592.424 530.806 592.874 528.118 592.874C525.613 592.874 523.443 592.47 521.61 591.661C519.788 590.853 518.353 589.725 517.305 588.279C516.269 586.833 515.683 585.153 515.546 583.24H519.919C520.033 584.561 520.477 585.654 521.251 586.52C522.037 587.374 523.028 588.011 524.224 588.433C525.431 588.843 526.729 589.048 528.118 589.048C529.735 589.048 531.187 588.786 532.474 588.262C533.761 587.727 534.78 586.986 535.532 586.041C536.283 585.085 536.659 583.969 536.659 582.693C536.659 581.532 536.335 580.586 535.685 579.858C535.036 579.129 534.182 578.537 533.123 578.081C532.064 577.626 530.92 577.227 529.69 576.885L525.385 575.655C522.652 574.87 520.488 573.748 518.894 572.29C517.3 570.833 516.502 568.925 516.502 566.568C516.502 564.609 517.032 562.901 518.091 561.443C519.162 559.974 520.596 558.835 522.396 558.027C524.206 557.207 526.228 556.797 528.46 556.797C530.715 556.797 532.719 557.201 534.473 558.01C536.226 558.807 537.616 559.9 538.641 561.29C539.677 562.679 540.224 564.256 540.281 566.021H536.181Z" fill="black"/>
<path d="M547.177 592.259V566.021H551.209V592.259H547.177ZM549.227 561.648C548.441 561.648 547.764 561.381 547.194 560.845C546.636 560.31 546.357 559.667 546.357 558.915C546.357 558.164 546.636 557.52 547.194 556.985C547.764 556.45 548.441 556.182 549.227 556.182C550.013 556.182 550.685 556.45 551.243 556.985C551.812 557.52 552.097 558.164 552.097 558.915C552.097 559.667 551.812 560.31 551.243 560.845C550.685 561.381 550.013 561.648 549.227 561.648Z" fill="black"/>
<path d="M569.183 602.645C567.236 602.645 565.562 602.394 564.161 601.893C562.76 601.404 561.593 600.754 560.659 599.946C559.737 599.149 559.002 598.295 558.456 597.384L561.667 595.129C562.032 595.607 562.493 596.154 563.051 596.769C563.609 597.395 564.372 597.936 565.34 598.391C566.319 598.858 567.6 599.092 569.183 599.092C571.301 599.092 573.049 598.579 574.427 597.554C575.805 596.53 576.494 594.924 576.494 592.737V587.408H576.153C575.856 587.886 575.435 588.478 574.888 589.184C574.353 589.879 573.579 590.5 572.565 591.046C571.563 591.581 570.208 591.849 568.5 591.849C566.382 591.849 564.48 591.348 562.794 590.346C561.12 589.344 559.794 587.886 558.814 585.973C557.846 584.06 557.362 581.737 557.362 579.003C557.362 576.316 557.835 573.976 558.78 571.983C559.725 569.979 561.041 568.43 562.726 567.337C564.412 566.232 566.359 565.68 568.568 565.68C570.276 565.68 571.632 565.964 572.634 566.534C573.647 567.092 574.422 567.729 574.957 568.447C575.503 569.153 575.925 569.734 576.221 570.189H576.631V566.021H580.526V593.011C580.526 595.265 580.013 597.099 578.988 598.511C577.975 599.935 576.608 600.976 574.888 601.637C573.18 602.309 571.279 602.645 569.183 602.645ZM569.046 588.228C570.664 588.228 572.03 587.858 573.146 587.117C574.262 586.377 575.111 585.312 575.691 583.923C576.272 582.534 576.563 580.871 576.563 578.935C576.563 577.045 576.278 575.376 575.708 573.93C575.139 572.484 574.296 571.351 573.18 570.531C572.064 569.711 570.686 569.301 569.046 569.301C567.338 569.301 565.915 569.734 564.776 570.599C563.649 571.465 562.8 572.626 562.231 574.084C561.673 575.542 561.394 577.159 561.394 578.935C561.394 580.757 561.678 582.369 562.248 583.769C562.829 585.159 563.683 586.252 564.81 587.049C565.949 587.835 567.361 588.228 569.046 588.228Z" fill="black"/>
<path d="M591.936 576.475V592.259H587.905V566.021H591.8V570.121H592.141C592.756 568.788 593.69 567.718 594.943 566.909C596.195 566.09 597.812 565.68 599.794 565.68C601.57 565.68 603.125 566.044 604.457 566.773C605.79 567.49 606.826 568.583 607.566 570.053C608.306 571.51 608.677 573.355 608.677 575.587V592.259H604.645V575.86C604.645 573.799 604.11 572.193 603.04 571.043C601.969 569.882 600.5 569.301 598.632 569.301C597.346 569.301 596.195 569.58 595.182 570.138C594.18 570.696 593.388 571.51 592.807 572.581C592.227 573.651 591.936 574.949 591.936 576.475Z" fill="black"/>
<path d="M634.355 557.275V592.259H630.119V557.275H634.355Z" fill="black"/>
<path d="M646.334 576.475V592.259H642.302V566.021H646.197V570.121H646.539C647.154 568.788 648.087 567.718 649.34 566.909C650.593 566.09 652.21 565.68 654.191 565.68C655.968 565.68 657.522 566.044 658.855 566.773C660.187 567.49 661.223 568.583 661.964 570.053C662.704 571.51 663.074 573.355 663.074 575.587V592.259H659.043V575.86C659.043 573.799 658.507 572.193 657.437 571.043C656.366 569.882 654.897 569.301 653.03 569.301C651.743 569.301 650.593 569.58 649.579 570.138C648.577 570.696 647.786 571.51 647.205 572.581C646.624 573.651 646.334 574.949 646.334 576.475Z" fill="black"/>
<path d="M373.68 121.12C373.372 118.523 372.125 116.508 369.939 115.073C367.752 113.638 365.07 112.92 361.893 112.92C359.57 112.92 357.537 113.296 355.795 114.048C354.07 114.799 352.72 115.833 351.747 117.148C350.79 118.464 350.312 119.958 350.312 121.632C350.312 123.033 350.645 124.237 351.311 125.245C351.994 126.236 352.865 127.064 353.924 127.73C354.984 128.38 356.094 128.918 357.255 129.345C358.417 129.755 359.485 130.088 360.458 130.344L365.788 131.779C367.154 132.138 368.675 132.633 370.349 133.265C372.04 133.897 373.654 134.76 375.191 135.853C376.746 136.929 378.027 138.313 379.035 140.004C380.043 141.695 380.547 143.77 380.547 146.23C380.547 149.066 379.804 151.628 378.317 153.917C376.848 156.206 374.696 158.025 371.861 159.375C369.042 160.724 365.617 161.399 361.586 161.399C357.828 161.399 354.574 160.793 351.823 159.58C349.09 158.367 346.938 156.676 345.366 154.506C343.812 152.337 342.932 149.817 342.727 146.948H349.287C349.458 148.929 350.124 150.569 351.285 151.867C352.464 153.148 353.95 154.105 355.744 154.737C357.554 155.352 359.502 155.659 361.586 155.659C364.011 155.659 366.189 155.267 368.12 154.481C370.05 153.678 371.579 152.568 372.706 151.15C373.833 149.715 374.397 148.041 374.397 146.128C374.397 144.385 373.91 142.968 372.937 141.874C371.963 140.781 370.682 139.893 369.093 139.209C367.505 138.526 365.788 137.928 363.943 137.416L357.486 135.571C353.386 134.392 350.141 132.71 347.749 130.523C345.358 128.337 344.162 125.476 344.162 121.94C344.162 119.002 344.956 116.439 346.545 114.253C348.151 112.049 350.303 110.341 353.002 109.128C355.718 107.898 358.75 107.283 362.098 107.283C365.48 107.283 368.487 107.89 371.117 109.103C373.748 110.298 375.832 111.938 377.369 114.022C378.924 116.106 379.744 118.472 379.829 121.12H373.68Z" fill="black"/>
<path d="M390.174 160.476V121.12H396.221V160.476H390.174ZM393.249 114.56C392.071 114.56 391.054 114.159 390.2 113.356C389.363 112.553 388.945 111.588 388.945 110.461C388.945 109.333 389.363 108.368 390.2 107.565C391.054 106.762 392.071 106.361 393.249 106.361C394.428 106.361 395.436 106.762 396.273 107.565C397.127 108.368 397.554 109.333 397.554 110.461C397.554 111.588 397.127 112.553 396.273 113.356C395.436 114.159 394.428 114.56 393.249 114.56Z" fill="black"/>
<path d="M423.183 176.055C420.262 176.055 417.751 175.679 415.65 174.928C413.549 174.193 411.798 173.22 410.397 172.007C409.014 170.811 407.912 169.53 407.092 168.163L411.909 164.781C412.456 165.499 413.148 166.319 413.985 167.241C414.822 168.18 415.966 168.992 417.418 169.675C418.887 170.375 420.809 170.726 423.183 170.726C426.36 170.726 428.982 169.957 431.049 168.42C433.116 166.882 434.15 164.474 434.15 161.194V153.2H433.637C433.193 153.917 432.561 154.805 431.741 155.864C430.938 156.906 429.777 157.837 428.256 158.657C426.753 159.46 424.721 159.862 422.158 159.862C418.981 159.862 416.128 159.11 413.6 157.607C411.089 156.104 409.099 153.917 407.63 151.047C406.178 148.178 405.452 144.693 405.452 140.593C405.452 136.562 406.161 133.051 407.579 130.062C408.997 127.056 410.97 124.733 413.498 123.093C416.026 121.436 418.947 120.607 422.261 120.607C424.823 120.607 426.856 121.034 428.359 121.888C429.879 122.725 431.041 123.682 431.844 124.758C432.664 125.817 433.296 126.688 433.74 127.372H434.355V121.12H440.197V161.604C440.197 164.986 439.428 167.736 437.891 169.854C436.37 171.99 434.321 173.553 431.741 174.543C429.179 175.551 426.326 176.055 423.183 176.055ZM422.978 154.429C425.404 154.429 427.454 153.874 429.128 152.764C430.802 151.654 432.074 150.057 432.945 147.973C433.817 145.889 434.252 143.395 434.252 140.491C434.252 137.655 433.825 135.153 432.971 132.983C432.117 130.814 430.853 129.114 429.179 127.884C427.505 126.654 425.438 126.039 422.978 126.039C420.416 126.039 418.281 126.688 416.572 127.987C414.881 129.285 413.609 131.027 412.755 133.214C411.918 135.4 411.499 137.826 411.499 140.491C411.499 143.224 411.926 145.641 412.78 147.742C413.651 149.826 414.933 151.466 416.624 152.662C418.332 153.84 420.45 154.429 422.978 154.429Z" fill="black"/>
<path d="M457.313 136.801V160.476H451.266V121.12H457.108V127.269H457.62C458.543 125.271 459.943 123.665 461.822 122.452C463.701 121.222 466.127 120.607 469.099 120.607C471.764 120.607 474.096 121.154 476.094 122.247C478.093 123.323 479.647 124.963 480.758 127.167C481.868 129.353 482.423 132.12 482.423 135.469V160.476H476.376V135.879C476.376 132.787 475.573 130.378 473.968 128.653C472.362 126.911 470.158 126.039 467.357 126.039C465.427 126.039 463.701 126.458 462.181 127.295C460.678 128.132 459.491 129.353 458.62 130.959C457.748 132.565 457.313 134.512 457.313 136.801Z" fill="black"/>
<path d="M520.941 108.001V160.476H514.586V108.001H520.941Z" fill="black"/>
<path d="M538.909 136.801V160.476H532.862V121.12H538.704V127.269H539.216C540.139 125.271 541.54 123.665 543.419 122.452C545.298 121.222 547.723 120.607 550.695 120.607C553.36 120.607 555.692 121.154 557.69 122.247C559.689 123.323 561.244 124.963 562.354 127.167C563.464 129.353 564.019 132.12 564.019 135.469V160.476H557.972V135.879C557.972 132.787 557.169 130.378 555.564 128.653C553.958 126.911 551.755 126.039 548.953 126.039C547.023 126.039 545.298 126.458 543.777 127.295C542.274 128.132 541.087 129.353 540.216 130.959C539.344 132.565 538.909 134.512 538.909 136.801Z" fill="black"/>
</svg>
