<svg width="499" height="300" viewBox="0 0 499 300" fill="none" xmlns="http://www.w3.org/2000/svg">
<path d="M2.79714 1.53151C193.727 3.06151 383.737 3.10151 497.447 1.30151M2.73714 1.80151C134.307 2.34151 265.517 2.39151 497.147 1.53151M498.147 2.92151C497.987 108.632 497.007 215.652 498.017 298.872M496.167 1.88151C495.147 96.6315 494.917 191.822 496.637 298.572M497.207 298.161C304.717 300.061 112.537 299.552 2.83714 297.612M496.987 298.082C350.907 298.982 205.657 298.782 2.70714 298.232M2.68714 297.992C3.34714 219.522 2.94714 141.582 3.50714 1.88151M2.37714 297.832C0.947144 229.972 0.307144 160.092 2.06714 2.34151" stroke="black" stroke-linecap="round"/>
<path d="M16.7113 62.226C17.5213 58.146 19.2213 54.876 25.2413 52.416M16.7113 62.226C18.1513 58.776 20.1013 56.516 25.2413 52.416M17.1113 67.866C19.0413 58.986 28.6313 58.506 30.2313 52.776M17.1113 67.866C21.2513 63.496 25.6713 58.736 30.2313 52.776M16.8513 74.266C24.8913 69.556 23.8713 59.586 35.2213 53.136M16.8513 74.266C20.3213 69.086 26.4613 64.546 35.2213 53.136M17.2413 79.906C26.7513 73.426 37.0713 58.556 40.8613 52.736M17.2413 79.906C21.8713 73.386 26.6713 65.886 40.8613 52.736M16.9813 86.306C28.7313 79.536 35.7613 66.896 45.8513 53.096M16.9813 86.306C26.2313 75.286 33.8913 69.436 45.8513 53.096M16.7213 92.706C24.9413 79.766 33.6013 70.956 49.5213 54.966M16.7213 92.706C22.4413 86.316 32.1113 78.626 49.5213 54.966M17.1113 98.346C30.2513 85.796 37.7613 74.646 51.2313 59.096M17.1113 98.346C23.3413 88.856 32.2013 77.896 51.2313 59.096M16.8513 104.746C26.7113 96.126 41.5313 76.986 52.9313 63.236M16.8513 104.746C27.7713 94.136 37.8813 82.236 52.9313 63.236M17.2513 110.386C29.2713 101.526 40.3713 84.616 53.3313 68.876M17.2513 110.386C25.7913 97.936 38.9013 86.806 53.3313 68.876M16.9813 116.786C28.3213 109.146 37.4813 98.686 53.0713 75.276M16.9813 116.786C28.7413 105.556 36.6913 92.726 53.0713 75.276M16.7213 123.186C27.0113 113.896 34.5813 100.076 53.4613 80.916M16.7213 123.186C25.6813 109.146 38.7913 99.006 53.4613 80.916M17.1213 128.826C25.3713 113.286 40.8713 103.796 53.2013 87.316M17.1213 128.826C30.4413 112.826 43.9213 96.376 53.2013 87.316M16.8613 135.226C29.4013 126.986 33.0313 116.446 52.9413 93.716M16.8613 135.226C30.8013 119.946 42.2913 105.786 52.9413 93.716M17.2513 140.866C29.9113 125.486 43.0713 113.256 53.3313 99.356M17.2513 140.866C26.3513 132.506 33.2013 123.916 53.3313 99.356M16.9913 147.266C30.0713 136.406 41.6413 115.736 53.0713 105.756M16.9913 147.266C29.7013 132.196 41.2313 119.226 53.0713 105.756M16.7313 153.666C26.3313 141.816 38.3013 127.916 53.4713 111.396M16.7313 153.666C25.1213 143.156 35.7013 129.516 53.4713 111.396M17.1213 159.306C28.4813 142.256 40.4813 132.406 53.2113 117.796M17.1213 159.306C29.5013 145.436 43.2213 130.276 53.2113 117.796M16.8613 165.706C32.9213 148.366 39.8913 136.376 52.9413 124.196M16.8613 165.706C24.9713 154.006 35.6313 142.776 52.9413 124.196M17.2613 171.346C25.8813 162.806 40.0813 149.996 53.3413 129.836M17.2613 171.346C25.4013 159.346 32.8813 151.206 53.3413 129.836M16.9913 177.746C30.8513 162.016 33.8413 150.656 53.0813 136.236M16.9913 177.746C29.4413 165.706 39.3213 149.776 53.0813 136.236M16.7313 184.146C28.0813 171.706 39.9513 154.076 53.4713 141.876M16.7313 184.146C30.6413 168.066 45.5413 148.236 53.4713 141.876M17.1313 189.786C33.9713 173.816 46.4913 162.036 53.2113 148.276M17.1313 189.786C29.3513 176.746 41.4513 162.296 53.2113 148.276M16.8713 196.186C25.8713 179.126 37.7013 171.476 52.9513 154.676M16.8713 196.186C26.6013 183.746 38.7513 169.086 52.9513 154.676M17.2613 201.826C27.5713 189.376 37.2913 178.366 53.3413 160.316M17.2613 201.826C30.0013 188.056 43.9313 168.926 53.3413 160.316M17.0013 208.226C25.7213 201.756 32.1913 184.906 53.0813 166.716M17.0013 208.226C26.3313 198.116 31.6913 191.006 53.0813 166.716M16.7413 214.616C27.2613 199.846 44.5813 189.026 53.4813 172.356M16.7413 214.616C25.9813 202.946 32.6713 195.746 53.4813 172.356M17.1313 220.266C26.4113 207.666 41.4113 188.286 53.2213 178.756M17.1313 220.266C27.1713 211.446 33.9713 201.796 53.2213 178.756M16.8713 226.666C29.8113 213.946 39.6713 203.906 52.9513 185.156M16.8713 226.666C32.1613 210.686 43.4713 193.266 52.9513 185.156M17.2613 232.306C27.4013 222.496 39.5513 208.996 53.3513 190.796M17.2613 232.306C26.0513 221.806 35.4013 212.016 53.3513 190.796M17.0013 238.706C31.2513 225.756 35.6813 213.266 53.0913 197.196M17.0013 238.706C29.9013 224.386 44.4213 206.936 53.0913 197.196M16.7413 245.096C29.0513 239.336 36.8113 228.116 53.4813 202.836M16.7413 245.096C30.7013 228.956 47.2113 210.106 53.4813 202.836M17.1413 250.746C32.0813 237.916 49.1613 218.566 53.2213 209.236M17.1413 250.746C29.9513 236.636 43.4113 224.396 53.2213 209.236M16.8813 257.136C31.7613 239.406 42.9713 222.546 52.9613 215.636M16.8813 257.136C24.9013 247.076 32.7913 237.716 52.9613 215.636M17.9313 262.026C24.3313 253.836 35.7613 243.456 53.3513 221.276M17.9313 262.026C24.7513 254.156 31.8113 246.436 53.3513 221.276M20.9413 264.656C29.3913 249.986 44.5513 243.976 53.0913 227.676M20.9413 264.656C27.3113 254.566 35.1613 247.456 53.0913 227.676M23.9613 267.276C29.0213 262.936 40.1613 250.846 53.4913 233.316M23.9613 267.276C33.8013 258.066 42.3913 248.176 53.4913 233.316M28.9513 267.636C39.0913 259.706 49.1813 247.396 53.2213 239.716M28.9513 267.636C39.4813 255.186 50.2213 245.256 53.2213 239.716M33.9413 267.996C38.1413 257.406 48.3713 253.196 52.9613 246.116M33.9413 267.996C36.2013 265.156 43.2513 260.126 52.9613 246.116M38.9213 268.356C40.3613 263.706 52.7713 258.846 53.3613 251.756M38.9213 268.356C44.5613 263.896 48.2813 257.626 53.3613 251.756M44.5713 267.966C46.6713 265.626 50.0213 260.576 53.1013 258.156M44.5713 267.966C47.2713 264.416 49.1213 262.856 53.1013 258.156M26.9413 265.206C23.2213 258.836 16.0413 260.506 16.3813 256.026M26.9413 265.206C21.9313 260.546 19.2413 258.366 16.3813 256.026M33.3413 265.466C27.4113 257.956 18.9013 259.006 16.7413 251.036M33.3413 265.466C28.4713 261.596 22.3613 254.616 16.7413 251.036M39.7413 265.726C29.1413 258.556 22.0513 249.816 16.3413 245.396M39.7413 265.726C29.5713 258.126 21.8713 249.516 16.3413 245.396M43.8713 264.026C36.7113 253.336 19.7513 244.296 16.7013 240.406M43.8713 264.026C36.8113 257.416 26.7313 249.706 16.7013 240.406M49.5213 263.626C35.9313 251.086 23.1113 244.106 16.3113 234.766M49.5213 263.626C37.7013 250.226 23.9613 241.416 16.3113 234.766M50.6313 259.296C41.2013 245.036 22.1513 236.516 16.6713 229.776M50.6313 259.296C43.0613 252.266 34.6513 244.176 16.6713 229.776M52.5013 255.626C38.8713 249.716 33.0913 238.806 16.2713 224.136M52.5013 255.626C36.7013 245.466 24.7113 229.016 16.2713 224.136M52.1013 249.976C41.8313 239.036 33.5013 238.346 16.6313 219.146M52.1013 249.976C45.4913 242.586 37.1913 238.456 16.6313 219.146M52.4713 244.996C41.1713 235.976 23.7913 222.816 16.2413 213.506M52.4713 244.996C38.5013 233.296 23.3413 221.146 16.2413 213.506M52.0713 239.346C44.0113 233.606 32.4313 226.106 16.6013 208.516M52.0713 239.346C42.4613 229.886 31.7913 222.436 16.6013 208.516M52.4313 234.366C40.8713 230.336 36.1313 219.066 16.9613 203.526M52.4313 234.366C40.8513 226.686 29.7313 216.696 16.9613 203.526M52.7913 229.376C40.3113 221.836 34.4513 214.576 16.5613 197.886M52.7913 229.376C46.1113 224.376 36.0813 217.576 16.5613 197.886M52.4013 223.736C47.2013 216.456 38.2413 208.546 16.9213 192.896M52.4013 223.736C39.6213 213.456 26.2013 198.906 16.9213 192.896M52.7613 218.746C46.0813 211.096 30.5313 205.666 16.5313 187.256M52.7613 218.746C40.0713 207.736 29.5113 199.886 16.5313 187.256M52.3613 213.106C44.9313 204.626 34.5613 198.326 16.8913 182.266M52.3613 213.106C41.1813 202.696 29.2313 191.706 16.8913 182.266M52.7213 208.116C40.6213 193.956 26.9013 186.706 16.5013 176.626M52.7213 208.116C41.3213 200.996 32.2913 190.906 16.5013 176.626M52.3313 202.476C43.6113 196.646 31.3913 184.096 16.8613 171.636M52.3313 202.476C45.9013 193.276 34.9313 185.746 16.8613 171.636M52.6913 197.486C37.0313 189.326 21.6613 171.816 16.4613 165.996M52.6913 197.486C40.3413 189.246 31.4913 178.446 16.4613 165.996M52.2913 191.846C39.9913 186.356 34.9813 178.026 16.8213 161.006M52.2913 191.846C45.2913 186.376 36.1413 178.196 16.8213 161.006M52.6513 186.856C40.1413 176.606 32.5513 168.336 16.4313 155.366M52.6513 186.856C42.9213 179.846 34.4013 173.166 16.4313 155.366M52.2613 181.216C39.5913 171.946 30.5713 155.876 16.7913 150.376M52.2613 181.216C39.3213 169.546 26.2413 158.106 16.7913 150.376M52.6213 176.226C40.8713 171.456 31.5313 161.296 16.3913 144.736M52.6213 176.226C37.9013 164.716 28.4913 152.236 16.3913 144.736M52.2213 170.586C46.7913 166.336 37.3013 160.886 16.7513 139.746M52.2213 170.586C38.5313 158.146 24.9413 146.836 16.7513 139.746M52.5813 165.596C38.9013 153.216 25.7113 136.656 16.3613 134.106M52.5813 165.596C45.6313 161.156 36.1413 151.416 16.3613 134.106M52.1913 159.956C41.2113 145.716 30.4113 140.316 16.7213 129.116M52.1913 159.956C40.9813 149.806 25.3813 137.246 16.7213 129.116M52.5513 154.966C45.5113 149.796 31.6913 137.316 16.3213 123.476M52.5513 154.966C45.5713 149.366 37.4613 142.696 16.3213 123.476M52.1513 149.326C43.8113 141.576 35.7013 137.806 16.6813 118.486M52.1513 149.326C41.7413 140.976 34.3713 131.336 16.6813 118.486M52.5113 144.336C46.7213 134.146 38.1913 131.276 16.2913 112.846M52.5113 144.336C36.6613 131.406 24.9913 120.576 16.2913 112.846M52.1213 138.696C45.5613 133.176 37.0013 123.696 16.6513 107.856M52.1213 138.696C38.1413 127.806 26.9213 116.006 16.6513 107.856M52.4813 133.706C38.3913 120.056 26.4113 113.456 16.2513 102.216M52.4813 133.706C38.6813 123.216 29.4113 114.836 16.2513 102.216M52.0913 128.066C39.0613 123.416 31.6313 114.536 16.6113 97.226M52.0913 128.066C42.7513 120.896 35.1613 113.486 16.6113 97.226M52.4513 123.076C44.3613 113.256 31.4013 106.416 16.9713 92.236M52.4513 123.076C41.9113 115.556 33.6013 105.106 16.9713 92.236M52.8113 118.086C40.7713 108.856 33.9413 101.786 16.5813 86.596M52.8113 118.086C37.8913 104.756 25.4113 94.316 16.5813 86.596M52.4113 112.446C45.6113 105.276 37.5413 93.146 16.9413 81.606M52.4113 112.446C39.3613 99.406 24.6813 89.836 16.9413 81.606M52.7713 107.456C47.2713 104.646 36.6213 98.206 16.5513 75.966M52.7713 107.456C38.8213 96.436 26.7413 85.396 16.5513 75.966M52.3813 101.816C42.7413 92.146 28.7813 84.746 16.9113 70.976M52.3813 101.816C36.2913 89.986 24.1513 78.496 16.9113 70.976M52.7413 96.826C37.6413 84.796 23.5113 72.316 16.5113 65.336M52.7413 96.826C44.1813 90.616 37.6513 85.506 16.5113 65.336M52.3413 91.186C39.3513 79.666 29.4913 70.046 16.8713 60.346M52.3413 91.186C40.8713 79.686 27.9413 68.106 16.8713 60.346M52.7013 86.196C42.3113 81.086 33.8013 71.956 17.9913 56.016M52.7013 86.196C44.7013 80.916 34.7013 72.996 17.9913 56.016M52.3113 80.556C46.6013 70.396 36.4313 68.146 19.8613 52.346M52.3113 80.556C40.3513 71.756 27.3913 61.336 19.8613 52.346M52.6713 75.566C44.3513 70.636 33.4713 56.156 25.5013 51.946M52.6713 75.566C46.6913 68.366 38.5313 62.346 25.5013 51.946M52.2713 69.926C47.9913 60.136 36.9813 58.666 31.9013 52.216M52.2713 69.926C46.2213 64.966 40.6513 59.866 31.9013 52.216M52.6313 64.936C51.7513 62.866 41.5813 60.966 37.5413 51.816M52.6313 64.936C46.2413 61.726 44.4913 55.516 37.5413 51.816M52.2413 59.296C47.7113 54.526 47.8613 52.566 43.9413 52.076M52.2413 59.296C50.9313 58.316 48.4813 55.276 43.9413 52.076" stroke="#CED4DA" stroke-width="0.5" stroke-linecap="round"/>
<path d="M24.7613 52.2761C30.4713 51.7061 36.6213 53.4961 42.3913 52.2761M24.7613 52.2761C31.6713 53.1061 35.0913 52.4961 42.3913 52.2761M42.3913 52.2761C45.6213 51.7061 49.8813 52.2361 51.2013 61.0961M42.3913 52.2761C51.3413 51.1761 50.1013 51.8561 51.2013 61.0961M51.2013 61.0961C57.6613 123.466 51.0613 175.476 51.2013 256.986M51.2013 61.0961C53.5513 120.206 53.2613 179.236 51.2013 256.986M51.2013 256.986C54.6413 266.326 51.4914 267.126 42.3913 265.806M51.2013 256.986C51.5713 261.896 51.8113 266.166 42.3913 265.806M42.3913 265.806C35.7813 263.626 35.2613 269.116 24.7613 265.806M42.3913 265.806C35.3413 266.126 28.7913 264.526 24.7613 265.806M24.7613 265.806C20.0613 265.456 14.4913 261.496 15.9413 256.986M24.7613 265.806C21.4713 265.296 19.0613 258.426 15.9413 256.986M15.9413 256.986C18.6813 213.286 19.8513 163.836 15.9413 61.0961M15.9413 256.986C16.3113 179.436 18.3213 103.786 15.9413 61.0961M15.9413 61.0961C17.4213 54.7161 18.4013 55.7061 24.7613 52.2761M15.9413 61.0961C11.8413 58.1561 14.3713 56.4261 24.7613 52.2761" stroke="black" stroke-linecap="round"/>
<path d="M23.3217 89.0893C27.4817 83.9593 30.8617 79.2193 33.7417 74.4193M21.9517 86.2493C28.5817 82.7993 32.2017 76.1093 36.6017 71.6393M23.4617 91.0693C29.9317 83.4093 31.2317 80.3993 39.4117 68.3493M24.1117 92.2893C30.0117 85.0993 33.8117 78.1693 41.9717 73.0393M27.4617 96.4693C35.7617 90.2093 37.2317 76.0293 48.5617 68.8693M25.5917 96.4693C27.6117 91.2593 32.9317 86.1593 45.8317 73.0893M30.4017 100.759C30.4017 92.0993 38.3717 86.9493 43.6017 72.9993M29.4817 99.6993C32.1717 90.0493 37.7217 86.1693 46.3317 76.9493M30.4117 101.789C39.4717 90.3593 41.3217 89.8093 46.7617 79.6693M31.8417 101.049C38.5417 90.2993 46.7917 85.8993 46.8617 82.7693M37.6017 102.989C41.6017 98.4493 44.8117 95.0593 48.6717 88.4593M35.0317 99.9193C42.2017 96.5193 46.9617 92.3893 47.0917 89.0093" stroke="#868E96" stroke-width="0.5" stroke-linecap="round"/>
<path d="M34.6617 70.3593C37.7117 69.8693 41.4817 68.9793 43.6417 70.5093C45.7917 72.0393 47.0017 76.3793 47.5717 79.5293C48.1417 82.6793 48.3117 85.9193 47.0417 89.3993C45.7817 92.8893 42.6017 98.8693 39.9617 100.429C37.3317 101.989 34.0217 99.6193 31.2217 98.7693C28.4217 97.9193 24.4517 97.5893 23.1417 95.3193C21.8317 93.0493 22.7217 88.4693 23.3817 85.1293C24.0317 81.7993 24.7017 77.8293 27.0817 75.3093C29.4617 72.7893 35.5017 70.5693 37.6717 70.0293C39.8317 69.4793 39.9817 72.1593 40.0817 72.0493M34.8917 70.1893C37.8717 70.5093 43.7317 72.0793 45.5917 74.3893C47.4617 76.6993 45.5617 80.6993 46.0817 84.0293C46.6017 87.3493 50.2717 92.1093 48.7117 94.3393C47.1517 96.5593 39.6017 96.5993 36.7317 97.3893C33.8617 98.1693 33.6917 100.289 31.4917 99.0393C29.2817 97.7793 25.3617 93.4493 23.5017 89.8593C21.6417 86.2693 19.8917 80.3693 20.3217 77.4993C20.7517 74.6293 23.2617 73.6593 26.0517 72.6393C28.8417 71.6093 34.7117 71.4293 37.0517 71.3493C39.4017 71.2593 39.9417 72.2193 40.1317 72.1493" stroke="black" stroke-linecap="round"/>
<path d="M27.1553 124.912C33.3153 121.102 37.6253 117.382 41.7453 112.962M24.0553 127.222C30.0853 123.272 32.2053 117.672 39.5353 113.222M24.0453 134.542C31.1753 127.532 39.0053 120.512 43.3853 113.272M24.7753 136.712C33.3453 127.882 38.0653 121.572 42.6753 115.172M30.0653 142.752C33.6753 136.652 39.1453 129.902 43.2853 116.852M28.3353 138.292C31.2353 132.972 39.4453 127.792 44.8253 118.712M28.4053 145.032C37.2053 139.392 35.9753 134.022 48.1153 119.552M31.1953 142.982C33.7453 137.722 36.9053 133.802 47.3453 121.942M31.8953 148.022C34.7953 134.832 44.0153 128.902 50.3053 122.672M32.3353 143.612C37.0853 138.802 46.0553 128.812 49.9353 126.452M35.5453 142.442C39.4753 142.742 42.9653 140.172 53.3853 128.692M37.8253 146.612C41.6953 142.102 47.0053 135.472 49.9953 129.912M45.2453 144.712C45.1653 142.192 47.5753 139.322 52.6053 134.672M40.5953 146.222C45.1253 140.922 47.3853 138.782 51.5853 134.272" stroke="#868E96" stroke-width="0.5" stroke-linecap="round"/>
<path d="M47.5353 120.182C49.4953 122.412 50.8453 127.042 50.7853 130.362C50.7253 133.672 48.8253 137.612 47.1953 140.052C45.5553 142.492 43.9153 144.672 40.9653 144.972C38.0153 145.272 32.4053 143.212 29.4953 141.862C26.5853 140.512 24.2653 139.452 23.5153 136.892C22.7653 134.342 23.6353 130.192 24.9853 126.552C26.3253 122.912 28.9953 117.272 31.5753 115.032C34.1453 112.802 37.2753 110.672 40.4553 113.142C43.6253 115.612 49.9153 125.372 50.6053 129.882C51.2953 134.402 45.1053 140.212 44.6153 140.222M27.7053 116.352C28.7953 113.892 31.1953 117.032 33.6053 116.762C36.0153 116.492 39.8453 113.752 42.1753 114.722C44.5053 115.702 46.9253 119.162 47.5653 122.612C48.2053 126.072 46.4853 132.302 46.0153 135.452C45.5553 138.602 47.3253 140.352 44.7953 141.492C42.2653 142.622 34.1053 142.672 30.8453 142.262C27.5953 141.842 26.0553 141.602 25.2453 139.002C24.4453 136.392 25.8453 129.932 26.0253 126.632C26.2053 123.322 25.8553 120.912 26.3153 119.172C26.7853 117.432 28.2753 116.422 28.8353 116.202" stroke="black" stroke-linecap="round"/>
<path d="M31.7428 166.408C34.0928 166.228 33.2828 161.798 36.8228 157.798M30.0228 167.888C33.8328 164.778 36.7528 161.978 37.1828 160.078M24.0628 177.828C29.1128 173.928 33.4828 169.718 44.2228 163.348M28.1528 180.128C29.7528 173.378 37.8828 167.228 41.4628 159.888M30.0628 180.598C37.0628 179.638 37.4628 171.408 46.3828 162.248M29.8028 184.188C34.0328 174.328 41.0428 169.118 47.3328 161.918M30.7428 184.408C40.9028 177.848 47.1628 167.968 47.2428 162.078M27.4328 186.678C33.1628 180.508 39.5228 178.668 49.9728 165.708M34.2028 193.028C41.7228 182.388 44.8628 172.018 54.2228 168.268M33.0728 189.928C39.1328 182.618 46.0328 173.758 50.7728 167.548M38.4728 189.468C44.3028 183.178 43.4128 181.818 49.8128 174.398M35.1628 192.138C41.6728 184.178 46.8328 180.338 49.9128 172.148" stroke="#868E96" stroke-width="0.5" stroke-linecap="round"/>
<path d="M32.9428 158.818C35.8928 157.838 41.2928 158.158 44.0928 159.308C46.8928 160.458 48.7728 162.738 49.7528 165.708C50.7428 168.678 50.8528 173.528 50.0028 177.158C49.1528 180.778 46.8528 185.118 44.6428 187.468C42.4428 189.808 39.3928 191.188 36.7728 191.218C34.1628 191.248 30.9928 189.978 28.9728 187.628C26.9528 185.288 24.9128 180.668 24.6628 177.148C24.4128 173.628 25.3028 169.758 27.4828 166.508C29.6628 163.248 34.7128 158.448 37.7428 157.638C40.7628 156.828 45.6328 161.388 45.6128 161.648M44.5828 162.148C46.7028 163.658 49.2128 167.298 49.9428 170.498C50.6728 173.698 50.0628 178.348 48.9528 181.368C47.8428 184.378 45.7828 187.568 43.3028 188.598C40.8328 189.638 36.4628 188.758 34.0928 187.568C31.7228 186.378 31.0228 184.208 29.0728 181.468C27.1228 178.738 21.9328 173.998 22.4028 171.148C22.8628 168.308 29.2228 166.688 31.8628 164.408C34.5028 162.138 35.3928 157.928 38.2328 157.488C41.0728 157.048 47.4828 161.388 48.9028 161.778C50.3128 162.168 47.4928 159.948 46.7128 159.848" stroke="black" stroke-linecap="round"/>
<path d="M28.8393 219.068C32.3493 210.158 30.5693 207.038 37.3193 205.168M25.4493 215.508C27.7793 213.988 34.1193 208.548 35.4193 205.688M27.6093 217.178C28.8893 210.858 36.9393 204.928 37.4293 208.278M27.3893 219.638C29.0493 219.128 34.6193 214.988 42.1993 204.568M30.2293 226.928C33.6493 224.488 33.5393 218.618 48.3193 204.438M25.4793 228.468C35.8193 219.128 40.8793 212.418 43.6093 206.228M29.3993 233.928C32.1593 222.188 40.8093 215.248 49.2893 212.168M27.7993 230.198C35.3293 223.438 39.3093 219.158 47.2593 211.548M30.3693 237.828C41.2893 222.288 42.5093 221.738 50.1793 213.978M30.2893 233.488C37.2593 230.628 37.5093 226.078 49.5593 216.428M36.9293 235.178C41.2893 232.488 45.0993 224.578 50.6393 217.468M36.7393 235.658C39.1193 233.588 41.1993 229.458 51.3493 217.328M41.4393 239.798C41.8493 234.878 47.9293 227.458 55.1993 225.688M41.5793 235.628C44.6493 231.288 47.8593 227.848 52.0993 223.948" stroke="#868E96" stroke-width="0.5" stroke-linecap="round"/>
<path d="M45.2693 206.058C47.3693 207.438 47.3993 211.938 48.1393 215.318C48.8793 218.698 50.5893 222.988 49.7093 226.348C48.8293 229.708 45.6893 234.128 42.8593 235.458C40.0293 236.778 35.4493 235.638 32.7393 234.298C30.0293 232.968 27.8893 230.088 26.6193 227.428C25.3493 224.778 24.9293 221.578 25.1393 218.358C25.3493 215.128 26.4093 210.698 27.8793 208.078C29.3393 205.468 30.6493 201.188 33.9393 202.678C37.2293 204.168 45.4293 213.078 47.6093 217.018C49.7993 220.968 47.0993 226.438 47.0293 226.328M27.7793 211.008C29.1893 208.038 33.2793 204.558 35.3593 203.858C37.4393 203.168 37.5693 204.848 40.2593 206.838C42.9493 208.818 50.0593 212.918 51.4993 215.768C52.9393 218.618 50.6393 220.798 48.8893 223.948C47.1293 227.108 43.3293 232.778 40.9893 234.688C38.6493 236.608 37.4293 236.498 34.8393 235.448C32.2393 234.398 27.3093 230.868 25.3993 228.398C23.4893 225.928 23.2393 223.738 23.3893 220.638C23.5293 217.538 25.5193 212.038 26.2493 209.778C26.9793 207.528 27.8993 206.928 27.7593 207.108" stroke="black" stroke-linecap="round"/>
<path d="M69.2901 61.3635L479.84 59.8735L484.51 90.2735L69.2401 91.4635" fill="#868E96"/>
<path d="M64.7701 57.3035C200.21 61.2935 332.69 64.8235 479.25 59.1335M65.9801 60.1335C151.26 62.0535 235.05 61.2635 480.13 58.7335M484.07 60.4935C480.66 68.8535 484.49 77.3535 484.42 90.6135M482.99 58.7735C480.43 68.2235 478.82 75.2935 481.66 94.0735M479.75 90.9735C394.44 94.5135 308.59 96.7535 67.3301 91.6835M481.16 91.8835C355.83 92.4035 232.62 91.8735 67.7101 93.2535M69.8601 88.2735C64.8101 83.6735 68.7401 68.0935 63.0201 58.8135M68.4801 93.1535C65.8601 80.0135 68.4201 68.5335 68.2301 61.3235" stroke="black" stroke-linecap="round"/>
<path d="M70.8775 101.707C71.6375 97.1869 72.9375 95.5569 74.0275 93.3769M69.4175 100.157C69.6975 98.9069 71.8175 97.4969 75.3575 95.0969M71.2275 108.927C72.7175 103.737 74.3975 99.3269 81.5375 95.1469M71.0075 105.587C74.1075 102.817 78.3775 95.2769 78.8475 94.4369M67.3775 115.837C78.5775 107.557 81.3875 96.8469 88.2675 91.8569M68.7775 112.857C76.2375 106.647 83.4775 97.0669 86.6375 95.5469M70.1375 119.897C79.8875 108.887 86.0975 99.4769 87.1575 94.4869M69.9975 116.807C74.9275 109.427 80.2575 104.277 91.4175 94.7169M71.2775 122.487C75.4275 117.347 86.9475 101.887 96.2275 96.5569M68.5375 122.527C77.7075 117.247 85.3175 106.447 95.2075 94.5469M68.6975 127.867C74.1075 121.977 85.6375 114.907 105.398 90.9469M68.9175 130.337C78.7875 117.567 88.6475 106.687 100.468 94.4169M72.8875 139.947C80.1175 118.107 97.5475 102.987 107.728 98.1569M71.5575 137.987C78.1275 123.817 92.1375 112.737 105.368 94.7169M69.1175 146.507C84.5875 133.667 90.5475 113.807 112.758 90.1069M67.7775 140.987C82.7875 128.907 95.0675 114.007 111.998 94.8969M70.1575 147.747C85.6275 129.597 100.388 118.087 113.388 98.0669M71.3075 147.377C80.0675 136.867 90.3575 123.687 118.038 93.5169M67.1175 152.227C81.2775 138.147 94.9275 122.127 123.268 96.4769M69.9575 153.837C86.8775 137.267 101.938 117.367 120.948 94.3169M66.2175 157.407C84.7275 145.887 96.3675 132.337 127.648 94.8669M69.2075 160.487C85.5675 145.907 99.3675 126.567 129.698 94.3069M66.8775 165.857C90.2675 143.007 115.158 115.927 136.758 93.7169M71.0875 167.157C86.7775 145.707 102.668 127.457 132.868 93.7669M67.9575 173.327C95.0475 141.877 124.528 112.127 136.728 96.3369M71.2375 171.757C94.6775 144.537 117.658 116.347 138.438 92.3769M68.3875 177.417C89.0875 149.247 116.498 125.727 142.888 96.7069M68.3675 179.077C91.1475 155.707 109.318 133.137 145.888 95.2169M70.1175 185.397C96.8575 152.877 130.778 122.947 150.698 91.4269M69.9975 186.817C95.5675 155.847 121.448 130.687 149.948 92.9069M70.7975 190.877C82.4275 174.747 100.988 147.497 157.108 91.4969M69.9575 190.427C92.6675 160.297 121.028 129.247 156.738 95.5669M69.9275 193.907C92.1875 175.027 113.318 147.667 159.428 94.2869M69.3575 197.407C98.2175 165.297 131.488 130.517 159.498 92.9769M71.0375 201.117C94.5075 177.247 109.868 159.387 168.698 95.3269M71.5675 203.647C93.3275 174.207 119.318 145.087 166.738 92.5969M70.3975 206.347C94.1775 180.357 116.478 156.067 168.588 92.2469M69.7575 208.207C108.758 167.287 144.548 124.337 169.968 95.6069M71.8775 218.487C101.458 173.347 139.958 140.317 176.738 96.6169M70.5475 217.387C112.408 168.467 152.688 122.977 175.818 95.0069M67.7075 226.157C101.898 188.427 128.558 145.837 179.678 97.8369M69.5775 223.537C109.148 171.257 153.358 123.157 181.808 95.6869M72.5675 229.757C99.2575 192.017 126.018 160.237 185.488 91.7569M70.4675 229.397C94.3175 196.717 120.018 169.467 187.818 93.1669M65.8175 237.687C101.238 198.517 138.608 154.847 194.008 96.7669M69.7775 234.387C111.248 188.767 153.768 139.997 191.088 94.0169M72.1675 242.877C119.028 187.627 169.148 128.907 194.958 94.0169M70.5275 239.387C113.518 194.877 155.498 147.777 195.168 94.0769M68.6675 246.717C102.708 210.517 136.638 170.607 200.848 92.1469M68.1075 245.037C98.9375 208.097 130.658 174.677 203.338 95.1869M72.4775 251.887C121.988 196.087 173.538 136.277 208.818 94.1869M70.6875 251.817C118.358 200.867 162.847 147.127 208.717 95.7269M70.1175 257.707C114.958 204.837 168.438 148.547 212.688 91.7469M70.7175 259.197C116.908 202.647 167.808 144.067 212.258 94.1969M70.5375 261.757C128.418 197.887 189.157 130.187 217.997 93.5069M69.1675 266.077C112.158 212.797 155.698 162.357 219.118 94.8869M67.2575 269.777C130.338 197.777 195.678 130.067 222.788 96.0969M71.6475 269.147C115.628 214.277 160.997 160.797 223.967 93.3569M71.1575 279.117C109.218 233.057 155.057 185.727 226.497 92.3869M70.4475 277.257C120.938 213.377 174.218 152.027 229.168 92.8369M67.8975 282.447C105.598 241.847 140.808 194.267 231.768 96.9369M68.7675 282.627C132.208 208.367 197.748 132.817 233.648 93.0369M74.7475 285.497C115.628 233.947 155.787 188.717 239.188 93.7369M71.0475 286.047C137.858 212.387 200.487 135.637 240.107 93.0069M76.8075 287.357C140.058 210.467 209.638 134.127 243.148 94.3469M77.7175 285.607C142.948 211.457 208.698 135.197 244.678 93.4269M83.1575 284.917C145.708 216.837 207.558 143.237 252.478 93.1869M83.3975 287.437C126.138 230.597 174.828 178.117 250.348 92.8569M90.6675 284.147C139.538 230.087 189.198 169.007 253.798 92.2169M88.3375 286.557C155.598 207.717 222.387 131.937 256.717 93.1169M95.8475 289.647C138.788 233.827 185.728 180.087 258.018 95.5869M94.6975 285.677C131.038 239.767 166.568 198.727 260.408 95.6269M96.0275 286.407C162.538 212.597 224.837 138.787 263.747 95.3769M97.1775 288.327C163.958 212.557 228.908 136.797 267.518 93.8569M104.528 283.727C159.178 223.767 209.048 161.097 271.478 92.1369M105.218 288.067C161.538 220.987 218.247 155.227 271.327 95.5469M106.698 283.967C165.498 221.907 223.568 151.217 279.288 93.5069M107.778 287.457C147.108 242.767 187.548 195.567 277.738 92.4669M113.698 287.737C165.908 224.907 219.798 165.337 284.137 96.0169M114.908 287.267C168.028 221.407 227.568 154.967 282.978 95.6369M118.628 288.547C158.808 243.447 202.088 196.037 290.428 96.6169M119.318 286.077C171.578 229.607 220.618 171.947 286.077 92.1369M123.798 285.177C182.858 215.647 246.568 143.467 291.978 93.8769M124.348 286.347C163.698 242.807 202.108 198.857 292.478 93.2269M132.438 285.427C169.698 240.307 212.107 194.637 299.938 93.0669M131.458 287.057C177.158 230.377 227.467 174.907 297.387 94.3869M137.098 287.327C175.908 235.087 221.458 187.107 305.378 94.3569M135.758 287.627C169.938 245.507 206.868 205.297 302.308 94.4169M143.768 288.267C191.328 232.557 232.508 182.657 306.558 92.3069M139.478 285.907C194.338 228.027 247.718 168.597 307.448 94.9469M144.058 289.307C189.048 243.997 229.668 195.207 313.548 92.5069M144.208 285.917C206.368 214.837 269.548 139.547 312.158 93.1469M152.918 284.237C208.128 221.797 271.538 149.997 317.278 92.7969M152.078 285.337C191.258 236.077 236.657 185.727 320.137 95.2869M155.008 289.677C201.548 240.147 240.638 190.027 326.538 92.3969M154.798 286.517C190.908 245.017 228.118 201.707 323.828 95.3769M161.698 288.937C209.048 230.057 251.288 177.427 327.308 96.2169M160.648 287.187C205.088 234.037 250.258 180.817 328.968 95.8169M163.988 287.947C223.648 223.097 281.338 152.817 333.298 90.9869M167.428 288.197C226.408 223.977 280.558 160.307 336.378 94.8969M170.108 284.987C221.698 227.507 275.958 164.167 338.818 94.7669M173.238 287.537C204.398 245.387 237.458 206.837 340.708 94.5269M177.808 287.827C246.728 210.657 310.328 136.927 343.558 94.2869M178.488 288.017C227.918 229.577 275.558 173.487 344.498 94.2769M186.108 289.897C238.518 225.407 290.948 165.397 350.588 94.5069M183.818 288.067C244.848 214.957 309.658 141.867 350.468 95.7869M186.978 287.507C255.488 210.557 319.018 136.407 358.858 94.7169M188.848 286.207C250.158 214.007 315.838 141.877 356.248 93.5969M196.488 288.217C230.478 247.397 264.188 202.557 361.248 92.8069M193.308 287.967C238.068 236.457 282.288 183.057 359.518 95.7869M201.228 289.377C261.588 215.507 322.688 145.527 369.288 93.7269M199.048 287.757C239.698 232.297 285.558 181.687 365.678 95.3069M202.418 286.457C260.288 221.527 310.828 162.457 372.508 94.4069M204.717 285.507C267.757 212.737 328.268 141.147 370.408 93.9069M207.538 283.877C261.848 223.077 314.808 165.667 376.068 92.1269M210.948 287.897C260.858 222.477 313.878 160.217 376.978 92.8669M216.258 283.987C254.478 243.227 294.148 200.657 379.468 95.3369M215.077 286.197C270.077 219.327 330.788 153.527 382.108 94.2769M218.568 284.987C282.198 207.387 348.498 132.017 388.358 93.2869M219.577 286.627C272.827 227.567 324.078 169.027 386.758 95.0269M225.938 289.247C279.818 224.577 333.588 166.847 393.228 92.6069M226.747 288.177C278.237 231.437 326.018 174.037 391.668 94.5069M230.668 288.297C291.498 218.197 352.058 154.367 400.618 93.4569M230.978 287.097C279.328 229.217 327.898 173.977 398.548 95.0969M237.048 284.147C272.408 236.417 308.688 190.307 405.348 93.8369M236.098 287.067C280.198 236.567 319.128 191.397 402.278 93.7269M240.058 287.117C296.398 220.507 349.258 156.927 408.788 91.4869M241.148 287.527C295.198 227.427 348.258 165.847 408.298 95.2269M243.038 286.247C274.848 247.437 313.948 207.447 416.928 94.7169M247.398 288.097C296.798 230.747 347.098 170.537 415.148 94.2369M252.488 288.627C292.138 244.597 324.648 202.617 419.288 92.7569M250.628 286.087C309.178 219.937 368.198 156.027 418.238 95.7869M256.948 284.347C320.688 222.317 374.008 156.417 422.488 95.0969M257.698 288.477C302.878 231.077 352.038 172.137 424.738 93.3969M260.628 284.807C318.798 223.677 372.118 156.037 429.068 96.5069M262.838 285.697C316.068 231.697 364.558 172.757 431.438 94.0169M265.478 284.987C329.958 221.917 386.248 153.917 432.498 95.8269M267.368 286.797C323.098 231.157 374.758 168.557 436.468 94.9769M273.158 288.007C325.097 229.237 379.758 170.847 437.798 97.1269M272.798 285.977C317.167 238.797 356.248 189.917 439.768 93.3869M280.048 286.857C338.757 211.297 397.788 142.857 444.378 95.4369M277.938 288.077C340.467 216.847 402.708 147.247 445.748 94.5869M285.688 288.907C316.698 241.597 356.638 202.347 453.718 97.2769M284.898 288.077C316.158 249.317 351.828 210.027 450.788 95.7169M287.708 284.747C349.128 214.357 415.288 143.347 458.628 93.4569M289.788 286.797C344.078 220.657 400.978 155.257 455.708 94.2069M296.878 285.597C342.538 230.057 388.118 177.917 463.918 92.5269M295.128 286.627C346.248 228.247 399.688 166.847 462.848 93.8869M299.598 285.717C367.408 210.207 429.288 136.287 469.138 93.5869M300.568 287.827C339.408 236.867 379.518 191.877 465.958 94.1469M305.278 286.837C355.358 226.967 406.228 167.377 469.898 93.9069M305.607 287.477C353.737 226.037 404.088 169.647 473.148 92.7869M308.898 286.467C346.748 244.287 383.598 200.197 479.338 94.0269M309.997 285.477C367.577 221.507 422.658 153.837 477.378 94.6169M312.488 289.417C363.808 236.387 406.118 182.397 484.288 92.4269M316.497 286.707C378.147 213.017 442.978 138.487 482.618 94.8469M319.978 289.577C374.418 222.117 434.488 152.727 480.098 97.4369M321.548 287.707C359.998 243.217 397.728 197.047 481.348 100.957M326.438 287.877C376.898 224.937 429.348 165.307 484.908 106.697M327.698 285.137C387.048 216.157 444.918 147.977 483.778 107.207M332.268 287.087C368.038 238.237 405.718 195.027 485.808 112.267M330.978 285.347C386.978 218.407 446.658 149.067 484.408 113.367M338.848 283.877C374.958 237.207 417.628 192.387 481.378 117.447M336.968 286.927C366.918 249.987 395.748 214.477 484.158 116.647M343.308 290.257C378.918 238.257 424.528 194.797 480.698 128.007M341.128 286.417C395.398 226.707 448.148 164.017 482.648 123.117M347.268 283.927C396.888 224.357 449.418 166.637 480.718 134.377M348.578 287.867C397.948 230.127 447.198 174.767 482.058 132.247M351.848 285.677C404.798 233.367 451.128 173.437 481.108 140.107M354.058 288.297C388.448 248.237 421.528 207.667 482.248 137.127M359.288 290.137C405.978 232.837 455.818 172.377 483.658 143.307M357.078 287.497C386.528 249.047 419.018 214.167 481.738 144.537M362.118 287.837C402.448 242.087 441.638 197.827 483.868 146.797M364.668 288.407C391.298 255.557 418.788 222.717 482.698 150.017M369.678 283.487C405.288 237.727 453.478 191.837 482.698 156.437M369.608 288.577C396.388 251.637 430.458 217.467 481.058 155.067M372.778 284.237C402.708 250.917 436.518 209.807 479.098 158.187M374.088 287.067C408.638 248.267 442.558 206.697 483.938 160.027M382.618 287.557C416.968 240.817 456.588 193.847 484.118 170.167M377.398 288.597C416.218 249.787 450.848 206.617 482.618 166.417M388.108 285.127C422.788 238.057 464.738 198.487 483.058 170.867M384.138 285.547C412.328 254.507 441.758 222.687 483.518 173.267M386.798 290.697C418.058 255.027 438.388 228.617 480.238 175.677M387.838 286.067C419.978 255.337 447.458 222.067 483.718 179.897M398.198 287.947C421.428 257.277 438.468 236.947 481.818 184.847M395.238 288.067C429.558 248.527 461.668 207.667 482.638 186.017M398.698 290.417C424.808 262.917 442.068 232.297 484.568 188.077M401.888 287.377C431.118 251.127 463.088 216.927 481.588 190.497M406.928 289.297C434.858 253.137 468.488 219.417 485.948 196.607M404.398 287.727C432.688 254.057 461.268 222.217 482.728 195.717M410.638 289.417C439.038 256.037 466.078 223.387 482.368 207.427M412.088 288.857C433.608 257.587 457.608 230.747 482.018 205.857M420.028 288.997C441.388 258.767 459.298 234.667 485.808 211.787M415.218 288.537C430.428 265.947 446.998 247.037 482.808 211.707M418.718 283.617C442.848 258.167 468.848 235.677 486.768 219.207M420.618 286.697C436.128 267.657 451.518 251.717 481.428 216.757M425.018 286.027C441.208 270.887 450.188 253.257 478.928 225.977M427.908 287.417C450.358 263.567 467.778 236.887 480.838 221.987M434.888 290.087C444.498 273.517 454.978 260.067 481.358 227.357M433.198 287.037C452.568 262.397 470.558 243.007 483.488 228.167M435.238 290.567C451.228 273.127 462.908 260.227 484.608 233.687M437.248 288.197C456.118 266.717 472.568 246.417 482.358 236.197M442.878 287.097C457.798 269.847 470.578 260.947 479.518 242.987M441.178 287.907C455.188 272.167 467.828 258.077 484.458 241.917M445.828 287.987C462.078 272.367 472.198 263.307 480.008 244.887M446.638 287.597C462.708 270.407 473.808 256.027 482.518 248.157M450.248 290.117C463.928 280.977 472.388 266.147 479.828 249.167M451.498 285.227C466.258 275.117 477.448 260.927 482.528 251.547M461.758 282.837C464.718 276.437 478.248 268.497 486.728 261.967M458.048 285.267C465.748 282.597 470.798 275.047 482.708 258.837M460.368 283.797C465.718 284.357 470.428 276.817 480.608 265.867M464.678 286.837C470.638 282.747 472.918 276.277 482.468 265.207M469.148 287.607C470.668 283.057 481.318 276.457 486.208 268.517M469.398 286.487C470.178 282.157 473.388 280.117 483.938 271.087M475.738 288.887C475.518 284.837 478.718 280.117 481.078 278.017M473.408 286.637C475.678 285.177 478.038 281.467 482.128 276.527M480.068 286.367C479.648 285.657 482.408 285.687 481.818 283.117M479.388 287.737C480.068 285.987 481.748 284.367 483.088 283.727" stroke="#868E96" stroke-width="0.5" stroke-linecap="round"/>
<path d="M70.7875 96.1969C231.988 95.0769 392.728 96.2669 482.678 93.6969M69.9675 93.1469C225.318 91.8269 379.278 90.2469 482.328 94.0269M478.988 94.6269C481.808 165.327 482.888 239.307 481.898 285.817M482.658 94.4969C485.088 157.987 483.748 220.987 482.688 284.187M482.528 286.397C356.708 284.047 234.558 287.407 69.1875 286.427M483.328 284.617C386.238 283.827 290.878 285.107 69.3975 284.217M66.2875 281.477C64.2675 230.637 69.0075 175.087 69.1875 93.1469M68.4575 283.697C69.6775 223.117 70.8275 165.897 70.2975 92.2869" stroke="black" stroke-linecap="round"/>
<path d="M366.92 133.801V118.801H368.539V120.534H368.738C368.861 120.344 369.031 120.103 369.249 119.809C369.472 119.511 369.789 119.246 370.201 119.014C370.618 118.777 371.181 118.659 371.891 118.659C372.81 118.659 373.619 118.888 374.32 119.348C375.021 119.807 375.568 120.458 375.961 121.301C376.354 122.144 376.55 123.138 376.55 124.284C376.55 125.439 376.354 126.44 375.961 127.288C375.568 128.131 375.023 128.784 374.327 129.248C373.631 129.707 372.829 129.937 371.92 129.937C371.219 129.937 370.658 129.821 370.236 129.589C369.815 129.352 369.491 129.085 369.263 128.787C369.036 128.484 368.861 128.233 368.738 128.034H368.596V133.801H366.92ZM368.567 124.255C368.567 125.079 368.688 125.806 368.93 126.436C369.171 127.061 369.524 127.551 369.988 127.906C370.452 128.256 371.02 128.431 371.692 128.431C372.393 128.431 372.978 128.247 373.447 127.877C373.92 127.503 374.275 127.002 374.512 126.372C374.753 125.737 374.874 125.032 374.874 124.255C374.874 123.488 374.756 122.797 374.519 122.181C374.287 121.561 373.934 121.071 373.461 120.711C372.992 120.347 372.403 120.164 371.692 120.164C371.011 120.164 370.438 120.337 369.974 120.683C369.51 121.024 369.159 121.502 368.922 122.118C368.686 122.728 368.567 123.441 368.567 124.255ZM383.681 129.937C382.63 129.937 381.723 129.705 380.961 129.241C380.203 128.772 379.619 128.119 379.207 127.281C378.799 126.438 378.596 125.458 378.596 124.341C378.596 123.223 378.799 122.238 379.207 121.386C379.619 120.529 380.191 119.861 380.925 119.383C381.664 118.9 382.526 118.659 383.511 118.659C384.079 118.659 384.64 118.753 385.194 118.943C385.748 119.132 386.252 119.44 386.707 119.866C387.161 120.287 387.523 120.846 387.793 121.542C388.063 122.238 388.198 123.095 388.198 124.113V124.823H379.789V123.375H386.494C386.494 122.759 386.37 122.21 386.124 121.727C385.883 121.244 385.537 120.863 385.087 120.583C384.642 120.304 384.117 120.164 383.511 120.164C382.843 120.164 382.265 120.33 381.778 120.662C381.295 120.988 380.923 121.414 380.663 121.94C380.402 122.466 380.272 123.029 380.272 123.63V124.596C380.272 125.42 380.414 126.118 380.698 126.691C380.987 127.26 381.387 127.693 381.898 127.991C382.41 128.285 383.004 128.431 383.681 128.431C384.121 128.431 384.519 128.37 384.874 128.247C385.234 128.119 385.544 127.93 385.805 127.679C386.065 127.423 386.266 127.106 386.408 126.727L388.028 127.181C387.857 127.731 387.571 128.214 387.168 128.63C386.766 129.042 386.269 129.364 385.677 129.596C385.085 129.823 384.42 129.937 383.681 129.937ZM392.424 123.147V129.71H390.748V118.801H392.367V120.505H392.509C392.765 119.951 393.153 119.506 393.674 119.17C394.195 118.829 394.867 118.659 395.691 118.659C396.43 118.659 397.076 118.81 397.63 119.113C398.184 119.412 398.615 119.866 398.922 120.477C399.23 121.083 399.384 121.85 399.384 122.778V129.71H397.708V122.892C397.708 122.035 397.485 121.367 397.04 120.889C396.595 120.406 395.985 120.164 395.208 120.164C394.673 120.164 394.195 120.28 393.773 120.512C393.357 120.744 393.028 121.083 392.786 121.528C392.545 121.973 392.424 122.513 392.424 123.147ZM406.566 129.937C405.657 129.937 404.855 129.707 404.159 129.248C403.463 128.784 402.918 128.131 402.525 127.288C402.132 126.44 401.936 125.439 401.936 124.284C401.936 123.138 402.132 122.144 402.525 121.301C402.918 120.458 403.465 119.807 404.166 119.348C404.867 118.888 405.676 118.659 406.595 118.659C407.305 118.659 407.866 118.777 408.278 119.014C408.695 119.246 409.012 119.511 409.23 119.809C409.452 120.103 409.625 120.344 409.748 120.534H409.89V115.164H411.566V129.71H409.947V128.034H409.748C409.625 128.233 409.45 128.484 409.223 128.787C408.995 129.085 408.671 129.352 408.25 129.589C407.828 129.821 407.267 129.937 406.566 129.937ZM406.794 128.431C407.466 128.431 408.034 128.256 408.498 127.906C408.962 127.551 409.315 127.061 409.556 126.436C409.798 125.806 409.919 125.079 409.919 124.255C409.919 123.441 409.8 122.728 409.563 122.118C409.327 121.502 408.976 121.024 408.512 120.683C408.048 120.337 407.475 120.164 406.794 120.164C406.083 120.164 405.492 120.347 405.018 120.711C404.549 121.071 404.197 121.561 403.96 122.181C403.728 122.797 403.612 123.488 403.612 124.255C403.612 125.032 403.73 125.737 403.967 126.372C404.208 127.002 404.563 127.503 405.032 127.877C405.506 128.247 406.093 128.431 406.794 128.431ZM414.869 129.71V118.801H416.545V129.71H414.869ZM415.721 116.983C415.394 116.983 415.113 116.871 414.876 116.649C414.644 116.426 414.528 116.159 414.528 115.846C414.528 115.534 414.644 115.266 414.876 115.044C415.113 114.821 415.394 114.71 415.721 114.71C416.048 114.71 416.327 114.821 416.559 115.044C416.796 115.266 416.914 115.534 416.914 115.846C416.914 116.159 416.796 116.426 416.559 116.649C416.327 116.871 416.048 116.983 415.721 116.983ZM421.291 123.147V129.71H419.615V118.801H421.234V120.505H421.376C421.632 119.951 422.02 119.506 422.541 119.17C423.062 118.829 423.734 118.659 424.558 118.659C425.297 118.659 425.943 118.81 426.497 119.113C427.051 119.412 427.482 119.866 427.79 120.477C428.097 121.083 428.251 121.85 428.251 122.778V129.71H426.575V122.892C426.575 122.035 426.353 121.367 425.908 120.889C425.463 120.406 424.852 120.164 424.075 120.164C423.54 120.164 423.062 120.28 422.641 120.512C422.224 120.744 421.895 121.083 421.653 121.528C421.412 121.973 421.291 122.513 421.291 123.147ZM435.718 134.028C434.908 134.028 434.212 133.924 433.63 133.716C433.047 133.512 432.562 133.242 432.174 132.906C431.79 132.574 431.485 132.219 431.257 131.841L432.593 130.903C432.744 131.102 432.936 131.329 433.168 131.585C433.4 131.845 433.717 132.07 434.12 132.26C434.527 132.454 435.059 132.551 435.718 132.551C436.598 132.551 437.325 132.338 437.898 131.912C438.471 131.485 438.757 130.818 438.757 129.909V127.693H438.615C438.492 127.892 438.317 128.138 438.09 128.431C437.867 128.72 437.545 128.978 437.124 129.206C436.707 129.428 436.144 129.539 435.433 129.539C434.553 129.539 433.762 129.331 433.061 128.914C432.365 128.498 431.814 127.892 431.407 127.096C431.004 126.301 430.803 125.335 430.803 124.198C430.803 123.081 430.999 122.108 431.392 121.279C431.785 120.446 432.332 119.802 433.033 119.348C433.734 118.888 434.543 118.659 435.462 118.659C436.172 118.659 436.736 118.777 437.152 119.014C437.574 119.246 437.896 119.511 438.118 119.809C438.345 120.103 438.521 120.344 438.644 120.534H438.814V118.801H440.434V130.022C440.434 130.96 440.22 131.722 439.794 132.309C439.373 132.901 438.805 133.334 438.09 133.609C437.38 133.888 436.589 134.028 435.718 134.028ZM435.661 128.034C436.333 128.034 436.901 127.88 437.365 127.572C437.829 127.264 438.182 126.822 438.424 126.244C438.665 125.666 438.786 124.975 438.786 124.17C438.786 123.384 438.667 122.69 438.431 122.089C438.194 121.488 437.844 121.017 437.38 120.676C436.916 120.335 436.343 120.164 435.661 120.164C434.951 120.164 434.359 120.344 433.885 120.704C433.416 121.064 433.064 121.547 432.827 122.153C432.595 122.759 432.479 123.431 432.479 124.17C432.479 124.928 432.597 125.598 432.834 126.18C433.076 126.758 433.431 127.212 433.899 127.544C434.373 127.87 434.96 128.034 435.661 128.034Z" fill="black"/>
<path d="M370.022 167.708C369.331 167.708 368.704 167.577 368.14 167.317C367.577 167.052 367.129 166.671 366.798 166.174C366.466 165.672 366.301 165.066 366.301 164.355C366.301 163.73 366.424 163.224 366.67 162.835C366.916 162.442 367.245 162.135 367.657 161.912C368.069 161.69 368.524 161.524 369.021 161.415C369.523 161.301 370.027 161.211 370.534 161.145C371.197 161.06 371.734 160.996 372.146 160.953C372.563 160.906 372.866 160.828 373.055 160.719C373.249 160.61 373.346 160.421 373.346 160.151V160.094C373.346 159.393 373.154 158.849 372.771 158.46C372.392 158.072 371.817 157.878 371.045 157.878C370.245 157.878 369.617 158.053 369.163 158.404C368.708 158.754 368.389 159.128 368.204 159.526L366.613 158.958C366.897 158.295 367.276 157.779 367.75 157.409C368.228 157.035 368.749 156.775 369.312 156.628C369.88 156.477 370.439 156.401 370.988 156.401C371.339 156.401 371.741 156.443 372.196 156.529C372.655 156.609 373.098 156.777 373.524 157.033C373.955 157.289 374.312 157.675 374.596 158.191C374.88 158.707 375.022 159.398 375.022 160.264V167.452H373.346V165.975H373.261C373.147 166.211 372.958 166.465 372.693 166.735C372.428 167.005 372.075 167.234 371.635 167.424C371.194 167.613 370.657 167.708 370.022 167.708ZM370.278 166.202C370.941 166.202 371.5 166.072 371.954 165.811C372.413 165.551 372.759 165.215 372.991 164.803C373.228 164.391 373.346 163.958 373.346 163.503V161.969C373.275 162.054 373.119 162.132 372.877 162.203C372.641 162.27 372.366 162.329 372.054 162.381C371.746 162.428 371.445 162.471 371.152 162.509C370.863 162.542 370.628 162.57 370.448 162.594C370.013 162.651 369.606 162.743 369.227 162.871C368.853 162.994 368.55 163.181 368.318 163.432C368.09 163.678 367.977 164.014 367.977 164.441C367.977 165.023 368.192 165.463 368.623 165.762C369.059 166.055 369.61 166.202 370.278 166.202ZM382.513 167.679C381.491 167.679 380.61 167.438 379.871 166.955C379.133 166.472 378.565 165.807 378.167 164.959C377.769 164.112 377.57 163.143 377.57 162.054C377.57 160.946 377.774 159.969 378.181 159.121C378.593 158.269 379.166 157.603 379.9 157.125C380.638 156.642 381.5 156.401 382.485 156.401C383.252 156.401 383.943 156.543 384.559 156.827C385.174 157.111 385.679 157.509 386.072 158.02C386.465 158.532 386.709 159.128 386.803 159.81H385.127C384.999 159.313 384.715 158.872 384.275 158.489C383.839 158.101 383.252 157.907 382.513 157.907C381.86 157.907 381.287 158.077 380.795 158.418C380.307 158.754 379.926 159.23 379.651 159.845C379.381 160.456 379.246 161.174 379.246 161.997C379.246 162.84 379.379 163.574 379.644 164.199C379.914 164.824 380.293 165.309 380.78 165.655C381.273 166.001 381.851 166.174 382.513 166.174C382.949 166.174 383.344 166.098 383.7 165.946C384.055 165.795 384.355 165.577 384.601 165.293C384.848 165.009 385.023 164.668 385.127 164.27H386.803C386.709 164.914 386.474 165.494 386.1 166.01C385.731 166.522 385.241 166.929 384.63 167.232C384.024 167.53 383.318 167.679 382.513 167.679ZM393.998 156.543V157.963H388.344V156.543H393.998ZM389.992 153.929H391.668V164.327C391.668 164.8 391.737 165.156 391.874 165.392C392.016 165.624 392.196 165.781 392.414 165.861C392.637 165.937 392.871 165.975 393.117 165.975C393.302 165.975 393.453 165.965 393.572 165.946C393.69 165.923 393.785 165.904 393.856 165.889L394.197 167.395C394.083 167.438 393.924 167.48 393.721 167.523C393.517 167.57 393.259 167.594 392.947 167.594C392.473 167.594 392.009 167.492 391.555 167.289C391.105 167.085 390.731 166.775 390.432 166.358C390.139 165.942 389.992 165.416 389.992 164.782V153.929ZM396.519 167.452V156.543H398.195V167.452H396.519ZM397.371 154.725C397.045 154.725 396.763 154.613 396.526 154.391C396.294 154.168 396.178 153.901 396.178 153.588C396.178 153.276 396.294 153.008 396.526 152.786C396.763 152.563 397.045 152.452 397.371 152.452C397.698 152.452 397.977 152.563 398.209 152.786C398.446 153.008 398.565 153.276 398.565 153.588C398.565 153.901 398.446 154.168 398.209 154.391C397.977 154.613 397.698 154.725 397.371 154.725ZM410.186 156.543L406.152 167.452H404.447L400.413 156.543H402.231L405.242 165.236H405.356L408.367 156.543H410.186ZM416.581 167.679C415.53 167.679 414.623 167.447 413.861 166.983C413.104 166.514 412.519 165.861 412.107 165.023C411.7 164.18 411.496 163.2 411.496 162.083C411.496 160.965 411.7 159.98 412.107 159.128C412.519 158.271 413.092 157.603 413.826 157.125C414.564 156.642 415.426 156.401 416.411 156.401C416.979 156.401 417.54 156.496 418.094 156.685C418.648 156.874 419.152 157.182 419.607 157.608C420.061 158.03 420.424 158.588 420.693 159.284C420.963 159.98 421.098 160.837 421.098 161.855V162.566H412.689V161.117H419.394C419.394 160.501 419.271 159.952 419.024 159.469C418.783 158.986 418.437 158.605 417.988 158.326C417.542 158.046 417.017 157.907 416.411 157.907C415.743 157.907 415.166 158.072 414.678 158.404C414.195 158.73 413.823 159.157 413.563 159.682C413.302 160.208 413.172 160.771 413.172 161.372V162.338C413.172 163.162 413.314 163.861 413.598 164.433C413.887 165.002 414.287 165.435 414.799 165.733C415.31 166.027 415.904 166.174 416.581 166.174C417.022 166.174 417.419 166.112 417.774 165.989C418.134 165.861 418.444 165.672 418.705 165.421C418.965 165.165 419.166 164.848 419.309 164.469L420.928 164.924C420.757 165.473 420.471 165.956 420.068 166.372C419.666 166.784 419.169 167.106 418.577 167.338C417.985 167.566 417.32 167.679 416.581 167.679Z" fill="black"/>
<path d="M363.581 201.307C362.672 201.307 361.87 201.077 361.174 200.618C360.478 200.154 359.933 199.501 359.54 198.658C359.147 197.81 358.951 196.809 358.951 195.654C358.951 194.508 359.147 193.514 359.54 192.671C359.933 191.828 360.48 191.177 361.181 190.718C361.882 190.258 362.691 190.029 363.61 190.029C364.32 190.029 364.881 190.147 365.293 190.384C365.71 190.616 366.027 190.881 366.245 191.179C366.467 191.473 366.64 191.714 366.763 191.904H366.905V186.534H368.581V201.08H366.962V199.404H366.763C366.64 199.603 366.465 199.854 366.238 200.157C366.01 200.455 365.686 200.722 365.265 200.959C364.843 201.191 364.282 201.307 363.581 201.307ZM363.809 199.801C364.481 199.801 365.049 199.626 365.513 199.276C365.977 198.921 366.33 198.431 366.571 197.806C366.813 197.176 366.934 196.449 366.934 195.625C366.934 194.811 366.815 194.098 366.579 193.488C366.342 192.872 365.991 192.394 365.527 192.053C365.063 191.707 364.491 191.534 363.809 191.534C363.098 191.534 362.507 191.717 362.033 192.081C361.564 192.441 361.212 192.931 360.975 193.551C360.743 194.167 360.627 194.858 360.627 195.625C360.627 196.402 360.745 197.107 360.982 197.742C361.223 198.372 361.579 198.873 362.047 199.247C362.521 199.617 363.108 199.801 363.809 199.801ZM376.458 201.307C375.407 201.307 374.5 201.075 373.738 200.611C372.98 200.142 372.395 199.489 371.983 198.651C371.576 197.808 371.373 196.828 371.373 195.711C371.373 194.593 371.576 193.608 371.983 192.756C372.395 191.899 372.968 191.231 373.702 190.753C374.441 190.27 375.303 190.029 376.287 190.029C376.856 190.029 377.417 190.123 377.971 190.313C378.525 190.502 379.029 190.81 379.483 191.236C379.938 191.657 380.3 192.216 380.57 192.912C380.84 193.608 380.975 194.465 380.975 195.483V196.193H372.566V194.745H379.27C379.27 194.129 379.147 193.58 378.901 193.097C378.66 192.614 378.314 192.233 377.864 191.953C377.419 191.674 376.893 191.534 376.287 191.534C375.62 191.534 375.042 191.7 374.554 192.032C374.071 192.358 373.7 192.784 373.439 193.31C373.179 193.836 373.049 194.399 373.049 195V195.966C373.049 196.79 373.191 197.488 373.475 198.061C373.764 198.63 374.164 199.063 374.675 199.361C375.187 199.655 375.781 199.801 376.458 199.801C376.898 199.801 377.296 199.74 377.651 199.617C378.011 199.489 378.321 199.3 378.581 199.049C378.842 198.793 379.043 198.476 379.185 198.097L380.804 198.551C380.634 199.101 380.348 199.584 379.945 200C379.543 200.412 379.045 200.734 378.454 200.966C377.862 201.193 377.196 201.307 376.458 201.307ZM386.735 201.336C386.044 201.336 385.416 201.205 384.853 200.945C384.289 200.68 383.842 200.299 383.51 199.801C383.179 199.3 383.013 198.693 383.013 197.983C383.013 197.358 383.136 196.852 383.383 196.463C383.629 196.07 383.958 195.763 384.37 195.54C384.782 195.318 385.236 195.152 385.733 195.043C386.235 194.929 386.74 194.839 387.246 194.773C387.909 194.688 388.446 194.624 388.858 194.581C389.275 194.534 389.578 194.456 389.767 194.347C389.962 194.238 390.059 194.049 390.059 193.779V193.722C390.059 193.021 389.867 192.477 389.483 192.088C389.105 191.7 388.529 191.506 387.758 191.506C386.957 191.506 386.33 191.681 385.875 192.032C385.421 192.382 385.101 192.756 384.917 193.154L383.326 192.586C383.61 191.923 383.989 191.407 384.462 191.037C384.94 190.663 385.461 190.403 386.025 190.256C386.593 190.104 387.151 190.029 387.701 190.029C388.051 190.029 388.454 190.071 388.908 190.157C389.367 190.237 389.81 190.405 390.236 190.661C390.667 190.916 391.025 191.302 391.309 191.818C391.593 192.335 391.735 193.026 391.735 193.892V201.08H390.059V199.603H389.973C389.86 199.839 389.67 200.093 389.405 200.363C389.14 200.632 388.787 200.862 388.347 201.051C387.907 201.241 387.369 201.336 386.735 201.336ZM386.991 199.83C387.653 199.83 388.212 199.7 388.667 199.439C389.126 199.179 389.472 198.843 389.704 198.431C389.94 198.019 390.059 197.586 390.059 197.131V195.597C389.988 195.682 389.831 195.76 389.59 195.831C389.353 195.898 389.079 195.957 388.766 196.009C388.458 196.056 388.158 196.099 387.864 196.137C387.575 196.17 387.341 196.198 387.161 196.222C386.725 196.279 386.318 196.371 385.939 196.499C385.565 196.622 385.262 196.809 385.03 197.06C384.803 197.306 384.689 197.642 384.689 198.068C384.689 198.651 384.905 199.091 385.336 199.389C385.771 199.683 386.323 199.83 386.991 199.83ZM399.226 201.307C398.203 201.307 397.323 201.066 396.584 200.583C395.845 200.1 395.277 199.434 394.879 198.587C394.482 197.739 394.283 196.771 394.283 195.682C394.283 194.574 394.486 193.596 394.894 192.749C395.305 191.897 395.878 191.231 396.612 190.753C397.351 190.27 398.213 190.029 399.198 190.029C399.965 190.029 400.656 190.171 401.271 190.455C401.887 190.739 402.391 191.137 402.784 191.648C403.177 192.159 403.421 192.756 403.516 193.438H401.84C401.712 192.941 401.428 192.5 400.987 192.117C400.552 191.729 399.965 191.534 399.226 191.534C398.573 191.534 398 191.705 397.507 192.046C397.02 192.382 396.638 192.858 396.364 193.473C396.094 194.084 395.959 194.801 395.959 195.625C395.959 196.468 396.091 197.202 396.357 197.827C396.627 198.452 397.005 198.937 397.493 199.283C397.985 199.629 398.563 199.801 399.226 199.801C399.662 199.801 400.057 199.726 400.412 199.574C400.767 199.423 401.068 199.205 401.314 198.921C401.56 198.637 401.735 198.296 401.84 197.898H403.516C403.421 198.542 403.187 199.122 402.813 199.638C402.443 200.149 401.953 200.557 401.342 200.86C400.736 201.158 400.031 201.307 399.226 201.307ZM410.71 190.171V191.591H405.057V190.171H410.71ZM406.705 187.557H408.381V197.955C408.381 198.428 408.449 198.783 408.587 199.02C408.729 199.252 408.909 199.408 409.127 199.489C409.349 199.565 409.583 199.603 409.83 199.603C410.014 199.603 410.166 199.593 410.284 199.574C410.403 199.55 410.497 199.532 410.568 199.517L410.909 201.023C410.796 201.066 410.637 201.108 410.433 201.151C410.23 201.198 409.972 201.222 409.659 201.222C409.186 201.222 408.722 201.12 408.267 200.916C407.817 200.713 407.443 200.403 407.145 199.986C406.851 199.569 406.705 199.044 406.705 198.409V187.557ZM413.232 201.08V190.171H414.908V201.08H413.232ZM414.084 188.353C413.757 188.353 413.475 188.241 413.239 188.019C413.007 187.796 412.891 187.529 412.891 187.216C412.891 186.904 413.007 186.636 413.239 186.414C413.475 186.191 413.757 186.08 414.084 186.08C414.411 186.08 414.69 186.191 414.922 186.414C415.159 186.636 415.277 186.904 415.277 187.216C415.277 187.529 415.159 187.796 414.922 188.019C414.69 188.241 414.411 188.353 414.084 188.353ZM426.898 190.171L422.864 201.08H421.16L417.125 190.171H418.944L421.955 198.864H422.069L425.08 190.171H426.898ZM433.294 201.307C432.243 201.307 431.336 201.075 430.574 200.611C429.816 200.142 429.231 199.489 428.819 198.651C428.412 197.808 428.209 196.828 428.209 195.711C428.209 194.593 428.412 193.608 428.819 192.756C429.231 191.899 429.804 191.231 430.538 190.753C431.277 190.27 432.138 190.029 433.123 190.029C433.692 190.029 434.253 190.123 434.807 190.313C435.361 190.502 435.865 190.81 436.319 191.236C436.774 191.657 437.136 192.216 437.406 192.912C437.676 193.608 437.811 194.465 437.811 195.483V196.193H429.402V194.745H436.106C436.106 194.129 435.983 193.58 435.737 193.097C435.495 192.614 435.15 192.233 434.7 191.953C434.255 191.674 433.729 191.534 433.123 191.534C432.456 191.534 431.878 191.7 431.39 192.032C430.907 192.358 430.536 192.784 430.275 193.31C430.015 193.836 429.885 194.399 429.885 195V195.966C429.885 196.79 430.027 197.488 430.311 198.061C430.6 198.63 431 199.063 431.511 199.361C432.022 199.655 432.617 199.801 433.294 199.801C433.734 199.801 434.132 199.74 434.487 199.617C434.847 199.489 435.157 199.3 435.417 199.049C435.678 198.793 435.879 198.476 436.021 198.097L437.64 198.551C437.47 199.101 437.183 199.584 436.781 200C436.379 200.412 435.881 200.734 435.29 200.966C434.698 201.193 434.032 201.307 433.294 201.307Z" fill="black"/>
<path d="M374.8 70.7716L373.294 71.1978C373.199 70.9468 373.06 70.703 372.875 70.4662C372.695 70.2248 372.449 70.0259 372.136 69.8697C371.824 69.7134 371.424 69.6353 370.936 69.6353C370.268 69.6353 369.712 69.7892 369.267 70.0969C368.827 70.4 368.606 70.7858 368.606 71.2546C368.606 71.6713 368.758 72.0003 369.061 72.2418C369.364 72.4833 369.837 72.6845 370.481 72.8455L372.101 73.2432C373.076 73.48 373.803 73.8422 374.281 74.3299C374.759 74.8128 374.998 75.4355 374.998 76.1978C374.998 76.8228 374.819 77.3815 374.459 77.8739C374.104 78.3663 373.606 78.7546 372.967 79.0387C372.328 79.3228 371.585 79.4648 370.737 79.4648C369.624 79.4648 368.703 79.2233 367.974 78.7404C367.245 78.2574 366.783 77.5519 366.589 76.6239L368.18 76.2262C368.332 76.8133 368.618 77.2536 369.04 77.5472C369.466 77.8408 370.022 77.9875 370.709 77.9875C371.49 77.9875 372.11 77.8218 372.569 77.4904C373.033 77.1542 373.265 76.7518 373.265 76.283C373.265 75.9042 373.133 75.587 372.868 75.3313C372.603 75.0709 372.195 74.8768 371.646 74.7489L369.828 74.3228C368.829 74.086 368.095 73.7191 367.626 73.2219C367.162 72.72 366.93 72.0927 366.93 71.3398C366.93 70.7243 367.103 70.1798 367.449 69.7063C367.799 69.2328 368.275 68.8611 368.876 68.5912C369.482 68.3214 370.169 68.1864 370.936 68.1864C372.015 68.1864 372.863 68.4232 373.479 68.8966C374.099 69.3701 374.539 69.9951 374.8 70.7716ZM382.266 68.3285V69.7489H376.612V68.3285H382.266ZM378.26 65.7148H379.936V76.1125C379.936 76.586 380.005 76.9411 380.142 77.1779C380.284 77.4099 380.464 77.5661 380.682 77.6466C380.905 77.7224 381.139 77.7603 381.385 77.7603C381.57 77.7603 381.721 77.7508 381.84 77.7319C381.958 77.7082 382.053 77.6893 382.124 77.675L382.465 79.1807C382.351 79.2233 382.192 79.266 381.989 79.3086C381.785 79.3559 381.527 79.3796 381.215 79.3796C380.741 79.3796 380.277 79.2778 379.823 79.0742C379.373 78.8706 378.999 78.5605 378.7 78.1438C378.407 77.7271 378.26 77.2016 378.26 76.5671V65.7148ZM387.997 79.4932C387.306 79.4932 386.679 79.363 386.115 79.1026C385.552 78.8375 385.104 78.4563 384.773 77.9591C384.441 77.4572 384.276 76.8512 384.276 76.141C384.276 75.516 384.399 75.0093 384.645 74.6211C384.891 74.2281 385.22 73.9203 385.632 73.6978C386.044 73.4752 386.499 73.3095 386.996 73.2006C387.498 73.087 388.002 72.997 388.509 72.9307C389.172 72.8455 389.709 72.7816 390.121 72.739C390.538 72.6916 390.841 72.6135 391.03 72.5046C391.224 72.3957 391.321 72.2063 391.321 71.9364V71.8796C391.321 71.1788 391.129 70.6343 390.746 70.2461C390.367 69.8578 389.792 69.6637 389.02 69.6637C388.22 69.6637 387.593 69.8389 387.138 70.1893C386.683 70.5396 386.364 70.9137 386.179 71.3114L384.588 70.7432C384.872 70.0804 385.251 69.5643 385.725 69.1949C386.203 68.8209 386.724 68.5605 387.287 68.4137C387.855 68.2622 388.414 68.1864 388.963 68.1864C389.314 68.1864 389.716 68.229 390.171 68.3143C390.63 68.3947 391.073 68.5628 391.499 68.8185C391.93 69.0742 392.287 69.4601 392.571 69.9762C392.855 70.4923 392.997 71.1836 392.997 72.05V79.2375H391.321V77.7603H391.236C391.122 77.997 390.933 78.2503 390.668 78.5202C390.403 78.7901 390.05 79.0197 389.61 79.2091C389.169 79.3985 388.632 79.4932 387.997 79.4932ZM388.253 77.9875C388.916 77.9875 389.475 77.8573 389.929 77.5969C390.388 77.3365 390.734 77.0003 390.966 76.5884C391.203 76.1765 391.321 75.7432 391.321 75.2887V73.7546C391.25 73.8398 391.094 73.9179 390.852 73.989C390.616 74.0553 390.341 74.1144 390.029 74.1665C389.721 74.2139 389.42 74.2565 389.127 74.2944C388.838 74.3275 388.603 74.3559 388.424 74.3796C387.988 74.4364 387.581 74.5287 387.202 74.6566C386.828 74.7797 386.525 74.9667 386.293 75.2177C386.066 75.4639 385.952 75.8 385.952 76.2262C385.952 76.8086 386.167 77.2489 386.598 77.5472C387.034 77.8408 387.585 77.9875 388.253 77.9875ZM400.801 68.3285V69.7489H395.148V68.3285H400.801ZM396.795 65.7148H398.471V76.1125C398.471 76.586 398.54 76.9411 398.677 77.1779C398.819 77.4099 398.999 77.5661 399.217 77.6466C399.44 77.7224 399.674 77.7603 399.92 77.7603C400.105 77.7603 400.256 77.7508 400.375 77.7319C400.493 77.7082 400.588 77.6893 400.659 77.675L401 79.1807C400.886 79.2233 400.728 79.266 400.524 79.3086C400.32 79.3559 400.062 79.3796 399.75 79.3796C399.276 79.3796 398.812 79.2778 398.358 79.0742C397.908 78.8706 397.534 78.5605 397.236 78.1438C396.942 77.7271 396.795 77.2016 396.795 76.5671V65.7148ZM407.779 79.4648C406.728 79.4648 405.821 79.2328 405.059 78.7688C404.301 78.3 403.716 77.6466 403.305 76.8086C402.897 75.9658 402.694 74.9857 402.694 73.8682C402.694 72.7508 402.897 71.766 403.305 70.9137C403.716 70.0567 404.289 69.3891 405.023 68.9108C405.762 68.4279 406.624 68.1864 407.609 68.1864C408.177 68.1864 408.738 68.2811 409.292 68.4705C409.846 68.6599 410.35 68.9677 410.805 69.3938C411.259 69.8152 411.621 70.3739 411.891 71.0699C412.161 71.766 412.296 72.623 412.296 73.641V74.3512H403.887V72.9023H410.591C410.591 72.2868 410.468 71.7375 410.222 71.2546C409.981 70.7716 409.635 70.3905 409.185 70.1111C408.74 69.8318 408.215 69.6921 407.609 69.6921C406.941 69.6921 406.363 69.8578 405.876 70.1893C405.393 70.516 405.021 70.9421 404.761 71.4677C404.5 71.9932 404.37 72.5567 404.37 73.158V74.1239C404.37 74.9478 404.512 75.6462 404.796 76.2191C405.085 76.7873 405.485 77.2205 405.996 77.5188C406.508 77.8124 407.102 77.9591 407.779 77.9591C408.219 77.9591 408.617 77.8976 408.972 77.7745C409.332 77.6466 409.642 77.4572 409.903 77.2063C410.163 76.9506 410.364 76.6334 410.506 76.2546L412.126 76.7091C411.955 77.2584 411.669 77.7413 411.266 78.158C410.864 78.5699 410.367 78.8919 409.775 79.1239C409.183 79.3512 408.518 79.4648 407.779 79.4648Z" fill="black"/>
<path d="M227.808 67.2817V81.8271H226.103L218.177 70.4067H218.035V81.8271H216.274V67.2817H217.978L225.933 78.7306H226.075V67.2817H227.808ZM237.98 77.3669V70.9181H239.656V81.8271H237.98V79.9806H237.866C237.611 80.5345 237.213 81.0057 236.673 81.3939C236.133 81.7774 235.451 81.9692 234.628 81.9692C233.946 81.9692 233.34 81.82 232.809 81.5218C232.279 81.2187 231.862 80.7642 231.559 80.1581C231.256 79.5473 231.105 78.7779 231.105 77.8499V70.9181H232.781V77.7362C232.781 78.5317 233.004 79.1662 233.449 79.6396C233.898 80.1131 234.471 80.3499 235.167 80.3499C235.584 80.3499 236.008 80.2433 236.439 80.0303C236.874 79.8172 237.239 79.4905 237.532 79.0502C237.831 78.6098 237.98 78.0487 237.98 77.3669ZM242.726 81.8271V70.9181H244.345V72.6226H244.487C244.715 72.0402 245.082 71.588 245.588 71.2661C246.095 70.9394 246.703 70.776 247.413 70.776C248.133 70.776 248.732 70.9394 249.21 71.2661C249.693 71.588 250.07 72.0402 250.34 72.6226H250.453C250.733 72.0592 251.152 71.6117 251.71 71.2803C252.269 70.9441 252.939 70.776 253.72 70.776C254.696 70.776 255.494 71.0814 256.114 71.6922C256.734 72.2983 257.044 73.2429 257.044 74.526V81.8271H255.368V74.526C255.368 73.7211 255.148 73.1458 254.708 72.8002C254.267 72.4545 253.749 72.2817 253.152 72.2817C252.385 72.2817 251.791 72.5137 251.369 72.9777C250.948 73.437 250.737 74.0194 250.737 74.7249V81.8271H249.033V74.3556C249.033 73.7353 248.832 73.2358 248.429 72.857C248.027 72.4735 247.508 72.2817 246.874 72.2817C246.438 72.2817 246.031 72.3977 245.652 72.6297C245.278 72.8617 244.975 73.1837 244.743 73.5956C244.516 74.0028 244.402 74.4739 244.402 75.009V81.8271H242.726ZM260.336 81.8271V67.2817H262.012V72.651H262.154C262.277 72.4616 262.448 72.2201 262.666 71.9266C262.888 71.6283 263.205 71.3631 263.617 71.1311C264.034 70.8944 264.597 70.776 265.308 70.776C266.226 70.776 267.036 71.0057 267.737 71.4649C268.437 71.9242 268.984 72.5753 269.377 73.4181C269.77 74.2609 269.967 75.2552 269.967 76.401C269.967 77.5563 269.77 78.5577 269.377 79.4053C268.984 80.2481 268.44 80.9015 267.744 81.3655C267.048 81.8248 266.245 82.0544 265.336 82.0544C264.635 82.0544 264.074 81.9384 263.653 81.7064C263.231 81.4697 262.907 81.2021 262.68 80.9039C262.453 80.6008 262.277 80.3499 262.154 80.151H261.955V81.8271H260.336ZM261.984 76.3726C261.984 77.1965 262.105 77.9233 262.346 78.553C262.587 79.178 262.94 79.6681 263.404 80.0232C263.868 80.3735 264.436 80.5487 265.109 80.5487C265.81 80.5487 266.394 80.3641 266.863 79.9948C267.337 79.6207 267.692 79.1188 267.928 78.4891C268.17 77.8546 268.291 77.1491 268.291 76.3726C268.291 75.6056 268.172 74.9143 267.936 74.2987C267.703 73.6785 267.351 73.1884 266.877 72.8286C266.409 72.464 265.819 72.2817 265.109 72.2817C264.427 72.2817 263.854 72.4545 263.39 72.8002C262.926 73.1411 262.576 73.6193 262.339 74.2348C262.102 74.8456 261.984 75.5582 261.984 76.3726ZM277.105 82.0544C276.053 82.0544 275.147 81.8224 274.384 81.3584C273.627 80.8896 273.042 80.2362 272.63 79.3982C272.223 78.5554 272.019 77.5753 272.019 76.4578C272.019 75.3404 272.223 74.3556 272.63 73.5033C273.042 72.6463 273.615 71.9787 274.349 71.5004C275.087 71.0175 275.949 70.776 276.934 70.776C277.502 70.776 278.063 70.8707 278.617 71.0601C279.171 71.2495 279.676 71.5573 280.13 71.9834C280.585 72.4048 280.947 72.9635 281.217 73.6595C281.487 74.3556 281.622 75.2126 281.622 76.2306V76.9408H273.212V75.4919H279.917C279.917 74.8764 279.794 74.3271 279.548 73.8442C279.306 73.3612 278.961 72.9801 278.511 72.7007C278.066 72.4214 277.54 72.2817 276.934 72.2817C276.266 72.2817 275.689 72.4474 275.201 72.7789C274.718 73.1056 274.346 73.5317 274.086 74.0573C273.826 74.5828 273.695 75.1463 273.695 75.7476V76.7135C273.695 77.5374 273.837 78.2358 274.122 78.8087C274.41 79.3769 274.811 79.8101 275.322 80.1084C275.833 80.402 276.427 80.5487 277.105 80.5487C277.545 80.5487 277.943 80.4872 278.298 80.3641C278.658 80.2362 278.968 80.0468 279.228 79.7959C279.489 79.5402 279.69 79.223 279.832 78.8442L281.451 79.2987C281.281 79.848 280.994 80.3309 280.592 80.7476C280.189 81.1595 279.692 81.4815 279.1 81.7135C278.508 81.9408 277.843 82.0544 277.105 82.0544ZM284.171 81.8271V70.9181H285.791V72.5658H285.904C286.103 72.026 286.463 71.588 286.984 71.2519C287.505 70.9157 288.092 70.7476 288.745 70.7476C288.868 70.7476 289.022 70.75 289.207 70.7547C289.391 70.7594 289.531 70.7665 289.626 70.776V72.4806C289.569 72.4664 289.439 72.445 289.235 72.4166C289.036 72.3835 288.826 72.3669 288.603 72.3669C288.073 72.3669 287.599 72.4782 287.183 72.7007C286.771 72.9185 286.444 73.2216 286.203 73.6098C285.966 73.9933 285.847 74.4313 285.847 74.9237V81.8271H284.171Z" fill="black"/>
<path d="M91.7224 74.2646V80.8271H90.0463V69.9181H91.6656V71.6226H91.8077C92.0633 71.0686 92.4516 70.6236 92.9724 70.2874C93.4933 69.9465 94.1656 69.776 94.9895 69.776C95.7281 69.776 96.3744 69.9275 96.9284 70.2306C97.4824 70.5289 97.9132 70.9834 98.221 71.5942C98.5288 72.2003 98.6827 72.9673 98.6827 73.8953V80.8271H97.0065V74.009C97.0065 73.152 96.784 72.4843 96.3389 72.0061C95.8938 71.5232 95.283 71.2817 94.5065 71.2817C93.9715 71.2817 93.4933 71.3977 93.0719 71.6297C92.6552 71.8617 92.3261 72.2003 92.0847 72.6453C91.8432 73.0904 91.7224 73.6302 91.7224 74.2646ZM104.956 81.0828C104.264 81.0828 103.637 80.9526 103.074 80.6922C102.51 80.4271 102.063 80.0459 101.731 79.5487C101.4 79.0468 101.234 78.4408 101.234 77.7306C101.234 77.1056 101.357 76.5989 101.603 76.2107C101.85 75.8177 102.179 75.5099 102.591 75.2874C103.003 75.0648 103.457 74.8991 103.954 74.7902C104.456 74.6766 104.96 74.5866 105.467 74.5203C106.13 74.4351 106.667 74.3712 107.079 74.3286C107.496 74.2812 107.799 74.2031 107.988 74.0942C108.183 73.9853 108.28 73.7959 108.28 73.526V73.4692C108.28 72.7684 108.088 72.2239 107.704 71.8357C107.326 71.4474 106.75 71.2533 105.978 71.2533C105.178 71.2533 104.551 71.4285 104.096 71.7789C103.642 72.1292 103.322 72.5033 103.138 72.901L101.547 72.3328C101.831 71.67 102.21 71.1539 102.683 70.7845C103.161 70.4105 103.682 70.1501 104.246 70.0033C104.814 69.8518 105.372 69.776 105.922 69.776C106.272 69.776 106.674 69.8186 107.129 69.9039C107.588 69.9843 108.031 70.1524 108.457 70.4081C108.888 70.6638 109.246 71.0497 109.53 71.5658C109.814 72.0819 109.956 72.7732 109.956 73.6396V80.8271H108.28V79.3499H108.194C108.081 79.5866 107.891 79.8399 107.626 80.1098C107.361 80.3797 107.008 80.6093 106.568 80.7987C106.128 80.9881 105.59 81.0828 104.956 81.0828ZM105.211 79.5771C105.874 79.5771 106.433 79.4469 106.888 79.1865C107.347 78.9261 107.692 78.5899 107.924 78.178C108.161 77.7661 108.28 77.3328 108.28 76.8783V75.3442C108.209 75.4294 108.052 75.5075 107.811 75.5786C107.574 75.6449 107.299 75.704 106.987 75.7561C106.679 75.8035 106.379 75.8461 106.085 75.884C105.796 75.9171 105.562 75.9455 105.382 75.9692C104.946 76.026 104.539 76.1183 104.16 76.2462C103.786 76.3693 103.483 76.5563 103.251 76.8073C103.024 77.0535 102.91 77.3896 102.91 77.8158C102.91 78.3982 103.126 78.8385 103.557 79.1368C103.992 79.4304 104.544 79.5771 105.211 79.5771ZM113.015 80.8271V69.9181H114.634V71.6226H114.776C115.004 71.0402 115.371 70.588 115.877 70.2661C116.384 69.9394 116.992 69.776 117.703 69.776C118.422 69.776 119.021 69.9394 119.499 70.2661C119.982 70.588 120.359 71.0402 120.629 71.6226H120.742C121.022 71.0592 121.441 70.6117 121.999 70.2803C122.558 69.9441 123.228 69.776 124.009 69.776C124.985 69.776 125.783 70.0814 126.403 70.6922C127.023 71.2983 127.333 72.2429 127.333 73.526V80.8271H125.657V73.526C125.657 72.7211 125.437 72.1458 124.997 71.8002C124.556 71.4545 124.038 71.2817 123.441 71.2817C122.674 71.2817 122.08 71.5137 121.659 71.9777C121.237 72.437 121.026 73.0194 121.026 73.7249V80.8271H119.322V73.3556C119.322 72.7353 119.121 72.2358 118.718 71.857C118.316 71.4735 117.797 71.2817 117.163 71.2817C116.727 71.2817 116.32 71.3977 115.941 71.6297C115.567 71.8617 115.264 72.1837 115.032 72.5956C114.805 73.0028 114.691 73.4739 114.691 74.009V80.8271H113.015ZM134.972 81.0544C133.921 81.0544 133.014 80.8224 132.252 80.3584C131.494 79.8896 130.909 79.2362 130.497 78.3982C130.09 77.5554 129.886 76.5753 129.886 75.4578C129.886 74.3404 130.09 73.3556 130.497 72.5033C130.909 71.6463 131.482 70.9787 132.216 70.5004C132.955 70.0175 133.816 69.776 134.801 69.776C135.369 69.776 135.931 69.8707 136.485 70.0601C137.038 70.2495 137.543 70.5573 137.997 70.9834C138.452 71.4048 138.814 71.9635 139.084 72.6595C139.354 73.3556 139.489 74.2126 139.489 75.2306V75.9408H131.08V74.4919H137.784C137.784 73.8764 137.661 73.3271 137.415 72.8442C137.173 72.3612 136.828 71.9801 136.378 71.7007C135.933 71.4214 135.407 71.2817 134.801 71.2817C134.134 71.2817 133.556 71.4474 133.068 71.7789C132.585 72.1056 132.214 72.5317 131.953 73.0573C131.693 73.5828 131.563 74.1463 131.563 74.7476V75.7135C131.563 76.5374 131.705 77.2358 131.989 77.8087C132.278 78.3769 132.678 78.8101 133.189 79.1084C133.7 79.402 134.295 79.5487 134.972 79.5487C135.412 79.5487 135.81 79.4872 136.165 79.3641C136.525 79.2362 136.835 79.0468 137.095 78.7959C137.356 78.5402 137.557 78.223 137.699 77.8442L139.318 78.2987C139.148 78.848 138.861 79.3309 138.459 79.7476C138.056 80.1595 137.559 80.4815 136.967 80.7135C136.376 80.9408 135.71 81.0544 134.972 81.0544Z" fill="black"/>
<path d="M213.697 16.1839L374.607 17.8239L368.887 37.9539L215.427 36.1139" fill="#CED4DA"/>
<path d="M208.507 13.7439C245.137 18.4939 276.907 11.2139 367.907 16.3839M211.867 13.9539C264.767 10.2139 317.887 10.3939 370.387 13.7639M374.627 15.5139C372.557 22.2139 370.577 26.8739 372.387 38.4939M372.707 14.5139C370.507 21.9439 369.147 31.0839 370.207 40.4839M372.017 41.1339C316.257 37.3739 267.017 37.8339 214.457 38.1139M370.017 38.0439C327.167 40.4039 286.067 41.1739 213.077 38.6739M211.437 35.9839C213.547 28.1039 208.417 18.3839 215.367 11.9639M212.297 40.8239C213.697 30.2639 213.627 18.7939 211.187 13.6839" stroke="black" stroke-linecap="round"/>
<path d="M355.294 20.5279C355.624 22.6979 355.294 28.5479 355.204 30.7779M353.124 19.0179C353.064 21.6779 353.024 32.1379 352.954 33.8879" stroke="black" stroke-linecap="round"/>
<path fill-rule="evenodd" clip-rule="evenodd" d="M355.204 30.7479L346.994 28.8879L352.044 28.5579L351.134 33.9079" fill="black"/>
<path d="M353.794 33.8779C351.724 31.8579 352.344 30.2979 349.864 26.6579M353.274 33.6779C351.724 32.5879 351.234 30.8379 349.614 27.9279M350.484 26.9479C351.224 27.9979 354.014 27.3479 356.524 28.1379M350.664 27.3579C352.034 28.1279 353.624 28.5179 355.324 27.8479M355.534 28.7079C353.984 29.9379 353.804 33.0279 352.944 34.2779M356.454 27.6979C354.844 28.8179 354.354 30.3579 352.584 34.3079" stroke="black" stroke-linecap="round"/>
<path d="M90.114 21.3989H91.8754V31.0296C91.8754 32.0239 91.641 32.9117 91.1722 33.693C90.7082 34.4695 90.0525 35.0827 89.2049 35.5325C88.3574 35.9775 87.3631 36.2001 86.222 36.2001C85.0809 36.2001 84.0865 35.9775 83.239 35.5325C82.3915 35.0827 81.7333 34.4695 81.2646 33.693C80.8006 32.9117 80.5686 32.0239 80.5686 31.0296V21.3989H82.3299V30.8876C82.3299 31.5978 82.4862 32.2299 82.7987 32.7839C83.1112 33.3331 83.5562 33.7664 84.1339 34.0836C84.7163 34.3961 85.4123 34.5524 86.222 34.5524C87.0316 34.5524 87.7276 34.3961 88.31 34.0836C88.8924 33.7664 89.3375 33.3331 89.6453 32.7839C89.9578 32.2299 90.114 31.5978 90.114 30.8876V21.3989ZM102.893 27.4785L101.387 27.9046C101.292 27.6537 101.153 27.4098 100.968 27.1731C100.788 26.9316 100.542 26.7327 100.229 26.5765C99.9169 26.4202 99.5168 26.3421 99.0291 26.3421C98.3615 26.3421 97.8052 26.496 97.3601 26.8038C96.9198 27.1068 96.6996 27.4927 96.6996 27.9614C96.6996 28.3781 96.8511 28.7072 97.1541 28.9487C97.4572 29.1901 97.9307 29.3914 98.5746 29.5524L100.194 29.9501C101.169 30.1868 101.896 30.549 102.374 31.0367C102.853 31.5197 103.092 32.1423 103.092 32.9046C103.092 33.5296 102.912 34.0883 102.552 34.5808C102.197 35.0732 101.7 35.4614 101.06 35.7455C100.421 36.0296 99.6778 36.1717 98.8303 36.1717C97.7176 36.1717 96.7967 35.9302 96.0675 35.4472C95.3383 34.9643 94.8767 34.2588 94.6825 33.3308L96.2735 32.933C96.425 33.5202 96.7114 33.9605 97.1328 34.2541C97.559 34.5476 98.1153 34.6944 98.8019 34.6944C99.5831 34.6944 100.203 34.5287 100.663 34.1972C101.127 33.8611 101.359 33.4586 101.359 32.9899C101.359 32.6111 101.226 32.2938 100.961 32.0381C100.696 31.7777 100.289 31.5836 99.7394 31.4558L97.9212 31.0296C96.9221 30.7929 96.1882 30.4259 95.7195 29.9288C95.2555 29.4269 95.0235 28.7995 95.0235 28.0467C95.0235 27.4311 95.1963 26.8866 95.5419 26.4131C95.8923 25.9397 96.3682 25.568 96.9695 25.2981C97.5755 25.0282 98.2621 24.8933 99.0291 24.8933C100.109 24.8933 100.956 25.13 101.572 25.6035C102.192 26.077 102.632 26.702 102.893 27.4785ZM110.189 36.1717C109.137 36.1717 108.231 35.9397 107.468 35.4756C106.711 35.0069 106.126 34.3535 105.714 33.5154C105.307 32.6726 105.103 31.6925 105.103 30.5751C105.103 29.4577 105.307 28.4728 105.714 27.6205C106.126 26.7635 106.699 26.0959 107.433 25.6177C108.172 25.1347 109.033 24.8933 110.018 24.8933C110.586 24.8933 111.147 24.988 111.701 25.1774C112.255 25.3667 112.76 25.6745 113.214 26.1006C113.669 26.522 114.031 27.0808 114.301 27.7768C114.571 28.4728 114.706 29.3298 114.706 30.3478V31.058H106.297V29.6092H113.001C113.001 28.9936 112.878 28.4444 112.632 27.9614C112.39 27.4785 112.045 27.0973 111.595 26.818C111.15 26.5386 110.624 26.3989 110.018 26.3989C109.351 26.3989 108.773 26.5647 108.285 26.8961C107.802 27.2228 107.431 27.6489 107.17 28.1745C106.91 28.7001 106.779 29.2635 106.779 29.8649V30.8308C106.779 31.6546 106.922 32.353 107.206 32.9259C107.494 33.4941 107.895 33.9274 108.406 34.2256C108.917 34.5192 109.511 34.666 110.189 34.666C110.629 34.666 111.027 34.6044 111.382 34.4813C111.742 34.3535 112.052 34.1641 112.312 33.9131C112.573 33.6575 112.774 33.3402 112.916 32.9614L114.535 33.416C114.365 33.9652 114.078 34.4482 113.676 34.8649C113.273 35.2768 112.776 35.5988 112.184 35.8308C111.592 36.058 110.927 36.1717 110.189 36.1717ZM117.255 35.9444V25.0353H118.875V26.683H118.988C119.187 26.1433 119.547 25.7053 120.068 25.3691C120.589 25.0329 121.176 24.8649 121.829 24.8649C121.952 24.8649 122.106 24.8672 122.291 24.872C122.476 24.8767 122.615 24.8838 122.71 24.8933V26.5978C122.653 26.5836 122.523 26.5623 122.319 26.5339C122.12 26.5007 121.91 26.4842 121.687 26.4842C121.157 26.4842 120.683 26.5954 120.267 26.818C119.855 27.0358 119.528 27.3388 119.287 27.7271C119.05 28.1106 118.931 28.5486 118.931 29.041V35.9444H117.255ZM129.754 22.9614V21.3989H140.663V22.9614H136.089V35.9444H134.327V22.9614H129.754ZM142.983 40.0353C142.699 40.0353 142.446 40.0116 142.223 39.9643C142.001 39.9217 141.847 39.8791 141.762 39.8364L142.188 38.3592C142.595 38.4633 142.955 38.5012 143.267 38.4728C143.58 38.4444 143.857 38.3047 144.098 38.0538C144.345 37.8076 144.57 37.4075 144.773 36.8535L145.086 36.0012L141.052 25.0353H142.87L145.881 33.7285H145.995L149.006 25.0353H150.824L146.194 37.5353C145.985 38.0988 145.727 38.5651 145.419 38.9345C145.112 39.3085 144.754 39.5855 144.347 39.7654C143.945 39.9453 143.49 40.0353 142.983 40.0353ZM153.037 40.0353V25.0353H154.656V26.7683H154.855C154.978 26.5789 155.148 26.3374 155.366 26.0438C155.589 25.7455 155.906 25.4804 156.318 25.2484C156.735 25.0116 157.298 24.8933 158.008 24.8933C158.927 24.8933 159.736 25.1229 160.437 25.5822C161.138 26.0415 161.685 26.6925 162.078 27.5353C162.471 28.3781 162.667 29.3724 162.667 30.5183C162.667 31.6736 162.471 32.675 162.078 33.5225C161.685 34.3653 161.14 35.0187 160.444 35.4827C159.748 35.942 158.946 36.1717 158.037 36.1717C157.336 36.1717 156.775 36.0557 156.353 35.8237C155.932 35.5869 155.608 35.3194 155.38 35.0211C155.153 34.7181 154.978 34.4671 154.855 34.2683H154.713V40.0353H153.037ZM154.684 30.4899C154.684 31.3137 154.805 32.0405 155.047 32.6702C155.288 33.2952 155.641 33.7853 156.105 34.1404C156.569 34.4908 157.137 34.666 157.809 34.666C158.51 34.666 159.095 34.4813 159.564 34.112C160.037 33.738 160.392 33.2361 160.629 32.6063C160.87 31.9719 160.991 31.2664 160.991 30.4899C160.991 29.7228 160.873 29.0315 160.636 28.416C160.404 27.7957 160.051 27.3057 159.578 26.9458C159.109 26.5812 158.52 26.3989 157.809 26.3989C157.128 26.3989 156.555 26.5718 156.091 26.9174C155.627 27.2583 155.276 27.7365 155.039 28.3521C154.803 28.9629 154.684 29.6755 154.684 30.4899ZM169.798 36.1717C168.747 36.1717 167.84 35.9397 167.078 35.4756C166.32 35.0069 165.735 34.3535 165.324 33.5154C164.916 32.6726 164.713 31.6925 164.713 30.5751C164.713 29.4577 164.916 28.4728 165.324 27.6205C165.735 26.7635 166.308 26.0959 167.042 25.6177C167.781 25.1347 168.643 24.8933 169.628 24.8933C170.196 24.8933 170.757 24.988 171.311 25.1774C171.865 25.3667 172.369 25.6745 172.824 26.1006C173.278 26.522 173.64 27.0808 173.91 27.7768C174.18 28.4728 174.315 29.3298 174.315 30.3478V31.058H165.906V29.6092H172.61C172.61 28.9936 172.487 28.4444 172.241 27.9614C172 27.4785 171.654 27.0973 171.204 26.818C170.759 26.5386 170.234 26.3989 169.628 26.3989C168.96 26.3989 168.382 26.5647 167.895 26.8961C167.412 27.2228 167.04 27.6489 166.779 28.1745C166.519 28.7001 166.389 29.2635 166.389 29.8649V30.8308C166.389 31.6546 166.531 32.353 166.815 32.9259C167.104 33.4941 167.504 33.9274 168.015 34.2256C168.527 34.5192 169.121 34.666 169.798 34.666C170.238 34.666 170.636 34.6044 170.991 34.4813C171.351 34.3535 171.661 34.1641 171.922 33.9131C172.182 33.6575 172.383 33.3402 172.525 32.9614L174.145 33.416C173.974 33.9652 173.688 34.4482 173.285 34.8649C172.883 35.2768 172.386 35.5988 171.794 35.8308C171.202 36.058 170.537 36.1717 169.798 36.1717Z" fill="black"/>
<path d="M167.555 70.8419C167.285 105.105 167.615 242.078 167.785 277.608M171.615 63.2396C172.235 98.6641 173.985 251.475 173.065 286.24" stroke="black" stroke-linecap="round"/>
<path d="M321.465 69.9249C321.225 104.421 324.505 238.556 324.515 272.303M325.505 63.2396C324.745 98.8323 322.395 242.593 322.665 278.24" stroke="black" stroke-linecap="round"/>
</svg>
