<svg width="498" height="300" viewBox="0 0 498 300" fill="none" xmlns="http://www.w3.org/2000/svg">
<path d="M1.66791 1.02886C124.628 2.21886 246.688 0.928865 496.268 1.08886M2.18791 1.33886C184.288 0.968865 366.718 0.898865 496.358 1.51886M497.438 2.27886C493.818 71.5189 493.678 143.829 496.028 297.359M495.928 1.26886C495.898 79.2789 495.078 156.969 495.578 297.869M496.148 298.009C307.128 299.529 118.118 299.759 1.95791 298.429M495.838 297.759C350.828 298.509 204.598 298.439 2.05791 298.259M2.37791 296.749C1.37791 222.169 0.397906 145.789 1.45791 2.02886M2.13791 298.069C2.41791 192.299 1.96791 87.2489 1.31791 0.898865" stroke="black" stroke-linecap="round"/>
<path d="M141.664 99.6208C142.604 97.7108 144.804 95.7508 147.164 93.0308M141.254 99.2408C143.314 96.7008 145.584 94.2308 146.734 93.4308M142.614 104.251C144.934 101.441 149.314 95.6608 150.934 91.9208M142.454 105.141C144.214 102.041 145.684 100.171 151.524 91.9708M143.364 112.771C148.594 105.331 150.794 98.7608 156.904 94.1408M142.244 110.611C145.864 106.161 151.964 99.0808 157.694 92.6108M142.614 116.741C146.034 111.951 153.374 103.701 162.234 92.1008M141.444 116.211C150.024 106.521 158.174 97.2708 163.034 92.3308M145.084 122.601C152.104 111.661 162.374 98.0508 169.084 93.3908M144.284 121.181C150.094 114.321 155.094 106.211 168.654 93.4208M147.904 122.771C152.484 114.111 157.354 111.471 171.494 93.5408M148.274 121.431C156.944 113.121 165.054 103.861 173.424 92.3608M154.024 120.211C162.644 109.431 173.104 99.3808 178.814 93.8008M154.544 121.881C162.854 111.381 171.754 101.771 179.434 92.2008M159.164 121.541C164.234 112.391 172.374 107.501 184.064 93.0108M158.634 122.261C166.794 110.701 175.824 102.071 183.254 92.0308M164.194 121.501C175.314 111.921 180.374 100.911 187.704 93.6308M165.794 121.111C171.434 113.291 176.814 107.141 189.644 93.5708M170.944 120.951C176.024 114.361 182.354 106.321 194.004 93.5708M170.744 120.321C176.304 114.541 181.124 106.091 194.774 92.6808M174.534 122.681C183.224 108.851 195.744 97.4808 198.784 92.2408M174.844 120.681C182.154 113.751 187.074 106.701 199.934 93.8908M179.154 121.501C187.074 111.551 198.624 102.331 205.784 94.3808M179.844 120.381C185.654 114.791 191.744 108.781 204.784 91.9008M186.404 120.031C189.794 115.881 196.944 107.121 210.454 92.0908M187.074 120.581C193.274 113.261 200.964 104.911 211.024 92.1808M191.084 122.771C198.484 111.961 203.794 107.011 216.284 92.7008M191.184 121.911C196.864 115.081 203.064 106.611 215.644 92.4408M197.534 119.921C200.334 113.271 205.244 108.561 222.574 92.7308M197.384 120.021C200.974 114.651 207.004 109.131 220.654 93.1908M203.444 121.431C208.104 116.741 214.044 110.121 224.794 93.8608M201.094 122.101C210.804 110.711 221.574 99.1408 226.254 93.2708M208.114 120.831C213.074 114.261 217.824 108.371 230.374 92.8108M207.244 120.411C215.444 110.761 222.824 101.631 230.624 92.3808M212.344 121.261C217.084 112.571 224.234 108.091 239.004 93.3208M211.924 120.821C219.154 113.181 226.364 103.991 237.064 92.5808M218.694 119.321C222.954 112.381 232.564 104.671 242.484 92.0608M217.664 120.351C223.934 114.441 228.714 108.021 241.774 92.8908M223.304 123.111C229.654 114.231 233.214 109.481 249.014 90.6008M223.094 121.681C228.274 114.921 234.434 107.971 247.054 92.7408M228.244 120.061C236.674 109.011 247.744 99.1108 250.984 93.3208M228.204 120.681C237.384 111.381 245.464 102.531 253.014 92.5808M233.264 122.941C242.354 112.101 254.174 98.7308 256.664 92.0908M234.044 120.961C239.314 113.561 246.134 105.401 258.124 94.0808M240.154 121.791C246.284 113.951 253.284 104.181 265.304 92.5008M239.964 121.391C248.674 110.831 257.414 102.211 264.264 92.9908M244.544 121.811C249.274 114.351 256.694 110.281 268.194 94.0108M243.294 120.651C253.454 111.071 261.594 101.611 268.674 92.8808M247.544 120.111C258.234 112.121 264.984 102.171 274.324 92.6308M249.934 121.481C257.064 113.161 263.724 103.591 273.524 92.4008M254.874 119.861C263.234 110.401 274.154 98.2608 280.244 92.9208M255.374 121.461C259.714 115.671 265.334 108.531 278.674 92.8808M257.924 122.471C269.364 110.901 277.744 102.641 284.314 93.8308M260.634 120.851C265.334 114.911 269.434 109.031 283.824 92.7708M267.424 122.321C273.274 109.911 281.044 100.621 288.554 92.7308M265.884 121.781C270.374 115.381 276.014 108.541 289.304 93.2608M271.244 122.651C279.184 111.041 287.344 101.831 296.944 91.2908M271.134 121.881C275.634 114.171 281.154 107.661 296.234 92.7608M276.724 121.521C281.004 117.031 287.314 108.561 301.244 91.4508M276.474 120.721C282.824 112.611 291.504 103.891 301.294 92.4308M280.484 119.771C287.564 113.531 292.804 105.351 307.294 93.3208M280.744 121.411C290.374 112.461 297.534 102.991 306.894 92.7408M286.744 122.901C293.514 113.221 295.164 111.221 312.854 91.1708M285.824 121.081C294.394 114.001 300.934 104.171 311.924 92.9808M293.084 121.061C298.464 116.101 302.894 109.551 317.864 91.3108M291.294 120.461C295.724 115.341 300.534 110.111 315.974 91.7808M296.834 118.971C303.334 113.891 310.834 106.381 322.314 92.0808M296.674 120.371C305.494 109.811 316.054 99.7808 322.014 92.7008M300.844 119.841C310.624 111.821 320.224 98.9408 328.534 93.7508M302.164 121.281C311.494 110.651 320.684 100.291 326.684 92.6608M307.774 119.341C313.934 113.331 321.434 104.941 330.994 94.4808M308.814 121.811C313.094 114.221 318.754 109.291 332.934 93.6008M313.984 121.521C321.034 114.131 328.334 105.661 338.624 92.2208M313.294 120.311C319.904 114.191 324.524 107.311 338.304 92.8608M319.744 120.721C326.454 112.471 332.904 102.341 344.634 92.7308M318.064 121.321C325.524 114.791 331.534 106.701 343.604 92.8808M323.144 121.591C332.244 111.371 343.394 98.6608 348.824 91.4008M324.154 121.181C330.334 111.801 337.674 103.161 349.144 91.5708M330.324 120.911C335.594 110.761 341.764 104.391 355.394 93.3108M329.304 120.511C339.094 109.561 346.484 100.711 353.474 91.9508M333.344 119.651C341.264 113.041 349.684 100.961 359.254 91.0608M334.774 121.751C341.424 112.321 348.574 103.871 359.564 92.6508M340.494 120.811C347.994 110.341 353.724 101.451 363.844 92.7908M339.464 121.701C346.314 113.831 352.854 107.241 363.554 93.4308M346.054 121.411C352.674 111.961 360.144 104.331 371.434 92.0508M344.724 121.061C351.034 113.081 356.884 107.101 368.974 91.7108M348.654 122.401C358.144 114.421 362.754 105.501 370.994 94.0808M350.504 120.931C356.334 114.461 360.764 107.101 373.454 94.4008M357.094 120.631C360.124 112.501 366.724 106.871 374.424 103.401M356.124 120.371C359.884 115.281 364.574 110.821 372.954 102.091M360.664 118.951C365.844 117.211 367.614 111.751 373.584 107.461M360.514 120.891C364.754 117.361 367.754 114.871 373.614 106.471M366.434 121.121C367.324 119.631 368.484 118.151 372.244 112.801M366.384 120.581C367.514 118.891 369.584 117.661 372.974 113.621" stroke="#CED4DA" stroke-width="0.5" stroke-linecap="round"/>
<path d="M140.054 93.3507C228.054 94.1507 315.564 93.1207 370.714 92.5207M141.674 92.8507C217.664 90.3807 294.084 90.3807 369.524 92.4107M372.044 92.1907C371.714 101.461 368.994 113.021 369.354 121.151M370.764 92.4907C370.574 102.151 370.884 111.771 371.064 120.321M369.574 118.721C320.314 118.551 268.264 117.601 142.204 119.231M369.804 119.251C284.714 118.761 199.464 118.571 141.644 119.061M140.234 119.681C141.364 113.991 143.074 107.141 143.394 91.0807M142.264 118.601C142.604 113.081 140.734 108.721 141.654 92.4707" stroke="black" stroke-linecap="round"/>
<path d="M140.77 136.531C142.34 135.681 142.35 133.311 146.78 129.581M140.45 136.141C142.27 134.711 143.43 133.451 146.15 130.681M140.08 142.521C144.4 136.461 148.56 135.061 151.96 129.991M141.63 142.481C143.52 138.881 146.55 135.991 151.54 130.181M140.19 149.381C144.11 144.771 149.92 140.441 154.72 131.331M140.96 148.491C147.35 142.611 152.51 135.851 157.56 129.441M140.37 153.331C145.48 147.301 153.89 140.541 161.86 131.261M141.53 154.981C147.95 147.911 153.53 139.411 162.43 129.081M142.13 161.511C147.62 148.861 156.95 140.481 165.53 129.511M141.13 159.031C147.7 152.371 154.61 144.241 166.88 129.441M146.8 159.221C156.04 150.791 166.07 140.401 172.36 130.491M147.37 159.311C155.5 148.741 164.53 138.211 173.71 130.291M152.63 159.831C156.41 152.441 162.31 148.011 179.29 129.371M151.99 159.571C161.23 148.651 172.54 138.021 177.47 129.471M158.92 159.871C161.85 152.951 169.87 147.691 181.94 127.911M157 160.331C163.89 150.451 172.26 143.611 183.69 130.391M161.14 160.991C173.9 146.791 180.82 136.711 190.36 128.441M162.6 160.411C171.22 148.971 182.32 138.761 188.57 130.561M166.72 159.941C175.9 153.001 182.47 143.361 193.41 129.821M166.97 159.511C174.23 152.281 180.84 144.951 194.25 129.131M175.35 160.451C178.76 151.651 185.37 146.121 198.52 129.331M173.41 159.721C181.62 151.181 190.58 141.381 198.47 129.411M178.84 159.191C184.01 150.681 194.6 142.891 204.01 130.641M178.12 160.021C185.86 150.241 194.27 141.541 205.82 130.431M185.36 157.731C189.08 151.471 195.52 145.001 210.93 129.751M183.4 159.871C192.21 151.491 198.23 142.981 209.48 129.451M187.33 160.451C196.43 150.381 203.08 143.751 215.36 130.881M189.36 159.711C197.42 151.691 204.24 142.461 216.39 129.461M193.67 158.471C204.09 147.181 215.74 137.101 220.19 128.491M195.13 160.461C202.78 151.301 209.2 142.751 220.99 129.781M201.65 159.631C211.53 145.931 219.92 137.131 227.49 131.131M200.61 160.121C206.01 150.961 214.54 143.121 226.47 129.541M205.19 160.391C213.54 153.071 220.47 141.241 230.27 131.451M205.67 159.261C214.36 149.381 223.14 139.101 230.43 130.241M210.67 159.771C219.7 147.931 229.83 140.511 236.85 130.091M209.87 159.531C220.62 150.231 228.57 139.171 236.14 129.231M217.25 159.291C222.38 152.271 230.95 142.361 242.59 129.621M215.67 159.251C225.99 148.201 234.73 137.041 242.25 130.341M220.66 160.961C226.52 151.811 234.31 144.411 246.28 130.521M220.17 159.901C227.79 153.201 233.12 147.221 248.02 129.291M225.56 159.111C231.28 151.521 237.32 146.511 253.93 129.081M226.3 159.641C235.13 150.071 243.51 141.261 252.99 130.321M233.29 158.421C236.58 154.451 244.83 146.411 258.39 130.081M232.58 159.891C236.75 154.001 242.98 146.781 257.61 130.421M238.24 157.821C246.96 148.251 258.28 137.611 262.5 129.011M238.3 158.811C244.61 150.601 252.54 140.781 262.2 130.111M243.64 160.451C249.76 150.571 254.48 143.691 268.14 132.221M243.24 159.871C249.85 150.891 258.32 140.481 268.95 131.271M249.85 157.551C253.12 154.441 257.55 145.501 273.92 131.661M248.93 159.351C257.43 147.791 267.51 136.851 273.49 130.341M254.21 158.441C260.62 150.201 270.93 136.771 276.95 128.771M252.32 158.911C259.86 152.231 265.95 143.771 277.63 129.951M259.32 158.461C268.51 151.101 275.79 138.561 283.21 128.421M259.02 159.071C265.44 152.571 271.74 144.321 283.53 129.361M264.88 160.881C274.85 150.001 281.87 136.781 289.3 130.881M263.03 159.801C269.97 153.021 277.79 144.181 288.46 130.041M267.34 161.611C275.26 151.641 284.16 142.621 296.79 129.721M269.28 160.731C274.62 151.791 281.79 146.081 295.01 130.201M274.97 159.361C282.41 148.931 292.79 138.661 298.05 131.801M274.65 160.001C282.49 150.901 289.54 142.171 299.8 130.301M280.98 159.861C286.95 149.641 295.17 139.541 306.5 131.131M279.95 160.011C290 148.421 299.66 136.241 305.7 129.601M285.17 158.541C293.35 151.401 303.09 141.111 310.49 128.891M285.49 158.701C291.48 151.511 297.77 145.521 310.54 129.701M291.74 160.441C297.04 154.171 301.16 147.791 315.58 131.291M289.82 159.091C296.66 152.221 301.68 145.251 315.38 129.031M295.6 158.191C305.43 150.481 316.31 138.931 322.33 129.581M295.91 159.781C304.3 150.461 312.37 140.571 321.14 130.421M300.19 159.921C305.88 153.091 310.76 145.641 328.66 129.931M299.9 160.571C308.85 149.921 316.51 141.411 326.9 129.611M307.78 159.191C313.04 149.611 321.31 141.451 331.65 129.411M305.32 158.851C312.15 153.641 318.03 145.031 332.58 130.821M309.31 158.951C319.52 147.331 329.6 138.351 337.81 129.891M311.76 159.261C319.8 151.811 327.19 142.641 337.16 129.221M318.64 161.471C321.2 153.541 327.11 148.881 340.96 130.011M317.17 160.171C322.95 153.531 329.18 145.911 341.41 130.501M322.46 160.291C330.73 147.721 339.83 135.971 348.48 131.091M322.5 159.201C328.51 150.701 336 142.171 348.09 129.401M326.51 158.111C334.9 150.541 345.69 141.331 351.17 129.101M327.97 159.751C334.69 150.961 340.47 143.791 352.71 129.241M333.45 158.791C340.52 148.561 350.89 139.841 357.53 128.551M331.76 160.591C340.49 150.461 348.24 142.231 357.69 130.421M337.13 161.231C346.98 151.281 357.87 138.411 363.6 130.491M338.26 160.291C344.15 151.581 349.03 146.421 363.12 130.021M344.46 159.381C354.22 147.791 363.41 140.041 370.58 131.141M342.75 158.861C352.31 149.291 360.99 140.511 368.32 130.991M349.64 160.081C354.06 150.271 362.37 144.401 368.06 136.891M349.64 160.191C355.54 152.451 362.85 144.831 367.92 136.821M352.08 159.101C357.31 154.181 359.94 153.121 368.12 140.631M353.2 159.641C359.92 153.281 365.82 146.341 367.89 142.351M358.81 159.111C363.08 155.761 366.41 151.031 369.55 148.801M359.62 158.801C362.05 155.711 365.19 153.461 368.95 148.621M364.6 160.151C366 159.001 366.93 156.831 367.68 155.081M364.32 159.751C366.07 157.941 367.45 156.521 368.07 154.941" stroke="#CED4DA" stroke-width="0.5" stroke-linecap="round"/>
<path d="M140.8 130.861C213.75 130.471 286.48 131.311 366.87 129.231M141.47 129.561C222.66 130.881 305.08 131.881 367.88 129.591M367.32 129.371C369.98 139.031 367.58 148.681 366.6 158.831M368.12 129.601C368.62 135.971 368.28 142.711 368.73 158.841M369.01 159.381C285.28 157.851 203.88 158.481 141.35 159.901M368.64 159.411C290.37 158.591 214.18 157.641 141.65 158.681M139.07 159.971C141.59 152.571 141.94 145.011 141.17 131.031M141 158.791C141.5 146.731 141.3 136.101 140.67 129.651" stroke="black" stroke-linecap="round"/>
<path d="M139.86 184.68C141.113 183.022 143.228 181.743 146.544 177.206M140.517 184.952C141.77 182.027 143.72 179.469 145.733 177.846M141.215 191.585C144.655 185.403 147.18 181.257 151.718 178.308M140.158 190.981C143.32 186.859 146.102 184.739 151.862 176.578M140.24 200.777C144.039 192.26 147.55 189.915 158.021 175.501M140.805 198.502C144.07 193.433 146.133 190.128 157.539 177.573M141.472 203.406C149.726 197.33 153.966 184.265 161.204 179.113M141.103 205.135C146.071 198.384 149.839 194.558 162.836 176.993M142.006 208.997C150.989 200.303 160.619 188.494 167.364 176.46M142.519 209.293C149.747 200.137 157.529 190.282 167.569 177.455M149.233 212.076C155.29 201.985 158.586 195.695 172.538 176.14M147.498 209.778C154.9 201.274 161.984 193.67 173.718 176.081M153.042 210.726C158.401 200.99 163.647 197.614 177.845 176.389M153.412 209.885C162.128 198.088 170.166 187.096 178.646 178.533M159.695 211.294C166.686 195.991 177.004 183.922 184.549 178.213M158.442 208.985C166.676 201.606 173.369 190.898 184.077 176.496M164.561 208.156C170.854 203.394 174.17 195.731 188.574 177.194M164.633 210.56C173.154 199.462 182.722 186.836 189.22 178.414M169.057 209.411C175.125 200.528 182.424 193.066 196.13 176.543M168.77 211.14C176.141 203.738 181.1 194.925 195.647 177.49M176.572 212.491C181.469 202.897 186.582 191.597 201.807 178.924M176.316 211.259C184.919 196.844 193.573 186.078 200.462 177.727M182.096 210.418C188.707 202.399 196.951 192.663 204.188 175.856M181.469 210.998C189.6 198.787 199.076 186.705 205.236 176.034M187.167 210.536C193.943 200.042 200.411 190.934 212.72 177.384M185.73 209.589C193.799 200.954 202.782 189.027 211.221 176.543M190.35 212.064C197.731 200.066 206.314 192.118 218.079 177.81M191.048 210.205C198.131 201.843 204.917 191.609 216.025 177.408M198.634 209.731C206.642 197.105 214.311 186.753 223.766 175.927M196.499 209.151C206.047 199.675 214.619 187.523 223.119 177.976M201.54 209.281C208.942 199.9 214.927 190.946 228.756 178.604M201.632 210.157C208.973 202.34 215.081 194.002 228.314 177.49M207.176 212.064C215.101 197.365 226.795 188.518 234.422 178.414M207.32 211.223C215.533 199.722 223.356 190.685 233.355 177.49M212.186 211.673C219.177 200.007 228.653 191.372 239.576 176.128M212.915 211.733C219.023 201.239 226.405 192.604 238.519 175.773M217.329 211.697C227.657 200.504 233.129 187.677 243.241 177.337M219.157 211.223C228.889 196.074 239.422 183.14 243.95 178.284M226.107 212.787C232.636 197.164 245.839 182.974 247.871 177.029M223.284 211.697C233.724 196.607 243.539 183.365 250.438 176.519M231.661 211.579C236.907 196.607 248.385 186.279 253.98 175.133M230.111 209.34C234.772 202.766 241.568 194.511 254.585 175.939M235.901 211.377C240.705 203.536 249.781 193.433 258.569 176.282M234.905 211.022C240.582 203.832 246.824 196.477 259.205 176.673M240.51 211.591C247.953 203.607 254.462 192.178 265.385 177.123M240.541 209.399C249.309 198.727 258.466 189.086 265.663 176.14M245.572 209.02C254.452 199.367 260.92 190.863 272.582 179.741M246.567 211.318C254.134 200.599 259.77 192.035 271.401 177.633M252.82 210.904C259.564 197.662 268.332 187.878 277.325 174.861M252.019 210.525C261.536 197.993 270.929 184.55 277.263 176.934M256.125 212.538C264.318 199.379 271.371 188.932 280.662 178.616M256.762 211.318C265.714 199.059 274.974 186.279 281.565 177.656M261.156 210.359C268.363 200.729 277.9 192.924 288.71 176.969M262.254 210.738C267.716 202.423 273.65 194.511 288.146 177.029M267.644 212.657C274.789 204.235 280.908 194.475 292.827 176.732M268.804 210.382C276.401 198.799 286.154 185.142 292.262 176.496M272.603 210.074C277.5 203.063 286.226 197.33 299.603 178.355M274.276 210.442C280.477 201.499 287.663 192.237 298.822 176.946M277.243 210.039C287.006 198.917 294.932 186.895 302.765 179.599M279.553 209.695C286.986 200.374 293.669 189.513 304.233 177.514M285.425 212.775C290.743 200.244 297.447 191.301 309.109 176.768M284.501 209.849C290.076 201.997 298.566 193.054 308.473 177.87M289.285 208.203C297.683 196.939 306.009 185.533 314.52 177.81M288.608 211.105C296.615 200.942 305.793 190.057 315.361 177.029M293.843 213C303.401 201.392 307.672 193.765 321.603 175.157M294.624 211.259C303.196 201.167 310.793 191.609 320.063 175.69M301.081 211.152C309.253 198.041 316.45 185.971 324.016 177.81M301.471 211.2C309.068 196.986 318.924 184.491 325.761 177.348M306.594 209.695C311.101 200.599 320.156 194.369 332.28 174.624M306.625 211.413C312.497 202.92 318.061 193.303 331.141 176.448M313.093 211.531C315.669 201.878 321.583 196.157 337.557 175.903M312.025 209.53C318.318 202.518 323.348 194.392 336.818 176.081M314.704 209.636C327.866 197.851 337.66 187.298 341.581 176.709M316.162 210.975C325.895 199.793 332.311 187.369 343.049 176.152M322.804 211.934C329.19 202.494 335.894 192.367 349.189 179.504M322.055 209.909C329.693 199.675 338.532 188.423 348.028 176.827M325.699 211.827C337.311 196.915 344.117 186.646 353.11 176.353M327.291 211.816C335.996 200.563 343.676 190.969 353.747 176.188M334.98 208.333C340.401 200.646 346.93 189.821 359.26 176.377M334.066 209.66C338.152 203.856 343.778 197.057 358.11 176.117M336.961 209.802C345.267 201.12 353.644 190.91 363.387 178.462M339.179 211.164C345.164 200.338 353.172 190.697 364.978 177.443M343.193 211.389C352.34 203.406 359.66 193.528 368.181 174.944M344.117 210.311C350.862 201.949 357.566 192.213 370.08 176.472M350.071 208.25C353.346 205.893 358.664 201.724 370.173 184.585M349.137 209.826C354.055 205.953 357.412 200.895 369.074 184.716M356.519 210.939C359.486 205.633 360.759 203.134 367.062 193.315M355.133 209.293C359.876 203.809 363.11 200.101 368.53 193.291M360.43 210.951C361.056 206.592 365.029 205.1 367.955 200.386M359.948 210.868C361.837 207.883 363.931 205.763 369.351 199.343M365.738 210.359C366.518 209.08 367.545 208.286 369.115 206.367M365.943 210.193C366.836 209.103 367.76 207.966 368.561 206.64" stroke="#CED4DA" stroke-width="0.5" stroke-linecap="round"/>
<path d="M141.267 177.005C196.284 177.396 252.707 174.518 367.329 178.959M141.318 176.188C186.305 179.362 232.544 179.232 368.017 177.348M368.325 175.418C369.074 188.127 366.764 200.765 370.306 208.736M369.146 177.704C368.777 185.663 368.386 195.47 368.879 208.108M366.58 207.563C294.49 208.57 220.05 210.063 142.273 206.332M367.432 208.357C288.515 207.386 208.767 207.208 140.209 209.233M139.378 207.196C139.963 200.374 140.035 197.282 139.378 176.519M140.302 208.57C141.565 197.354 141.472 185.225 139.953 177.194" stroke="black" stroke-linecap="round"/>
<path d="M208.442 224.646L304.852 220.916L308.152 226.146L307.642 251.946L303.672 258.456L297.792 261.776L203.462 255.586L193.142 258.256L199.872 230.346L200.482 224.136L200.902 227.156" fill="#CED4DA"/>
<path d="M204.782 224.366C238.042 221.196 278.962 226.486 299.272 224.366M204.782 224.366C233.642 221.486 265.182 223.556 299.272 224.366M299.272 224.366C303.222 220.646 304.862 227.816 308.022 233.116M299.272 224.366C303.762 227.356 310.192 231.236 308.022 233.116M308.022 233.116C308.712 236.966 309.352 247.776 308.022 250.616M308.022 233.116C307.572 240.316 309.482 245.476 308.022 250.616M308.022 250.616C310.992 259.966 301.632 260.346 299.272 259.366M308.022 250.616C311.622 258.336 305.922 260.386 299.272 259.366M299.272 259.366C271.322 262.706 239.142 257.176 204.782 259.366M299.272 259.366C273.872 257.626 249.212 258.206 204.782 259.366M204.782 259.366C200.102 258.376 199.672 253.826 196.032 250.616M204.782 259.366C202.972 259.346 193.062 256.466 196.032 250.616M196.032 250.616C197.852 246.146 197.722 241.176 196.032 233.116M196.032 250.616C196.882 244.806 195.972 237.376 196.032 233.116M196.032 233.116C196.772 228.116 201.562 221.906 204.782 224.366M196.032 233.116C193.262 223.006 203.272 228.306 204.782 224.366" stroke="black" stroke-linecap="round"/>
<path d="M223.516 235.616C223.431 234.897 223.085 234.338 222.479 233.94C221.873 233.542 221.13 233.344 220.249 233.344C219.605 233.344 219.041 233.448 218.559 233.656C218.08 233.864 217.706 234.151 217.436 234.515C217.171 234.88 217.039 235.294 217.039 235.758C217.039 236.147 217.131 236.48 217.316 236.76C217.505 237.034 217.746 237.264 218.04 237.449C218.334 237.629 218.641 237.778 218.963 237.896C219.285 238.01 219.581 238.102 219.851 238.173L221.328 238.571C221.707 238.67 222.129 238.808 222.593 238.983C223.061 239.158 223.509 239.397 223.935 239.7C224.366 239.998 224.721 240.382 225 240.851C225.28 241.319 225.419 241.895 225.419 242.576C225.419 243.362 225.213 244.073 224.801 244.707C224.394 245.342 223.798 245.846 223.012 246.22C222.23 246.594 221.281 246.781 220.164 246.781C219.122 246.781 218.22 246.613 217.458 246.277C216.7 245.941 216.103 245.472 215.668 244.871C215.237 244.269 214.993 243.571 214.936 242.775H216.755C216.802 243.325 216.987 243.779 217.309 244.139C217.635 244.494 218.047 244.759 218.544 244.934C219.046 245.105 219.586 245.19 220.164 245.19C220.836 245.19 221.44 245.081 221.975 244.863C222.51 244.641 222.934 244.333 223.246 243.94C223.559 243.542 223.715 243.078 223.715 242.548C223.715 242.065 223.58 241.672 223.31 241.369C223.04 241.066 222.685 240.82 222.245 240.63C221.804 240.441 221.328 240.275 220.817 240.133L219.027 239.622C217.891 239.295 216.991 238.829 216.328 238.223C215.666 237.617 215.334 236.824 215.334 235.844C215.334 235.029 215.554 234.319 215.995 233.713C216.44 233.102 217.036 232.629 217.784 232.292C218.537 231.951 219.378 231.781 220.306 231.781C221.243 231.781 222.077 231.949 222.806 232.285C223.535 232.617 224.112 233.071 224.539 233.649C224.969 234.227 225.197 234.882 225.22 235.616H223.516ZM228.088 246.525V235.616H229.764V246.525H228.088ZM228.94 233.798C228.614 233.798 228.332 233.687 228.095 233.464C227.863 233.242 227.747 232.974 227.747 232.662C227.747 232.349 227.863 232.082 228.095 231.859C228.332 231.637 228.614 231.525 228.94 231.525C229.267 231.525 229.546 231.637 229.778 231.859C230.015 232.082 230.133 232.349 230.133 232.662C230.133 232.974 230.015 233.242 229.778 233.464C229.546 233.687 229.267 233.798 228.94 233.798ZM237.237 250.844C236.428 250.844 235.732 250.739 235.149 250.531C234.567 250.327 234.082 250.058 233.693 249.721C233.31 249.39 233.005 249.035 232.777 248.656L234.112 247.719C234.264 247.917 234.456 248.145 234.688 248.4C234.92 248.661 235.237 248.886 235.639 249.075C236.047 249.269 236.579 249.366 237.237 249.366C238.118 249.366 238.845 249.153 239.418 248.727C239.991 248.301 240.277 247.633 240.277 246.724V244.508H240.135C240.012 244.707 239.837 244.953 239.61 245.247C239.387 245.536 239.065 245.794 238.644 246.021C238.227 246.244 237.664 246.355 236.953 246.355C236.073 246.355 235.282 246.147 234.581 245.73C233.885 245.313 233.334 244.707 232.926 243.912C232.524 243.116 232.323 242.15 232.323 241.014C232.323 239.897 232.519 238.924 232.912 238.095C233.305 237.262 233.852 236.618 234.553 236.163C235.254 235.704 236.063 235.474 236.982 235.474C237.692 235.474 238.255 235.593 238.672 235.829C239.094 236.061 239.416 236.326 239.638 236.625C239.865 236.918 240.041 237.16 240.164 237.349H240.334V235.616H241.953V246.838C241.953 247.775 241.74 248.538 241.314 249.125C240.893 249.717 240.325 250.15 239.61 250.424C238.899 250.704 238.109 250.844 237.237 250.844ZM237.181 244.849C237.853 244.849 238.421 244.695 238.885 244.388C239.349 244.08 239.702 243.637 239.943 243.059C240.185 242.482 240.306 241.79 240.306 240.986C240.306 240.2 240.187 239.506 239.951 238.905C239.714 238.303 239.363 237.832 238.899 237.491C238.435 237.15 237.862 236.98 237.181 236.98C236.47 236.98 235.879 237.16 235.405 237.52C234.936 237.879 234.584 238.362 234.347 238.969C234.115 239.575 233.999 240.247 233.999 240.986C233.999 241.743 234.117 242.413 234.354 242.995C234.595 243.573 234.951 244.028 235.419 244.359C235.893 244.686 236.48 244.849 237.181 244.849ZM246.698 239.963V246.525H245.022V235.616H246.641V237.321H246.783C247.039 236.767 247.427 236.322 247.948 235.986C248.469 235.645 249.141 235.474 249.965 235.474C250.703 235.474 251.35 235.626 251.904 235.929C252.458 236.227 252.889 236.682 253.196 237.292C253.504 237.898 253.658 238.665 253.658 239.594V246.525H251.982V239.707C251.982 238.85 251.759 238.183 251.314 237.704C250.869 237.221 250.258 236.98 249.482 236.98C248.947 236.98 248.469 237.096 248.047 237.328C247.63 237.56 247.301 237.898 247.06 238.344C246.818 238.789 246.698 239.328 246.698 239.963ZM264.334 231.98V246.525H262.573V231.98H264.334ZM269.315 239.963V246.525H267.639V235.616H269.258V237.321H269.4C269.656 236.767 270.044 236.322 270.565 235.986C271.086 235.645 271.758 235.474 272.582 235.474C273.321 235.474 273.967 235.626 274.521 235.929C275.075 236.227 275.506 236.682 275.813 237.292C276.121 237.898 276.275 238.665 276.275 239.594V246.525H274.599V239.707C274.599 238.85 274.376 238.183 273.931 237.704C273.486 237.221 272.876 236.98 272.099 236.98C271.564 236.98 271.086 237.096 270.664 237.328C270.248 237.56 269.919 237.898 269.677 238.344C269.436 238.789 269.315 239.328 269.315 239.963Z" fill="black"/>
<path d="M155.952 50.6364C155.824 49.5568 155.305 48.7188 154.396 48.1222C153.487 47.5256 152.372 47.2273 151.051 47.2273C150.085 47.2273 149.24 47.3835 148.516 47.696C147.798 48.0085 147.237 48.4382 146.832 48.9851C146.435 49.532 146.236 50.1534 146.236 50.8494C146.236 51.4318 146.374 51.9325 146.651 52.3516C146.935 52.7635 147.298 53.108 147.738 53.3849C148.178 53.6548 148.64 53.8786 149.123 54.0561C149.606 54.2266 150.05 54.3651 150.455 54.4716L152.67 55.0682C153.239 55.2173 153.871 55.4233 154.567 55.6861C155.27 55.9489 155.941 56.3075 156.58 56.7621C157.227 57.2095 157.759 57.7848 158.178 58.4879C158.597 59.1911 158.807 60.054 158.807 61.0767C158.807 62.2557 158.498 63.321 157.88 64.2727C157.269 65.2244 156.374 65.9808 155.195 66.5419C154.023 67.103 152.599 67.3835 150.923 67.3835C149.361 67.3835 148.008 67.1314 146.864 66.6271C145.728 66.1229 144.833 65.4197 144.18 64.5178C143.533 63.6158 143.168 62.5682 143.082 61.375H145.81C145.881 62.1989 146.158 62.8807 146.641 63.4205C147.131 63.9531 147.749 64.3509 148.494 64.6136C149.247 64.8693 150.057 64.9972 150.923 64.9972C151.932 64.9972 152.837 64.8338 153.64 64.5071C154.442 64.1733 155.078 63.7116 155.547 63.1222C156.016 62.5256 156.25 61.8295 156.25 61.0341C156.25 60.3097 156.048 59.7202 155.643 59.2656C155.238 58.8111 154.705 58.4418 154.045 58.1577C153.384 57.8736 152.67 57.625 151.903 57.4119L149.219 56.6449C147.514 56.1548 146.165 55.4553 145.17 54.5462C144.176 53.6371 143.679 52.4474 143.679 50.9773C143.679 49.7557 144.009 48.6903 144.67 47.7812C145.337 46.8651 146.232 46.1548 147.354 45.6506C148.484 45.1392 149.744 44.8835 151.136 44.8835C152.543 44.8835 153.793 45.1357 154.886 45.6399C155.98 46.1371 156.847 46.8189 157.486 47.6854C158.132 48.5518 158.473 49.5355 158.509 50.6364H155.952ZM162.81 67V50.6364H165.324V67H162.81ZM164.088 47.9091C163.598 47.9091 163.176 47.7422 162.821 47.4084C162.473 47.0746 162.299 46.6733 162.299 46.2045C162.299 45.7358 162.473 45.3345 162.821 45.0007C163.176 44.6669 163.598 44.5 164.088 44.5C164.578 44.5 164.997 44.6669 165.345 45.0007C165.7 45.3345 165.878 45.7358 165.878 46.2045C165.878 46.6733 165.7 47.0746 165.345 47.4084C164.997 47.7422 164.578 47.9091 164.088 47.9091ZM176.534 73.4773C175.32 73.4773 174.276 73.321 173.402 73.0085C172.528 72.7031 171.8 72.2983 171.218 71.794C170.643 71.2969 170.185 70.7642 169.844 70.196L171.847 68.7898C172.074 69.0881 172.362 69.429 172.71 69.8125C173.058 70.2031 173.533 70.5405 174.137 70.8246C174.748 71.1158 175.547 71.2614 176.534 71.2614C177.855 71.2614 178.945 70.9418 179.805 70.3026C180.664 69.6634 181.094 68.6619 181.094 67.2983V63.9744H180.881C180.696 64.2727 180.433 64.642 180.092 65.0824C179.759 65.5156 179.276 65.9027 178.643 66.2436C178.018 66.5774 177.173 66.7443 176.108 66.7443C174.787 66.7443 173.601 66.4318 172.55 65.8068C171.506 65.1818 170.678 64.2727 170.067 63.0795C169.464 61.8864 169.162 60.4375 169.162 58.733C169.162 57.0568 169.457 55.5973 170.046 54.3544C170.636 53.1044 171.456 52.1385 172.507 51.4567C173.558 50.7678 174.773 50.4233 176.151 50.4233C177.216 50.4233 178.061 50.6009 178.686 50.956C179.318 51.304 179.801 51.7017 180.135 52.1491C180.476 52.5895 180.739 52.9517 180.923 53.2358H181.179V50.6364H183.608V67.4688C183.608 68.875 183.288 70.0185 182.649 70.8991C182.017 71.7869 181.165 72.4368 180.092 72.8487C179.027 73.2678 177.841 73.4773 176.534 73.4773ZM176.449 64.4858C177.457 64.4858 178.31 64.255 179.006 63.7933C179.702 63.3317 180.231 62.6676 180.593 61.8011C180.955 60.9347 181.136 59.8977 181.136 58.6903C181.136 57.5114 180.959 56.4709 180.604 55.5689C180.249 54.6669 179.723 53.9602 179.027 53.4489C178.331 52.9375 177.472 52.6818 176.449 52.6818C175.384 52.6818 174.496 52.9517 173.786 53.4915C173.082 54.0312 172.553 54.7557 172.198 55.6648C171.85 56.5739 171.676 57.5824 171.676 58.6903C171.676 59.8267 171.854 60.8317 172.209 61.7053C172.571 62.5717 173.104 63.2536 173.807 63.7507C174.517 64.2408 175.398 64.4858 176.449 64.4858ZM190.724 57.1562V67H188.21V50.6364H190.639V53.1932H190.852C191.236 52.3622 191.818 51.6946 192.599 51.1903C193.381 50.679 194.389 50.4233 195.625 50.4233C196.733 50.4233 197.702 50.6506 198.533 51.1051C199.364 51.5526 200.011 52.2344 200.472 53.1506C200.934 54.0597 201.165 55.2102 201.165 56.6023V67H198.651V56.7727C198.651 55.4872 198.317 54.4858 197.649 53.7685C196.982 53.044 196.065 52.6818 194.901 52.6818C194.098 52.6818 193.381 52.8558 192.749 53.2038C192.124 53.5518 191.63 54.0597 191.268 54.7273C190.906 55.3949 190.724 56.2045 190.724 57.1562ZM217.18 45.1818V67H214.537V45.1818H217.18ZM224.65 57.1562V67H222.136V50.6364H224.565V53.1932H224.778C225.162 52.3622 225.744 51.6946 226.525 51.1903C227.306 50.679 228.315 50.4233 229.551 50.4233C230.659 50.4233 231.628 50.6506 232.459 51.1051C233.29 51.5526 233.936 52.2344 234.398 53.1506C234.86 54.0597 235.091 55.2102 235.091 56.6023V67H232.576V56.7727C232.576 55.4872 232.243 54.4858 231.575 53.7685C230.907 53.044 229.991 52.6818 228.826 52.6818C228.024 52.6818 227.306 52.8558 226.674 53.2038C226.049 53.5518 225.556 54.0597 225.194 54.7273C224.831 55.3949 224.65 56.2045 224.65 57.1562Z" fill="black"/>
</svg>
