<svg width="497" height="302" viewBox="0 0 497 302" fill="none" xmlns="http://www.w3.org/2000/svg">
<path d="M0.560303 1.90384C182.5 2.41384 364.72 2.77384 494.96 3.11384M1.7203 2.64384C160.97 0.943844 320.96 1.00384 495.81 2.36384M494.64 2.98384C495.15 75.6538 494.23 150.594 496.02 299.574M495.56 2.39384C493.47 92.8338 493.54 185.144 495.77 298.724M495.75 298.944C302.12 299.424 107.77 299.584 2.1403 298.434M495.83 298.994C302.16 299.364 109.54 299.994 1.0903 298.794M1.5803 300.254C0.150303 195.734 0.670303 93.6238 0.860303 2.12384M1.3503 298.354C0.350303 211.684 0.290303 125.064 1.6603 1.79384" stroke="black" stroke-linecap="round"/>
<path d="M10.8895 68.0543C13.2295 62.2443 14.8395 61.0643 19.4195 58.2443M10.8895 68.0543C13.1395 64.1443 16.1595 61.9243 19.4195 58.2443M11.2895 73.6943C14.6095 70.4843 19.5795 59.6243 24.4095 58.6043M11.2895 73.6943C13.8595 69.9443 18.1195 62.6943 24.4095 58.6043M11.0295 80.0943C20.2795 76.8043 21.5895 64.1443 29.3995 58.9643M11.0295 80.0943C19.7095 73.6343 26.0295 65.3343 29.3995 58.9643M11.4195 85.7343C16.2495 79.5743 25.5195 72.2643 35.0395 58.5643M11.4195 85.7343C18.5995 76.0543 27.6295 68.4543 35.0395 58.5643M11.1595 92.1343C17.4495 85.5843 27.8395 74.1943 40.0295 58.9243M11.1595 92.1343C17.1695 83.5343 24.6595 77.5143 40.0295 58.9243M10.8995 98.5343C23.0795 82.3243 35.4495 75.3443 43.6995 60.7943M10.8995 98.5343C21.8995 86.5543 30.3995 75.6343 43.6995 60.7943M11.2895 104.174C19.0395 92.7243 28.6395 86.4743 45.4095 64.9243M11.2895 104.174C22.3295 96.1243 28.1295 83.9243 45.4095 64.9243M11.0295 110.574C21.0795 98.2143 32.8995 87.0643 47.1095 69.0643M11.0295 110.574C21.9595 93.8743 36.4295 79.3043 47.1095 69.0643M11.4295 116.214C25.2295 101.564 36.4795 85.8143 47.5095 74.7043M11.4295 116.214C19.0395 105.694 31.8095 93.9343 47.5095 74.7043M11.1595 122.614C20.3095 111.314 38.9595 90.1643 47.2495 81.1043M11.1595 122.614C20.4995 115.274 25.7995 105.894 47.2495 81.1043M10.8995 129.014C19.7395 114.544 31.0295 107.544 47.6395 86.7443M10.8995 129.014C20.2695 119.234 28.4595 105.694 47.6395 86.7443M11.2995 134.654C20.7495 121.834 36.8595 105.624 47.3795 93.1443M11.2995 134.654C17.0695 125.344 25.1895 115.624 47.3795 93.1443M11.0395 141.054C24.2695 133.864 31.8495 117.514 47.1195 99.5443M11.0395 141.054C20.3595 129.134 33.3795 116.384 47.1195 99.5443M11.4295 146.694C20.0995 135.534 30.5095 119.394 47.5095 105.184M11.4295 146.694C25.2195 132.734 33.9595 121.794 47.5095 105.184M11.1695 153.094C19.7795 140.364 25.1395 134.804 47.2495 111.584M11.1695 153.094C25.4895 137.244 37.6395 121.744 47.2495 111.584M10.9095 159.494C24.0895 145.434 33.7395 127.114 47.6495 117.224M10.9095 159.494C21.6995 148.294 30.5495 133.474 47.6495 117.224M11.2995 165.134C24.3995 153.584 38.0395 140.204 47.3895 123.624M11.2995 165.134C20.9395 158.744 26.0895 149.194 47.3895 123.624M11.0395 171.534C15.4395 159.504 30.8495 155.474 47.1195 130.024M11.0395 171.534C21.9195 156.084 35.9695 142.424 47.1195 130.024M11.4395 177.174C20.5395 167.034 36.9395 147.464 47.5195 135.664M11.4395 177.174C27.0095 162.984 38.1395 144.354 47.5195 135.664M11.1695 183.574C20.6695 174.414 34.5995 160.074 47.2595 142.064M11.1695 183.574C20.2495 171.054 31.8195 160.104 47.2595 142.064M10.9095 189.974C18.8795 180.684 29.1295 170.914 47.6495 147.704M10.9095 189.974C24.1795 176.794 32.9295 161.174 47.6495 147.704M11.3095 195.614C21.7895 183.944 31.5195 166.034 47.3895 154.104M11.3095 195.614C22.7995 183.964 35.2595 171.254 47.3895 154.104M11.0495 202.014C18.9595 193.794 30.6095 179.074 47.1295 160.504M11.0495 202.014C23.4695 187.424 37.8795 170.894 47.1295 160.504M11.4395 207.654C27.9995 195.724 36.4095 178.464 47.5195 166.144M11.4395 207.654C22.6095 195.364 31.1495 184.234 47.5195 166.144M11.1795 214.054C23.3395 202.834 36.0895 187.894 47.2595 172.544M11.1795 214.054C21.2695 203.664 28.7895 195.354 47.2595 172.544M10.9195 220.444C26.2095 209.754 35.6295 193.354 47.6595 178.184M10.9195 220.444C21.8895 210.614 31.0495 197.004 47.6595 178.184M11.3095 226.094C19.5695 214.034 29.9195 202.314 47.3995 184.584M11.3095 226.094C23.2995 212.844 33.3395 200.074 47.3995 184.584M11.0495 232.494C20.1395 224.204 24.3395 212.204 47.1295 190.984M11.0495 232.494C21.2395 221.634 35.1395 208.324 47.1295 190.984M11.4395 238.134C21.1195 219.804 34.9695 207.544 47.5295 196.624M11.4395 238.134C19.8995 231.204 25.7695 221.794 47.5295 196.624M11.1795 244.534C15.7695 231.184 26.1095 219.474 47.2695 203.024M11.1795 244.534C24.2895 233.884 34.6995 218.814 47.2695 203.024M10.9195 250.924C19.4495 242.464 27.1095 229.684 47.6595 208.664M10.9195 250.924C20.8895 240.044 28.1395 230.574 47.6595 208.664M11.3195 256.574C23.5295 239.084 38.4595 223.874 47.3995 215.064M11.3195 256.574C23.9795 239.454 35.7295 225.724 47.3995 215.064M11.0595 262.964C22.6295 253.254 25.7595 246.534 47.1395 221.464M11.0595 262.964C20.9295 249.754 30.8795 240.244 47.1395 221.464M12.1095 267.854C22.1095 262.184 29.7295 246.944 47.5295 227.104M12.1095 267.854C28.0095 253.234 41.8995 234.694 47.5295 227.104M15.1195 270.484C23.1395 257.794 32.5595 249.404 47.2695 233.504M15.1195 270.484C22.2295 261.544 30.5295 252.804 47.2695 233.504M18.1395 273.104C25.7395 257.514 39.6595 252.314 47.6695 239.144M18.1395 273.104C28.2695 262.684 35.0295 250.604 47.6695 239.144M23.1295 273.464C27.3095 268.764 31.7395 261.634 47.3995 245.544M23.1295 273.464C29.5595 268.004 32.4395 262.114 47.3995 245.544M28.1195 273.824C32.2895 264.794 43.8695 259.404 47.1395 251.944M28.1195 273.824C33.4995 268.624 40.5395 258.964 47.1395 251.944M33.0995 274.184C39.0995 269.024 37.9995 264.754 47.5395 257.584M33.0995 274.184C37.1495 267.744 43.1695 260.664 47.5395 257.584M38.7495 273.794C42.7695 268.984 41.7695 266.494 47.2795 263.984M38.7495 273.794C42.3395 270.734 43.7095 268.064 47.2795 263.984M21.1195 271.034C19.9895 271.694 18.3195 264.334 10.5595 261.854M21.1195 271.034C16.7095 269.424 15.0895 264.834 10.5595 261.854M27.5195 271.294C21.5195 265.704 13.5995 259.634 10.9195 256.864M27.5195 271.294C23.9995 265.194 16.9195 262.404 10.9195 256.864M33.9195 271.554C28.5195 269.514 27.2095 266.044 10.5195 251.224M33.9195 271.554C26.6395 267.244 20.5395 261.054 10.5195 251.224M38.0495 269.854C30.2095 257.794 21.1695 250.144 10.8795 246.234M38.0495 269.854C29.7095 261.474 21.3995 255.154 10.8795 246.234M43.6995 269.454C36.3895 263.574 24.7795 257.454 10.4895 240.594M43.6995 269.454C34.0995 261.994 26.9995 253.454 10.4895 240.594M44.8095 265.124C36.2995 259.924 27.4495 247.084 10.8495 235.604M44.8095 265.124C37.0095 256.664 28.0195 250.024 10.8495 235.604M46.6795 261.454C38.8895 256.344 27.9995 249.844 10.4495 229.964M46.6795 261.454C37.2595 252.684 25.8795 244.354 10.4495 229.964M46.2795 255.804C33.3295 245.074 20.5095 229.854 10.8095 224.974M46.2795 255.804C32.8195 245.674 23.4395 235.434 10.8095 224.974M46.6495 250.824C33.1795 237.624 24.1195 231.314 10.4195 219.334M46.6495 250.824C34.2795 241.404 20.3895 229.154 10.4195 219.334M46.2495 245.174C39.9095 238.884 34.2795 232.054 10.7795 214.344M46.2495 245.174C37.3095 237.354 27.3495 228.774 10.7795 214.344M46.6095 240.194C36.1795 231.024 15.8595 216.364 11.1395 209.354M46.6095 240.194C32.8795 230.734 20.0995 219.124 11.1395 209.354M46.9695 235.204C35.1095 227.664 23.5995 213.074 10.7395 203.714M46.9695 235.204C36.1695 228.004 28.7095 220.494 10.7395 203.714M46.5795 229.564C38.0895 220.404 26.9395 213.114 11.0995 198.724M46.5795 229.564C37.2795 223.294 32.7195 215.794 11.0995 198.724M46.9395 224.574C34.5195 210.194 19.2495 203.534 10.7095 193.084M46.9395 224.574C37.9295 215.124 27.9595 208.974 10.7095 193.084M46.5395 218.934C37.4195 206.964 18.5295 193.524 11.0695 188.094M46.5395 218.934C35.4195 207.834 26.2895 201.714 11.0695 188.094M46.8995 213.944C38.5595 206.054 24.7495 196.874 10.6795 182.454M46.8995 213.944C36.5795 202.684 24.7195 193.864 10.6795 182.454M46.5095 208.304C31.0495 195.194 25.4495 189.124 11.0395 177.464M46.5095 208.304C40.9495 199.734 31.6995 195.094 11.0395 177.464M46.8695 203.314C35.9395 190.774 19.5495 179.234 10.6395 171.824M46.8695 203.314C34.9295 196.004 28.2795 184.134 10.6395 171.824M46.4695 197.674C30.9595 188.154 18.6795 177.554 10.9995 166.834M46.4695 197.674C36.4695 190.714 29.3495 182.414 10.9995 166.834M46.8295 192.684C34.0695 179.664 18.3095 174.364 10.6095 161.194M46.8295 192.684C36.9495 184.974 27.2995 176.514 10.6095 161.194M46.4395 187.044C40.6295 182.054 29.2395 171.934 10.9695 156.204M46.4395 187.044C36.9995 177.104 24.1695 169.554 10.9695 156.204M46.7995 182.054C37.9595 170.174 21.5595 162.454 10.5695 150.564M46.7995 182.054C38.5095 175.884 30.9795 167.954 10.5695 150.564M46.3995 176.414C34.0495 165.474 20.5695 151.154 10.9295 145.574M46.3995 176.414C33.9195 165.444 18.4695 153.164 10.9295 145.574M46.7595 171.424C37.0795 165.864 32.2695 155.024 10.5395 139.934M46.7595 171.424C35.3795 163.934 26.6595 155.514 10.5395 139.934M46.3695 165.784C32.6995 156.494 22.3495 138.234 10.8995 134.944M46.3695 165.784C37.1995 158.104 30.0695 150.374 10.8995 134.944M46.7295 160.794C40.4995 155.814 28.5495 145.744 10.4995 129.304M46.7295 160.794C33.7795 152.734 24.7595 140.494 10.4995 129.304M46.3295 155.154C38.4695 148.734 28.7695 141.484 10.8595 124.314M46.3295 155.154C34.0095 144.434 18.6895 129.174 10.8595 124.314M46.6895 150.164C37.9995 141.504 26.4395 132.194 10.4695 118.674M46.6895 150.164C34.0095 138.214 19.2595 125.974 10.4695 118.674M46.2995 144.524C32.0195 130.134 21.8495 119.014 10.8295 113.684M46.2995 144.524C35.0995 133.604 20.0495 124.854 10.8295 113.684M46.6595 139.534C38.2295 135.144 31.6095 125.584 10.4295 108.044M46.6595 139.534C37.3295 132.674 29.7395 123.274 10.4295 108.044M46.2695 133.894C40.6695 124.274 32.0795 117.454 10.7895 103.054M46.2695 133.894C38.9295 127.164 30.1795 121.014 10.7895 103.054M46.6295 128.904C35.4495 117.424 31.8095 112.134 11.1495 98.0643M46.6295 128.904C37.3395 120.934 28.0395 114.964 11.1495 98.0643M46.9895 123.914C34.9695 114.034 20.6695 103.524 10.7595 92.4243M46.9895 123.914C33.4195 112.514 20.2495 101.274 10.7595 92.4243M46.5895 118.274C29.8795 107.954 21.4795 92.0343 11.1195 87.4343M46.5895 118.274C37.4895 109.424 26.4295 101.154 11.1195 87.4343M46.9495 113.284C33.9495 103.924 16.7495 88.9043 10.7295 81.7943M46.9495 113.284C37.2395 106.214 27.2595 94.3043 10.7295 81.7943M46.5595 107.644C29.0995 92.6543 20.7395 81.2743 11.0895 76.8043M46.5595 107.644C37.6895 99.4043 24.3995 88.4943 11.0895 76.8043M46.9195 102.654C29.3895 92.2443 21.7095 80.1843 10.6895 71.1643M46.9195 102.654C35.2595 89.9643 22.0795 80.9343 10.6895 71.1643M46.5195 97.0143C40.1595 89.5843 28.6695 84.5843 11.0495 66.1743M46.5195 97.0143C31.5795 84.6443 20.4595 73.4943 11.0495 66.1743M46.8795 92.0243C41.3395 87.6743 32.0995 76.9143 12.1695 61.8443M46.8795 92.0243C35.1695 80.8543 22.5795 71.2843 12.1695 61.8443M46.4895 86.3843C38.3795 83.2843 32.9595 78.5243 14.0395 58.1743M46.4895 86.3843C35.0795 75.8843 21.1295 66.3743 14.0395 58.1743M46.8495 81.3943C36.8095 77.5743 32.6295 67.8343 19.6795 57.7743M46.8495 81.3943C40.1595 75.7243 36.0795 69.6143 19.6795 57.7743M46.4495 75.7543C43.0095 71.6443 29.7795 64.4143 26.0795 58.0443M46.4495 75.7543C41.1995 70.1143 37.7595 67.6443 26.0795 58.0443M46.8095 70.7643C43.1395 67.2443 39.5595 60.9443 31.7195 57.6443M46.8095 70.7643C42.4495 65.9843 37.9895 63.3243 31.7195 57.6443M46.4195 65.1243C43.6995 61.3043 42.1795 60.1443 38.1195 57.9043M46.4195 65.1243C44.3995 63.4843 42.0895 59.7743 38.1195 57.9043" stroke="#CED4DA" stroke-width="0.5" stroke-linecap="round"/>
<path d="M18.9395 58.1043C21.0395 60.2943 28.5295 60.1443 36.5695 58.1043M18.9395 58.1043C25.0495 56.6543 27.0395 58.8943 36.5695 58.1043M36.5695 58.1043C46.2795 58.6143 43.1395 61.4343 45.3795 66.9243M36.5695 58.1043C41.8395 54.2043 43.8295 64.7843 45.3795 66.9243M45.3795 66.9243C47.9195 127.834 51.5495 182.284 45.3795 262.814M45.3795 66.9243C45.3595 143.224 44.9295 218.654 45.3795 262.814M45.3795 262.814C48.4695 266.074 40.2495 269.124 36.5695 271.634M45.3795 262.814C46.1295 272.564 39.2495 273.084 36.5695 271.634M36.5695 271.634C32.2095 269.614 30.7995 274.774 18.9395 271.634M36.5695 271.634C29.6995 270.174 25.7395 273.034 18.9395 271.634M18.9395 271.634C14.7695 274.514 12.7095 272.634 10.1195 262.814M18.9395 271.634C12.5795 269.224 11.8195 268.644 10.1195 262.814M10.1195 262.814C8.8695 186.394 12.5695 113.844 10.1195 66.9243M10.1195 262.814C10.4795 191.224 8.4395 122.164 10.1195 66.9243M10.1195 66.9243C13.8195 64.5943 16.0595 60.6243 18.9395 58.1043M10.1195 66.9243C12.1695 60.4643 16.8495 57.3843 18.9395 58.1043" stroke="black" stroke-linecap="round"/>
<path d="M17.1699 85.6975C17.6999 85.5975 19.0099 83.3075 27.8899 77.5175M15.8499 87.9075C21.2299 82.8675 23.8399 80.0675 26.4799 75.8775M14.4799 89.8675C25.6599 90.3075 24.8699 80.7075 29.4899 77.1475M18.5499 92.7075C22.6699 89.7875 24.3099 83.0475 28.5199 78.1975M19.1499 99.5075C22.9299 93.3275 25.4499 86.0875 41.6599 73.3375M19.9199 98.0475C24.8299 93.9175 25.9799 89.5975 39.5299 74.4875M24.4099 104.548C22.7999 99.7975 27.8599 95.1575 41.2299 79.5575M20.3499 101.988C26.9099 96.8875 30.7699 91.0775 39.1599 79.7475M23.7099 108.218C28.0199 93.3575 39.2299 89.3575 40.6299 80.7775M21.9499 107.108C30.6499 101.258 35.3099 92.0875 43.3599 81.9475M29.5999 104.778C33.1999 99.5075 39.6499 93.2175 48.4399 81.2775M27.2699 106.698C32.0399 98.7575 39.0399 92.8575 46.3599 85.7375M35.9999 106.208C40.9399 102.538 45.2499 95.4575 47.6399 89.5875M35.3299 104.408C37.7699 97.9375 42.7499 92.8975 48.0799 90.0375" stroke="#868E96" stroke-width="0.5" stroke-linecap="round"/>
<path d="M27.2299 76.5675C29.9399 75.0475 32.9199 73.5075 35.5899 74.4775C38.2599 75.4375 41.8699 79.0175 43.2799 82.3375C44.6799 85.6575 45.0099 91.0875 44.0199 94.3975C43.0399 97.7075 40.1199 100.548 37.3799 102.188C34.6499 103.828 30.3099 104.028 27.6199 104.228C24.9399 104.438 23.2299 105.608 21.2899 103.418C19.3499 101.228 16.6699 94.7375 15.9999 91.0775C15.3199 87.4175 14.3599 83.7075 17.2299 81.4675C20.0999 79.2175 28.9599 76.9175 33.2299 77.6175C37.4899 78.3075 42.4799 85.7675 42.8199 85.6375M37.9999 75.5175C40.6899 77.1375 43.3999 80.8575 44.2699 84.0975C45.1299 87.3275 45.0799 91.3075 43.1999 94.9175C41.3199 98.5175 36.0899 104.228 32.9899 105.718C29.8799 107.198 26.5199 104.488 24.5399 103.818C22.5699 103.148 22.6399 104.488 21.1299 101.688C19.6199 98.8875 15.1199 90.7575 15.4799 87.0275C15.8299 83.2875 21.2199 80.8975 23.2699 79.2875C25.3199 77.6775 25.0199 77.3375 27.7599 77.3575C30.5099 77.3675 37.8199 79.4275 39.7299 79.3875C41.6299 79.3375 39.2999 77.0775 39.1999 77.1075" stroke="black" stroke-linecap="round"/>
<path d="M14.1135 132.42C20.4835 127.15 24.7035 128.09 28.5035 124.66M16.3235 134.68C18.0935 130.79 22.1235 128.87 26.8635 122.38M15.8535 141.72C25.0435 132.46 24.1635 128.41 29.9335 123.24M18.6935 139.25C23.5535 133.01 24.5835 127.77 30.9835 122.39M23.7235 140.71C27.5435 133.15 30.2735 133.45 33.7735 120.74M22.2635 142.83C27.6835 134.24 32.8935 131.57 34.9235 122.58M26.9935 142.24C32.4035 136.74 37.9435 133.45 38.9735 123.93M24.4335 146.64C29.3135 140.45 33.4835 131.53 39.1635 128.65M28.8935 146.04C27.6635 143.87 37.3035 133.44 40.5935 128.69M27.7835 150.05C31.5035 145.58 31.9235 140.62 41.7635 128.53M28.2135 151.85C31.0935 150.12 32.9635 145.29 41.4835 131.42M30.1335 150.3C32.8735 146.77 37.6535 139.82 45.9435 132.86M39.2935 147.85C41.1135 146.44 41.0135 143.62 44.1735 140.16M38.2935 146.03C39.8935 143.53 42.2935 141.52 44.4235 139.77" stroke="#868E96" stroke-width="0.5" stroke-linecap="round"/>
<path d="M28.3535 121.45C30.5035 120.45 32.4935 121.77 34.7435 123.22C36.9935 124.67 40.2735 127.54 41.8635 130.16C43.4535 132.77 44.9235 136.18 44.2935 138.91C43.6635 141.64 40.7435 144.45 38.0835 146.55C35.4135 148.64 30.7535 151.56 28.3035 151.48C25.8435 151.39 25.3335 148.65 23.3735 146.04C21.4135 143.42 17.1935 139.26 16.5535 135.79C15.9035 132.31 16.5135 127.53 19.5135 125.17C22.5135 122.81 31.1435 121.87 34.5435 121.63C37.9535 121.39 40.3335 123.53 39.9235 123.75M24.5935 122.52C26.9535 121.56 30.5835 122.21 33.1435 122.82C35.7035 123.44 38.0435 123.83 39.9635 126.24C41.8835 128.65 45.0835 133.31 44.6535 137.29C44.2235 141.28 39.3135 148.04 37.3935 150.13C35.4835 152.23 35.9635 149.95 33.1735 149.88C30.3735 149.8 23.1235 151.91 20.6435 149.69C18.1635 147.47 17.9835 139.93 18.2935 136.56C18.5935 133.2 20.7635 131.84 22.4635 129.5C24.1535 127.16 27.8635 123.55 28.4635 122.53C29.0535 121.51 26.1235 123.57 26.0135 123.39" stroke="black" stroke-linecap="round"/>
<path d="M17.2809 178.517C19.2009 175.767 26.1809 171.207 29.3209 165.827M19.1209 177.227C20.9509 175.417 24.3809 170.657 27.4709 168.537M23.4109 185.187C22.0409 176.267 26.0709 173.557 33.4909 166.127M20.8109 184.007C22.6409 176.687 25.5309 173.427 32.5909 167.187M21.1909 187.917C26.5509 177.227 39.7709 167.387 36.2909 167.177M23.3109 188.047C26.6709 180.927 35.9609 170.377 38.1309 166.987M21.0509 193.887C26.2109 188.427 33.6809 179.577 39.1209 170.807M25.4509 190.907C31.3009 182.877 34.3509 177.397 43.8409 169.287M23.1809 190.967C32.2409 189.047 33.0809 181.107 44.2809 167.877M27.1909 196.627C31.7909 187.427 35.8209 182.577 44.1209 169.687M31.2509 193.427C38.2609 186.407 42.1709 180.437 44.7809 177.647M29.7009 193.317C35.6609 188.617 38.1909 187.187 46.2209 175.547M40.0309 193.487C42.2709 189.317 42.8309 186.857 47.7309 184.657M37.8409 191.027C41.2009 187.517 45.1609 184.877 47.2709 181.507" stroke="#868E96" stroke-width="0.5" stroke-linecap="round"/>
<path d="M36.9009 163.277C39.5609 163.777 43.4009 167.377 44.9809 170.577C46.5509 173.787 47.1209 179.167 46.3209 182.517C45.5309 185.867 42.8209 188.857 40.2109 190.667C37.6009 192.487 33.3309 192.967 30.6509 193.407C27.9709 193.837 26.1709 195.297 24.1109 193.277C22.0509 191.257 19.1509 184.917 18.2909 181.297C17.4209 177.677 17.7409 174.007 18.9209 171.557C20.1009 169.107 21.6109 167.017 25.3709 166.607C29.1309 166.197 38.4509 168.377 41.4909 169.087C44.5309 169.787 43.8009 171.037 43.6309 170.837M25.6909 164.587C27.8909 162.437 31.9509 160.727 34.1109 161.447C36.2709 162.157 37.1109 166.487 38.6409 168.877C40.1709 171.267 42.2009 172.177 43.3009 175.777C44.3909 179.377 46.6609 187.657 45.2109 190.497C43.7609 193.347 37.2309 192.217 34.6109 192.857C32.0009 193.497 32.0809 194.897 29.5109 194.337C26.9409 193.787 20.5509 192.257 19.1909 189.517C17.8309 186.777 20.2709 181.777 21.3509 177.897C22.4409 174.027 24.8509 167.937 25.7009 166.277C26.5409 164.627 26.7109 167.447 26.4209 167.957" stroke="black" stroke-linecap="round"/>
<path d="M18.2874 219.157C22.5674 219.617 24.8774 217.497 24.3674 212.817M16.8974 221.337C21.2574 218.737 22.4374 216.387 27.2774 210.627M21.7374 224.727C19.6974 221.767 23.8474 218.967 32.4074 210.087M20.5674 225.297C22.2674 218.937 28.0374 214.367 33.4674 212.947M22.1474 228.527C23.9474 229.717 26.5874 217.637 36.8674 215.757M22.2674 229.547C27.1574 226.847 28.6174 218.237 36.6774 212.587M26.3474 232.557C32.3074 228.637 34.8674 217.327 40.8974 216.507M23.3574 236.007C26.0674 228.317 31.3074 226.047 39.3774 215.417M20.9974 240.227C30.1874 230.197 33.3174 225.747 37.0474 218.417M26.6574 239.607C27.2974 233.727 32.2374 227.637 38.8574 220.467M25.5574 245.407C29.1574 238.577 33.7974 229.067 43.5374 220.977M25.4474 243.607C28.5074 238.457 34.8974 234.197 41.4374 222.447M37.1574 241.747C37.8874 235.907 40.9074 232.817 47.9574 229.167M33.8874 238.947C36.9774 236.637 41.2374 232.627 43.7574 225.987" stroke="#868E96" stroke-width="0.5" stroke-linecap="round"/>
<path d="M37.5674 215.407C39.3874 217.427 41.8074 221.347 42.6174 224.267C43.4374 227.187 43.8274 230.547 42.4374 232.907C41.0474 235.267 37.3374 237.217 34.2874 238.437C31.2374 239.667 26.4274 241.307 24.1474 240.257C21.8674 239.217 21.9174 235.387 20.6074 232.167C19.2974 228.947 16.0974 224.387 16.2774 220.947C16.4474 217.507 18.9974 213.147 21.6574 211.517C24.3174 209.887 28.3574 209.447 32.2374 211.187C36.1074 212.927 43.2574 218.597 44.8874 221.967C46.5174 225.337 42.6374 231.687 42.0274 231.397M29.8074 211.617C32.4274 211.257 35.3674 211.027 37.8174 212.997C40.2674 214.957 44.2974 219.357 44.5174 223.417C44.7374 227.467 40.5874 234.667 39.1374 237.317C37.6774 239.967 38.5174 238.617 35.7774 239.327C33.0374 240.027 25.5674 243.117 22.7074 241.537C19.8574 239.957 18.9774 232.997 18.6474 229.827C18.3174 226.667 19.6474 225.217 20.7574 222.537C21.8574 219.867 23.4974 215.517 25.2874 213.797C27.0774 212.087 30.2274 212.967 31.4974 212.237C32.7674 211.497 32.6174 209.287 32.8874 209.397" stroke="black" stroke-linecap="round"/>
<path d="M70.5093 216.679L474.479 216.709L476.509 249.849L70.7893 245.499" fill="#CED4DA"/>
<path d="M71.4393 216.169C172.019 214.449 269.029 218.309 478.339 215.359M70.9393 215.299C222.929 212.409 374.179 212.319 476.919 215.409M479.889 219.589C475.659 222.119 476.939 226.779 476.539 244.739M475.069 217.579C476.939 227.609 476.859 237.339 477.409 246.659M478.369 244.919C380.569 248.729 289.329 247.669 70.9393 248.429M475.859 247.709C345.099 243.319 215.629 243.519 72.9693 246.649M73.0193 248.419C70.1993 239.369 72.3193 226.069 71.3093 213.439M73.3593 247.469C71.5393 234.459 71.3293 223.909 72.4093 216.749" stroke="black" stroke-linecap="round"/>
<path d="M72.1769 255.986C73.7769 254.326 74.4169 252.906 77.4069 249.206M73.1269 255.916C73.4469 253.696 75.6969 251.246 78.3869 248.906M73.2569 259.136C73.0869 258.996 75.4669 254.996 83.2169 246.906M72.8769 261.846C74.2569 258.086 80.1169 254.866 83.4969 250.336M71.6369 266.506C75.1769 267.136 82.2769 263.536 89.5569 251.976M72.9769 269.296C75.1769 260.976 83.0169 258.146 87.4069 248.906M73.6569 273.166C79.1769 267.696 84.4369 259.926 93.6169 248.596M72.6969 271.396C77.2669 268.986 83.8069 260.906 92.5169 249.386M73.2269 280.576C78.7369 271.696 82.7469 267.076 95.9069 248.136M73.9269 279.306C78.9269 273.376 85.4069 265.906 97.8169 248.676M69.7669 284.386C85.8569 269.706 93.8369 260.666 103.477 251.096M73.5869 287.756C85.6969 270.746 95.3469 260.776 103.847 250.476M72.6369 289.936C81.6869 281.026 96.5269 266.706 106.937 250.486M72.5869 292.676C82.0769 280.186 91.9169 272.306 110.367 250.876M74.0169 295.536C90.7569 280.276 100.067 265.026 115.917 247.516M73.3969 295.846C89.3469 281.196 100.917 266.546 116.497 247.356M77.7869 298.656C91.2669 282.806 104.037 269.676 120.117 247.346M77.4469 296.486C95.0269 276.836 109.977 259.796 118.347 248.046M83.9169 293.586C96.8969 279.406 111.077 263.376 124.737 250.866M82.2369 298.176C96.8769 283.756 107.187 272.326 125.127 248.736M89.9469 296.246C98.7069 286.736 107.187 273.136 127.547 250.406M87.3869 299.196C101.307 285.206 111.197 269.076 132.767 250.056M97.2069 294.056C108.087 287.956 114.757 275.936 138.337 245.516M93.4969 295.656C108.937 280.866 123.127 263.026 136.077 250.616M95.7969 297.616C113.727 286.696 121.247 271.716 139.947 246.706M99.7569 298.626C113.657 282.736 128.067 263.666 142.317 248.086M108.117 300.506C122.107 279.256 134.117 263.036 147.757 251.206M104.117 295.226C113.887 285.076 125.397 273.616 147.377 248.336M109.857 299.006C128.397 277.646 141.287 264.716 154.667 246.696M108.857 297.836C123.147 283.426 133.467 269.796 153.367 250.596M113.497 299.866C133.157 275.406 150.357 261.166 158.637 251.076M116.737 297.116C125.787 286.086 134.307 278.036 156.747 248.536M121.297 300.046C133.867 283.626 144.547 266.076 163.667 252.186M120.627 299.226C130.987 283.776 143.797 272.506 161.977 247.406M128.147 295.206C136.307 279.726 157.917 265.266 167.277 247.606M126.997 299.626C137.987 284.836 149.627 271.446 169.597 249.166M133.877 295.726C141.287 288.796 152.237 280.126 169.547 248.356M132.747 296.496C145.677 279.336 163.317 263.536 173.897 249.616M139.487 294.696C150.677 281.476 170.347 259.976 176.587 246.676M138.207 296.106C149.617 284.406 160.667 268.236 179.017 247.496M142.027 300.426C153.287 282.386 168.567 268.216 185.537 251.776M142.547 298.666C150.517 287.386 158.797 275.346 184.567 249.656M143.577 300.166C159.227 286.506 167.957 270.266 187.437 250.296M145.407 299.496C161.077 283.896 175.537 267.586 189.117 248.866M154.767 299.886C166.867 284.396 182.507 267.336 195.467 246.376M151.047 298.076C163.587 282.046 173.977 270.276 195.107 249.246M155.767 296.036C171.227 288.396 178.107 277.546 201.287 245.576M157.967 299.256C165.547 286.186 175.507 278.166 197.697 247.646M163.767 299.246C172.857 286.246 184.757 276.196 201.827 247.456M162.987 298.346C175.277 283.146 188.277 268.986 204.327 247.456M170.017 298.126C181.607 279.966 192.397 268.106 208.287 249.266M166.947 298.206C181.617 279.326 196.597 264.306 208.257 247.806M175.307 298.986C190.477 276.126 210.767 254.856 217.687 245.716M174.757 298.436C183.837 285.596 193.877 273.226 216.737 248.636M174.937 297.616C191.057 279.846 202.937 269.876 221.827 248.736M177.097 296.456C188.537 286.206 202.457 272.106 220.617 247.856M186.287 294.986C197.947 284.646 204.137 271.686 226.797 247.216M186.467 296.626C195.157 286.746 203.637 273.216 226.507 250.446M185.737 301.066C205.137 284.466 218.917 265.976 229.957 250.746M190.857 299.416C203.817 280.136 217.337 266.256 230.327 249.626M192.237 294.496C203.097 284.516 211.597 280.786 239.477 249.376M193.867 298.476C210.737 279.436 222.487 262.256 237.517 247.896M196.267 298.416C209.677 285.656 216.687 281.356 243.317 249.406M200.337 297.826C216.287 280.886 228.387 261.736 240.607 250.256M203.337 300.146C220.397 280.866 237.297 263.916 244.717 249.026M204.457 296.896C216.487 287.476 223.597 275.686 247.337 249.266M210.997 294.976C219.377 285.006 237.637 272.166 255.197 250.216M211.367 295.736C223.447 283.596 236.157 267.726 254.347 250.206M220.347 293.916C226.757 280.936 246.137 265.846 258.097 250.346M217.367 296.076C229.387 283.546 241.347 266.666 259.217 248.176M221.027 295.426C230.077 286.206 242.427 278.396 265.517 246.056M219.447 298.506C233.787 279.896 249.377 267.046 262.147 249.236M226.697 293.186C241.667 279.026 254.357 265.366 265.847 248.896M227.457 295.536C240.697 279.696 255.717 264.396 270.077 247.536M228.067 295.836C239.277 285.076 253.927 275.906 272.787 249.166M233.747 296.806C239.657 286.816 252.557 274.076 274.287 250.426M235.747 295.466C246.497 288.156 254.587 272.696 280.817 247.606M236.587 298.876C248.827 282.996 259.027 270.886 278.557 247.596M244.477 299.636C256.207 277.446 277.677 263.036 282.187 251.176M241.147 298.626C258.617 281.456 272.987 262.806 284.737 248.176M245.467 299.366C258.367 287.656 267.047 277.536 286.457 248.786M248.307 298.696C257.517 286.556 265.277 272.846 288.957 249.896M253.207 293.636C267.717 282.316 275.397 269.316 297.487 247.076M254.207 297.266C261.467 283.386 274.367 275.096 295.157 248.186M258.497 301.136C271.707 287.676 280.537 279.036 300.887 246.126M259.847 297.236C270.587 283.936 281.777 268.306 299.277 249.296M263.877 296.016C278.487 280.086 287.557 267.836 305.097 251.246M263.187 295.326C277.017 281.916 292.737 262.816 306.877 247.466M268.727 299.656C278.727 280.826 296.817 267.176 312.167 249.446M268.807 299.246C280.957 285.196 292.527 273.806 312.557 250.726M272.697 300.356C286.447 283.566 294.037 273.806 314.057 249.436M276.007 296.746C289.127 279.786 302.367 264.686 316.927 250.346M276.707 297.166C295.257 283.166 308.877 264.426 320.937 249.666M280.467 296.806C294.357 281.056 312.407 262.046 323.477 250.166M286.507 299.566C300.487 283.356 313.807 265.646 324.017 246.766M286.307 298.736C292.797 284.806 301.817 277.676 326.047 248.476M289.597 299.286C304.107 286.096 315.807 269.006 328.537 247.356M291.797 297.316C300.207 285.686 310.727 274.516 330.447 251.156M298.777 293.976C307.127 286.466 314.027 278.286 341.267 251.736M297.397 295.866C312.217 277.276 328.367 258.766 338.617 248.796M297.167 299.026C307.857 284.276 320.127 274.176 339.547 249.686M299.447 299.466C315.587 280.826 327.197 267.456 342.207 249.826M305.617 299.256C318.327 282.336 331.837 264.876 346.717 252.206M306.257 295.986C322.367 281.166 336.897 263.746 346.737 249.596M311.827 300.746C318.057 290.076 332.487 276.486 353.187 247.236M311.757 297.286C329.087 277.956 344.037 261.066 353.197 247.576M313.737 298.486C335.147 276.836 347.617 260.686 359.887 247.446M315.597 296.276C329.757 284.946 339.727 270.716 358.197 248.436M320.617 296.206C338.417 282.716 355.637 261.586 363.307 245.936M320.777 296.106C331.477 283.986 342.527 273.056 363.547 247.156M324.487 298.086C337.477 287.256 348.317 275.536 366.947 248.056M325.777 295.216C345.837 278.176 362.877 257.736 368.457 250.206M333.187 296.526C346.237 286.396 355.877 274.716 374.377 251.096M334.197 296.556C341.447 284.566 349.307 276.176 375.067 248.616M341.837 295.866C358.517 281.326 370.737 261.436 376.677 252.056M338.867 296.606C357.227 278.116 371.137 258.356 380.667 247.116M341.837 300.196C360.157 282.156 373.957 263.176 385.487 251.396M343.447 298.586C352.747 287.496 362.177 274.656 387.247 249.306M347.717 297.776C363.607 280.676 377.397 261.106 388.487 244.796M349.947 298.306C359.127 288.786 367.127 277.896 389.677 246.696M353.447 301.106C371.137 280.456 389.327 256.626 398.377 250.906M355.607 297.486C362.677 285.946 375.047 273.756 397.287 247.906M360.677 298.866C373.067 278.236 390.077 263.456 400.407 247.046M357.787 297.236C371.687 282.056 383.607 265.476 402.017 247.746M365.577 296.486C375.037 283.826 385.457 270.386 409.367 245.046M365.457 295.816C375.697 283.536 385.577 272.836 408.047 248.396M367.897 295.826C385.447 283.226 395.917 265.056 409.097 250.916M368.827 297.876C384.357 280.556 398.107 262.106 411.907 248.436M374.377 294.966C390.287 280.566 400.727 270.146 417.447 252.646M375.467 295.476C390.317 279.976 402.397 265.366 416.097 248.076M383.837 299.956C394.907 283.866 405.577 267.206 425.177 252.666M379.907 297.286C395.977 283.566 406.387 266.946 420.587 250.956M382.627 300.536C397.867 281.746 410.817 271.596 424.207 251.876M387.787 297.666C397.837 283.076 411.097 270.216 427.687 249.556M393.617 297.946C407.357 279.276 420.427 265.656 435.877 249.656M389.507 297.826C409.237 277.946 425.947 259.076 430.977 250.576M399.727 296.586C406.337 282.496 426.567 266.426 441.857 252.306M396.277 298.906C407.477 285.396 416.167 277.036 438.747 248.766M400.937 299.866C411.137 283.976 427.487 275.306 441.077 252.886M401.817 299.156C413.317 281.476 427.627 269.146 443.677 248.116M409.727 293.856C425.287 281.756 434.937 259.716 445.257 246.866M406.447 299.016C418.217 284.266 432.757 270.206 450.907 246.936M412.157 299.136C423.297 278.656 438.417 264.086 455.927 251.976M410.717 298.276C427.467 278.486 442.507 259.916 455.687 250.986M419.277 298.466C433.957 283.186 448.107 261.196 459.877 251.876M419.527 297.146C429.587 284.446 440.387 268.546 459.477 250.606M420.237 296.586C434.357 286.136 448.897 274.116 462.207 247.946M423.757 297.476C430.037 284.986 439.917 275.336 463.637 249.876M425.667 295.916C436.597 289.216 446.397 272.936 473.807 251.006M428.417 295.756C439.427 284.106 454.187 268.606 469.457 247.646M436.777 300.386C442.237 282.986 458.147 270.716 472.337 245.136M434.197 296.366C447.407 280.486 463.567 263.016 475.877 250.796M440.797 299.086C451.397 282.216 464.027 266.026 476.447 252.846M437.707 296.596C446.247 286.866 457.857 274.086 478.217 248.746M443.997 294.106C450.817 289.286 464.747 278.906 482.777 258.866M444.977 295.866C452.977 285.656 465.137 272.986 477.877 258.646M451.197 300.216C458.897 283.786 461.717 275.406 476.637 265.616M447.687 296.766C461.117 286.176 469.807 274.476 477.607 262.176M450.737 300.666C462.437 289.526 470.417 282.126 481.817 265.236M452.707 298.226C462.787 289.236 467.897 281.716 479.977 267.026M458.027 294.926C468.677 288.356 466.887 283.336 480.827 275.076M458.307 296.636C464.707 288.916 470.837 286.516 480.187 275.686M468.487 294.396C468.757 289.656 478.267 282.386 481.687 282.206M463.717 298.976C468.057 290.456 475.527 284.266 481.527 279.376M468.947 298.586C473.657 292.606 476.777 294.766 479.077 287.146M469.067 296.986C474.487 292.106 476.667 288.436 480.537 287.126M476.697 297.216C476.397 295.016 478.437 294.766 479.477 294.246M475.357 297.716C477.177 296.376 477.767 294.626 479.567 293.066" stroke="#CED4DA" stroke-width="0.5" stroke-linecap="round"/>
<path d="M74.3169 248.116C180.907 248.266 287.787 247.986 478.077 250.646M71.6269 249.306C164.407 246.076 253.907 246.686 478.137 248.796M476.107 251.046C478.227 260.406 476.317 269.086 480.467 295.866M477.027 247.266C479.427 263.696 476.957 283.676 478.327 298.056M478.397 299.226C383.457 291.726 289.567 292.146 74.3969 295.026M476.987 297.016C370.227 298.466 262.737 298.736 73.3369 296.226M68.8569 294.346C70.4769 275.406 73.0569 263.246 71.7969 249.476M74.2069 297.056C73.3569 277.386 70.2969 260.626 73.8069 248.616" stroke="black" stroke-linecap="round"/>
<path d="M72.6265 72.8907V87.4362H70.8652V72.8907H72.6265ZM77.607 80.8737V87.4362H75.9309V76.5271H77.5502V78.2316H77.6922C77.9479 77.6776 78.3362 77.2326 78.857 76.8964C79.3779 76.5555 80.0502 76.385 80.8741 76.385C81.6127 76.385 82.259 76.5365 82.813 76.8396C83.367 77.1379 83.7978 77.5924 84.1056 78.2032C84.4134 78.8093 84.5672 79.5763 84.5672 80.5043V87.4362H82.8911V80.618C82.8911 79.761 82.6686 79.0934 82.2235 78.6151C81.7784 78.1322 81.1676 77.8907 80.3911 77.8907C79.8561 77.8907 79.3779 78.0067 78.9564 78.2387C78.5398 78.4707 78.2107 78.8093 77.9692 79.2543C77.7278 79.6994 77.607 80.2392 77.607 80.8737ZM92.4881 76.5271V77.9475H86.6074V76.5271H92.4881ZM88.3687 87.4362V75.0214C88.3687 74.3964 88.5155 73.8756 88.8091 73.4589C89.1026 73.0422 89.4838 72.7297 89.9525 72.5214C90.4213 72.3131 90.9161 72.2089 91.4369 72.2089C91.8488 72.2089 92.185 72.242 92.4454 72.3083C92.7059 72.3746 92.9 72.4362 93.0278 72.493L92.5449 73.9418C92.4596 73.9134 92.3413 73.8779 92.1898 73.8353C92.043 73.7927 91.8488 73.7714 91.6074 73.7714C91.0534 73.7714 90.6533 73.9111 90.4071 74.1904C90.1656 74.4698 90.0449 74.8793 90.0449 75.4191V87.4362H88.3687ZM98.8197 87.6634C97.8349 87.6634 96.9708 87.4291 96.2274 86.9603C95.4888 86.4916 94.9111 85.8358 94.4944 84.993C94.0825 84.1502 93.8765 83.1653 93.8765 82.0384C93.8765 80.9021 94.0825 79.9101 94.4944 79.0626C94.9111 78.215 95.4888 77.5569 96.2274 77.0881C96.9708 76.6194 97.8349 76.385 98.8197 76.385C99.8046 76.385 100.666 76.6194 101.405 77.0881C102.148 77.5569 102.726 78.215 103.138 79.0626C103.555 79.9101 103.763 80.9021 103.763 82.0384C103.763 83.1653 103.555 84.1502 103.138 84.993C102.726 85.8358 102.148 86.4916 101.405 86.9603C100.666 87.4291 99.8046 87.6634 98.8197 87.6634ZM98.8197 86.1577C99.5678 86.1577 100.183 85.966 100.666 85.5825C101.149 85.1989 101.507 84.6947 101.739 84.0697C101.971 83.4447 102.087 82.7676 102.087 82.0384C102.087 81.3093 101.971 80.6298 101.739 80.0001C101.507 79.3703 101.149 78.8613 100.666 78.4731C100.183 78.0848 99.5678 77.8907 98.8197 77.8907C98.0716 77.8907 97.4561 78.0848 96.9731 78.4731C96.4902 78.8613 96.1327 79.3703 95.9007 80.0001C95.6687 80.6298 95.5527 81.3093 95.5527 82.0384C95.5527 82.7676 95.6687 83.4447 95.9007 84.0697C96.1327 84.6947 96.4902 85.1989 96.9731 85.5825C97.4561 85.966 98.0716 86.1577 98.8197 86.1577Z" fill="black"/>
<path d="M75.5979 196.848V182.303H77.3592V188.78H85.1149V182.303H86.8763V196.848H85.1149V190.343H77.3592V196.848H75.5979ZM90.1753 196.848V185.939H91.8514V196.848H90.1753ZM91.0275 184.121C90.7008 184.121 90.4191 184.01 90.1824 183.787C89.9504 183.565 89.8344 183.297 89.8344 182.985C89.8344 182.672 89.9504 182.405 90.1824 182.182C90.4191 181.96 90.7008 181.848 91.0275 181.848C91.3542 181.848 91.6336 181.96 91.8656 182.182C92.1023 182.405 92.2207 182.672 92.2207 182.985C92.2207 183.297 92.1023 183.565 91.8656 183.787C91.6336 184.01 91.3542 184.121 91.0275 184.121ZM102.649 188.382L101.143 188.808C101.048 188.558 100.909 188.314 100.724 188.077C100.544 187.835 100.298 187.637 99.9853 187.48C99.6728 187.324 99.2727 187.246 98.785 187.246C98.1174 187.246 97.561 187.4 97.116 187.708C96.6756 188.011 96.4554 188.397 96.4554 188.865C96.4554 189.282 96.607 189.611 96.91 189.853C97.213 190.094 97.6865 190.295 98.3304 190.456L99.9498 190.854C100.925 191.091 101.652 191.453 102.13 191.941C102.608 192.424 102.847 193.046 102.847 193.808C102.847 194.433 102.668 194.992 102.308 195.485C101.953 195.977 101.455 196.365 100.816 196.649C100.177 196.933 99.4337 197.076 98.5861 197.076C97.4734 197.076 96.5525 196.834 95.8233 196.351C95.0942 195.868 94.6325 195.163 94.4384 194.235L96.0293 193.837C96.1808 194.424 96.4673 194.864 96.8887 195.158C97.3148 195.451 97.8712 195.598 98.5577 195.598C99.339 195.598 99.9592 195.433 100.419 195.101C100.883 194.765 101.115 194.362 101.115 193.894C101.115 193.515 100.982 193.198 100.717 192.942C100.452 192.682 100.044 192.487 99.4952 192.36L97.677 191.933C96.678 191.697 95.9441 191.33 95.4753 190.833C95.0113 190.331 94.7793 189.703 94.7793 188.951C94.7793 188.335 94.9521 187.791 95.2978 187.317C95.6482 186.844 96.124 186.472 96.7253 186.202C97.3314 185.932 98.018 185.797 98.785 185.797C99.8645 185.797 100.712 186.034 101.328 186.507C101.948 186.981 102.388 187.606 102.649 188.382ZM110.115 185.939V187.36H104.461V185.939H110.115ZM106.109 183.326H107.785V193.723C107.785 194.197 107.854 194.552 107.991 194.789C108.133 195.021 108.313 195.177 108.531 195.257C108.754 195.333 108.988 195.371 109.234 195.371C109.419 195.371 109.57 195.362 109.689 195.343C109.807 195.319 109.902 195.3 109.973 195.286L110.314 196.791C110.2 196.834 110.042 196.877 109.838 196.919C109.634 196.967 109.376 196.99 109.064 196.99C108.59 196.99 108.126 196.889 107.672 196.685C107.222 196.481 106.848 196.171 106.55 195.755C106.256 195.338 106.109 194.812 106.109 194.178V183.326ZM116.951 197.076C115.966 197.076 115.102 196.841 114.359 196.372C113.62 195.904 113.042 195.248 112.626 194.405C112.214 193.562 112.008 192.577 112.008 191.451C112.008 190.314 112.214 189.322 112.626 188.475C113.042 187.627 113.62 186.969 114.359 186.5C115.102 186.032 115.966 185.797 116.951 185.797C117.936 185.797 118.797 186.032 119.536 186.5C120.279 186.969 120.857 187.627 121.269 188.475C121.686 189.322 121.894 190.314 121.894 191.451C121.894 192.577 121.686 193.562 121.269 194.405C120.857 195.248 120.279 195.904 119.536 196.372C118.797 196.841 117.936 197.076 116.951 197.076ZM116.951 195.57C117.699 195.57 118.314 195.378 118.797 194.995C119.28 194.611 119.638 194.107 119.87 193.482C120.102 192.857 120.218 192.18 120.218 191.451C120.218 190.721 120.102 190.042 119.87 189.412C119.638 188.782 119.28 188.273 118.797 187.885C118.314 187.497 117.699 187.303 116.951 187.303C116.203 187.303 115.587 187.497 115.104 187.885C114.621 188.273 114.264 188.782 114.032 189.412C113.8 190.042 113.684 190.721 113.684 191.451C113.684 192.18 113.8 192.857 114.032 193.482C114.264 194.107 114.621 194.611 115.104 194.995C115.587 195.378 116.203 195.57 116.951 195.57ZM124.453 196.848V185.939H126.072V187.587H126.186C126.384 187.047 126.744 186.609 127.265 186.273C127.786 185.937 128.373 185.769 129.026 185.769C129.15 185.769 129.303 185.771 129.488 185.776C129.673 185.781 129.812 185.788 129.907 185.797V187.502C129.85 187.487 129.72 187.466 129.517 187.438C129.318 187.405 129.107 187.388 128.884 187.388C128.354 187.388 127.881 187.499 127.464 187.722C127.052 187.94 126.725 188.243 126.484 188.631C126.247 189.014 126.129 189.452 126.129 189.945V196.848H124.453ZM133.306 200.939C133.022 200.939 132.768 200.916 132.546 200.868C132.323 200.826 132.169 200.783 132.084 200.74L132.51 199.263C132.917 199.367 133.277 199.405 133.59 199.377C133.902 199.348 134.179 199.209 134.421 198.958C134.667 198.711 134.892 198.311 135.095 197.757L135.408 196.905L131.374 185.939H133.192L136.203 194.632H136.317L139.328 185.939H141.147L136.516 198.439C136.307 199.003 136.049 199.469 135.742 199.838C135.434 200.212 135.076 200.489 134.669 200.669C134.267 200.849 133.812 200.939 133.306 200.939Z" fill="black"/>
<path d="M67.273 105.598C68.983 104.998 70.143 101.928 73.493 100.418M66.823 105.378C68.533 104.668 69.553 101.688 72.933 100.248M66.903 109.818C67.833 106.448 71.353 105.998 77.843 99.6783M68.863 112.838C68.873 109.218 72.483 105.628 78.013 98.8583M66.393 114.468C70.743 114.098 71.623 108.108 79.353 99.4983M67.483 116.038C73.093 109.868 78.673 105.148 83.883 99.6283M64.823 120.058C72.473 116.048 76.603 111.078 90.383 101.478M65.953 123.528C74.173 117.328 77.873 111.508 90.613 97.7083M70.093 130.888C75.953 118.578 81.903 116.818 94.813 95.8683M66.713 130.628C78.333 118.948 86.583 105.968 94.923 97.6483M70.153 133.788C81.523 124.368 88.063 110.278 100.943 102.458M68.953 134.768C74.693 129.978 79.333 119.718 99.383 99.7083M68.723 138.248C79.773 132.288 92.003 120.168 101.873 102.978M66.043 141.008C81.663 126.088 94.513 111.428 106.263 100.628M64.963 144.928C78.543 133.278 90.303 114.838 110.573 97.3183M66.723 147.098C76.373 135.298 87.863 124.708 109.923 98.5183M63.903 154.638C84.013 138.898 92.933 121.768 112.333 99.7683M66.833 153.178C82.583 139.958 93.673 122.398 114.683 97.6883M68.903 156.628C81.043 144.018 102.763 124.798 123.783 99.2783M67.163 158.618C83.843 139.318 99.773 124.018 119.193 97.5783M67.983 169.538C90.953 143.538 106.353 116.178 129.393 95.7383M69.153 167.598C89.013 141.238 112.103 113.188 126.313 97.5983M70.963 168.418C93.383 145.008 111.553 123.508 132.443 100.188M69.433 168.828C81.363 152.098 95.443 136.788 131.463 98.0083M73.863 172.478C89.723 146.548 109.523 126.088 139.593 99.0783M73.543 171.828C98.343 144.638 120.463 119.328 136.553 100.818M82.093 170.888C94.693 154.648 104.763 139.768 139.803 102.518M80.583 169.408C92.633 155.378 103.533 142.168 142.313 98.6183M88.693 170.708C105.483 148.338 124.083 130.868 144.883 100.548M86.743 170.198C100.473 150.578 113.403 135.938 146.163 99.5083M87.533 172.898C103.533 146.168 122.233 130.668 152.473 95.3583M91.923 171.318C111.393 142.898 134.433 114.748 150.623 99.9083M92.323 172.598C115.763 145.798 143.883 111.748 154.563 97.5683M96.103 171.238C113.443 151.848 130.233 131.228 157.163 97.5183M97.093 171.358C115.483 153.558 134.533 134.798 164.463 102.438M101.233 170.658C118.883 149.898 138.923 127.958 162.603 100.078M103.243 169.378C119.723 153.158 134.653 136.318 169.323 102.168M107.593 169.388C123.603 150.478 139.503 134.658 168.943 98.3683M111.963 169.788C127.103 149.438 139.983 131.168 173.143 102.098M111.643 171.208C133.563 145.528 151.863 122.888 171.773 98.9783M119.323 170.878C139.823 146.868 158.783 120.998 181.233 101.008M118.463 168.758C129.583 156.158 145.553 141.208 178.163 101.278M124.703 170.358C142.733 147.918 162.343 122.958 186.603 100.068M123.563 172.428C146.453 143.598 168.523 121.388 182.313 98.9483M125.823 173.588C144.153 153.358 158.343 140.678 189.723 95.3683M129.293 171.178C145.223 146.058 167.213 125.298 190.793 101.158M135.243 173.848C149.853 148.968 166.543 135.288 194.283 102.428M130.733 169.488C150.973 147.378 172.363 128.998 195.663 97.7083M134.703 169.348C160.513 152.018 173.003 127.378 201.593 101.158M139.343 172.898C160.883 143.438 182.553 115.598 198.153 100.598M142.903 171.668C165.783 147.468 181.413 126.798 203.023 96.1483M144.193 169.208C161.383 153.408 176.373 134.218 206.623 100.958M147.283 174.368C166.683 153.858 182.593 125.468 207.043 100.908M149.093 169.588C164.593 151.238 185.713 133.368 208.853 97.8783M154.363 169.848C179.253 146.088 196.913 116.358 215.693 102.088M152.313 170.148C173.813 147.728 188.693 129.918 213.963 99.3283M158.263 169.748C176.723 148.698 192.133 134.708 219.623 99.7783M160.433 168.878C175.413 152.318 190.343 136.588 220.803 98.9683M167.683 173.048C187.553 146.218 213.433 120.008 222.543 95.7183M164.763 170.498C178.913 150.798 196.673 132.698 227.763 101.118M166.403 170.458C184.893 152.128 202.733 132.068 228.273 101.558M171.183 171.338C187.773 147.178 207.993 127.408 233.243 97.5283M172.293 168.558C193.193 153.478 206.463 132.458 233.203 103.128M176.533 172.178C187.663 156.178 201.333 141.138 237.423 100.338M181.823 170.098C192.063 153.938 209.803 130.368 245.303 100.648M178.473 171.198C198.543 151.348 215.013 131.648 242.713 98.8883M189.023 174.268C209.433 140.158 233.123 118.928 244.653 97.0283M183.903 168.778C209.033 144.398 231.123 117.728 247.623 100.658M194.023 172.898C206.273 154.288 215.973 136.068 250.403 98.0783M190.773 172.418C211.663 145.498 235.013 119.548 255.093 100.088M198.033 166.728C209.063 154.298 226.283 133.818 257.283 100.778M196.503 169.578C217.343 144.898 235.803 123.558 258.403 99.4683M203.873 169.678C222.653 150.128 235.063 127.758 262.633 101.518M199.843 172.608C218.813 148.168 237.153 130.168 265.543 97.8383M210.903 169.088C225.773 148.958 247.603 121.828 266.843 100.358M205.253 171.548C226.083 145.708 246.393 122.838 269.083 99.8283M215.613 169.938C235.533 147.668 251.733 122.868 276.413 101.248M212.763 171.078C230.193 150.038 249.383 129.978 274.543 100.548M214.563 171.128C242.503 144.988 256.183 124.808 280.443 100.338M218.383 171.338C234.753 146.818 252.583 129.018 278.303 98.4783M220.883 169.748C245.833 141.408 265.283 118.468 285.573 102.168M223.923 168.838C238.993 152.308 256.913 132.618 283.913 100.308M227.313 169.268C244.383 148.318 260.203 133.608 292.583 99.9583M229.443 169.298C244.493 153.968 258.783 136.418 292.013 97.8583M230.673 167.848C256.543 146.088 272.753 129.438 299.293 99.8183M235.033 172.568C254.223 146.168 276.523 119.318 296.733 96.9083M242.863 166.528C251.463 158.668 264.653 139.288 301.143 101.048M237.283 169.448C257.963 152.438 272.263 131.858 299.493 98.0983M243.353 173.568C262.033 150.598 274.943 138.018 309.473 97.1083M243.103 170.638C259.833 149.378 277.593 129.058 304.793 98.5583M245.593 173.338C262.163 151.078 278.893 138.478 307.363 100.098M249.443 172.268C269.583 148.938 292.983 124.558 309.313 101.008M252.683 166.888C270.183 152.478 282.273 140.098 317.363 101.308M256.463 169.108C276.403 141.938 299.303 119.408 315.133 98.9183M261.253 172.458C279.433 148.518 302.363 126.628 323.873 96.1883M260.693 171.658C283.043 145.418 306.583 118.888 321.373 98.0783M263.773 170.408C281.073 149.238 296.903 131.538 329.623 96.5983M266.753 171.738C278.833 153.878 292.243 135.638 326.143 97.5683M273.013 171.548C286.443 151.378 304.433 128.988 334.673 99.0483M269.193 171.458C284.613 152.208 298.823 138.058 330.863 98.5083M277.123 169.338C297.153 144.268 319.233 127.368 336.923 96.9883M276.933 171.968C288.863 155.808 302.283 136.788 338.183 101.048M280.053 168.158C297.563 151.048 312.383 139.748 343.123 97.0183M279.053 170.448C294.543 150.638 311.243 134.928 344.303 97.1583M288.603 167.528C301.333 152.618 317.863 135.808 345.343 99.1583M285.263 168.898C305.153 148.588 326.713 124.538 348.923 99.5783M288.923 174.428C308.953 146.198 329.073 126.838 355.983 97.0683M291.693 171.098C309.223 149.988 325.623 130.138 355.533 98.5983M297.473 171.458C310.003 154.748 319.593 141.478 360.303 98.3683M297.323 171.368C310.093 152.918 325.133 136.788 357.363 99.0583M305.573 169.158C324.813 148.098 346.853 123.568 367.383 100.808M301.843 171.558C327.233 141.468 351.403 114.978 365.693 97.0783M306.353 174.208C331.373 140.298 354.723 111.678 370.623 96.5483M306.013 169.858C327.523 149.738 346.783 129.128 367.783 101.078M311.303 169.738C326.613 153.778 337.173 139.528 374.803 96.4383M313.553 169.688C336.893 142.838 360.353 116.798 375.223 100.528M321.233 171.508C327.443 154.978 342.103 141.928 380.493 102.218M319.533 168.558C331.833 157.718 341.323 139.638 381.803 98.9283M326.793 168.208C345.733 148.548 360.673 127.978 387.123 98.8083M324.193 170.998C341.313 148.808 360.493 124.668 383.903 98.5783M327.483 169.698C348.713 151.328 363.093 132.718 393.453 98.5483M329.393 169.348C344.533 149.308 365.723 129.658 390.343 97.5683M332.123 171.238C355.083 148.478 375.933 122.458 392.593 101.408M332.423 168.708C357.153 142.478 382.923 116.818 394.803 98.5383M337.873 169.758C363.643 144.728 379.393 117.718 404.463 99.3083M338.423 171.778C364.873 142.968 384.923 117.088 401.643 97.6583M346.723 168.098C367.523 143.568 387.843 122.558 406.833 100.308M346.233 171.738C369.243 145.408 390.963 117.738 406.323 97.4083M352.503 167.268C368.343 155.418 380.433 134.808 415.813 100.908M348.773 169.118C370.833 143.958 393.763 118.668 413.243 99.5383M357.393 170.698C380.653 143.568 400.103 116.018 416.193 102.998M354.923 168.678C371.253 152.268 390.123 130.008 415.503 98.6283M358.883 168.468C377.893 147.488 403.623 122.448 421.203 98.3883M361.893 168.278C374.523 154.538 388.443 136.108 424.013 99.2383M366.323 173.578C389.063 148.858 403.623 125.088 428.343 101.318M365.103 171.788C380.723 155.938 395.823 138.598 428.673 101.058M371.223 166.948C384.213 153.968 401.763 134.198 429.683 101.408M369.893 170.658C390.643 149.188 407.483 128.978 434.113 100.478M375.073 169.888C400.513 144.498 420.263 119.588 436.393 99.9783M376.693 169.058C391.253 154.708 403.493 139.968 437.523 99.5283M385.093 172.668C398.343 148.718 419.743 123.518 441.703 102.238M382.163 169.048C399.873 149.218 420.973 126.928 445.043 98.6683M384.583 167.418C404.033 145.468 430.663 125.758 445.453 97.5883M386.933 172.138C409.543 146.448 427.323 122.838 449.663 97.7683M389.443 168.478C418.133 141.918 444.683 113.588 457.053 99.7983M393.443 172.208C410.263 149.298 430.513 130.108 455.593 100.888M395.163 172.568C418.583 145.068 447.913 118.258 456.023 103.358M398.363 172.368C414.793 146.868 434.323 125.218 460.073 101.228M401.293 171.108C414.213 157.398 431.893 139.198 466.943 99.6183M402.433 169.828C427.983 142.288 450.933 113.028 465.863 97.9283M406.493 174.378C425.313 153.218 440.513 131.188 471.983 97.1383M406.843 168.778C420.533 155.808 435.573 140.018 471.013 101.028M417.003 167.888C434.753 142.488 464.183 116.548 477.913 97.8583M415.143 169.268C427.453 151.988 443.143 136.058 477.303 100.248M417.633 168.508C437.123 157.138 447.443 139.968 483.913 102.158M417.563 172.078C443.243 140.688 466.193 116.908 479.403 98.7283M420.313 172.808C441.663 148.838 461.293 129.878 481.343 104.838M424.913 171.598C439.553 150.858 455.653 133.168 478.063 105.568M427.033 173.238C445.193 149.248 471.553 126.398 476.613 114.828M428.993 168.688C441.483 156.118 453.223 142.808 480.303 112.158M438.363 170.448C449.743 148.758 464.053 131.498 477.173 118.968M436.383 171.568C454.523 151.388 470.963 130.218 478.823 116.688M440.483 173.468C453.083 152.578 467.163 142.358 483.223 126.038M440.933 168.698C451.853 158.968 460.663 146.168 481.053 124.678M445.653 172.028C452.043 158.918 466.393 147.558 482.023 127.728M445.513 169.618C460.113 157.468 473.083 138.968 480.883 130.618M447.193 168.748C458.143 162.248 463.483 150.338 480.453 134.898M450.493 169.878C459.793 161.818 467.573 150.928 480.523 138.898M452.033 167.408C467.873 160.008 471.183 150.758 483.293 146.548M455.553 171.868C465.163 160.038 476.333 147.318 478.253 145.348M459.693 173.218C471.183 163.698 474.673 156.928 481.063 150.368M460.093 169.708C467.683 163.998 470.503 157.658 481.543 150.398M462.773 173.048C466.783 167.348 474.443 164.118 477.743 155.198M465.093 170.128C469.693 167.548 474.313 162.088 480.233 156.248M473.253 168.688C476.473 165.998 476.093 166.088 478.333 160.488M472.973 169.678C474.393 167.938 478.443 165.128 478.983 160.708M477.463 170.058C478.313 169.338 478.923 167.448 480.563 167.308M476.963 170.428C478.653 169.338 479.503 168.248 479.753 167.768" stroke="#CED4DA" stroke-width="0.5" stroke-linecap="round"/>
<path d="M68.453 98.2783C198.803 99.9783 328.003 100.108 476.803 97.3583M67.613 98.6983C194.323 97.1783 319.853 97.8683 478.503 99.7083M478.833 102.898C475.413 122.918 479.313 148.438 482.353 170.698M477.613 98.1083C479.013 118.668 476.943 142.488 479.533 169.288M480.693 170.298C360.543 168.808 237.203 169.878 68.553 167.888M477.723 170.098C325.883 164.848 174.393 165.548 66.533 169.268M70.553 166.678C63.423 149.258 66.593 130.128 66.473 96.1483M68.643 170.248C66.553 144.228 67.503 116.798 67.683 100.208" stroke="black" stroke-linecap="round"/>
<path d="M160.246 216.473C159.976 229.453 160.306 281.343 160.476 294.803M164.306 213.593C164.926 227.013 166.676 284.903 165.756 298.073" stroke="black" stroke-linecap="round"/>
<path d="M284.216 215.183C283.976 228.083 287.256 278.243 287.266 290.863M288.256 212.683C287.496 225.993 285.146 279.753 285.416 293.083" stroke="black" stroke-linecap="round"/>
<path d="M415.086 217.473C414.986 230.523 413.136 280.403 413.836 293.453M419.596 215.133C420.496 228.673 418.866 282.003 418.766 295.993" stroke="black" stroke-linecap="round"/>
<path d="M71.6828 40.4214C71.3895 40.4214 71.1622 40.3407 71.0008 40.1794C70.8542 40.0034 70.7808 39.7687 70.7808 39.4754V25.6814C70.7808 25.3734 70.8615 25.1461 71.0228 24.9994C71.1842 24.8381 71.4115 24.7574 71.7048 24.7574H76.9188C78.5762 24.7574 79.8522 25.1681 80.7468 25.9894C81.6415 26.7961 82.0888 27.9401 82.0888 29.4214C82.0888 30.8881 81.6415 32.0321 80.7468 32.8534C79.8522 33.6747 78.5762 34.0854 76.9188 34.0854H72.5848V39.4754C72.5848 39.7687 72.5115 40.0034 72.3648 40.1794C72.2182 40.3407 71.9908 40.4214 71.6828 40.4214ZM72.5848 32.5674H76.6988C77.8868 32.5674 78.7815 32.3034 79.3828 31.7754C79.9988 31.2327 80.3068 30.4481 80.3068 29.4214C80.3068 28.3801 79.9988 27.5954 79.3828 27.0674C78.7815 26.5247 77.8868 26.2534 76.6988 26.2534H72.5848V32.5674ZM85.1479 40.4214C84.8545 40.4214 84.6272 40.3407 84.4659 40.1794C84.3192 40.0181 84.2459 39.7907 84.2459 39.4974V30.3234C84.2459 30.0301 84.3192 29.8101 84.4659 29.6634C84.6125 29.5021 84.8252 29.4214 85.1039 29.4214C85.3825 29.4214 85.5952 29.5021 85.7419 29.6634C85.9032 29.8101 85.9839 30.0301 85.9839 30.3234V32.1054H85.7639C85.9985 31.2401 86.4459 30.5727 87.1059 30.1034C87.7659 29.6341 88.5799 29.3847 89.5479 29.3554C89.7679 29.3407 89.9439 29.3921 90.0759 29.5094C90.2079 29.6121 90.2812 29.7954 90.2959 30.0594C90.3105 30.3087 90.2519 30.5067 90.1199 30.6534C89.9879 30.8001 89.7825 30.8881 89.5039 30.9174L89.1519 30.9614C88.1545 31.0494 87.3845 31.3721 86.8419 31.9294C86.3139 32.4721 86.0499 33.2201 86.0499 34.1734V39.4974C86.0499 39.7907 85.9692 40.0181 85.8079 40.1794C85.6612 40.3407 85.4412 40.4214 85.1479 40.4214ZM96.4457 40.4654C95.4044 40.4654 94.5024 40.2381 93.7397 39.7834C92.977 39.3287 92.383 38.6907 91.9577 37.8694C91.547 37.0334 91.3417 36.0507 91.3417 34.9214C91.3417 34.0707 91.459 33.3081 91.6937 32.6334C91.9284 31.9441 92.273 31.3574 92.7277 30.8734C93.1824 30.3894 93.7177 30.0227 94.3337 29.7734C94.9644 29.5094 95.6684 29.3774 96.4457 29.3774C97.487 29.3774 98.389 29.6047 99.1517 30.0594C99.9144 30.5141 100.501 31.1594 100.912 31.9954C101.337 32.8167 101.55 33.7921 101.55 34.9214C101.55 35.7721 101.432 36.5347 101.198 37.2094C100.963 37.8841 100.618 38.4707 100.164 38.9694C99.709 39.4534 99.1664 39.8274 98.5357 40.0914C97.9197 40.3407 97.223 40.4654 96.4457 40.4654ZM96.4457 39.0354C97.1057 39.0354 97.685 38.8741 98.1837 38.5514C98.6824 38.2287 99.0637 37.7594 99.3277 37.1434C99.6064 36.5274 99.7457 35.7867 99.7457 34.9214C99.7457 33.5867 99.445 32.5674 98.8437 31.8634C98.257 31.1594 97.4577 30.8074 96.4457 30.8074C95.771 30.8074 95.1844 30.9687 94.6857 31.2914C94.2017 31.5994 93.8204 32.0614 93.5417 32.6774C93.2777 33.2787 93.1457 34.0267 93.1457 34.9214C93.1457 36.2414 93.4464 37.2607 94.0477 37.9794C94.649 38.6834 95.4484 39.0354 96.4457 39.0354ZM105.571 40.4214C105.292 40.4214 105.072 40.3407 104.911 40.1794C104.764 40.0181 104.691 39.7907 104.691 39.4974V30.9614H103.283C103.048 30.9614 102.858 30.9027 102.711 30.7854C102.579 30.6534 102.513 30.4774 102.513 30.2574C102.513 30.0374 102.579 29.8687 102.711 29.7514C102.858 29.6341 103.048 29.5754 103.283 29.5754H105.175L104.691 30.0374V29.2014C104.691 27.8227 105.021 26.7667 105.681 26.0334C106.356 25.3001 107.346 24.8821 108.651 24.7794L109.311 24.7134C109.531 24.6987 109.707 24.7354 109.839 24.8234C109.971 24.8967 110.052 24.9994 110.081 25.1314C110.125 25.2634 110.132 25.4027 110.103 25.5494C110.074 25.6961 110.008 25.8207 109.905 25.9234C109.817 26.0261 109.707 26.0847 109.575 26.0994L108.915 26.1434C108.05 26.2021 107.426 26.4734 107.045 26.9574C106.664 27.4267 106.473 28.1014 106.473 28.9814V29.9054L106.209 29.5754H112.193C112.472 29.5754 112.684 29.6561 112.831 29.8174C112.992 29.9787 113.073 30.2134 113.073 30.5214V39.4094C113.073 39.7174 113 39.9594 112.853 40.1354C112.706 40.2967 112.486 40.3774 112.193 40.3774C111.9 40.3774 111.672 40.2967 111.511 40.1354C111.364 39.9594 111.291 39.7174 111.291 39.4094V30.9614H106.473V39.4974C106.473 40.1134 106.172 40.4214 105.571 40.4214ZM112.215 27.0014C111.848 27.0014 111.562 26.9061 111.357 26.7154C111.166 26.5101 111.071 26.2387 111.071 25.9014C111.071 25.5494 111.166 25.2854 111.357 25.1094C111.562 24.9187 111.848 24.8234 112.215 24.8234C112.582 24.8234 112.86 24.9187 113.051 25.1094C113.256 25.2854 113.359 25.5494 113.359 25.9014C113.359 26.2387 113.256 26.5101 113.051 26.7154C112.86 26.9061 112.582 27.0014 112.215 27.0014ZM119.664 40.4654C118.608 40.4654 117.801 40.1427 117.244 39.4974C116.687 38.8521 116.408 37.9281 116.408 36.7254V25.5054C116.408 25.2121 116.481 24.9921 116.628 24.8454C116.775 24.6841 116.995 24.6034 117.288 24.6034C117.567 24.6034 117.787 24.6841 117.948 24.8454C118.109 24.9921 118.19 25.2121 118.19 25.5054V36.5934C118.19 37.3854 118.344 37.9794 118.652 38.3754C118.975 38.7567 119.444 38.9474 120.06 38.9474C120.192 38.9474 120.309 38.9401 120.412 38.9254C120.515 38.9107 120.617 38.9034 120.72 38.9034C120.881 38.8887 120.991 38.9254 121.05 39.0134C121.123 39.1014 121.16 39.2774 121.16 39.5414C121.16 39.8054 121.101 40.0034 120.984 40.1354C120.867 40.2674 120.676 40.3554 120.412 40.3994C120.295 40.4141 120.17 40.4287 120.038 40.4434C119.906 40.4581 119.781 40.4654 119.664 40.4654ZM127.628 40.4654C126.499 40.4654 125.524 40.2454 124.702 39.8054C123.896 39.3507 123.265 38.7127 122.81 37.8914C122.37 37.0701 122.15 36.0874 122.15 34.9434C122.15 33.8287 122.37 32.8607 122.81 32.0394C123.25 31.2034 123.852 30.5507 124.614 30.0814C125.392 29.6121 126.286 29.3774 127.298 29.3774C128.017 29.3774 128.662 29.5021 129.234 29.7514C129.806 29.9861 130.29 30.3307 130.686 30.7854C131.097 31.2401 131.405 31.7901 131.61 32.4354C131.83 33.0807 131.94 33.8067 131.94 34.6134C131.94 34.8481 131.874 35.0241 131.742 35.1414C131.61 35.2441 131.42 35.2954 131.17 35.2954H123.514V34.1294H130.752L130.4 34.4154C130.4 33.6234 130.283 32.9561 130.048 32.4134C129.814 31.8561 129.469 31.4307 129.014 31.1374C128.574 30.8441 128.017 30.6974 127.342 30.6974C126.594 30.6974 125.956 30.8734 125.428 31.2254C124.915 31.5627 124.526 32.0394 124.262 32.6554C123.998 33.2567 123.866 33.9607 123.866 34.7674V34.8994C123.866 36.2487 124.189 37.2754 124.834 37.9794C125.494 38.6834 126.426 39.0354 127.628 39.0354C128.127 39.0354 128.618 38.9694 129.102 38.8374C129.601 38.7054 130.085 38.4854 130.554 38.1774C130.76 38.0454 130.943 37.9867 131.104 38.0014C131.28 38.0014 131.42 38.0527 131.522 38.1554C131.625 38.2434 131.691 38.3607 131.72 38.5074C131.764 38.6394 131.75 38.7861 131.676 38.9474C131.618 39.1087 131.493 39.2481 131.302 39.3654C130.818 39.7174 130.246 39.9887 129.586 40.1794C128.926 40.3701 128.274 40.4654 127.628 40.4654Z" fill="black"/>
</svg>
