<svg width="1195" height="717" viewBox="0 0 1195 717" fill="none" xmlns="http://www.w3.org/2000/svg">
<path d="M5.70034 1.55175C463.724 5.22208 919.541 5.31804 1192.32 1M5.55641 2.19945C321.181 3.49487 635.942 3.61481 1191.6 1.55175M1194 4.88623C1193.62 258.475 1191.27 515.206 1193.69 714.843M1189.25 2.39137C1186.8 229.688 1186.25 458.04 1190.38 714.124M1191.75 713.14C729.979 717.698 268.957 716.475 5.7963 711.821M1191.22 712.948C840.785 715.107 492.343 714.628 5.48444 713.308M5.43646 712.732C7.01975 524.49 6.06018 337.519 7.40357 2.39137M4.6928 712.349C1.26236 549.559 -0.272939 381.923 3.94914 3.49487" stroke="black" stroke-linecap="round"/>
<path d="M39.0796 147.152C41.0228 137.365 45.1009 129.52 59.5423 123.619M39.0796 147.152C42.5341 138.876 47.2119 133.455 59.5423 123.619M40.0392 160.682C44.6691 139.38 67.6746 138.228 71.5129 124.483M40.0392 160.682C49.9707 150.199 60.5739 138.78 71.5129 124.483M39.4155 176.035C58.7027 164.736 56.2558 140.819 83.4835 125.346M39.4155 176.035C47.7397 163.609 62.469 152.718 83.4835 125.346M40.3511 189.565C63.1647 174.02 87.9214 138.348 97.0133 124.387M40.3511 189.565C51.458 173.924 62.9728 155.932 97.0133 124.387M39.7273 204.918C67.9145 188.678 84.7789 158.355 108.984 125.25M39.7273 204.918C61.9173 178.482 80.2929 164.449 108.984 125.25M39.1036 220.271C58.8227 189.229 79.5972 168.095 117.788 129.736M39.1036 220.271C52.8254 204.942 76.0228 186.495 117.788 129.736M40.0392 233.801C71.5609 203.695 89.5767 176.947 121.89 139.644M40.0392 233.801C54.9844 211.035 76.2387 184.743 121.89 139.644M39.4155 249.154C63.0687 228.475 98.6206 182.56 125.968 149.575M39.4155 249.154C65.6116 223.702 89.8646 195.155 125.968 149.575M40.375 262.684C69.2099 241.43 95.8378 200.864 126.928 163.105M40.375 262.684C60.8617 232.817 92.3114 206.118 126.928 163.105M39.7273 278.037C66.931 259.709 88.905 234.617 126.304 178.458M39.7273 278.037C67.9385 251.097 87.0099 220.319 126.304 178.458M39.1036 293.39C63.7884 271.104 81.9482 237.951 127.24 191.988M39.1036 293.39C60.5979 259.709 92.0476 235.384 127.24 191.988M40.0632 306.92C59.8542 269.641 97.0373 246.875 126.616 207.341M40.0632 306.92C72.0167 268.537 104.354 229.075 126.616 207.341M39.4395 322.273C69.5218 302.506 78.2298 277.221 125.992 222.694M39.4395 322.273C72.8803 285.617 100.444 251.649 125.992 222.694M40.375 335.803C70.7452 298.907 102.315 269.569 126.928 236.224M40.375 335.803C62.2051 315.748 78.6377 295.141 126.928 236.224M39.7513 351.156C71.1291 325.103 98.8844 275.518 126.304 251.577M39.7513 351.156C70.2415 315.004 97.9009 283.89 126.304 251.577M39.1276 366.509C62.1571 338.082 90.8721 304.737 127.264 265.107M39.1276 366.509C59.2545 341.296 84.6349 308.575 127.264 265.107M40.0632 380.039C67.3148 339.137 96.1017 315.508 126.64 280.46M40.0632 380.039C69.7617 346.766 102.675 310.398 126.64 280.46M39.4395 395.392C77.966 353.794 94.6864 325.032 125.992 295.813M39.4395 395.392C58.8946 367.324 84.467 340.385 125.992 295.813M40.399 408.921C61.0776 388.435 95.1422 357.705 126.952 309.343M40.399 408.921C59.9262 380.134 77.87 360.607 126.952 309.343M39.7513 424.274C73.0002 386.54 80.173 359.288 126.328 324.696M39.7513 424.274C69.6178 395.392 93.319 357.177 126.328 324.696M39.1276 439.627C66.3552 409.785 94.8303 367.492 127.264 338.226M39.1276 439.627C72.4964 401.053 108.24 353.483 127.264 338.226M40.0872 453.157C80.4848 414.847 110.519 386.588 126.64 353.579M40.0872 453.157C69.4019 421.876 98.4287 387.211 126.64 353.579M39.4635 468.51C61.0536 427.585 89.4327 409.233 126.016 368.932M39.4635 468.51C62.8048 438.668 91.9516 403.5 126.016 368.932M40.399 482.04C65.1318 452.174 88.4492 425.762 126.952 382.461M40.399 482.04C70.9611 449.007 104.378 403.116 126.952 382.461M39.7753 497.393C60.6938 481.872 76.2148 441.451 126.328 397.814M39.7753 497.393C62.1571 473.14 75.0153 456.084 126.328 397.814M39.1516 512.722C64.3881 477.29 105.937 451.334 127.288 411.344M39.1516 512.722C61.3175 484.727 77.3662 467.455 127.288 411.344M40.0872 526.276C62.3491 496.05 98.3327 449.559 126.664 426.697M40.0872 526.276C64.1722 505.118 80.4848 481.968 126.664 426.697M39.4635 541.629C70.5053 511.115 94.1586 487.03 126.016 442.05M39.4635 541.629C76.1428 503.295 103.274 461.506 126.016 442.05M40.399 555.159C64.724 531.626 93.8707 499.24 126.976 455.58M40.399 555.159C61.4854 529.97 83.9153 506.485 126.976 455.58M39.7753 570.512C73.9598 539.446 84.587 509.484 126.352 470.933M39.7753 570.512C70.7212 536.16 105.553 494.299 126.352 470.933M39.1516 585.841C68.6822 572.023 87.2977 545.107 127.288 484.463M39.1516 585.841C72.6404 547.123 112.246 501.903 127.288 484.463M40.1112 599.395C75.9509 568.617 116.924 522.198 126.664 499.816M40.1112 599.395C70.8412 565.546 103.131 536.184 126.664 499.816M39.4875 614.724C75.1832 572.191 102.075 531.746 126.04 515.169M39.4875 614.724C58.7267 590.591 77.6541 568.137 126.04 515.169M42.0063 626.455C57.3593 606.807 84.7789 581.907 126.976 528.699M42.0063 626.455C58.3669 607.575 75.3032 589.056 126.976 528.699M49.227 632.764C69.4978 597.572 105.865 583.154 126.352 544.052M49.227 632.764C64.5081 608.559 83.3395 591.502 126.352 544.052M56.4717 639.049C68.6102 628.638 95.3341 599.635 127.312 557.582M56.4717 639.049C80.077 616.955 100.684 593.23 127.312 557.582M68.4423 639.912C92.7672 620.889 116.972 591.358 126.664 572.935M68.4423 639.912C93.7028 610.046 119.467 586.225 126.664 572.935M80.4128 640.776C90.4883 615.372 115.029 605.272 126.04 588.288M80.4128 640.776C85.8344 633.963 102.747 621.897 126.04 588.288M92.3594 641.64C95.8138 630.485 125.584 618.826 127 601.818M92.3594 641.64C105.889 630.94 114.813 615.899 127 601.818M105.913 640.704C110.951 635.091 118.987 622.976 126.376 617.171M105.913 640.704C112.39 632.188 116.828 628.446 126.376 617.171M63.6205 634.083C54.6965 618.802 37.4724 622.808 38.288 612.061M63.6205 634.083C51.6019 622.904 45.1489 617.675 38.288 612.061M78.9735 634.707C64.748 616.691 44.3332 619.21 39.1516 600.09M78.9735 634.707C67.2908 625.423 52.6335 608.679 39.1516 600.09M94.3265 635.33C68.8981 618.13 51.8898 597.164 38.192 586.561M94.3265 635.33C69.9296 617.099 51.458 596.444 38.192 586.561M104.234 631.252C87.0578 605.608 46.3723 583.922 39.0556 574.59M104.234 631.252C87.2977 615.396 63.1167 596.9 39.0556 574.59M117.788 630.293C85.1867 600.21 54.4327 583.466 38.1201 561.06M117.788 630.293C89.4327 598.147 56.4717 577.013 38.1201 561.06M120.451 619.905C97.8289 585.697 52.1297 565.258 38.9837 549.09M120.451 619.905C102.291 603.041 82.1161 583.634 38.9837 549.09M124.937 611.102C92.2395 596.924 78.3738 570.752 38.0241 535.56M124.937 611.102C87.0338 586.729 58.2709 547.267 38.0241 535.56M123.977 597.548C99.3402 571.304 79.3573 569.648 38.8877 523.589M123.977 597.548C108.12 579.82 88.2093 569.912 38.8877 523.589M124.865 585.601C97.757 563.963 56.0639 532.393 37.9521 510.059M124.865 585.601C91.3519 557.534 54.9844 528.387 37.9521 510.059M123.905 572.047C104.57 558.278 76.7905 540.286 38.8158 498.089M123.905 572.047C100.852 549.354 75.2552 531.482 38.8158 498.089M124.769 560.101C97.0373 550.433 85.6665 523.397 39.6794 486.118M124.769 560.101C96.9893 541.677 70.3134 517.712 39.6794 486.118M125.632 548.13C95.6939 530.042 81.6363 512.626 38.7198 472.588M125.632 548.13C109.608 536.136 85.5465 519.823 38.7198 472.588M124.697 534.6C112.222 517.136 90.7282 498.161 39.5834 460.618M124.697 534.6C94.0386 509.94 61.8453 475.035 39.5834 460.618M125.56 522.63C109.536 504.278 72.2326 491.252 38.6478 447.088M125.56 522.63C95.1182 496.218 69.7857 477.386 38.6478 447.088M124.601 509.1C106.777 488.757 81.9002 473.644 39.5114 435.118M124.601 509.1C97.7809 484.127 69.114 457.763 39.5114 435.118M125.464 497.129C96.4376 463.161 63.5245 445.769 38.5759 421.588M125.464 497.129C98.1168 480.049 76.4546 455.844 38.5759 421.588M124.529 483.599C103.61 469.614 74.2956 439.507 39.4395 409.617M124.529 483.599C109.104 461.529 82.7878 443.466 39.4395 409.617M125.392 471.629C87.8255 452.054 50.9542 410.049 38.4799 396.087M125.392 471.629C95.7659 451.862 74.5355 425.954 38.4799 396.087M124.433 458.099C94.9262 444.929 82.9077 424.946 39.3435 384.117M124.433 458.099C107.64 444.977 85.6904 425.354 39.3435 384.117M125.296 446.129C95.2861 421.54 77.0784 401.701 38.4079 370.587M125.296 446.129C101.955 429.312 81.5163 413.287 38.4079 370.587M124.361 432.599C93.9667 410.361 72.3285 371.81 39.2715 358.616M124.361 432.599C93.319 404.603 61.9412 377.16 39.2715 358.616M125.224 420.628C97.0373 409.185 74.6315 384.812 38.312 345.086M125.224 420.628C89.9125 393.017 67.3388 363.078 38.312 345.086M124.265 407.098C111.239 396.903 88.4732 383.829 39.1756 333.116M124.265 407.098C91.4238 377.256 58.8227 350.124 39.1756 333.116M125.129 395.128C92.3114 365.429 60.6698 325.703 38.24 319.586M125.129 395.128C108.456 384.477 85.6904 361.111 38.24 319.586M124.193 381.598C97.8529 347.437 71.9447 334.483 39.1036 307.615M124.193 381.598C97.3012 357.249 59.8782 327.119 39.1036 307.615M125.057 369.627C108.168 357.225 75.0153 327.287 38.1441 294.086M125.057 369.627C108.312 356.193 88.857 340.193 38.1441 294.086M124.097 356.097C104.09 337.506 84.6349 328.462 39.0077 282.115M124.097 356.097C99.1243 336.067 81.4444 312.941 39.0077 282.115M124.961 344.127C111.071 319.682 90.6082 312.797 38.0721 268.585M124.961 344.127C86.9379 313.109 58.9426 287.129 38.0721 268.585M124.025 330.597C108.288 317.355 87.7535 294.613 38.9357 256.615M124.025 330.597C90.4883 304.473 63.5725 276.166 38.9357 256.615M124.889 318.626C91.088 285.881 62.3491 270.049 37.9761 243.085M124.889 318.626C91.7837 293.462 69.5458 273.359 37.9761 243.085M123.953 305.097C92.6953 293.942 74.8714 272.639 38.8397 231.114M123.953 305.097C101.547 287.896 83.3395 270.121 38.8397 231.114M124.817 293.126C105.409 269.569 74.3196 253.16 39.7034 219.144M124.817 293.126C99.5321 275.086 79.5972 250.018 39.7034 219.144M125.68 281.155C96.7974 259.014 80.4128 242.053 38.7678 205.614M125.68 281.155C89.8885 249.178 59.9501 224.133 38.7678 205.614M124.721 267.626C108.408 250.425 89.0489 221.327 39.6314 193.643M124.721 267.626C93.4149 236.344 58.1989 213.386 39.6314 193.643M125.584 255.655C112.39 248.914 86.8419 233.465 38.6958 180.113M125.584 255.655C92.1195 229.219 63.1407 202.735 38.6958 180.113M124.649 242.125C101.523 218.928 68.0345 201.176 39.5594 168.143M124.649 242.125C86.0503 213.746 56.9275 186.183 39.5594 168.143M125.512 230.155C89.2888 201.296 55.3922 171.357 38.5999 154.613M125.512 230.155C104.978 215.257 89.3128 202.999 38.5999 154.613M124.553 216.625C93.3909 188.989 69.7377 165.912 39.4635 142.642M124.553 216.625C97.0373 189.037 66.0194 161.258 39.4635 142.642M125.416 204.654C100.492 192.396 80.077 170.494 42.1502 132.255M125.416 204.654C106.225 191.988 82.236 172.989 42.1502 132.255M124.481 191.124C110.783 166.751 86.3861 161.354 46.6362 123.451M124.481 191.124C95.7899 170.014 64.7 145.017 46.6362 123.451M125.344 179.154C105.385 167.327 79.2854 132.591 60.166 122.492M125.344 179.154C110.999 161.882 91.4238 147.44 60.166 122.492M124.385 165.624C114.118 142.139 87.7055 138.612 75.5191 123.139M124.385 165.624C109.871 153.725 96.5095 141.491 75.5191 123.139M125.248 153.653C123.137 148.688 98.7405 144.13 89.0489 122.18M125.248 153.653C109.919 145.953 105.721 131.056 89.0489 122.18M124.313 140.124C113.446 128.681 113.806 123.979 104.402 122.803M124.313 140.124C121.17 137.773 115.293 130.48 104.402 122.803" stroke="#CED4DA" stroke-width="0.5" stroke-linecap="round"/>
<path d="M58.3908 123.283C72.0886 121.916 86.8419 126.21 100.684 123.283M58.3908 123.283C74.9673 125.274 83.1716 123.811 100.684 123.283M100.684 123.283C108.432 121.916 118.651 123.187 121.818 144.442M100.684 123.283C122.154 120.644 119.179 122.276 121.818 144.442M121.818 144.442C137.315 294.062 121.482 418.829 121.818 614.364M121.818 144.442C127.455 286.241 126.76 427.849 121.818 614.364M121.818 614.364C130.07 636.77 122.514 638.689 100.684 635.522M121.818 614.364C122.706 626.143 123.281 636.386 100.684 635.522M100.684 635.522C84.8268 630.293 83.5794 643.463 58.3908 635.522M100.684 635.522C83.7713 636.29 68.0584 632.452 58.3908 635.522M58.3908 635.522C47.116 634.683 33.754 625.183 37.2324 614.364M58.3908 635.522C50.4984 634.299 44.717 617.818 37.2324 614.364M37.2324 614.364C43.8055 509.532 46.6122 390.906 37.2324 144.442M37.2324 614.364C38.12 428.329 42.9419 246.851 37.2324 144.442M37.2324 144.442C40.7828 129.137 43.1338 131.512 58.3908 123.283M37.2324 144.442C27.3969 137.389 33.4662 133.239 58.3908 123.283" stroke="black" stroke-linecap="round"/>
<path d="M54.9371 211.595C64.9166 199.289 73.0249 187.918 79.9338 176.403M51.6506 204.782C67.5554 196.506 76.2395 180.457 86.7947 169.734M55.273 216.345C70.7939 197.969 73.9125 190.748 93.5356 161.842M56.8323 219.271C70.9858 202.023 80.1017 185.399 99.6768 173.092M64.8686 229.299C84.7796 214.282 88.306 180.265 115.486 163.089M60.3827 229.299C65.2285 216.801 77.9907 204.566 108.937 173.212M71.9214 239.59C71.9214 218.816 91.0407 206.461 103.587 172.996M69.7144 237.047C76.1675 213.898 89.4814 204.59 110.136 182.472M71.9454 242.061C93.6795 214.642 98.1175 213.322 111.168 188.997M75.3758 240.286C91.4485 214.498 111.24 203.942 111.407 196.434M89.1936 244.94C98.7892 234.049 106.49 225.916 115.749 210.084M83.0284 237.575C100.229 229.419 111.647 219.511 111.959 211.403" stroke="#868E96" stroke-width="0.5" stroke-linecap="round"/>
<path d="M82.1406 166.663C89.4573 165.488 98.5012 163.353 103.683 167.023C108.84 170.694 111.743 181.105 113.111 188.661C114.478 196.218 114.886 203.99 111.839 212.339C108.816 220.711 101.188 235.056 94.8548 238.799C88.5457 242.541 80.6053 236.855 73.8884 234.816C67.1714 232.777 57.6477 231.986 54.5052 226.54C51.3626 221.095 53.4976 210.108 55.0809 202.095C56.6402 194.107 58.2475 184.583 63.9569 178.538C69.6663 172.493 84.1557 167.167 89.3613 165.872C94.543 164.552 94.9028 170.981 95.1427 170.718M82.6924 166.256C89.8411 167.023 103.899 170.79 108.361 176.331C112.847 181.872 108.289 191.468 109.536 199.456C110.784 207.421 119.588 218.84 115.845 224.189C112.103 229.515 93.9912 229.611 87.1064 231.506C80.2215 233.377 79.8137 238.463 74.5361 235.464C69.2345 232.441 59.8308 222.054 55.3688 213.442C50.9068 204.83 46.7087 190.676 47.7403 183.792C48.7718 176.907 54.793 174.58 61.486 172.133C68.179 169.662 82.2606 169.23 87.874 169.038C93.5114 168.822 94.8069 171.125 95.2626 170.957" stroke="black" stroke-linecap="round"/>
<path d="M64.1335 297.53C78.9107 288.39 89.25 279.466 99.1335 268.863M56.6968 303.072C71.1623 293.596 76.248 280.162 93.832 269.487M56.6729 320.632C73.7771 303.815 92.5605 286.975 103.068 269.607M58.4241 325.837C78.9827 304.655 90.3056 289.518 101.365 274.165M71.1143 340.327C79.7743 325.693 92.8964 309.501 102.828 278.195M66.9642 329.628C73.921 316.865 93.6161 304.439 106.522 282.657M67.1321 345.796C88.2425 332.266 85.2918 319.384 114.415 284.672M73.8251 340.879C79.9423 328.26 87.5228 318.857 112.567 290.405M75.5043 352.969C82.4611 321.327 104.579 307.102 119.668 292.157M76.5598 342.39C87.9546 330.851 109.473 306.886 118.781 301.225M84.2603 339.583C93.688 340.303 102.06 334.138 127.057 306.598M89.7298 349.587C99.0136 338.768 111.752 322.863 118.925 309.525M107.53 345.029C107.338 338.983 113.119 332.099 125.186 320.944M96.3748 348.651C107.242 335.937 112.663 330.803 122.739 319.984" stroke="#868E96" stroke-width="0.5" stroke-linecap="round"/>
<path d="M113.023 286.183C117.725 291.533 120.964 302.64 120.82 310.604C120.676 318.545 116.118 327.996 112.208 333.85C108.274 339.703 104.339 344.933 97.2626 345.652C90.1858 346.372 76.728 341.43 69.7471 338.192C62.7663 334.953 57.2008 332.41 55.4017 326.269C53.6025 320.152 55.6895 310.196 58.9281 301.464C62.1426 292.732 68.5477 279.203 74.7369 273.829C80.9021 268.479 88.4107 263.37 96.0392 269.295C103.644 275.22 118.733 298.634 120.388 309.453C122.043 320.296 107.194 334.234 106.019 334.258M65.4531 276.996C68.0679 271.094 73.8253 278.627 79.6067 277.979C85.388 277.331 94.5759 270.758 100.165 273.085C105.755 275.436 111.56 283.737 113.095 292.013C114.631 300.313 110.505 315.258 109.377 322.815C108.274 330.371 112.52 334.569 106.45 337.304C100.381 340.015 80.8061 340.135 72.9857 339.151C65.1892 338.144 61.4949 337.568 59.5518 331.331C57.6326 325.07 60.9911 309.573 61.4229 301.656C61.8547 293.716 61.0151 287.935 62.1186 283.761C63.2461 279.586 66.8205 277.164 68.1639 276.636" stroke="black" stroke-linecap="round"/>
<path d="M75.1385 397.076C80.7759 396.645 78.8328 386.017 87.3249 376.422M71.0123 400.627C80.1522 393.166 87.157 386.449 88.1885 381.891M56.7148 424.472C68.8293 415.116 79.3126 405.017 105.077 389.736M66.5264 429.989C70.3646 413.797 89.8678 399.043 98.4559 381.436M71.1083 431.117C87.9007 428.814 88.8602 409.071 110.258 387.097M70.4846 439.729C80.632 416.076 97.4483 403.577 112.537 386.305M72.7396 440.257C97.1125 424.52 112.13 400.819 112.322 386.689M64.7992 445.702C78.5449 430.901 93.802 426.487 118.871 395.397M81.0398 460.935C99.0796 435.411 106.612 410.534 129.066 401.538M78.329 453.499C92.8664 435.963 109.419 414.708 120.79 399.811M91.2831 452.395C105.269 437.306 103.134 434.044 118.487 416.244M83.3427 458.8C98.9596 439.705 111.338 430.493 118.727 410.846" stroke="#868E96" stroke-width="0.5" stroke-linecap="round"/>
<path d="M78.017 378.869C85.0938 376.518 98.0479 377.285 104.765 380.044C111.482 382.803 115.992 388.272 118.343 395.397C120.718 402.522 120.981 414.157 118.942 422.865C116.903 431.549 111.386 441.96 106.084 447.597C100.807 453.211 93.4899 456.521 87.2048 456.593C80.9436 456.665 73.3391 453.619 68.4933 447.981C63.6475 442.368 58.7537 431.285 58.154 422.841C57.5543 414.397 59.6893 405.113 64.9189 397.316C70.1486 389.496 82.263 377.981 89.5317 376.038C96.7764 374.095 108.459 385.034 108.411 385.658M105.94 386.857C111.026 390.479 117.047 399.211 118.798 406.888C120.55 414.564 119.086 425.719 116.424 432.964C113.761 440.185 108.819 447.837 102.87 450.308C96.9444 452.803 86.4611 450.692 80.7757 447.837C75.0903 444.983 73.4111 439.777 68.7332 433.204C64.0553 426.655 51.605 415.284 52.7325 408.447C53.836 401.634 69.093 397.748 75.4262 392.279C81.7593 386.833 83.8943 376.734 90.7072 375.678C97.5201 374.623 112.897 385.034 116.304 385.969C119.686 386.905 112.921 381.579 111.05 381.34" stroke="black" stroke-linecap="round"/>
<path d="M68.1728 523.403C76.593 502.029 72.3229 494.544 88.5156 490.058M60.0405 514.863C65.63 511.217 80.8391 498.166 83.9577 491.306M65.2222 518.869C68.2928 503.708 87.604 489.482 88.7795 497.519M64.6944 524.77C68.6766 523.547 82.0385 513.615 100.222 488.619M71.5073 542.258C79.7116 536.405 79.4477 522.324 114.904 488.307M60.1125 545.953C84.9172 523.547 97.0557 507.45 103.605 492.601M69.5162 559.051C76.1372 530.888 96.8878 514.239 117.231 506.851M65.678 550.103C83.7418 533.886 93.2894 523.619 112.361 505.363M71.8432 568.407C98.0393 531.128 100.966 529.808 119.366 511.193M71.6512 557.995C88.3716 551.134 88.9714 540.219 117.878 517.07M87.58 562.049C98.0393 555.596 107.179 536.621 120.469 519.565M87.1242 563.201C92.8336 558.235 97.8233 548.328 122.172 519.229M98.3991 573.132C99.3826 561.33 113.968 543.53 131.408 539.284M98.7349 563.129C106.1 552.718 113.8 544.465 123.971 535.11" stroke="#868E96" stroke-width="0.5" stroke-linecap="round"/>
<path d="M107.587 492.193C112.625 495.504 112.697 506.299 114.472 514.407C116.247 522.515 120.349 532.807 118.238 540.867C116.127 548.927 108.595 559.531 101.806 562.721C95.0168 565.888 84.0298 563.153 77.5287 559.938C71.0277 556.748 65.894 549.839 62.8474 543.458C59.8008 537.101 58.7932 529.424 59.297 521.7C59.8008 513.951 62.3436 503.324 65.87 497.039C69.3724 490.778 72.515 480.511 80.4074 484.085C88.2998 487.659 107.971 509.034 113.201 518.485C118.454 527.961 111.977 541.083 111.809 540.819M65.6301 504.068C69.0126 496.943 78.8241 488.595 83.8139 486.916C88.8036 485.26 89.1155 489.291 95.5685 494.064C102.022 498.814 119.078 508.65 122.532 515.487C125.987 522.324 120.469 527.553 116.271 535.11C112.049 542.69 102.933 556.292 97.3197 560.874C91.7063 565.48 88.7796 565.216 82.5664 562.697C76.3293 560.178 64.5026 551.71 59.9207 545.785C55.3388 539.86 54.7391 534.606 55.0989 527.169C55.4348 519.733 60.2086 506.539 61.9598 501.117C63.711 495.72 65.918 494.28 65.5822 494.712" stroke="black" stroke-linecap="round"/>
<path d="M165.211 145.083L1150.08 141.509L1161.29 214.436L165.091 217.291" fill="#868E96"/>
<path d="M154.368 135.344C479.276 144.915 797.084 153.384 1148.67 139.734M157.27 142.133C361.849 146.739 562.854 144.843 1150.78 138.774M1160.23 142.996C1152.05 163.051 1161.24 183.442 1161.07 215.251M1157.64 138.87C1151.5 161.54 1147.64 178.5 1154.45 223.552M1149.87 216.115C945.216 224.607 739.27 229.981 160.509 217.818M1153.25 218.298C852.594 219.545 557.025 218.274 161.42 221.585M166.578 209.638C154.464 198.603 163.891 161.228 150.17 138.966M163.268 221.345C156.982 189.823 163.124 162.283 162.668 144.987" stroke="black" stroke-linecap="round"/>
<path d="M169.019 241.864C170.842 231.02 173.961 227.11 176.576 221.881M165.517 238.145C166.188 235.147 171.274 231.764 179.766 226.007M169.859 259.184C173.433 246.733 177.463 236.154 194.591 226.127M169.331 251.171C176.768 244.526 187.011 226.439 188.138 224.423M160.623 275.76C187.491 255.897 194.232 230.205 210.736 218.234M163.981 268.611C181.877 253.714 199.245 230.733 206.826 227.086M167.244 285.5C190.633 259.088 205.53 236.514 208.073 224.543M166.908 278.087C178.735 260.383 191.521 248.029 218.293 225.095M169.979 291.713C179.934 279.382 207.57 242.295 229.831 229.509M163.406 291.809C185.404 279.143 203.659 253.234 227.385 224.687M163.789 304.619C176.768 290.489 204.427 273.529 251.829 216.051M164.317 310.544C187.994 279.91 211.648 253.81 240.003 224.375M173.841 333.598C191.185 281.206 232.998 244.934 257.419 233.347M170.65 328.896C186.411 294.903 220.02 268.323 251.757 225.095M164.797 349.335C201.908 318.533 216.206 270.89 269.485 214.036M161.582 336.093C197.59 307.114 227.049 271.37 267.662 225.527M167.292 352.309C204.403 308.769 239.811 281.158 270.997 233.131M170.051 351.422C191.065 326.209 215.75 294.592 282.152 222.216M159.999 363.056C193.968 329.28 226.713 290.849 294.698 229.317M166.812 366.919C207.402 327.169 243.529 279.43 289.132 224.136M157.84 375.483C202.244 347.847 230.167 315.342 305.205 225.455M165.013 382.871C204.259 347.895 237.364 301.5 310.123 224.112M159.423 395.754C215.534 340.938 275.243 275.976 327.059 222.696M169.523 398.872C207.162 347.416 245.28 303.635 317.727 222.816M162.014 413.673C227.001 338.228 297.721 266.86 326.987 228.981M169.883 409.907C226.113 344.609 281.24 276.984 331.089 219.482M163.046 423.485C212.703 355.908 278.457 299.485 341.765 229.869M162.998 427.467C217.645 371.405 261.233 317.261 348.961 226.295M167.196 442.628C231.343 364.616 312.714 292.816 360.5 217.203M166.908 446.035C228.248 371.74 290.332 311.384 358.701 220.753M168.827 455.774C196.726 417.08 241.25 351.71 375.877 217.371M166.812 454.695C221.291 382.416 289.324 307.929 374.989 227.134M166.74 463.043C220.14 417.752 270.829 352.117 381.443 224.064M165.373 471.439C234.605 394.41 314.417 310.976 381.61 220.921M169.403 480.339C225.705 423.077 262.553 380.233 403.68 226.558M170.674 486.408C222.875 415.784 285.222 345.928 398.979 220.009M167.868 492.885C224.914 430.538 278.409 372.268 403.417 219.17M166.332 497.347C259.89 399.184 345.747 296.151 406.727 227.23M171.418 522.008C242.378 413.721 334.736 334.485 422.968 229.653M168.227 519.369C268.646 402.015 365.274 292.888 420.761 225.791M161.415 540.408C243.433 449.897 307.388 347.727 430.02 232.58M165.901 534.123C260.825 408.708 366.881 293.32 435.13 227.422M173.073 549.044C237.1 458.509 301.295 382.272 443.958 217.994M168.036 548.18C225.25 469.784 286.901 404.414 449.548 221.377M156.881 568.067C241.85 474.102 331.497 369.342 464.397 230.013M166.38 560.151C265.863 450.713 367.865 333.718 457.392 223.416M172.114 580.518C284.527 447.978 404.76 307.114 466.676 223.416M168.179 572.145C271.309 465.37 372.015 352.381 467.18 223.56M163.718 589.729C245.376 502.889 326.771 407.148 480.805 218.93M162.374 585.699C236.332 497.083 312.426 416.912 486.779 226.223M172.857 602.132C291.627 468.273 415.291 324.794 499.925 223.824M168.563 601.964C282.919 479.739 389.647 350.822 499.685 227.518M167.196 616.093C274.763 489.263 403.057 354.228 509.208 217.97M168.635 619.668C279.441 484.009 401.545 343.481 508.177 223.848M168.203 625.809C307.052 472.591 452.762 310.184 521.947 222.192M164.917 636.172C268.046 508.358 372.495 387.357 524.633 225.503M160.335 645.048C311.658 472.327 468.403 309.897 533.437 228.406M170.866 643.537C276.37 511.909 385.209 383.615 536.268 221.833M169.691 667.454C260.993 556.96 370.959 443.42 542.337 219.506M167.988 662.992C289.109 509.75 416.922 362.577 548.742 220.585M161.87 675.442C252.309 578.047 336.775 463.907 554.98 230.421M163.957 675.874C316.144 497.731 473.369 316.494 559.49 221.065M178.303 682.759C276.37 559.095 372.71 450.593 572.78 222.744M169.427 684.078C329.698 507.375 479.942 323.258 574.987 220.993M183.245 687.221C334.976 502.769 501.892 319.636 582.279 224.208M185.428 683.023C341.909 505.144 499.637 322.203 585.95 222.001M198.478 681.368C348.529 518.05 496.902 341.49 604.661 221.425M199.053 687.413C301.583 551.059 418.386 425.164 599.551 220.633M216.494 679.521C333.728 549.835 452.858 403.31 607.828 219.098M210.904 685.302C372.255 496.172 532.478 314.383 614.832 221.257M228.92 692.715C331.929 558.807 444.534 429.89 617.951 227.182M226.161 683.191C313.337 573.057 398.571 474.606 623.684 227.278M229.352 684.942C388.903 507.879 538.355 330.815 631.697 226.678M232.11 689.548C392.31 507.783 548.119 326.041 640.741 223.032M249.742 678.513C380.843 534.674 500.476 384.335 650.24 218.906M251.398 688.924C386.504 528.005 522.546 370.253 649.88 227.086M254.948 679.089C396.004 530.212 535.309 360.633 668.976 222.192M257.539 687.461C351.888 580.254 448.9 467.025 665.257 219.698M271.74 688.133C396.987 537.409 526.265 394.506 680.61 228.214M274.643 687.005C402.073 529.013 544.904 369.629 677.828 227.302M283.567 690.076C379.955 581.885 483.78 468.153 695.7 229.653M285.222 684.15C410.589 548.684 528.232 410.363 685.264 218.906M295.969 681.991C437.649 515.195 590.483 342.042 699.418 223.08M297.289 684.798C391.686 580.35 483.828 474.918 700.617 221.521M316.696 682.591C406.079 574.352 507.817 464.794 718.513 221.137M314.345 686.501C423.975 550.531 544.664 417.464 712.396 224.303M327.875 687.149C420.977 561.83 530.247 446.73 731.563 224.232M324.66 687.869C406.655 586.827 495.247 490.367 724.199 224.375M343.876 689.404C457.968 555.761 556.755 436.055 734.394 219.314M333.584 683.743C465.188 544.894 593.242 402.327 736.529 225.647M344.571 691.899C452.498 583.204 549.942 466.162 751.162 219.794M344.931 683.767C494.047 513.252 645.61 332.638 747.828 221.329M365.826 679.736C498.269 529.948 650.384 357.707 760.11 220.489M363.811 682.375C457.8 564.205 566.71 443.42 766.971 226.463M370.839 692.786C482.485 573.968 576.258 453.735 782.324 219.53M370.336 685.206C456.96 585.651 546.224 481.754 775.823 226.678M386.888 691.011C500.476 549.763 601.806 423.509 784.171 228.693M384.369 686.813C490.977 559.311 599.336 431.641 788.154 227.734M392.382 688.636C535.5 533.067 673.894 364.472 798.541 216.147M400.634 689.236C542.121 535.178 672.022 382.44 805.93 225.527M407.063 681.536C530.823 543.646 660.987 391.699 811.783 225.215M414.571 687.653C489.321 586.539 568.629 494.061 816.317 224.639M425.534 688.348C590.867 503.225 743.438 326.353 823.154 224.064M427.166 688.804C545.744 548.612 660.028 414.057 825.409 224.04M445.445 693.314C571.172 538.609 696.947 394.65 840.018 224.591M439.952 688.924C586.357 513.54 741.831 338.204 839.73 227.662M447.532 687.581C611.882 502.985 764.284 325.106 859.857 225.095M452.018 684.462C599.096 511.261 756.656 338.228 853.596 222.408M470.346 689.284C551.885 591.361 632.752 483.794 865.59 220.513M462.718 688.684C570.093 565.117 676.173 437.015 861.44 227.662M481.717 692.067C626.515 514.859 773.088 346.984 884.878 222.72M476.487 688.181C574.003 555.137 684.017 433.728 876.218 226.51M484.572 685.062C623.397 529.301 744.637 387.597 892.602 224.351M490.089 682.783C641.316 508.214 786.474 336.476 887.564 223.152M496.854 678.873C627.139 533.019 754.185 395.298 901.142 218.882M505.034 688.516C624.764 531.58 751.954 382.224 903.325 220.657M517.773 679.137C609.459 581.357 704.624 479.236 909.299 226.582M514.942 684.438C646.882 524.023 792.52 366.175 915.632 224.04M523.314 681.536C675.957 495.38 835.004 314.574 930.625 221.665M525.737 685.47C653.479 543.79 776.423 403.358 926.787 225.839M540.994 691.755C670.247 536.617 799.237 398.128 942.308 220.033M542.937 689.188C666.457 553.074 781.077 415.377 938.565 224.591M552.341 689.476C698.266 521.312 843.544 368.19 960.036 222.072M553.084 686.597C669.072 547.748 785.587 415.233 955.07 226.007M567.646 679.521C652.471 565.021 739.504 454.407 971.382 222.984M565.367 686.525C671.159 565.38 764.548 457.022 964.018 222.72M574.867 686.645C710.021 526.854 836.827 374.331 979.635 217.347M577.481 687.629C707.142 543.454 834.429 395.73 978.459 226.319M582.015 684.558C658.325 591.457 752.122 495.524 999.162 225.095M592.475 688.996C710.981 551.419 831.646 406.98 994.892 223.944M604.685 690.268C699.802 584.644 777.79 483.937 1004.82 220.393M600.223 684.174C740.679 525.487 882.263 372.172 1002.3 227.662M615.384 680C768.291 531.196 896.201 373.108 1012.5 226.007M617.183 689.908C725.566 552.21 843.496 410.819 1017.9 221.929M624.212 681.104C763.757 534.458 891.667 372.196 1028.28 229.389M629.514 683.239C757.208 553.698 873.531 412.306 1033.97 223.416M635.847 681.536C790.529 530.236 925.563 367.111 1036.51 227.758M640.381 685.878C774.072 552.402 898 402.231 1046.04 225.719M654.27 688.78C778.87 547.796 909.994 407.724 1049.23 230.876M653.407 683.911C759.846 570.73 853.596 453.471 1053.95 221.905M670.799 686.022C811.639 504.76 953.247 340.579 1065.01 226.822M665.737 688.948C815.741 518.074 965.049 351.11 1068.3 224.783M684.329 690.939C758.719 577.447 854.531 483.29 1087.42 231.236M682.434 688.948C757.424 595.966 842.993 501.713 1080.39 227.494M689.175 680.96C836.516 512.101 995.228 341.754 1099.2 222.072M694.164 685.878C824.401 527.214 960.899 370.325 1092.19 223.872M711.173 682.999C820.707 549.763 930.049 424.684 1111.89 219.842M706.975 685.47C829.607 545.421 957.805 398.128 1109.32 223.104M717.698 683.287C880.368 502.145 1028.81 324.818 1124.41 222.384M720.025 688.348C813.198 566.1 909.419 458.173 1116.78 223.728M731.323 685.974C851.461 542.351 973.493 399.4 1126.23 223.152M732.115 687.509C847.575 540.12 968.36 404.845 1134.03 220.465M740.007 685.086C830.806 583.9 919.206 478.132 1148.88 223.44M742.646 682.711C880.775 529.253 1012.91 366.919 1144.18 224.855M748.62 692.163C871.732 564.949 973.229 435.431 1160.75 219.602M758.239 685.662C906.132 508.886 1061.65 330.095 1156.75 225.407M766.587 692.547C897.184 530.716 1041.29 364.256 1150.7 231.62M770.354 688.061C862.592 581.333 953.103 470.576 1153.7 240.064M782.084 688.468C903.133 537.481 1028.96 394.434 1162.24 253.834M785.107 681.895C927.482 516.419 1066.31 352.861 1159.53 255.058M796.07 686.573C881.879 569.387 972.27 465.73 1164.4 267.196M792.975 682.399C927.314 521.816 1070.48 355.476 1161.04 269.835M811.855 678.873C898.48 566.916 1000.84 459.397 1153.77 279.622M807.345 686.189C879.192 597.574 948.353 512.389 1160.44 277.703M822.554 694.178C907.979 569.435 1017.39 465.178 1152.14 304.955M817.324 684.966C947.513 541.727 1074.06 391.34 1156.82 293.224M832.054 678.993C951.088 536.09 1077.1 397.625 1152.19 320.236M835.196 688.444C953.63 549.931 1071.78 417.128 1155.4 315.126M843.041 683.191C970.063 557.704 1081.2 413.937 1153.12 333.982M848.342 689.476C930.841 593.376 1010.2 496.052 1155.86 326.833M860.889 693.89C972.894 556.432 1092.46 411.394 1159.24 341.658M855.587 687.557C926.235 595.319 1004.18 511.645 1154.64 344.609M867.677 688.372C964.426 578.622 1058.44 472.447 1159.74 350.03M873.795 689.74C937.678 610.936 1003.62 532.156 1156.94 357.755M885.813 677.937C971.238 568.163 1086.84 458.077 1156.94 373.156M885.645 690.148C949.888 601.532 1031.62 519.561 1153 369.869M893.25 679.736C965.049 599.805 1046.16 501.186 1148.3 377.354M896.392 686.525C979.275 593.448 1060.65 493.725 1159.91 381.768M916.855 687.701C999.258 575.576 1094.3 462.899 1160.34 406.093M904.333 690.196C997.458 597.094 1080.53 493.533 1156.75 397.097M930.025 681.871C1013.22 568.955 1113.85 474.03 1157.8 407.772M920.501 682.879C988.127 608.417 1058.73 532.084 1158.91 413.529M926.883 695.233C1001.87 609.664 1050.64 546.309 1151.04 419.311M929.377 684.126C1006.48 610.408 1072.4 530.596 1159.38 429.434M954.23 688.636C1009.96 615.062 1050.83 566.292 1154.83 441.309M947.129 688.924C1029.46 594.071 1106.49 496.052 1156.79 444.116M955.43 694.562C1018.07 628.592 1059.47 555.137 1161.42 449.057M963.082 687.269C1033.2 600.309 1109.9 518.266 1154.28 454.863M975.173 691.875C1042.17 605.13 1122.85 524.239 1164.73 469.52M969.103 688.109C1036.97 607.337 1105.53 530.956 1157.01 467.385M984.073 692.163C1052.2 612.087 1117.07 533.763 1156.15 495.476M987.551 690.819C1039.18 615.805 1096.75 551.419 1155.31 491.71M1006.6 691.155C1057.84 618.636 1100.8 560.822 1164.4 505.935M995.06 690.052C1031.55 635.86 1071.3 590.497 1157.2 505.744M1003.46 678.249C1061.34 617.197 1123.71 563.245 1166.7 523.735M1008.01 685.638C1045.22 639.962 1082.14 601.724 1153.89 517.858M1018.57 684.03C1057.41 647.711 1078.95 605.418 1147.89 539.976M1025.5 687.365C1079.36 630.151 1121.15 566.148 1152.48 530.404M1042.25 693.77C1065.3 654.02 1090.44 621.755 1153.72 543.286M1038.19 686.453C1084.66 627.344 1127.82 580.829 1158.83 545.23M1043.09 694.921C1081.44 653.085 1109.46 622.139 1161.52 558.472M1047.91 689.236C1093.17 637.708 1132.64 589.01 1156.12 564.493M1061.41 686.597C1097.21 645.216 1127.86 623.866 1149.31 580.781M1057.34 688.54C1090.94 650.782 1121.27 616.981 1161.16 578.215M1068.49 688.732C1107.47 651.261 1131.75 629.527 1150.48 585.339M1070.43 687.797C1108.98 646.559 1135.61 612.063 1156.51 593.184M1079.09 693.842C1111.91 671.916 1132.21 636.34 1150.05 595.607M1082.09 682.111C1117.5 657.858 1144.34 623.818 1156.53 601.316M1106.7 676.378C1113.81 661.025 1146.26 641.978 1166.61 626.313M1097.8 682.207C1116.28 675.802 1128.39 657.69 1156.96 618.804M1103.37 678.681C1116.2 680.024 1127.5 661.936 1151.92 635.668M1113.71 685.974C1128.01 676.162 1133.48 660.641 1156.39 634.085M1124.43 687.821C1128.08 676.906 1153.63 661.073 1165.36 642.026M1125.03 685.134C1126.9 674.747 1134.6 669.853 1159.91 648.191M1140.24 690.891C1139.71 681.176 1147.39 669.853 1153.05 664.815M1134.65 685.494C1140.1 681.991 1145.76 673.091 1155.57 661.241M1150.63 684.846C1149.62 683.143 1156.24 683.215 1154.83 677.05M1149 688.133C1150.63 683.934 1154.66 680.048 1157.87 678.513" stroke="#868E96" stroke-width="0.5" stroke-linecap="round"/>
<path d="M168.803 228.646C555.507 225.959 941.108 228.813 1156.89 222.648M166.836 221.329C539.506 218.162 908.842 214.372 1156.05 223.44M1148.04 224.879C1154.8 394.482 1157.39 571.953 1155.02 683.527M1156.84 224.567C1162.67 376.874 1159.46 528.005 1156.91 679.616M1156.53 684.918C854.699 679.281 561.672 687.341 164.965 684.99M1158.45 680.648C925.539 678.753 696.779 681.823 165.468 679.688M158.008 673.115C153.162 551.155 164.533 417.895 164.965 221.329M163.213 678.441C166.14 533.115 168.899 395.85 167.627 219.266" stroke="black" stroke-linecap="round"/>
<path d="M877.818 298.597V276.097H880.247V278.696H880.545C880.73 278.412 880.986 278.05 881.312 277.61C881.646 277.162 882.122 276.765 882.74 276.417C883.365 276.062 884.21 275.884 885.275 275.884C886.653 275.884 887.868 276.228 888.919 276.917C889.97 277.606 890.79 278.583 891.38 279.847C891.969 281.111 892.264 282.603 892.264 284.321C892.264 286.054 891.969 287.557 891.38 288.828C890.79 290.092 889.974 291.072 888.93 291.768C887.886 292.457 886.682 292.802 885.318 292.802C884.267 292.802 883.425 292.628 882.793 292.28C882.161 291.924 881.675 291.523 881.334 291.076C880.993 290.621 880.73 290.245 880.545 289.946H880.332V298.597H877.818ZM880.29 284.279C880.29 285.515 880.471 286.605 880.833 287.549C881.195 288.487 881.724 289.222 882.42 289.755C883.116 290.28 883.969 290.543 884.977 290.543C886.028 290.543 886.905 290.266 887.609 289.712C888.319 289.151 888.851 288.398 889.207 287.454C889.569 286.502 889.75 285.444 889.75 284.279C889.75 283.128 889.572 282.091 889.217 281.168C888.869 280.238 888.34 279.503 887.63 278.963C886.927 278.416 886.043 278.142 884.977 278.142C883.954 278.142 883.095 278.402 882.399 278.92C881.703 279.432 881.177 280.149 880.822 281.072C880.467 281.988 880.29 283.057 880.29 284.279ZM902.96 292.802C901.383 292.802 900.023 292.454 898.88 291.758C897.744 291.054 896.866 290.074 896.249 288.817C895.638 287.553 895.332 286.083 895.332 284.407C895.332 282.731 895.638 281.253 896.249 279.975C896.866 278.689 897.726 277.688 898.827 276.971C899.935 276.246 901.227 275.884 902.704 275.884C903.557 275.884 904.398 276.026 905.229 276.31C906.06 276.594 906.817 277.056 907.499 277.695C908.18 278.327 908.724 279.165 909.128 280.209C909.533 281.253 909.736 282.539 909.736 284.066V285.131H897.122V282.958H907.179C907.179 282.035 906.994 281.211 906.625 280.486C906.263 279.762 905.744 279.19 905.07 278.771C904.402 278.352 903.614 278.142 902.704 278.142C901.703 278.142 900.837 278.391 900.105 278.888C899.381 279.378 898.823 280.017 898.432 280.806C898.042 281.594 897.847 282.439 897.847 283.341V284.79C897.847 286.026 898.06 287.074 898.486 287.933C898.919 288.785 899.519 289.435 900.286 289.883C901.053 290.323 901.945 290.543 902.96 290.543C903.621 290.543 904.217 290.451 904.75 290.266C905.29 290.074 905.755 289.79 906.146 289.414C906.536 289.03 906.838 288.554 907.051 287.986L909.48 288.668C909.224 289.492 908.795 290.216 908.191 290.841C907.587 291.459 906.842 291.942 905.954 292.29C905.066 292.631 904.068 292.802 902.96 292.802ZM916.074 282.617V292.461H913.56V276.097H915.989V278.654H916.202C916.586 277.823 917.168 277.155 917.949 276.651C918.731 276.14 919.739 275.884 920.975 275.884C922.083 275.884 923.052 276.111 923.883 276.566C924.714 277.013 925.361 277.695 925.822 278.611C926.284 279.52 926.515 280.671 926.515 282.063V292.461H924.001V282.233C924.001 280.948 923.667 279.946 922.999 279.229C922.332 278.505 921.415 278.142 920.251 278.142C919.448 278.142 918.731 278.316 918.099 278.664C917.474 279.013 916.98 279.52 916.618 280.188C916.256 280.856 916.074 281.665 916.074 282.617ZM937.288 292.802C935.924 292.802 934.721 292.457 933.677 291.768C932.633 291.072 931.816 290.092 931.226 288.828C930.637 287.557 930.342 286.054 930.342 284.321C930.342 282.603 930.637 281.111 931.226 279.847C931.816 278.583 932.636 277.606 933.687 276.917C934.738 276.228 935.953 275.884 937.331 275.884C938.396 275.884 939.238 276.062 939.856 276.417C940.481 276.765 940.956 277.162 941.283 277.61C941.617 278.05 941.876 278.412 942.061 278.696H942.274V270.642H944.788V292.461H942.359V289.946H942.061C941.876 290.245 941.613 290.621 941.272 291.076C940.932 291.523 940.445 291.924 939.813 292.28C939.181 292.628 938.339 292.802 937.288 292.802ZM937.629 290.543C938.638 290.543 939.49 290.28 940.186 289.755C940.882 289.222 941.411 288.487 941.773 287.549C942.135 286.605 942.317 285.515 942.317 284.279C942.317 283.057 942.139 281.988 941.784 281.072C941.429 280.149 940.903 279.432 940.207 278.92C939.511 278.402 938.652 278.142 937.629 278.142C936.564 278.142 935.676 278.416 934.966 278.963C934.263 279.503 933.733 280.238 933.378 281.168C933.03 282.091 932.856 283.128 932.856 284.279C932.856 285.444 933.034 286.502 933.389 287.454C933.751 288.398 934.284 289.151 934.987 289.712C935.697 290.266 936.578 290.543 937.629 290.543ZM949.742 292.461V276.097H952.256V292.461H949.742ZM951.02 273.37C950.53 273.37 950.108 273.203 949.753 272.869C949.405 272.535 949.231 272.134 949.231 271.665C949.231 271.196 949.405 270.795 949.753 270.461C950.108 270.128 950.53 269.961 951.02 269.961C951.51 269.961 951.929 270.128 952.277 270.461C952.633 270.795 952.81 271.196 952.81 271.665C952.81 272.134 952.633 272.535 952.277 272.869C951.929 273.203 951.51 273.37 951.02 273.37ZM959.375 282.617V292.461H956.861V276.097H959.29V278.654H959.503C959.887 277.823 960.469 277.155 961.25 276.651C962.032 276.14 963.04 275.884 964.276 275.884C965.384 275.884 966.353 276.111 967.184 276.566C968.015 277.013 968.661 277.695 969.123 278.611C969.585 279.52 969.816 280.671 969.816 282.063V292.461H967.301V282.233C967.301 280.948 966.968 279.946 966.3 279.229C965.632 278.505 964.716 278.142 963.551 278.142C962.749 278.142 962.032 278.316 961.399 278.664C960.774 279.013 960.281 279.52 959.919 280.188C959.556 280.856 959.375 281.665 959.375 282.617ZM981.015 298.938C979.801 298.938 978.756 298.782 977.883 298.469C977.009 298.164 976.281 297.759 975.699 297.255C975.124 296.758 974.666 296.225 974.325 295.657L976.328 294.25C976.555 294.549 976.842 294.89 977.19 295.273C977.538 295.664 978.014 296.001 978.618 296.285C979.229 296.576 980.028 296.722 981.015 296.722C982.336 296.722 983.426 296.402 984.286 295.763C985.145 295.124 985.575 294.123 985.575 292.759V289.435H985.362C985.177 289.733 984.914 290.103 984.573 290.543C984.239 290.976 983.756 291.363 983.124 291.704C982.499 292.038 981.654 292.205 980.589 292.205C979.268 292.205 978.082 291.892 977.031 291.267C975.987 290.642 975.159 289.733 974.548 288.54C973.945 287.347 973.643 285.898 973.643 284.194C973.643 282.517 973.938 281.058 974.527 279.815C975.117 278.565 975.937 277.599 976.988 276.917C978.039 276.228 979.254 275.884 980.631 275.884C981.697 275.884 982.542 276.062 983.167 276.417C983.799 276.765 984.282 277.162 984.616 277.61C984.957 278.05 985.22 278.412 985.404 278.696H985.66V276.097H988.089V292.929C988.089 294.336 987.769 295.479 987.13 296.36C986.498 297.248 985.646 297.897 984.573 298.309C983.508 298.728 982.322 298.938 981.015 298.938ZM980.93 289.946C981.938 289.946 982.791 289.716 983.487 289.254C984.183 288.792 984.712 288.128 985.074 287.262C985.436 286.395 985.617 285.358 985.617 284.151C985.617 282.972 985.44 281.932 985.085 281.03C984.73 280.128 984.204 279.421 983.508 278.91C982.812 278.398 981.953 278.142 980.93 278.142C979.864 278.142 978.977 278.412 978.266 278.952C977.563 279.492 977.034 280.216 976.679 281.125C976.331 282.035 976.157 283.043 976.157 284.151C976.157 285.287 976.335 286.292 976.69 287.166C977.052 288.032 977.585 288.714 978.288 289.211C978.998 289.701 979.879 289.946 980.93 289.946Z" fill="black"/>
<path d="M882.376 383.384C881.339 383.384 880.398 383.189 879.552 382.798C878.707 382.4 878.036 381.829 877.539 381.083C877.042 380.33 876.793 379.421 876.793 378.356C876.793 377.418 876.978 376.658 877.347 376.076C877.716 375.486 878.21 375.025 878.828 374.691C879.446 374.357 880.128 374.109 880.873 373.945C881.626 373.775 882.383 373.64 883.143 373.54C884.137 373.413 884.943 373.317 885.561 373.253C886.186 373.182 886.64 373.064 886.925 372.901C887.216 372.738 887.361 372.454 887.361 372.049V371.964C887.361 370.913 887.074 370.096 886.498 369.513C885.93 368.931 885.067 368.64 883.91 368.64C882.709 368.64 881.768 368.903 881.086 369.428C880.405 369.954 879.925 370.515 879.648 371.111L877.262 370.259C877.688 369.265 878.256 368.491 878.966 367.937C879.684 367.376 880.465 366.985 881.31 366.765C882.162 366.538 883.001 366.424 883.824 366.424C884.35 366.424 884.954 366.488 885.635 366.616C886.324 366.736 886.988 366.989 887.628 367.372C888.274 367.756 888.81 368.334 889.236 369.109C889.662 369.883 889.876 370.92 889.876 372.219V383.001H887.361V380.785H887.233C887.063 381.14 886.779 381.52 886.381 381.925C885.983 382.329 885.454 382.674 884.794 382.958C884.133 383.242 883.327 383.384 882.376 383.384ZM882.759 381.126C883.753 381.126 884.591 380.93 885.273 380.54C885.962 380.149 886.481 379.645 886.829 379.027C887.184 378.409 887.361 377.759 887.361 377.077V374.776C887.255 374.904 887.02 375.021 886.658 375.128C886.303 375.227 885.891 375.316 885.422 375.394C884.961 375.465 884.51 375.529 884.069 375.586C883.636 375.636 883.285 375.678 883.015 375.714C882.361 375.799 881.751 375.937 881.182 376.129C880.621 376.314 880.167 376.594 879.819 376.971C879.478 377.34 879.307 377.844 879.307 378.484C879.307 379.357 879.63 380.018 880.277 380.465C880.93 380.905 881.758 381.126 882.759 381.126ZM901.112 383.341C899.578 383.341 898.257 382.979 897.149 382.255C896.041 381.53 895.189 380.533 894.592 379.261C893.996 377.99 893.697 376.538 893.697 374.904C893.697 373.242 894.003 371.775 894.614 370.504C895.232 369.226 896.091 368.228 897.192 367.511C898.3 366.786 899.592 366.424 901.07 366.424C902.22 366.424 903.257 366.637 904.18 367.063C905.104 367.489 905.86 368.086 906.45 368.853C907.039 369.62 907.405 370.515 907.547 371.538H905.033C904.841 370.792 904.415 370.131 903.754 369.556C903.101 368.974 902.22 368.682 901.112 368.682C900.132 368.682 899.273 368.938 898.534 369.449C897.803 369.954 897.231 370.667 896.819 371.591C896.414 372.507 896.212 373.583 896.212 374.819C896.212 376.083 896.41 377.184 896.808 378.121C897.213 379.059 897.781 379.787 898.513 380.305C899.251 380.824 900.118 381.083 901.112 381.083C901.766 381.083 902.359 380.969 902.891 380.742C903.424 380.515 903.875 380.188 904.244 379.762C904.614 379.336 904.876 378.824 905.033 378.228H907.547C907.405 379.194 907.053 380.064 906.492 380.838C905.938 381.605 905.203 382.216 904.287 382.67C903.378 383.118 902.32 383.341 901.112 383.341ZM918.339 366.637V368.768H909.859V366.637H918.339ZM912.33 362.716H914.844V378.313C914.844 379.023 914.947 379.556 915.153 379.911C915.366 380.259 915.636 380.493 915.963 380.614C916.297 380.728 916.648 380.785 917.018 380.785C917.295 380.785 917.522 380.77 917.7 380.742C917.877 380.707 918.019 380.678 918.126 380.657L918.637 382.915C918.467 382.979 918.229 383.043 917.923 383.107C917.618 383.178 917.231 383.214 916.762 383.214C916.052 383.214 915.356 383.061 914.674 382.756C913.999 382.45 913.438 381.985 912.991 381.36C912.55 380.735 912.33 379.947 912.33 378.995V362.716ZM922.121 383.001V366.637H924.635V383.001H922.121ZM923.399 363.91C922.909 363.91 922.486 363.743 922.131 363.409C921.783 363.075 921.609 362.674 921.609 362.205C921.609 361.736 921.783 361.335 922.131 361.001C922.486 360.667 922.909 360.501 923.399 360.501C923.889 360.501 924.308 360.667 924.656 361.001C925.011 361.335 925.189 361.736 925.189 362.205C925.189 362.674 925.011 363.075 924.656 363.409C924.308 363.743 923.889 363.91 923.399 363.91ZM942.621 366.637L936.569 383.001H934.013L927.961 366.637H930.689L935.206 379.677H935.376L939.893 366.637H942.621ZM952.214 383.341C950.637 383.341 949.277 382.993 948.134 382.297C946.997 381.594 946.12 380.614 945.502 379.357C944.891 378.093 944.586 376.623 944.586 374.947C944.586 373.27 944.891 371.793 945.502 370.515C946.12 369.229 946.98 368.228 948.08 367.511C949.188 366.786 950.481 366.424 951.958 366.424C952.811 366.424 953.652 366.566 954.483 366.85C955.314 367.134 956.07 367.596 956.752 368.235C957.434 368.867 957.977 369.705 958.382 370.749C958.787 371.793 958.99 373.079 958.99 374.606V375.671H946.376V373.498H956.433C956.433 372.574 956.248 371.751 955.879 371.026C955.516 370.302 954.998 369.73 954.323 369.311C953.656 368.892 952.867 368.682 951.958 368.682C950.957 368.682 950.09 368.931 949.359 369.428C948.634 369.918 948.077 370.557 947.686 371.346C947.296 372.134 947.1 372.979 947.1 373.881V375.33C947.1 376.566 947.313 377.614 947.74 378.473C948.173 379.325 948.773 379.975 949.54 380.422C950.307 380.863 951.198 381.083 952.214 381.083C952.874 381.083 953.471 380.991 954.004 380.806C954.543 380.614 955.009 380.33 955.399 379.954C955.79 379.57 956.092 379.094 956.305 378.526L958.734 379.208C958.478 380.032 958.048 380.756 957.445 381.381C956.841 381.999 956.095 382.482 955.208 382.83C954.32 383.171 953.322 383.341 952.214 383.341Z" fill="black"/>
<path d="M866.107 464.012C864.743 464.012 863.54 463.667 862.496 462.978C861.452 462.282 860.635 461.302 860.045 460.038C859.456 458.767 859.161 457.265 859.161 455.532C859.161 453.813 859.456 452.321 860.045 451.057C860.635 449.793 861.455 448.816 862.506 448.127C863.557 447.439 864.772 447.094 866.15 447.094C867.215 447.094 868.057 447.272 868.675 447.627C869.3 447.975 869.775 448.373 870.102 448.82C870.436 449.26 870.695 449.623 870.88 449.907H871.093V441.853H873.607V463.671H871.178V461.157H870.88C870.695 461.455 870.432 461.831 870.091 462.286C869.751 462.733 869.264 463.135 868.632 463.49C868 463.838 867.158 464.012 866.107 464.012ZM866.448 461.753C867.456 461.753 868.309 461.49 869.005 460.965C869.701 460.432 870.23 459.697 870.592 458.76C870.954 457.815 871.135 456.725 871.135 455.489C871.135 454.267 870.958 453.199 870.603 452.282C870.248 451.359 869.722 450.642 869.026 450.13C868.33 449.612 867.471 449.353 866.448 449.353C865.383 449.353 864.495 449.626 863.785 450.173C863.081 450.713 862.552 451.448 862.197 452.378C861.849 453.301 861.675 454.338 861.675 455.489C861.675 456.654 861.853 457.712 862.208 458.664C862.57 459.608 863.103 460.361 863.806 460.922C864.516 461.476 865.397 461.753 866.448 461.753ZM885.422 464.012C883.845 464.012 882.485 463.664 881.341 462.968C880.205 462.265 879.328 461.284 878.71 460.027C878.099 458.763 877.794 457.293 877.794 455.617C877.794 453.941 878.099 452.463 878.71 451.185C879.328 449.9 880.187 448.898 881.288 448.181C882.396 447.456 883.689 447.094 885.166 447.094C886.018 447.094 886.86 447.236 887.691 447.52C888.522 447.804 889.278 448.266 889.96 448.905C890.642 449.537 891.185 450.375 891.59 451.419C891.995 452.463 892.197 453.749 892.197 455.276V456.341H879.584V454.168H889.64C889.64 453.245 889.456 452.421 889.086 451.696C888.724 450.972 888.206 450.4 887.531 449.981C886.863 449.562 886.075 449.353 885.166 449.353C884.165 449.353 883.298 449.601 882.567 450.098C881.842 450.588 881.285 451.228 880.894 452.016C880.503 452.804 880.308 453.649 880.308 454.551V456C880.308 457.236 880.521 458.284 880.947 459.143C881.381 459.995 881.981 460.645 882.748 461.093C883.515 461.533 884.406 461.753 885.422 461.753C886.082 461.753 886.679 461.661 887.211 461.476C887.751 461.284 888.216 461 888.607 460.624C888.998 460.24 889.3 459.765 889.513 459.196L891.942 459.878C891.686 460.702 891.256 461.426 890.653 462.051C890.049 462.669 889.303 463.152 888.415 463.5C887.528 463.841 886.53 464.012 885.422 464.012ZM900.837 464.054C899.8 464.054 898.859 463.859 898.014 463.468C897.169 463.071 896.498 462.499 896.001 461.753C895.503 461 895.255 460.091 895.255 459.026C895.255 458.088 895.439 457.328 895.809 456.746C896.178 456.157 896.672 455.695 897.29 455.361C897.907 455.027 898.589 454.779 899.335 454.615C900.088 454.445 900.844 454.31 901.604 454.211C902.599 454.083 903.405 453.987 904.023 453.923C904.648 453.852 905.102 453.735 905.386 453.571C905.677 453.408 905.823 453.124 905.823 452.719V452.634C905.823 451.583 905.535 450.766 904.96 450.184C904.392 449.601 903.529 449.31 902.371 449.31C901.171 449.31 900.23 449.573 899.548 450.098C898.866 450.624 898.387 451.185 898.11 451.782L895.724 450.929C896.15 449.935 896.718 449.161 897.428 448.607C898.145 448.046 898.927 447.655 899.772 447.435C900.624 447.208 901.462 447.094 902.286 447.094C902.812 447.094 903.415 447.158 904.097 447.286C904.786 447.407 905.45 447.659 906.089 448.042C906.736 448.426 907.272 449.005 907.698 449.779C908.124 450.553 908.337 451.59 908.337 452.89V463.671H905.823V461.455H905.695C905.525 461.81 905.241 462.19 904.843 462.595C904.445 463 903.916 463.344 903.256 463.628C902.595 463.912 901.789 464.054 900.837 464.054ZM901.221 461.796C902.215 461.796 903.053 461.6 903.735 461.21C904.424 460.819 904.942 460.315 905.29 459.697C905.645 459.079 905.823 458.429 905.823 457.748V455.446C905.716 455.574 905.482 455.691 905.12 455.798C904.765 455.897 904.353 455.986 903.884 456.064C903.422 456.135 902.971 456.199 902.531 456.256C902.098 456.306 901.746 456.348 901.476 456.384C900.823 456.469 900.212 456.608 899.644 456.799C899.083 456.984 898.628 457.265 898.28 457.641C897.939 458.01 897.769 458.515 897.769 459.154C897.769 460.027 898.092 460.688 898.738 461.135C899.392 461.576 900.219 461.796 901.221 461.796ZM919.574 464.012C918.04 464.012 916.719 463.65 915.611 462.925C914.503 462.201 913.651 461.203 913.054 459.931C912.457 458.66 912.159 457.208 912.159 455.574C912.159 453.912 912.464 452.446 913.075 451.174C913.693 449.896 914.553 448.898 915.653 448.181C916.761 447.456 918.054 447.094 919.531 447.094C920.682 447.094 921.719 447.307 922.642 447.733C923.565 448.159 924.322 448.756 924.911 449.523C925.501 450.29 925.866 451.185 926.009 452.208H923.494C923.303 451.462 922.876 450.801 922.216 450.226C921.563 449.644 920.682 449.353 919.574 449.353C918.594 449.353 917.734 449.608 916.996 450.12C916.264 450.624 915.692 451.338 915.281 452.261C914.876 453.177 914.673 454.253 914.673 455.489C914.673 456.753 914.872 457.854 915.27 458.792C915.675 459.729 916.243 460.457 916.974 460.975C917.713 461.494 918.58 461.753 919.574 461.753C920.227 461.753 920.82 461.64 921.353 461.412C921.886 461.185 922.337 460.858 922.706 460.432C923.075 460.006 923.338 459.495 923.494 458.898H926.009C925.866 459.864 925.515 460.734 924.954 461.508C924.4 462.275 923.665 462.886 922.749 463.341C921.839 463.788 920.781 464.012 919.574 464.012ZM936.8 447.307V449.438H928.32V447.307H936.8ZM930.792 443.387H933.306V458.983C933.306 459.694 933.409 460.226 933.615 460.581C933.828 460.929 934.098 461.164 934.425 461.284C934.759 461.398 935.11 461.455 935.479 461.455C935.756 461.455 935.984 461.441 936.161 461.412C936.339 461.377 936.481 461.348 936.587 461.327L937.099 463.586C936.928 463.65 936.69 463.713 936.385 463.777C936.08 463.848 935.692 463.884 935.224 463.884C934.513 463.884 933.817 463.731 933.136 463.426C932.461 463.12 931.9 462.655 931.452 462.03C931.012 461.405 930.792 460.617 930.792 459.665V443.387ZM940.582 463.671V447.307H943.097V463.671H940.582ZM941.861 444.58C941.371 444.58 940.948 444.413 940.593 444.079C940.245 443.745 940.071 443.344 940.071 442.875C940.071 442.407 940.245 442.005 940.593 441.672C940.948 441.338 941.371 441.171 941.861 441.171C942.351 441.171 942.77 441.338 943.118 441.672C943.473 442.005 943.651 442.407 943.651 442.875C943.651 443.344 943.473 443.745 943.118 444.079C942.77 444.413 942.351 444.58 941.861 444.58ZM961.082 447.307L955.031 463.671H952.474L946.423 447.307H949.15L953.667 460.347H953.838L958.355 447.307H961.082ZM970.676 464.012C969.099 464.012 967.739 463.664 966.595 462.968C965.459 462.265 964.582 461.284 963.964 460.027C963.353 458.763 963.048 457.293 963.048 455.617C963.048 453.941 963.353 452.463 963.964 451.185C964.582 449.9 965.441 448.898 966.542 448.181C967.65 447.456 968.943 447.094 970.42 447.094C971.272 447.094 972.114 447.236 972.945 447.52C973.776 447.804 974.532 448.266 975.214 448.905C975.896 449.537 976.439 450.375 976.844 451.419C977.249 452.463 977.451 453.749 977.451 455.276V456.341H964.838V454.168H974.894C974.894 453.245 974.71 452.421 974.34 451.696C973.978 450.972 973.46 450.4 972.785 449.981C972.117 449.562 971.329 449.353 970.42 449.353C969.419 449.353 968.552 449.601 967.82 450.098C967.096 450.588 966.539 451.228 966.148 452.016C965.757 452.804 965.562 453.649 965.562 454.551V456C965.562 457.236 965.775 458.284 966.201 459.143C966.634 459.995 967.235 460.645 968.002 461.093C968.769 461.533 969.66 461.753 970.676 461.753C971.336 461.753 971.933 461.661 972.465 461.476C973.005 461.284 973.47 461 973.861 460.624C974.252 460.24 974.553 459.765 974.767 459.196L977.195 459.878C976.94 460.702 976.51 461.426 975.906 462.051C975.303 462.669 974.557 463.152 973.669 463.5C972.781 463.841 971.784 464.012 970.676 464.012Z" fill="black"/>
<path d="M904.499 175.043L902.24 175.682C902.098 175.306 901.889 174.94 901.612 174.585C901.342 174.223 900.973 173.924 900.504 173.69C900.035 173.456 899.435 173.338 898.703 173.338C897.702 173.338 896.867 173.569 896.2 174.031C895.539 174.485 895.209 175.064 895.209 175.767C895.209 176.392 895.436 176.886 895.891 177.248C896.345 177.61 897.056 177.912 898.022 178.154L900.451 178.75C901.914 179.105 903.004 179.649 903.721 180.38C904.438 181.105 904.797 182.039 904.797 183.182C904.797 184.12 904.527 184.958 903.987 185.696C903.455 186.435 902.709 187.017 901.75 187.443C900.791 187.87 899.676 188.083 898.405 188.083C896.736 188.083 895.355 187.72 894.261 186.996C893.167 186.272 892.475 185.213 892.184 183.821L894.57 183.225C894.797 184.105 895.227 184.766 895.859 185.206C896.498 185.647 897.333 185.867 898.362 185.867C899.534 185.867 900.465 185.618 901.154 185.121C901.85 184.617 902.198 184.013 902.198 183.31C902.198 182.742 901.999 182.266 901.601 181.882C901.203 181.492 900.593 181.201 899.769 181.009L897.041 180.37C895.543 180.014 894.442 179.464 893.739 178.718C893.043 177.965 892.695 177.024 892.695 175.895C892.695 174.972 892.954 174.155 893.473 173.445C893.998 172.735 894.712 172.177 895.614 171.772C896.523 171.367 897.553 171.165 898.703 171.165C900.323 171.165 901.594 171.52 902.517 172.23C903.448 172.941 904.108 173.878 904.499 175.043ZM915.698 171.378V173.509H907.218V171.378H915.698ZM909.69 167.458H912.204V183.054C912.204 183.764 912.307 184.297 912.513 184.652C912.726 185 912.996 185.235 913.323 185.355C913.656 185.469 914.008 185.526 914.377 185.526C914.654 185.526 914.881 185.512 915.059 185.483C915.237 185.448 915.379 185.419 915.485 185.398L915.997 187.657C915.826 187.72 915.588 187.784 915.283 187.848C914.977 187.919 914.59 187.955 914.122 187.955C913.411 187.955 912.715 187.802 912.033 187.497C911.359 187.191 910.798 186.726 910.35 186.101C909.91 185.476 909.69 184.688 909.69 183.736V167.458ZM924.296 188.125C923.259 188.125 922.318 187.93 921.472 187.539C920.627 187.142 919.956 186.57 919.459 185.824C918.962 185.071 918.713 184.162 918.713 183.097C918.713 182.159 918.898 181.399 919.267 180.817C919.636 180.228 920.13 179.766 920.748 179.432C921.366 179.098 922.048 178.85 922.793 178.686C923.546 178.516 924.303 178.381 925.063 178.282C926.057 178.154 926.863 178.058 927.481 177.994C928.106 177.923 928.56 177.806 928.845 177.642C929.136 177.479 929.281 177.195 929.281 176.79V176.705C929.281 175.654 928.994 174.837 928.418 174.255C927.85 173.672 926.987 173.381 925.83 173.381C924.629 173.381 923.688 173.644 923.006 174.169C922.325 174.695 921.845 175.256 921.568 175.853L919.182 175C919.608 174.006 920.176 173.232 920.886 172.678C921.604 172.117 922.385 171.726 923.23 171.506C924.082 171.279 924.921 171.165 925.744 171.165C926.27 171.165 926.874 171.229 927.555 171.357C928.244 171.478 928.908 171.73 929.548 172.113C930.194 172.497 930.73 173.076 931.156 173.85C931.582 174.624 931.796 175.661 931.796 176.961V187.742H929.281V185.526H929.154C928.983 185.881 928.699 186.261 928.301 186.666C927.904 187.071 927.374 187.415 926.714 187.699C926.053 187.983 925.247 188.125 924.296 188.125ZM924.679 185.867C925.673 185.867 926.511 185.671 927.193 185.281C927.882 184.89 928.401 184.386 928.749 183.768C929.104 183.15 929.281 182.5 929.281 181.818V179.517C929.175 179.645 928.94 179.762 928.578 179.869C928.223 179.968 927.811 180.057 927.342 180.135C926.881 180.206 926.43 180.27 925.989 180.327C925.556 180.377 925.205 180.419 924.935 180.455C924.281 180.54 923.671 180.679 923.102 180.87C922.541 181.055 922.087 181.336 921.739 181.712C921.398 182.081 921.227 182.586 921.227 183.225C921.227 184.098 921.551 184.759 922.197 185.206C922.85 185.647 923.678 185.867 924.679 185.867ZM943.501 171.378V173.509H935.021V171.378H943.501ZM937.492 167.458H940.007V183.054C940.007 183.764 940.11 184.297 940.316 184.652C940.529 185 940.799 185.235 941.125 185.355C941.459 185.469 941.811 185.526 942.18 185.526C942.457 185.526 942.684 185.512 942.862 185.483C943.039 185.448 943.181 185.419 943.288 185.398L943.799 187.657C943.629 187.72 943.391 187.784 943.086 187.848C942.78 187.919 942.393 187.955 941.924 187.955C941.214 187.955 940.518 187.802 939.836 187.497C939.161 187.191 938.6 186.726 938.153 186.101C937.713 185.476 937.492 184.688 937.492 183.736V167.458ZM953.968 188.083C952.391 188.083 951.031 187.735 949.888 187.039C948.751 186.336 947.874 185.355 947.256 184.098C946.646 182.834 946.34 181.364 946.34 179.688C946.34 178.012 946.646 176.534 947.256 175.256C947.874 173.97 948.734 172.969 949.834 172.252C950.942 171.527 952.235 171.165 953.712 171.165C954.565 171.165 955.406 171.307 956.237 171.591C957.068 171.875 957.824 172.337 958.506 172.976C959.188 173.608 959.731 174.446 960.136 175.49C960.541 176.534 960.744 177.82 960.744 179.347V180.412H948.13V178.239H958.187C958.187 177.316 958.002 176.492 957.633 175.767C957.271 175.043 956.752 174.471 956.077 174.052C955.41 173.633 954.621 173.424 953.712 173.424C952.711 173.424 951.844 173.672 951.113 174.169C950.388 174.659 949.831 175.299 949.44 176.087C949.05 176.875 948.854 177.72 948.854 178.622V180.071C948.854 181.307 949.067 182.355 949.494 183.214C949.927 184.066 950.527 184.716 951.294 185.164C952.061 185.604 952.952 185.824 953.968 185.824C954.628 185.824 955.225 185.732 955.758 185.547C956.298 185.355 956.763 185.071 957.153 184.695C957.544 184.311 957.846 183.836 958.059 183.267L960.488 183.949C960.232 184.773 959.802 185.497 959.199 186.122C958.595 186.74 957.849 187.223 956.962 187.571C956.074 187.912 955.076 188.083 953.968 188.083Z" fill="black"/>
<path d="M548.252 172.136V193.954H545.695L533.806 176.823H533.593V193.954H530.951V172.136H533.508L545.44 189.309H545.653V172.136H548.252ZM563.511 187.264V177.59H566.025V193.954H563.511V191.184H563.34C562.957 192.015 562.36 192.722 561.55 193.304C560.741 193.879 559.718 194.167 558.482 194.167C557.459 194.167 556.55 193.943 555.755 193.496C554.959 193.041 554.334 192.36 553.88 191.45C553.425 190.534 553.198 189.38 553.198 187.988V177.59H555.712V187.818C555.712 189.011 556.046 189.963 556.714 190.673C557.388 191.383 558.248 191.738 559.292 191.738C559.917 191.738 560.553 191.578 561.199 191.259C561.852 190.939 562.399 190.449 562.839 189.788C563.287 189.128 563.511 188.286 563.511 187.264ZM570.63 193.954V177.59H573.059V180.147H573.272C573.613 179.274 574.163 178.595 574.923 178.112C575.683 177.622 576.596 177.377 577.661 177.377C578.741 177.377 579.639 177.622 580.356 178.112C581.081 178.595 581.645 179.274 582.05 180.147H582.221C582.64 179.302 583.268 178.631 584.106 178.134C584.944 177.629 585.949 177.377 587.121 177.377C588.584 177.377 589.781 177.835 590.711 178.752C591.642 179.661 592.107 181.078 592.107 183.002V193.954H589.593V183.002C589.593 181.795 589.263 180.932 588.602 180.413C587.942 179.895 587.164 179.636 586.269 179.636C585.118 179.636 584.227 179.984 583.595 180.68C582.963 181.369 582.647 182.242 582.647 183.301V193.954H580.09V182.747C580.09 181.816 579.788 181.067 579.184 180.499C578.581 179.923 577.803 179.636 576.851 179.636C576.198 179.636 575.587 179.81 575.019 180.158C574.458 180.506 574.003 180.989 573.655 181.607C573.314 182.217 573.144 182.924 573.144 183.727V193.954H570.63ZM597.045 193.954V172.136H599.559V180.19H599.772C599.957 179.906 600.212 179.543 600.539 179.103C600.873 178.656 601.349 178.258 601.967 177.91C602.592 177.555 603.437 177.377 604.502 177.377C605.88 177.377 607.095 177.722 608.146 178.411C609.197 179.1 610.017 180.076 610.607 181.34C611.196 182.605 611.491 184.096 611.491 185.815C611.491 187.548 611.196 189.05 610.607 190.321C610.017 191.585 609.2 192.565 608.156 193.262C607.112 193.95 605.909 194.295 604.545 194.295C603.494 194.295 602.652 194.121 602.02 193.773C601.388 193.418 600.901 193.016 600.561 192.569C600.22 192.114 599.957 191.738 599.772 191.44H599.474V193.954H597.045ZM599.516 185.772C599.516 187.008 599.698 188.098 600.06 189.043C600.422 189.98 600.951 190.715 601.647 191.248C602.343 191.774 603.195 192.036 604.204 192.036C605.255 192.036 606.132 191.759 606.835 191.205C607.546 190.644 608.078 189.891 608.433 188.947C608.796 187.995 608.977 186.937 608.977 185.772C608.977 184.622 608.799 183.585 608.444 182.661C608.096 181.731 607.567 180.996 606.857 180.456C606.154 179.909 605.269 179.636 604.204 179.636C603.181 179.636 602.322 179.895 601.626 180.413C600.93 180.925 600.404 181.642 600.049 182.565C599.694 183.482 599.516 184.551 599.516 185.772ZM622.198 194.295C620.621 194.295 619.261 193.947 618.117 193.251C616.981 192.548 616.104 191.568 615.486 190.311C614.875 189.046 614.57 187.576 614.57 185.9C614.57 184.224 614.875 182.747 615.486 181.468C616.104 180.183 616.963 179.181 618.064 178.464C619.172 177.739 620.465 177.377 621.942 177.377C622.794 177.377 623.636 177.519 624.467 177.803C625.298 178.088 626.054 178.549 626.736 179.188C627.418 179.82 627.961 180.659 628.366 181.703C628.771 182.747 628.973 184.032 628.973 185.559V186.624H616.36V184.451H626.416C626.416 183.528 626.232 182.704 625.862 181.98C625.5 181.255 624.982 180.683 624.307 180.264C623.639 179.845 622.851 179.636 621.942 179.636C620.94 179.636 620.074 179.884 619.342 180.382C618.618 180.872 618.061 181.511 617.67 182.299C617.279 183.088 617.084 183.933 617.084 184.835V186.284C617.084 187.519 617.297 188.567 617.723 189.426C618.156 190.279 618.757 190.928 619.524 191.376C620.291 191.816 621.182 192.036 622.198 192.036C622.858 192.036 623.455 191.944 623.987 191.759C624.527 191.568 624.992 191.284 625.383 190.907C625.774 190.524 626.075 190.048 626.288 189.48L628.717 190.161C628.462 190.985 628.032 191.71 627.428 192.335C626.825 192.953 626.079 193.436 625.191 193.784C624.303 194.124 623.306 194.295 622.198 194.295ZM632.798 193.954V177.59H635.227V180.062H635.397C635.695 179.252 636.235 178.595 637.016 178.091C637.798 177.587 638.678 177.335 639.659 177.335C639.843 177.335 640.074 177.338 640.351 177.345C640.628 177.352 640.837 177.363 640.98 177.377V179.934C640.894 179.913 640.699 179.881 640.394 179.838C640.095 179.788 639.779 179.764 639.445 179.764C638.65 179.764 637.94 179.931 637.315 180.264C636.697 180.591 636.207 181.046 635.845 181.628C635.489 182.203 635.312 182.86 635.312 183.599V193.954H632.798Z" fill="black"/>
<path d="M230.862 181.711V191.555H228.348V175.191H230.777V177.748H230.99C231.373 176.917 231.956 176.25 232.737 175.745C233.518 175.234 234.527 174.978 235.762 174.978C236.87 174.978 237.84 175.206 238.671 175.66C239.502 176.108 240.148 176.789 240.61 177.706C241.071 178.615 241.302 179.765 241.302 181.157V191.555H238.788V181.328C238.788 180.042 238.454 179.041 237.787 178.324C237.119 177.599 236.203 177.237 235.038 177.237C234.235 177.237 233.518 177.411 232.886 177.759C232.261 178.107 231.767 178.615 231.405 179.282C231.043 179.95 230.862 180.76 230.862 181.711ZM250.712 191.939C249.675 191.939 248.734 191.743 247.889 191.353C247.043 190.955 246.372 190.383 245.875 189.637C245.378 188.885 245.129 187.976 245.129 186.91C245.129 185.973 245.314 185.213 245.683 184.63C246.053 184.041 246.546 183.579 247.164 183.245C247.782 182.912 248.464 182.663 249.21 182.5C249.963 182.329 250.719 182.194 251.479 182.095C252.473 181.967 253.279 181.871 253.897 181.807C254.522 181.736 254.977 181.619 255.261 181.456C255.552 181.292 255.698 181.008 255.698 180.603V180.518C255.698 179.467 255.41 178.65 254.835 178.068C254.267 177.485 253.404 177.194 252.246 177.194C251.046 177.194 250.105 177.457 249.423 177.983C248.741 178.508 248.262 179.069 247.985 179.666L245.598 178.814C246.024 177.819 246.592 177.045 247.303 176.491C248.02 175.93 248.801 175.539 249.646 175.319C250.499 175.092 251.337 174.978 252.161 174.978C252.686 174.978 253.29 175.042 253.972 175.17C254.661 175.291 255.325 175.543 255.964 175.927C256.61 176.31 257.146 176.889 257.573 177.663C257.999 178.437 258.212 179.474 258.212 180.774V191.555H255.698V189.339H255.57C255.399 189.694 255.115 190.074 254.717 190.479C254.32 190.884 253.791 191.228 253.13 191.512C252.47 191.797 251.664 191.939 250.712 191.939ZM251.095 189.68C252.09 189.68 252.928 189.485 253.61 189.094C254.298 188.704 254.817 188.199 255.165 187.581C255.52 186.963 255.698 186.314 255.698 185.632V183.331C255.591 183.458 255.357 183.576 254.994 183.682C254.639 183.782 254.227 183.87 253.759 183.949C253.297 184.02 252.846 184.083 252.406 184.14C251.972 184.19 251.621 184.233 251.351 184.268C250.698 184.353 250.087 184.492 249.519 184.684C248.958 184.868 248.503 185.149 248.155 185.525C247.814 185.895 247.644 186.399 247.644 187.038C247.644 187.912 247.967 188.572 248.613 189.02C249.267 189.46 250.094 189.68 251.095 189.68ZM262.801 191.555V175.191H265.23V177.748H265.443C265.784 176.875 266.334 176.196 267.094 175.713C267.854 175.223 268.767 174.978 269.832 174.978C270.912 174.978 271.81 175.223 272.527 175.713C273.252 176.196 273.816 176.875 274.221 177.748H274.392C274.811 176.903 275.439 176.232 276.277 175.735C277.115 175.23 278.12 174.978 279.292 174.978C280.755 174.978 281.952 175.436 282.882 176.353C283.813 177.262 284.278 178.679 284.278 180.603V191.555H281.764V180.603C281.764 179.396 281.434 178.533 280.773 178.015C280.113 177.496 279.335 177.237 278.44 177.237C277.289 177.237 276.398 177.585 275.766 178.281C275.134 178.97 274.818 179.843 274.818 180.902V191.555H272.261V180.348C272.261 179.417 271.959 178.668 271.355 178.1C270.752 177.525 269.974 177.237 269.022 177.237C268.369 177.237 267.758 177.411 267.19 177.759C266.629 178.107 266.174 178.59 265.826 179.208C265.485 179.819 265.315 180.525 265.315 181.328V191.555H262.801ZM295.736 191.896C294.159 191.896 292.799 191.548 291.656 190.852C290.519 190.149 289.642 189.169 289.024 187.912C288.413 186.647 288.108 185.177 288.108 183.501C288.108 181.825 288.413 180.348 289.024 179.069C289.642 177.784 290.501 176.782 291.602 176.065C292.71 175.341 294.003 174.978 295.48 174.978C296.332 174.978 297.174 175.12 298.005 175.404C298.836 175.689 299.592 176.15 300.274 176.789C300.956 177.422 301.499 178.26 301.904 179.304C302.309 180.348 302.511 181.633 302.511 183.16V184.226H289.898V182.052H299.955C299.955 181.129 299.77 180.305 299.401 179.581C299.038 178.856 298.52 178.284 297.845 177.865C297.178 177.446 296.389 177.237 295.48 177.237C294.479 177.237 293.612 177.485 292.881 177.983C292.156 178.473 291.599 179.112 291.208 179.9C290.817 180.689 290.622 181.534 290.622 182.436V183.885C290.622 185.12 290.835 186.168 291.261 187.027C291.695 187.88 292.295 188.53 293.062 188.977C293.829 189.417 294.72 189.637 295.736 189.637C296.396 189.637 296.993 189.545 297.526 189.36C298.065 189.169 298.531 188.885 298.921 188.508C299.312 188.125 299.614 187.649 299.827 187.081L302.256 187.762C302 188.586 301.57 189.311 300.967 189.936C300.363 190.554 299.617 191.037 298.729 191.385C297.842 191.726 296.844 191.896 295.736 191.896Z" fill="black"/>
<path d="M511.63 36.7016L897.638 40.6358L883.916 88.9259L515.78 84.5119" fill="#CED4DA"/>
<path d="M499.179 30.8482C587.051 42.2431 663.265 24.779 881.565 37.1814M507.24 31.352C634.142 22.3801 761.572 22.8119 887.515 30.8962M897.686 35.0943C892.72 51.167 887.971 62.3459 892.313 90.2213M893.08 32.6954C887.803 50.5193 884.54 72.4453 887.083 94.9951M891.425 96.5544C757.662 87.5345 639.54 88.638 513.453 89.3097M886.627 89.1417C783.834 94.8032 685.239 96.6503 510.142 90.6531M506.208 84.2C511.27 65.2966 498.963 41.9792 515.636 26.5782M508.271 95.8107C511.63 70.4782 511.462 42.9627 505.608 30.7043" stroke="black" stroke-linecap="round"/>
<path d="M851.308 47.1223C852.1 52.328 851.308 66.3616 851.092 71.7111M846.102 43.5C845.958 49.8811 845.863 74.9737 845.695 79.1718" stroke="black" stroke-linecap="round"/>
<path fill-rule="evenodd" clip-rule="evenodd" d="M851.092 71.6391L831.397 67.1772L843.512 66.3855L841.329 79.2197" fill="black"/>
<path d="M847.71 79.1477C842.744 74.3019 844.231 70.5596 838.282 61.8276M846.462 78.6679C842.744 76.0531 841.569 71.855 837.682 64.8742M839.769 62.5233C841.545 65.0421 848.238 63.4829 854.259 65.378M840.201 63.5068C843.488 65.354 847.302 66.2896 851.38 64.6823M851.884 66.7454C848.166 69.696 847.734 77.1087 845.671 80.1073M854.091 64.3225C850.229 67.0092 849.053 70.7036 844.807 80.1793" stroke="black" stroke-linecap="round"/>
<path d="M205.002 45.7077H207.644V60.1537C207.644 61.6452 207.292 62.9769 206.589 64.1487C205.893 65.3135 204.909 66.2332 203.638 66.908C202.367 67.5756 200.875 67.9094 199.164 67.9094C197.452 67.9094 195.96 67.5756 194.689 66.908C193.418 66.2332 192.431 65.3135 191.727 64.1487C191.031 62.9769 190.683 61.6452 190.683 60.1537V45.7077H193.325V59.9406C193.325 61.006 193.56 61.9541 194.029 62.7851C194.497 63.609 195.165 64.2588 196.031 64.7347C196.905 65.2034 197.949 65.4378 199.164 65.4378C200.378 65.4378 201.422 65.2034 202.296 64.7347C203.169 64.2588 203.837 63.609 204.298 62.7851C204.767 61.9541 205.002 61.006 205.002 59.9406V45.7077ZM224.17 54.827L221.911 55.4662C221.769 55.0898 221.56 54.724 221.283 54.3689C221.013 54.0067 220.643 53.7084 220.175 53.474C219.706 53.2396 219.106 53.1225 218.374 53.1225C217.373 53.1225 216.538 53.3533 215.871 53.8149C215.21 54.2695 214.88 54.8483 214.88 55.5514C214.88 56.1764 215.107 56.67 215.562 57.0323C216.016 57.3945 216.727 57.6963 217.692 57.9378L220.121 58.5344C221.585 58.8895 222.675 59.4328 223.392 60.1644C224.109 60.8888 224.468 61.8227 224.468 62.9662C224.468 63.9037 224.198 64.7418 223.658 65.4804C223.126 66.219 222.38 66.8014 221.421 67.2276C220.462 67.6537 219.347 67.8668 218.076 67.8668C216.407 67.8668 215.026 67.5046 213.932 66.7801C212.838 66.0557 212.146 64.9975 211.854 63.6054L214.241 63.0088C214.468 63.8895 214.898 64.55 215.53 64.9904C216.169 65.4307 217.004 65.6509 218.033 65.6509C219.205 65.6509 220.136 65.4023 220.825 64.9051C221.521 64.4009 221.869 63.7972 221.869 63.094C221.869 62.5259 221.67 62.05 221.272 61.6665C220.874 61.2759 220.264 60.9847 219.44 60.7929L216.712 60.1537C215.214 59.7986 214.113 59.2482 213.41 58.5024C212.714 57.7496 212.366 56.8085 212.366 55.6793C212.366 54.756 212.625 53.9392 213.143 53.229C213.669 52.5188 214.383 51.9612 215.285 51.5564C216.194 51.1516 217.224 50.9492 218.374 50.9492C219.994 50.9492 221.265 51.3043 222.188 52.0145C223.119 52.7247 223.779 53.6622 224.17 54.827ZM235.113 67.8668C233.537 67.8668 232.177 67.5188 231.033 66.8227C229.897 66.1196 229.02 65.1395 228.402 63.8824C227.791 62.6182 227.486 61.148 227.486 59.4719C227.486 57.7957 227.791 56.3185 228.402 55.0401C229.02 53.7546 229.879 52.7531 230.98 52.0358C232.088 51.3114 233.381 50.9492 234.858 50.9492C235.71 50.9492 236.552 51.0912 237.383 51.3753C238.214 51.6594 238.97 52.121 239.652 52.7602C240.334 53.3923 240.877 54.2304 241.282 55.2744C241.687 56.3185 241.889 57.604 241.889 59.131V60.1963H229.275V58.023H239.332C239.332 57.0997 239.148 56.2759 238.778 55.5514C238.416 54.827 237.898 54.2553 237.223 53.8362C236.555 53.4172 235.767 53.2077 234.858 53.2077C233.856 53.2077 232.99 53.4563 232.258 53.9534C231.534 54.4435 230.976 55.0827 230.586 55.871C230.195 56.6594 230 57.5046 230 58.4065V59.8554C230 61.0912 230.213 62.1388 230.639 62.9982C231.072 63.8504 231.672 64.5003 232.439 64.9477C233.207 65.3881 234.098 65.6083 235.113 65.6083C235.774 65.6083 236.371 65.5159 236.903 65.3313C237.443 65.1395 237.908 64.8554 238.299 64.479C238.689 64.0955 238.991 63.6196 239.204 63.0514L241.633 63.7333C241.378 64.5571 240.948 65.2815 240.344 65.9065C239.741 66.5244 238.995 67.0074 238.107 67.3554C237.219 67.6963 236.221 67.8668 235.113 67.8668ZM245.714 67.5259V51.1622H248.143V53.6338H248.313C248.611 52.8242 249.151 52.1672 249.932 51.6629C250.714 51.1587 251.594 50.9065 252.574 50.9065C252.759 50.9065 252.99 50.9101 253.267 50.9172C253.544 50.9243 253.753 50.935 253.895 50.9492V53.506C253.81 53.4847 253.615 53.4527 253.309 53.4101C253.011 53.3604 252.695 53.3355 252.361 53.3355C251.566 53.3355 250.856 53.5024 250.231 53.8362C249.613 54.1629 249.123 54.6175 248.76 55.1999C248.405 55.7752 248.228 56.4321 248.228 57.1707V67.5259H245.714ZM264.461 48.0514V45.7077H280.825V48.0514H273.964V67.5259H271.322V48.0514H264.461ZM284.306 73.6622C283.879 73.6622 283.499 73.6267 283.166 73.5557C282.832 73.4918 282.601 73.4279 282.473 73.3639L283.112 71.148C283.723 71.3043 284.263 71.3611 284.732 71.3185C285.2 71.2759 285.616 71.0663 285.978 70.6899C286.347 70.3206 286.685 69.7205 286.99 68.8895L287.459 67.6111L281.408 51.1622H284.135L288.652 64.202H288.823L293.34 51.1622H296.067L289.121 69.9122C288.808 70.7574 288.421 71.457 287.96 72.0109C287.498 72.572 286.962 72.9875 286.351 73.2574C285.747 73.5273 285.066 73.6622 284.306 73.6622ZM299.385 73.6622V51.1622H301.814V53.7617H302.113C302.297 53.4776 302.553 53.1154 302.88 52.675C303.214 52.2276 303.689 51.8298 304.307 51.4818C304.932 51.1267 305.778 50.9492 306.843 50.9492C308.221 50.9492 309.435 51.2936 310.486 51.9825C311.537 52.6715 312.358 53.648 312.947 54.9122C313.537 56.1764 313.832 57.6679 313.832 59.3867C313.832 61.1196 313.537 62.6217 312.947 63.8931C312.358 65.1573 311.541 66.1374 310.497 66.8334C309.453 67.5223 308.249 67.8668 306.885 67.8668C305.834 67.8668 304.993 67.6928 304.361 67.3448C303.729 66.9896 303.242 66.5884 302.901 66.1409C302.56 65.6864 302.297 65.31 302.113 65.0117H301.9V73.6622H299.385ZM301.857 59.344C301.857 60.5798 302.038 61.67 302.4 62.6146C302.763 63.5521 303.292 64.2872 303.988 64.8199C304.684 65.3455 305.536 65.6083 306.545 65.6083C307.596 65.6083 308.473 65.3313 309.176 64.7773C309.886 64.2162 310.419 63.4634 310.774 62.5188C311.136 61.5671 311.317 60.5088 311.317 59.344C311.317 58.1935 311.14 57.1565 310.785 56.2332C310.437 55.3029 309.908 54.5678 309.197 54.028C308.494 53.4811 307.61 53.2077 306.545 53.2077C305.522 53.2077 304.662 53.4669 303.966 53.9854C303.27 54.4967 302.745 55.2141 302.39 56.1374C302.035 57.0536 301.857 58.1225 301.857 59.344ZM324.528 67.8668C322.951 67.8668 321.591 67.5188 320.447 66.8227C319.311 66.1196 318.434 65.1395 317.816 63.8824C317.205 62.6182 316.9 61.148 316.9 59.4719C316.9 57.7957 317.205 56.3185 317.816 55.0401C318.434 53.7546 319.293 52.7531 320.394 52.0358C321.502 51.3114 322.795 50.9492 324.272 50.9492C325.124 50.9492 325.966 51.0912 326.797 51.3753C327.628 51.6594 328.384 52.121 329.066 52.7602C329.748 53.3923 330.291 54.2304 330.696 55.2744C331.101 56.3185 331.303 57.604 331.303 59.131V60.1963H318.689V58.023H328.746C328.746 57.0997 328.562 56.2759 328.192 55.5514C327.83 54.827 327.312 54.2553 326.637 53.8362C325.969 53.4172 325.181 53.2077 324.272 53.2077C323.27 53.2077 322.404 53.4563 321.672 53.9534C320.948 54.4435 320.39 55.0827 320 55.871C319.609 56.6594 319.414 57.5046 319.414 58.4065V59.8554C319.414 61.0912 319.627 62.1388 320.053 62.9982C320.486 63.8504 321.086 64.5003 321.854 64.9477C322.621 65.3881 323.512 65.6083 324.528 65.6083C325.188 65.6083 325.785 65.5159 326.317 65.3313C326.857 65.1395 327.322 64.8554 327.713 64.479C328.104 64.0955 328.405 63.6196 328.618 63.0514L331.047 63.7333C330.792 64.5571 330.362 65.2815 329.758 65.9065C329.155 66.5244 328.409 67.0074 327.521 67.3554C326.633 67.6963 325.635 67.8668 324.528 67.8668Z" fill="black"/>
<path d="M400.94 167.821C400.293 250.015 401.084 578.6 401.492 663.834M410.68 149.584C412.167 234.564 416.365 601.144 414.158 684.541" stroke="black" stroke-linecap="round"/>
<path d="M770.157 165.621C769.581 248.375 777.449 570.151 777.473 651.108M779.848 149.584C778.025 234.967 772.388 579.838 773.035 665.349" stroke="black" stroke-linecap="round"/>
</svg>
