<svg width="266" height="502" viewBox="0 0 266 502" fill="none" xmlns="http://www.w3.org/2000/svg">
<path d="M23.0628 196.328C29.3929 181.887 32.1442 172.614 42.0739 156.196M23.0628 196.328C27.8 184.699 33.5923 174.02 42.0739 156.196M22.5249 220.651C34.5025 202.903 44.0391 175.312 55.1065 151.825M22.5249 220.651C30.3652 198.381 42.8393 176.262 55.1065 151.825M23.3524 242.086C32.7028 216.129 50.6382 180.1 66.7739 150.305M23.3524 242.086C35.4127 212.974 51.2588 189.868 66.7739 150.305M22.8145 266.409C34.8335 246.152 43.253 216.129 77.0965 151.673M22.8145 266.409C39.1157 233.079 50.1624 203.891 77.0965 151.673M23.6213 287.843C47.349 240.147 69.2149 190.4 88.7639 150.191M23.6213 287.843C35.33 255.805 52.5621 227.226 88.7639 150.191M23.0834 312.166C45.632 266.561 66.1739 218.979 99.0866 151.559M23.0834 312.166C43.7495 266.029 66.4222 222.855 99.0866 151.559M22.5456 336.489C57.6303 263.178 94.8871 195.15 110.754 150.039M22.5456 336.489C46.3974 281.458 71.8007 224.338 110.754 150.039M26.0623 352.185C63.8777 281.8 100.204 199.483 121.077 151.407M26.0623 352.185C44.7632 310.798 66.0912 262 121.077 151.407M28.2344 370.769C65.6568 285.145 101.01 213.468 132.744 149.925M28.2344 370.769C67.0635 292.936 103.555 212.442 132.744 149.925M34.4818 380.764C67.9116 325.468 95.1561 260.594 143.067 151.293M34.4818 380.764C78.5446 287.463 121.801 199.901 143.067 151.293M43.4392 384.983C66.898 332.916 95.425 275.454 154.734 149.773M43.4392 384.983C82.5992 298.294 122.152 209.63 154.734 149.773M52.3966 389.201C100.452 289.819 142.736 201.459 165.057 151.141M52.3966 389.201C92.2599 309.43 133.344 222.323 165.057 151.141M58.644 399.196C88.0398 344.622 110.671 280.622 176.724 149.659M58.644 399.196C84.2335 346.636 106.451 293.658 176.724 149.659M70.332 397.676C112.802 308.632 159.264 210.77 187.047 151.027M70.332 397.676C105.52 327.862 134.999 266.067 187.047 151.027M80.634 399.044C122.897 307.073 159.802 219.777 198.714 149.507M80.634 399.044C119.132 324.289 152.272 243.53 198.714 149.507M92.322 397.562C125.586 331.814 152.189 269.677 209.037 150.875M92.322 397.562C137.481 302.513 182.578 204.271 209.037 150.875M102.624 398.93C132.165 332.27 157.94 279.406 219.359 152.281M102.624 398.93C129.662 346.256 155.251 292.062 219.359 152.281M114.312 397.448C148.693 329.61 180.799 244.898 228.317 156.5M114.312 397.448C150.183 323.035 187.709 240.946 228.317 156.5M124.614 398.816C161.023 316.574 203.493 237.943 238.619 157.868M124.614 398.816C152.893 338.237 179.848 277.544 238.619 157.868M136.302 397.296C160.94 352.755 187.564 287.235 244.866 167.825M136.302 397.296C177.014 306.161 216.711 218.409 244.866 167.825M146.604 398.664C182.764 329.876 208.975 267.321 251.113 177.82M146.604 398.664C169.69 348.84 188.97 305.363 251.113 177.82M158.292 397.182C188.598 346.408 206.43 284.575 251.941 199.255M158.292 397.182C183.613 340.099 209.057 284.803 251.941 199.255M168.594 398.55C183.778 351.425 205.044 317.715 252.748 220.689M168.594 398.55C189.219 349.296 212.822 299.13 252.748 220.689M180.282 397.03C206.058 330.826 239.488 278.836 252.21 245.012M180.282 397.03C205.292 337.819 235.805 288.033 252.21 245.012M190.584 398.398C215.16 347.7 239.632 303.273 253.017 266.485M190.584 398.398C209.699 353.591 229.992 314.522 253.017 266.485M202.272 396.916C218.946 375.177 229.765 332.498 252.479 290.769M202.272 396.916C212.822 372.441 226.807 349.562 252.479 290.769M216.649 389.657C227.262 367.538 235.536 342.95 253.306 312.242M216.649 389.657C223.807 369.743 231.254 352.755 253.306 312.242M231.047 382.436C237.502 363.168 248.155 354.845 254.113 333.677M231.047 382.436C239.322 364.384 244.473 354.807 254.113 333.677" stroke="#CED4DA" stroke-width="0.5" stroke-linecap="round"/>
<path d="M53.2241 146.543C100.742 141.108 145.921 154.41 216.836 146.543M53.2241 146.543C98.1971 144.642 148.569 147.759 216.836 146.543M216.836 146.543C234.957 141.868 250.079 169.383 249.79 207.084M216.836 146.543C235.33 150.761 251.072 162.428 249.79 207.084M249.79 207.084C248.052 253.677 250.741 295.558 249.79 328.128M249.79 207.084C247.845 243.53 247.307 270.817 249.79 328.128M249.79 328.128C247.514 363.206 242.86 388.479 216.836 388.631M249.79 328.128C246.252 370.617 242.591 383.424 216.836 388.631M216.836 388.631C156.513 396.004 97.9488 384.717 53.2241 388.631M216.836 388.631C163.36 383.462 108.478 386.123 53.2241 388.631M53.2241 388.631C27.3863 389.049 22.4836 373.277 20.2701 328.128M53.2241 388.631C32.9304 391.747 20.9321 376.014 20.2701 328.128M20.2701 328.128C18.098 289.325 18.1394 244.518 20.2701 207.084M20.2701 328.128C22.4008 283.511 20.3735 239.464 20.2701 207.084M20.2701 207.084C22.194 170.447 28.0069 146.353 53.2241 146.543M20.2701 207.084C15.6776 168.281 35.268 145.858 53.2241 146.543" stroke="black" stroke-linecap="round"/>
<path d="M25.0628 421.677C31.3929 417.87 34.1442 415.425 44.0739 411.096M25.0628 421.677C29.8 418.611 35.5923 415.796 44.0739 411.096M24.5249 428.09C36.5025 423.411 46.0391 416.136 57.1065 409.944M24.5249 428.09C32.3652 422.218 44.8393 416.387 57.1065 409.944M25.3524 433.741C34.7028 426.898 52.6382 417.399 68.7739 409.543M25.3524 433.741C37.4127 426.066 53.2588 419.974 68.7739 409.543M24.8145 440.154C36.8335 434.813 45.253 426.898 79.0965 409.904M24.8145 440.154C41.1157 431.367 52.1624 423.671 79.0965 409.904M25.6213 445.805C49.349 433.23 71.2149 420.114 90.7639 409.513M25.6213 445.805C37.33 437.359 54.5621 429.824 90.7639 409.513M25.0834 452.218C47.632 440.194 68.1739 427.649 101.087 409.874M25.0834 452.218C45.7495 440.054 68.4222 428.671 101.087 409.874M24.5456 458.631C59.6303 439.302 96.8871 421.367 112.754 409.473M24.5456 458.631C48.3974 444.122 73.8007 429.062 112.754 409.473M28.0623 462.769C65.8777 444.212 102.204 422.509 123.077 409.834M28.0623 462.769C46.7632 451.857 68.0912 438.992 123.077 409.834M30.2344 467.669C67.6568 445.094 103.01 426.196 134.744 409.443M30.2344 467.669C69.0635 447.148 105.555 425.926 134.744 409.443M36.4818 470.304C69.9116 455.725 97.1561 438.621 145.067 409.804M36.4818 470.304C80.5446 445.705 123.801 422.619 145.067 409.804M45.4392 471.416C68.898 457.689 97.425 442.539 156.734 409.403M45.4392 471.416C84.5992 448.561 124.152 425.184 156.734 409.403M54.3966 472.528C102.452 446.326 144.736 423.03 167.057 409.764M54.3966 472.528C94.2599 451.497 135.344 428.531 167.057 409.764M60.644 475.164C90.0398 460.775 112.671 443.902 178.724 409.373M60.644 475.164C86.2335 461.306 108.451 447.338 178.724 409.373M72.332 474.763C114.802 451.286 161.264 425.485 189.047 409.734M72.332 474.763C107.52 456.356 136.999 440.064 189.047 409.734M82.634 475.124C124.897 450.875 161.802 427.86 200.714 409.333M82.634 475.124C121.132 455.414 154.272 434.122 200.714 409.333M94.322 474.733C127.586 457.398 154.189 441.016 211.037 409.694M94.322 474.733C139.481 449.673 184.578 423.772 211.037 409.694M104.624 475.094C134.165 457.519 159.94 443.581 221.359 410.064M104.624 475.094C131.662 461.206 157.251 446.918 221.359 410.064M116.312 474.703C150.693 456.817 182.799 434.483 230.317 411.176M116.312 474.703C152.183 455.084 189.709 433.441 230.317 411.176M126.614 475.063C163.023 453.38 205.493 432.649 240.619 411.537M126.614 475.063C154.893 459.092 181.848 443.09 240.619 411.537M138.302 474.663C162.94 462.919 189.564 445.645 246.866 414.162M138.302 474.663C179.014 450.635 218.711 427.499 246.866 414.162M148.604 475.023C184.764 456.887 210.975 440.395 253.113 416.798M148.604 475.023C171.69 461.887 190.97 450.424 253.113 416.798M160.292 474.633C190.598 461.246 208.43 444.944 253.941 422.449M160.292 474.633C185.613 459.583 211.057 445.004 253.941 422.449M170.594 474.993C185.778 462.569 207.044 453.681 254.748 428.1M170.594 474.993C191.219 462.008 214.822 448.781 254.748 428.1M182.282 474.593C208.058 457.138 241.488 443.431 254.21 434.513M182.282 474.593C207.292 458.981 237.805 445.855 254.21 434.513M192.584 474.953C217.16 461.587 241.632 449.873 255.017 440.174M192.584 474.953C211.699 463.14 231.992 452.839 255.017 440.174M204.272 474.562C220.946 468.831 231.765 457.579 254.479 446.577M204.272 474.562C214.822 468.11 228.807 462.078 254.479 446.577M218.649 472.649C229.262 466.817 237.536 460.334 255.306 452.238M218.649 472.649C225.807 467.398 233.254 462.919 255.306 452.238M233.047 470.745C239.502 465.665 250.155 463.47 256.113 457.889M233.047 470.745C241.322 465.985 246.473 463.46 256.113 457.889" stroke="#CED4DA" stroke-width="0.5" stroke-linecap="round"/>
<path d="M55.2241 408.551C102.742 407.118 147.921 410.625 218.836 408.551M55.2241 408.551C100.197 408.05 150.569 408.872 218.836 408.551M218.836 408.551C236.957 407.319 252.079 414.573 251.79 424.513M218.836 408.551C237.33 409.663 253.072 412.74 251.79 424.513M251.79 424.513C250.052 436.797 252.741 447.839 251.79 456.426M251.79 424.513C249.845 434.122 249.307 441.316 251.79 456.426M251.79 456.426C249.514 465.675 244.86 472.338 218.836 472.378M251.79 456.426C248.252 467.629 244.591 471.005 218.836 472.378M218.836 472.378C158.513 474.322 99.9488 471.346 55.2241 472.378M218.836 472.378C165.36 471.015 110.478 471.717 55.2241 472.378M55.2241 472.378C29.3863 472.488 24.4836 468.33 22.2701 456.426M55.2241 472.378C34.9304 473.2 22.9321 469.051 22.2701 456.426M22.2701 456.426C20.098 446.196 20.1394 434.383 22.2701 424.513M22.2701 456.426C24.4008 444.663 22.3735 433.05 22.2701 424.513M22.2701 424.513C24.194 414.854 30.0069 408.501 55.2241 408.551M22.2701 424.513C17.6776 414.283 37.268 408.371 55.2241 408.551" stroke="black" stroke-linecap="round"/>
<path d="M68.5669 0.729656C94.4873 -0.234439 127.359 4.52701 199.721 0.729656M68.5669 0.729656C119.953 2.57914 168.918 3.012 199.721 0.729656M199.721 0.729656C242.729 1.08381 262.257 24.6353 265.277 63.1007M199.721 0.729656C245.066 2.18564 262.836 18.9491 265.277 63.1007M265.277 63.1007C262.546 186.17 261.305 309.063 265.277 437.779M265.277 63.1007C260.912 148.512 261.905 234.828 265.277 437.779M265.277 437.779C263.415 478.862 239.708 500.918 199.721 500.15M265.277 437.779C265.505 482.856 244.839 504.282 199.721 500.15M199.721 500.15C168.111 502.374 134.599 499.324 68.5669 500.15M199.721 500.15C168.732 501.626 140.743 501.095 68.5669 500.15M68.5669 500.15C27.5037 499.245 1.10737 480.337 2.98986 437.779M68.5669 500.15C24.8558 497.219 4.10695 475.32 2.98986 437.779M2.98986 437.779C6.65142 308.571 8.61666 171.473 2.98986 63.1007M2.98986 437.779C1.33492 354.139 -0.73375 273.49 2.98986 63.1007M2.98986 63.1007C0.528141 21.0347 25.3109 -0.805025 68.5669 0.729656M2.98986 63.1007C2.45201 18.4572 25.1661 0.591928 68.5669 0.729656" stroke="black" stroke-linecap="round"/>
<path d="M32.3824 92.5003C36.1535 87.744 38.1948 82.6446 46.7945 74.2313M30.3247 91.3073C36.8011 84.9292 42.0069 79.206 46.1469 75.2762M31.5708 96.4379C40.1459 89.0383 46.0977 78.8629 50.4016 72.6329M29.554 97.0149C36.5798 90.0597 42.9742 82.6991 52.074 72.976M28.6851 102.161C36.1781 94.6445 41.4576 90.4418 56.1075 72.0793M29.554 103.814C36.3174 95.0734 43.712 87.8219 56.5502 73.0774M32.0053 105.685C38.2276 97.358 45.8435 92.1026 62.092 71.6505M31.1199 105.779C41.8265 94.5977 51.8035 83.9467 61.6657 73.1553M32.1692 108.064C41.8757 97.8024 53.8038 86.3249 67.1912 73.6933M32.6365 109.093C45.4008 95.7985 57.124 81.3736 65.9041 72.3834M33.2186 110.06C41.7281 103.861 52.3282 92.5938 70.0359 74.2158M35.5058 111.393C42.384 103.221 49.1227 95.7673 68.7734 73.1553M35.9731 115.237C46.3354 104.734 56.2058 93.7322 73.4627 75.0033M36.2682 114.473C49.7868 100.664 62.215 86.0442 72.5199 74.6836M38.6703 117.763C43.9334 107.837 52.2872 99.432 74.9957 76.3756M37.6455 116.999C51.7215 102.504 65.6008 87.4867 74.758 76.9292M38.3177 118.917C51.4674 104.921 64.8875 93.9428 76.1926 78.59M38.9572 120.297C47.311 111.962 54.4843 103.268 78.4307 79.1592M41.6789 120.485C51.9101 109.857 65.0433 97.9739 81.8165 81.5997M42.7775 122.083C54.4351 110.075 65.2647 97.3424 80.0621 79.9077M44.2613 122.403C61.3296 108.633 73.8234 92.2586 83.5545 83.1904M45.9747 123.635C58.5423 109.046 70.9623 95.7829 81.8985 83.1514M47.8766 125.537C63.002 108.251 78.4307 93.5373 84.2431 85.2878M47.9586 125.054C59.6244 111.861 70.9951 99.0733 83.8988 86.1923M51.5576 126.527C60.8295 116.134 65.7156 108.142 85.4646 88.7966M52.033 126.566C62.0592 114.021 72.3396 101.857 85.0137 88.742M53.9268 126.457C66.478 114.192 78.4225 98.1611 86.6123 92.9447M55.1647 128.102C65.691 116.929 75.7745 104.453 87.7928 92.5237M60.9443 127.845C68.4537 118.449 75.6762 108.703 88.9734 96.3599M59.6654 126.504C69.5276 116.227 80.3244 104.594 88.1618 94.7693M65.4532 125.381C72.5445 115.853 80.8983 107.393 91.941 98.4808M64.6662 125.256C71.1017 120.056 76.8895 112.422 90.326 97.6932M69.0767 126.301C74.5776 120.57 79.4636 114.738 88.9734 102.847M70.6262 125.451C77.0124 118.66 83.1528 111.689 90.1457 102.691M74.8318 125.14C79.8735 118.621 86.7599 111.635 89.9571 108.344M74.1103 125.716C77.4797 120.57 81.7181 117.49 89.8669 109.553M50.582 124.82C43.7448 120.547 37.8341 115.214 34.2679 111.588M49.877 125.989C45.7452 121.498 40.5804 116.196 33.8662 111.947M56.8699 125.062C45.7534 119.931 38.0964 110.177 30.505 103.978M55.386 126.278C46.0567 117.607 35.9321 108.906 29.6606 104.5M60.5672 125.553C54.6892 119.221 46.0239 115.572 31.3576 101.966M60.1491 125.023C48.4259 116.508 37.6291 106.98 30.8657 100.859M62.7233 125.787C56.0501 117.14 48.9752 110.925 30.1771 97.5061M63.7644 124.648C54.6236 116.882 46.3108 109.35 32.2594 97.4437M69.872 124.991C60.4114 116.235 51.0247 110.598 32.1446 95.2215M67.806 123.409C55.0253 113.841 41.5314 101.413 32.1364 93.8882M73.4791 124.547C61.5182 112.009 48.1636 101.475 31.3494 91.5958M73.8234 124.368C65.1417 116.945 57.0994 110.348 32.907 91.1514M75.2253 121.069C65.6582 113.506 54.7302 106.044 32.407 86.7771M76.4058 122.41C59.6162 108.087 44.4253 96.0714 33.7924 86.4106M77.3076 118.668C61.8543 105.459 43.2694 91.2605 34.8172 84.8668M78.6766 119.9C67.2322 111.448 55.509 101.646 33.7432 82.9954M81.7181 116.368C67.2158 104.758 51.2624 93.5607 35.4812 81.3346M80.6032 117.444C66.9862 106.2 54.8614 94.7849 36.2108 81.1241M83.5299 114.707C69.8146 102.52 54.845 90.894 40.3181 80.5315M82.7347 116.087C71.7657 106.496 60.682 97.3346 38.3013 78.5198M84.7924 112.913C72.8396 103.463 60.1573 93.9895 40.9575 76.8278M85.8663 113.14C75.9713 105.49 66.3796 96.8043 40.9083 76.7421M88.6454 110.395C74.2989 98.9954 61.0099 88.82 42.5725 74.6446M87.3993 111.728C75.4712 100.687 62.8544 89.8882 42.6053 74.9409M87.7682 108.079C78.7832 97.358 65.5516 87.9077 44.6794 73.8025M88.3257 106.777C70.9213 93.5841 55.0499 80.3912 45.6304 72.6485M90.1211 104.563C74.6596 92.5938 61.4772 81.7479 50.0409 71.9546M88.4487 104.789C74.9711 92.2274 62.8462 82.0988 50.6394 72.3678M90.8999 98.6601C80.9885 93.9116 76.3402 88.82 55.9845 72.2119M90.0145 100.142C79.6932 91.6738 70.495 84.6251 55.0499 71.939M89.7194 95.9233C79.9391 87.2917 69.8719 79.4633 57.3454 70.5121M89.2275 95.8687C80.8327 88.8044 72.2822 81.5997 58.2881 70.824M85.317 88.7966C80.1933 83.0968 78.0126 82.3795 65.0597 69.9819M84.6448 88.742C79.4718 82.9798 73.3561 77.9038 62.8298 70.6758M81.2918 79.6816C79.2013 77.7557 74.8154 74.9097 66.2484 68.8902M81.8411 80.1261C78.1847 77.5608 74.9301 75.9467 66.0681 68.1963" stroke="#CED4DA" stroke-width="0.5" stroke-linecap="round"/>
<path d="M45.5484 73.1944C50.3115 70.4186 58.8128 69.6466 64.5432 70.6447C70.2737 71.6505 75.8975 75.0579 79.9309 79.2216C83.9644 83.3776 87.7682 89.935 88.752 95.6114C89.744 101.288 88.5389 108.461 85.8581 113.28C83.1691 118.099 77.8814 122.161 72.6675 124.524C67.4535 126.894 60.2803 128.258 54.558 127.479C48.844 126.707 42.5971 123.814 38.3587 119.853C34.1121 115.9 30.1443 109.428 29.1114 103.744C28.0702 98.052 29.0376 90.7226 32.12 85.7089C35.2107 80.6875 44.8516 75.8298 47.6225 73.6388C50.4016 71.4478 48.5817 72.1885 48.7948 72.555M63.5759 70.7772C68.7734 71.2451 75.8565 75.3932 79.8653 79.4867C83.8742 83.5881 86.6697 89.7947 87.6453 95.3697C88.6126 100.945 88.4405 107.954 85.6941 112.929C82.9478 117.904 76.5369 122.715 71.1754 125.218C65.8057 127.713 59.1571 128.734 53.5005 127.923C47.852 127.104 41.3428 124.563 37.252 120.321C33.1694 116.079 29.8492 108.383 28.9802 102.473C28.1112 96.5627 28.9474 89.6855 32.0299 84.8746C35.1123 80.0559 42.0806 75.7986 47.4749 73.5842C52.8692 71.3698 61.4854 71.7051 64.3957 71.6037C67.306 71.4946 65.1335 72.3835 64.9531 72.9371" stroke="black" stroke-linecap="round"/>
<path d="M115.978 92.469H118.003V103.544C118.003 104.688 117.734 105.709 117.195 106.607C116.661 107.5 115.907 108.205 114.932 108.723C113.958 109.234 112.814 109.49 111.502 109.49C110.19 109.49 109.046 109.234 108.072 108.723C107.097 108.205 106.34 107.5 105.801 106.607C105.267 105.709 105 104.688 105 103.544V92.469H107.026V103.381C107.026 104.198 107.206 104.925 107.565 105.562C107.924 106.193 108.436 106.692 109.101 107.056C109.77 107.416 110.571 107.595 111.502 107.595C112.433 107.595 113.233 107.416 113.903 107.056C114.573 106.692 115.085 106.193 115.439 105.562C115.798 104.925 115.978 104.198 115.978 103.381V92.469ZM130.673 99.4605L128.942 99.9505C128.833 99.662 128.672 99.3815 128.46 99.1093C128.253 98.8316 127.97 98.6029 127.61 98.4232C127.251 98.2435 126.791 98.1537 126.23 98.1537C125.462 98.1537 124.823 98.3306 124.311 98.6846C123.804 99.0331 123.551 99.4768 123.551 100.016C123.551 100.495 123.725 100.873 124.074 101.151C124.422 101.429 124.967 101.66 125.707 101.845L127.57 102.303C128.691 102.575 129.527 102.992 130.077 103.552C130.627 104.108 130.902 104.824 130.902 105.701C130.902 106.419 130.695 107.062 130.281 107.628C129.873 108.194 129.301 108.641 128.566 108.968C127.831 109.294 126.976 109.458 126.001 109.458C124.722 109.458 123.663 109.18 122.824 108.625C121.986 108.069 121.455 107.258 121.232 106.191L123.061 105.733C123.235 106.408 123.565 106.915 124.049 107.252C124.539 107.59 125.179 107.759 125.969 107.759C126.867 107.759 127.581 107.568 128.109 107.187C128.642 106.8 128.909 106.338 128.909 105.799C128.909 105.363 128.757 104.998 128.452 104.704C128.147 104.405 127.679 104.181 127.047 104.034L124.956 103.544C123.807 103.272 122.963 102.85 122.424 102.278C121.89 101.701 121.624 100.98 121.624 100.114C121.624 99.406 121.822 98.7799 122.22 98.2354C122.623 97.6908 123.17 97.2634 123.862 96.953C124.559 96.6427 125.348 96.4875 126.23 96.4875C127.472 96.4875 128.446 96.7597 129.154 97.3042C129.867 97.8488 130.374 98.5675 130.673 99.4605ZM139.064 109.458C137.855 109.458 136.812 109.191 135.935 108.657C135.064 108.118 134.392 107.367 133.918 106.403C133.45 105.434 133.216 104.307 133.216 103.022C133.216 101.737 133.45 100.604 133.918 99.6238C134.392 98.6383 135.05 97.8705 135.894 97.3206C136.744 96.7652 137.735 96.4875 138.867 96.4875C139.521 96.4875 140.166 96.5964 140.803 96.8142C141.44 97.032 142.02 97.3859 142.543 97.876C143.066 98.3606 143.482 99.0031 143.793 99.8035C144.103 100.604 144.258 101.59 144.258 102.76V103.577H134.588V101.911H142.298C142.298 101.203 142.156 100.571 141.873 100.016C141.595 99.4605 141.198 99.0222 140.681 98.7009C140.169 98.3796 139.564 98.219 138.867 98.219C138.1 98.219 137.435 98.4096 136.875 98.7907C136.319 99.1665 135.892 99.6565 135.592 100.261C135.293 100.865 135.143 101.513 135.143 102.205V103.316C135.143 104.263 135.306 105.066 135.633 105.725C135.965 106.378 136.425 106.877 137.013 107.22C137.602 107.557 138.285 107.726 139.064 107.726C139.57 107.726 140.027 107.655 140.436 107.514C140.85 107.367 141.206 107.149 141.506 106.86C141.805 106.566 142.037 106.201 142.2 105.766L144.062 106.289C143.866 106.92 143.537 107.476 143.074 107.955C142.611 108.429 142.039 108.799 141.359 109.066C140.678 109.327 139.913 109.458 139.064 109.458ZM147.19 109.196V96.6508H149.053V98.5457H149.183C149.412 97.925 149.826 97.4213 150.425 97.0347C151.024 96.6481 151.699 96.4548 152.45 96.4548C152.592 96.4548 152.769 96.4575 152.981 96.463C153.193 96.4684 153.354 96.4766 153.463 96.4875V98.4477C153.398 98.4314 153.248 98.4069 153.014 98.3742C152.785 98.3361 152.543 98.317 152.287 98.317C151.677 98.317 151.133 98.445 150.653 98.7009C150.18 98.9514 149.804 99.2999 149.526 99.7464C149.254 100.187 149.118 100.691 149.118 101.257V109.196H147.19ZM175.742 92.469V109.196H173.782L164.667 96.0628H164.504V109.196H162.478V92.469H164.438L173.586 105.635H173.749V92.469H175.742ZM183.226 109.49C182.431 109.49 181.709 109.341 181.061 109.041C180.413 108.736 179.899 108.298 179.518 107.726C179.137 107.149 178.946 106.452 178.946 105.635C178.946 104.916 179.088 104.334 179.371 103.887C179.654 103.435 180.032 103.081 180.506 102.826C180.98 102.57 181.502 102.379 182.074 102.254C182.651 102.123 183.231 102.02 183.814 101.943C184.576 101.845 185.194 101.772 185.668 101.723C186.147 101.668 186.496 101.579 186.713 101.453C186.937 101.328 187.048 101.11 187.048 100.8V100.735C187.048 99.9288 186.828 99.3026 186.387 98.8561C185.951 98.4096 185.289 98.1863 184.402 98.1863C183.482 98.1863 182.76 98.3878 182.238 98.7907C181.715 99.1937 181.347 99.6238 181.135 100.081L179.305 99.4278C179.632 98.6655 180.068 98.072 180.612 97.6473C181.162 97.2171 181.761 96.9176 182.409 96.7488C183.062 96.5746 183.705 96.4875 184.337 96.4875C184.74 96.4875 185.202 96.5365 185.725 96.6345C186.253 96.7271 186.762 96.9204 187.252 97.2144C187.748 97.5084 188.159 97.9522 188.486 98.5457C188.812 99.1392 188.976 99.9342 188.976 100.931V109.196H187.048V107.497H186.95C186.82 107.77 186.602 108.061 186.297 108.371C185.992 108.682 185.586 108.946 185.08 109.164C184.573 109.381 183.955 109.49 183.226 109.49ZM183.52 107.759C184.282 107.759 184.925 107.609 185.447 107.31C185.976 107.01 186.373 106.623 186.64 106.15C186.912 105.676 187.048 105.178 187.048 104.655V102.891C186.967 102.989 186.787 103.079 186.509 103.16C186.237 103.237 185.921 103.305 185.562 103.365C185.208 103.419 184.862 103.468 184.524 103.512C184.192 103.55 183.923 103.582 183.716 103.61C183.215 103.675 182.747 103.781 182.311 103.928C181.881 104.07 181.532 104.285 181.266 104.573C181.004 104.857 180.874 105.243 180.874 105.733C180.874 106.403 181.121 106.909 181.617 107.252C182.118 107.59 182.752 107.759 183.52 107.759ZM192.494 109.196V96.6508H194.356V98.6111H194.52C194.781 97.9413 195.203 97.4213 195.786 97.051C196.368 96.6753 197.068 96.4875 197.885 96.4875C198.712 96.4875 199.401 96.6753 199.951 97.051C200.506 97.4213 200.939 97.9413 201.25 98.6111H201.38C201.702 97.9631 202.184 97.4485 202.826 97.0674C203.469 96.6808 204.239 96.4875 205.137 96.4875C206.259 96.4875 207.177 96.8387 207.89 97.5411C208.603 98.2381 208.96 99.3244 208.96 100.8V109.196H207.032V100.8C207.032 99.8743 206.779 99.2127 206.273 98.8153C205.766 98.4178 205.17 98.219 204.484 98.219C203.602 98.219 202.919 98.4858 202.434 99.0194C201.949 99.5476 201.707 100.217 201.707 101.029V109.196H199.747V100.604C199.747 99.8907 199.515 99.3162 199.053 98.8806C198.59 98.4395 197.994 98.219 197.264 98.219C196.763 98.219 196.295 98.3524 195.859 98.6192C195.429 98.886 195.08 99.2563 194.814 99.73C194.552 100.198 194.422 100.74 194.422 101.355V109.196H192.494ZM217.744 109.458C216.535 109.458 215.493 109.191 214.616 108.657C213.745 108.118 213.072 107.367 212.599 106.403C212.13 105.434 211.896 104.307 211.896 103.022C211.896 101.737 212.13 100.604 212.599 99.6238C213.072 98.6383 213.731 97.8705 214.575 97.3206C215.425 96.7652 216.416 96.4875 217.548 96.4875C218.202 96.4875 218.847 96.5964 219.484 96.8142C220.121 97.032 220.701 97.3859 221.224 97.876C221.746 98.3606 222.163 99.0031 222.473 99.8035C222.784 100.604 222.939 101.59 222.939 102.76V103.577H213.268V101.911H220.979C220.979 101.203 220.837 100.571 220.554 100.016C220.276 99.4605 219.879 99.0222 219.361 98.7009C218.85 98.3796 218.245 98.219 217.548 98.219C216.78 98.219 216.116 98.4096 215.555 98.7907C215 99.1665 214.572 99.6565 214.273 100.261C213.973 100.865 213.824 101.513 213.824 102.205V103.316C213.824 104.263 213.987 105.066 214.314 105.725C214.646 106.378 215.106 106.877 215.694 107.22C216.282 107.557 216.966 107.726 217.744 107.726C218.251 107.726 218.708 107.655 219.116 107.514C219.53 107.367 219.887 107.149 220.186 106.86C220.486 106.566 220.717 106.201 220.881 105.766L222.743 106.289C222.547 106.92 222.217 107.476 221.754 107.955C221.292 108.429 220.72 108.799 220.039 109.066C219.359 109.327 218.594 109.458 217.744 109.458Z" fill="black"/>
<path d="M44.5842 42.6408V40.9363L58.3058 33.9476V36.6749L47.7802 41.7459L47.8654 41.5755V42.0016L47.7802 41.8312L58.3058 46.9022V49.6295L44.5842 42.6408ZM115.283 35.3113H112.641C112.485 34.5513 112.211 33.8837 111.82 33.3084C111.437 32.7332 110.968 32.2502 110.414 31.8596C109.867 31.4618 109.26 31.1636 108.593 30.9647C107.925 30.7658 107.229 30.6664 106.504 30.6664C105.183 30.6664 103.987 31.0002 102.914 31.6678C101.849 32.3354 101 33.3191 100.368 34.6188C99.7431 35.9185 99.4306 37.513 99.4306 39.4022C99.4306 41.2914 99.7431 42.8859 100.368 44.1856C101 45.4853 101.849 46.4689 102.914 47.1366C103.987 47.8042 105.183 48.138 106.504 48.138C107.229 48.138 107.925 48.0386 108.593 47.8397C109.26 47.6408 109.867 47.3461 110.414 46.9555C110.968 46.5577 111.437 46.0712 111.82 45.4959C112.211 44.9136 112.485 44.2459 112.641 43.4931H115.283C115.084 44.6082 114.722 45.606 114.196 46.4867C113.671 47.3674 113.017 48.1167 112.236 48.7346C111.455 49.3454 110.578 49.8106 109.605 50.1302C108.639 50.4498 107.605 50.6096 106.504 50.6096C104.644 50.6096 102.989 50.155 101.54 49.2459C100.091 48.3368 98.9512 47.0442 98.1202 45.3681C97.2892 43.692 96.8738 41.7033 96.8738 39.4022C96.8738 37.1011 97.2892 35.1124 98.1202 33.4363C98.9512 31.7601 100.091 30.4675 101.54 29.5584C102.989 28.6493 104.644 28.1948 106.504 28.1948C107.605 28.1948 108.639 28.3546 109.605 28.6742C110.578 28.9938 111.455 29.4626 112.236 30.0805C113.017 30.6912 113.671 31.437 114.196 32.3177C114.722 33.1912 115.084 34.1891 115.283 35.3113ZM121.725 40.4675V50.3113H119.211V28.4931H121.725V36.5045H121.939C122.322 35.6593 122.897 34.9881 123.664 34.491C124.439 33.9867 125.468 33.7346 126.754 33.7346C127.869 33.7346 128.846 33.9583 129.684 34.4057C130.522 34.8461 131.172 35.5243 131.633 36.4405C132.102 37.3496 132.336 38.5073 132.336 39.9136V50.3113H129.822V40.084C129.822 38.7843 129.485 37.7793 128.81 37.0691C128.142 36.3518 127.216 35.9931 126.029 35.9931C125.206 35.9931 124.467 36.1671 123.814 36.5151C123.167 36.8631 122.656 37.3709 122.279 38.0386C121.91 38.7062 121.725 39.5158 121.725 40.4675ZM141.751 50.6948C140.714 50.6948 139.773 50.4995 138.928 50.1089C138.083 49.7111 137.412 49.1394 136.915 48.3937C136.417 47.6408 136.169 46.7317 136.169 45.6664C136.169 44.7289 136.354 43.9689 136.723 43.3866C137.092 42.7971 137.586 42.3354 138.204 42.0016C138.822 41.6678 139.503 41.4192 140.249 41.2559C141.002 41.0854 141.758 40.9505 142.518 40.8511C143.513 40.7232 144.319 40.6273 144.937 40.5634C145.562 40.4924 146.016 40.3752 146.3 40.2118C146.591 40.0485 146.737 39.7644 146.737 39.3596V39.2743C146.737 38.2232 146.449 37.4064 145.874 36.8241C145.306 36.2417 144.443 35.9505 143.285 35.9505C142.085 35.9505 141.144 36.2133 140.462 36.7388C139.78 37.2644 139.301 37.8255 139.024 38.4221L136.638 37.5698C137.064 36.5755 137.632 35.8013 138.342 35.2474C139.059 34.6863 139.841 34.2957 140.686 34.0755C141.538 33.8482 142.376 33.7346 143.2 33.7346C143.726 33.7346 144.329 33.7985 145.011 33.9263C145.7 34.0471 146.364 34.2992 147.003 34.6827C147.65 35.0663 148.186 35.6451 148.612 36.4192C149.038 37.1934 149.251 38.2303 149.251 39.53V50.3113H146.737V48.0954H146.609C146.439 48.4505 146.155 48.8305 145.757 49.2353C145.359 49.6401 144.83 49.9846 144.17 50.2687C143.509 50.5528 142.703 50.6948 141.751 50.6948ZM142.135 48.4363C143.129 48.4363 143.967 48.241 144.649 47.8503C145.338 47.4597 145.856 46.9555 146.204 46.3376C146.559 45.7197 146.737 45.0698 146.737 44.388V42.0868C146.631 42.2147 146.396 42.3319 146.034 42.4384C145.679 42.5378 145.267 42.6266 144.798 42.7047C144.336 42.7758 143.885 42.8397 143.445 42.8965C143.012 42.9462 142.66 42.9888 142.39 43.0243C141.737 43.1096 141.126 43.2481 140.558 43.4398C139.997 43.6245 139.542 43.905 139.194 44.2814C138.854 44.6508 138.683 45.155 138.683 45.7942C138.683 46.6678 139.006 47.3283 139.653 47.7758C140.306 48.2161 141.133 48.4363 142.135 48.4363ZM160.957 33.9476V36.0783H152.477V33.9476H160.957ZM154.948 30.0272H157.462V45.6238C157.462 46.334 157.565 46.8667 157.771 47.2218C157.984 47.5698 158.254 47.8042 158.581 47.9249C158.915 48.0386 159.266 48.0954 159.636 48.0954C159.913 48.0954 160.14 48.0812 160.317 48.0528C160.495 48.0172 160.637 47.9888 160.744 47.9675L161.255 50.2261C161.085 50.29 160.847 50.3539 160.541 50.4178C160.236 50.4888 159.849 50.5243 159.38 50.5243C158.67 50.5243 157.974 50.3716 157.292 50.0663C156.617 49.7609 156.056 49.2957 155.609 48.6707C155.168 48.0457 154.948 47.2573 154.948 46.3056V30.0272Z" fill="black"/>
</svg>
