<svg width="269" height="506" viewBox="0 0 269 506" fill="none" xmlns="http://www.w3.org/2000/svg">
<path d="M69.8624 2.53697C102.382 0.0578664 134.509 1.82865 201.016 2.53697M69.8624 2.53697C112.167 2.69437 152.154 5.44893 201.016 2.53697M201.016 2.53697C244.769 1.69092 265.6 22.1337 266.573 64.908M201.016 2.53697C246.9 5.33087 263.139 27.1115 266.573 64.908M266.573 64.908C267.752 195.454 266.676 327.457 266.573 439.587M266.573 64.908C269.2 175.976 265.869 291.214 266.573 439.587M266.573 439.587C268.952 480.689 244.231 505.283 201.016 501.958M266.573 439.587C269.986 478.957 240.301 503.748 201.016 501.958M201.016 501.958C151.637 503.689 106.623 501.918 69.8624 501.958M201.016 501.958C165.497 503.118 126.027 503.945 69.8624 501.958M69.8624 501.958C29.3578 500.325 5.21635 484.348 4.28545 439.587M69.8624 501.958C29.2544 501.584 2.56845 480.511 4.28545 439.587M4.28545 439.587C-2.27225 297.432 2.75463 152.05 4.28545 64.908M4.28545 439.587C6.64374 339.557 3.74759 242.557 4.28545 64.908M4.28545 64.908C4.03721 20.54 26.8547 5.40958 69.8624 2.53697M4.28545 64.908C7.11953 22.4091 22.5105 2.73372 69.8624 2.53697" stroke="black" stroke-linecap="round"/>
<path d="M43.2483 182.594C49.8267 175.353 55.288 173.268 60.8941 163.292M43.2483 182.594C48.8958 175.038 54.8536 168.801 60.8941 163.292M37.2698 201.128C46.7857 184.128 65.1349 176.731 73.9267 161.03M37.2698 201.128C49.3716 188.319 56.5085 178.501 73.9267 161.03M36.732 213.72C49.9715 197.705 67.8655 177.242 85.5941 160.262M36.732 213.72C52.3505 199.003 63.5006 184.778 85.5941 160.262M36.1941 226.293C62.3628 204.079 81.2292 175.432 95.9168 160.971M36.1941 226.293C50.799 205.339 69.9135 189.047 95.9168 160.971M37.0009 237.409C55.1639 221.571 66.4588 198.216 107.584 160.184M37.0009 237.409C57.7704 217.045 78.995 192.943 107.584 160.184M36.463 249.982C57.3153 232.805 73.3061 206.991 117.907 160.892M36.463 249.982C60.0459 223.361 83.5875 195.973 117.907 160.892M35.9252 262.574C59.0943 231.802 89.5866 203.666 128.209 161.6M35.9252 262.574C63.935 232.786 94.9031 200.184 128.209 161.6M36.732 273.691C62.6938 240.026 95.5237 210.061 139.897 160.833M36.732 273.691C69.4584 236.583 106.674 199.239 139.897 160.833M36.1941 286.263C70.741 248.29 101.461 213.445 150.199 161.541M36.1941 286.263C70.741 249.097 104.915 210.474 150.199 161.541M35.6563 298.856C64.7418 263.656 105.143 224.325 161.887 160.754M35.6563 298.856C77.0711 252.894 118.134 204.63 161.887 160.754M36.4837 309.953C83.0496 262.082 126.512 214.92 172.189 161.462M36.4837 309.953C69.9963 275.717 102.785 239.082 172.189 161.462M35.9459 322.545C78.1468 273.534 117.307 229.028 183.877 160.695M35.9459 322.545C84.3942 266.155 137.001 210.926 183.877 160.695M35.3873 335.137C69.024 301.02 109.032 261.236 194.179 161.403M35.3873 335.137C76.5333 287.011 122.127 237.488 194.179 161.403M36.2148 346.234C86.4422 291.005 141.097 231.684 204.501 162.112M36.2148 346.234C93.455 284.945 146.806 227.867 204.501 162.112M35.6769 358.826C87.2904 306.214 130.815 252.441 212.094 165.791M35.6769 358.826C74.2784 314.321 116.624 268.792 212.094 165.791M37.8491 368.448C99.8679 303.755 154.171 239.633 222.416 166.499M37.8491 368.448C104.109 296.928 173.616 222.791 222.416 166.499M40.0212 378.069C83.7116 327.838 128.747 279.908 227.298 173.15M40.0212 378.069C98.0061 314.104 155.081 254.37 227.298 173.15M42.1933 387.69C113.583 309.795 186.235 227.139 233.546 178.305M42.1933 387.69C90.8485 337.852 139.421 285.555 233.546 178.305M48.4407 392.845C100.22 335.117 153.136 280.066 235.718 187.926M48.4407 392.845C112.983 323.371 175.499 252.382 235.718 187.926M53.3227 399.495C105.95 343.145 164.142 285.575 237.89 197.547M53.3227 399.495C105.288 340.725 159.073 283.273 237.89 197.547M62.2801 401.679C132.594 323.745 200.012 243.43 240.083 207.168M62.2801 401.679C127.112 331.3 191.345 259.938 240.083 207.168M71.2375 403.883C113.066 361.797 146.475 326.126 246.309 212.323M71.2375 403.883C126.326 344.326 184.953 282.761 246.309 212.323M81.5602 404.591C120.431 363.43 159.88 321.797 245.772 224.916M81.5602 404.591C120.265 358.846 161.308 315.855 245.772 224.916M93.2275 403.804C122.81 371.143 159.591 334.704 245.234 237.508M93.2275 403.804C136.856 356.819 180.774 310.661 245.234 237.508M103.55 404.513C137.932 362.053 172.458 328.389 246.061 248.605M103.55 404.513C140.145 364.965 173.968 324.178 246.061 248.605M115.217 403.745C156.301 359.574 198.213 311.979 245.503 261.197M115.217 403.745C146.227 372.127 176.161 341.728 245.503 261.197M125.54 404.454C169.334 353.475 214.348 302.299 246.33 272.294M125.54 404.454C158.349 365.359 190.869 331.025 246.33 272.294M137.208 403.686C162.963 371.773 196.537 340.666 245.792 284.886M137.208 403.686C172.499 366.126 205.825 327.818 245.792 284.886M147.53 404.395C183.36 369.628 213.79 337.223 245.254 297.478M147.53 404.395C170.555 380.489 195.13 353.16 245.254 297.478M157.853 405.103C189.338 372.816 225.809 336.692 246.061 308.575M157.853 405.103C180.815 381.237 205.577 354.872 246.061 308.575M169.52 404.316C193.496 382.594 213.79 353.002 245.523 321.168M169.52 404.316C188.138 383.066 205.184 364.827 245.523 321.168M179.843 405.024C196.434 391.074 206.281 375.118 246.33 332.265M179.843 405.024C196.765 385.959 216.707 363.883 246.33 332.265M190.145 405.733C210.77 389.736 225.064 373.878 245.792 344.857M190.145 405.733C202.598 390.563 216.624 379.013 245.792 344.857M204.543 401.994C215.383 387.238 231.808 369.963 245.254 357.449M204.543 401.994C215.486 389.028 226.202 378.797 245.254 357.449M220.285 396.761C226.74 387.789 230.194 384.759 237.931 377.459M220.285 396.761C225.188 390.189 232.201 382.024 237.931 377.459" stroke="#CED4DA" stroke-width="0.5" stroke-linecap="round"/>
<path d="M82.3876 158.432C113.294 155.206 143.186 161.03 187.6 158.432M82.3876 158.432C105.66 155.698 128.519 157.645 187.6 158.432M187.6 158.432C225.023 160.321 242.172 177.557 240.207 208.467M187.6 158.432C223.264 160.203 243.186 179.013 240.207 208.467M240.207 208.467C241.407 258.246 242.544 302.161 240.207 353.534M240.207 208.467C238.386 246.224 239.71 283.706 240.207 353.534M240.207 353.534C242.586 386.156 220.803 401.955 187.6 403.568M240.207 353.534C238.221 386.293 219.21 404.749 187.6 403.568M187.6 403.568C150.033 406.638 106.529 402.525 82.3876 403.568M187.6 403.568C164.307 404.67 139.09 401.915 82.3876 403.568M82.3876 403.568C48.8337 405.614 33.1945 388.005 29.7812 353.534M82.3876 403.568C47.6752 405.142 25.0853 382.653 29.7812 353.534M29.7812 353.534C26.7609 301.335 32.036 249.057 29.7812 208.467M29.7812 353.534C30.8155 323.253 31.5603 293.307 29.7812 208.467M29.7812 208.467C26.8437 177.557 50.9437 155.619 82.3876 158.432M29.7812 208.467C31.3741 170.769 45.7307 154.655 82.3876 158.432" stroke="black" stroke-linecap="round"/>
<path d="M75.9276 148.459C76.7758 147.495 79.2788 145.685 81.3682 142.517M75.9276 148.459C76.8378 146.925 78.1824 146.157 81.3682 142.517M74.0244 162.547C77.1481 158.789 86.7675 149.935 91.6702 143.226M74.0244 162.547C78.2859 155.68 84.554 151.942 91.6702 143.226M80.2718 167.702C90.7393 156.782 97.297 149.423 103.358 142.458M80.2718 167.702C85.5469 161.229 91.1737 158.14 103.358 142.458M91.9598 166.934C99.676 160.363 101.931 154.027 113.66 143.167M91.9598 166.934C98.4141 158.179 108.675 147.967 113.66 143.167M102.262 167.643C109.999 158.14 111.116 153.909 125.348 142.399M102.262 167.643C110.537 161.17 115.667 151.47 125.348 142.399M112.585 168.351C122.287 160.894 124.045 152.67 135.65 143.108M112.585 168.351C118.894 160.422 124.355 154.086 135.65 143.108M124.252 167.564C127.045 162.626 132.506 157.254 147.338 142.321M124.252 167.564C134.843 159.222 143.18 147.102 147.338 142.321M134.575 168.272C139.808 162.586 147.773 153.772 157.64 143.029M134.575 168.272C143.47 160.599 152.282 149.797 157.64 143.029M146.242 167.505C154.703 155.523 165.812 149.856 169.328 142.262M146.242 167.505C153.958 158.868 160.619 151.962 169.328 142.262M156.565 168.213C165.212 162.016 170.983 151.883 179.63 142.97M156.565 168.213C165.915 158.199 172.617 149.699 179.63 142.97M168.232 167.426C176.01 160.048 184.967 148.813 191.318 142.183M168.232 167.426C173.321 162.98 176.631 156.31 191.318 142.183M178.555 168.135C182.94 159.064 191.029 152.65 204.351 139.92M178.555 168.135C185.981 158.789 195.331 147.023 204.351 139.92M190.222 167.367C198.559 163.472 203.296 153.732 210.578 145.095M190.222 167.367C198.041 159.084 204.847 150.466 210.578 145.095" stroke="#CED4DA" stroke-width="0.5" stroke-linecap="round"/>
<path d="M76.9826 138.956C113.246 138.425 144.69 140.924 200.048 138.956M76.9826 138.956C110.309 138.248 148.704 137.402 200.048 138.956M200.048 138.956C206.047 135.434 209.398 140.904 206.316 144.898M200.048 138.956C201.02 139.271 203.027 141.14 206.316 144.898M206.316 144.898C205.944 149.758 206.461 154.795 206.316 156.802M206.316 144.898C206.275 149.246 206.833 153.083 206.316 156.802M206.316 156.802C206.42 159.635 208.054 166.423 200.048 162.744M206.316 156.802C208.654 158.238 203.13 164.987 200.048 162.744M200.048 162.744C173.693 162.153 140.615 159.714 76.9826 162.744M200.048 162.744C165.936 163.747 128.596 162.429 76.9826 162.744M76.9826 162.744C72.8039 163.649 71.4799 157.667 70.7352 156.802M76.9826 162.744C70.3422 161.327 66.1841 161.917 70.7352 156.802M70.7352 156.802C70.4042 151.903 70.1974 148.381 70.7352 144.898M70.7352 156.802C71.0662 153.201 70.9007 150.151 70.7352 144.898M70.7352 144.898C70.6732 140.648 69.0389 138.523 76.9826 138.956M70.7352 144.898C70.0526 143.521 71.6661 142.419 76.9826 138.956" stroke="black" stroke-linecap="round"/>
<path d="M28.8623 300.874C37.6956 295.345 43.5499 284.052 47.8528 280.097M28.8623 300.874C32.8549 295.306 39.7849 289.915 47.8528 280.097M28.3038 313.466C44.4188 302.802 52.1763 286.865 60.8854 277.834M28.3038 313.466C38.6472 300.697 54.1209 287.259 60.8854 277.834M29.1313 324.563C37.5094 313.289 50.1076 297.549 72.5527 277.047M29.1313 324.563C42.7638 309.216 60.7613 290.426 72.5527 277.047M28.5934 337.155C45.2669 316.241 62.5404 301.641 82.8754 277.755M28.5934 337.155C49.0319 316.536 67.1949 293.752 82.8754 277.755M29.4002 348.272C42.8466 325.449 62.9748 310.2 94.5428 276.988M29.4002 348.272C45.4324 331.076 57.5549 315.237 94.5428 276.988M28.8623 360.845C55.7965 327.967 82.1721 300.264 104.865 277.696M28.8623 360.845C53.6451 331.666 80.1862 303.038 104.865 277.696M28.3245 373.437C50.2938 349.276 71.0426 332.748 116.533 276.909M28.3245 373.437C52.4866 349.157 71.9942 324.622 116.533 276.909M31.8619 381.563C72.5321 339.871 108.899 302.566 126.855 277.618M31.8619 381.563C60.844 352.994 85.6061 324.288 126.855 277.618M34.034 391.184C63.9884 357.795 101.824 317.047 138.523 276.85M34.034 391.184C61.0302 360.569 89.9089 330.171 138.523 276.85M40.2814 396.359C66.3467 370.053 86.6611 351.243 148.845 277.559M40.2814 396.359C80.2896 349.905 122.387 306.836 148.845 277.559M49.2388 398.543C75.8833 371.607 98.3698 337.569 160.513 276.791M49.2388 398.543C78.5105 365.862 105.196 336.624 160.513 276.791M58.1961 400.746C98.949 353.093 143.012 312.325 170.835 277.5M58.1961 400.746C85.5027 371.765 109.458 344.691 170.835 277.5M64.4435 405.901C93.074 379.438 113.099 354.804 182.503 276.713M64.4435 405.901C100.045 366.787 134.51 329.915 182.503 276.713M76.1109 405.134C114.092 363.855 155.155 319.566 192.825 277.421M76.1109 405.134C105.776 373.948 135.399 340.225 192.825 277.421M86.4336 405.842C107.493 378.907 132.296 351.597 204.493 276.654M86.4336 405.842C132.627 355.945 178.759 307.17 204.493 276.654M98.1009 405.055C135.358 363.284 178.448 318.523 213.45 278.838M98.1009 405.055C135.337 366.806 167.174 327.18 213.45 278.838M108.424 405.764C145.825 364.799 189.288 317.637 222.408 281.041M108.424 405.764C135.73 377.746 166.202 345.734 222.408 281.041M120.091 404.996C155.527 363.698 187.302 327.613 232.73 281.75M120.091 404.996C144.46 379.556 165.416 352.581 232.73 281.75M130.414 405.705C156.686 377.018 189.681 342.468 237.612 288.4M130.414 405.705C163.388 367.259 196.818 332.138 237.612 288.4M142.081 404.918C181.613 369.246 212.809 329.384 241.15 296.526M142.081 404.918C164.712 380.796 190.302 356.26 241.15 296.526M152.404 405.626C180.558 368.853 216.719 335.955 246.032 303.176M152.404 405.626C182.813 371.312 212.747 335.995 246.032 303.176M164.071 404.859C185.502 383.137 206.686 359.999 246.859 314.273M164.071 404.859C188.047 381.72 206.996 355.591 246.859 314.273M174.394 405.567C195.018 384.691 208.651 363.383 246.321 326.865M174.394 405.567C200.686 376.585 225.862 348.607 246.321 326.865M186.061 404.78C200.997 390.987 210.595 374.007 245.784 339.457M186.061 404.78C199.569 390.318 209.54 377.254 245.784 339.457M196.384 405.488C207.161 392.306 223.194 375.404 246.59 350.554M196.384 405.488C214.96 382.881 236.04 362.478 246.59 350.554M210.761 401.75C220.277 390.141 224.993 379.674 246.052 363.147M210.761 401.75C225.242 389.748 237.281 375.66 246.052 363.147M223.794 399.487C233.64 386.541 241.129 381.169 246.859 374.244M223.794 399.487C229.565 392.463 237.902 383.845 246.859 374.244M56.7894 400.432C50.1904 395.159 36.7854 384.14 27.1246 375.896M56.7894 400.432C47.8114 391.912 38.13 383.275 27.1246 375.896M63.7609 395.768C56.7067 388.607 41.2123 376.939 27.8694 366.078M63.7609 395.768C54.6587 390.712 46.4047 379.89 27.8694 366.078M75.4489 395.001C63.2851 382.96 50.7075 380.481 27.0419 354.981M75.4489 395.001C56.7067 380.186 35.8751 362.36 27.0419 354.981M88.6884 395.513C65.5399 377.962 44.1498 362.497 27.7866 345.163M88.6884 395.513C73.1527 380.245 55.0518 366.039 27.7866 345.163M101.907 396.024C74.9317 375.896 40.5917 351.125 26.9798 334.066M101.907 396.024C80.6413 377.569 57.2032 356.949 26.9798 334.066M113.595 395.257C80.1034 367.908 46.5909 341.72 27.7246 324.248M113.595 395.257C86.5784 369.915 57.5962 346.914 27.7246 324.248M126.814 395.768C95.5978 374.322 74.0836 353.034 26.8971 313.151M126.814 395.768C101.887 373.299 77.0831 353.171 26.8971 313.151M138.502 394.981C95.7426 362.379 49.5698 326.295 27.6418 303.333M138.502 394.981C93.1568 357.893 52.0936 322.32 27.6418 303.333M151.721 395.513C110.368 363.127 69.9876 326.885 29.9587 294.814M151.721 395.513C116.202 366.865 77.621 334.775 29.9587 294.814M164.96 396.024C139.102 374.126 112.251 351.696 33.8272 287.593M164.96 396.024C127.724 364.74 90.1779 335.011 33.8272 287.593M176.648 395.237C126.214 353.683 69.6359 305.065 37.6956 280.353M176.648 395.237C144.894 369.305 111.692 339.438 37.6956 280.353M189.867 395.749C141.522 356.792 92.9085 312.187 44.6877 275.709M189.867 395.749C157.637 371.194 129.317 348.941 44.6877 275.709M201.555 394.981C156.044 358.877 113.078 322.851 56.355 274.942M201.555 394.981C150.893 350.318 96.4046 305.714 56.355 274.942M214.774 395.493C173.38 360.963 135.585 330.741 63.3471 270.279M214.774 395.493C185.254 369.758 153.438 341.819 63.3471 270.279M223.338 392.129C167.319 344.671 111.216 303.688 76.5867 270.79M223.338 392.129C177.269 356.123 134.53 318.07 76.5867 270.79M233.454 390.063C181.51 348.98 135.089 305.222 88.254 270.023M233.454 390.063C184.137 350.594 132.937 307.387 88.254 270.023M240.446 385.419C192.908 345.085 140.033 301.405 101.494 270.535M240.446 385.419C210.306 361.592 183.02 337.175 101.494 270.535M242.743 376.9C194.687 336.742 153.107 297.037 113.161 269.767M242.743 376.9C205.382 349.394 174.001 317.519 113.161 269.767M243.487 367.082C195.722 327.613 153.707 291.528 126.4 270.279M243.487 367.082C204.907 336.919 171.125 308.843 126.4 270.279M244.232 357.283C208.547 329.443 177.021 306.639 139.619 270.79M244.232 357.283C212.685 330.958 183.103 309.059 139.619 270.79M243.425 346.167C213.905 321.022 180.351 298.179 151.307 270.003M243.425 346.167C207.286 317.087 174.6 287.77 151.307 270.003M242.598 335.07C224.352 315.178 197.459 300.244 164.547 270.535M242.598 335.07C219.78 316.241 196.239 296.801 164.547 270.535M243.343 325.252C219.76 308.429 193.881 283.776 176.214 269.748M243.343 325.252C222.945 308.902 203.19 291.863 176.214 269.748M242.536 314.155C230.041 301.877 209.003 287.534 189.454 270.259M242.536 314.155C220.856 298.847 203.81 281.356 189.454 270.259M243.28 304.337C225.014 290.722 210.699 274.489 202.672 270.771M243.28 304.337C232.668 297.51 224.166 287.554 202.672 270.771M245.577 295.817C235.626 289.797 229.379 277.755 214.36 270.003M245.577 295.817C237.116 287.573 227.372 279.566 214.36 270.003" stroke="#15AABF" stroke-width="0.5" stroke-linecap="round"/>
<path d="M59.0029 275.099C104.203 274.174 147.522 279.231 208.858 275.099M59.0029 275.099C115.54 273.938 177.476 274.922 208.858 275.099M208.858 275.099C228.883 275.788 241.026 282.655 241.812 306.442M208.858 275.099C234.096 271.754 246.466 281.513 241.812 306.442M241.812 306.442C245.825 330.722 244.046 350.515 241.812 369.148M241.812 306.442C239.971 328.006 242.35 351.597 241.812 369.148M241.812 369.148C245.184 390.81 230.951 402.497 208.858 400.491M241.812 369.148C246.094 390.318 232.441 399.153 208.858 400.491M208.858 400.491C153.293 399.487 93.5498 403.422 59.0029 400.491M208.858 400.491C148.846 401.533 90.7985 399.782 59.0029 400.491M59.0029 400.491C40.3642 400.727 29.3381 388.469 26.049 369.148M59.0029 400.491C40.7159 403.934 28.8003 392.325 26.049 369.148M26.049 369.148C26.0076 352.699 22.284 335.365 26.049 306.442M26.049 369.148C24.0423 343.196 24.1665 320.805 26.049 306.442M26.049 306.442C28.1176 284.937 36.8061 273.328 59.0029 275.099M26.049 306.442C25.6973 282.714 37.1991 277.716 59.0029 275.099" stroke="black" stroke-linecap="round"/>
<path d="M31.1413 51.2953C36.8301 48.3833 38.5885 42.9923 49.8628 31.01M31.0172 52.2004C36.1682 47.3799 39.7883 41.3789 49.5525 33.9416M35.32 65.5403C48.3733 45.8059 58.8822 34.5515 62.0266 27.9996M35.5062 60.9559C42.8293 52.6726 53.0692 43.3858 66.5363 27.4684M42.8913 68.5703C50.1524 54.3843 56.979 44.4679 72.0803 33.0956M38.8574 67.2324C50.4213 54.4237 63.6402 43.0907 71.5425 32.5446M44.7118 78.8802C50.0076 69.5737 58.6133 59.1655 73.7767 38.1718M45.6013 74.0007C55.262 61.7233 66.8052 51.1182 77.1072 40.2574M50.3386 76.4011C63.2057 66.1699 72.4113 58.044 84.451 44.9402M51.5177 80.5526C61.8197 68.8261 71.5218 56.588 83.9752 43.858M58.0134 82.5595C65.6468 81.0445 65.1296 70.1443 78.638 60.1689M60.1027 81.4774C65.0882 74.4729 73.3629 66.7011 81.7824 56.3322M55.3655 79.5098C51.9521 72.5054 42.1052 67.803 31.5757 59.0671M57.8892 76.8536C49.6352 69.9279 45.5599 67.075 34.1202 57.4144M70.0324 73.4498C57.3514 64.891 41.2778 55.7223 33.8099 49.0326M65.7916 75.0829C57.1031 65.9535 52.0556 60.7198 35.0097 45.2156M75.2661 68.7277C62.8127 60.0902 61.2819 56.1748 32.548 35.0434M73.3009 70.0656C62.3162 57.9653 47.4631 45.9436 34.658 39.5294M76.0729 59.7164C70.715 54.2073 53.3382 44.2318 38.0506 35.3582M77.7899 64.4385C71.5425 57.6898 60.1441 47.3209 39.3332 33.1546M82.6513 55.8206C68.9153 49.6426 62.068 38.4079 50.5248 27.6848M79.8586 53.558C72.7216 46.77 66.3708 42.5004 47.9596 24.0842M80.3137 47.0061C71.0253 38.3882 64.7986 33.0562 61.799 29.1802M80.4585 43.4645C76.5487 39.1556 70.4047 34.9254 60.5992 26.2485" stroke="#CED4DA" stroke-width="0.5" stroke-linecap="round"/>
<path d="M64.7159 28.5899C70.0944 30.3804 77.4382 37.011 79.9827 41.556C82.5272 46.101 80.9757 50.9805 79.962 55.8797C78.9484 60.7789 78.0588 66.8585 73.9008 70.9707C69.7221 75.0632 60.8888 80.4543 54.9724 80.5133C49.0353 80.5723 42.2915 74.8074 38.3196 71.3249C34.3271 67.8226 32.2377 64.5172 31.0585 59.5196C29.8587 54.5418 28.8864 46.5142 31.1827 41.3986C33.4996 36.283 38.1541 30.341 44.8773 28.826C51.6212 27.2913 66.6398 30.6361 71.5218 32.2889C76.4246 33.9416 74.6662 38.4473 74.2318 38.7818M48.5182 24.9893C53.2347 23.612 60.413 26.0715 66.0398 28.9441C71.6666 31.8363 80.2516 36.7552 82.2789 42.284C84.3062 47.8128 79.7552 56.3322 78.2036 62.1168C76.6315 67.9013 76.8383 73.922 72.9078 77.0111C68.998 80.1001 61.2819 81.3396 54.6828 80.6313C48.1044 79.923 37.5956 77.5029 33.3548 72.8005C29.0933 68.0784 28.5141 58.3194 29.2174 52.3381C29.9208 46.3568 33.9547 41.0051 37.5956 36.9323C41.2364 32.8595 49.3456 29.6721 51.104 27.9209C52.8624 26.1698 48.4768 25.8353 48.1458 26.4059" stroke="black" stroke-linecap="round"/>
<path d="M144.395 44.8375C146.96 42.0042 150.704 39.6432 156.6 31.4779M144.395 44.8375C149.484 40.686 154.366 34.8621 156.6 31.4779M145.202 55.9344C151.428 48.9103 159.207 43.3422 166.923 32.1862M145.202 55.9344C151.263 46.8444 160.117 38.7775 166.923 32.1862M146.029 67.051C156.021 55.5015 168.164 40.4105 178.59 31.3992M146.029 67.051C158.131 53.6521 169.033 39.5251 178.59 31.3992M148.201 76.6723C166.157 57.8823 176.314 43.2241 188.913 32.1075M148.201 76.6723C160.675 65.418 170.915 53.534 188.913 32.1075M154.449 81.8272C166.55 67.0313 183.472 54.3014 200.58 31.3402M154.449 81.8272C170.75 65.595 186.141 49.2841 200.58 31.3402M164.751 82.5355C179.211 67.3068 189.451 48.0839 210.903 32.0485M164.751 82.5355C179.128 70.022 189.202 52.2354 210.903 32.0485M176.439 81.7485C189.326 70.809 197.891 57.2723 222.57 31.2615M176.439 81.7485C187.858 67.1691 200.766 53.9669 222.57 31.2615M186.741 82.4765C197.105 66.8739 207.22 56.6427 234.258 30.4941M186.741 82.4765C199.111 68.6447 208.875 56.5247 234.258 30.4941M197.063 83.1848C205.566 72.3437 223.108 58.8464 239.14 37.1444M197.063 83.1848C208.234 70.5532 223.708 55.6196 239.14 37.1444M208.731 82.3978C219.074 72.8946 227.245 65.3983 239.947 48.2413M208.731 82.3978C216.819 73.4652 230.617 60.5778 239.947 48.2413M219.053 83.1061C226.79 79.4268 231.134 71.2615 239.409 60.8336M219.053 83.1061C225.652 77.3412 230.348 69.9433 239.409 60.8336M160.799 77.2625C157.779 73.6619 153.849 73.5832 146.753 65.6541M160.799 77.2625C155.317 73.5242 149.525 68.6644 146.753 65.6541M174.039 77.7741C167.812 70.1794 159.765 66.0082 147.498 55.836M174.039 77.7741C166.509 72.8553 160.924 69.6285 147.498 55.836M187.278 78.2857C175.135 72.8749 169.591 64.7293 141.995 40.8631M187.278 78.2857C176.728 66.7362 164.647 59.6727 141.995 40.8631M200.518 78.7972C182.914 60.3811 158.917 50.2089 144.312 32.3436M200.518 78.7972C180.514 61.9748 161.337 46.6673 144.312 32.3436M212.185 78.0299C199.049 61.6993 183.1 55.8557 149.732 26.4016M212.185 78.0299C192.181 63.5685 174.887 49.1464 149.732 26.4016M225.425 78.5414C197.932 54.4981 172.86 35.1178 159.848 24.3357M225.425 78.5414C202.09 59.7908 175.528 36.2197 159.848 24.3357M232.417 73.898C211.275 55.6196 188.685 42.0239 171.515 23.5487M232.417 73.898C218.598 60.6959 205.814 50.2285 171.515 23.5487M240.961 70.5336C223.501 54.3604 203.559 36.7509 184.755 24.0603M240.961 70.5336C224.846 58.8464 212.351 48.202 184.755 24.0603M240.154 59.4366C233.72 48.8709 220.481 45.4474 197.994 24.5718M240.154 59.4366C232.458 49.9137 222.694 43.1454 197.994 24.5718M240.899 49.6186C236.389 43.5979 227.183 37.2231 209.662 23.8045M240.899 49.6186C231.714 43.8931 224.97 37.2231 209.662 23.8045M240.071 38.5217C235.561 34.803 232.458 29.3136 222.901 24.316M240.071 38.5217C233.906 34.7637 229.086 29.4907 222.901 24.316" stroke="#CED4DA" stroke-width="0.5" stroke-linecap="round"/>
<path d="M154.407 29.412C179.707 29.9038 205.772 31.0844 227.225 29.412M154.407 29.412C177.101 30.3957 197.208 28.861 227.225 29.412M227.225 29.412C235.396 29.9432 240.981 31.7927 240.112 41.6894M227.225 29.412C239.823 24.985 239.513 30.3564 240.112 41.6894M240.112 41.6894C239.161 50.3466 240.836 57.2133 240.112 66.2246M240.112 41.6894C240.278 48.8906 238.995 58.7283 240.112 66.2246M240.112 66.2246C238.023 73.4258 234.424 80.8828 227.225 78.4824M240.112 66.2246C236.761 74.8228 234.92 77.1248 227.225 78.4824M227.225 78.4824C205.835 78.6595 182.438 76.4558 154.407 78.4824M227.225 78.4824C207.076 79.3875 182.521 78.384 154.407 78.4824M154.407 78.4824C149.463 74.567 143.319 73.2291 141.499 66.2246M154.407 78.4824C144.043 78.325 141.747 74.9408 141.499 66.2246M141.499 66.2246C138.851 61.778 139.202 54.8916 141.499 41.6894M141.499 66.2246C142.45 61.4828 140.837 55.5409 141.499 41.6894M141.499 41.6894C141.354 35.1768 147.994 25.8507 154.407 29.412M141.499 41.6894C145.657 36.2787 143.816 31.0647 154.407 29.412" stroke="black" stroke-linecap="round"/>
<path d="M25.42 424.574L255.022 426.994L267.558 432.523L268.469 492.887L264.724 497.924L248.692 505.598L16.2351 504.889L11.2703 493.596L6.45026 448.205L9.40846 432.307L27.4266 427.29" fill="#CED4DA"/>
<path d="M28.0473 425.322C96.6859 421.485 175.254 428.588 246.375 425.322M28.0473 425.322C91.6176 425.814 160.36 424.731 246.375 425.322M246.375 425.322C261.683 425.518 263.173 431.697 266.648 444.623M246.375 425.322C260.463 428.43 262.635 433.034 266.648 444.623M266.648 444.623C262.966 453.772 266.917 467.466 266.648 483.207M266.648 444.623C265.469 459.242 266.71 473.428 266.648 483.207M266.648 483.207C262.697 492.749 262.49 501.938 246.375 502.489M266.648 483.207C263.111 492.867 262.573 506.266 246.375 502.489M246.375 502.489C167.745 500.678 83.5291 499.636 28.0473 502.489M246.375 502.489C189.425 501.052 134.75 500.757 28.0473 502.489M28.0473 502.489C17.3522 503.118 4.15406 495.74 7.75355 483.207M28.0473 502.489C11.0634 506.502 4.75397 495.346 7.75355 483.207M7.75355 483.207C11.5392 472.818 6.57441 452.67 7.75355 444.623M7.75355 483.207C8.82926 476.556 8.39484 467.211 7.75355 444.623M7.75355 444.623C4.25749 433.585 12.4288 422.725 28.0473 425.322M7.75355 444.623C12.4081 433.762 11.0841 426.089 28.0473 425.322" stroke="black" stroke-linecap="round"/>
<path d="M31.8756 459.075C37.5644 456.262 43.7911 452.189 55.3757 440.482M33.9649 460.944C40.6674 454.137 46.1287 446.719 55.5412 438.16M36.2405 468.952C38.9504 464.958 53.7001 451.166 64.0228 441.033M35.9095 473.202C48.3215 460.944 57.072 444.988 63.9814 440.639M32.5996 479.046C51.0108 472.573 57.4651 462.676 69.1324 443.473M37.6678 481.977C46.8528 470.074 60.9611 455.475 72.4836 443.237M37.0886 487.644C50.7419 481.545 55.5619 471.53 75.4832 452.307M40.1709 489.021C52.6657 475.406 68.098 462.774 76.0831 450.123M46.8734 500.059C53.7208 484.437 59.8233 479.833 87.3781 454.825M45.715 496.124C52.976 487.959 62.7816 476.862 82.1444 455.75M53.8035 499.626C62.554 484.673 70.8701 480.403 84.4613 464.388M52.7071 496.734C65.3053 488.214 70.3322 478.692 87.7918 460.453M63.1746 500.571C75.3591 490.674 83.9855 483.984 88.2469 468.382M63.6711 498.131C77.4278 487.388 84.0268 474.225 89.8605 470.33M53.8656 497.127C50.3281 491.559 43.3774 485.755 30.5102 475.504M53.6587 494.747C48.7766 488.411 41.8052 483.178 31.5239 475.071M67.2292 495.612C57.9409 483.788 54.1966 483.453 32.4134 463.168M61.7886 491.481C55.1895 483.768 45.2599 475.485 31.9997 466.513M69.8357 483.748C63.4435 478.829 51.3418 475.17 32.9099 453.133M70.4357 487.624C62.9884 482.135 51.0315 473.301 29.1656 453.842M77.5726 488.942C68.8635 475.445 50.7832 463.05 36.9645 447.309M79.0827 485.322C71.4079 477.255 60.5681 468.992 37.5851 447.939M80.7583 474.324C72.4836 469.011 62.885 459.606 39.1987 441.918M81.5858 476.665C70.477 463.856 56.0584 452.779 39.9848 442.39M85.5163 469.661C70.7253 456.281 61.8506 443.296 48.1974 433.379M88.1021 468.126C71.8837 457.737 60.5474 444.811 46.3563 435.386M88.64 465.076C79.6206 456.399 69.2565 447.231 57.796 430.979M88.9296 461.574C80.1584 454.215 70.9528 446.168 58.3546 435.268" stroke="#CED4DA" stroke-width="0.5" stroke-linecap="round"/>
<path d="M41.7225 439.813C46.7287 436.626 56.741 435.386 62.8023 436.98C68.8635 438.574 73.8283 444.594 78.0898 449.356C82.3719 454.097 88.1642 459.548 88.4124 465.509C88.6607 471.491 84.3785 480.226 79.6413 485.204C74.904 490.162 66.5466 493.979 60.0509 495.376C53.5553 496.773 45.6736 496.537 40.6674 493.606C35.6406 490.674 32.0411 483.984 29.8896 477.787C27.7589 471.609 24.5111 463.128 27.7796 456.478C31.0481 449.828 44.4117 441.486 49.4593 437.905C54.5276 434.324 57.7133 434.442 58.1477 434.993M52.6864 438.2C58.6235 436.744 67.5395 436.094 72.4009 439.144C77.2623 442.174 79.7654 449.946 81.8341 456.478C83.9234 463.03 86.53 472.376 84.8336 478.397C83.158 484.417 77.614 489.848 71.7182 492.602C65.8432 495.357 56.1411 496.222 49.5421 494.924C42.9637 493.606 35.6406 488.903 32.1652 484.791C28.6898 480.659 28.6691 476.704 28.6898 470.192C28.7105 463.699 28.9587 450.871 32.2893 445.775C35.6199 440.679 45.4874 440.62 48.6939 439.616C51.921 438.613 50.9074 439.872 51.5694 439.754" stroke="black" stroke-linecap="round"/>
<path d="M194.627 464.134C196.675 452.919 205.777 443.337 213.638 432.318M192.599 464.448C201.97 450.636 213.141 440.818 215.665 436.273M190.158 476.057C199.881 468.423 211.155 461.241 227.146 440.425M189.434 476.234C203.088 464.173 210.659 451.718 224.974 440.287M195.889 485.324C203.75 471.984 213.927 460.08 228.491 442.805M191.482 484.084C206.315 469.82 217.258 455.516 232.69 441.389M202.301 487.705C213.472 480.818 217.982 466.101 240.2 448.492M200.336 490.164C215.562 472.476 231.387 456.598 239.145 447.823M203.543 495.87C219.761 484.517 227.415 474.129 244.895 457.759M206.563 493.784C217.63 482.884 231.284 465.904 245.102 455.358M217.486 497.877C224.953 489.338 229.236 480.622 245.123 462.205M218.416 494.591C224.747 485.265 234.966 475.171 246.344 460.671M228.636 494.808C232.318 487.921 241.503 480.779 243.178 478.556M227.084 495.654C233.456 489.672 240.965 482.904 243.013 477.513M210.369 489.515C206.418 480.444 196.468 478.811 190.096 471.945M209.232 487.39C203.998 483.573 198.474 478.929 189.31 468.679M226.567 492.466C215.831 483.868 208.404 472.299 187.573 461.163M228.036 491.384C213.017 481.743 200.853 469.013 190.738 458.211M233.745 483.927C222.616 475.88 209.666 467.911 189.869 455.417M235.545 487.823C221.913 475.762 210.969 468.305 191.007 452.86M240.675 482.924C233.663 475.427 220.857 467.655 192.868 443.238M240.965 483.888C223.567 468.069 207.308 455.319 195.392 444.124M245.454 473.145C233.994 464.96 221.995 455.044 203.77 440.169M246.054 475.014C228.429 462.166 213.783 449.22 200.336 439.539M242.827 462.914C239.869 462.717 233.642 455.87 210.514 436.332M248.392 465.865C236.331 454.414 223.65 446.288 208.756 437.729M252.653 458.231C240.158 447.724 231.449 440.11 218.458 431.236M249.86 460.317C241.379 447.862 228.036 441.212 221.54 432.889" stroke="#CED4DA" stroke-width="0.5" stroke-linecap="round"/>
<path d="M220.154 434.109C226.505 434.365 234.49 440.326 239 444.95C243.509 449.574 246.654 455.417 247.212 461.832C247.771 468.246 246.013 478.083 242.33 483.415C238.627 488.747 231.118 492.191 225.016 493.843C218.913 495.496 211.9 495.654 205.756 493.352C199.612 491.069 191.006 485.619 188.131 480.051C185.256 474.483 186.704 466.199 188.545 460.002C190.407 453.804 193.51 446.819 199.261 442.864C205.011 438.89 219.12 437.316 223.03 436.214C226.96 435.093 223.423 435.899 222.802 436.155M209.149 437.867C214.631 435.545 221.271 436.293 227.126 438.28C232.98 440.248 241.193 444.281 244.254 449.731C247.316 455.181 247.15 463.937 245.516 470.981C243.882 478.005 239.889 487.528 234.449 491.896C228.987 496.263 219.43 498.015 212.831 497.149C206.211 496.303 198.95 491.187 194.792 486.741C190.634 482.314 188.172 477.021 187.883 470.508C187.614 463.976 189.931 453.194 193.096 447.626C196.282 442.058 204.742 438.988 206.956 437.08C209.149 435.171 205.715 436.175 206.294 436.175" stroke="black" stroke-linecap="round"/>
<path d="M107.1 463.681C119.471 450.439 126.918 444.556 133.89 435.702M106.066 464.881C116.264 456.952 119.305 450.754 134.159 434.679M109.086 474.679C126.235 459.254 135.007 450.36 146.446 435.407M112.955 470.921C124.105 459.785 133.6 452.111 143.405 438.417M113.141 481.664C126.277 463.543 140.137 455.988 153.19 442.411M115.251 478.89C127.084 464.763 139.868 452.092 152.28 441.9M120.898 484.281C132.4 471.059 145.391 461.89 155.114 447.271M120.319 488.885C128.656 476.233 139.909 464.822 156.748 447.37M127.746 494.177C129.959 486.622 139.165 473.813 164.568 454.709M126.235 491.836C135.172 481.821 146.302 472.298 165.602 451.541M131.717 499.785C147.812 478.654 159.024 464.566 167.319 454.394M132.007 497.758C142.599 488.235 147.315 480.562 168.043 456.44M148.432 493.823C154.949 486.366 163.947 480.169 170.609 472.397M146.24 493.272C154.349 487.448 161.403 476.981 167.361 470.724M134.883 493.371C127.622 488.137 124.332 477.552 106.749 468.895M134.283 491.698C126.546 483.395 114.465 475.978 107.08 467.97M148.639 489.259C136.289 483.258 120.795 469.15 112.83 462.756M149.446 492.151C133.89 478.319 121.726 467.635 109.81 462.972M159.458 488.078C144.667 476.509 129.876 461.28 118.023 452.387M156.645 488.963C143.736 476.863 131.345 468.757 113.72 453.548M164.051 484.773C151.515 473.558 140.633 470.764 113.948 444.576M165.065 482.313C147.812 470.528 134.448 460.277 119.43 444.32M166.699 475.289C156.48 468.954 142.475 459.293 124.477 442.038M166.575 476.922C156.976 468.344 147.274 457.896 122.864 436.883M166.451 467.891C161.941 462.795 146.343 449.514 130.725 436.47M169.967 466.317C153.397 454.472 138.916 441.664 128.718 435.407M170.857 456.538C163.348 449.77 155.218 445.756 133.393 429.268M166.451 457.935C158.548 446.307 148.95 437.689 135.503 432.298" stroke="#868E96" stroke-width="0.5" stroke-linecap="round"/>
<path d="M134.552 435.033C140.489 434.108 147.481 438.319 152.983 442.136C158.486 445.973 165.23 451.738 167.547 457.994C169.864 464.251 169.967 473.735 166.906 479.657C163.844 485.599 154.866 490.99 149.115 493.587C143.385 496.204 138.379 496.873 132.421 495.279C126.484 493.686 117.713 488.747 113.472 484.045C109.231 479.342 106.604 473.656 106.997 467.006C107.411 460.355 111.196 449.534 115.851 444.104C120.485 438.673 130.787 435.663 134.862 434.384C138.937 433.125 139.827 435.761 140.302 436.469M128.718 437.119C133.745 434.148 138.234 434.364 143.447 436.469C148.681 438.594 156.211 444.005 160.017 449.79C163.823 455.574 166.244 464.33 166.326 471.197C166.409 478.044 165.168 486.504 160.534 490.951C155.9 495.417 144.936 497.522 138.523 497.896C132.09 498.25 126.773 497.424 121.995 493.154C117.237 488.885 111.838 479.263 109.893 472.298C107.948 465.333 107.845 457.188 110.369 451.344C112.872 445.5 122.015 439.047 124.994 437.276C127.994 435.505 127.58 439.795 128.283 440.7" stroke="black" stroke-linecap="round"/>
<path d="M159.783 58.5513V36.7331H162.425V56.2075H172.567V58.5513H159.783ZM182.965 58.8922C181.488 58.8922 180.192 58.5406 179.077 57.8375C177.969 57.1344 177.102 56.1507 176.477 54.8865C175.859 53.6223 175.55 52.145 175.55 50.4547C175.55 48.7501 175.859 47.2622 176.477 45.9909C177.102 44.7196 177.969 43.7324 179.077 43.0293C180.192 42.3261 181.488 41.9746 182.965 41.9746C184.442 41.9746 185.735 42.3261 186.843 43.0293C187.958 43.7324 188.824 44.7196 189.442 45.9909C190.067 47.2622 190.38 48.7501 190.38 50.4547C190.38 52.145 190.067 53.6223 189.442 54.8865C188.824 56.1507 187.958 57.1344 186.843 57.8375C185.735 58.5406 184.442 58.8922 182.965 58.8922ZM182.965 56.6337C184.087 56.6337 185.011 56.346 185.735 55.7707C186.459 55.1954 186.996 54.4391 187.344 53.5016C187.692 52.5641 187.866 51.5484 187.866 50.4547C187.866 49.3609 187.692 48.3418 187.344 47.3971C186.996 46.4525 186.459 45.6891 185.735 45.1067C185.011 44.5243 184.087 44.2331 182.965 44.2331C181.843 44.2331 180.92 44.5243 180.195 45.1067C179.471 45.6891 178.935 46.4525 178.587 47.3971C178.239 48.3418 178.065 49.3609 178.065 50.4547C178.065 51.5484 178.239 52.5641 178.587 53.5016C178.935 54.4391 179.471 55.1954 180.195 55.7707C180.92 56.346 181.843 56.6337 182.965 56.6337ZM200.823 65.0285C199.608 65.0285 198.564 64.8723 197.691 64.5598C196.817 64.2544 196.089 63.8496 195.507 63.3453C194.932 62.8481 194.473 62.3155 194.133 61.7473L196.135 60.341C196.363 60.6393 196.65 60.9802 196.998 61.3638C197.346 61.7544 197.822 62.0918 198.426 62.3758C199.037 62.667 199.836 62.8126 200.823 62.8126C202.144 62.8126 203.234 62.493 204.093 61.8538C204.953 61.2146 205.383 60.2132 205.383 58.8496V55.5257H205.169C204.985 55.824 204.722 56.1933 204.381 56.6337C204.047 57.0669 203.564 57.454 202.932 57.7949C202.307 58.1287 201.462 58.2956 200.397 58.2956C199.076 58.2956 197.89 57.9831 196.839 57.3581C195.794 56.7331 194.967 55.824 194.356 54.6308C193.753 53.4376 193.451 51.9888 193.451 50.2842C193.451 48.6081 193.745 47.1486 194.335 45.9057C194.924 44.6557 195.745 43.6898 196.796 43.0079C197.847 42.319 199.062 41.9746 200.439 41.9746C201.505 41.9746 202.35 42.1521 202.975 42.5072C203.607 42.8552 204.09 43.253 204.424 43.7004C204.765 44.1408 205.027 44.503 205.212 44.7871H205.468V42.1876H207.897V59.02C207.897 60.4263 207.577 61.5697 206.938 62.4504C206.306 63.3382 205.454 63.9881 204.381 64.4C203.316 64.819 202.13 65.0285 200.823 65.0285ZM200.738 56.0371C201.746 56.0371 202.598 55.8062 203.294 55.3446C203.991 54.8829 204.52 54.2189 204.882 53.3524C205.244 52.4859 205.425 51.449 205.425 50.2416C205.425 49.0626 205.248 48.0222 204.892 47.1202C204.537 46.2182 204.012 45.5115 203.316 45.0001C202.62 44.4888 201.76 44.2331 200.738 44.2331C199.672 44.2331 198.785 44.503 198.074 45.0427C197.371 45.5825 196.842 46.307 196.487 47.216C196.139 48.1251 195.965 49.1337 195.965 50.2416C195.965 51.378 196.142 52.3829 196.498 53.2565C196.86 54.123 197.392 54.8048 198.096 55.302C198.806 55.792 199.687 56.0371 200.738 56.0371ZM219.147 58.8922C217.669 58.8922 216.373 58.5406 215.258 57.8375C214.15 57.1344 213.284 56.1507 212.659 54.8865C212.041 53.6223 211.732 52.145 211.732 50.4547C211.732 48.7501 212.041 47.2622 212.659 45.9909C213.284 44.7196 214.15 43.7324 215.258 43.0293C216.373 42.3261 217.669 41.9746 219.147 41.9746C220.624 41.9746 221.917 42.3261 223.025 43.0293C224.14 43.7324 225.006 44.7196 225.624 45.9909C226.249 47.2622 226.562 48.7501 226.562 50.4547C226.562 52.145 226.249 53.6223 225.624 54.8865C225.006 56.1507 224.14 57.1344 223.025 57.8375C221.917 58.5406 220.624 58.8922 219.147 58.8922ZM219.147 56.6337C220.269 56.6337 221.192 56.346 221.917 55.7707C222.641 55.1954 223.177 54.4391 223.525 53.5016C223.873 52.5641 224.047 51.5484 224.047 50.4547C224.047 49.3609 223.873 48.3418 223.525 47.3971C223.177 46.4525 222.641 45.6891 221.917 45.1067C221.192 44.5243 220.269 44.2331 219.147 44.2331C218.025 44.2331 217.101 44.5243 216.377 45.1067C215.652 45.6891 215.116 46.4525 214.768 47.3971C214.42 48.3418 214.246 49.3609 214.246 50.4547C214.246 51.5484 214.42 52.5641 214.768 53.5016C215.116 54.4391 215.652 55.1954 216.377 55.7707C217.101 56.346 218.025 56.6337 219.147 56.6337Z" fill="black"/>
<path d="M71.3713 117.723L65.4054 95.905H68.0901L72.6498 113.675H72.8628L77.5077 95.905H80.4907L85.1356 113.675H85.3486L89.9083 95.905H92.5929L86.627 117.723H83.8998L79.0844 100.337H78.914L74.0986 117.723H71.3713ZM98.8358 118.107C97.7989 118.107 96.8579 117.911 96.0127 117.521C95.1675 117.123 94.4963 116.551 93.9992 115.806C93.502 115.053 93.2535 114.144 93.2535 113.078C93.2535 112.141 93.4381 111.381 93.8074 110.798C94.1767 110.209 94.6704 109.747 95.2883 109.413C95.9062 109.08 96.588 108.831 97.3337 108.668C98.0865 108.497 98.8429 108.362 99.6029 108.263C100.597 108.135 101.403 108.039 102.021 107.975C102.646 107.904 103.101 107.787 103.385 107.624C103.676 107.46 103.822 107.176 103.822 106.771V106.686C103.822 105.635 103.534 104.818 102.959 104.236C102.391 103.654 101.528 103.362 100.37 103.362C99.1696 103.362 98.2286 103.625 97.5468 104.151C96.865 104.676 96.3856 105.237 96.1086 105.834L93.7222 104.982C94.1483 103.987 94.7165 103.213 95.4267 102.659C96.1441 102.098 96.9253 101.708 97.7705 101.487C98.6228 101.26 99.4608 101.146 100.285 101.146C100.81 101.146 101.414 101.21 102.096 101.338C102.785 101.459 103.449 101.711 104.088 102.095C104.734 102.478 105.27 103.057 105.697 103.831C106.123 104.605 106.336 105.642 106.336 106.942V117.723H103.822V115.507H103.694C103.523 115.862 103.239 116.242 102.842 116.647C102.444 117.052 101.915 117.396 101.254 117.681C100.594 117.965 99.7875 118.107 98.8358 118.107ZM99.2194 115.848C100.214 115.848 101.052 115.653 101.734 115.262C102.422 114.872 102.941 114.367 103.289 113.749C103.644 113.132 103.822 112.482 103.822 111.8V109.499C103.715 109.627 103.481 109.744 103.119 109.85C102.763 109.95 102.351 110.038 101.883 110.117C101.421 110.188 100.97 110.252 100.53 110.308C100.096 110.358 99.7449 110.401 99.475 110.436C98.8216 110.521 98.2108 110.66 97.6427 110.852C97.0816 111.036 96.627 111.317 96.279 111.693C95.9381 112.063 95.7677 112.567 95.7677 113.206C95.7677 114.08 96.0908 114.74 96.7371 115.188C97.3905 115.628 98.2179 115.848 99.2194 115.848ZM118.041 101.36V103.49H109.561V101.36H118.041ZM112.033 97.4391H114.547V113.036C114.547 113.746 114.65 114.279 114.856 114.634C115.069 114.982 115.339 115.216 115.666 115.337C115.999 115.45 116.351 115.507 116.72 115.507C116.997 115.507 117.225 115.493 117.402 115.465C117.58 115.429 117.722 115.401 117.828 115.379L118.34 117.638C118.169 117.702 117.931 117.766 117.626 117.83C117.32 117.901 116.933 117.936 116.465 117.936C115.754 117.936 115.058 117.784 114.376 117.478C113.702 117.173 113.141 116.708 112.693 116.083C112.253 115.458 112.033 114.669 112.033 113.717V97.4391ZM128.508 118.064C126.932 118.064 125.571 117.716 124.428 117.02C123.292 116.317 122.414 115.337 121.797 114.08C121.186 112.815 120.88 111.345 120.88 109.669C120.88 107.993 121.186 106.516 121.797 105.237C122.414 103.952 123.274 102.95 124.375 102.233C125.483 101.509 126.775 101.146 128.253 101.146C129.105 101.146 129.946 101.288 130.777 101.573C131.608 101.857 132.365 102.318 133.047 102.958C133.728 103.59 134.272 104.428 134.677 105.472C135.081 106.516 135.284 107.801 135.284 109.328V110.394H122.67V108.22H132.727C132.727 107.297 132.542 106.473 132.173 105.749C131.811 105.024 131.292 104.453 130.618 104.034C129.95 103.614 129.162 103.405 128.253 103.405C127.251 103.405 126.385 103.654 125.653 104.151C124.929 104.641 124.371 105.28 123.981 106.068C123.59 106.857 123.395 107.702 123.395 108.604V110.053C123.395 111.288 123.608 112.336 124.034 113.195C124.467 114.048 125.067 114.698 125.834 115.145C126.601 115.585 127.493 115.806 128.508 115.806C129.169 115.806 129.765 115.713 130.298 115.529C130.838 115.337 131.303 115.053 131.694 114.676C132.084 114.293 132.386 113.817 132.599 113.249L135.028 113.931C134.772 114.754 134.343 115.479 133.739 116.104C133.135 116.722 132.39 117.205 131.502 117.553C130.614 117.894 129.616 118.064 128.508 118.064ZM139.108 117.723V101.36H141.537V103.831H141.708C142.006 103.021 142.546 102.364 143.327 101.86C144.108 101.356 144.989 101.104 145.969 101.104C146.154 101.104 146.385 101.107 146.662 101.114C146.939 101.122 147.148 101.132 147.29 101.146V103.703C147.205 103.682 147.01 103.65 146.704 103.607C146.406 103.558 146.09 103.533 145.756 103.533C144.961 103.533 144.25 103.7 143.625 104.034C143.008 104.36 142.517 104.815 142.155 105.397C141.8 105.972 141.623 106.629 141.623 107.368V117.723H139.108ZM161.222 95.905V117.723H158.708V95.905H161.222ZM172.688 118.064C171.111 118.064 169.751 117.716 168.608 117.02C167.471 116.317 166.594 115.337 165.976 114.08C165.365 112.815 165.06 111.345 165.06 109.669C165.06 107.993 165.365 106.516 165.976 105.237C166.594 103.952 167.454 102.95 168.554 102.233C169.662 101.509 170.955 101.146 172.432 101.146C173.285 101.146 174.126 101.288 174.957 101.573C175.788 101.857 176.544 102.318 177.226 102.958C177.908 103.59 178.451 104.428 178.856 105.472C179.261 106.516 179.464 107.801 179.464 109.328V110.394H166.85V108.22H176.907C176.907 107.297 176.722 106.473 176.353 105.749C175.99 105.024 175.472 104.453 174.797 104.034C174.13 103.614 173.341 103.405 172.432 103.405C171.431 103.405 170.564 103.654 169.833 104.151C169.108 104.641 168.551 105.28 168.16 106.068C167.77 106.857 167.574 107.702 167.574 108.604V110.053C167.574 111.288 167.787 112.336 168.214 113.195C168.647 114.048 169.247 114.698 170.014 115.145C170.781 115.585 171.672 115.806 172.688 115.806C173.348 115.806 173.945 115.713 174.478 115.529C175.017 115.337 175.483 115.053 175.873 114.676C176.264 114.293 176.566 113.817 176.779 113.249L179.208 113.931C178.952 114.754 178.522 115.479 177.919 116.104C177.315 116.722 176.569 117.205 175.682 117.553C174.794 117.894 173.796 118.064 172.688 118.064ZM196.171 101.36L190.12 117.723H187.563L181.512 101.36H184.239L188.756 114.399H188.926L193.443 101.36H196.171ZM205.764 118.064C204.187 118.064 202.827 117.716 201.684 117.02C200.547 116.317 199.67 115.337 199.052 114.08C198.442 112.815 198.136 111.345 198.136 109.669C198.136 107.993 198.442 106.516 199.052 105.237C199.67 103.952 200.53 102.95 201.631 102.233C202.739 101.509 204.031 101.146 205.508 101.146C206.361 101.146 207.202 101.288 208.033 101.573C208.864 101.857 209.621 102.318 210.302 102.958C210.984 103.59 211.528 104.428 211.932 105.472C212.337 106.516 212.54 107.801 212.54 109.328V110.394H199.926V108.22H209.983C209.983 107.297 209.798 106.473 209.429 105.749C209.067 105.024 208.548 104.453 207.873 104.034C207.206 103.614 206.418 103.405 205.508 103.405C204.507 103.405 203.641 103.654 202.909 104.151C202.185 104.641 201.627 105.28 201.236 106.068C200.846 106.857 200.65 107.702 200.65 108.604V110.053C200.65 111.288 200.864 112.336 201.29 113.195C201.723 114.048 202.323 114.698 203.09 115.145C203.857 115.585 204.748 115.806 205.764 115.806C206.425 115.806 207.021 115.713 207.554 115.529C208.094 115.337 208.559 115.053 208.949 114.676C209.34 114.293 209.642 113.817 209.855 113.249L212.284 113.931C212.028 114.754 211.599 115.479 210.995 116.104C210.391 116.722 209.645 117.205 208.758 117.553C207.87 117.894 206.872 118.064 205.764 118.064ZM218.878 95.905V117.723H216.364V95.905H218.878Z" fill="black"/>
</svg>
