<svg width="268" height="504" viewBox="0 0 268 504" fill="none" xmlns="http://www.w3.org/2000/svg">
<path d="M68.5035 2.09027C115.028 -0.703633 157.808 4.66775 199.657 2.09027M68.5035 2.09027C98.4786 2.26735 125.806 3.5856 199.657 2.09027M199.657 2.09027C245.644 0.634294 266.786 26.6648 265.214 64.4613M199.657 2.09027C247.63 1.18521 265.855 26.3107 265.214 64.4613M265.214 64.4613C262.98 196.464 262.276 324.806 265.214 439.14M265.214 64.4613C260.435 160.064 264.262 256.533 265.214 439.14M265.214 439.14C261.904 483.862 244.548 503.321 199.657 501.511M265.214 439.14C264.862 477.054 239.438 497.163 199.657 501.511M199.657 501.511C163.166 499.111 117.345 501.668 68.5035 501.511M199.657 501.511C172.806 500.311 142.334 501.944 68.5035 501.511M68.5035 501.511C23.696 498.225 6.11227 484.295 2.92651 439.14M68.5035 501.511C27.7713 497.064 1.14745 479.691 2.92651 439.14M2.92651 439.14C1.91286 339.878 1.51981 243.96 2.92651 64.4613M2.92651 439.14C-0.176505 296.375 1.45775 153.414 2.92651 64.4613M2.92651 64.4613C4.20909 26.6255 20.7171 2.85761 68.5035 2.09027M2.92651 64.4613C-0.238565 21.7657 29.4883 6.45821 68.5035 2.09027" stroke="black" stroke-linecap="round"/>
<path d="M29.6169 55.0394C36.8987 47.602 36.4642 41.9159 51.1725 32.5307M28.9136 51.183C38.8846 45.7329 45.6698 37.2725 49.5176 31.783M35.0162 60.1943C39.0087 49.0187 47.1386 40.0073 62.0537 31.5666M35.8023 60.155C41.2015 49.845 50.0347 40.637 57.9578 32.4323M34.9334 68.0251C46.2698 58.3842 53.3653 46.9528 64.9499 30.5632M36.0298 66.7856C50.1175 53.9966 63.8535 41.4436 67.4737 35.7575M37.4158 78.5121C49.4348 60.3714 69.2941 49.0974 78.0446 37.1741M42.8564 76.4265C52.2689 63.7556 61.6814 50.8682 78.2515 37.9611M51.3173 76.033C58.8266 72.5701 61.5573 66.7856 84.7885 42.4077M49.7658 78.3547C56.4063 70.091 64.5155 62.9882 80.4236 42.2503M58.7439 78.3153C66.3152 76.9184 69.3148 69.5991 86.8365 53.9179M57.6061 81.6602C66.4186 71.1732 74.4244 62.6931 84.1472 52.757M56.6959 75.5018C48.0902 73.731 37.9951 60.8042 32.782 57.6759M55.3306 80.3813C46.7662 70.6419 38.8018 63.2637 30.341 55.9051M65.9222 74.9312C51.5242 65.4476 37.3538 55.8067 29.2239 45.5361M65.1361 74.4786C54.1721 67.2381 47.8419 57.5972 32.3269 46.3035M69.0666 67.4349C60.2333 61.2371 48.7315 51.242 35.554 39.7122M74.1555 71.8815C60.5643 63.3227 49.2073 51.183 31.458 38.0005M80.3201 66.0969C71.0111 56.7314 62.7778 54.6852 38.1192 33.967M79.4927 63.9326C66.9565 56.6331 58.7232 49.0974 38.0571 34.3408M85.6573 57.5381C76.7 54.1146 67.1634 44.2572 43.5391 30.4648M84.6437 60.0369C69.6665 46.9921 55.1857 36.0919 47.4489 27.5725M85.678 50.8682C78.7893 47.1495 74.9002 38.0988 60.9573 30.1303M85.5953 51.4978C74.983 41.9159 65.8808 34.0851 60.7091 28.9694" stroke="#CED4DA" stroke-width="0.5" stroke-linecap="round"/>
<path d="M63.6053 29.4614C69.1907 31.1731 74.5693 34.8327 77.693 39.5745C80.8167 44.3163 83.5059 52.3242 82.3475 57.8726C81.2097 63.4408 75.0864 69.2253 70.7629 72.9243C66.4394 76.643 62.0952 80.1649 56.4477 80.1255C50.8002 80.0862 41.3463 76.3478 36.878 72.6882C32.4097 69.0286 30.7754 63.4801 29.6376 58.1481C28.4999 52.7964 27.4862 45.5165 30.0307 40.637C32.5752 35.7378 39.0087 30.8386 44.8631 28.7924C50.7174 26.7462 61.5159 28.2415 65.1568 28.3399C68.8183 28.4382 66.8324 29.2056 66.7497 29.4023M50.9243 28.9892C56.0339 28.576 66.7497 30.878 71.6111 33.5145C76.4724 36.151 79.4927 40.0861 80.0719 44.8082C80.6719 49.5303 77.7964 56.8298 75.1692 61.8667C72.542 66.9233 69.6044 72.098 64.3293 75.0493C59.0749 78.0202 49.1866 81.3847 43.5391 79.6336C37.8917 77.9022 32.9682 70.1894 30.5065 64.6213C28.0655 59.0532 27.8793 51.3207 28.8102 46.2051C29.7204 41.0698 31.7477 37.4496 36.0505 33.8293C40.3741 30.209 52.2483 25.5263 54.6686 24.4638C57.0683 23.4013 50.8622 27.0413 50.5313 27.4348" stroke="black" stroke-linecap="round"/>
<path d="M143.036 44.3907C148.001 40.4556 153.503 32.9003 155.241 31.0311M143.036 44.3907C147.07 39.3932 151.083 34.494 155.241 31.0311M143.843 55.4876C153.71 49.0538 155.034 43.1512 165.564 31.7394M143.843 55.4876C149.532 46.3976 156.42 39.9834 165.564 31.7394M144.67 66.6042C151.642 55.3696 162.502 44.9416 177.231 30.9524M144.67 66.6042C152.366 54.4448 163.392 45.5909 177.231 30.9524M146.842 76.2255C157.91 62.3543 162.564 55.6647 187.554 31.6607M146.842 76.2255C155.8 63.4168 166.04 52.0641 187.554 31.6607M153.09 81.3805C166.702 62.1379 187.533 42.1871 199.221 30.8934M153.09 81.3805C168.232 63.8103 182.589 50.3524 199.221 30.8934M163.392 82.0888C178.617 64.7941 201.621 44.9416 209.544 31.6017M163.392 82.0888C172.287 72.7823 186.292 60.8197 209.544 31.6017M175.08 81.3018C189.85 66.2304 208.034 50.0179 221.211 30.8147M175.08 81.3018C187.802 65.1286 203.751 51.6509 221.211 30.8147M185.382 82.0297C205.551 63.9874 214.26 45.0597 232.899 30.0473M185.382 82.0297C197.69 69.7129 210.847 56.5698 232.899 30.0473M195.704 82.7381C206.317 68.7292 215.584 57.16 237.781 36.6976M195.704 82.7381C202.159 72.3494 210.33 64.676 237.781 36.6976M207.372 81.951C211.943 76.8945 223.569 67.0174 238.588 47.7946M207.372 81.951C212.523 72.9004 222.99 66.6829 238.588 47.7946M217.694 82.6594C222.266 74.0612 234.72 66.8403 238.05 60.3868M217.694 82.6594C222.514 77.6225 229.879 68.1192 238.05 60.3868M159.44 76.8158C154.393 75.3598 150.09 69.5949 145.394 65.2073M159.44 76.8158C156.069 73.4513 152.883 71.9559 145.394 65.2073M172.68 77.3273C167.115 72.1527 162.792 68.257 146.139 55.3893M172.68 77.3273C164.985 72.4872 158.654 66.5255 146.139 55.3893M185.92 77.8389C175.224 69.3785 161.178 57.2978 140.636 40.4163M185.92 77.8389C171.522 65.3647 156.089 56.0385 140.636 40.4163M199.159 78.3504C182.506 64.1842 174.273 55.8418 142.953 31.8968M199.159 78.3504C183.872 63.7119 166.66 50.0179 142.953 31.8968M210.826 77.5831C187.43 63.9874 171.77 45.2761 148.373 25.9549M210.826 77.5831C188.609 54.9957 160.62 34.9268 148.373 25.9549M224.066 78.0947C213.702 64.7744 199.573 54.9761 158.489 23.8889M224.066 78.0947C204.579 63.771 185.32 46.1615 158.489 23.8889M231.058 73.4513C213.474 57.711 193.512 44.5678 170.156 23.1019M231.058 73.4513C206.482 53.6972 183.354 34.6317 170.156 23.1019M239.602 70.0868C227.562 59.6588 214.778 51.6116 183.396 23.6135M239.602 70.0868C220.653 56.8256 203.586 38.8226 183.396 23.6135M238.795 58.9899C219.618 44.6662 203.751 32.1723 196.635 24.125M238.795 58.9899C229.031 50.1162 218.749 43.9972 196.635 24.125M239.54 49.1718C226.941 42.6789 225.059 32.5658 208.303 23.3577M239.54 49.1718C232.527 42.7773 227.686 35.8909 208.303 23.3577M238.712 38.0749C231.327 33.4512 226.507 26.978 221.542 23.8693M238.712 38.0749C235.009 34.7891 230.334 31.3656 221.542 23.8693" stroke="#CED4DA" stroke-width="0.5" stroke-linecap="round"/>
<path d="M153.048 28.9652C179.052 29.1029 209.109 28.6307 225.866 28.9652M153.048 28.9652C172.432 27.9027 192.994 29.2604 225.866 28.9652M225.866 28.9652C238.092 27.9814 240.988 35.0252 238.754 41.2427M225.866 28.9652C238.257 26.86 234.74 29.5358 238.754 41.2427M238.754 41.2427C238.65 48.9751 241.008 56.5305 238.754 65.7779M238.754 41.2427C238.816 46.3779 239.478 53.7956 238.754 65.7779M238.754 65.7779C235.775 74.5925 237.802 74.7695 225.866 78.0357M238.754 65.7779C238.195 75.1237 231.389 80.2196 225.866 78.0357M225.866 78.0357C205.551 77.6618 190.388 80.9673 153.048 78.0357M225.866 78.0357C200.318 78.7637 170.715 80.6328 153.048 78.0357M153.048 78.0357C141.257 80.9083 140.512 71.9166 140.14 65.7779M153.048 78.0357C146.718 80.0229 137.409 71.6215 140.14 65.7779M140.14 65.7779C137.513 58.0061 140.119 54.9171 140.14 41.2427M140.14 65.7779C139.685 58.6357 140.76 54.7006 140.14 41.2427M140.14 41.2427C139.892 31.8378 143.16 26.5058 153.048 28.9652M140.14 41.2427C144.525 31.8772 142.829 27.706 153.048 28.9652" stroke="black" stroke-linecap="round"/>
<path d="M24.1177 423.158L256.968 421.407L261.54 435.101L267.125 490.644L260.857 499.282L247.555 499.144L19.6287 503.197L11.6436 488.952L7.21667 445.706L13.7744 426.227L28.855 423.236" fill="#CED4DA"/>
<path d="M26.9518 423.433C96.5213 421.525 170.311 420.305 245.28 423.433M26.9518 423.433C89.3844 424.358 155.748 423.689 245.28 423.433M245.28 423.433C258.478 420.246 262.139 426.089 265.553 442.735M245.28 423.433C259.078 421.21 261.85 433.802 265.553 442.735M265.553 442.735C261.746 452.356 266.194 464.634 265.553 481.318M265.553 442.735C264.643 449.838 266.732 461.918 265.553 481.318M265.553 481.318C268.159 490.31 257.237 499.715 245.28 500.6M265.553 481.318C263.484 491.235 256.202 496.704 245.28 500.6M245.28 500.6C200.803 500.226 146.811 495.426 26.9518 500.6M245.28 500.6C182.268 501.918 115.967 500.423 26.9518 500.6M26.9518 500.6C10.6713 499.636 10.7541 497.964 6.65811 481.318M26.9518 500.6C12.3056 498.298 2.97587 497.059 6.65811 481.318M6.65811 481.318C6.9891 464.594 3.05862 459.164 6.65811 442.735M6.65811 481.318C6.59605 467.034 6.34781 452.651 6.65811 442.735M6.65811 442.735C10.1128 431.028 13.1538 420.895 26.9518 423.433M6.65811 442.735C3.20343 427.368 9.30602 426.207 26.9518 423.433" stroke="black" stroke-linecap="round"/>
<path d="M31.7161 460.197C35.3983 457.246 44.5419 451.245 50.6651 439.872M33.6606 462.932C37.0739 457.187 41.1699 452.484 53.251 440.659M30.2473 470.625C39.5357 464.624 52.196 452.622 60.2638 442.686M31.985 471.766C44.0867 458.249 57.3883 447.093 64.7114 440.069M35.8327 479.439C43.5282 469.7 48.3896 467.516 68.6626 440.797M33.9502 484.142C43.4868 472.238 53.7268 465.332 71.0209 442.194M37.2187 492.327C48.0586 481.899 56.0851 471.373 76.3374 444.811M39.2874 487.487C54.0578 474.029 71.2691 453.271 78.3854 446.149M47.6656 492.307C62.8496 481.86 72.3448 463.188 87.0945 451.717M46.6519 492.819C60.2638 479.872 68.8281 468.008 84.488 453.094M58.795 494.078C68.7247 487.506 77.1442 474.206 93.0109 460.886M53.9543 496.852C61.8774 487.113 71.3933 476.921 89.5562 460.354M65.0631 502.007C76.958 488.018 81.9849 474.914 94.6038 466.946M62.9324 500.276C74.3308 487.664 84.6948 477.984 92.6385 467.378M63.5944 496.695C56.6022 489.258 44.8108 483.335 34.6329 478.239M62.56 499.272C53.6027 492.13 46.8381 484.653 36.6395 476.547M69.759 492.858C61.7325 488.51 55.4645 478.712 37.2394 462.499M71.3105 491.481C53.6647 479.538 41.1699 467.969 33.702 462.165M75.6754 489.73C65.3113 475.288 47.6449 460.945 31.0127 454.511M76.296 487.939C60.5534 473.989 46.445 459.43 36.5361 451.855M85.9154 483.67C66.2009 468.303 53.9957 459.646 40.0321 448.707M83.1226 483.532C66.6767 471.55 49.6308 455.554 37.2394 448.116M88.0461 478.593C73.5654 467.674 65.1459 459.154 40.4045 435.681M85.3154 475.209C76.7718 468.638 67.318 457.698 44.0454 437.334M89.7424 463.778C79.337 461.751 65.332 449.907 55.0714 435.681M89.6803 465.175C76.1512 456.537 65.932 448.411 53.0027 440.187M85.2534 449.828C77.8889 446.129 68.0213 441.446 65.2079 434.796M81.6125 450.556C77.6407 448.057 74.7445 443.512 64.1115 436.193" stroke="#CED4DA" stroke-width="0.5" stroke-linecap="round"/>
<path d="M60.9257 438.889C66.987 438.948 75.7168 440.817 80.2678 445.539C84.8189 450.261 87.653 460.63 88.2322 467.201C88.7908 473.753 87.5082 479.735 83.6812 484.949C79.8334 490.163 71.4967 497.01 65.1458 498.485C58.795 499.961 51.203 496.931 45.5555 493.803C39.908 490.674 33.9709 485.598 31.2816 479.735C28.5923 473.871 27.9924 465.018 29.4612 458.603C30.9299 452.209 34.8604 444.791 40.1149 441.309C45.3693 437.806 57.3469 438.121 60.9671 437.61C64.5873 437.078 61.3808 437.57 61.8359 438.141M47.3966 439.144C52.0097 435.819 58.4847 433.891 63.8839 435.859C69.2625 437.846 76.0891 445.519 79.73 451.028C83.3709 456.518 85.605 462.597 85.7705 468.874C85.936 475.15 85.3982 483.689 80.7023 488.667C76.0064 493.645 64.8976 498.269 57.5952 498.721C50.2721 499.174 41.6043 495.219 36.867 491.343C32.1298 487.467 30.5162 482.214 29.1509 475.465C27.7856 468.717 25.8617 456.97 28.7165 450.832C31.5712 444.673 43.7764 440.049 46.2588 438.613C48.7412 437.177 43.011 441.289 43.6109 442.194" stroke="black" stroke-linecap="round"/>
<path d="M107.969 462.892C120.96 456.675 130.29 443.099 133.372 436.999M111.237 465.824C114.795 460.098 119.595 454.806 134.303 440.738M109.665 471.707C123.463 465.017 130.91 453.448 144.502 446.345M110.865 474.009C118.912 466.178 129.4 458.19 141.73 441.269M112.354 482.823C122.76 467.437 141.088 457.462 150.315 439.085M117.278 482.686C122.201 476.154 132.379 466.434 151.783 439.99M122.429 490.871C135.379 475.307 148.163 457.659 158.465 450.536M117.34 489.612C132.669 478.711 140.302 464.939 159.872 447.506M125.946 496.203C138.44 483.492 142.309 476.37 165.188 453.271M126.483 495.435C136.206 481.643 147.005 470.428 166.636 453.428M133.103 499.941C145.164 490.025 150.128 484.299 169.801 459.154M136.02 495.731C145.784 485.598 155.072 474.088 169.243 462.853M146.736 503.502C152.466 488.923 159.127 483.827 168.229 473.773M144.915 501.082C153.149 490.694 164.444 480.049 168.684 471.176M138.751 500.492C129.152 489.238 121.291 481.407 111.858 471.884M141.957 496.34C133.455 490.772 124.125 485.322 109.748 470.703M145.226 491.815C140.84 487.821 130.662 484.161 113.285 469.818M143.778 490.28C132.379 482.627 121.126 473.635 112.934 467.536M155.362 492.523C140.654 479.793 126.339 464.584 117.526 461.102M153.48 488.628C143.819 482.548 132.958 474.58 114.733 458.977M162.437 484.122C147.563 477.905 140.116 466.434 118.188 449.474M162.292 485.381C147.17 471.038 128.035 456.163 117.567 445.971M169.926 477.196C155.941 469.897 144.377 455.652 117.526 437.688M166.367 478.593C155.238 467.673 138.854 457.619 119.264 440.521M168.746 472.868C165.147 461.023 151.535 457.245 125.346 438.003M170.215 471.825C160.637 465.175 152.114 454.393 130.062 437.295M165.25 460.846C160.72 450.93 154.473 447.723 140.902 436.291M166.243 457.777C161.03 454.255 153.376 447.25 142.847 437.354" stroke="#CED4DA" stroke-width="0.5" stroke-linecap="round"/>
<path d="M150.604 438.908C156.272 440.718 160.492 446.109 163.761 451.854C167.029 457.6 171.208 467.024 170.215 473.379C169.202 479.734 162.644 485.893 157.7 490.005C152.756 494.097 147.046 497.816 140.53 497.974C134.013 498.131 123.836 495.14 118.622 490.91C113.409 486.68 110.306 479.262 109.251 472.553C108.196 465.863 109.272 456.714 112.313 450.713C115.333 444.732 120.733 438.849 127.414 436.606C134.075 434.363 147.77 436.173 152.321 437.275C156.872 438.377 154.845 442.705 154.679 443.237M150.128 436.075C155.3 437.432 159.789 443.846 162.789 449.808C165.768 455.77 169.47 464.604 168.064 471.864C166.657 479.144 159.686 489.474 154.369 493.389C149.053 497.324 141.957 496.636 136.123 495.455C130.269 494.255 123.898 490.32 119.305 486.227C114.733 482.135 109.375 477.314 108.651 470.92C107.907 464.506 111.837 453.35 114.899 447.801C117.96 442.272 121.27 439.636 127.042 437.668C132.834 435.701 145.308 435.327 149.549 435.996C153.811 436.665 152.238 441.308 152.507 441.702" stroke="black" stroke-linecap="round"/>
<path d="M189.707 461.613C202.139 452.425 207.27 441.348 210.786 433.261M192.623 459.823C201.022 449.985 209.876 441.8 214.469 435.74M189.52 473.123C199.967 463.994 205.222 457.324 228.432 435.956M191.941 469.031C200.753 463.168 209.359 454.983 223.074 436.271M194.816 476.862C201.684 472.71 214.22 454.53 229.198 436.625M194.671 479.242C208.511 468.441 218.978 453.113 230.17 441.131M199.616 488.726C207.29 478.672 212.731 468.441 242.044 444.81M198.312 488.923C211.572 473.005 221.812 462.538 238.879 443.964M207.807 495.848C217.716 476.803 233.5 464.368 244.195 449.434M207.001 491.717C212.979 482.922 221.647 476.055 244.34 449.1M218.192 496.537C227.191 482.43 240.637 472.002 246.699 458.367M213.765 493.861C225.95 481.013 236.624 472.494 250.588 457.895M228.391 495.337C232.611 482.823 246.843 472.907 255.511 468.126M225.846 494.786C233.169 488.47 240.182 478.77 252.76 463.443M220.695 491.972C210.166 486.837 202.636 483.689 193.368 471.254M217.199 494.333C212.379 488.785 207.58 484.87 192.375 471.333M228.432 493.389C219.62 481.466 211.159 473.084 196.554 463.896M226.819 489.513C218.751 481.525 209.752 474.481 194.154 462.223M239.706 486.03C222.723 472.317 202.925 463.522 195.54 448.765M235.61 485.971C228.08 476.724 218.399 468.893 193.285 449.808M241.403 479.872C229.86 471.943 213.248 458.898 200.402 446.916M242.706 483.591C227.936 469.346 212.338 459.567 196.719 444.102M245.581 476.842C235.673 467.614 218.834 450.536 198.126 437.058M247.05 476.586C237.493 465.47 228.556 456.596 201.105 435.76M249.595 469.365C232.673 454.963 224.481 442.39 213.455 432.749M248.498 465.765C236.169 455.829 220.013 444.987 212.731 435.228M255.801 459.311C243.347 454.786 240.244 444.81 219.433 431.884M251.787 459.114C242.789 447.604 228.598 438.534 220.84 431.549" stroke="#868E96" stroke-width="0.5" stroke-linecap="round"/>
<path d="M221.709 434.107C227.894 434.441 235.135 441.249 239.644 446.03C244.175 450.831 248.581 456.399 248.891 462.853C249.181 469.306 245.437 479.577 241.486 484.732C237.555 489.867 231.308 492.464 225.205 493.723C219.082 494.983 210.621 495.101 204.808 492.287C198.995 489.474 193.182 482.941 190.348 476.822C187.493 470.703 186.252 461.731 187.741 455.573C189.231 449.434 193.037 443.158 199.264 439.951C205.511 436.743 219.268 436.173 225.184 436.291C231.121 436.409 234.928 439.872 234.824 440.619M218.958 432.513C224.295 433.084 232.073 440.088 236.5 444.987C240.927 449.867 244.402 455.553 245.54 461.869C246.699 468.185 247.361 477.235 243.389 482.902C239.417 488.549 228.887 494.353 221.709 495.789C214.531 497.245 205.573 494.569 200.298 491.539C195.023 488.509 192.375 484.063 190.079 477.609C187.783 471.156 184.576 459.35 186.521 452.818C188.445 446.306 196.347 441.033 201.746 438.436C207.146 435.838 215.131 437.393 218.875 437.216C222.619 437.039 224.357 437.471 224.212 437.412" stroke="black" stroke-linecap="round"/>
<path d="M158.242 60.3191V38.5009H160.884V57.9753H171.026V60.3191H158.242ZM181.424 60.66C179.946 60.66 178.65 60.3084 177.535 59.6053C176.427 58.9022 175.561 57.9185 174.936 56.6543C174.318 55.3901 174.009 53.9128 174.009 52.2225C174.009 50.518 174.318 49.03 174.936 47.7587C175.561 46.4874 176.427 45.5002 177.535 44.7971C178.65 44.0939 179.946 43.7424 181.424 43.7424C182.901 43.7424 184.193 44.0939 185.301 44.7971C186.417 45.5002 187.283 46.4874 187.901 47.7587C188.526 49.03 188.838 50.518 188.838 52.2225C188.838 53.9128 188.526 55.3901 187.901 56.6543C187.283 57.9185 186.417 58.9022 185.301 59.6053C184.193 60.3084 182.901 60.66 181.424 60.66ZM181.424 58.4015C182.546 58.4015 183.469 58.1138 184.193 57.5386C184.918 56.9633 185.454 56.2069 185.802 55.2694C186.15 54.3319 186.324 53.3163 186.324 52.2225C186.324 51.1288 186.15 50.1096 185.802 49.165C185.454 48.2204 184.918 47.4569 184.193 46.8745C183.469 46.2921 182.546 46.0009 181.424 46.0009C180.301 46.0009 179.378 46.2921 178.654 46.8745C177.929 47.4569 177.393 48.2204 177.045 49.165C176.697 50.1096 176.523 51.1288 176.523 52.2225C176.523 53.3163 176.697 54.3319 177.045 55.2694C177.393 56.2069 177.929 56.9633 178.654 57.5386C179.378 58.1138 180.301 58.4015 181.424 58.4015ZM199.281 66.7964C198.067 66.7964 197.023 66.6401 196.149 66.3276C195.276 66.0222 194.548 65.6174 193.965 65.1131C193.39 64.616 192.932 64.0833 192.591 63.5151L194.594 62.1089C194.821 62.4072 195.109 62.7481 195.457 63.1316C195.805 63.5222 196.281 63.8596 196.884 64.1437C197.495 64.4349 198.294 64.5805 199.281 64.5805C200.602 64.5805 201.693 64.2609 202.552 63.6216C203.411 62.9824 203.841 61.981 203.841 60.6174V57.2935H203.628C203.443 57.5918 203.181 57.9611 202.84 58.4015C202.506 58.8347 202.023 59.2218 201.391 59.5627C200.766 59.8965 199.921 60.0634 198.855 60.0634C197.534 60.0634 196.348 59.7509 195.297 59.1259C194.253 58.5009 193.426 57.5918 192.815 56.3986C192.211 55.2055 191.909 53.7566 191.909 52.052C191.909 50.3759 192.204 48.9164 192.793 47.6735C193.383 46.4235 194.203 45.4576 195.254 44.7758C196.306 44.0868 197.52 43.7424 198.898 43.7424C199.963 43.7424 200.808 43.9199 201.433 44.2751C202.065 44.6231 202.548 45.0208 202.882 45.4682C203.223 45.9086 203.486 46.2708 203.671 46.5549H203.926V43.9555H206.355V60.7878C206.355 62.1941 206.036 63.3376 205.396 64.2182C204.764 65.106 203.912 65.7559 202.84 66.1678C201.774 66.5868 200.588 66.7964 199.281 66.7964ZM199.196 57.8049C200.205 57.8049 201.057 57.5741 201.753 57.1124C202.449 56.6508 202.978 55.9867 203.34 55.1202C203.703 54.2538 203.884 53.2168 203.884 52.0094C203.884 50.8305 203.706 49.79 203.351 48.888C202.996 47.986 202.47 47.2793 201.774 46.768C201.078 46.2566 200.219 46.0009 199.196 46.0009C198.131 46.0009 197.243 46.2708 196.533 46.8106C195.83 47.3503 195.301 48.0748 194.945 48.9839C194.597 49.893 194.423 50.9015 194.423 52.0094C194.423 53.1458 194.601 54.1508 194.956 55.0243C195.318 55.8908 195.851 56.5726 196.554 57.0698C197.264 57.5599 198.145 57.8049 199.196 57.8049ZM217.605 60.66C216.128 60.66 214.832 60.3084 213.717 59.6053C212.609 58.9022 211.742 57.9185 211.117 56.6543C210.499 55.3901 210.19 53.9128 210.19 52.2225C210.19 50.518 210.499 49.03 211.117 47.7587C211.742 46.4874 212.609 45.5002 213.717 44.7971C214.832 44.0939 216.128 43.7424 217.605 43.7424C219.083 43.7424 220.375 44.0939 221.483 44.7971C222.598 45.5002 223.465 46.4874 224.083 47.7587C224.708 49.03 225.02 50.518 225.02 52.2225C225.02 53.9128 224.708 55.3901 224.083 56.6543C223.465 57.9185 222.598 58.9022 221.483 59.6053C220.375 60.3084 219.083 60.66 217.605 60.66ZM217.605 58.4015C218.727 58.4015 219.651 58.1138 220.375 57.5386C221.1 56.9633 221.636 56.2069 221.984 55.2694C222.332 54.3319 222.506 53.3163 222.506 52.2225C222.506 51.1288 222.332 50.1096 221.984 49.165C221.636 48.2204 221.1 47.4569 220.375 46.8745C219.651 46.2921 218.727 46.0009 217.605 46.0009C216.483 46.0009 215.56 46.2921 214.835 46.8745C214.111 47.4569 213.575 48.2204 213.227 49.165C212.879 50.1096 212.705 51.1288 212.705 52.2225C212.705 53.3163 212.879 54.3319 213.227 55.2694C213.575 56.2069 214.111 56.9633 214.835 57.5386C215.56 58.1138 216.483 58.4015 217.605 58.4015Z" fill="black"/>
<path d="M19.0376 111.946C25.3678 108.138 28.1191 105.693 38.0487 101.365M19.0376 111.946C23.7749 108.879 29.5672 106.064 38.0487 101.365M18.4998 118.358C30.4774 113.679 40.014 106.405 51.0814 100.212M18.4998 118.358C26.34 112.487 38.8141 106.655 51.0814 100.212M19.3272 124.01C28.6776 117.166 46.613 107.667 62.7487 99.8114M19.3272 124.01C31.3876 116.334 47.2336 110.242 62.7487 99.8114M18.7894 130.422C30.8084 125.082 39.2279 117.166 73.0714 100.172M18.7894 130.422C35.0905 121.635 46.1372 113.939 73.0714 100.172M19.5962 136.073C43.3239 123.498 65.1897 110.382 84.7387 99.7814M19.5962 136.073C31.3049 127.627 48.5369 120.092 84.7387 99.7814M19.0583 142.486C41.6069 130.462 62.1488 117.917 95.0614 100.142M19.0583 142.486C39.7244 130.322 62.397 118.939 95.0614 100.142M18.5204 148.899C53.6052 129.571 90.862 111.635 106.729 99.7413M18.5204 148.899C42.3723 134.39 67.7756 119.33 106.729 99.7413M22.0372 153.037C59.8526 134.48 96.1785 112.777 117.051 100.102M22.0372 153.037C40.738 142.126 62.066 129.26 117.051 100.102M24.2093 157.937C61.6316 135.362 96.9853 116.465 128.719 99.7112M24.2093 157.937C63.0383 137.416 99.5297 116.194 128.719 99.7112M30.4567 160.572C63.8865 145.993 91.1309 128.889 139.041 100.072M30.4567 160.572C74.5195 135.973 117.775 112.887 139.041 100.072M39.4141 161.684C62.8728 147.957 91.3999 132.807 150.709 99.6711M39.4141 161.684C78.5741 138.829 118.127 115.452 150.709 99.6711M48.3714 162.797C96.4267 136.595 138.71 113.298 161.031 100.032M48.3714 162.797C88.2348 141.765 129.319 118.799 161.031 100.032M54.6188 165.432C84.0147 151.043 106.646 134.17 172.699 99.6411M54.6188 165.432C80.2083 151.574 102.426 137.607 172.699 99.6411M66.3068 165.031C108.777 141.554 155.239 115.753 183.021 100.002M66.3068 165.031C101.495 146.624 130.974 130.332 183.021 100.002M76.6088 165.392C118.872 141.144 155.777 118.128 194.689 99.601M76.6088 165.392C115.107 145.683 148.247 124.39 194.689 99.601M88.2968 165.001C121.561 147.667 148.164 131.284 205.011 99.9617M88.2968 165.001C133.456 139.941 178.553 114.04 205.011 99.9617M98.5988 165.362C128.14 147.787 153.915 133.849 215.334 100.332M98.5988 165.362C125.636 151.474 151.226 137.186 215.334 100.332M110.287 164.971C144.668 147.085 176.774 124.751 224.292 101.445M110.287 164.971C146.158 145.352 183.683 123.709 224.292 101.445M120.589 165.332C156.998 143.649 199.467 122.917 234.594 101.805M120.589 165.332C148.868 149.36 175.822 133.358 234.594 101.805M132.277 164.931C156.915 153.187 183.539 135.913 240.841 104.431M132.277 164.931C172.988 140.903 212.686 117.767 240.841 104.431M142.579 165.292C178.739 147.156 204.949 130.663 247.088 107.066M142.579 165.292C165.665 152.155 184.945 140.693 247.088 107.066M154.267 164.901C184.573 151.514 202.405 135.212 247.916 112.717M154.267 164.901C179.587 149.851 205.032 135.272 247.916 112.717M164.569 165.261C179.753 152.837 201.019 143.949 248.723 118.368M164.569 165.261C185.194 152.276 208.797 139.049 248.723 118.368M176.257 164.861C202.033 147.406 235.462 133.699 248.185 124.781M176.257 164.861C201.267 149.25 231.78 136.124 248.185 124.781M186.559 165.221C211.135 151.855 235.607 140.142 248.992 130.442M186.559 165.221C205.673 153.408 225.967 143.107 248.992 130.442M198.247 164.831C214.92 159.099 225.74 147.847 248.454 136.845M198.247 164.831C208.797 158.378 222.781 152.346 248.454 136.845M212.624 162.917C223.237 157.085 231.511 150.602 249.281 142.506M212.624 162.917C219.782 157.666 227.229 153.187 249.281 142.506M227.022 161.013C233.476 155.933 244.13 153.739 250.088 148.157M227.022 161.013C235.297 156.254 240.448 153.729 250.088 148.157" stroke="#CED4DA" stroke-width="0.5" stroke-linecap="round"/>
<path d="M49.1988 98.8194C96.7163 97.3866 141.896 100.894 212.81 98.8194M49.1988 98.8194C94.1718 98.3184 144.544 99.1401 212.81 98.8194M212.81 98.8194C230.932 97.587 246.054 104.841 245.764 114.781M212.81 98.8194C231.304 99.9316 247.047 103.008 245.764 114.781M245.764 114.781C244.027 127.066 246.716 138.108 245.764 146.695M245.764 114.781C243.82 124.39 243.282 131.585 245.764 146.695M245.764 146.695C243.489 155.943 238.834 162.606 212.81 162.646M245.764 146.695C242.227 157.897 238.565 161.274 212.81 162.646M212.81 162.646C152.488 164.59 93.9236 161.614 49.1988 162.646M212.81 162.646C159.335 161.284 104.453 161.985 49.1988 162.646M49.1988 162.646C23.3611 162.756 18.4583 158.598 16.2448 146.695M49.1988 162.646C28.9051 163.468 16.9068 159.32 16.2448 146.695M16.2448 146.695C14.0727 136.464 14.1141 124.651 16.2448 114.781M16.2448 146.695C18.3756 134.931 16.3483 123.318 16.2448 114.781M16.2448 114.781C18.1687 105.122 23.9817 98.7693 49.1988 98.8194M16.2448 114.781C11.6524 104.551 31.2427 98.6391 49.1988 98.8194" stroke="black" stroke-linecap="round"/>
<path d="M19.0376 191.946C25.3678 188.138 28.1191 185.693 38.0487 181.365M19.0376 191.946C23.7749 188.879 29.5672 186.064 38.0487 181.365M18.4998 198.358C30.4774 193.679 40.014 186.405 51.0814 180.212M18.4998 198.358C26.34 192.487 38.8141 186.655 51.0814 180.212M19.3272 204.01C28.6776 197.166 46.613 187.667 62.7487 179.811M19.3272 204.01C31.3876 196.334 47.2336 190.242 62.7487 179.811M18.7894 210.422C30.8084 205.082 39.2279 197.166 73.0714 180.172M18.7894 210.422C35.0905 201.635 46.1372 193.939 73.0714 180.172M19.5962 216.073C43.3239 203.498 65.1897 190.382 84.7387 179.781M19.5962 216.073C31.3049 207.627 48.5369 200.092 84.7387 179.781M19.0583 222.486C41.6069 210.462 62.1488 197.917 95.0614 180.142M19.0583 222.486C39.7244 210.322 62.397 198.939 95.0614 180.142M18.5204 228.899C53.6052 209.571 90.862 191.635 106.729 179.741M18.5204 228.899C42.3723 214.39 67.7756 199.33 106.729 179.741M22.0372 233.037C59.8526 214.48 96.1785 192.777 117.051 180.102M22.0372 233.037C40.738 222.126 62.066 209.26 117.051 180.102M24.2093 237.937C61.6316 215.362 96.9853 196.465 128.719 179.711M24.2093 237.937C63.0383 217.416 99.5297 196.194 128.719 179.711M30.4567 240.572C63.8865 225.993 91.1309 208.889 139.041 180.072M30.4567 240.572C74.5195 215.973 117.775 192.887 139.041 180.072M39.4141 241.684C62.8728 227.957 91.3999 212.807 150.709 179.671M39.4141 241.684C78.5741 218.829 118.127 195.452 150.709 179.671M48.3714 242.797C96.4267 216.595 138.71 193.298 161.031 180.032M48.3714 242.797C88.2348 221.765 129.319 198.799 161.031 180.032M54.6188 245.432C84.0147 231.043 106.646 214.17 172.699 179.641M54.6188 245.432C80.2083 231.574 102.426 217.607 172.699 179.641M66.3068 245.031C108.777 221.554 155.239 195.753 183.021 180.002M66.3068 245.031C101.495 226.624 130.974 210.332 183.021 180.002M76.6088 245.392C118.872 221.144 155.777 198.128 194.689 179.601M76.6088 245.392C115.107 225.683 148.247 204.39 194.689 179.601M88.2968 245.001C121.561 227.667 148.164 211.284 205.011 179.962M88.2968 245.001C133.456 219.941 178.553 194.04 205.011 179.962M98.5988 245.362C128.14 227.787 153.915 213.849 215.334 180.332M98.5988 245.362C125.636 231.474 151.226 217.186 215.334 180.332M110.287 244.971C144.668 227.085 176.774 204.751 224.292 181.445M110.287 244.971C146.158 225.352 183.683 203.709 224.292 181.445M120.589 245.332C156.998 223.649 199.467 202.917 234.594 181.805M120.589 245.332C148.868 229.36 175.822 213.358 234.594 181.805M132.277 244.931C156.915 233.187 183.539 215.913 240.841 184.431M132.277 244.931C172.988 220.903 212.686 197.767 240.841 184.431M142.579 245.292C178.739 227.156 204.949 210.663 247.088 187.066M142.579 245.292C165.665 232.155 184.945 220.693 247.088 187.066M154.267 244.901C184.573 231.514 202.405 215.212 247.916 192.717M154.267 244.901C179.587 229.851 205.032 215.272 247.916 192.717M164.569 245.261C179.753 232.837 201.019 223.949 248.723 198.368M164.569 245.261C185.194 232.276 208.797 219.049 248.723 198.368M176.257 244.861C202.033 227.406 235.462 213.699 248.185 204.781M176.257 244.861C201.267 229.25 231.78 216.124 248.185 204.781M186.559 245.221C211.135 231.855 235.607 220.142 248.992 210.442M186.559 245.221C205.673 233.408 225.967 223.107 248.992 210.442M198.247 244.831C214.92 239.099 225.74 227.847 248.454 216.845M198.247 244.831C208.797 238.378 222.781 232.346 248.454 216.845M212.624 242.917C223.237 237.085 231.511 230.602 249.281 222.506M212.624 242.917C219.782 237.666 227.229 233.187 249.281 222.506M227.022 241.013C233.476 235.933 244.13 233.739 250.088 228.157M227.022 241.013C235.297 236.254 240.448 233.729 250.088 228.157" stroke="#CED4DA" stroke-width="0.5" stroke-linecap="round"/>
<path d="M49.1988 178.819C96.7163 177.387 141.896 180.894 212.81 178.819M49.1988 178.819C94.1718 178.318 144.544 179.14 212.81 178.819M212.81 178.819C230.932 177.587 246.054 184.841 245.764 194.781M212.81 178.819C231.304 179.932 247.047 183.008 245.764 194.781M245.764 194.781C244.027 207.066 246.716 218.108 245.764 226.695M245.764 194.781C243.82 204.39 243.282 211.585 245.764 226.695M245.764 226.695C243.489 235.943 238.834 242.606 212.81 242.646M245.764 226.695C242.227 237.897 238.565 241.274 212.81 242.646M212.81 242.646C152.488 244.59 93.9236 241.614 49.1988 242.646M212.81 242.646C159.335 241.284 104.453 241.985 49.1988 242.646M49.1988 242.646C23.3611 242.756 18.4583 238.598 16.2448 226.695M49.1988 242.646C28.9051 243.468 16.9068 239.32 16.2448 226.695M16.2448 226.695C14.0727 216.464 14.1141 204.651 16.2448 194.781M16.2448 226.695C18.3756 214.931 16.3483 203.318 16.2448 194.781M16.2448 194.781C18.1687 185.122 23.9817 178.769 49.1988 178.819M16.2448 194.781C11.6524 184.551 31.2427 178.639 49.1988 178.819" stroke="black" stroke-linecap="round"/>
<path d="M19.0376 271.946C25.3678 268.138 28.1191 265.693 38.0487 261.365M19.0376 271.946C23.7749 268.879 29.5672 266.064 38.0487 261.365M18.4998 278.358C30.4774 273.679 40.014 266.405 51.0814 260.212M18.4998 278.358C26.34 272.487 38.8141 266.655 51.0814 260.212M19.3272 284.01C28.6776 277.166 46.613 267.667 62.7487 259.811M19.3272 284.01C31.3876 276.334 47.2336 270.242 62.7487 259.811M18.7894 290.422C30.8084 285.082 39.2279 277.166 73.0714 260.172M18.7894 290.422C35.0905 281.635 46.1372 273.939 73.0714 260.172M19.5962 296.073C43.3239 283.498 65.1897 270.382 84.7387 259.781M19.5962 296.073C31.3049 287.627 48.5369 280.092 84.7387 259.781M19.0583 302.486C41.6069 290.462 62.1488 277.917 95.0614 260.142M19.0583 302.486C39.7244 290.322 62.397 278.939 95.0614 260.142M18.5204 308.899C53.6052 289.571 90.862 271.635 106.729 259.741M18.5204 308.899C42.3723 294.39 67.7756 279.33 106.729 259.741M22.0372 313.037C59.8526 294.48 96.1785 272.777 117.051 260.102M22.0372 313.037C40.738 302.126 62.066 289.26 117.051 260.102M24.2093 317.937C61.6316 295.362 96.9853 276.465 128.719 259.711M24.2093 317.937C63.0383 297.416 99.5297 276.194 128.719 259.711M30.4567 320.572C63.8865 305.993 91.1309 288.889 139.041 260.072M30.4567 320.572C74.5195 295.973 117.775 272.887 139.041 260.072M39.4141 321.684C62.8728 307.957 91.3999 292.807 150.709 259.671M39.4141 321.684C78.5741 298.829 118.127 275.452 150.709 259.671M48.3714 322.797C96.4267 296.595 138.71 273.298 161.031 260.032M48.3714 322.797C88.2348 301.765 129.319 278.799 161.031 260.032M54.6188 325.432C84.0147 311.043 106.646 294.17 172.699 259.641M54.6188 325.432C80.2083 311.574 102.426 297.607 172.699 259.641M66.3068 325.031C108.777 301.554 155.239 275.753 183.021 260.002M66.3068 325.031C101.495 306.624 130.974 290.332 183.021 260.002M76.6088 325.392C118.872 301.144 155.777 278.128 194.689 259.601M76.6088 325.392C115.107 305.683 148.247 284.39 194.689 259.601M88.2968 325.001C121.561 307.667 148.164 291.284 205.011 259.962M88.2968 325.001C133.456 299.941 178.553 274.04 205.011 259.962M98.5988 325.362C128.14 307.787 153.915 293.849 215.334 260.332M98.5988 325.362C125.636 311.474 151.226 297.186 215.334 260.332M110.287 324.971C144.668 307.085 176.774 284.751 224.292 261.445M110.287 324.971C146.158 305.352 183.683 283.709 224.292 261.445M120.589 325.332C156.998 303.649 199.467 282.917 234.594 261.805M120.589 325.332C148.868 309.36 175.822 293.358 234.594 261.805M132.277 324.931C156.915 313.187 183.539 295.913 240.841 264.431M132.277 324.931C172.988 300.903 212.686 277.767 240.841 264.431M142.579 325.292C178.739 307.156 204.949 290.663 247.088 267.066M142.579 325.292C165.665 312.155 184.945 300.693 247.088 267.066M154.267 324.901C184.573 311.514 202.405 295.212 247.916 272.717M154.267 324.901C179.587 309.851 205.032 295.272 247.916 272.717M164.569 325.261C179.753 312.837 201.019 303.949 248.723 278.368M164.569 325.261C185.194 312.276 208.797 299.049 248.723 278.368M176.257 324.861C202.033 307.406 235.462 293.699 248.185 284.781M176.257 324.861C201.267 309.25 231.78 296.124 248.185 284.781M186.559 325.221C211.135 311.855 235.607 300.142 248.992 290.442M186.559 325.221C205.673 313.408 225.967 303.107 248.992 290.442M198.247 324.831C214.92 319.099 225.74 307.847 248.454 296.845M198.247 324.831C208.797 318.378 222.781 312.346 248.454 296.845M212.624 322.917C223.237 317.085 231.511 310.602 249.281 302.506M212.624 322.917C219.782 317.666 227.229 313.187 249.281 302.506M227.022 321.013C233.476 315.933 244.13 313.739 250.088 308.157M227.022 321.013C235.297 316.254 240.448 313.729 250.088 308.157" stroke="#CED4DA" stroke-width="0.5" stroke-linecap="round"/>
<path d="M49.1988 258.819C96.7163 257.387 141.896 260.894 212.81 258.819M49.1988 258.819C94.1718 258.318 144.544 259.14 212.81 258.819M212.81 258.819C230.932 257.587 246.054 264.841 245.764 274.781M212.81 258.819C231.304 259.932 247.047 263.008 245.764 274.781M245.764 274.781C244.027 287.066 246.716 298.108 245.764 306.695M245.764 274.781C243.82 284.39 243.282 291.585 245.764 306.695M245.764 306.695C243.489 315.943 238.834 322.606 212.81 322.646M245.764 306.695C242.227 317.897 238.565 321.274 212.81 322.646M212.81 322.646C152.488 324.59 93.9236 321.614 49.1988 322.646M212.81 322.646C159.335 321.284 104.453 321.985 49.1988 322.646M49.1988 322.646C23.3611 322.756 18.4583 318.598 16.2448 306.695M49.1988 322.646C28.9051 323.468 16.9068 319.32 16.2448 306.695M16.2448 306.695C14.0727 296.464 14.1141 284.651 16.2448 274.781M16.2448 306.695C18.3756 294.931 16.3483 283.318 16.2448 274.781M16.2448 274.781C18.1687 265.122 23.9817 258.769 49.1988 258.819M16.2448 274.781C11.6524 264.551 31.2427 258.639 49.1988 258.819" stroke="black" stroke-linecap="round"/>
<path d="M19.0376 351.946C25.3678 348.138 28.1191 345.693 38.0487 341.365M19.0376 351.946C23.7749 348.879 29.5672 346.064 38.0487 341.365M18.4998 358.358C30.4774 353.679 40.014 346.405 51.0814 340.212M18.4998 358.358C26.34 352.487 38.8141 346.655 51.0814 340.212M19.3272 364.01C28.6776 357.166 46.613 347.667 62.7487 339.811M19.3272 364.01C31.3876 356.334 47.2336 350.242 62.7487 339.811M18.7894 370.422C30.8084 365.082 39.2279 357.166 73.0714 340.172M18.7894 370.422C35.0905 361.635 46.1372 353.939 73.0714 340.172M19.5962 376.073C43.3239 363.498 65.1897 350.382 84.7387 339.781M19.5962 376.073C31.3049 367.627 48.5369 360.092 84.7387 339.781M19.0583 382.486C41.6069 370.462 62.1488 357.917 95.0614 340.142M19.0583 382.486C39.7244 370.322 62.397 358.939 95.0614 340.142M18.5204 388.899C53.6052 369.571 90.862 351.635 106.729 339.741M18.5204 388.899C42.3723 374.39 67.7756 359.33 106.729 339.741M22.0372 393.037C59.8526 374.48 96.1785 352.777 117.051 340.102M22.0372 393.037C40.738 382.126 62.066 369.26 117.051 340.102M24.2093 397.937C61.6316 375.362 96.9853 356.465 128.719 339.711M24.2093 397.937C63.0383 377.416 99.5297 356.194 128.719 339.711M30.4567 400.572C63.8865 385.993 91.1309 368.889 139.041 340.072M30.4567 400.572C74.5195 375.973 117.775 352.887 139.041 340.072M39.4141 401.684C62.8728 387.957 91.3999 372.807 150.709 339.671M39.4141 401.684C78.5741 378.829 118.127 355.452 150.709 339.671M48.3714 402.797C96.4267 376.595 138.71 353.298 161.031 340.032M48.3714 402.797C88.2348 381.765 129.319 358.799 161.031 340.032M54.6188 405.432C84.0147 391.043 106.646 374.17 172.699 339.641M54.6188 405.432C80.2083 391.574 102.426 377.607 172.699 339.641M66.3068 405.031C108.777 381.554 155.239 355.753 183.021 340.002M66.3068 405.031C101.495 386.624 130.974 370.332 183.021 340.002M76.6088 405.392C118.872 381.144 155.777 358.128 194.689 339.601M76.6088 405.392C115.107 385.683 148.247 364.39 194.689 339.601M88.2968 405.001C121.561 387.667 148.164 371.284 205.011 339.962M88.2968 405.001C133.456 379.941 178.553 354.04 205.011 339.962M98.5988 405.362C128.14 387.787 153.915 373.849 215.334 340.332M98.5988 405.362C125.636 391.474 151.226 377.186 215.334 340.332M110.287 404.971C144.668 387.085 176.774 364.751 224.292 341.445M110.287 404.971C146.158 385.352 183.683 363.709 224.292 341.445M120.589 405.332C156.998 383.649 199.467 362.917 234.594 341.805M120.589 405.332C148.868 389.36 175.822 373.358 234.594 341.805M132.277 404.931C156.915 393.187 183.539 375.913 240.841 344.431M132.277 404.931C172.988 380.903 212.686 357.767 240.841 344.431M142.579 405.292C178.739 387.156 204.949 370.663 247.088 347.066M142.579 405.292C165.665 392.155 184.945 380.693 247.088 347.066M154.267 404.901C184.573 391.514 202.405 375.212 247.916 352.717M154.267 404.901C179.587 389.851 205.032 375.272 247.916 352.717M164.569 405.261C179.753 392.837 201.019 383.949 248.723 358.368M164.569 405.261C185.194 392.276 208.797 379.049 248.723 358.368M176.257 404.861C202.033 387.406 235.462 373.699 248.185 364.781M176.257 404.861C201.267 389.25 231.78 376.124 248.185 364.781M186.559 405.221C211.135 391.855 235.607 380.142 248.992 370.442M186.559 405.221C205.673 393.408 225.967 383.107 248.992 370.442M198.247 404.831C214.92 399.099 225.74 387.847 248.454 376.845M198.247 404.831C208.797 398.378 222.781 392.346 248.454 376.845M212.624 402.917C223.237 397.085 231.511 390.602 249.281 382.506M212.624 402.917C219.782 397.666 227.229 393.187 249.281 382.506M227.022 401.013C233.476 395.933 244.13 393.739 250.088 388.157M227.022 401.013C235.297 396.254 240.448 393.729 250.088 388.157" stroke="#CED4DA" stroke-width="0.5" stroke-linecap="round"/>
<path d="M49.1988 338.819C96.7163 337.387 141.896 340.894 212.81 338.819M49.1988 338.819C94.1718 338.318 144.544 339.14 212.81 338.819M212.81 338.819C230.932 337.587 246.054 344.841 245.764 354.781M212.81 338.819C231.304 339.932 247.047 343.008 245.764 354.781M245.764 354.781C244.027 367.066 246.716 378.108 245.764 386.695M245.764 354.781C243.82 364.39 243.282 371.585 245.764 386.695M245.764 386.695C243.489 395.943 238.834 402.606 212.81 402.646M245.764 386.695C242.227 397.897 238.565 401.274 212.81 402.646M212.81 402.646C152.488 404.59 93.9236 401.614 49.1988 402.646M212.81 402.646C159.335 401.284 104.453 401.985 49.1988 402.646M49.1988 402.646C23.3611 402.756 18.4583 398.598 16.2448 386.695M49.1988 402.646C28.9051 403.468 16.9068 399.32 16.2448 386.695M16.2448 386.695C14.0727 376.464 14.1141 364.651 16.2448 354.781M16.2448 386.695C18.3756 374.931 16.3483 363.318 16.2448 354.781M16.2448 354.781C18.1687 345.122 23.9817 338.769 49.1988 338.819M16.2448 354.781C11.6524 344.551 31.2427 338.639 49.1988 338.819" stroke="black" stroke-linecap="round"/>
</svg>
