<svg width="269" height="506" viewBox="0 0 269 506" fill="none" xmlns="http://www.w3.org/2000/svg">
<path d="M11.2619 107.255C12.0567 103.221 14.1802 104.003 14.253 97.9615M10.8736 109.511C12.3419 104.429 13.4157 101.906 14.2955 98.7789M11.1284 122.323C13.707 117.578 16.0549 107.361 16.0185 96.5045M11.99 116.939C13.798 111.413 15.3147 102.937 18.3665 95.7404M12.1417 130.656C12.4329 124.508 13.8162 116.299 22.8986 102.084M12.3783 132.931C13.4339 118.929 16.2491 109.6 21.849 98.85M10.1031 141.371C15.9579 122.642 18.6638 123.282 23.7662 96.1491M11.8444 142.988C15.1691 132.593 17.4564 116.708 24.197 100.2M11.0981 152.512C18.4636 134.619 19.2402 121.754 26.4297 91.8846M12.6331 153.4C17.8993 126.427 23.7419 110.204 28.0738 99.0987M9.38113 159.424C15.4422 138.155 25.5378 123.62 32.6788 92.0267M10.6067 162.462C15.4422 151.25 19.859 134.708 31.3015 99.7562M9.33259 169.854C17.8023 139.523 26.9878 124.739 33.5403 95.2784M10.4914 176.624C16.8679 150.273 23.6206 134.796 32.8365 98.9033M13.4764 189.702C21.6609 149.331 26.9393 134.672 35.6881 95.7759M11.8686 184.496C16.516 170.814 22.1524 145.671 37.6841 94.6032M9.64201 195.459C20.9389 172.946 26.8422 133.908 42.6409 104.056M11.2619 195.708C19.5435 167.935 25.5985 143.876 40.8997 95.616M10.4125 212.002C24.0938 173.923 35.1966 132.629 42.3255 103.932M10.4247 207.364C21.9339 162.231 36.2098 123.407 44.6674 94.7987M11.1527 213.903C26.8665 168.006 40.384 124.348 46.4875 101.8M11.1649 214.507C22.7166 177.513 31.7323 141.957 47.1245 99.614M12.0385 224.991C20.1745 191.55 30.4097 162.871 49.1631 97.7483M11.0071 226.75C27.9464 179.396 41.7976 125.272 49.7455 98.5657M10.9282 233.058C25.9989 186.806 40.7359 125.823 51.5414 92.2577M11.0738 235.226C21.6609 204.059 32.3329 164.826 53.4646 98.7078M9.95143 247.54C27.3337 195.37 37.3808 147.43 54.3686 99.9516M10.8615 251.36C23.1474 209.283 35.1663 166.905 56.304 99.2942M11.2741 263.674C25.3861 208.324 45.7048 154.413 58.5792 99.4186M11.6927 259.267C23.1716 223.658 32.157 193.913 59.2526 100.822M9.0899 277.445C33.2915 198.267 49.794 139.736 62.541 103.807M11.5046 268.685C26.1324 222.45 41.4457 175.256 63.8758 99.8805M11.6502 285.672C25.5317 222.308 45.7837 169.339 67.5464 96.4334M12.718 281.94C32.066 218.221 51.1106 149.456 66.0599 98.388M9.88469 286.009C27.6006 232.223 45.4136 179.432 70.1795 101.391M10.6067 289.368C33.4736 222.948 54.1502 149.829 70.6102 98.388M13.0942 306.248C31.6959 230.446 53.8651 160.828 72.6973 90.8007M12.4389 300.917C32.9821 236.203 52.1845 166.496 72.849 96.9309M10.7462 311.454C29.0506 260.369 44.5278 191.408 75.3729 97.9437M11.723 312.716C29.4086 257.952 47.6038 202.656 75.6702 95.2429M13.0032 318.633C33.5403 243.524 56.5407 179.556 77.1627 96.0958M12.2023 324.586C27.4429 273.394 43.5449 220.762 78.3883 100.68M9.64808 339.796C34.1531 271.705 53.0521 190.484 82.2469 98.8855M11.3529 335.389C34.1834 261.542 56.9653 188.369 81.2701 101.64M11.5349 353.584C25.5863 293.757 42.016 246.474 83.2359 103.434M10.7159 345.482C26.9211 298.679 41.925 247.7 86.0995 98.4235M13.44 363.02C40.9604 255.287 68.7173 166.283 88.0228 104.554M10.6552 359.981C40.3476 259.96 68.0499 163.991 89.4243 98.6545M9.49033 373.148C27.5096 308.665 46.4511 259.285 92.3305 95.8826M11.3833 369.452C37.1684 274.744 63.1356 192.918 91.9361 98.9566M12.9425 380.38C33.7648 309.127 52.1663 235.439 95.1274 103.292M10.3155 381.837C33.425 301.806 57.0503 225.755 94.7027 95.4028M13.3369 395.11C37.4414 292.353 68.7234 193.132 100.108 103.523M11.6927 389.637C32.1873 311.312 54.4839 236.292 98.9011 96.3801M10.1516 406.731C33.9771 319.166 60.0596 234.8 102.99 97.8904M11.5046 399.481C32.8547 321.121 54.399 249.352 100.46 100.218M9.66021 408.241C43.818 316.163 75.3426 203.402 106.655 96.2735M12.5542 408.348C45.723 290.043 80.985 168.149 105.156 96.3801M12.3904 426.668C33.51 357.796 54.3626 280.625 108.536 99.7917M12.2691 425.211C36.3251 342.994 59.7562 262.306 108.105 98.7256M11.3772 438.377C48.0103 314.617 84.6131 191.213 111.223 99.4719M11.1831 436.547C43.5813 327.82 76.9443 218.541 110.969 97.2152M10.3215 442.215C45.2437 321.6 85.1591 195.282 114.214 95.7049M11.0192 444.97C34.7052 364.743 60.1627 282.011 113.929 97.3751M13.0335 458.474C52.1906 323.697 93.9746 183.519 116.374 95.1185M10.9586 453.765C50.2369 319.326 91.0442 182.026 118.34 96.3623M10.2063 459.86C37.9268 370.518 65.1802 285.707 119.651 95.2784M11.8747 467.661C42.0039 364.299 73.5589 259.214 121.143 98.1392M13.531 468.247C45.6806 364.352 78.2973 247.167 123.667 93.697M14.3622 462.579C48.5988 349.906 84.0307 232.525 123.309 96.1135M19.6588 468.371C52.2512 341.235 89.2726 221.402 125.663 95.3317M17.3472 468.051C47.713 366.414 79.9232 259.907 127.865 99.1698M20.314 468.158C47.2095 385.106 69.7063 306.852 130.304 98.6367M20.7691 463.414C62.3044 329.916 102.669 191.372 131.312 97.6594M25.5985 460.482C59.7987 339.227 97.8576 209.639 134.369 103.257M24.7248 462.952C52.415 371.62 82.2833 270.142 133.077 100.538M28.6745 464.533C53.5981 388.678 79.4075 294.841 136.663 96.1669M28.3711 465.368C50.3522 386.244 71.1988 313.214 136.293 95.7759M31.9143 467.216C59.5135 373.948 85.6991 270.355 141.559 92.3999M31.8415 463.307C55.0664 385.035 79.7109 300.882 140.309 98.6012M34.1834 464.515C58.8644 374.392 81.7919 294.538 142.475 99.2053M35.1602 464.48C57.8997 392.907 80.0325 323.057 143.355 95.3317M38.1088 469.1C59.7744 383.01 83.1388 304.063 148.051 101.498M38.2726 462.614C73.8561 345.073 111.387 221.793 146.358 97.0553M41.1788 463.378C65.975 370.323 93.5014 278.653 150.575 92.2577M39.935 464.089C80.0992 327.748 120.858 186.291 149.931 94.6743M43.011 462.33C81.7616 324.763 121.792 195.477 152.122 102.173M43.4297 464.409C80.621 347.259 116.18 227.443 152.565 95.8826M47.713 466.541C87.131 337.308 125.384 208.502 155.222 98.8855M47.9254 463.822C73.3708 384.733 98.6342 300.455 156.654 98.1392M48.5806 469.846C90.6135 335.887 130.438 202.638 160.828 98.2814M50.3765 465.795C80.5906 355.646 112.807 249.423 159.208 96.8776M53.0581 467.536C92.5974 323.288 132.658 193.753 162.533 99.1698M53.8711 465.12C87.3736 353.034 121.41 241.072 161.459 99.5074M56.1281 464.036C100.254 324.266 141.322 193.363 167.38 92.8618M56.3526 462.916C91.7298 352.145 124.268 235.99 165.457 98.1214M61.5035 459.007C95.1517 353.247 127.143 238.14 169.237 92.8796M60.8301 465.741C85.4564 385.053 109.81 299.034 168.46 95.6516M62.5471 466.115C86.4818 385.373 112.291 300.384 173.769 99.0987M64.1124 467.518C104.277 322.133 146.813 181.795 173.162 99.4896M66.8608 467.27C104.586 331.551 147.395 184.016 175.583 94.1945M66.606 466.559C95.6492 366.573 126.452 262.324 174.503 97.7483M67.8619 468.851C93.3558 374.818 120.366 288.319 179.442 96.2024M68.7173 462.81C103.3 337.823 139.35 218.665 179.327 97.1797M72.9218 469.491C113.068 333.701 151.715 204.113 181.177 99.7917M72.8793 466.239C98.3247 386.848 123.169 305.377 181.917 99.4186M75.197 469.651C118.771 315.985 160.118 177.85 185.102 95.6338M76.4043 464.16C107.256 354.437 140.637 240.823 185.503 94.7098M79.7473 468.158C101.249 391.752 120.579 309.109 188.743 100.04M79.0496 463.805C110.532 363.57 140.418 262.021 187.244 98.8855M83.2844 459.522C126.403 328.282 170.657 185.153 192.68 96.9842M81.9375 463.929C106.157 380.948 130.747 301.699 192.171 97.3929M85.2502 463.52C115.252 361.794 147.365 264.651 192.814 100.947M85.6991 464.231C118.965 345.89 152.68 234.444 194.415 98.921M90.1827 467.287C132.61 321.032 175.874 176.997 197.795 98.921M89.3697 464.533C131.075 321.423 171.591 185.136 198.705 95.8292M92.3729 466.008C126.039 350.937 158.65 241.889 202.369 102.173M92.3305 463.236C121.659 361.794 153.887 254.736 201.562 95.847M97.0992 460.162C123.157 371.282 151.606 276.201 204.857 99.3119M95.0606 461.957C123.236 375.156 148.979 285.032 205.282 98.9566M97.7423 463.129C121.058 385.746 145.873 302.25 206.877 97.002M99.2348 463.947C123.709 393.831 145.593 315.843 206.665 96.0425M100.8 465.244C140.77 337.273 174.048 225.364 211.961 95.1363M102.772 462.259C126.312 382.956 151.758 301.326 210.991 95.4739M106.764 463.556C141.249 350.884 175.177 229.611 214.006 94.4077M105.617 465.741C146.006 328.85 186.37 192.474 213.217 99.4896M108.73 459.043C130.577 381.961 153.189 307.19 218.453 93.5371M108.566 465.031C143.688 346.015 180.158 229.096 217.598 97.926M110.999 464.124C144.865 368.741 176.032 255.18 219.473 96.9309M111.478 464.249C146.862 349.622 179.86 233.449 220.783 99.6318M116.362 466.932C139.138 385.035 161.793 308.558 224.508 102.155M114.014 463.396C144.295 359.395 175.249 257.615 223.495 99.9694M118.322 460.784C139.878 390.064 163.934 313.889 225.891 100.822M117.612 462.49C145.654 379.687 171.84 292.069 226.911 100.023M122.302 463.698C156.108 342.585 194.719 220.389 228.961 101.657M120.549 466.097C144.495 385.551 170.469 299.674 229.065 98.5479M122.775 459.629C161.95 347.916 196.478 216.569 231.443 95.8826M123.722 465.279C151.145 378.372 176.238 287.431 232.759 97.7661M128.272 461.957C155.489 375.493 183.452 280.181 234.464 97.9437M127.574 464.338C155.41 379.669 179.46 294.148 236.181 96.4512M130.948 465.937C164.395 350.208 195.004 246.865 241.211 98.6545M130.31 462.667C159.615 379.385 186.431 287.253 239.348 100.04M134.952 469.26C170.305 345.944 202.521 232.045 241.545 94.7453M133.926 466.31C172.119 328.317 212.447 192.598 242.254 96.9665M135.571 462.01C175.729 333.666 214.115 208.644 244.554 97.2508M136.79 463.094C166.871 363.339 197.777 262.697 245.658 96.5045M139.799 460.66C182.142 322.951 224.278 189.24 248.17 94.8875M139.508 464.16C163.479 383.223 189.665 297.257 249.244 99.614M141.935 462.436C175.146 353.904 204.335 249.246 252.793 95.4561M143.367 465.759C163.77 387.416 186.953 313.693 252.405 97.9793M145.958 464.053C184.696 336.437 225.703 199.617 257.331 100.36M146.643 464.213C170.547 381.091 195.829 299.265 256.16 100.218M149.027 469.882C184.016 357.831 213.484 249.37 257.756 101.746M149.149 466.15C190.35 337.379 229.671 200.346 258.29 97.7661M152.559 466.523C181.037 363.713 211.537 266.712 261.56 102.581M152.255 464.889C182.451 365.792 211.446 259.907 262.397 97.8016M157.078 464.071C198.529 333.914 233.5 198.889 261.73 109.44M155.926 467.163C195.489 333.559 231.74 205.836 261.633 112.674M158.043 471.001C182.354 386.652 208.473 310.939 260.304 121.896M158.753 463.68C189.859 362.984 221.523 254.683 260.656 123.016M163.783 468.229C190.696 371.62 213.745 285.423 260.535 131.012M162.533 462.099C187.827 379.136 215.511 284.552 262.47 134.281M164.044 461.992C202.06 345.091 237.656 215.822 263.514 146.168M166.652 462.685C205.191 342.088 243.268 213.619 261.02 143.166M167.854 459.345C200.531 368.67 230.138 261.79 261.712 159.3M168.551 463.378C191.467 395.092 211.967 319.681 261.263 155.995M171.67 463.769C193.602 394.471 210.93 326.434 263.295 163.529M172.198 463.183C207.878 343.278 242.976 228.385 261.517 162.605M177.694 460.109C201.702 378.141 227.378 287.609 261.463 177.104M176.499 462.294C196.193 392.569 214.479 324.71 261.645 173.568M177.136 471.268C202.721 386.03 230.83 305.342 261.166 183.234M179.569 465.546C202.26 376.115 226.638 290.771 261.244 186.895M182.366 470.13C209.213 380.558 230.885 306.444 260.243 191.124M181.298 463.858C209.577 368.048 236.812 270.302 262.3 195.975M184.168 471.801C199.845 407.673 216.761 352.501 260.201 201.252M184.38 462.33C209.195 394.826 232.456 317.052 262.397 204.628M189.04 458.687C207.781 411.671 219.521 359.093 261.524 221.81M189.956 462.774C215.741 389.495 237.698 303.387 262.264 217.315M192.043 467.874C215.122 386.688 236.909 307.687 260.911 228.811M190.933 465.066C213.108 383.401 237.916 309.589 260.911 227.479M193.263 463.485C220.989 385.853 241.423 305.058 263.507 236.861M194.027 462.134C219.466 385.48 242.072 300.775 260.971 241.338M198.432 471.374C209.85 420.36 227.621 367.782 261.214 256.531M198.881 463.272C215.329 398.149 233.227 339.227 261.985 251.964M201.623 464.853C225.588 398.344 246.447 312.894 263.556 266.712M200.567 467.696C221.299 403.071 239.567 339.263 262.5 263.852M205.263 470.966C225.606 385.604 248.255 313.427 259.467 278.298M205.16 466.559C220.844 409.503 237.097 363.215 261.026 273.696M207.32 471.783C222.294 402.449 239.9 346.779 262.664 278.049M207.545 467.572C222.215 413.679 239.197 363.801 260.626 287.893M208.752 461.317C220.292 423.807 232.468 385.71 260.886 299.78M211.391 461.939C225.176 414.887 241.945 366.858 262.124 296.475M216.075 459.736C222.7 426.295 238.25 389.016 262.173 310.602M215.153 462.365C229.999 412.275 245.883 357.813 262.276 304.134M218.854 471.534C230.824 415.918 248.698 369.967 262.585 311.312M216.566 463.68C234.604 406.322 249.681 356.196 260.686 319.237M219.424 463.894C233.621 412.826 247.618 378.55 261.402 328.85M220.971 466.186C231.14 433.384 241.472 394.471 260.844 327.411M225.285 465.617C233.754 435.89 243.577 393.564 262.846 331.889M224.35 463.449C234.203 432.603 242.855 399.748 262.464 337.539M225.467 460.162C234.161 429.991 246.113 406.305 264.09 344.558M226.456 465.653C235.107 437.311 242.297 412.115 262.082 348.627M231.467 470.432C239.209 435.463 247.824 398.415 262.755 361.172M230.915 465.955C239.913 432.016 250.336 399.712 260.85 359.43M234.185 465.99C245.555 430.612 254.559 389.584 263.435 375.493M234.064 463.965C239.203 440.599 246.702 425.459 261.827 371.709M235.15 462.01C243.498 439.728 252.295 411.244 263.787 387.47M237.134 467.572C242.843 447.777 247.86 428.516 261.22 378.034M242.303 469.242C246.574 449.625 250.087 428.995 261.093 389.886M239.997 466.665C246.677 445.609 251.98 419.383 262.634 393.564M242.952 464.995C245.87 456.004 252.326 434.682 259.716 396.709M243.65 463.449C248.716 448.843 252.405 426.828 260.644 401.631M248.127 470.93C249.535 448.115 254.498 437.382 259.109 414.816M246.35 467.394C251.458 446.978 258.605 428.196 260.753 413.003M250.955 467.376C251.859 459.611 257.962 442.553 260.45 430.506M250.955 461.69C252.538 455.595 257.022 444.881 262.082 426.65M251.573 470.948C254.073 452.45 254.565 450.78 262.33 430.524M253.794 462.117C255.796 458.669 257.677 450.602 260.777 438.733M255.05 463.591C259.085 462.81 257.871 451.402 262.161 445.982M256.676 462.916C257.853 461.868 258.035 457.443 261.699 446.373M259.206 465.937C259.691 463.876 260.899 460.944 261.372 454.991M259.273 464.515C260.11 462.134 261.105 459.629 261.979 456.537" stroke="#CED4DA" stroke-width="0.5" stroke-linecap="round"/>
<path d="M11.0253 97.7483C75.3183 100.112 139.872 99.845 260.456 95.2251M11.5228 98.9921C86.8458 104.643 162.769 102.421 260.437 97.9082M261.451 95.9892C259.564 222.237 259.091 336.224 262.076 467.536M260.231 95.9714C261.445 172.342 261.341 248.251 261.439 462.259M260.001 466.186C192.638 470.148 122.787 467.092 12.3054 466.648M260.85 463.272C174.461 462.01 88.672 459.629 11.7048 465.226M9.37502 464.356C8.73191 355.734 12.4207 252.799 12.542 97.6061M10.7219 466.097C13.1852 338.89 14.4168 212.446 10.4368 100.396" stroke="black" stroke-linecap="round"/>
<path fill-rule="evenodd" clip-rule="evenodd" d="M50.4365 228.226L56.7343 239.086L48.4468 250.353L44.5445 239.765" fill="#E64980"/>
<path d="M49.7604 231.023C53.286 235.014 52.4939 241.286 58.0769 240.661M48.7076 230.86C50.9678 233.629 50.9002 234.896 57.0724 240.734M53.9042 240.86C51.6246 244.833 50.9388 251.802 47.1814 254.661M56.3383 241.331C55.4207 244.163 52.2621 246.308 49.6155 253.53M51.3735 250.996C46.9207 247.639 44.4962 247.15 40.0917 240.064M50.1082 252.888C47.5292 248.227 43.7621 246.697 42.6996 241.503M43.878 242.082C47.4036 237.43 49.3064 234.715 48.7752 231.114M41.5502 241.467C44.6797 237.711 48.1184 232.996 49.8377 231.385" stroke="black" stroke-linecap="round"/>
<path fill-rule="evenodd" clip-rule="evenodd" d="M150.37 256.555L161.139 265.587L151.915 274.863L145.608 265.605" fill="#E64980"/>
<path d="M151.075 251.153C150.804 258.194 153.557 259.759 157.826 266.592M151.703 253.026C151.519 255.813 153.914 261.298 158.57 263.813M155.856 262.845C156.812 266.61 155.131 268.999 152.997 275.805M157.913 263.026C154.687 266.881 152.891 269.596 151.017 275.624M153.045 274.556C147.028 271.081 148.138 266.755 142.275 264.022M150.012 274.71C150.003 272.61 146.999 268.764 145.173 265.153M145.588 266.076C143.521 261.343 149.191 257.976 149.297 252.266M144.931 264.438C144.767 261.777 147.559 256.384 150.746 252.003" stroke="black" stroke-linecap="round"/>
<path fill-rule="evenodd" clip-rule="evenodd" d="M82.9395 285.838L87.4696 295.965L79.6071 303.766L76.3133 299.558" fill="#E64980"/>
<path d="M81.7804 286.408C84.5236 290.662 85.8179 294.897 90.9662 294.752M81.9736 284.137C85.0741 286.969 86.9673 291.295 90.773 295.558M89.6236 294.282C86.552 300.77 82.6304 301.856 83.0457 304.942M89.7878 296.635C88.5611 297.811 85.4315 302.255 84.2531 305.847M85.2094 304.734C81.0463 305.784 78.3514 299.766 75.3378 295.902M83.49 305.485C82.244 303.494 78.1582 301.16 75.0673 295.883M77.1827 296.055C79.9258 292.743 83.2969 286.752 80.8145 287.259M76.1685 296.924C77.231 292.508 80.3025 289.187 83.7895 285.295" stroke="black" stroke-linecap="round"/>
<path fill-rule="evenodd" clip-rule="evenodd" d="M225.45 278.209L231.941 290.137L229.932 298.978L220.891 289.015" fill="#E64980"/>
<path d="M227.932 278.842C228.589 285.738 230.897 287.901 236.113 291.856M229.159 279.765C228.956 283.603 231.844 286.716 233.708 291.386M233.728 291.376C231.168 296.634 231.487 300.064 225.43 304.028M233.457 291.358C233.988 295.44 231.564 297.44 228.048 302.698M225.72 304.254C225.826 300.363 223.112 294.453 223.199 289.494M228.676 302.327C226.029 299.322 223.315 295.992 220.05 290.481M220.572 290.888C225.044 286.091 224.59 283.675 225.546 281.268M222.127 291.775C224.957 286.933 225.208 284.137 229.043 280.453" stroke="black" stroke-linecap="round"/>
<path fill-rule="evenodd" clip-rule="evenodd" d="M149.037 315.398L155.054 323.85L147.24 332.801L146.815 324.629" fill="#E64980"/>
<path d="M150.485 314.366C154.639 315.407 154.272 316.61 158.618 323.968M151.876 312.203C154.185 316.122 155.45 321.108 156.426 322.791M157.817 322.81C156.001 324.574 153.499 326.991 148.612 333.579M157.179 323.859C153.934 326.936 151.683 330.267 151.094 334.312M151.355 335.751C147.675 329.289 148.312 330.493 143.628 321.28M151.403 332.529C149.22 330.239 148.65 329.28 143.367 322.529M142.893 321.733C145.666 319.226 148.621 315.615 148.689 309.778M144.197 322.954C147.182 318.411 149.51 315.787 151.983 312.818" stroke="black" stroke-linecap="round"/>
<path d="M69.8624 2.61448C102.382 0.135381 134.509 1.90617 201.016 2.61448M69.8624 2.61448C112.167 2.77188 152.154 5.52644 201.016 2.61448M201.016 2.61448C244.769 1.76844 265.6 22.2112 266.573 64.9855M201.016 2.61448C246.9 5.40839 263.139 27.1891 266.573 64.9855M266.573 64.9855C267.752 195.532 266.676 327.534 266.573 439.664M266.573 64.9855C269.2 176.053 265.869 291.292 266.573 439.664M266.573 439.664C268.952 480.766 244.231 505.36 201.016 502.035M266.573 439.664C269.986 479.035 240.301 503.826 201.016 502.035M201.016 502.035C151.637 503.767 106.623 501.996 69.8624 502.035M201.016 502.035C165.497 503.196 126.027 504.022 69.8624 502.035M69.8624 502.035C29.3578 500.402 5.21635 484.426 4.28545 439.664M69.8624 502.035C29.2544 501.661 2.56845 480.589 4.28545 439.664M4.28545 439.664C-2.27225 297.509 2.75463 152.128 4.28545 64.9855M4.28545 439.664C6.64374 339.634 3.74759 242.635 4.28545 64.9855M4.28545 64.9855C4.03721 20.6175 26.8547 5.48709 69.8624 2.61448M4.28545 64.9855C7.11953 22.4866 22.5105 2.81124 69.8624 2.61448" stroke="black" stroke-linecap="round"/>
<path d="M31.1413 51.3728C36.8301 48.4609 38.5885 43.0698 49.8628 31.0875M31.0172 52.2779C36.1682 47.4574 39.7883 41.4564 49.5525 34.0191M35.32 65.6178C48.3733 45.8834 58.8822 34.6291 62.0266 28.0771M35.5062 61.0334C42.8293 52.7501 53.0692 43.4633 66.5363 27.5459M42.8913 68.6478C50.1524 54.4619 56.979 44.5455 72.0803 33.1731M38.8574 67.3099C50.4213 54.5012 63.6402 43.1682 71.5425 32.6222M44.7118 78.9577C50.0076 69.6513 58.6133 59.243 73.7767 38.2493M45.6013 74.0782C55.262 61.8008 66.8052 51.1957 77.1072 40.3349M50.3386 76.4786C63.2057 66.2474 72.4113 58.1215 84.451 45.0177M51.5177 80.6301C61.8197 68.9036 71.5218 56.6655 83.9752 43.9355M58.0134 82.637C65.6468 81.122 65.1296 70.2219 78.638 60.2464M60.1027 81.5549C65.0882 74.5504 73.3629 66.7787 81.7824 56.4097M55.3655 79.5873C51.9521 72.5829 42.1052 67.8805 31.5757 59.1446M57.8892 76.9312C49.6352 70.0054 45.5599 67.1525 34.1202 57.4919M70.0324 73.5273C57.3514 64.9685 41.2778 55.7998 33.8099 49.1101M65.7916 75.1604C57.1031 66.031 52.0556 60.7973 35.0097 45.2931M75.2661 68.8052C62.8127 60.1677 61.2819 56.2523 32.548 35.1209M73.3009 70.1431C62.3162 58.0428 47.4631 46.0211 34.658 39.6069M76.0729 59.7939C70.715 54.2848 53.3382 44.3094 38.0506 35.4357M77.7899 64.516C71.5425 57.7673 60.1441 47.3984 39.3332 33.2321M82.6513 55.8982C68.9153 49.7201 62.068 38.4854 50.5248 27.7623M79.8586 53.6355C72.7216 46.8475 66.3708 42.5779 47.9596 24.1617M80.3137 47.0836C71.0253 38.4658 64.7986 33.1337 61.799 29.2577M80.4585 43.542C76.5487 39.2331 70.4047 35.0029 60.5992 26.326" stroke="#CED4DA" stroke-width="0.5" stroke-linecap="round"/>
<path d="M64.7159 28.6674C70.0944 30.4578 77.4382 37.0885 79.9827 41.6335C82.5272 46.1785 80.9757 51.058 79.962 55.9572C78.9484 60.8563 78.0588 66.936 73.9008 71.0482C69.7221 75.1407 60.8888 80.5317 54.9724 80.5908C49.0353 80.6498 42.2915 74.8849 38.3196 71.4023C34.3271 67.9001 32.2377 64.5947 31.0585 59.5971C29.8587 54.6192 28.8864 46.5917 31.1827 41.4761C33.4996 36.3605 38.1541 30.4185 44.8773 28.9035C51.6212 27.3688 66.6398 30.7136 71.5218 32.3664C76.4246 34.0191 74.6662 38.5248 74.2318 38.8592M48.5182 25.0668C53.2347 23.6895 60.413 26.1489 66.0398 29.0215C71.6666 31.9138 80.2516 36.8327 82.2789 42.3615C84.3062 47.8903 79.7552 56.4097 78.2036 62.1943C76.6315 67.9788 76.8383 73.9995 72.9078 77.0885C68.998 80.1776 61.2819 81.4171 54.6828 80.7088C48.1044 80.0005 37.5956 77.5804 33.3548 72.878C29.0933 68.1559 28.5141 58.3969 29.2174 52.4156C29.9208 46.4343 33.9547 41.0826 37.5956 37.0098C41.2364 32.9369 49.3456 29.7495 51.104 27.9984C52.8624 26.2473 48.4768 25.9128 48.1458 26.4834" stroke="black" stroke-linecap="round"/>
<path d="M144.395 44.915C146.96 42.0817 150.704 39.7207 156.6 31.5554M144.395 44.915C149.484 40.7635 154.366 34.9396 156.6 31.5554M145.202 56.0119C151.428 48.9878 159.207 43.4197 166.923 32.2637M145.202 56.0119C151.263 46.9219 160.117 38.855 166.923 32.2637M146.029 67.1285C156.021 55.5791 168.164 40.488 178.59 31.4767M146.029 67.1285C158.131 53.7296 169.033 39.6026 178.59 31.4767M148.201 76.7498C166.157 57.9598 176.315 43.3016 188.913 32.185M148.201 76.7498C160.675 65.4955 170.915 53.6115 188.913 32.185M154.449 81.9047C166.55 67.1088 183.472 54.3789 200.58 31.4177M154.449 81.9047C170.75 65.6725 186.141 49.3616 200.58 31.4177M164.751 82.6131C179.211 67.3843 189.451 48.1614 210.903 32.126M164.751 82.6131C179.128 70.0995 189.202 52.313 210.903 32.126M176.439 81.826C189.327 70.8865 197.891 57.3499 222.57 31.339M176.439 81.826C187.858 67.2466 200.766 54.0444 222.57 31.339M186.741 82.554C197.105 66.9514 207.221 56.7202 234.258 30.5716M186.741 82.554C199.111 68.7222 208.876 56.6022 234.258 30.5716M197.063 83.2624C205.566 72.4212 223.108 58.9239 239.14 37.2219M197.063 83.2624C208.234 70.6307 223.708 55.6971 239.14 37.2219M208.731 82.4753C219.074 72.9721 227.245 65.4758 239.947 48.3188M208.731 82.4753C216.819 73.5427 230.617 60.6553 239.947 48.3188M219.053 83.1837C226.79 79.5044 231.134 71.3391 239.409 60.9111M219.053 83.1837C225.652 77.4188 230.348 70.0208 239.409 60.9111M160.8 77.3401C157.779 73.7395 153.849 73.6608 146.753 65.7316M160.8 77.3401C155.318 73.6017 149.525 68.7419 146.753 65.7316M174.039 77.8516C167.812 70.2569 159.765 66.0857 147.498 55.9135M174.039 77.8516C166.509 72.9328 160.924 69.706 147.498 55.9135M187.279 78.3632C175.135 72.9524 169.591 64.8068 141.995 40.9406M187.279 78.3632C176.728 66.8137 164.647 59.7503 141.995 40.9406M200.518 78.8747C182.914 60.4586 158.917 50.2864 144.312 32.4211M200.518 78.8747C180.514 62.0523 161.337 46.7448 144.312 32.4211M212.185 78.1074C199.049 61.7768 183.1 55.9332 149.732 26.4792M212.185 78.1074C192.181 63.646 174.887 49.2239 149.732 26.4792M225.425 78.619C197.932 54.5756 172.86 35.1954 159.848 24.4132M225.425 78.619C202.09 59.8683 175.528 36.2972 159.848 24.4132M232.417 73.9756C211.275 55.6971 188.685 42.1014 171.515 23.6262M232.417 73.9756C218.598 60.7734 205.814 50.3061 171.515 23.6262M240.961 70.6111C223.501 54.4379 203.559 36.8284 184.755 24.1378M240.961 70.6111C224.846 58.9239 212.351 48.2795 184.755 24.1378M240.154 59.5141C233.72 48.9485 220.481 45.5249 197.994 24.6493M240.154 59.5141C232.458 49.9913 222.694 43.2229 197.994 24.6493M240.899 49.6961C236.389 43.6755 227.183 37.3006 209.662 23.882M240.899 49.6961C231.714 43.9706 224.97 37.3006 209.662 23.882M240.071 38.5992C235.561 34.8805 232.458 29.3911 222.901 24.3936M240.071 38.5992C233.906 34.8412 229.086 29.5682 222.901 24.3936" stroke="#CED4DA" stroke-width="0.5" stroke-linecap="round"/>
<path d="M154.407 29.4895C179.707 29.9813 205.773 31.1619 227.225 29.4895M154.407 29.4895C177.101 30.4732 197.208 28.9385 227.225 29.4895M227.225 29.4895C235.396 30.0207 240.981 31.8702 240.113 41.7669M227.225 29.4895C239.823 25.0625 239.513 30.4339 240.113 41.7669M240.113 41.7669C239.161 50.4241 240.837 57.2908 240.113 66.3021M240.113 41.7669C240.278 48.9681 238.995 58.8058 240.113 66.3021M240.113 66.3021C238.023 73.5033 234.424 80.9603 227.225 78.5599M240.113 66.3021C236.761 74.9003 234.92 77.2023 227.225 78.5599M227.225 78.5599C205.835 78.737 182.438 76.5333 154.407 78.5599M227.225 78.5599C207.076 79.465 182.521 78.4615 154.407 78.5599M154.407 78.5599C149.463 74.6445 143.319 73.3066 141.499 66.3021M154.407 78.5599C144.043 78.4025 141.747 75.0183 141.499 66.3021M141.499 66.3021C138.851 61.8555 139.203 54.9691 141.499 41.7669M141.499 66.3021C142.45 61.5603 140.837 55.6184 141.499 41.7669M141.499 41.7669C141.354 35.2543 147.994 25.9282 154.407 29.4895M141.499 41.7669C145.657 36.3562 143.816 31.1422 154.407 29.4895" stroke="black" stroke-linecap="round"/>
<path d="M25.42 424.652L255.022 427.072L267.558 432.601L268.469 492.965L264.724 498.002L248.692 505.675L16.2351 504.967L11.2703 493.673L6.45026 448.282L9.40846 432.384L27.4266 427.367" fill="#CED4DA"/>
<path d="M28.0472 425.399C96.6858 421.563 175.254 428.665 246.375 425.399M28.0472 425.399C91.6176 425.891 160.36 424.809 246.375 425.399M246.375 425.399C261.683 425.596 263.173 431.774 266.648 444.701M246.375 425.399C260.463 428.508 262.635 433.112 266.648 444.701M266.648 444.701C262.966 453.85 266.917 467.544 266.648 483.284M266.648 444.701C265.469 459.32 266.71 473.506 266.648 483.284M266.648 483.284C262.697 492.827 262.49 502.015 246.375 502.566M266.648 483.284C263.111 492.945 262.573 506.344 246.375 502.566M246.375 502.566C167.745 500.756 83.529 499.713 28.0472 502.566M246.375 502.566C189.425 501.13 134.749 500.835 28.0472 502.566M28.0472 502.566C17.3521 503.196 4.154 495.817 7.75349 483.284M28.0472 502.566C11.0634 506.58 4.75391 495.424 7.75349 483.284M7.75349 483.284C11.5392 472.896 6.57434 452.748 7.75349 444.701M7.75349 483.284C8.8292 476.634 8.39478 467.288 7.75349 444.701M7.75349 444.701C4.25743 433.663 12.4287 422.802 28.0472 425.399M7.75349 444.701C12.408 433.84 11.0841 426.167 28.0472 425.399" stroke="black" stroke-linecap="round"/>
<path d="M31.8756 459.153C37.5644 456.339 43.7911 452.266 55.3757 440.559M33.9649 461.022C40.6674 454.214 46.1287 446.797 55.5412 438.238M36.2405 469.03C38.9504 465.036 53.7001 451.243 64.0228 441.11M35.9095 473.28C48.3215 461.022 57.072 445.065 63.9814 440.717M32.5996 479.123C51.0108 472.65 57.4651 462.753 69.1324 443.55M37.6678 482.055C46.8528 470.151 60.9611 455.552 72.4836 443.314M37.0886 487.721C50.7419 481.622 55.5619 471.607 75.4832 452.384M40.1709 489.099C52.6657 475.483 68.098 462.852 76.0831 450.2M46.8734 500.137C53.7208 484.514 59.8233 479.91 87.3781 454.903M45.715 496.202C52.976 488.036 62.7816 476.939 82.1444 455.828M53.8035 499.704C62.554 484.75 70.8701 480.481 84.4613 464.465M52.7071 496.811C65.3053 488.292 70.3322 478.769 87.7918 460.53M63.1746 500.648C75.3591 490.751 83.9855 484.062 88.2469 468.459M63.6711 498.208C77.4278 487.466 84.0268 474.303 89.8605 470.407M53.8656 497.205C50.3281 491.637 43.3774 485.833 30.5102 475.582M53.6587 494.824C48.7766 488.489 41.8052 483.255 31.5239 475.149M67.2292 495.69C57.9409 483.865 54.1966 483.531 32.4134 463.245M61.7886 491.558C55.1895 483.845 45.2599 475.562 31.9997 466.59M69.8357 483.826C63.4435 478.907 51.3418 475.247 32.9099 453.211M70.4357 487.702C62.9884 482.212 51.0315 473.378 29.1656 453.919M77.5726 489.02C68.8635 475.523 50.7832 463.127 36.9645 447.387M79.0827 485.4C71.4079 477.333 60.5681 469.069 37.5851 448.016M80.7583 474.401C72.4836 469.089 62.885 459.684 39.1987 441.996M81.5858 476.743C70.477 463.934 56.0584 452.857 39.9848 442.468M85.5163 469.738C70.7253 456.359 61.8506 443.373 48.1974 433.457M88.1021 468.203C71.8837 457.815 60.5474 444.888 46.3563 435.464M88.64 465.154C79.6206 456.477 69.2565 447.308 57.796 431.056M88.9296 461.652C80.1584 454.293 70.9528 446.246 58.3546 435.346" stroke="#CED4DA" stroke-width="0.5" stroke-linecap="round"/>
<path d="M41.7225 439.891C46.7287 436.703 56.741 435.464 62.8023 437.057C68.8635 438.651 73.8283 444.672 78.0898 449.433C82.3719 454.175 88.1642 459.625 88.4124 465.587C88.6607 471.568 84.3785 480.304 79.6413 485.282C74.904 490.24 66.5466 494.057 60.0509 495.454C53.5553 496.851 45.6736 496.615 40.6674 493.683C35.6406 490.751 32.0411 484.062 29.8896 477.864C27.7589 471.686 24.5111 463.206 27.7796 456.556C31.0481 449.905 44.4117 441.563 49.4593 437.982C54.5276 434.401 57.7133 434.519 58.1477 435.07M52.6864 438.277C58.6235 436.821 67.5395 436.172 72.4009 439.222C77.2623 442.252 79.7654 450.023 81.8341 456.556C83.9234 463.108 86.53 472.453 84.8336 478.474C83.158 484.495 77.614 489.925 71.7182 492.68C65.8432 495.434 56.1411 496.3 49.5421 495.001C42.9637 493.683 35.6406 488.981 32.1652 484.868C28.6898 480.737 28.6691 476.782 28.6898 470.269C28.7105 463.776 28.9587 450.948 32.2893 445.852C35.6199 440.756 45.4874 440.697 48.6939 439.694C51.921 438.69 50.9074 439.95 51.5694 439.832" stroke="black" stroke-linecap="round"/>
<path d="M194.627 464.211C196.675 452.996 205.777 443.414 213.638 432.396M192.599 464.526C201.971 450.714 213.141 440.896 215.665 436.351M190.158 476.134C199.881 468.5 211.155 461.319 227.146 440.502M189.434 476.311C203.088 464.25 210.659 451.796 224.974 440.365M195.889 485.402C203.75 472.062 213.927 460.158 228.491 442.883M191.482 484.162C206.315 469.897 217.258 455.593 232.69 441.466M202.302 487.782C213.472 480.896 217.982 466.179 240.2 448.569M200.336 490.242C215.562 472.553 231.387 456.675 239.145 447.9M203.543 495.948C219.761 484.595 227.415 474.206 244.896 457.836M206.563 493.862C217.63 482.962 231.284 465.982 245.102 455.436M217.486 497.954C224.954 489.415 229.236 480.699 245.123 462.283M218.417 494.669C224.747 485.342 234.966 475.249 246.344 460.748M228.636 494.885C232.318 487.999 241.503 480.856 243.179 478.633M227.084 495.731C233.456 489.75 240.965 482.981 243.013 477.59M210.369 489.592C206.418 480.522 196.468 478.889 190.096 472.022M209.232 487.467C203.998 483.65 198.474 479.007 189.31 468.756M226.567 492.544C215.831 483.946 208.404 472.376 187.573 461.24M228.036 491.462C213.017 481.821 200.853 469.091 190.738 458.289M233.745 484.005C222.616 475.957 209.666 467.989 189.869 455.495M235.545 487.9C221.913 475.839 210.969 468.382 191.007 452.937M240.675 483.001C233.663 475.505 220.858 467.733 192.868 443.316M240.965 483.965C223.568 468.146 207.308 455.397 195.392 444.201M245.454 473.222C233.994 465.037 221.995 455.121 203.77 440.246M246.054 475.092C228.429 462.244 213.783 449.297 200.336 439.617M242.827 462.991C239.869 462.794 233.642 455.947 210.514 436.41M248.392 465.943C236.331 454.491 223.65 446.366 208.756 437.807M252.653 458.308C240.158 447.802 231.449 440.187 218.458 431.314M249.86 460.394C241.379 447.94 228.036 441.289 221.54 432.967" stroke="#CED4DA" stroke-width="0.5" stroke-linecap="round"/>
<path d="M220.154 434.186C226.505 434.442 234.49 440.404 239 445.028C243.51 449.651 246.654 455.495 247.212 461.909C247.771 468.323 246.013 478.161 242.33 483.493C238.627 488.825 231.118 492.268 225.016 493.921C218.913 495.574 211.9 495.731 205.756 493.429C199.612 491.147 191.007 485.697 188.131 480.128C185.256 474.56 186.704 466.277 188.545 460.079C190.407 453.881 193.51 446.897 199.261 442.942C205.011 438.968 219.12 437.393 223.03 436.292C226.96 435.17 223.423 435.977 222.802 436.233M209.149 437.944C214.631 435.623 221.271 436.37 227.126 438.358C232.98 440.325 241.193 444.359 244.254 449.809C247.316 455.259 247.15 464.014 245.516 471.058C243.882 478.082 239.889 487.605 234.449 491.973C228.987 496.341 219.43 498.092 212.831 497.226C206.211 496.38 198.95 491.265 194.792 486.818C190.634 482.391 188.172 477.098 187.883 470.586C187.614 464.054 189.931 453.272 193.096 447.703C196.282 442.135 204.743 439.066 206.956 437.157C209.149 435.249 205.715 436.252 206.294 436.252" stroke="black" stroke-linecap="round"/>
<path d="M107.1 463.758C119.471 450.517 126.918 444.634 133.89 435.78M106.066 464.958C116.265 457.029 119.305 450.831 134.159 434.757M109.086 474.757C126.236 459.331 135.007 450.438 146.447 435.485M112.955 470.999C124.105 459.862 133.6 452.189 143.406 438.495M113.141 481.741C126.277 463.62 140.137 456.065 153.19 442.489M115.251 478.967C127.084 464.84 139.868 452.169 152.28 441.977M120.898 484.358C132.4 471.136 145.391 461.968 155.114 447.349M120.319 488.962C128.656 476.311 139.909 464.899 156.749 447.447M127.746 494.255C129.959 486.7 139.165 473.891 164.568 454.786M126.236 491.914C135.172 481.899 146.302 472.376 165.602 451.618M131.718 499.862C147.812 478.731 159.024 464.643 167.319 454.471M132.007 497.836C142.599 488.313 147.315 480.64 168.043 456.518M148.432 493.901C154.949 486.444 163.947 480.246 170.609 472.474M146.24 493.35C154.349 487.526 161.403 477.059 167.361 470.802M134.883 493.448C127.622 488.215 124.332 477.629 106.749 468.972M134.283 491.776C126.546 483.473 114.465 476.055 107.08 468.047M148.639 489.336C136.289 483.335 120.795 469.228 112.831 462.833M149.446 492.228C133.89 478.397 121.726 467.713 109.81 463.05M159.458 488.156C144.667 476.586 129.876 461.358 118.023 452.464M156.645 489.041C143.737 476.941 131.345 468.834 113.72 453.625M164.051 484.85C151.515 473.635 140.634 470.841 113.948 444.653M165.065 482.391C147.812 470.605 134.448 460.354 119.43 444.398M166.699 475.367C156.48 469.031 142.475 459.37 124.477 442.115M166.575 477C156.976 468.421 147.274 457.974 122.864 436.96M166.451 467.969C161.941 462.873 146.343 449.592 130.725 436.547M169.967 466.395C153.397 454.55 138.917 441.741 128.718 435.485M170.857 456.616C163.348 449.848 155.218 445.834 133.393 429.346M166.451 458.013C158.548 446.385 148.95 437.767 135.503 432.376" stroke="#868E96" stroke-width="0.5" stroke-linecap="round"/>
<path d="M134.552 435.111C140.489 434.186 147.481 438.397 152.984 442.214C158.486 446.05 165.23 451.815 167.547 458.072C169.864 464.329 169.967 473.812 166.906 479.735C163.844 485.677 154.866 491.068 149.115 493.665C143.385 496.282 138.379 496.951 132.421 495.357C126.484 493.763 117.713 488.825 113.472 484.122C109.231 479.42 106.604 473.734 106.997 467.083C107.411 460.433 111.196 449.611 115.851 444.181C120.485 438.751 130.787 435.74 134.862 434.461C138.937 433.202 139.827 435.839 140.303 436.547M128.718 437.196C133.745 434.225 138.234 434.442 143.447 436.547C148.681 438.672 156.211 444.083 160.017 449.867C163.823 455.652 166.244 464.407 166.326 471.274C166.409 478.121 165.168 486.582 160.534 491.028C155.9 495.495 144.936 497.6 138.523 497.974C132.09 498.328 126.773 497.501 121.995 493.232C117.237 488.962 111.838 479.341 109.893 472.376C107.948 465.411 107.845 457.265 110.369 451.422C112.872 445.578 122.015 439.125 124.994 437.354C127.994 435.583 127.58 439.872 128.284 440.777" stroke="black" stroke-linecap="round"/>
<path d="M159.783 58.6288V36.8106H162.425V56.285H172.567V58.6288H159.783ZM182.965 58.9697C181.488 58.9697 180.192 58.6181 179.077 57.915C177.969 57.2119 177.102 56.2282 176.477 54.964C175.859 53.6998 175.55 52.2225 175.55 50.5322C175.55 48.8276 175.859 47.3397 176.477 46.0684C177.102 44.7971 177.969 43.8099 179.077 43.1068C180.192 42.4036 181.488 42.0521 182.965 42.0521C184.442 42.0521 185.735 42.4036 186.843 43.1068C187.958 43.8099 188.824 44.7971 189.442 46.0684C190.067 47.3397 190.38 48.8276 190.38 50.5322C190.38 52.2225 190.067 53.6998 189.442 54.964C188.824 56.2282 187.958 57.2119 186.843 57.915C185.735 58.6181 184.442 58.9697 182.965 58.9697ZM182.965 56.7112C184.087 56.7112 185.011 56.4235 185.735 55.8482C186.459 55.273 186.996 54.5166 187.344 53.5791C187.692 52.6416 187.866 51.6259 187.866 50.5322C187.866 49.4384 187.692 48.4193 187.344 47.4747C186.996 46.5301 186.459 45.7666 185.735 45.1842C185.011 44.6018 184.087 44.3106 182.965 44.3106C181.843 44.3106 180.92 44.6018 180.195 45.1842C179.471 45.7666 178.935 46.5301 178.586 47.4747C178.238 48.4193 178.064 49.4384 178.064 50.5322C178.064 51.6259 178.238 52.6416 178.586 53.5791C178.935 54.5166 179.471 55.273 180.195 55.8482C180.92 56.4235 181.843 56.7112 182.965 56.7112ZM200.823 65.1061C199.608 65.1061 198.564 64.9498 197.691 64.6373C196.817 64.3319 196.089 63.9271 195.507 63.4228C194.931 62.9257 194.473 62.393 194.132 61.8248L196.135 60.4186C196.363 60.7169 196.65 61.0578 196.998 61.4413C197.346 61.8319 197.822 62.1693 198.426 62.4534C199.037 62.7446 199.836 62.8901 200.823 62.8901C202.144 62.8901 203.234 62.5705 204.093 61.9313C204.953 61.2921 205.382 60.2907 205.382 58.9271V55.6032H205.169C204.985 55.9015 204.722 56.2708 204.381 56.7112C204.047 57.1444 203.564 57.5315 202.932 57.8724C202.307 58.2062 201.462 58.3731 200.397 58.3731C199.076 58.3731 197.89 58.0606 196.838 57.4356C195.794 56.8106 194.967 55.9015 194.356 54.7083C193.753 53.5151 193.451 52.0663 193.451 50.3617C193.451 48.6856 193.745 47.2261 194.335 45.9832C194.924 44.7332 195.745 43.7673 196.796 43.0855C197.847 42.3965 199.061 42.0521 200.439 42.0521C201.505 42.0521 202.35 42.2296 202.975 42.5848C203.607 42.9328 204.09 43.3305 204.424 43.7779C204.765 44.2183 205.027 44.5805 205.212 44.8646H205.468V42.2651H207.897V59.0975C207.897 60.5038 207.577 61.6473 206.938 62.5279C206.306 63.4157 205.454 64.0656 204.381 64.4775C203.316 64.8965 202.13 65.1061 200.823 65.1061ZM200.738 56.1146C201.746 56.1146 202.598 55.8838 203.294 55.4221C203.99 54.9605 204.52 54.2964 204.882 53.4299C205.244 52.5634 205.425 51.5265 205.425 50.3191C205.425 49.1401 205.248 48.0997 204.892 47.1977C204.537 46.2957 204.012 45.589 203.316 45.0776C202.62 44.5663 201.76 44.3106 200.738 44.3106C199.672 44.3106 198.784 44.5805 198.074 45.1203C197.371 45.66 196.842 46.3845 196.487 47.2936C196.139 48.2026 195.965 49.2112 195.965 50.3191C195.965 51.4555 196.142 52.4605 196.498 53.334C196.86 54.2005 197.392 54.8823 198.096 55.3795C198.806 55.8696 199.686 56.1146 200.738 56.1146ZM219.147 58.9697C217.669 58.9697 216.373 58.6181 215.258 57.915C214.15 57.2119 213.284 56.2282 212.659 54.964C212.041 53.6998 211.732 52.2225 211.732 50.5322C211.732 48.8276 212.041 47.3397 212.659 46.0684C213.284 44.7971 214.15 43.8099 215.258 43.1068C216.373 42.4036 217.669 42.0521 219.147 42.0521C220.624 42.0521 221.917 42.4036 223.025 43.1068C224.14 43.8099 225.006 44.7971 225.624 46.0684C226.249 47.3397 226.561 48.8276 226.561 50.5322C226.561 52.2225 226.249 53.6998 225.624 54.964C225.006 56.2282 224.14 57.2119 223.025 57.915C221.917 58.6181 220.624 58.9697 219.147 58.9697ZM219.147 56.7112C220.269 56.7112 221.192 56.4235 221.917 55.8482C222.641 55.273 223.177 54.5166 223.525 53.5791C223.873 52.6416 224.047 51.6259 224.047 50.5322C224.047 49.4384 223.873 48.4193 223.525 47.4747C223.177 46.5301 222.641 45.7666 221.917 45.1842C221.192 44.6018 220.269 44.3106 219.147 44.3106C218.025 44.3106 217.101 44.6018 216.377 45.1842C215.652 45.7666 215.116 46.5301 214.768 47.4747C214.42 48.4193 214.246 49.4384 214.246 50.5322C214.246 51.6259 214.42 52.6416 214.768 53.5791C215.116 54.5166 215.652 55.273 216.377 55.8482C217.101 56.4235 218.025 56.7112 219.147 56.7112Z" fill="black"/>
</svg>
