<svg width="267" height="504" viewBox="0 0 267 504" fill="none" xmlns="http://www.w3.org/2000/svg">
<path d="M66.9423 1.65757C109.557 -1.52984 151.737 3.68414 198.096 1.65757M66.9423 1.65757C106.537 1.06731 143.297 1.6379 198.096 1.65757M198.096 1.65757C243.938 2.38556 267.19 24.0679 263.653 64.0286M198.096 1.65757C245.696 -2.78907 267.562 20.8411 263.653 64.0286M263.653 64.0286C267.397 200.477 264.521 345.584 263.653 438.707M263.653 64.0286C263.611 206.026 263.528 348.83 263.653 438.707M263.653 438.707C265.783 477.173 240.214 498.796 198.096 501.078M263.653 438.707C262.535 477.566 239.925 503.715 198.096 501.078M198.096 501.078C162.639 501.59 126.52 504.758 66.9423 501.078M198.096 501.078C164.873 501.708 134.609 499.76 66.9423 501.078M66.9423 501.078C24.5551 502.731 5.41989 478.196 1.36529 438.707M66.9423 501.078C26.8514 502.692 -1.63429 482.603 1.36529 438.707M1.36529 438.707C8.0471 295.096 1.77902 148.515 1.36529 64.0286M1.36529 438.707C2.48237 357.861 5.66813 279.848 1.36529 64.0286M1.36529 64.0286C-2.42039 21.1756 23.4794 2.56264 66.9423 1.65757M1.36529 64.0286C0.579189 19.936 23.1071 5.78941 66.9423 1.65757" stroke="black" stroke-linecap="round"/>
<path d="M34.0535 378.864C36.7014 374.968 39.1838 373.079 44.914 366.98M34.0535 378.864C38.0047 374.673 42.7626 370.03 44.914 366.98M33.5156 391.437C42.9695 381.815 49.2996 371.978 55.2367 367.688M33.5156 391.437C41.9351 384.767 48.348 374.476 55.2367 367.688M32.9778 404.029C47.4999 389.626 53.2715 379.356 66.904 366.901M32.9778 404.029C44.19 390.453 56.7882 376.129 66.904 366.901M37.8599 410.679C54.3058 397.477 66.0352 384.57 77.2267 367.61M37.8599 410.679C51.1407 396.965 66.6351 381.855 77.2267 367.61M49.5479 409.912C57.2847 398.284 71.7861 382.504 87.5287 368.318M49.5479 409.912C64.794 394.467 79.8333 377.133 87.5287 368.318M59.8499 410.62C70.8552 400.054 88.17 382.74 99.2168 367.551M59.8499 410.62C70.3381 397.615 82.2536 386.754 99.2168 367.551M71.5379 409.833C80.9917 401.884 90.4663 389.076 109.519 368.259M71.5379 409.833C82.7708 395.942 98.8237 381.737 109.519 368.259M81.8399 410.541C92.266 397.241 103.023 388.19 121.207 367.492M81.8399 410.541C95.8241 393.975 112.001 376.346 121.207 367.492M93.5279 409.774C101.368 397.201 115.29 391.771 131.509 368.2M93.5279 409.774C106.333 396.434 117.835 381.127 131.509 368.2M103.83 410.482C114.939 400.054 126.172 387.265 143.197 367.413M103.83 410.482C115.994 395.627 129.812 382.169 143.197 367.413M115.518 409.695C130.454 397.969 140.528 376.955 153.519 368.121M115.518 409.695C123.027 401.038 134.943 389.39 153.519 368.121M125.82 410.404C134.301 396.749 145.845 387.462 165.187 367.354M125.82 410.404C136.37 401.294 145.183 389.292 165.187 367.354M137.508 409.636C151.885 398.461 159.022 389.469 175.509 368.062M137.508 409.636C150.768 393.188 167.152 375.5 175.509 368.062M147.81 410.345C151.844 398.539 161.049 388.859 187.177 367.275M147.81 410.345C162.994 393.129 178.716 378.589 187.177 367.275M158.133 411.053C171.62 397.556 186.122 381.304 197.499 367.984M158.133 411.053C173.337 397.024 186.97 383.429 197.499 367.984M169.8 410.266C183.97 392.263 198.906 377.939 207.801 368.692M169.8 410.266C181.612 399.917 189.101 386.164 207.801 368.692M180.123 410.974C194.5 400.664 204.533 382.976 219.489 367.924M180.123 410.974C188.521 400.133 200.354 390.591 219.489 367.924M191.79 410.207C203.788 398.539 218.931 377.487 231.157 367.137M191.79 410.207C202.547 397.811 211.815 388.269 231.157 367.137M202.113 410.915C215.745 395.352 229.109 381.363 237.404 372.312M202.113 410.915C210.925 401.746 221.393 390.63 237.404 372.312M213.78 410.128C225.799 403.124 234.487 392.676 238.211 383.409M213.78 410.128C222.158 399.464 231.343 392.42 238.211 383.409M224.103 410.837C228.261 403.596 235.067 400.153 237.673 396.001M224.103 410.837C229.978 406.114 233.35 399.543 237.673 396.001" stroke="#CED4DA" stroke-width="0.5" stroke-linecap="round"/>
<path d="M41.7283 365.209C99.7546 368.652 150.52 365.268 225.882 365.209M41.7283 365.209C83.9499 363.478 125.199 364.698 225.882 365.209M225.882 365.209C230.164 362.219 237.756 369.754 237.446 376.208M225.882 365.209C233.867 360.763 236.246 372.587 237.446 376.208M237.446 376.208C236.018 381.717 239.369 389.961 237.446 398.205M237.446 376.208C236.225 383.409 236.556 389.646 237.446 398.205M237.446 398.205C241.397 403.261 231.136 410.305 225.882 409.184M237.446 398.205C239.059 409.794 238.066 405.072 225.882 409.184M225.882 409.184C187.115 404.344 144.955 410.404 41.7283 409.184M225.882 409.184C176.151 410.522 123.007 406.882 41.7283 409.184M41.7283 409.184C34.5707 406.173 30.1437 402.651 30.1644 398.205M41.7283 409.184C33.2881 406.252 31.3022 404.757 30.1644 398.205M30.1644 398.205C30.4333 387.442 31.4883 381.245 30.1644 376.208M30.1644 398.205C30.5161 390.571 30.2265 384.845 30.1644 376.208M30.1644 376.208C33.4329 366.606 32.8537 368.908 41.7283 365.209M30.1644 376.208C26.2546 364.599 33.5363 369.636 41.7283 365.209" stroke="black" stroke-linecap="round"/>
<path d="M32.6519 441.114C35.2791 437.159 40.0164 433.893 43.5124 429.23M32.6519 441.114C36.1479 438.025 39.1475 435.231 43.5124 429.23M32.114 453.687C39.644 444.183 46.9671 436.825 53.8351 429.939M32.114 453.687C41.1955 445.482 46.4706 437.336 53.8351 429.939M31.5762 466.279C38.2787 453.883 49.284 449.535 65.5024 429.151M31.5762 466.279C39.2716 457.11 46.181 449.063 65.5024 429.151M37.8236 471.454C47.7946 463.387 58.0966 452.86 75.8251 429.86M37.8236 471.454C53.9385 456.854 68.6054 439.52 75.8251 429.86M48.1256 472.162C59.1102 460.809 65.7093 454.139 86.1271 430.568M48.1256 472.162C61.4271 459.097 72.7014 445.797 86.1271 430.568M58.4483 472.87C72.0601 464.489 78.5765 450.381 97.8151 429.801M58.4483 472.87C72.991 456.579 89.768 438.182 97.8151 429.801M70.1156 472.083C86.4581 457.307 97.7117 442.964 108.117 430.509M70.1156 472.083C79.8177 463.269 89.1681 450.244 108.117 430.509M80.4383 472.792C90.5127 460.967 105.076 445.541 119.805 429.742M80.4383 472.792C95.9947 456.087 110.475 438.202 119.805 429.742M92.1056 472.024C103.049 460.357 121.46 445.285 130.107 430.45M92.1056 472.024C103.339 459.393 112.42 448.414 130.107 430.45M102.428 472.732C112.772 462.895 120.591 456.953 141.795 429.663M102.428 472.732C111.882 461.399 122.825 452.723 141.795 429.663M114.096 471.945C131.121 455.084 138.423 438.301 152.097 430.371M114.096 471.945C123.239 464.902 129.176 452.88 152.097 430.371M124.418 472.654C135.817 457.819 151.787 437.632 163.785 429.604M124.418 472.654C134.679 463.013 141.919 451.385 163.785 429.604M136.086 471.886C146.698 460.632 159.586 453.234 174.087 430.312M136.086 471.886C151.001 455.733 164.592 438.045 174.087 430.312M146.408 472.595C157.931 454.434 171.605 443.987 185.775 429.525M146.408 472.595C156.441 461.734 169.309 447.548 185.775 429.525M158.076 471.808C168.357 463.347 175.701 451.542 196.077 430.234M158.076 471.808C168.44 462.777 179.218 451.542 196.077 430.234M168.398 472.516C180.148 457.858 195.808 439.442 206.4 430.942M168.398 472.516C183.189 456.126 194.443 441.586 206.4 430.942M178.721 473.224C196.553 457.661 206.669 437.336 218.067 430.175M178.721 473.224C187.327 464.292 197.298 455.044 218.067 430.175M190.388 472.457C206.565 458.901 212.896 442.708 228.39 430.883M190.388 472.457C199.366 460.298 211.323 452.762 228.39 430.883M200.711 473.165C210.186 462.482 221.253 446.249 237.347 433.067M200.711 473.165C209.296 465.689 215.812 456.54 237.347 433.067M212.378 472.398C224.646 465.492 232.838 453.215 243.595 438.242M212.378 472.398C221.977 460.967 235.899 448.788 243.595 438.242M222.701 473.106C226.342 467.263 235.961 462.462 243.057 450.814M222.701 473.106C230.5 464.508 235.444 458.743 243.057 450.814" stroke="#CED4DA" stroke-width="0.5" stroke-linecap="round"/>
<path d="M40.2646 427.479C116.681 424.724 186.603 423.426 227.252 427.479M40.2646 427.479C111.158 426.83 184.865 425.63 227.252 427.479M227.252 427.479C231.741 427.774 239.643 431.335 238.733 438.399M227.252 427.479C230.21 426.338 242.622 431.965 238.733 438.399M238.733 438.399C237.202 445.836 238.485 449.417 238.733 460.219M238.733 438.399C239.457 443.219 239.106 450.578 238.733 460.219M238.733 460.219C236.354 465.157 236.065 472.457 227.252 471.139M238.733 460.219C243.202 471.749 230.583 467.676 227.252 471.139M227.252 471.139C173.301 473.46 129.693 471.276 40.2646 471.139M227.252 471.139C163.785 471.65 94.6708 472.575 40.2646 471.139M40.2646 471.139C29.4454 471.119 25.7632 466.889 28.7835 460.219M40.2646 471.139C29.5075 472.221 27.9767 471.985 28.7835 460.219M28.7835 460.219C26.6114 453.175 29.3006 443.318 28.7835 438.399M28.7835 460.219C27.625 453.628 28.618 447.745 28.7835 438.399M28.7835 438.399C26.3838 429.997 36.4996 424.252 40.2646 427.479M28.7835 438.399C24.2944 430.666 37.265 428.896 40.2646 427.479" stroke="black" stroke-linecap="round"/>
<path d="M67.6096 151.948C77.1255 139.946 82.2765 127.079 103.977 105.849M62.4173 148.938C78.7598 132.844 91.8959 118.402 102.343 108.485M65.5616 161.884C87.2 143.212 102.219 117.536 113.079 101.815M60.4727 163.34C78.2012 145.79 94.3369 127.216 117.299 102.681M58.2799 176.326C77.1876 157.359 90.5099 146.754 127.477 100.418M60.4727 180.497C77.5393 158.441 96.1987 140.143 128.594 102.937M66.658 185.219C82.3593 164.206 101.577 150.945 142.578 99.3363M64.4239 185.456C91.4408 157.241 116.617 130.364 141.503 103.134M67.0718 191.22C91.5649 165.328 121.664 136.365 155.446 104.491M68.2509 193.818C100.46 160.271 130.042 123.872 152.198 101.186M69.7197 196.257C91.1925 180.615 117.94 152.184 162.624 105.81M75.4913 199.622C92.8475 179.002 109.852 160.192 159.438 103.134M76.6704 209.322C102.818 182.819 127.725 155.057 171.271 107.797M77.4151 207.394C111.528 172.548 142.889 135.657 168.892 106.99M83.4764 215.697C96.7573 190.65 117.837 169.44 175.139 111.26M80.8905 213.768C116.41 177.192 151.432 139.297 174.539 112.657M82.5868 218.609C115.768 183.291 149.633 155.588 178.16 116.847M84.2004 222.091C105.28 201.058 123.381 179.12 183.807 118.284M91.0684 222.563C116.885 195.746 150.026 165.76 192.351 124.442M93.8404 226.597C123.257 196.297 150.584 164.167 187.924 120.173M97.5847 227.403C140.655 192.657 172.181 151.338 196.736 128.456M101.908 230.512C133.621 193.7 164.961 160.232 192.558 128.358M106.708 235.313C144.875 191.693 183.807 154.565 198.474 133.749M106.914 234.093C136.352 200.802 165.044 168.535 197.605 136.031M115.996 237.812C139.393 211.584 151.722 191.417 201.556 142.603M117.196 237.91C142.496 206.252 168.437 175.559 200.419 142.465M121.974 237.635C153.646 206.685 183.786 166.233 204.452 153.07M125.098 241.786C151.66 213.591 177.105 182.111 207.431 152.007M139.682 241.137C158.631 217.428 176.856 192.834 210.41 161.688M136.455 237.753C161.341 211.821 188.586 182.465 208.362 157.674M151.06 234.919C168.954 210.876 190.034 189.528 217.899 167.039M149.074 234.605C165.313 221.481 179.918 202.219 213.824 165.052M160.204 237.241C174.084 222.78 186.414 208.063 210.41 178.058M164.113 235.097C180.228 217.959 195.723 200.369 213.368 177.664M174.726 234.31C187.448 217.861 204.825 200.232 212.893 191.929M172.905 235.766C181.407 222.78 192.102 215.008 212.665 194.978M113.534 233.503C96.2815 222.721 81.3663 209.263 72.3676 200.114M111.755 236.454C101.329 225.121 88.2964 211.742 71.3539 201.019M129.401 234.113C101.35 221.166 82.0283 196.552 62.8724 180.911M125.657 237.182C102.115 215.303 76.567 193.345 60.7416 182.229M138.731 235.352C123.898 219.376 102.032 210.168 65.0238 175.834M137.676 234.014C108.094 212.529 80.8491 188.486 63.7826 173.04M144.171 235.943C127.332 214.123 109.48 198.441 62.0449 164.58M146.799 233.07C123.733 213.473 102.756 194.467 67.2993 164.423M162.21 233.936C138.338 211.84 114.651 197.615 67.0097 158.815M156.997 229.942C124.746 205.8 90.696 174.437 66.989 155.451M171.312 232.814C141.13 201.176 107.432 174.595 65.0031 149.666M172.181 232.362C150.274 213.631 129.98 196.985 68.9336 148.544M175.719 224.039C151.577 204.954 124.002 186.125 67.6717 137.507M178.697 227.423C136.331 191.279 97.9985 160.96 71.1678 136.582M180.973 217.979C141.978 184.649 95.0816 148.82 73.7536 132.686M184.428 221.088C155.549 199.76 125.967 175.028 71.0436 127.964M192.102 212.175C155.508 182.878 115.251 154.624 75.4292 123.773M189.289 214.89C154.928 186.518 124.333 157.713 77.2703 123.242M196.674 207.984C162.065 177.231 124.291 147.895 87.6344 121.747M194.668 211.466C166.989 187.266 139.02 164.147 82.5455 116.67M199.86 203.459C169.699 179.612 137.696 155.706 89.248 112.401M202.57 204.029C177.601 184.728 153.398 162.809 89.1238 112.184M209.583 197.103C173.381 168.338 139.848 142.662 93.3233 106.892M206.438 200.468C176.339 172.608 144.502 145.357 93.406 107.639M207.369 191.26C184.697 164.206 151.308 140.36 98.6398 104.767M208.776 187.974C164.858 154.683 124.808 121.392 101.039 101.855M213.306 182.386C174.291 152.184 141.027 124.816 112.169 100.104M209.086 182.957C175.077 151.26 144.482 125.701 113.679 101.146M215.272 167.492C190.261 155.51 178.532 142.662 127.167 100.753M213.037 171.23C186.993 149.863 163.782 132.076 124.808 100.064M212.293 160.586C187.613 138.805 162.21 119.051 130.601 96.4637M211.052 160.448C189.868 142.622 168.292 124.442 132.98 97.2507M201.184 142.603C188.255 128.22 182.752 126.41 150.067 95.1258M199.488 142.465C186.434 127.925 171.002 115.116 144.44 96.8769M191.027 119.602C185.752 114.742 174.684 107.561 153.067 92.3712M192.413 120.723C183.186 114.25 174.974 110.177 152.611 90.6201" stroke="#CED4DA" stroke-width="0.5" stroke-linecap="round"/>
<path d="M100.833 103.232C112.852 96.2276 134.304 94.2798 148.764 96.7982C163.224 99.3363 177.415 107.934 187.593 118.441C197.771 128.928 207.369 145.475 209.852 159.799C212.355 174.123 209.314 192.224 202.549 204.383C195.764 216.543 182.421 226.794 169.264 232.755C156.108 238.737 138.007 242.18 123.567 240.212C109.149 238.264 93.3853 230.965 82.6903 220.97C71.9745 210.994 61.9621 194.664 59.3556 180.32C56.7284 165.957 59.1694 147.462 66.9476 134.811C74.7465 122.14 99.0742 109.882 106.066 104.354C113.079 98.8248 108.487 100.694 109.024 101.619M146.323 97.1327C159.438 98.3132 177.311 108.781 187.427 119.11C197.543 129.459 204.597 145.121 207.059 159.189C209.5 173.257 209.066 190.945 202.136 203.498C195.205 216.051 179.028 228.191 165.499 234.506C151.949 240.802 135.173 243.38 120.899 241.334C106.646 239.268 90.2202 232.854 79.8975 222.15C69.5955 211.447 61.2174 192.027 59.0246 177.113C56.8318 162.199 58.9419 144.846 66.7201 132.706C74.4983 120.546 92.082 109.804 105.694 104.216C119.306 98.628 141.048 99.4741 148.391 99.2183C155.735 98.9428 150.253 101.186 149.798 102.583" stroke="black" stroke-linecap="round"/>
<path d="M57.7114 310.647L51.7455 288.829H54.4301L58.9898 306.599H59.2029L63.8478 288.829H66.8307L71.4756 306.599H71.6887L76.2483 288.829H78.933L72.9671 310.647H70.2398L65.4245 293.261H65.254L60.4387 310.647H57.7114ZM85.1759 311.031C84.1389 311.031 83.1979 310.836 82.3527 310.445C81.5076 310.047 80.8364 309.476 80.3392 308.73C79.8421 307.977 79.5935 307.068 79.5935 306.003C79.5935 305.065 79.7782 304.305 80.1475 303.723C80.5168 303.133 81.0104 302.672 81.6283 302.338C82.2462 302.004 82.928 301.755 83.6737 301.592C84.4266 301.422 85.183 301.287 85.9429 301.187C86.9372 301.059 87.7434 300.964 88.3612 300.9C88.9862 300.829 89.4408 300.711 89.7249 300.548C90.0161 300.385 90.1617 300.101 90.1617 299.696V299.611C90.1617 298.559 89.874 297.743 89.2987 297.16C88.7306 296.578 87.8676 296.287 86.71 296.287C85.5097 296.287 84.5686 296.549 83.8868 297.075C83.205 297.601 82.7256 298.162 82.4486 298.758L80.0622 297.906C80.4884 296.912 81.0566 296.138 81.7668 295.584C82.4841 295.022 83.2654 294.632 84.1105 294.412C84.9628 294.184 85.8009 294.071 86.6247 294.071C87.1503 294.071 87.754 294.135 88.4358 294.263C89.1247 294.383 89.7888 294.635 90.428 295.019C91.0743 295.402 91.6105 295.981 92.0367 296.755C92.4628 297.53 92.6759 298.566 92.6759 299.866V310.647H90.1617V308.432H90.0338C89.8634 308.787 89.5793 309.167 89.1816 309.571C88.7838 309.976 88.2547 310.321 87.5942 310.605C86.9337 310.889 86.1276 311.031 85.1759 311.031ZM85.5594 308.772C86.5537 308.772 87.3918 308.577 88.0736 308.187C88.7625 307.796 89.281 307.292 89.629 306.674C89.9841 306.056 90.1617 305.406 90.1617 304.724V302.423C90.0551 302.551 89.8208 302.668 89.4586 302.775C89.1034 302.874 88.6915 302.963 88.2228 303.041C87.7611 303.112 87.3101 303.176 86.8698 303.233C86.4365 303.282 86.085 303.325 85.8151 303.361C85.1617 303.446 84.5509 303.584 83.9827 303.776C83.4216 303.961 82.9671 304.241 82.6191 304.618C82.2782 304.987 82.1077 305.491 82.1077 306.13C82.1077 307.004 82.4309 307.665 83.0772 308.112C83.7306 308.552 84.558 308.772 85.5594 308.772ZM99.779 288.829V310.647H97.2648V288.829H99.779ZM106.898 288.829V310.647H104.384V288.829H106.898ZM118.364 310.988C116.787 310.988 115.427 310.64 114.284 309.944C113.147 309.241 112.27 308.261 111.652 307.004C111.041 305.74 110.736 304.27 110.736 302.593C110.736 300.917 111.041 299.44 111.652 298.162C112.27 296.876 113.13 295.875 114.23 295.157C115.338 294.433 116.631 294.071 118.108 294.071C118.961 294.071 119.802 294.213 120.633 294.497C121.464 294.781 122.22 295.243 122.902 295.882C123.584 296.514 124.127 297.352 124.532 298.396C124.937 299.44 125.139 300.726 125.139 302.253V303.318H112.526V301.145H122.583C122.583 300.221 122.398 299.397 122.029 298.673C121.666 297.949 121.148 297.377 120.473 296.958C119.806 296.539 119.017 296.329 118.108 296.329C117.107 296.329 116.24 296.578 115.509 297.075C114.784 297.565 114.227 298.204 113.836 298.993C113.446 299.781 113.25 300.626 113.25 301.528V302.977C113.25 304.213 113.463 305.26 113.889 306.12C114.323 306.972 114.923 307.622 115.69 308.069C116.457 308.51 117.348 308.73 118.364 308.73C119.024 308.73 119.621 308.638 120.154 308.453C120.693 308.261 121.159 307.977 121.549 307.601C121.94 307.217 122.242 306.741 122.455 306.173L124.884 306.855C124.628 307.679 124.198 308.403 123.595 309.028C122.991 309.646 122.245 310.129 121.358 310.477C120.47 310.818 119.472 310.988 118.364 310.988ZM136.081 294.284V296.415H127.6V294.284H136.081ZM130.072 290.363H132.586V305.96C132.586 306.67 132.689 307.203 132.895 307.558C133.108 307.906 133.378 308.14 133.705 308.261C134.039 308.375 134.39 308.432 134.76 308.432C135.036 308.432 135.264 308.417 135.441 308.389C135.619 308.353 135.761 308.325 135.867 308.304L136.379 310.562C136.208 310.626 135.97 310.69 135.665 310.754C135.36 310.825 134.973 310.861 134.504 310.861C133.794 310.861 133.098 310.708 132.416 310.402C131.741 310.097 131.18 309.632 130.733 309.007C130.292 308.382 130.072 307.593 130.072 306.642V290.363ZM164.067 310.946C162.661 310.946 161.407 310.704 160.306 310.221C159.213 309.738 158.343 309.067 157.696 308.208C157.057 307.341 156.709 306.336 156.652 305.193H159.337C159.394 305.896 159.635 306.503 160.061 307.015C160.487 307.519 161.045 307.91 161.734 308.187C162.423 308.464 163.186 308.602 164.024 308.602C164.962 308.602 165.793 308.439 166.517 308.112C167.242 307.785 167.81 307.331 168.222 306.748C168.634 306.166 168.84 305.491 168.84 304.724C168.84 303.922 168.641 303.215 168.243 302.604C167.845 301.986 167.263 301.503 166.496 301.155C165.729 300.807 164.791 300.633 163.684 300.633H161.936V298.29H163.684C164.55 298.29 165.31 298.133 165.963 297.821C166.624 297.508 167.139 297.068 167.508 296.5C167.885 295.932 168.073 295.264 168.073 294.497C168.073 293.758 167.909 293.115 167.583 292.569C167.256 292.022 166.794 291.596 166.198 291.29C165.608 290.985 164.912 290.832 164.11 290.832C163.357 290.832 162.647 290.971 161.979 291.248C161.318 291.517 160.779 291.912 160.36 292.43C159.941 292.941 159.713 293.559 159.678 294.284H157.121C157.164 293.14 157.508 292.139 158.154 291.28C158.801 290.413 159.646 289.738 160.69 289.255C161.741 288.772 162.895 288.531 164.152 288.531C165.502 288.531 166.659 288.804 167.625 289.351C168.591 289.891 169.333 290.605 169.852 291.493C170.37 292.38 170.63 293.339 170.63 294.369C170.63 295.598 170.306 296.645 169.66 297.512C169.021 298.378 168.151 298.978 167.05 299.312V299.483C168.428 299.71 169.504 300.296 170.278 301.241C171.052 302.178 171.439 303.339 171.439 304.724C171.439 305.91 171.116 306.976 170.47 307.92C169.831 308.858 168.957 309.596 167.849 310.136C166.741 310.676 165.48 310.946 164.067 310.946ZM182.913 310.946C181.308 310.946 179.941 310.509 178.811 309.635C177.682 308.755 176.819 307.48 176.223 305.811C175.626 304.135 175.328 302.111 175.328 299.738C175.328 297.38 175.626 295.367 176.223 293.698C176.826 292.022 177.693 290.743 178.822 289.863C179.958 288.975 181.322 288.531 182.913 288.531C184.504 288.531 185.864 288.975 186.993 289.863C188.13 290.743 188.996 292.022 189.593 293.698C190.196 295.367 190.498 297.38 190.498 299.738C190.498 302.111 190.2 304.135 189.603 305.811C189.007 307.48 188.144 308.755 187.014 309.635C185.885 310.509 184.518 310.946 182.913 310.946ZM182.913 308.602C184.504 308.602 185.74 307.835 186.62 306.301C187.501 304.767 187.941 302.579 187.941 299.738C187.941 297.849 187.739 296.241 187.334 294.912C186.936 293.584 186.361 292.572 185.608 291.876C184.862 291.18 183.964 290.832 182.913 290.832C181.336 290.832 180.104 291.61 179.216 293.165C178.328 294.714 177.885 296.905 177.885 299.738C177.885 301.628 178.083 303.233 178.481 304.554C178.879 305.875 179.451 306.88 180.196 307.569C180.949 308.258 181.855 308.602 182.913 308.602ZM200.981 313.375V286.102H202.728V313.375H200.981ZM206.862 294.284C206.734 293.204 206.215 292.366 205.306 291.77C204.397 291.173 203.282 290.875 201.961 290.875C200.995 290.875 200.15 291.031 199.426 291.343C198.708 291.656 198.147 292.086 197.742 292.633C197.345 293.179 197.146 293.801 197.146 294.497C197.146 295.079 197.284 295.58 197.561 295.999C197.845 296.411 198.208 296.755 198.648 297.032C199.088 297.302 199.55 297.526 200.033 297.704C200.516 297.874 200.96 298.013 201.365 298.119L203.581 298.716C204.149 298.865 204.781 299.071 205.477 299.334C206.18 299.596 206.851 299.955 207.49 300.41C208.137 300.857 208.669 301.432 209.088 302.135C209.507 302.839 209.717 303.701 209.717 304.724C209.717 305.903 209.408 306.968 208.79 307.92C208.179 308.872 207.284 309.628 206.105 310.189C204.934 310.75 203.51 311.031 201.833 311.031C200.271 311.031 198.918 310.779 197.774 310.275C196.638 309.77 195.743 309.067 195.09 308.165C194.443 307.263 194.078 306.216 193.992 305.022H196.72C196.791 305.846 197.068 306.528 197.551 307.068C198.041 307.601 198.659 307.998 199.404 308.261C200.157 308.517 200.967 308.645 201.833 308.645C202.842 308.645 203.747 308.481 204.55 308.155C205.353 307.821 205.988 307.359 206.457 306.77C206.926 306.173 207.16 305.477 207.16 304.682C207.16 303.957 206.958 303.368 206.553 302.913C206.148 302.459 205.615 302.089 204.955 301.805C204.294 301.521 203.581 301.272 202.813 301.059L200.129 300.292C198.424 299.802 197.075 299.103 196.081 298.194C195.086 297.285 194.589 296.095 194.589 294.625C194.589 293.403 194.919 292.338 195.58 291.429C196.247 290.513 197.142 289.802 198.264 289.298C199.394 288.787 200.654 288.531 202.046 288.531C203.453 288.531 204.703 288.783 205.796 289.287C206.89 289.785 207.757 290.466 208.396 291.333C209.042 292.199 209.383 293.183 209.419 294.284H206.862Z" fill="black"/>
<path d="M51.0011 45.3463V43.6418L64.7227 36.6532V39.3804L54.1972 44.4515L54.2824 44.281V44.7071L54.1972 44.5367L64.7227 49.6077V52.335L51.0011 45.3463ZM87.268 55.0623V33.2441H94.6402C96.3518 33.2441 97.751 33.553 98.8376 34.1709C99.9314 34.7817 100.741 35.6091 101.267 36.6532C101.792 37.6972 102.055 38.862 102.055 40.1475C102.055 41.433 101.792 42.6013 101.267 43.6525C100.748 44.7036 99.9456 45.5417 98.8589 46.1667C97.7723 46.7846 96.3802 47.0935 94.6828 47.0935H89.3987V44.7498H94.5975C95.7694 44.7498 96.7105 44.5473 97.4207 44.1425C98.1309 43.7377 98.6458 43.1908 98.9654 42.5019C99.2921 41.8059 99.4555 41.0211 99.4555 40.1475C99.4555 39.2739 99.2921 38.4927 98.9654 37.8037C98.6458 37.1148 98.1274 36.575 97.41 36.1844C96.6927 35.7867 95.741 35.5878 94.5549 35.5878H89.91V55.0623H87.268ZM105.97 55.0623V38.6986H108.399V41.1702H108.569C108.868 40.3606 109.408 39.7036 110.189 39.1993C110.97 38.6951 111.851 38.4429 112.831 38.4429C113.016 38.4429 113.246 38.4465 113.523 38.4536C113.8 38.4607 114.01 38.4713 114.152 38.4856V41.0424C114.067 41.0211 113.871 40.9891 113.566 40.9465C113.268 40.8968 112.952 40.8719 112.618 40.8719C111.822 40.8719 111.112 41.0388 110.487 41.3726C109.869 41.6993 109.379 42.1539 109.017 42.7363C108.662 43.3115 108.484 43.9685 108.484 44.7071V55.0623H105.97ZM123.282 55.4032C121.805 55.4032 120.508 55.0516 119.393 54.3485C118.285 53.6454 117.419 52.6617 116.794 51.3975C116.176 50.1333 115.867 48.656 115.867 46.9657C115.867 45.2611 116.176 43.7732 116.794 42.5019C117.419 41.2306 118.285 40.2434 119.393 39.5402C120.508 38.8371 121.805 38.4856 123.282 38.4856C124.759 38.4856 126.052 38.8371 127.16 39.5402C128.275 40.2434 129.141 41.2306 129.759 42.5019C130.384 43.7732 130.697 45.2611 130.697 46.9657C130.697 48.656 130.384 50.1333 129.759 51.3975C129.141 52.6617 128.275 53.6454 127.16 54.3485C126.052 55.0516 124.759 55.4032 123.282 55.4032ZM123.282 53.1446C124.404 53.1446 125.327 52.857 126.052 52.2817C126.776 51.7064 127.312 50.95 127.66 50.0125C128.008 49.075 128.182 48.0594 128.182 46.9657C128.182 45.8719 128.008 44.8527 127.66 43.9081C127.312 42.9635 126.776 42.2 126.052 41.6177C125.327 41.0353 124.404 40.7441 123.282 40.7441C122.16 40.7441 121.236 41.0353 120.512 41.6177C119.788 42.2 119.251 42.9635 118.903 43.9081C118.555 44.8527 118.381 45.8719 118.381 46.9657C118.381 48.0594 118.555 49.075 118.903 50.0125C119.251 50.95 119.788 51.7064 120.512 52.2817C121.236 52.857 122.16 53.1446 123.282 53.1446ZM141.821 38.6986V40.8293H133V38.6986H141.821ZM135.642 55.0623V36.4401C135.642 35.5026 135.863 34.7213 136.303 34.0963C136.743 33.4713 137.315 33.0026 138.018 32.6901C138.721 32.3776 139.463 32.2213 140.245 32.2213C140.863 32.2213 141.367 32.2711 141.758 32.3705C142.148 32.4699 142.439 32.5623 142.631 32.6475L141.907 34.8208C141.779 34.7782 141.601 34.7249 141.374 34.661C141.154 34.5971 140.863 34.5651 140.5 34.5651C139.669 34.5651 139.069 34.7746 138.7 35.1936C138.338 35.6127 138.157 36.227 138.157 37.0367V55.0623H135.642ZM145.345 55.0623V38.6986H147.859V55.0623H145.345ZM146.623 35.9713C146.133 35.9713 145.711 35.8044 145.356 35.4706C145.008 35.1368 144.834 34.7356 144.834 34.2668C144.834 33.7981 145.008 33.3968 145.356 33.063C145.711 32.7292 146.133 32.5623 146.623 32.5623C147.114 32.5623 147.533 32.7292 147.881 33.063C148.236 33.3968 148.413 33.7981 148.413 34.2668C148.413 34.7356 148.236 35.1368 147.881 35.4706C147.533 35.8044 147.114 35.9713 146.623 35.9713ZM154.978 33.2441V55.0623H152.464V33.2441H154.978ZM166.444 55.4032C164.867 55.4032 163.507 55.0552 162.364 54.3591C161.228 53.656 160.35 52.6759 159.732 51.4188C159.122 50.1546 158.816 48.6844 158.816 47.0083C158.816 45.3321 159.122 43.8549 159.732 42.5765C160.35 41.2909 161.21 40.2895 162.311 39.5722C163.419 38.8478 164.711 38.4856 166.188 38.4856C167.041 38.4856 167.882 38.6276 168.713 38.9117C169.544 39.1958 170.301 39.6574 170.982 40.2966C171.664 40.9287 172.208 41.7668 172.612 42.8108C173.017 43.8549 173.22 45.1404 173.22 46.6674V47.7327H160.606V45.5594H170.663C170.663 44.6361 170.478 43.8123 170.109 43.0878C169.747 42.3634 169.228 41.7917 168.554 41.3726C167.886 40.9536 167.098 40.7441 166.188 40.7441C165.187 40.7441 164.321 40.9927 163.589 41.4898C162.865 41.9799 162.307 42.6191 161.916 43.4074C161.526 44.1958 161.33 45.0409 161.33 45.9429V47.3918C161.33 48.6276 161.544 49.6752 161.97 50.5346C162.403 51.3868 163.003 52.0367 163.77 52.4841C164.537 52.9245 165.429 53.1446 166.444 53.1446C167.105 53.1446 167.701 53.0523 168.234 52.8677C168.774 52.6759 169.239 52.3918 169.63 52.0154C170.02 51.6319 170.322 51.156 170.535 50.5878L172.964 51.2696C172.708 52.0935 172.279 52.8179 171.675 53.4429C171.071 54.0608 170.326 54.5438 169.438 54.8918C168.55 55.2327 167.552 55.4032 166.444 55.4032Z" fill="black"/>
<path d="M205.752 37.6176C208.374 34.3107 209.794 30.7652 215.773 24.9157M204.322 36.7882C208.825 32.3536 212.444 28.3745 215.322 25.6422M205.188 40.3553C211.15 35.2106 215.288 28.1359 218.281 23.8044M203.786 40.7565C208.671 35.9208 213.117 30.8032 219.443 24.0429M203.182 44.3345C208.391 39.1084 212.062 36.1864 222.248 23.4195M203.786 45.4838C208.488 39.4066 213.63 34.3649 222.556 24.1134M205.49 46.7849C209.816 40.995 215.112 37.3411 226.409 23.1213M204.875 46.8499C212.319 39.0759 219.255 31.6706 226.112 24.1676M205.604 48.4383C212.353 41.304 220.646 33.324 229.954 24.5417M205.929 49.1539C214.804 39.9108 222.955 29.8816 229.059 23.6309M206.334 49.8262C212.25 45.5163 219.62 37.6827 231.932 24.9049M207.924 50.7532C212.706 45.0718 217.391 39.8891 231.054 24.1676M208.249 53.4258C215.454 46.1235 222.316 38.4742 234.314 25.4524M208.454 52.8946C217.853 43.2936 226.494 33.1289 233.659 25.2302M210.124 55.1823C213.783 48.2811 219.592 42.4371 235.38 26.4066M209.412 54.651C219.198 44.573 228.848 34.1318 235.215 26.7915M209.879 55.9847C219.022 46.2536 228.352 38.6205 236.212 27.9462M210.324 56.9442C216.132 51.1489 221.119 45.1043 237.768 28.3419M212.216 57.0743C219.329 49.6852 228.461 41.4233 240.123 30.0388M212.98 58.1857C221.085 49.837 228.614 40.9842 238.903 28.8624M214.011 58.4079C225.879 48.8341 234.565 37.4496 241.331 31.1447M215.203 59.2645C223.941 49.1214 232.576 39.8999 240.18 31.1176M216.525 60.5873C227.041 48.5684 237.768 38.3386 241.81 32.603M216.582 60.2511C224.693 51.0785 232.599 42.1877 241.57 33.2319M219.084 61.2757C225.531 54.0493 228.928 48.4926 242.659 35.0425M219.415 61.3029C226.386 52.5801 233.533 44.1231 242.345 35.0046M220.732 61.227C229.458 52.6994 237.763 41.5534 243.457 37.9266M221.592 62.3708C228.911 54.6022 235.922 45.9283 244.278 37.6339M225.611 62.1919C230.832 55.6594 235.853 48.8829 245.098 40.3011M224.721 61.2595C231.578 54.1143 239.085 46.0259 244.534 39.1952M228.746 60.4788C233.676 53.8541 239.484 47.9721 247.162 41.7757M228.198 60.3921C232.673 56.7762 236.697 51.4688 246.039 41.2281M231.265 61.1185C235.09 57.1339 238.487 53.0789 245.098 44.8116M232.342 60.5276C236.782 55.8058 241.052 50.9592 245.914 44.7031M235.266 60.3108C238.772 55.7786 243.56 50.9213 245.782 48.6335M234.765 60.7119C237.107 57.1339 240.054 54.9926 245.72 49.4738M218.406 60.0885C213.652 57.1177 209.543 53.4096 207.063 50.8887M217.916 60.9017C215.043 57.7791 211.452 54.0927 206.784 51.1381M222.778 60.2566C215.049 56.6894 209.725 49.9075 204.447 45.5976M221.746 61.1023C215.26 55.0739 208.22 49.0238 203.86 45.9609M225.348 60.5981C221.262 56.1961 215.237 53.659 205.04 44.199M225.058 60.2295C216.907 54.3095 209.4 47.6848 204.698 43.4291M226.848 60.7607C222.208 54.7486 217.289 50.4279 204.219 41.098M227.571 59.9692C221.216 54.5697 215.436 49.3328 205.667 41.0547M231.818 60.2078C225.24 54.1198 218.714 50.2002 205.587 39.5096M230.381 59.1073C221.495 52.4554 212.113 43.8141 205.581 38.5826M234.326 59.8988C226.01 51.1815 216.725 43.8574 205.034 36.9888M234.565 59.7741C228.529 54.6131 222.937 50.0268 206.117 36.6797M235.54 57.4809C228.888 52.2223 221.29 47.0342 205.769 33.6385M236.361 58.4134C224.687 48.4546 214.125 40.1005 206.733 33.3837M236.988 55.8112C226.243 46.6277 213.322 36.7556 207.445 32.3103M237.939 56.6677C229.982 50.7911 221.832 43.9767 206.699 31.0092M240.054 54.2119C229.971 46.1398 218.879 38.3549 207.907 29.8545M239.279 54.96C229.811 47.1427 221.381 39.206 208.414 29.7081M241.314 53.0572C231.778 44.5839 221.37 36.5008 211.27 29.2961M240.761 54.0168C233.134 47.3487 225.428 40.9788 209.868 27.8974M242.192 51.8103C233.881 45.2398 225.063 38.6531 211.714 26.721M242.938 51.9675C236.059 46.6493 229.39 40.6101 211.68 26.6614M244.87 50.0593C234.896 42.1335 225.656 35.0588 212.837 25.2031M244.004 50.9863C235.711 43.3099 226.939 35.8015 212.86 25.4091M244.261 48.4492C238.014 40.995 228.814 34.4245 214.302 24.6176M244.648 47.5438C232.547 38.3712 221.512 29.1985 214.963 23.8152M245.896 46.0042C235.147 37.6827 225.981 30.1418 218.03 23.3327M244.734 46.1614C235.363 37.4279 226.933 30.3857 218.446 23.6201M246.438 41.9004C239.547 38.5989 236.315 35.0588 222.162 23.5116M245.822 42.9304C238.646 37.043 232.251 32.1422 221.512 23.3219M245.617 39.9975C238.817 33.9963 231.818 28.5534 223.108 22.3298M245.275 39.9596C239.439 35.048 233.494 30.0388 223.764 22.5467M242.556 35.0425C238.994 31.0796 237.478 30.5809 228.472 21.9612M242.089 35.0046C238.492 30.9983 234.24 27.4691 226.922 22.4437M239.758 28.7052C238.304 27.3661 235.255 25.3874 229.298 21.2022M240.14 29.0142C237.597 27.2306 235.335 26.1084 229.173 20.7197" stroke="#CED4DA" stroke-width="0.5" stroke-linecap="round"/>
<path d="M214.906 24.1947C218.218 22.2648 224.129 21.7281 228.113 22.422C232.097 23.1213 236.007 25.4904 238.812 28.3853C241.616 31.2748 244.261 35.8341 244.945 39.7807C245.634 43.7273 244.796 48.7148 242.933 52.0651C241.063 55.4154 237.387 58.2399 233.761 59.8825C230.136 61.5306 225.149 62.4793 221.17 61.9371C217.198 61.4004 212.854 59.3892 209.908 56.6352C206.955 53.8867 204.196 49.3871 203.478 45.435C202.754 41.4775 203.427 36.3816 205.57 32.8958C207.719 29.4045 214.422 26.0271 216.348 24.5037C218.281 22.9804 217.015 23.4954 217.163 23.7502M227.44 22.5142C231.054 22.8394 235.979 25.7235 238.766 28.5696C241.553 31.4212 243.497 35.7365 244.175 39.6126C244.848 43.4888 244.728 48.3625 242.819 51.8212C240.909 55.2799 236.452 58.6248 232.724 60.365C228.991 62.0998 224.368 62.81 220.435 62.2462C216.508 61.6769 211.982 59.9096 209.138 56.9605C206.3 54.0113 203.991 48.6606 203.387 44.5513C202.783 40.4421 203.364 35.6606 205.507 32.3157C207.65 28.9654 212.495 26.0054 216.246 24.4658C219.996 22.9262 225.987 23.1593 228.01 23.0888C230.034 23.0129 228.523 23.6309 228.398 24.0158" stroke="black" stroke-linecap="round"/>
</svg>
