<svg width="267" height="504" viewBox="0 0 267 504" fill="none" xmlns="http://www.w3.org/2000/svg">
<path d="M66.9423 1.89317C109.557 -1.29425 151.737 3.91973 198.096 1.89317M66.9423 1.89317C106.537 1.30291 143.297 1.87349 198.096 1.89317M198.096 1.89317C243.938 2.62116 267.19 24.3034 263.653 64.2642M198.096 1.89317C245.696 -2.55347 267.562 21.0767 263.653 64.2642M263.653 64.2642C267.397 200.713 264.521 345.819 263.653 438.943M263.653 64.2642C263.611 206.262 263.528 349.066 263.653 438.943M263.653 438.943C265.783 477.408 240.214 499.031 198.096 501.314M263.653 438.943C262.535 477.802 239.925 503.95 198.096 501.314M198.096 501.314C162.639 501.825 126.52 504.993 66.9423 501.314M198.096 501.314C164.873 501.943 134.609 499.996 66.9423 501.314M66.9423 501.314C24.5551 502.967 5.41989 478.431 1.36529 438.943M66.9423 501.314C26.8514 502.927 -1.63429 482.839 1.36529 438.943M1.36529 438.943C8.0471 295.332 1.77902 148.75 1.36529 64.2642M1.36529 438.943C2.48237 358.097 5.66813 280.084 1.36529 64.2642M1.36529 64.2642C-2.42039 21.4112 23.4794 2.79824 66.9423 1.89317M1.36529 64.2642C0.579189 20.1716 23.1071 6.025 66.9423 1.89317" stroke="black" stroke-linecap="round"/>
<path d="M25.1613 240.277H28.3147L35.7294 258.388H35.9851L43.3999 240.277H46.5533V262.095H44.0817V245.518H43.8686L37.0505 262.095H34.6641L27.8459 245.518H27.6328V262.095H25.1613V240.277ZM58.1575 262.436C56.6803 262.436 55.3841 262.084 54.269 261.381C53.1611 260.678 52.2946 259.695 51.6696 258.43C51.0517 257.166 50.7428 255.689 50.7428 253.999C50.7428 252.294 51.0517 250.806 51.6696 249.535C52.2946 248.263 53.1611 247.276 54.269 246.573C55.3841 245.87 56.6803 245.518 58.1575 245.518C59.6348 245.518 60.9274 245.87 62.0354 246.573C63.1504 247.276 64.0169 248.263 64.6348 249.535C65.2598 250.806 65.5723 252.294 65.5723 253.999C65.5723 255.689 65.2598 257.166 64.6348 258.43C64.0169 259.695 63.1504 260.678 62.0354 261.381C60.9274 262.084 59.6348 262.436 58.1575 262.436ZM58.1575 260.177C59.2797 260.177 60.203 259.89 60.9274 259.315C61.6518 258.739 62.1881 257.983 62.5361 257.045C62.8841 256.108 63.0581 255.092 63.0581 253.999C63.0581 252.905 62.8841 251.886 62.5361 250.941C62.1881 249.996 61.6518 249.233 60.9274 248.65C60.203 248.068 59.2797 247.777 58.1575 247.777C57.0354 247.777 56.1121 248.068 55.3876 248.65C54.6632 249.233 54.127 249.996 53.779 250.941C53.431 251.886 53.257 252.905 53.257 253.999C53.257 255.092 53.431 256.108 53.779 257.045C54.127 257.983 54.6632 258.739 55.3876 259.315C56.1121 259.89 57.0354 260.177 58.1575 260.177ZM75.5892 262.436C74.2255 262.436 73.0217 262.092 71.9777 261.403C70.9336 260.707 70.1169 259.726 69.5274 258.462C68.9379 257.191 68.6431 255.689 68.6431 253.956C68.6431 252.237 68.9379 250.746 69.5274 249.481C70.1169 248.217 70.9372 247.241 71.9883 246.552C73.0394 245.863 74.2539 245.518 75.6318 245.518C76.6971 245.518 77.5387 245.696 78.1566 246.051C78.7816 246.399 79.2575 246.797 79.5842 247.244C79.918 247.685 80.1772 248.047 80.3619 248.331H80.575V240.277H83.0892V262.095H80.6602V259.581H80.3619C80.1772 259.879 79.9144 260.256 79.5735 260.71C79.2326 261.158 78.7461 261.559 78.114 261.914C77.4819 262.262 76.6403 262.436 75.5892 262.436ZM75.9301 260.177C76.9386 260.177 77.7909 259.915 78.4869 259.389C79.1829 258.856 79.712 258.121 80.0743 257.184C80.4365 256.239 80.6176 255.149 80.6176 253.913C80.6176 252.692 80.44 251.623 80.0849 250.707C79.7298 249.783 79.2042 249.066 78.5082 248.555C77.8122 248.036 76.9528 247.777 75.9301 247.777C74.8647 247.777 73.9769 248.05 73.2667 248.597C72.5636 249.137 72.0345 249.872 71.6794 250.802C71.3314 251.726 71.1573 252.763 71.1573 253.913C71.1573 255.078 71.3349 256.136 71.69 257.088C72.0522 258.033 72.5849 258.785 73.288 259.347C73.9983 259.9 74.8789 260.177 75.9301 260.177ZM94.9038 262.436C93.3271 262.436 91.967 262.088 90.8235 261.392C89.6872 260.689 88.81 259.709 88.1922 258.452C87.5814 257.187 87.276 255.717 87.276 254.041C87.276 252.365 87.5814 250.888 88.1922 249.609C88.81 248.324 89.6694 247.322 90.7703 246.605C91.8782 245.881 93.1708 245.518 94.6481 245.518C95.5004 245.518 96.342 245.66 97.173 245.945C98.0039 246.229 98.7603 246.69 99.4422 247.329C100.124 247.962 100.667 248.8 101.072 249.844C101.477 250.888 101.679 252.173 101.679 253.7V254.766H89.0657V252.592H99.1225C99.1225 251.669 98.9379 250.845 98.5686 250.121C98.2064 249.396 97.6879 248.824 97.0132 248.405C96.3456 247.986 95.5572 247.777 94.6481 247.777C93.6467 247.777 92.7802 248.025 92.0487 248.523C91.3243 249.013 90.7667 249.652 90.3761 250.44C89.9855 251.229 89.7902 252.074 89.7902 252.976V254.425C89.7902 255.66 90.0032 256.708 90.4294 257.567C90.8626 258.42 91.4627 259.07 92.2298 259.517C92.9968 259.957 93.8882 260.177 94.9038 260.177C95.5643 260.177 96.1609 260.085 96.6936 259.9C97.2333 259.709 97.6985 259.425 98.0892 259.048C98.4798 258.665 98.7816 258.189 98.9947 257.621L101.424 258.302C101.168 259.126 100.738 259.851 100.135 260.476C99.5309 261.094 98.7852 261.577 97.8974 261.925C97.0096 262.266 96.0118 262.436 94.9038 262.436Z" fill="black"/>
<path d="M20.773 187.244V165.426H23.4151V184.9H33.5571V187.244H20.773ZM42.1224 187.627C41.0855 187.627 40.1445 187.432 39.2993 187.041C38.4541 186.644 37.783 186.072 37.2858 185.326C36.7886 184.573 36.5401 183.664 36.5401 182.599C36.5401 181.662 36.7247 180.902 37.094 180.319C37.4634 179.73 37.957 179.268 38.5749 178.934C39.1928 178.6 39.8746 178.352 40.6203 178.188C41.3732 178.018 42.1295 177.883 42.8895 177.784C43.8838 177.656 44.6899 177.56 45.3078 177.496C45.9328 177.425 46.3874 177.308 46.6714 177.144C46.9626 176.981 47.1082 176.697 47.1082 176.292V176.207C47.1082 175.156 46.8206 174.339 46.2453 173.757C45.6771 173.174 44.8142 172.883 43.6565 172.883C42.4563 172.883 41.5152 173.146 40.8334 173.671C40.1516 174.197 39.6722 174.758 39.3952 175.355L37.0088 174.502C37.4349 173.508 38.0031 172.734 38.7134 172.18C39.4307 171.619 40.2119 171.228 41.0571 171.008C41.9094 170.781 42.7474 170.667 43.5713 170.667C44.0969 170.667 44.7006 170.731 45.3824 170.859C46.0713 170.98 46.7354 171.232 47.3746 171.615C48.0209 171.999 48.5571 172.578 48.9832 173.352C49.4094 174.126 49.6224 175.163 49.6224 176.463V187.244H47.1082V185.028H46.9804C46.8099 185.383 46.5259 185.763 46.1281 186.168C45.7304 186.573 45.2013 186.917 44.5408 187.201C43.8803 187.485 43.0741 187.627 42.1224 187.627ZM42.506 185.369C43.5003 185.369 44.3384 185.174 45.0202 184.783C45.7091 184.392 46.2276 183.888 46.5756 183.27C46.9307 182.652 47.1082 182.002 47.1082 181.321V179.019C47.0017 179.147 46.7673 179.264 46.4051 179.371C46.05 179.47 45.6381 179.559 45.1693 179.637C44.7077 179.708 44.2567 179.772 43.8163 179.829C43.3831 179.879 43.0315 179.921 42.7616 179.957C42.1082 180.042 41.4974 180.181 40.9293 180.372C40.3682 180.557 39.9136 180.838 39.5656 181.214C39.2247 181.583 39.0543 182.088 39.0543 182.727C39.0543 183.6 39.3774 184.261 40.0237 184.708C40.6771 185.149 41.5045 185.369 42.506 185.369ZM56.7256 177.4V187.244H54.2114V170.88H56.6404V173.437H56.8534C57.237 172.606 57.8194 171.938 58.6006 171.434C59.3819 170.923 60.3904 170.667 61.6262 170.667C62.7341 170.667 63.7036 170.894 64.5346 171.349C65.3655 171.796 66.0118 172.478 66.4735 173.394C66.9351 174.304 67.1659 175.454 67.1659 176.846V187.244H64.6517V177.017C64.6517 175.731 64.3179 174.73 63.6503 174.012C62.9827 173.288 62.0665 172.926 60.9017 172.926C60.0992 172.926 59.3819 173.1 58.7498 173.448C58.1248 173.796 57.6311 174.304 57.2689 174.971C56.9067 175.639 56.7256 176.448 56.7256 177.4ZM78.3653 193.721C77.1509 193.721 76.1068 193.565 75.2332 193.252C74.3597 192.947 73.6317 192.542 73.0493 192.038C72.474 191.541 72.0159 191.008 71.675 190.44L73.6778 189.034C73.9051 189.332 74.1928 189.673 74.5408 190.056C74.8888 190.447 75.3646 190.784 75.9683 191.068C76.5791 191.36 77.3781 191.505 78.3653 191.505C79.6864 191.505 80.7766 191.186 81.6359 190.546C82.4953 189.907 82.925 188.906 82.925 187.542V184.218H82.7119C82.5273 184.517 82.2645 184.886 81.9236 185.326C81.5898 185.76 81.1068 186.147 80.4747 186.488C79.8497 186.821 79.0045 186.988 77.9392 186.988C76.6182 186.988 75.4321 186.676 74.381 186.051C73.3369 185.426 72.5095 184.517 71.8987 183.323C71.295 182.13 70.9932 180.681 70.9932 178.977C70.9932 177.301 71.2879 175.841 71.8774 174.598C72.4669 173.348 73.2872 172.382 74.3384 171.701C75.3895 171.012 76.604 170.667 77.9818 170.667C79.0472 170.667 79.8923 170.845 80.5173 171.2C81.1494 171.548 81.6324 171.946 81.9662 172.393C82.3071 172.833 82.5699 173.196 82.7545 173.48H83.0102V170.88H85.4392V187.713C85.4392 189.119 85.1196 190.262 84.4804 191.143C83.8483 192.031 82.996 192.681 81.9236 193.093C80.8582 193.512 79.6722 193.721 78.3653 193.721ZM78.2801 184.73C79.2886 184.73 80.1409 184.499 80.8369 184.037C81.533 183.576 82.0621 182.912 82.4243 182.045C82.7865 181.179 82.9676 180.142 82.9676 178.934C82.9676 177.755 82.7901 176.715 82.4349 175.813C82.0798 174.911 81.5543 174.204 80.8582 173.693C80.1622 173.181 79.3028 172.926 78.2801 172.926C77.2148 172.926 76.327 173.196 75.6168 173.735C74.9136 174.275 74.3845 175 74.0294 175.909C73.6814 176.818 73.5074 177.826 73.5074 178.934C73.5074 180.071 73.6849 181.076 74.0401 181.949C74.4023 182.816 74.9349 183.497 75.6381 183.995C76.3483 184.485 77.229 184.73 78.2801 184.73ZM100.354 180.554V170.88H102.868V187.244H100.354V184.474H100.184C99.8 185.305 99.2034 186.012 98.3938 186.594C97.5841 187.169 96.5614 187.457 95.3256 187.457C94.3028 187.457 93.3938 187.233 92.5983 186.786C91.8028 186.331 91.1778 185.649 90.7233 184.74C90.2688 183.824 90.0415 182.67 90.0415 181.278V170.88H92.5557V181.108C92.5557 182.301 92.8895 183.252 93.5571 183.963C94.2318 184.673 95.0912 185.028 96.1352 185.028C96.7602 185.028 97.3959 184.868 98.0422 184.549C98.6956 184.229 99.2425 183.739 99.6828 183.078C100.13 182.418 100.354 181.576 100.354 180.554ZM112.288 187.627C111.252 187.627 110.31 187.432 109.465 187.041C108.62 186.644 107.949 186.072 107.452 185.326C106.955 184.573 106.706 183.664 106.706 182.599C106.706 181.662 106.891 180.902 107.26 180.319C107.629 179.73 108.123 179.268 108.741 178.934C109.359 178.6 110.041 178.352 110.786 178.188C111.539 178.018 112.296 177.883 113.056 177.784C114.05 177.656 114.856 177.56 115.474 177.496C116.099 177.425 116.553 177.308 116.837 177.144C117.129 176.981 117.274 176.697 117.274 176.292V176.207C117.274 175.156 116.987 174.339 116.411 173.757C115.843 173.174 114.98 172.883 113.823 172.883C112.622 172.883 111.681 173.146 110.999 173.671C110.318 174.197 109.838 174.758 109.561 175.355L107.175 174.502C107.601 173.508 108.169 172.734 108.879 172.18C109.597 171.619 110.378 171.228 111.223 171.008C112.075 170.781 112.913 170.667 113.737 170.667C114.263 170.667 114.867 170.731 115.548 170.859C116.237 170.98 116.901 171.232 117.541 171.615C118.187 171.999 118.723 172.578 119.149 173.352C119.575 174.126 119.788 175.163 119.788 176.463V187.244H117.274V185.028H117.146C116.976 185.383 116.692 185.763 116.294 186.168C115.896 186.573 115.367 186.917 114.707 187.201C114.046 187.485 113.24 187.627 112.288 187.627ZM112.672 185.369C113.666 185.369 114.504 185.174 115.186 184.783C115.875 184.392 116.394 183.888 116.742 183.27C117.097 182.652 117.274 182.002 117.274 181.321V179.019C117.168 179.147 116.933 179.264 116.571 179.371C116.216 179.47 115.804 179.559 115.335 179.637C114.874 179.708 114.423 179.772 113.982 179.829C113.549 179.879 113.198 179.921 112.928 179.957C112.274 180.042 111.663 180.181 111.095 180.372C110.534 180.557 110.08 180.838 109.732 181.214C109.391 181.583 109.22 182.088 109.22 182.727C109.22 183.6 109.543 184.261 110.19 184.708C110.843 185.149 111.671 185.369 112.672 185.369ZM130.983 193.721C129.768 193.721 128.724 193.565 127.85 193.252C126.977 192.947 126.249 192.542 125.666 192.038C125.091 191.541 124.633 191.008 124.292 190.44L126.295 189.034C126.522 189.332 126.81 189.673 127.158 190.056C127.506 190.447 127.982 190.784 128.586 191.068C129.196 191.36 129.995 191.505 130.983 191.505C132.304 191.505 133.394 191.186 134.253 190.546C135.113 189.907 135.542 188.906 135.542 187.542V184.218H135.329C135.144 184.517 134.882 184.886 134.541 185.326C134.207 185.76 133.724 186.147 133.092 186.488C132.467 186.821 131.622 186.988 130.556 186.988C129.235 186.988 128.049 186.676 126.998 186.051C125.954 185.426 125.127 184.517 124.516 183.323C123.912 182.13 123.61 180.681 123.61 178.977C123.61 177.301 123.905 175.841 124.495 174.598C125.084 173.348 125.904 172.382 126.956 171.701C128.007 171.012 129.221 170.667 130.599 170.667C131.664 170.667 132.51 170.845 133.135 171.2C133.767 171.548 134.25 171.946 134.583 172.393C134.924 172.833 135.187 173.196 135.372 173.48H135.627V170.88H138.056V187.713C138.056 189.119 137.737 190.262 137.098 191.143C136.465 192.031 135.613 192.681 134.541 193.093C133.475 193.512 132.289 193.721 130.983 193.721ZM130.897 184.73C131.906 184.73 132.758 184.499 133.454 184.037C134.15 183.576 134.679 182.912 135.041 182.045C135.404 181.179 135.585 180.142 135.585 178.934C135.585 177.755 135.407 176.715 135.052 175.813C134.697 174.911 134.171 174.204 133.475 173.693C132.779 173.181 131.92 172.926 130.897 172.926C129.832 172.926 128.944 173.196 128.234 173.735C127.531 174.275 127.002 175 126.647 175.909C126.299 176.818 126.125 177.826 126.125 178.934C126.125 180.071 126.302 181.076 126.657 181.949C127.019 182.816 127.552 183.497 128.255 183.995C128.965 184.485 129.846 184.73 130.897 184.73ZM149.519 187.585C147.943 187.585 146.583 187.237 145.439 186.541C144.303 185.838 143.426 184.858 142.808 183.6C142.197 182.336 141.892 180.866 141.892 179.19C141.892 177.514 142.197 176.037 142.808 174.758C143.426 173.473 144.285 172.471 145.386 171.754C146.494 171.029 147.787 170.667 149.264 170.667C150.116 170.667 150.958 170.809 151.789 171.093C152.62 171.377 153.376 171.839 154.058 172.478C154.74 173.11 155.283 173.948 155.688 174.992C156.093 176.037 156.295 177.322 156.295 178.849V179.914H143.681V177.741H153.738C153.738 176.818 153.554 175.994 153.184 175.269C152.822 174.545 152.304 173.973 151.629 173.554C150.961 173.135 150.173 172.926 149.264 172.926C148.262 172.926 147.396 173.174 146.664 173.671C145.94 174.162 145.382 174.801 144.992 175.589C144.601 176.377 144.406 177.223 144.406 178.125V179.573C144.406 180.809 144.619 181.857 145.045 182.716C145.478 183.568 146.078 184.218 146.845 184.666C147.613 185.106 148.504 185.326 149.519 185.326C150.18 185.326 150.777 185.234 151.309 185.049C151.849 184.858 152.314 184.573 152.705 184.197C153.095 183.813 153.397 183.338 153.61 182.769L156.039 183.451C155.784 184.275 155.354 185 154.75 185.625C154.147 186.242 153.401 186.725 152.513 187.073C151.625 187.414 150.627 187.585 149.519 187.585Z" fill="black"/>
<path d="M197.619 155.833L232.042 156.09L245.881 159.613L249.605 166.345L252.439 180.637L248.963 186.984L232.869 192.257L204.57 192.117L193.585 191.114L183.759 183.355L186.055 159.707L196.812 157.408L205.004 158.353" fill="#CED4DA"/>
<path d="M201.301 156.44C212.886 156.638 221.243 157.77 234.4 156.44M201.301 156.44C209.41 156.288 219.195 156.802 234.4 156.44M234.4 156.44C245.571 157.793 249.708 158.68 249.915 165.19M234.4 156.44C246.46 155.39 248.55 159.707 249.915 165.19M249.915 165.19C253.163 173.077 251.818 176.075 249.915 182.69M249.915 165.19C249.832 172.038 251.053 177.72 249.915 182.69M249.915 182.69C252.915 187.964 247.702 192.887 234.4 191.44M249.915 182.69C246.316 188.209 246.812 190.285 234.4 191.44M234.4 191.44C225.898 192.852 221.223 193.295 201.301 191.44M234.4 191.44C223.912 190.81 217.333 191.802 201.301 191.44M201.301 191.44C191.578 189.959 183.697 188.652 185.786 182.69M201.301 191.44C189.882 190.344 184.814 189.445 185.786 182.69M185.786 182.69C183.283 178.782 183.283 172.318 185.786 165.19M185.786 182.69C184.338 178.129 186.82 174.372 185.786 165.19M185.786 165.19C186.758 158.948 193.564 155.612 201.301 156.44M185.786 165.19C185.021 158.307 191.682 158.167 201.301 156.44" stroke="black" stroke-linecap="round"/>
<path d="M30.5419 290.798L242.147 286.745L251.311 293.336L251.332 340.341L251.89 339.337L233.955 348.9L19.8055 344.177L17.5714 336.957L10 304.964L13.8684 294.458L26.839 288.122" fill="#CED4DA"/>
<path d="M29.549 287.571C96.9257 286.961 161.158 283.144 236.416 287.571M29.549 287.571C106.297 286.804 183.438 286.135 236.416 287.571M236.416 287.571C245.084 286.076 251.27 292.785 251.932 302.328M236.416 287.571C246.512 283.538 249.904 296.445 251.932 302.328M251.932 302.328C250.608 310.296 252.759 323.4 251.932 331.841M251.932 302.328C251.683 311.831 252.449 324.227 251.932 331.841M251.932 331.841C254.207 342.958 249.325 349.942 236.416 346.598M251.932 331.841C247.422 339.475 243.119 350.1 236.416 346.598M236.416 346.598C154.849 346.086 69.5779 348.88 29.549 346.598M236.416 346.598C161.779 345.988 86.6237 344.512 29.549 346.598M29.549 346.598C18.2747 347.149 17.4266 345.535 14.0339 331.841M29.549 346.598C18.6471 345.279 18.3368 338.334 14.0339 331.841M14.0339 331.841C15.8337 319.564 11.6757 310.592 14.0339 302.328M14.0339 331.841C13.0824 322.535 13.7857 313.779 14.0339 302.328M14.0339 302.328C13.4961 295.343 21.295 289.283 29.549 287.571M14.0339 302.328C18.3988 292.628 21.1502 283.538 29.549 287.571" stroke="black" stroke-linecap="round"/>
<path d="M210.833 177.759V166.123H217.856V167.373H212.242V171.305H217.492V172.555H212.242V176.509H217.947V177.759H210.833ZM221.555 172.509V177.759H220.214V169.032H221.509V170.396H221.623C221.827 169.952 222.138 169.596 222.555 169.327C222.971 169.055 223.509 168.918 224.168 168.918C224.759 168.918 225.276 169.039 225.719 169.282C226.163 169.521 226.507 169.884 226.754 170.373C227 170.858 227.123 171.471 227.123 172.214V177.759H225.782V172.305C225.782 171.619 225.604 171.085 225.248 170.702C224.892 170.316 224.403 170.123 223.782 170.123C223.354 170.123 222.971 170.216 222.634 170.401C222.301 170.587 222.038 170.858 221.844 171.214C221.651 171.57 221.555 172.002 221.555 172.509Z" fill="black"/>
<path d="M31.9313 328.474V307.383H39.0577C40.7123 307.383 42.0648 307.681 43.1152 308.279C44.1725 308.869 44.9552 309.669 45.4633 310.678C45.9713 311.688 46.2253 312.813 46.2253 314.056C46.2253 315.299 45.9713 316.428 45.4633 317.444C44.9621 318.46 44.1863 319.271 43.1358 319.875C42.0854 320.472 40.7398 320.771 39.0989 320.771H33.991V318.505H39.0165C40.1493 318.505 41.059 318.309 41.7456 317.918C42.4321 317.527 42.9299 316.998 43.2388 316.332C43.5546 315.659 43.7125 314.901 43.7125 314.056C43.7125 313.212 43.5546 312.456 43.2388 311.791C42.9299 311.125 42.4287 310.603 41.7353 310.225C41.0419 309.841 40.1219 309.648 38.9753 309.648H34.4853V328.474H31.9313ZM50.01 328.474V312.656H52.358V315.045H52.5227C52.8111 314.262 53.3329 313.627 54.0881 313.14C54.8433 312.652 55.6946 312.408 56.6421 312.408C56.8206 312.408 57.0437 312.412 57.3114 312.419C57.5792 312.426 57.7817 312.436 57.919 312.45V314.921C57.8367 314.901 57.6479 314.87 57.3526 314.829C57.0643 314.78 56.7588 314.756 56.4361 314.756C55.6672 314.756 54.9806 314.918 54.3764 315.24C53.7791 315.556 53.3054 315.996 52.9553 316.559C52.612 317.115 52.4404 317.75 52.4404 318.464V328.474H50.01ZM60.8 328.474V312.656H63.2304V328.474H60.8ZM62.0358 310.019C61.5621 310.019 61.1536 309.858 60.8103 309.535C60.4739 309.213 60.3057 308.825 60.3057 308.371C60.3057 307.918 60.4739 307.53 60.8103 307.208C61.1536 306.885 61.5621 306.724 62.0358 306.724C62.5095 306.724 62.9146 306.885 63.251 307.208C63.5943 307.53 63.7659 307.918 63.7659 308.371C63.7659 308.825 63.5943 309.213 63.251 309.535C62.9146 309.858 62.5095 310.019 62.0358 310.019ZM80.6165 312.656L74.7671 328.474H72.2955L66.446 312.656H69.0824L73.4489 325.261H73.6136L77.9801 312.656H80.6165ZM87.9978 328.844C86.9954 328.844 86.0857 328.656 85.2687 328.278C84.4517 327.894 83.803 327.341 83.3224 326.62C82.8418 325.892 82.6015 325.014 82.6015 323.984C82.6015 323.077 82.78 322.343 83.137 321.78C83.494 321.21 83.9712 320.764 84.5685 320.441C85.1658 320.118 85.8249 319.878 86.5457 319.72C87.2735 319.555 88.0047 319.425 88.7393 319.329C89.7004 319.205 90.4797 319.113 91.077 319.051C91.6811 318.982 92.1205 318.869 92.3952 318.711C92.6767 318.553 92.8174 318.278 92.8174 317.887V317.805C92.8174 316.789 92.5393 315.999 91.9832 315.436C91.434 314.873 90.5998 314.592 89.4807 314.592C88.3205 314.592 87.4108 314.846 86.7517 315.354C86.0926 315.862 85.6292 316.404 85.3614 316.981L83.0546 316.157C83.4665 315.196 84.0158 314.447 84.7023 313.912C85.3958 313.37 86.151 312.992 86.968 312.779C87.7918 312.559 88.602 312.45 89.3984 312.45C89.9064 312.45 90.49 312.511 91.1491 312.635C91.815 312.752 92.457 312.995 93.0749 313.366C93.6996 313.737 94.218 314.296 94.6299 315.045C95.0418 315.793 95.2478 316.795 95.2478 318.052V328.474H92.8174V326.332H92.6938C92.529 326.675 92.2544 327.042 91.87 327.434C91.4855 327.825 90.974 328.158 90.3355 328.433C89.697 328.707 88.9178 328.844 87.9978 328.844ZM88.3685 326.661C89.3297 326.661 90.1398 326.472 90.7989 326.095C91.4649 325.717 91.9661 325.23 92.3025 324.632C92.6458 324.035 92.8174 323.407 92.8174 322.748V320.523C92.7144 320.647 92.4878 320.76 92.1377 320.863C91.7944 320.959 91.3962 321.045 90.9431 321.121C90.4968 321.189 90.0609 321.251 89.6352 321.306C89.2164 321.354 88.8766 321.395 88.6157 321.43C87.9841 321.512 87.3936 321.646 86.8444 321.831C86.302 322.01 85.8626 322.281 85.5262 322.645C85.1967 323.002 85.0319 323.489 85.0319 324.107C85.0319 324.952 85.3443 325.59 85.969 326.023C86.6007 326.448 87.4005 326.661 88.3685 326.661ZM106.563 312.656V314.715H98.3656V312.656H106.563ZM100.755 308.866H103.185V323.943C103.185 324.629 103.285 325.144 103.484 325.487C103.69 325.824 103.951 326.05 104.267 326.167C104.589 326.277 104.929 326.332 105.286 326.332C105.554 326.332 105.774 326.318 105.945 326.291C106.117 326.256 106.254 326.229 106.357 326.208L106.851 328.391C106.687 328.453 106.457 328.515 106.161 328.577C105.866 328.645 105.492 328.68 105.039 328.68C104.352 328.68 103.68 328.532 103.02 328.237C102.368 327.942 101.826 327.492 101.393 326.888C100.968 326.284 100.755 325.522 100.755 324.602V308.866ZM116.681 328.803C115.157 328.803 113.842 328.467 112.737 327.794C111.638 327.114 110.79 326.167 110.193 324.952C109.603 323.73 109.308 322.309 109.308 320.688C109.308 319.068 109.603 317.64 110.193 316.404C110.79 315.161 111.621 314.193 112.685 313.5C113.756 312.8 115.006 312.45 116.434 312.45C117.258 312.45 118.071 312.587 118.875 312.862C119.678 313.136 120.409 313.582 121.068 314.2C121.727 314.811 122.252 315.621 122.644 316.631C123.035 317.64 123.231 318.883 123.231 320.359V321.389H111.038V319.288H120.759C120.759 318.395 120.581 317.599 120.224 316.898C119.874 316.198 119.372 315.646 118.72 315.24C118.075 314.835 117.313 314.633 116.434 314.633C115.466 314.633 114.628 314.873 113.921 315.354C113.221 315.827 112.682 316.445 112.304 317.207C111.927 317.969 111.738 318.786 111.738 319.658V321.059C111.738 322.254 111.944 323.266 112.356 324.097C112.775 324.921 113.355 325.549 114.096 325.982C114.838 326.407 115.699 326.62 116.681 326.62C117.32 326.62 117.896 326.531 118.411 326.352C118.933 326.167 119.383 325.892 119.76 325.528C120.138 325.158 120.43 324.698 120.636 324.148L122.984 324.808C122.737 325.604 122.321 326.304 121.738 326.908C121.154 327.506 120.433 327.973 119.575 328.309C118.717 328.639 117.752 328.803 116.681 328.803Z" fill="black"/>
<path d="M214.169 306.604C214.169 306.604 214.459 307.378 215.038 308.926C215.604 310.487 216.142 312.376 216.652 314.593C217.162 316.823 217.686 318.77 218.224 320.436C218.748 322.115 219.334 323.643 219.982 325.021C220.644 326.398 221.175 327.434 221.575 328.129C221.989 328.825 222.272 329.33 222.423 329.644C222.589 329.946 222.706 330.261 222.775 330.589C222.858 330.917 222.892 331.251 222.879 331.592C222.879 331.933 222.83 332.268 222.734 332.596C222.637 332.924 222.506 333.238 222.341 333.54C222.161 333.829 221.948 334.098 221.699 334.347C221.465 334.596 221.196 334.812 220.893 334.996C220.603 335.18 220.286 335.331 219.941 335.449C219.61 335.567 219.265 335.639 218.907 335.665C218.548 335.704 218.197 335.698 217.852 335.645C217.493 335.593 217.148 335.508 216.817 335.39C216.486 335.258 216.176 335.094 215.886 334.898C215.597 334.688 215.342 334.458 215.121 334.209C214.887 333.947 214.804 332.976 214.873 331.297C214.942 329.631 215.335 328.162 216.052 326.89C216.769 325.631 217.528 324.417 218.328 323.25C219.141 322.082 219.969 320.902 220.81 319.708C221.651 318.515 222.513 317.255 223.396 315.931C224.292 314.606 225.161 313.268 226.002 311.917C226.857 310.579 227.974 308.906 229.354 306.9C230.733 304.893 231.546 303.817 231.795 303.673C232.043 303.515 232.312 303.41 232.601 303.358C232.891 303.292 233.181 303.273 233.47 303.299C233.76 303.325 234.036 303.397 234.298 303.515C234.574 303.633 234.815 303.784 235.022 303.968C235.242 304.165 235.422 304.388 235.56 304.637C235.697 304.873 235.787 305.129 235.829 305.404C235.884 305.68 235.891 305.955 235.849 306.231C235.794 306.506 235.704 306.768 235.58 307.018C235.442 307.254 235.263 307.47 235.042 307.667C234.836 307.851 234.601 308.001 234.339 308.119C234.077 308.237 233.794 308.316 233.491 308.356C233.201 308.382 232.919 308.369 232.643 308.316C232.353 308.251 232.084 308.152 231.836 308.021C231.574 307.877 231.346 307.7 231.153 307.49C230.974 307.293 230.829 307.064 230.719 306.801C230.609 306.539 230.54 306.27 230.512 305.995C230.498 305.719 230.526 305.444 230.595 305.168C230.678 304.906 230.802 304.657 230.967 304.42C231.133 304.184 231.326 303.981 231.546 303.811C231.781 303.64 232.036 303.515 232.312 303.437C232.588 303.345 232.877 303.292 233.181 303.279C233.47 303.279 233.753 303.325 234.029 303.417C234.305 303.509 234.56 303.633 234.794 303.791C235.029 303.961 235.229 304.165 235.394 304.401C235.56 304.624 235.684 304.873 235.766 305.148C235.849 305.411 235.884 305.68 235.87 305.955C235.856 306.231 235.794 306.5 235.684 306.762C235.587 307.024 235.442 307.254 235.249 307.45C235.056 307.673 234.96 307.785 234.96 307.785C234.96 307.785 235.008 308.375 235.104 309.556C235.201 310.749 234.953 312.081 234.36 313.55C233.753 315.019 233.008 316.436 232.126 317.8C231.257 319.151 230.181 320.81 228.898 322.778C227.616 324.745 226.175 326.306 224.575 327.46C222.989 328.602 222.272 329.33 222.423 329.644C222.589 329.946 222.706 330.261 222.775 330.589C222.858 330.917 222.892 331.251 222.879 331.592C222.879 331.933 222.83 332.268 222.734 332.596C222.637 332.924 222.506 333.238 222.341 333.54C222.161 333.829 221.948 334.098 221.699 334.347C221.465 334.596 221.196 334.812 220.893 334.996C220.603 335.18 220.286 335.331 219.941 335.449C219.61 335.567 219.265 335.639 218.907 335.665C218.548 335.704 218.197 335.698 217.852 335.645C217.493 335.593 217.148 335.508 216.817 335.39C216.486 335.258 216.176 335.094 215.886 334.898C215.597 334.688 215.342 334.458 215.121 334.209C214.887 333.947 214.404 333.16 213.673 331.848C212.956 330.549 212.273 329.192 211.625 327.775C210.977 326.372 210.356 324.686 209.763 322.719C209.156 320.751 208.598 318.639 208.088 316.383C207.564 314.127 207.233 312.173 207.095 310.52C206.957 308.88 206.874 307.916 206.846 307.628C206.819 307.365 206.833 307.09 206.888 306.801C206.929 306.526 207.005 306.257 207.115 305.995C207.239 305.732 207.391 305.483 207.57 305.247C207.736 305.024 207.936 304.821 208.17 304.637C208.405 304.453 208.66 304.296 208.936 304.165C209.198 304.047 209.474 303.955 209.763 303.889C210.067 303.837 210.356 303.817 210.632 303.83C210.935 303.83 211.232 303.87 211.522 303.948C211.811 304.027 212.087 304.138 212.349 304.283C212.611 304.414 212.852 304.578 213.073 304.775C213.28 304.971 213.466 305.194 213.632 305.444C213.797 305.68 213.928 305.935 214.025 306.211C214.121 306.473 214.169 306.604 214.169 306.604Z" fill="#495057"/>
<path d="M42.0256 52.1628V50.4583L55.7472 43.4696V46.1969L45.2216 51.2679L45.3068 51.0975V51.5236L45.2216 51.3531L55.7472 56.4242V59.1514L42.0256 52.1628ZM107.099 43.4696C106.971 42.3901 106.453 41.552 105.544 40.9554C104.635 40.3588 103.52 40.0605 102.199 40.0605C101.233 40.0605 100.388 40.2168 99.6632 40.5293C98.9458 40.8418 98.3848 41.2715 97.9799 41.8183C97.5822 42.3652 97.3833 42.9867 97.3833 43.6827C97.3833 44.2651 97.5218 44.7658 97.7988 45.1848C98.0829 45.5967 98.4451 45.9412 98.8855 46.2182C99.3258 46.4881 99.7875 46.7118 100.27 46.8894C100.753 47.0598 101.197 47.1983 101.602 47.3048L103.818 47.9014C104.386 48.0506 105.018 48.2565 105.714 48.5193C106.417 48.7821 107.089 49.1408 107.728 49.5953C108.374 50.0428 108.907 50.6181 109.326 51.3212C109.745 52.0243 109.954 52.8872 109.954 53.91C109.954 55.0889 109.645 56.1543 109.028 57.106C108.417 58.0577 107.522 58.8141 106.343 59.3752C105.171 59.9362 103.747 60.2168 102.071 60.2168C100.508 60.2168 99.1554 59.9646 98.0119 59.4604C96.8755 58.9561 95.9806 58.253 95.3272 57.351C94.6809 56.449 94.3152 55.4014 94.2299 54.2083H96.9572C97.0282 55.0321 97.3052 55.7139 97.7882 56.2537C98.2782 56.7864 98.8961 57.1841 99.6419 57.4469C100.395 57.7026 101.204 57.8304 102.071 57.8304C103.079 57.8304 103.985 57.6671 104.787 57.3404C105.59 57.0065 106.226 56.5449 106.694 55.9554C107.163 55.3588 107.398 54.6628 107.398 53.8673C107.398 53.1429 107.195 52.5534 106.79 52.0989C106.385 51.6443 105.853 51.275 105.192 50.9909C104.532 50.7068 103.818 50.4583 103.051 50.2452L100.366 49.4781C98.6618 48.9881 97.3123 48.2885 96.318 47.3794C95.3237 46.4703 94.8265 45.2807 94.8265 43.8105C94.8265 42.5889 95.1568 41.5236 95.8173 40.6145C96.4849 39.6983 97.3798 38.9881 98.502 38.4838C99.6312 37.9725 100.892 37.7168 102.284 37.7168C103.69 37.7168 104.94 37.9689 106.034 38.4732C107.128 38.9703 107.994 39.6521 108.633 40.5186C109.28 41.3851 109.621 42.3688 109.656 43.4696H107.099ZM120.818 60.1742C119.241 60.1742 117.881 59.8261 116.738 59.1301C115.602 58.427 114.724 57.4469 114.107 56.1898C113.496 54.9256 113.19 53.4554 113.19 51.7793C113.19 50.1031 113.496 48.6259 114.107 47.3475C114.724 46.0619 115.584 45.0605 116.685 44.3432C117.793 43.6188 119.085 43.2565 120.562 43.2565C121.415 43.2565 122.256 43.3986 123.087 43.6827C123.918 43.9668 124.675 44.4284 125.357 45.0676C126.038 45.6997 126.582 46.5378 126.987 47.5818C127.391 48.6259 127.594 49.9114 127.594 51.4384V52.5037H114.98V50.3304H125.037C125.037 49.4071 124.852 48.5833 124.483 47.8588C124.121 47.1344 123.602 46.5627 122.928 46.1436C122.26 45.7246 121.472 45.5151 120.562 45.5151C119.561 45.5151 118.695 45.7636 117.963 46.2608C117.239 46.7509 116.681 47.3901 116.29 48.1784C115.9 48.9668 115.705 49.8119 115.705 50.7139V52.1628C115.705 53.3986 115.918 54.4462 116.344 55.3056C116.777 56.1578 117.377 56.8077 118.144 57.2551C118.911 57.6955 119.803 57.9156 120.818 57.9156C121.479 57.9156 122.075 57.8233 122.608 57.6386C123.148 57.4469 123.613 57.1628 124.004 56.7864C124.394 56.4029 124.696 55.927 124.909 55.3588L127.338 56.0406C127.082 56.8645 126.653 57.5889 126.049 58.2139C125.445 58.8318 124.7 59.3148 123.812 59.6628C122.924 60.0037 121.926 60.1742 120.818 60.1742ZM138.535 43.4696V45.6003H130.055V43.4696H138.535ZM132.526 39.5492H135.04V55.1458C135.04 55.856 135.143 56.3886 135.349 56.7438C135.563 57.0918 135.832 57.3261 136.159 57.4469C136.493 57.5605 136.844 57.6173 137.214 57.6173C137.491 57.6173 137.718 57.6031 137.896 57.5747C138.073 57.5392 138.215 57.5108 138.322 57.4895L138.833 59.748C138.663 59.8119 138.425 59.8759 138.119 59.9398C137.814 60.0108 137.427 60.0463 136.958 60.0463C136.248 60.0463 135.552 59.8936 134.87 59.5882C134.195 59.2828 133.634 58.8176 133.187 58.1926C132.746 57.5676 132.526 56.7793 132.526 55.8276V39.5492ZM149.433 43.4696V45.6003H140.953V43.4696H149.433ZM143.425 39.5492H145.939V55.1458C145.939 55.856 146.042 56.3886 146.248 56.7438C146.461 57.0918 146.731 57.3261 147.058 57.4469C147.391 57.5605 147.743 57.6173 148.112 57.6173C148.389 57.6173 148.616 57.6031 148.794 57.5747C148.972 57.5392 149.114 57.5108 149.22 57.4895L149.732 59.748C149.561 59.8119 149.323 59.8759 149.018 59.9398C148.712 60.0108 148.325 60.0463 147.857 60.0463C147.146 60.0463 146.45 59.8936 145.768 59.5882C145.094 59.2828 144.533 58.8176 144.085 58.1926C143.645 57.5676 143.425 56.7793 143.425 55.8276V39.5492ZM153.215 59.8333V43.4696H155.729V59.8333H153.215ZM154.494 40.7423C154.004 40.7423 153.581 40.5754 153.226 40.2416C152.878 39.9078 152.704 39.5065 152.704 39.0378C152.704 38.569 152.878 38.1678 153.226 37.834C153.581 37.5002 154.004 37.3333 154.494 37.3333C154.984 37.3333 155.403 37.5002 155.751 37.834C156.106 38.1678 156.283 38.569 156.283 39.0378C156.283 39.5065 156.106 39.9078 155.751 40.2416C155.403 40.5754 154.984 40.7423 154.494 40.7423ZM162.849 49.9895V59.8333H160.334V43.4696H162.763V46.0264H162.976C163.36 45.1955 163.942 44.5279 164.724 44.0236C165.505 43.5122 166.513 43.2565 167.749 43.2565C168.857 43.2565 169.827 43.4838 170.657 43.9384C171.488 44.3858 172.135 45.0676 172.596 45.9838C173.058 46.8929 173.289 48.0435 173.289 49.4355V59.8333H170.775V49.606C170.775 48.3205 170.441 47.319 169.773 46.6017C169.106 45.8773 168.189 45.5151 167.025 45.5151C166.222 45.5151 165.505 45.6891 164.873 46.0371C164.248 46.3851 163.754 46.8929 163.392 47.5605C163.03 48.2281 162.849 49.0378 162.849 49.9895ZM184.488 66.3105C183.274 66.3105 182.23 66.1543 181.356 65.8418C180.483 65.5364 179.755 65.1315 179.172 64.6273C178.597 64.1301 178.139 63.5975 177.798 63.0293L179.801 61.623C180.028 61.9213 180.316 62.2622 180.664 62.6458C181.012 63.0364 181.488 63.3737 182.091 63.6578C182.702 63.949 183.501 64.0946 184.488 64.0946C185.809 64.0946 186.9 63.775 187.759 63.1358C188.618 62.4966 189.048 61.4952 189.048 60.1315V56.8077H188.835C188.65 57.106 188.387 57.4753 188.047 57.9156C187.713 58.3489 187.23 58.736 186.598 59.0769C185.973 59.4107 185.127 59.5776 184.062 59.5776C182.741 59.5776 181.555 59.2651 180.504 58.6401C179.46 58.0151 178.632 57.106 178.022 55.9128C177.418 54.7196 177.116 53.2708 177.116 51.5662C177.116 49.8901 177.411 48.4306 178 47.1877C178.59 45.9377 179.41 44.9717 180.461 44.2899C181.512 43.601 182.727 43.2565 184.105 43.2565C185.17 43.2565 186.015 43.4341 186.64 43.7892C187.272 44.1372 187.755 44.535 188.089 44.9824C188.43 45.4227 188.693 45.785 188.877 46.069H189.133V43.4696H191.562V60.302C191.562 61.7083 191.243 62.8517 190.603 63.7324C189.971 64.6202 189.119 65.27 188.047 65.682C186.981 66.101 185.795 66.3105 184.488 66.3105ZM184.403 57.319C185.412 57.319 186.264 57.0882 186.96 56.6266C187.656 56.1649 188.185 55.5009 188.547 54.6344C188.909 53.7679 189.091 52.731 189.091 51.5236C189.091 50.3446 188.913 49.3041 188.558 48.4021C188.203 47.5002 187.677 46.7935 186.981 46.2821C186.285 45.7708 185.426 45.5151 184.403 45.5151C183.338 45.5151 182.45 45.785 181.74 46.3247C181.037 46.8645 180.507 47.5889 180.152 48.498C179.804 49.4071 179.63 50.4156 179.63 51.5236C179.63 52.66 179.808 53.6649 180.163 54.5385C180.525 55.405 181.058 56.0868 181.761 56.584C182.471 57.074 183.352 57.319 184.403 57.319Z" fill="black"/>
</svg>
