<svg width="268" height="502" viewBox="0 0 268 502" fill="none" xmlns="http://www.w3.org/2000/svg">
<path d="M76.0507 364.043L186.352 360.876L190.428 363.847L190.262 405.145L187.118 406.916L180.146 405.381L75.0578 404.87L68.2311 402.883L67.776 370.93L65.5212 362.292L74.3544 360.915" fill="#868E96"/>
<path d="M76.9609 360.718C115.769 357.964 148.351 361.21 181.553 360.718M76.9609 360.718C119.948 363.552 159.873 361.82 181.553 360.718M181.553 360.718C186.994 361.781 193.965 362.666 194.069 372.622M181.553 360.718C190.221 358.633 195.744 363.493 194.069 372.622M194.069 372.622C192.952 379.764 195.227 386.867 194.069 396.429M194.069 372.622C194.338 379.725 194.544 384.742 194.069 396.429M194.069 396.429C191.834 406.621 192.579 406.287 181.553 408.333M194.069 396.429C197.441 404.024 187.345 404.713 181.553 408.333M181.553 408.333C159.336 404.142 135.732 404.949 76.9609 408.333M181.553 408.333C156.895 411.225 131.677 410.674 76.9609 408.333M76.9609 408.333C71.6445 411.107 65.7487 407.703 64.4455 396.429M76.9609 408.333C67.776 408.215 68.9552 402.292 64.4455 396.429M64.4455 396.429C62.4802 389.779 65.8315 381.338 64.4455 372.622M64.4455 396.429C65.6246 388.067 65.5419 381.987 64.4455 372.622M64.4455 372.622C63.9283 362.745 68.7069 364.378 76.9609 360.718M64.4455 372.622C62.956 362.784 64.9419 357.472 76.9609 360.718" stroke="black" stroke-linecap="round"/>
<path d="M67.0185 1.26436C101.855 0.988909 129.761 2.50391 198.173 1.26436M67.0185 1.26436C116.191 1.89398 167.908 3.78282 198.173 1.26436M198.173 1.26436C239.132 3.66476 266.335 23.3992 263.729 63.6354M198.173 1.26436C245.98 3.84184 259.757 23.4779 263.729 63.6354M263.729 63.6354C266.418 151.781 266.894 246.872 263.729 438.314M263.729 63.6354C266.873 163.921 268.011 267.059 263.729 438.314M263.729 438.314C265.425 479.731 244.014 498.954 198.173 500.685M263.729 438.314C268.363 475.776 239.856 500.37 198.173 500.685M198.173 500.685C164.226 501.59 135.078 497.97 67.0185 500.685M198.173 500.685C153.965 501.826 105.868 501.236 67.0185 500.685M67.0185 500.685C20.3699 498.777 5.2479 477.016 1.44154 438.314M67.0185 500.685C22.211 497.34 -2.67512 477.252 1.44154 438.314M1.44154 438.314C8.51641 326.853 4.91691 219.897 1.44154 63.6354M1.44154 438.314C1.48291 314.005 2.95167 187.138 1.44154 63.6354M1.44154 63.6354C4.95829 18.9132 21.6732 -1.60824 67.0185 1.26436M1.44154 63.6354C5.59958 25.7602 24.4866 3.52703 67.0185 1.26436" stroke="black" stroke-linecap="round"/>
<path d="M37.0408 170.936C41.2816 168.457 41.9642 165.388 46.5567 160.548M37.0408 170.936C39.1508 168.772 41.9642 166.076 46.5567 160.548M37.8682 182.033C44.9845 174.871 48.646 174.734 58.224 159.761M37.8682 182.033C43.495 175.54 50.0941 166.194 58.224 159.761M37.3304 194.625C50.9216 178.019 63.1888 166.076 68.5467 160.469M37.3304 194.625C48.1496 180.42 62.1959 167.532 68.5467 160.469M42.2125 201.276C53.0937 194.586 58.555 183.981 80.214 159.702M42.2125 201.276C55.7002 186.598 68.4226 171.192 80.214 159.702M53.8798 200.489C66.2918 191.654 67.802 179.003 90.5367 160.41M53.8798 200.489C63.044 189.372 70.905 179.141 90.5367 160.41M64.2025 201.197C77.111 190.08 93.5156 177.488 102.204 159.623M64.2025 201.197C78.1453 185.004 93.888 172.353 102.204 159.623M75.8698 200.43C92.6261 189.274 105.638 169.283 112.527 160.331M75.8698 200.43C85.8201 191.831 95.4188 177.882 112.527 160.331M86.1925 201.138C104.211 186.913 116.871 168.221 124.194 159.564M86.1925 201.138C97.6943 190.789 110.21 178.295 124.194 159.564M97.8598 200.371C104.624 188.605 115.671 178.236 134.517 160.272M97.8598 200.371C109.155 188.231 117.967 176.799 134.517 160.272M108.182 201.079C112.713 189.057 127.132 184.571 146.184 159.485M108.182 201.079C119.126 189.864 127.731 179.338 146.184 159.485M118.505 201.787C136.751 183.666 150.052 168.123 156.507 160.193M118.505 201.787C131.827 186.303 148.253 167.69 156.507 160.193M130.173 201C143.681 185.102 154.686 169.972 166.809 160.902M130.173 201C138.385 190.061 146.763 181.817 166.809 160.902M140.495 201.709C146.432 195.255 154.417 184.335 178.497 160.134M140.495 201.709C152.059 189.136 160.396 180.538 178.497 160.134M152.163 200.941C165.981 192.658 177.049 178.983 188.799 160.843M152.163 200.941C164.802 187.778 175.539 172.904 188.799 160.843M162.485 201.649C170.615 192.245 178.145 184.276 200.487 160.075M162.485 201.649C177.793 187.109 193.681 168.083 200.487 160.075M174.153 200.862C185.137 192.323 192.853 176.799 210.789 160.784M174.153 200.862C183.627 192.835 190.247 183.666 210.789 160.784M184.475 201.571C195.274 190.297 206.32 180.557 222.477 159.997M184.475 201.571C196.846 188.211 206.32 175.206 222.477 159.997M196.143 200.803C203.693 195.767 213.644 185.693 232.779 160.705M196.143 200.803C203.114 191.123 209.92 182.191 232.779 160.705M206.465 201.512C220.615 188.388 238.033 167.572 243.101 161.413M206.465 201.512C215.692 191.241 228.869 178.747 243.101 161.413M218.133 200.725C222.456 192.618 227.4 186.381 247.984 168.064M218.133 200.725C228.352 189.097 240.205 177.173 247.984 168.064M228.455 201.433C233.027 193.878 246.804 184.512 248.811 179.161M228.455 201.433C235.406 193.091 243.681 184.729 248.811 179.161" stroke="#CED4DA" stroke-width="0.5" stroke-linecap="round"/>
<path d="M44.2191 157.439C95.9566 156.14 144.012 157.872 233.337 157.439M44.2191 157.439C98.7287 156.101 148.956 158.226 233.337 157.439M233.337 157.439C244.239 157.773 242.109 157.321 244.219 167.788M233.337 157.439C240.785 157.163 239.605 157.065 244.219 167.788M244.219 167.788C245.998 175.599 243.143 181.404 244.219 188.467M244.219 167.788C244.487 174.537 243.536 180.872 244.219 188.467M244.219 188.467C243.101 193.996 243.267 202.692 233.337 198.816M244.219 188.467C242.791 197.301 244.446 199.367 233.337 198.816M233.337 198.816C187.454 195.727 143.164 201.236 44.2191 198.816M233.337 198.816C177.504 199.308 125.394 198.01 44.2191 198.816M44.2191 198.816C36.6891 201.551 32.469 197.655 33.3379 188.467M44.2191 198.816C35.5513 196.455 32.5104 192.245 33.3379 188.467M33.3379 188.467C31.807 180.479 33.2758 174.124 33.3379 167.788M33.3379 188.467C33.5654 181.974 34.2688 175.363 33.3379 167.788M33.3379 167.788C30.6486 163.951 38.7371 159.721 44.2191 157.439M33.3379 167.788C34.0412 165.27 35.572 156.75 44.2191 157.439" stroke="black" stroke-linecap="round"/>
<path d="M37.6502 232.012C41.4979 228.176 44.2906 227.448 48.5107 220.128M37.6502 232.012C42.3254 227.684 45.5318 223.69 48.5107 220.128M37.1123 244.585C41.5393 238.663 45.6973 234.826 58.8334 220.837M37.1123 244.585C43.2356 236.754 48.8417 233.114 58.8334 220.837M36.5745 257.177C53.7238 243.955 63.6327 231.934 70.5007 220.05M36.5745 257.177C45.5318 248.992 55.7097 239.194 70.5007 220.05M41.4565 263.827C51.6344 246.336 68.7424 234.098 80.8234 220.758M41.4565 263.827C56.4958 248.54 72.3625 230.537 80.8234 220.758M53.1445 263.06C63.3638 257.61 71.08 247.635 91.1254 221.466M53.1445 263.06C67.2943 248.008 79.4995 232.327 91.1254 221.466M63.4466 263.768C73.9554 256.784 81.8164 246.552 102.813 220.699M63.4466 263.768C78.2376 248.933 90.6703 234.275 102.813 220.699M75.1346 262.981C90.1325 253.124 98.0969 234.964 113.115 221.407M75.1346 262.981C81.8164 255.151 91.684 244.152 113.115 221.407M85.4366 263.69C98.1175 249.032 106.723 236.695 124.803 220.64M85.4366 263.69C100.166 244.546 116.136 228.53 124.803 220.64M97.1246 262.922C106.289 251.019 123.976 235.967 135.105 221.348M97.1246 262.922C108.916 249.681 124.328 234.177 135.105 221.348M107.427 263.631C117.005 250.822 122.466 242.519 146.793 220.561M107.427 263.631C119.404 249.996 132.54 240.355 146.793 220.561M119.115 262.844C135.209 250.507 144.083 231.225 157.116 221.27M119.115 262.844C129.582 250.743 142.18 241.673 157.116 221.27M129.417 263.552C140.36 249.11 153.972 238.013 168.783 220.502M129.417 263.552C142.036 251.825 150.951 240.906 168.783 220.502M141.105 262.785C147.58 252.416 162.04 241.948 179.106 221.211M141.105 262.785C154.489 246.71 168.908 231.638 179.106 221.211M151.407 263.493C163.632 248.284 176.789 234.157 190.773 220.424M151.407 263.493C167.129 247.339 178.568 233.842 190.773 220.424M161.729 264.201C178.961 248.225 187.836 237.167 201.096 221.132M161.729 264.201C177.782 246.041 191.787 230.32 201.096 221.132M173.397 263.414C182.416 251.019 196.524 235.298 211.398 221.84M173.397 263.414C181.03 253.832 192.263 245.923 211.398 221.84M183.719 264.123C197.972 251.963 208.709 242.106 223.086 221.073M183.719 264.123C196.442 251.216 209.743 237.364 223.086 221.073M195.387 263.355C207.385 253.34 216.239 239.764 234.754 220.286M195.387 263.355C210.074 248.776 223.748 233.547 234.754 220.286M205.709 264.064C218.618 249.386 231.692 234.747 241.001 225.46M205.709 264.064C220.066 250.645 232.354 234.57 241.001 225.46M217.377 263.277C225.051 256.213 236.512 245.49 241.808 236.557M217.377 263.277C227.575 255.564 236.264 242.932 241.808 236.557M227.699 263.985C232.354 260.247 235.229 254.718 241.27 249.15M227.699 263.985C231.588 258.082 237.484 254.226 241.27 249.15" stroke="#CED4DA" stroke-width="0.5" stroke-linecap="round"/>
<path d="M45.325 218.358C89.7601 220.699 136.016 216.292 229.478 218.358M45.325 218.358C83.1817 218.633 120.604 217 229.478 218.358M229.478 218.358C240.629 217.964 238.891 219.873 241.042 229.356M229.478 218.358C238.167 217.118 241.042 222.903 241.042 229.356M241.042 229.356C238.891 239.863 243.09 245.588 241.042 251.353M241.042 229.356C241.58 233.645 240.111 239.745 241.042 251.353M241.042 251.353C243.256 259.322 240.773 265.952 229.478 262.332M241.042 251.353C240.07 259.361 233.016 260.384 229.478 262.332M229.478 262.332C170.314 257.276 110.012 257.945 45.325 262.332M229.478 262.332C166.467 261.86 99.4622 261.742 45.325 262.332M45.325 262.332C36.9262 263.001 32.7268 254.836 33.7611 251.353M45.325 262.332C35.9332 260.561 38.1674 258.869 33.7611 251.353M33.7611 251.353C33.9266 245.293 33.7197 242.932 33.7611 229.356M33.7611 251.353C33.9059 245.588 33.1819 239.036 33.7611 229.356M33.7611 229.356C35.8298 225.441 37.3813 216.272 45.325 218.358M33.7611 229.356C36.2849 224.732 38.0226 222.863 45.325 218.358" stroke="black" stroke-linecap="round"/>
<path d="M36.2486 294.263C40.2618 289.501 43.8199 287.18 47.1091 282.379M36.2486 294.263C40.2411 290.524 42.9304 286.019 47.1091 282.379M35.7107 306.835C44.6888 297.548 46.7367 290.19 57.4318 283.087M35.7107 306.835C40.9445 299.28 48.0193 294.932 57.4318 283.087M35.1729 319.428C43.6958 307.111 55.6734 301.523 69.0991 282.3M35.1729 319.428C46.323 309.373 52.5704 297.45 69.0991 282.3M41.4202 324.602C49.5088 312.226 61.8588 302.566 79.4218 283.008M41.4202 324.602C57.1008 309.314 72.5124 290.524 79.4218 283.008M51.7222 325.31C60.2659 311.833 73.5675 302.762 89.7238 283.717M51.7222 325.31C68.6854 308.822 80.8285 293.672 89.7238 283.717M62.0449 326.019C71.0437 318.818 81.3457 304.907 101.412 282.949M62.0449 326.019C76.1947 310.888 87.5724 299.595 101.412 282.949M73.7123 325.232C81.9042 313.053 91.8339 302.979 111.714 283.658M73.7123 325.232C80.7458 316.083 89.4756 307.268 111.714 283.658M84.0349 325.94C92.5579 318.719 100.895 303.274 123.402 282.89M84.0349 325.94C99.0122 311.361 112.976 292.885 123.402 282.89M95.7023 325.173C106.108 311.4 119.637 293.613 133.704 283.599M95.7023 325.173C107.349 312.305 116.906 301.956 133.704 283.599M106.025 325.881C117.279 312.836 126.67 306.579 145.392 282.812M106.025 325.881C121.643 311.262 135.4 295.109 145.392 282.812M117.692 325.094C129.236 310.967 145.826 297.824 155.694 283.52M117.692 325.094C129.753 313.269 141.461 300.067 155.694 283.52M128.015 325.802C139.6 316.929 148.805 306.422 167.382 282.753M128.015 325.802C138.751 315.355 146.281 305.124 167.382 282.753M139.682 325.035C147.502 314.922 163.969 300.48 177.684 283.461M139.682 325.035C151.556 313.112 161.755 303.195 177.684 283.461M150.005 325.743C159.293 313.899 180.559 299.004 189.372 282.674M150.005 325.743C157.038 317.027 167.671 306.717 189.372 282.674M161.672 324.956C169.513 311.498 177.043 305.615 199.674 283.382M161.672 324.956C177.456 308.016 191.834 292.197 199.674 283.382M171.995 325.665C185.628 312.974 196.592 299.103 209.997 284.091M171.995 325.665C181.428 312.738 193.799 301.385 209.997 284.091M182.318 326.373C195.185 312.325 201.867 303.274 221.664 283.323M182.318 326.373C196.654 309.905 214.134 292.866 221.664 283.323M193.985 325.606C202.922 319.29 214.775 305.556 231.987 284.031M193.985 325.606C206.79 311.439 216.989 299.575 231.987 284.031M204.308 326.314C213.741 321.336 216.285 312.777 240.944 286.215M204.308 326.314C216.596 313.072 228.718 297.371 240.944 286.215M215.975 325.547C224.56 312.305 230.704 309.708 247.191 291.39M215.975 325.547C226.07 314.843 235.276 304.887 247.191 291.39M226.298 326.255C232.649 320.805 241.709 312.148 246.653 303.963M226.298 326.255C231.325 322.103 237.593 313.702 246.653 303.963" stroke="#CED4DA" stroke-width="0.5" stroke-linecap="round"/>
<path d="M43.8613 280.628C80.3114 281.828 121.064 280.923 230.849 280.628M43.8613 280.628C111.838 280.077 178.16 282.989 230.849 280.628M230.849 280.628C236.352 281.867 241.358 286.983 242.33 291.548M230.849 280.628C239.206 278.621 245.061 287.101 242.33 291.548M242.33 291.548C240.882 298.001 243.985 302.999 242.33 313.368M242.33 291.548C241.813 300.46 242.413 308.901 242.33 313.368M242.33 313.368C242.661 318.818 241.296 324.445 230.849 324.287M242.33 313.368C246.902 321.198 235.545 319.978 230.849 324.287M230.849 324.287C194.813 323.796 156.956 323.855 43.8613 324.287M230.849 324.287C181.263 326.334 129.732 323.618 43.8613 324.287M43.8613 324.287C38.6276 326.57 32.4008 324.484 32.3802 313.368M43.8613 324.287C36.7864 324.11 35.6073 323.107 32.3802 313.368M32.3802 313.368C30.4977 306.973 30.3322 297.411 32.3802 291.548M32.3802 313.368C33.3111 307.091 32.0492 302.644 32.3802 291.548M32.3802 291.548C33.9317 284.071 33.5179 278.837 43.8613 280.628M32.3802 291.548C34.2006 287.652 33.0215 282.812 43.8613 280.628" stroke="black" stroke-linecap="round"/>
<path d="M49.5198 120.012C48.2665 120.012 47.0398 119.905 45.8398 119.692C44.6398 119.479 43.5198 119.172 42.4798 118.772C41.4665 118.372 40.5465 117.865 39.7198 117.252C39.3998 117.012 39.1731 116.745 39.0398 116.452C38.9331 116.132 38.9065 115.825 38.9598 115.532C39.0398 115.212 39.1731 114.945 39.3598 114.732C39.5731 114.519 39.8265 114.399 40.1198 114.372C40.4131 114.345 40.7331 114.439 41.0798 114.652C42.2798 115.505 43.5598 116.132 44.9198 116.532C46.2798 116.905 47.8131 117.092 49.5198 117.092C51.9198 117.092 53.6931 116.652 54.8398 115.772C56.0131 114.865 56.5998 113.679 56.5998 112.212C56.5998 111.012 56.1731 110.079 55.3198 109.412C54.4931 108.719 53.0931 108.172 51.1198 107.772L46.9598 106.932C44.4531 106.399 42.5731 105.532 41.3198 104.332C40.0931 103.105 39.4798 101.479 39.4798 99.452C39.4798 98.1986 39.7331 97.0653 40.2398 96.052C40.7465 95.012 41.4531 94.132 42.3598 93.412C43.2665 92.6653 44.3465 92.092 45.5998 91.692C46.8531 91.292 48.2398 91.092 49.7598 91.092C51.4398 91.092 52.9998 91.332 54.4398 91.812C55.9065 92.2653 57.2265 92.9586 58.3998 93.892C58.6931 94.132 58.8931 94.412 58.9998 94.732C59.1065 95.0253 59.1198 95.3186 59.0398 95.612C58.9598 95.8786 58.8131 96.1053 58.5998 96.292C58.4131 96.4786 58.1598 96.5853 57.8398 96.612C57.5465 96.6386 57.2131 96.532 56.8398 96.292C55.7731 95.492 54.6665 94.9186 53.5198 94.572C52.3731 94.1986 51.1065 94.012 49.7198 94.012C48.3065 94.012 47.0798 94.2253 46.0398 94.652C45.0265 95.0786 44.2265 95.7053 43.6398 96.532C43.0798 97.332 42.7998 98.2653 42.7998 99.332C42.7998 100.612 43.1865 101.625 43.9598 102.372C44.7598 103.119 46.0531 103.665 47.8398 104.012L51.9998 104.892C54.6931 105.452 56.6798 106.305 57.9598 107.452C59.2665 108.572 59.9198 110.105 59.9198 112.052C59.9198 113.225 59.6798 114.305 59.1998 115.292C58.7198 116.279 58.0265 117.132 57.1198 117.852C56.2131 118.545 55.1198 119.079 53.8398 119.452C52.5598 119.825 51.1198 120.012 49.5198 120.012ZM66.1692 119.852C65.6358 119.852 65.2358 119.705 64.9692 119.412C64.7025 119.092 64.5692 118.652 64.5692 118.092V101.732C64.5692 101.172 64.7025 100.745 64.9692 100.452C65.2358 100.159 65.6358 100.012 66.1692 100.012C66.6758 100.012 67.0758 100.159 67.3692 100.452C67.6625 100.745 67.8092 101.172 67.8092 101.732V118.092C67.8092 118.652 67.6625 119.092 67.3692 119.412C67.1025 119.705 66.7025 119.852 66.1692 119.852ZM66.1692 95.532C65.5025 95.532 64.9825 95.3586 64.6092 95.012C64.2358 94.6386 64.0492 94.1453 64.0492 93.532C64.0492 92.892 64.2358 92.412 64.6092 92.092C64.9825 91.7453 65.5025 91.572 66.1692 91.572C66.8625 91.572 67.3825 91.7453 67.7292 92.092C68.1025 92.412 68.2892 92.892 68.2892 93.532C68.2892 94.1453 68.1025 94.6386 67.7292 95.012C67.3825 95.3586 66.8625 95.532 66.1692 95.532ZM82.4661 127.212C81.0527 127.212 79.6661 127.039 78.3061 126.692C76.9727 126.372 75.7594 125.852 74.666 125.132C74.346 124.945 74.1327 124.719 74.0261 124.452C73.9461 124.185 73.9327 123.919 73.986 123.652C74.0394 123.412 74.1594 123.185 74.3461 122.972C74.5327 122.785 74.7461 122.665 74.986 122.612C75.2527 122.559 75.5194 122.599 75.7861 122.732C76.9594 123.452 78.0794 123.945 79.146 124.212C80.2127 124.479 81.2661 124.612 82.306 124.612C84.1994 124.612 85.6261 124.105 86.5861 123.092C87.5727 122.079 88.0661 120.612 88.0661 118.692V114.172H88.4661C88.0661 115.719 87.2127 116.945 85.906 117.852C84.6261 118.759 83.1194 119.212 81.386 119.212C79.5994 119.212 78.0527 118.812 76.746 118.012C75.4394 117.185 74.4261 116.039 73.706 114.572C73.0127 113.105 72.666 111.412 72.666 109.492C72.666 108.052 72.866 106.745 73.266 105.572C73.666 104.372 74.2394 103.359 74.986 102.532C75.7594 101.679 76.6794 101.025 77.7461 100.572C78.8394 100.092 80.0527 99.852 81.386 99.852C83.1461 99.852 84.6661 100.305 85.9461 101.212C87.2261 102.092 88.0527 103.292 88.4261 104.812L88.0261 105.292V101.572C88.0261 101.039 88.1594 100.639 88.4261 100.372C88.7194 100.079 89.1194 99.932 89.6261 99.932C90.1594 99.932 90.5594 100.079 90.826 100.372C91.0927 100.639 91.2261 101.039 91.2261 101.572V118.252C91.2261 121.212 90.4794 123.439 88.9861 124.932C87.5194 126.452 85.3461 127.212 82.4661 127.212ZM81.9861 116.572C83.2394 116.572 84.3194 116.292 85.2261 115.732C86.1327 115.145 86.8261 114.319 87.3061 113.252C87.8127 112.185 88.0661 110.932 88.0661 109.492C88.0661 107.332 87.5194 105.625 86.4261 104.372C85.3327 103.092 83.8527 102.452 81.9861 102.452C80.7594 102.452 79.6927 102.745 78.7861 103.332C77.8794 103.892 77.1727 104.705 76.6661 105.772C76.1861 106.812 75.9461 108.052 75.9461 109.492C75.9461 111.652 76.4927 113.372 77.5861 114.652C78.6794 115.932 80.1461 116.572 81.9861 116.572ZM98.9035 119.932C98.3702 119.932 97.9702 119.785 97.7035 119.492C97.4369 119.199 97.3036 118.785 97.3036 118.252V101.572C97.3036 101.039 97.4369 100.639 97.7035 100.372C97.9702 100.079 98.3569 99.932 98.8635 99.932C99.3702 99.932 99.7569 100.079 100.024 100.372C100.317 100.639 100.464 101.039 100.464 101.572V105.012L100.024 104.532C100.584 102.985 101.49 101.825 102.744 101.052C104.024 100.252 105.49 99.852 107.144 99.852C108.69 99.852 109.97 100.132 110.984 100.692C112.024 101.252 112.797 102.105 113.304 103.252C113.81 104.372 114.064 105.799 114.064 107.532V118.252C114.064 118.785 113.917 119.199 113.624 119.492C113.357 119.785 112.97 119.932 112.464 119.932C111.93 119.932 111.517 119.785 111.224 119.492C110.957 119.199 110.824 118.785 110.824 118.252V107.732C110.824 105.919 110.464 104.599 109.744 103.772C109.05 102.919 107.93 102.492 106.384 102.492C104.597 102.492 103.17 103.052 102.104 104.172C101.064 105.265 100.544 106.732 100.544 108.572V118.252C100.544 119.372 99.9969 119.932 98.9035 119.932ZM141.91 120.012C140.044 120.012 138.404 119.772 136.99 119.292C135.604 118.785 134.43 118.052 133.47 117.092C132.51 116.105 131.79 114.892 131.31 113.452C130.83 112.012 130.59 110.359 130.59 108.492V92.852C130.59 92.292 130.724 91.8786 130.99 91.612C131.284 91.3186 131.697 91.172 132.23 91.172C132.764 91.172 133.164 91.3186 133.43 91.612C133.724 91.8786 133.87 92.292 133.87 92.852V108.332C133.87 111.265 134.55 113.465 135.91 114.932C137.27 116.372 139.27 117.092 141.91 117.092C144.55 117.092 146.537 116.372 147.87 114.932C149.204 113.465 149.87 111.265 149.87 108.332V92.852C149.87 92.292 150.017 91.8786 150.31 91.612C150.604 91.3186 151.017 91.172 151.55 91.172C152.057 91.172 152.444 91.3186 152.71 91.612C153.004 91.8786 153.15 92.292 153.15 92.852V108.492C153.15 110.972 152.724 113.079 151.87 114.812C151.044 116.545 149.79 117.852 148.11 118.732C146.43 119.585 144.364 120.012 141.91 120.012ZM161.052 127.132C160.519 127.132 160.119 126.985 159.852 126.692C159.585 126.425 159.452 126.025 159.452 125.492V101.572C159.452 101.039 159.585 100.639 159.852 100.372C160.119 100.079 160.505 99.932 161.012 99.932C161.545 99.932 161.945 100.079 162.212 100.372C162.505 100.639 162.652 101.039 162.652 101.572V105.372L162.212 104.812C162.639 103.292 163.479 102.092 164.732 101.212C166.012 100.305 167.532 99.852 169.292 99.852C171.025 99.852 172.532 100.265 173.812 101.092C175.119 101.892 176.119 103.052 176.812 104.572C177.532 106.065 177.892 107.852 177.892 109.932C177.892 111.985 177.532 113.772 176.812 115.292C176.119 116.785 175.132 117.945 173.852 118.772C172.572 119.599 171.052 120.012 169.292 120.012C167.532 120.012 166.025 119.572 164.772 118.692C163.519 117.785 162.665 116.585 162.212 115.092H162.692V125.492C162.692 126.025 162.545 126.425 162.252 126.692C161.959 126.985 161.559 127.132 161.052 127.132ZM168.612 117.412C169.839 117.412 170.892 117.119 171.772 116.532C172.679 115.945 173.372 115.092 173.852 113.972C174.359 112.852 174.612 111.505 174.612 109.932C174.612 107.505 174.065 105.652 172.972 104.372C171.905 103.092 170.452 102.452 168.612 102.452C167.412 102.452 166.359 102.745 165.452 103.332C164.545 103.892 163.839 104.732 163.332 105.852C162.852 106.945 162.612 108.305 162.612 109.932C162.612 112.332 163.159 114.185 164.252 115.492C165.345 116.772 166.799 117.412 168.612 117.412Z" fill="black"/>
<path d="M89.8904 392.42C89.1071 392.42 88.3404 392.354 87.5904 392.22C86.8404 392.087 86.1404 391.895 85.4904 391.645C84.8571 391.395 84.2821 391.079 83.7654 390.695C83.5654 390.545 83.4238 390.379 83.3404 390.195C83.2738 389.995 83.2571 389.804 83.2904 389.62C83.3404 389.42 83.4238 389.254 83.5404 389.12C83.6738 388.987 83.8321 388.912 84.0154 388.895C84.1988 388.879 84.3988 388.937 84.6154 389.07C85.3654 389.604 86.1654 389.995 87.0154 390.245C87.8654 390.479 88.8238 390.595 89.8904 390.595C91.3904 390.595 92.4988 390.32 93.2154 389.77C93.9488 389.204 94.3154 388.462 94.3154 387.545C94.3154 386.795 94.0488 386.212 93.5154 385.795C92.9988 385.362 92.1238 385.02 90.8904 384.77L88.2904 384.245C86.7238 383.912 85.5488 383.37 84.7654 382.62C83.9988 381.854 83.6154 380.837 83.6154 379.57C83.6154 378.787 83.7738 378.079 84.0904 377.445C84.4071 376.795 84.8488 376.245 85.4154 375.795C85.9821 375.329 86.6571 374.97 87.4404 374.72C88.2238 374.47 89.0904 374.345 90.0404 374.345C91.0904 374.345 92.0654 374.495 92.9654 374.795C93.8821 375.079 94.7071 375.512 95.4404 376.095C95.6238 376.245 95.7488 376.42 95.8154 376.62C95.8821 376.804 95.8904 376.987 95.8404 377.17C95.7904 377.337 95.6988 377.479 95.5654 377.595C95.4488 377.712 95.2904 377.779 95.0904 377.795C94.9071 377.812 94.6988 377.745 94.4654 377.595C93.7988 377.095 93.1071 376.737 92.3904 376.52C91.6738 376.287 90.8821 376.17 90.0154 376.17C89.1321 376.17 88.3654 376.304 87.7154 376.57C87.0821 376.837 86.5821 377.229 86.2154 377.745C85.8654 378.245 85.6904 378.829 85.6904 379.495C85.6904 380.295 85.9321 380.929 86.4154 381.395C86.9154 381.862 87.7238 382.204 88.8404 382.42L91.4404 382.97C93.1238 383.32 94.3654 383.854 95.1654 384.57C95.9821 385.27 96.3904 386.229 96.3904 387.445C96.3904 388.179 96.2404 388.854 95.9404 389.47C95.6404 390.087 95.2071 390.62 94.6404 391.07C94.0738 391.504 93.3904 391.837 92.5904 392.07C91.7904 392.304 90.8904 392.42 89.8904 392.42ZM100.296 392.32C99.963 392.32 99.713 392.229 99.5463 392.045C99.3796 391.845 99.2963 391.57 99.2963 391.22V380.995C99.2963 380.645 99.3796 380.379 99.5463 380.195C99.713 380.012 99.963 379.92 100.296 379.92C100.613 379.92 100.863 380.012 101.046 380.195C101.23 380.379 101.321 380.645 101.321 380.995V391.22C101.321 391.57 101.23 391.845 101.046 392.045C100.88 392.229 100.63 392.32 100.296 392.32ZM100.296 377.12C99.8796 377.12 99.5546 377.012 99.3213 376.795C99.088 376.562 98.9713 376.254 98.9713 375.87C98.9713 375.47 99.088 375.17 99.3213 374.97C99.5546 374.754 99.8796 374.645 100.296 374.645C100.73 374.645 101.055 374.754 101.271 374.97C101.505 375.17 101.621 375.47 101.621 375.87C101.621 376.254 101.505 376.562 101.271 376.795C101.055 377.012 100.73 377.12 100.296 377.12ZM110.482 396.92C109.599 396.92 108.732 396.812 107.882 396.595C107.049 396.395 106.29 396.07 105.607 395.62C105.407 395.504 105.274 395.362 105.207 395.195C105.157 395.029 105.149 394.862 105.182 394.695C105.215 394.545 105.29 394.404 105.407 394.27C105.524 394.154 105.657 394.079 105.807 394.045C105.974 394.012 106.14 394.037 106.307 394.12C107.04 394.57 107.74 394.879 108.407 395.045C109.074 395.212 109.732 395.295 110.382 395.295C111.565 395.295 112.457 394.979 113.057 394.345C113.674 393.712 113.982 392.795 113.982 391.595V388.77H114.232C113.982 389.737 113.449 390.504 112.632 391.07C111.832 391.637 110.89 391.92 109.807 391.92C108.69 391.92 107.724 391.67 106.907 391.17C106.09 390.654 105.457 389.937 105.007 389.02C104.574 388.104 104.357 387.045 104.357 385.845C104.357 384.945 104.482 384.129 104.732 383.395C104.982 382.645 105.34 382.012 105.807 381.495C106.29 380.962 106.865 380.554 107.532 380.27C108.215 379.97 108.974 379.82 109.807 379.82C110.907 379.82 111.857 380.104 112.657 380.67C113.457 381.22 113.974 381.97 114.207 382.92L113.957 383.22V380.895C113.957 380.562 114.04 380.312 114.207 380.145C114.39 379.962 114.64 379.87 114.957 379.87C115.29 379.87 115.54 379.962 115.707 380.145C115.874 380.312 115.957 380.562 115.957 380.895V391.32C115.957 393.17 115.49 394.562 114.557 395.495C113.64 396.445 112.282 396.92 110.482 396.92ZM110.182 390.27C110.965 390.27 111.64 390.095 112.207 389.745C112.774 389.379 113.207 388.862 113.507 388.195C113.824 387.529 113.982 386.745 113.982 385.845C113.982 384.495 113.64 383.429 112.957 382.645C112.274 381.845 111.349 381.445 110.182 381.445C109.415 381.445 108.749 381.629 108.182 381.995C107.615 382.345 107.174 382.854 106.857 383.52C106.557 384.17 106.407 384.945 106.407 385.845C106.407 387.195 106.749 388.27 107.432 389.07C108.115 389.87 109.032 390.27 110.182 390.27ZM120.755 392.37C120.422 392.37 120.172 392.279 120.005 392.095C119.839 391.912 119.755 391.654 119.755 391.32V380.895C119.755 380.562 119.839 380.312 120.005 380.145C120.172 379.962 120.414 379.87 120.73 379.87C121.047 379.87 121.289 379.962 121.455 380.145C121.639 380.312 121.73 380.562 121.73 380.895V383.045L121.455 382.745C121.805 381.779 122.372 381.054 123.155 380.57C123.955 380.07 124.872 379.82 125.905 379.82C126.872 379.82 127.672 379.995 128.305 380.345C128.955 380.695 129.439 381.229 129.755 381.945C130.072 382.645 130.23 383.537 130.23 384.62V391.32C130.23 391.654 130.139 391.912 129.955 392.095C129.789 392.279 129.547 392.37 129.23 392.37C128.897 392.37 128.639 392.279 128.455 392.095C128.289 391.912 128.205 391.654 128.205 391.32V384.745C128.205 383.612 127.98 382.787 127.53 382.27C127.097 381.737 126.397 381.47 125.43 381.47C124.314 381.47 123.422 381.82 122.755 382.52C122.105 383.204 121.78 384.12 121.78 385.27V391.32C121.78 392.02 121.439 392.37 120.755 392.37ZM147.635 392.42C146.468 392.42 145.443 392.27 144.56 391.97C143.693 391.654 142.96 391.195 142.36 390.595C141.76 389.979 141.31 389.22 141.01 388.32C140.71 387.42 140.56 386.387 140.56 385.22V375.445C140.56 375.095 140.643 374.837 140.81 374.67C140.993 374.487 141.251 374.395 141.585 374.395C141.918 374.395 142.168 374.487 142.335 374.67C142.518 374.837 142.61 375.095 142.61 375.445V385.12C142.61 386.954 143.035 388.329 143.885 389.245C144.735 390.145 145.985 390.595 147.635 390.595C149.285 390.595 150.526 390.145 151.36 389.245C152.193 388.329 152.61 386.954 152.61 385.12V375.445C152.61 375.095 152.701 374.837 152.885 374.67C153.068 374.487 153.326 374.395 153.66 374.395C153.976 374.395 154.218 374.487 154.385 374.67C154.568 374.837 154.66 375.095 154.66 375.445V385.22C154.66 386.77 154.393 388.087 153.86 389.17C153.343 390.254 152.56 391.07 151.51 391.62C150.46 392.154 149.168 392.42 147.635 392.42ZM159.598 396.87C159.265 396.87 159.015 396.779 158.848 396.595C158.681 396.429 158.598 396.179 158.598 395.845V380.895C158.598 380.562 158.681 380.312 158.848 380.145C159.015 379.962 159.256 379.87 159.573 379.87C159.906 379.87 160.156 379.962 160.323 380.145C160.506 380.312 160.598 380.562 160.598 380.895V383.27L160.323 382.92C160.59 381.97 161.115 381.22 161.898 380.67C162.698 380.104 163.648 379.82 164.748 379.82C165.831 379.82 166.773 380.079 167.573 380.595C168.39 381.095 169.015 381.82 169.448 382.77C169.898 383.704 170.123 384.82 170.123 386.12C170.123 387.404 169.898 388.52 169.448 389.47C169.015 390.404 168.398 391.129 167.598 391.645C166.798 392.162 165.848 392.42 164.748 392.42C163.648 392.42 162.706 392.145 161.923 391.595C161.14 391.029 160.606 390.279 160.323 389.345H160.623V395.845C160.623 396.179 160.531 396.429 160.348 396.595C160.165 396.779 159.915 396.87 159.598 396.87ZM164.323 390.795C165.09 390.795 165.748 390.612 166.298 390.245C166.865 389.879 167.298 389.345 167.598 388.645C167.915 387.945 168.073 387.104 168.073 386.12C168.073 384.604 167.731 383.445 167.048 382.645C166.381 381.845 165.473 381.445 164.323 381.445C163.573 381.445 162.915 381.629 162.348 381.995C161.781 382.345 161.34 382.87 161.023 383.57C160.723 384.254 160.573 385.104 160.573 386.12C160.573 387.62 160.915 388.779 161.598 389.595C162.281 390.395 163.19 390.795 164.323 390.795Z" fill="black"/>
</svg>
