<svg width="268" height="506" viewBox="0 0 268 506" fill="none" xmlns="http://www.w3.org/2000/svg">
<path d="M22.7827 378.773C29.1128 371.296 31.8641 366.496 41.7938 357.996M22.7827 378.773C27.5199 372.752 33.3122 367.224 41.7938 357.996M22.2448 391.365C34.2224 382.177 43.759 367.893 54.8264 355.733M22.2448 391.365C30.0851 379.836 42.5592 368.384 54.8264 355.733M23.0723 402.462C32.4227 389.024 50.3581 370.372 66.4938 354.946M23.0723 402.462C35.1327 387.391 50.9787 375.428 66.4938 354.946M22.5344 415.055C34.5534 404.568 42.9729 389.024 76.8165 355.654M22.5344 415.055C38.8356 397.799 49.8823 382.688 76.8165 355.654M23.3412 426.151C47.0689 401.459 68.9348 375.704 88.4838 354.887M23.3412 426.151C35.0499 409.565 52.282 394.769 88.4838 354.887M22.8034 438.744C45.3519 415.133 65.8938 390.5 98.8065 355.595M22.8034 438.744C43.4694 414.858 66.1421 392.507 98.8065 355.595M22.2655 451.336C57.3502 413.382 94.6071 378.163 110.474 354.808M22.2655 451.336C46.1173 422.846 71.5206 393.274 110.474 354.808M25.7822 459.462C63.5976 423.023 99.9235 380.406 120.796 355.517M25.7822 459.462C44.4831 438.035 65.8111 412.772 120.796 355.517M27.9544 469.083C65.3767 424.754 100.73 387.647 132.464 354.749M27.9544 469.083C66.7834 428.788 103.275 387.115 132.464 354.749M34.2018 474.258C67.6315 445.63 94.876 412.044 142.786 355.458M34.2018 474.258C78.2645 425.955 121.521 380.623 142.786 355.458M43.1591 476.442C66.6179 449.486 95.1449 419.737 154.454 354.671M43.1591 476.442C82.3191 431.562 121.872 385.659 154.454 354.671M52.1165 478.626C100.172 427.175 142.456 381.429 164.777 355.379M52.1165 478.626C91.9798 437.327 133.064 392.231 164.777 355.379M58.3639 483.8C87.7597 455.546 110.391 422.413 176.444 354.612M58.3639 483.8C83.9534 456.589 106.171 429.162 176.444 354.612M70.0519 483.013C112.522 436.914 158.984 386.25 186.767 355.32M70.0519 483.013C105.24 446.87 134.719 414.877 186.767 355.32M80.3539 483.722C122.617 436.107 159.522 390.913 198.434 354.533M80.3539 483.722C118.852 445.02 151.992 403.21 198.434 354.533M92.0419 482.954C125.306 448.916 151.909 416.747 208.757 355.241M92.0419 482.954C137.201 433.746 182.298 382.885 208.757 355.241M102.344 483.663C131.885 449.152 157.66 421.784 219.079 355.969M102.344 483.663C129.381 456.393 154.971 428.335 219.079 355.969M114.032 482.895C148.413 447.775 180.519 403.918 228.037 358.153M114.032 482.895C149.903 444.371 187.429 401.872 228.037 358.153M124.334 483.604C160.743 441.026 203.212 400.318 238.339 358.862M124.334 483.604C152.613 452.241 179.568 420.819 238.339 358.862M136.022 482.817C160.66 459.757 187.284 425.837 244.586 364.017M136.022 482.817C176.733 435.635 216.431 390.204 244.586 364.017M146.324 483.525C182.484 447.912 208.694 415.527 250.833 369.191M146.324 483.525C169.41 457.73 188.69 435.222 250.833 369.191M158.012 482.758C188.318 456.471 206.15 424.459 251.661 380.288M158.012 482.758C183.333 453.205 208.777 424.577 251.661 380.288M168.314 483.466C183.498 459.068 204.764 441.616 252.468 391.385M168.314 483.466C188.939 457.967 212.542 431.995 252.468 391.385M180.002 482.679C205.778 448.404 239.207 421.488 251.93 403.977M180.002 482.679C205.012 452.025 235.525 426.25 251.93 403.977M190.304 483.387C214.88 457.14 239.352 434.14 252.737 415.094M190.304 483.387C209.419 460.19 229.712 439.964 252.737 415.094M201.992 482.62C218.665 471.366 229.485 449.27 252.199 427.666M201.992 482.62C212.542 469.949 226.526 458.104 252.199 427.666M216.369 478.862C226.982 467.411 235.256 454.681 253.026 438.783M216.369 478.862C223.527 468.552 230.974 459.757 253.026 438.783M230.767 475.124C237.222 465.148 247.875 460.839 253.833 449.88M230.767 475.124C239.042 465.778 244.193 460.82 253.833 449.88" stroke="#CED4DA" stroke-width="0.5" stroke-linecap="round"/>
<path d="M52.9439 352.998C100.461 350.185 145.641 357.071 216.555 352.998M52.9439 352.998C97.9169 352.014 148.289 353.628 216.555 352.998M216.555 352.998C234.677 350.578 249.799 364.823 249.509 384.341M216.555 352.998C235.049 355.182 250.792 361.223 249.509 384.341M249.509 384.341C247.772 408.463 250.461 430.145 249.509 447.007M249.509 384.341C247.565 403.21 247.027 417.337 249.509 447.007M249.509 447.007C247.234 465.168 242.579 478.252 216.555 478.331M249.509 447.007C245.972 469.004 242.31 475.635 216.555 478.331M216.555 478.331C156.233 482.148 97.6687 476.304 52.9439 478.331M216.555 478.331C163.08 475.655 108.198 477.032 52.9439 478.331M52.9439 478.331C27.1062 478.547 22.2034 470.382 19.9899 447.007M52.9439 478.331C32.6502 479.944 20.6519 471.798 19.9899 447.007M19.9899 447.007C17.8178 426.919 17.8592 403.721 19.9899 384.341M19.9899 447.007C22.1207 423.908 20.0934 401.105 19.9899 384.341M19.9899 384.341C21.9138 365.374 27.7268 352.9 52.9439 352.998M19.9899 384.341C15.3975 364.253 34.9878 352.644 52.9439 352.998" stroke="black" stroke-linecap="round"/>
<path d="M67.9184 2.41989C114.629 0.196572 167.608 1.73125 199.072 2.41989M67.9184 2.41989C118.808 1.02294 173.131 3.30528 199.072 2.41989M199.072 2.41989C238.977 2.87243 261.795 23.5119 264.629 64.7909M199.072 2.41989C242.928 -1.102 269.056 19.8326 264.629 64.7909M264.629 64.7909C269.076 195.337 263.553 335.839 264.629 439.47M264.629 64.7909C262.312 179.341 263.47 291.333 264.629 439.47M264.629 439.47C262.932 480.021 239.639 499.302 199.072 501.841M264.629 439.47C260.471 481.476 240.28 499.873 199.072 501.841M199.072 501.841C157.12 499.558 124.476 503.06 67.9184 501.841M199.072 501.841C153.831 503.08 110.016 503.08 67.9184 501.841M67.9184 501.841C20.9802 499.814 3.47923 480.945 2.34146 439.47M67.9184 501.841C25.3037 505.146 2.65176 481.575 2.34146 439.47M2.34146 439.47C4.86524 301.82 4.65837 155.278 2.34146 64.7909M2.34146 439.47C1.55536 342.076 0.85201 247.575 2.34146 64.7909M2.34146 64.7909C1.90703 23.4529 27.8275 5.48925 67.9184 2.41989M2.34146 64.7909C4.43082 19.085 26.4208 6.43367 67.9184 2.41989" stroke="black" stroke-linecap="round"/>
<path d="M20.8836 176.889C23.2418 168.134 32.7991 163.353 42.584 153.122M20.8836 176.889C28.248 169.511 32.9853 165.084 42.584 153.122M21.6903 187.986C34.0196 178.09 41.1979 171.715 55.6166 150.859M21.6903 187.986C32.9026 173.171 47.9625 160.165 55.6166 150.859M21.1525 200.579C39.7292 181.238 51.1483 168.645 67.3046 150.092M21.1525 200.579C32.7784 185.724 47.1764 173.23 67.3046 150.092M20.6146 213.171C33.1715 195.837 44.0941 183.009 77.6066 150.8M20.6146 213.171C38.6328 194.755 54.2306 176.555 77.6066 150.8M21.4214 224.268C43.8252 201.917 60.0849 183.796 89.2946 150.013M21.4214 224.268C37.5157 207.78 56.5061 186.786 89.2946 150.013M20.8836 236.86C48.9555 202.29 79.427 169.236 99.5966 150.721M20.8836 236.86C37.1226 221.317 51.6447 203.963 99.5966 150.721M21.711 247.957C38.9431 227.14 59.6091 205.714 111.285 149.954M21.711 247.957C45.6042 221.926 68.1114 198.119 111.285 149.954M21.1525 260.549C54.3961 228.695 82.3439 189.777 121.587 150.662M21.1525 260.549C59.5057 218.641 96.3902 174.824 121.587 150.662M24.6899 268.675C53.5479 242.605 76.2413 207.426 133.275 149.875M24.6899 268.675C57.768 233.24 91.3219 198.788 133.275 149.875M28.2273 276.801C65.4635 235.345 100.01 198.552 143.577 150.583M28.2273 276.801C66.7047 233.338 107.189 188.695 143.577 150.583M34.4747 281.976C65.96 250.436 92.5631 214.981 155.265 149.816M34.4747 281.976C62.4225 250.495 91.4667 220.195 155.265 149.816M43.4321 284.16C86.4399 240.5 132.985 188.773 165.567 150.524M43.4321 284.16C68.5458 254.548 95.873 226.59 165.567 150.524M52.3895 286.363C85.8606 251.282 113.312 220.903 177.255 149.757M52.3895 286.363C84.9918 248.311 122.683 208.665 177.255 149.757M59.9815 290.043C99.0588 250.633 133.73 208.587 187.557 150.465M59.9815 290.043C104.582 241.877 144.528 199.811 187.557 150.465M71.6695 289.256C94.1146 261.199 121.338 234.971 199.245 149.678M71.6695 289.256C115.96 242.054 159.63 190.308 199.245 149.678M81.9715 289.964C126.034 248.37 166.704 199.752 209.547 150.387M81.9715 289.964C113.022 257.873 143.784 222.753 209.547 150.387M93.6595 289.197C145.438 235.798 191.756 183.54 217.159 154.066M93.6595 289.197C128.537 248.901 166.56 212.266 217.159 154.066M103.962 289.905C149.348 243.845 190.887 199.359 227.482 154.774M103.962 289.905C142.191 248.882 179.034 210.18 227.482 154.774M114.284 290.613C140.039 263.284 170.076 227.573 237.784 155.483M114.284 290.613C142.997 258.582 173.304 222.871 237.784 155.483M125.952 289.826C157.913 253.82 189.708 217.952 242.666 162.133M125.952 289.826C162.753 249.649 198.169 209 242.666 162.133M136.274 290.535C167.759 253.427 196.721 222.477 248.914 167.288M136.274 290.535C166.704 254.824 200.796 222.438 248.914 167.288M147.942 289.767C172.435 258.405 201.375 235.306 251.086 176.909M147.942 289.767C177.544 260.234 206.402 227.514 251.086 176.909M158.264 290.476C176.158 267.18 197.424 242.31 250.548 189.501M158.264 290.476C194.073 250.574 229.634 212.679 250.548 189.501M169.932 289.708C191.198 267.534 216.497 240.539 251.375 200.598M169.932 289.708C187.391 269.993 204.706 252.758 251.375 200.598M180.254 290.417C199.741 267.869 224.503 240.933 250.837 213.191M180.254 290.417C199.617 270.702 216.208 253.368 250.837 213.191M191.922 289.63C210.788 263.579 232.385 241.956 250.279 225.783M191.922 289.63C212.381 269.246 229.923 247.249 250.279 225.783M202.244 290.338C217.201 277.254 226.861 258.405 251.106 236.88M202.244 290.338C217.511 274.066 230.068 259.113 251.106 236.88M215.277 288.075C223.862 276.211 237.039 262.005 249.203 250.948M215.277 288.075C223.717 279.615 231.909 266.885 249.203 250.948M229.675 284.337C231.164 282.782 238.343 276.9 244.59 268.006M229.675 284.337C232.861 279.792 236.171 277.018 244.59 268.006" stroke="#CED4DA" stroke-width="0.5" stroke-linecap="round"/>
<path d="M54.4788 148.99C95.0042 145.153 145.438 144.878 212.381 148.99M54.4788 148.99C109.754 148.616 162.277 146.963 212.381 148.99M212.381 148.99C238.922 151.213 252.037 163.372 248.19 183.048M212.381 148.99C236.708 153.161 250.382 162.212 248.19 183.048M248.19 183.048C251.355 208.37 246.39 239.398 248.19 251.184M248.19 183.048C249.534 210.18 248.272 236.329 248.19 251.184M248.19 251.184C250.796 271.272 236.129 286.777 212.381 285.242M248.19 251.184C247.341 272.886 235.343 288.115 212.381 285.242M212.381 285.242C154.996 287.839 99.9483 288.115 54.4788 285.242M212.381 285.242C161.864 283.943 114.532 284.297 54.4788 285.242M54.4788 285.242C33.999 287.544 22.0627 277.509 18.6701 251.184M54.4788 285.242C27.3792 285.183 18.9183 277.628 18.6701 251.184M18.6701 251.184C16.8703 227.436 19.4355 209.393 18.6701 183.048M18.6701 251.184C17.2427 236.152 17.1393 218.582 18.6701 183.048M18.6701 183.048C19.5182 159.496 26.5104 149.364 54.4788 148.99M18.6701 183.048C16.7255 158.434 33.4404 146.216 54.4788 148.99" stroke="black" stroke-linecap="round"/>
<path d="M36.3135 46.8301C39.9751 41.6948 43.7607 37.4842 50.7529 30.4601M32.8175 48.6599C40.9473 39.8059 46.4087 32.408 51.3114 29.3189M31.1418 67.2138C38.8994 58.9698 50.215 46.2791 57.2485 30.7356M30.4592 65.2856C38.5477 55.0937 44.0504 49.5256 58.469 32.5457M34.3069 69.8306C46.6569 59.7371 59.8757 38.7435 65.9576 33.8836M34.1828 70.3225C41.6093 63.141 50.6081 54.6412 69.0813 34.5133M43.2022 79.5699C52.5112 64.656 65.4611 48.3647 74.6461 37.012M42.0024 77.8975C53.8973 64.2821 64.6957 50.9619 76.8182 35.3199M49.1186 84.3904C60.2688 63.987 71.4603 51.3751 79.4868 41.8719M46.4293 80.4947C58.3449 67.0957 72.0602 51.139 80.8521 42.5015M56.1314 78.173C68.7917 69.0436 75.2667 67.9811 85.6514 53.6574M60.5998 81.5375C66.1645 72.5064 77.8939 61.4882 85.6928 54.2083M56.8348 80.7111C45.9122 72.4868 36.4997 62.8458 33.0243 59.8945M57.0416 80.534C50.3598 74.1395 43.2229 70.4996 33.2105 62.0982M59.7516 72.6638C53.7318 67.076 41.63 55.3692 30.9763 47.8925M63.5787 76.5596C55.2626 68.3353 46.2638 61.4489 34.2862 51.5521M67.8608 71.5424C56.8555 60.2487 42.5195 47.6958 33.2726 40.1994M70.1777 71.8375C55.0557 58.4385 41.7334 47.2236 33.2519 39.7666M78.2662 63.928C68.9986 55.4676 51.8493 44.2723 33.8932 36.3234M76.0528 66.0136C63.5166 55.5266 53.7524 45.6102 38.5891 31.5029M76.5699 55.074C65.999 48.0499 54.6006 38.1729 49.6772 28.1778M78.2869 55.7233C66.7644 48.9747 53.3387 37.1104 45.8708 30.3224M82.6932 48.3844C73.2394 45.4725 68.4607 41.7931 55.8211 26.348M81.2038 48.9156C71.7706 39.2944 62.8753 32.0145 56.3797 29.2796" stroke="#CED4DA" stroke-width="0.5" stroke-linecap="round"/>
<path d="M55.4074 28.7088C60.9101 28.6695 70.1157 29.3187 74.2944 32.7423C78.4731 36.1658 80.2108 43.4063 80.4384 49.2499C80.6659 55.0738 79.2178 62.6685 75.6184 67.7448C72.0395 72.8014 64.7164 78.035 58.9241 79.6287C53.1319 81.2421 45.6226 80.0026 40.8646 77.4054C36.086 74.8083 32.2589 69.5549 30.3557 64.0261C28.4319 58.4974 28.2664 49.427 29.4042 44.2327C30.5212 39.0384 31.8038 35.5952 37.0996 32.8406C42.3954 30.0861 56.359 28.453 61.1997 27.7447C66.0197 27.0167 66.0611 28.2169 66.0197 28.5711M41.6921 26.82C46.3673 24.7737 54.0007 26.7216 59.5241 28.6104C65.0474 30.4993 71.4189 33.2735 74.8323 38.153C78.2249 43.0128 80.8107 52.4964 79.9419 57.8481C79.073 63.1998 74.0875 66.3872 69.5778 70.3026C65.0888 74.218 58.1381 80.7109 52.9457 81.3602C47.774 82.0095 42.4368 78.4482 38.465 74.2377C34.4931 70.0468 30.5006 61.3306 29.0939 56.1757C27.6665 51.0207 27.2321 47.3808 29.9627 43.2883C32.6727 39.1958 43.3884 34.2376 45.3743 31.6404C47.3603 29.0433 41.7541 27.7644 41.8369 27.666" stroke="black" stroke-linecap="round"/>
<path d="M142.451 44.7204C146.112 42.5365 148.036 40.0967 154.656 31.3608M142.451 44.7204C145.078 41.8085 147.705 38.4046 154.656 31.3608M143.258 55.8173C149.091 47.3569 155.07 38.3653 164.979 32.0691M143.258 55.8173C147.147 50.8591 153.063 45.0156 164.979 32.0691M144.085 66.9339C153.808 60.0279 161.462 47.8095 176.646 31.2821M144.085 66.9339C155.132 55.0303 161.379 46.8454 176.646 31.2821M146.257 76.5552C158.524 63.4711 173.522 49.3048 186.969 31.9904M146.257 76.5552C163.22 57.2733 177.639 41.8478 186.969 31.9904M152.505 81.7102C169.137 63.8056 181.797 49.3638 198.636 31.2231M152.505 81.7102C168.102 62.8415 189.72 41.2182 198.636 31.2231M162.807 82.4185C180.37 66.8749 192.099 56.8995 208.959 31.9314M162.807 82.4185C178.715 65.8124 192.616 46.4519 208.959 31.9314M174.495 81.6315C185.169 65.3599 197.788 57.0766 220.626 31.1444M174.495 81.6315C193.899 61.72 209.083 41.3363 220.626 31.1444M184.797 82.3595C196.588 72.6792 209.807 54.4991 232.314 30.3771M184.797 82.3595C196.423 71.2232 208.276 55.5812 232.314 30.3771M195.119 83.0678C209.869 69.4721 213.924 56.3486 237.196 37.0273M195.119 83.0678C208.855 68.8621 218.475 56.7618 237.196 37.0273M206.787 82.2808C218.847 70.2591 229.542 58.0407 238.003 48.1243M206.787 82.2808C216.964 71.0855 227.887 58.0603 238.003 48.1243M217.109 82.9891C224.329 76.4765 227.804 74.7844 237.465 60.7165M217.109 82.9891C225.218 73.6629 231.797 68.1145 237.465 60.7165M158.855 77.1455C154.263 74.0171 152.112 71.2429 144.809 65.537M158.855 77.1455C153.829 73.2694 151.201 69.5311 144.809 65.537M172.095 77.657C163.138 71.3216 152.443 60.2443 145.554 55.719M172.095 77.657C163.841 71.4593 152.505 63.5498 145.554 55.719M185.334 78.1686C172.798 69.3934 151.801 50.1508 140.051 40.746M185.334 78.1686C168.64 62.5463 151.594 48.6555 140.051 40.746M198.574 78.6802C174.495 63.5498 154.697 43.4415 142.368 32.2265M198.574 78.6802C176.584 62.6841 158.586 46.3141 142.368 32.2265M210.241 77.9128C191.168 63.235 176.977 50.7804 147.788 26.2846M210.241 77.9128C192.595 63.353 171.247 46.1174 147.788 26.2846M223.481 78.4244C201.801 62.3299 178.922 35.7288 157.904 24.2187M223.481 78.4244C207.159 64.0613 190.03 50.8198 157.904 24.2187M230.473 73.781C216.22 64.5729 199.36 47.8291 169.571 23.4316M230.473 73.781C218.185 63.4908 201.098 50.3476 169.571 23.4316M239.017 70.4165C225.301 56.1321 208.814 46.2945 182.811 23.9432M239.017 70.4165C222.24 57.5094 207.407 41.9855 182.811 23.9432M238.21 59.3196C226.625 49.0097 217.461 41.6314 196.05 24.4548M238.21 59.3196C229.687 50.564 216.633 41.2772 196.05 24.4548M238.954 49.5015C235.789 47.1208 224.35 40.0377 207.717 23.6874M238.954 49.5015C230.866 44.2285 222.488 39.1129 207.717 23.6874M238.127 38.4046C232.666 34.4105 230.266 31.4986 220.957 24.199M238.127 38.4046C232.686 33.8006 226.729 27.7406 220.957 24.199" stroke="#CED4DA" stroke-width="0.5" stroke-linecap="round"/>
<path d="M152.463 29.2949C167.234 28.7243 186.265 29.6491 225.281 29.2949M152.463 29.2949C168.351 28.685 180.783 29.413 225.281 29.2949M225.281 29.2949C230.535 31.5182 237.362 31.6363 238.168 41.5724M225.281 29.2949C238.541 31.0264 234.052 32.6988 238.168 41.5724M238.168 41.5724C240.382 50.1115 238.086 60.264 238.168 66.1076M238.168 41.5724C238.83 49.5409 239.161 58.2768 238.168 66.1076M238.168 66.1076C241.768 74.7648 230.638 74.9418 225.281 78.3654M238.168 66.1076C237.217 78.0702 230.659 81.9069 225.281 78.3654M225.281 78.3654C196.05 77.4603 171.578 76.6143 152.463 78.3654M225.281 78.3654C208.111 77.4406 191.768 77.4603 152.463 78.3654M152.463 78.3654C139.762 77.7554 139.782 72.1676 139.555 66.1076M152.463 78.3654C145.492 76.752 138.148 78.0506 139.555 66.1076M139.555 66.1076C141.148 57.9029 138.893 49.3441 139.555 41.5724M139.555 66.1076C138.872 57.352 140.279 48.9113 139.555 41.5724M139.555 41.5724C141.251 33.0136 146.464 29.2359 152.463 29.2949M139.555 41.5724C136.721 31.3018 146.112 29.8655 152.463 29.2949" stroke="black" stroke-linecap="round"/>
<path d="M24.567 427.481L254.293 427.501L262.009 433.443L267.16 493.453L256.093 496.562L241.84 501.225L17.6163 496.66L11.1827 487.157L8.49341 444.619L11.7826 431.318L22.4156 421.244" fill="#CED4DA"/>
<path d="M26.3667 423.763C106.156 420.556 185.655 422.779 244.695 423.763M26.3667 423.763C74.1324 423.035 123.222 424.491 244.695 423.763M244.695 423.763C256.052 422.071 264.926 431.613 264.968 443.064M244.695 423.763C255.721 420.733 263.002 434.309 264.968 443.064M264.968 443.064C262.858 455.991 269.167 471.535 264.968 481.648M264.968 443.064C265.216 458.411 265.133 475.273 264.968 481.648M264.968 481.648C265.237 494.948 261.368 500.477 244.695 500.93M264.968 481.648C269.705 496.759 262.196 502.956 244.695 500.93M244.695 500.93C193.04 505.514 135.179 504.156 26.3667 500.93M244.695 500.93C191.157 502.602 134.91 499.257 26.3667 500.93M26.3667 500.93C14.7615 504.412 3.69406 494.181 6.07303 481.648M26.3667 500.93C13.0445 496.719 10.7896 493.099 6.07303 481.648M6.07303 481.648C9.34154 464.648 6.83844 454.673 6.07303 443.064M6.07303 481.648C6.03166 473.03 6.05235 461.599 6.07303 443.064M6.07303 443.064C6.52814 430.629 16.3543 423.684 26.3667 423.763M6.07303 443.064C10.7896 433.719 12.7755 421.638 26.3667 423.763" stroke="black" stroke-linecap="round"/>
<path d="M99.5512 459.695C112.749 451.53 120.693 445.41 125.389 439.429M98.1859 461.407C103.627 456.803 110.412 450.998 122.058 436.458M109.729 471.225C113.763 457.078 120.238 447.575 129.071 435.848M104.309 467.231C114.197 458.809 120.983 452.73 132.505 437.796M107.061 480.885C110.453 468.706 123.982 455.897 145.497 442.518M104.392 483.305C112.811 473.212 121.769 463.335 142.249 440.315M112.563 485.371C125.058 468.136 140.035 457.098 153.42 441.889M110.557 487.142C125.472 469.454 139.022 456.822 150.379 445.666M114.777 487.988C130.643 474.333 141.711 465.853 155.24 454.835M117.714 489.169C127.623 478.819 137.718 468.195 155.447 450.329M119.886 497.885C135.381 489.464 139.353 480.984 158.943 453.182M125.182 498.18C135.05 484.269 149.944 467.998 162.398 457.629M139.932 496.508C150.254 484.978 153.254 474.747 158.839 470.044M138.07 493.399C144.11 487.417 150.42 480.118 159.708 467.585M126.63 490.211C118.5 484.073 113.018 479.862 102.53 468.529M125.927 489.208C116.742 484.25 110.164 477.186 99.696 469.139M138.277 487.063C126.775 481.377 119.245 476.891 105.447 459.99M136.622 487.654C124.458 479.252 114.011 470.516 101.785 458.77M147.689 486.021C132.174 472.464 123.031 464.574 109.088 455.543M147.255 488.086C135.856 478.819 123.817 470.693 104.682 453.064M154.868 482.302C144.607 475.415 129.382 465.853 108.426 446.217M155.157 480.295C141.401 471.067 129.816 459.715 105.84 444.505M158.571 471.146C144.648 460.954 125.741 453.399 114.921 434.746M156.171 475.947C144.814 463.984 134.057 454.304 112.894 439.488M165.004 471.795C148 453.202 128.885 443.089 123.796 430.851M162.046 466.876C145.952 454.697 129.568 441.003 119.08 435.356M158.405 453.379C150.585 448.854 138.339 441.161 125.844 427.703M163.432 458.495C148.662 445.902 135.484 436.104 128.14 429.788" stroke="#CED4DA" stroke-width="0.5" stroke-linecap="round"/>
<path d="M121.955 434.077C127.396 432.503 136.684 435.022 142.476 438.131C148.269 441.239 154.102 446.847 156.709 452.769C159.295 458.691 160.184 467.211 158.033 473.664C155.881 480.118 149.675 487.929 143.78 491.53C137.904 495.111 129.485 496.842 122.679 495.209C115.873 493.576 106.771 487.024 102.944 481.692C99.1168 476.38 99.2616 469.533 99.7167 463.276C100.151 457.019 101.351 449.011 105.633 444.151C109.936 439.291 121.438 435.966 125.513 434.077C129.588 432.169 129.919 432.444 130.106 432.759M117.507 434.136C123.113 431.893 130.085 432.956 136.312 435.002C142.518 437.029 151.578 441.023 154.826 446.375C158.074 451.726 156.44 460.167 155.799 467.112C155.178 474.078 155.24 483.305 151.041 488.106C146.82 492.907 137.718 495.976 130.561 495.898C123.403 495.799 112.791 491.628 108.054 487.555C103.316 483.482 102.613 478.19 102.116 471.48C101.62 464.751 102.799 453.123 105.033 447.28C107.288 441.456 113.556 438.229 115.604 436.498C117.652 434.766 116.514 436.557 117.342 436.93" stroke="black" stroke-linecap="round"/>
<path d="M180.85 470.313C189.58 461.892 200.585 454.474 213.804 435.29M182.753 465.59C192.538 457.976 200.999 446.486 210.515 438.596M191.255 474.681C198.661 458.763 210.949 443.436 217.858 438.675M187.056 475.605C199.364 461.518 214.156 448.119 219.927 438.497M191.504 477.592C201.681 468.345 211.156 459.865 234.449 437.179M194.069 481.232C205.115 468.798 216.348 456.225 232.132 441.095M195.682 488.925C207.908 474.189 226.63 461.616 233.249 449.378M197.544 488.906C208.715 473.618 225.244 460.849 237.221 447.607M202.178 491.837C215.873 475.959 234.987 464.626 246.117 451.09M203.419 490.893C212.294 482.157 220.817 476.176 241.379 449.712M213.411 500.554C221.789 488.04 230.167 476.687 243.841 460.101M213.7 495.773C227.312 482.787 238.4 468.798 248.516 460.219M221.789 503.682C226.754 491.09 233.022 485.463 245.103 475.094M218.707 500.573C227.043 492.565 234.056 484.833 242.683 475.861M216.659 490.873C206.729 484.656 199.551 482.61 184.098 468.975M215.335 492.605C205.55 484.518 192.993 471.316 184.884 466.594M222.741 488.375C212.128 479.422 202.633 472.713 188.028 459.649M223.361 488.493C210.37 477.16 196.51 465.807 186.746 459.708M233.911 486.368C219.327 481.272 211.425 471.65 193.241 449.004M236.104 487.214C221.603 473.854 207.784 462.324 190.635 449.28M240.138 482.944C231.222 469.762 219.41 463.918 197.627 441.626M238.007 480.741C228.036 472.674 215.79 462.738 195.827 444.007M239.869 475.684C230.105 461.419 222.347 454.257 197.441 438.025M244.917 473.795C229.009 463.643 215.624 449.712 202.426 439.717M247.544 464.154C229.691 451.542 221.313 449.358 205.219 437.041M242.393 463.288C230.167 452.133 216.762 441.095 209.956 434.189M238.897 450.873C237.138 446.053 233.477 442.826 220.465 436.609M242.393 451.444C234.139 445.758 227.829 440.249 221.892 433.913" stroke="#CED4DA" stroke-width="0.5" stroke-linecap="round"/>
<path d="M226.961 436.746C232.401 439.225 239.104 446.23 241.607 452.624C244.11 459.019 243.82 468.601 242 475.113C240.179 481.626 235.442 488.139 230.664 491.739C225.906 495.32 219.265 497.602 213.39 496.658C207.494 495.714 200.295 490.401 195.31 486.033C190.345 481.665 184.47 476.628 183.56 470.411C182.65 464.194 186.042 454.612 189.89 448.709C193.738 442.806 200.047 436.609 206.688 434.936C213.349 433.284 225.947 437.809 229.795 438.753C233.622 439.678 230.146 440.268 229.712 440.563M203.543 435.763C209.646 433.579 219.617 436.412 225.575 438.694C231.532 440.996 236.435 443.475 239.269 449.496C242.103 455.497 243.365 467.834 242.6 474.779C241.834 481.705 239.207 487.784 234.656 491.11C230.105 494.435 222.017 494.651 215.293 494.749C208.591 494.848 199.199 495.241 194.379 491.66C189.559 488.099 187.635 480.524 186.373 473.343C185.091 466.141 183.477 454.533 186.746 448.473C190.014 442.413 202.799 438.419 206.026 436.963C209.253 435.527 206.026 439.225 206.088 439.776" stroke="black" stroke-linecap="round"/>
<path d="M28.2258 463.866C33.1906 460.915 39.0036 453.969 43.9271 441.947M24.0678 464.535C32.4046 457.196 37.2659 450.172 46.8439 442.42M28.4327 471.126C34.618 461.367 41.424 451.569 56.546 444.643M29.405 472.287C37.8245 464.791 46.9887 452.12 56.3391 441.456M26.6743 480.511C38.6726 469.139 51.5398 465.46 64.5518 442.144M30.5014 483.482C39.7277 472.976 48.8505 462.567 68.6684 443.699M35.1145 487.102C45.7061 480.747 58.594 465.951 76.6328 449.129M35.0938 489.168C48.2299 476.911 64.0139 460.462 74.7503 448.696M40.5758 493.497C50.2986 487.102 64.7379 474.864 79.2394 449.188M39.5829 494.796C47.1542 487.26 57.6631 478.052 77.7913 451.765M51.9122 501.151C60.9316 487.398 71.1715 469.906 83.9146 465.755M46.8853 501.17C55.7392 490.92 63.5795 485.548 84.018 461.485M59.5249 504.968C58.3457 498.081 65.8343 491.726 82.5079 472.779M55.6771 504.496C60.8075 498.298 66.2894 489.916 83.4594 474.471M50.34 494.441C40.7827 486.945 35.28 479.429 25.9296 476.635M51.9535 497.432C45.4993 490.054 34.1836 481.593 23.6747 473.861M59.5042 492.454C51.7467 487.614 46.4302 477.776 29.0947 469.454M59.649 492.435C53.4016 486.748 46.7818 479.626 29.1567 465.223M69.6821 487.299C58.0354 477.147 41.5895 466.306 27.6259 457.294M70.5716 491.766C59.6904 484.643 50.5261 475.081 27.8948 455.248M79.1359 488.224C61.4281 476.852 51.788 466.345 28.1845 443.954M76.819 484.623C63.0416 471.5 48.1058 463.531 30.7082 446.355M82.963 477.088C69.5993 473.9 63.9725 459.144 36.2937 442.971M80.977 477.737C68.8132 467.112 52.3259 456.35 38.0727 441.711M85.011 467.545C65.2137 457.373 56.8149 442.715 47.1335 439.37M84.1007 469.926C69.5166 457.373 54.8704 448.657 44.1339 435.474M81.5976 458.396C71.5232 451.647 63.1037 442.184 59.8972 439.095M82.363 457.825C74.5021 452.513 67.2617 446.453 56.3805 436.733" stroke="#868E96" stroke-width="0.5" stroke-linecap="round"/>
<path d="M63.2485 439.527C69.2684 441.456 75.9916 446.847 79.3014 452.474C82.6113 458.101 84.5145 466.581 83.1078 473.29C81.7011 480 76.3019 488.44 70.8199 492.71C65.3379 496.96 57.1252 499.714 50.2159 498.849C43.3065 498.003 33.7285 492.356 29.3223 487.575C24.916 482.774 24.1092 476.32 23.7989 470.103C23.4679 463.866 24.254 455.484 27.3777 450.191C30.4807 444.879 35.5076 439.823 42.4583 438.288C49.4298 436.753 64.0553 439.626 69.1236 440.964C74.1918 442.302 73.3643 445.883 72.9092 446.335M38.2382 439.468C43.7202 436.497 54.9945 434.628 61.0557 436.104C67.1169 437.599 70.6544 442.538 74.6262 448.362C78.5981 454.186 84.8248 464.161 84.8455 471.106C84.8869 478.052 80.0462 485.745 74.771 490.074C69.4752 494.402 59.256 496.547 53.1741 497.098C47.0922 497.649 42.6859 497.432 38.2382 493.379C33.7906 489.326 28.9292 479.134 26.4882 472.759C24.0264 466.384 21.3785 460.521 23.5506 455.091C25.7228 449.66 36.3971 442.675 39.5001 440.196C42.5825 437.737 41.817 439.547 42.086 440.255" stroke="black" stroke-linecap="round"/>
<path d="M47.2117 127.984V106.166H60.2941V108.509H49.8538V115.882H59.314V118.225H49.8538V127.984H47.2117ZM64.4782 127.984V111.62H66.9924V127.984H64.4782ZM65.7566 108.893C65.2666 108.893 64.844 108.726 64.4889 108.392C64.1409 108.058 63.9669 107.657 63.9669 107.188C63.9669 106.72 64.1409 106.318 64.4889 105.985C64.844 105.651 65.2666 105.484 65.7566 105.484C66.2467 105.484 66.6657 105.651 67.0137 105.985C67.3688 106.318 67.5464 106.72 67.5464 107.188C67.5464 107.657 67.3688 108.058 67.0137 108.392C66.6657 108.726 66.2467 108.893 65.7566 108.893ZM74.1116 106.166V127.984H71.5974V106.166H74.1116ZM81.2307 106.166V127.984H78.7165V106.166H81.2307ZM85.8356 127.984V111.62H88.3498V127.984H85.8356ZM87.1141 108.893C86.624 108.893 86.2014 108.726 85.8463 108.392C85.4983 108.058 85.3243 107.657 85.3243 107.188C85.3243 106.72 85.4983 106.318 85.8463 105.985C86.2014 105.651 86.624 105.484 87.1141 105.484C87.6041 105.484 88.0231 105.651 88.3712 105.985C88.7263 106.318 88.9038 106.72 88.9038 107.188C88.9038 107.657 88.7263 108.058 88.3712 108.392C88.0231 108.726 87.6041 108.893 87.1141 108.893ZM95.469 118.14V127.984H92.9548V111.62H95.3838V114.177H95.5968C95.9804 113.346 96.5627 112.678 97.344 112.174C98.1252 111.663 99.1338 111.407 100.37 111.407C101.478 111.407 102.447 111.634 103.278 112.089C104.109 112.536 104.755 113.218 105.217 114.134C105.679 115.044 105.909 116.194 105.909 117.586V127.984H103.395V117.757C103.395 116.471 103.061 115.47 102.394 114.752C101.726 114.028 100.81 113.666 99.6451 113.666C98.8426 113.666 98.1252 113.84 97.4931 114.188C96.8681 114.536 96.3745 115.044 96.0123 115.711C95.6501 116.379 95.469 117.188 95.469 118.14ZM117.109 134.461C115.894 134.461 114.85 134.305 113.977 133.992C113.103 133.687 112.375 133.282 111.793 132.778C111.217 132.281 110.759 131.748 110.418 131.18L112.421 129.774C112.648 130.072 112.936 130.413 113.284 130.796C113.632 131.187 114.108 131.524 114.712 131.808C115.323 132.1 116.122 132.245 117.109 132.245C118.43 132.245 119.52 131.926 120.379 131.286C121.239 130.647 121.668 129.646 121.668 128.282V124.958H121.455C121.271 125.257 121.008 125.626 120.667 126.066C120.333 126.5 119.85 126.887 119.218 127.227C118.593 127.561 117.748 127.728 116.683 127.728C115.362 127.728 114.175 127.416 113.124 126.791C112.08 126.166 111.253 125.257 110.642 124.063C110.038 122.87 109.737 121.421 109.737 119.717C109.737 118.041 110.031 116.581 110.621 115.338C111.21 114.088 112.031 113.122 113.082 112.441C114.133 111.752 115.347 111.407 116.725 111.407C117.791 111.407 118.636 111.585 119.261 111.94C119.893 112.288 120.376 112.686 120.71 113.133C121.05 113.573 121.313 113.936 121.498 114.22H121.754V111.62H124.183V128.453C124.183 129.859 123.863 131.002 123.224 131.883C122.592 132.771 121.739 133.421 120.667 133.833C119.602 134.252 118.416 134.461 117.109 134.461ZM117.023 125.47C118.032 125.47 118.884 125.239 119.58 124.777C120.276 124.316 120.805 123.652 121.168 122.785C121.53 121.919 121.711 120.882 121.711 119.674C121.711 118.495 121.533 117.455 121.178 116.553C120.823 115.651 120.298 114.944 119.602 114.433C118.906 113.921 118.046 113.666 117.023 113.666C115.958 113.666 115.07 113.936 114.36 114.475C113.657 115.015 113.128 115.74 112.773 116.649C112.425 117.558 112.251 118.566 112.251 119.674C112.251 120.811 112.428 121.816 112.783 122.689C113.146 123.556 113.678 124.237 114.381 124.735C115.092 125.225 115.972 125.47 117.023 125.47ZM143.87 128.325C142.336 128.325 141.015 127.963 139.907 127.238C138.799 126.514 137.947 125.516 137.35 124.245C136.754 122.973 136.455 121.521 136.455 119.887C136.455 118.225 136.761 116.759 137.372 115.487C137.989 114.209 138.849 113.211 139.95 112.494C141.058 111.769 142.35 111.407 143.827 111.407C144.978 111.407 146.015 111.62 146.938 112.046C147.862 112.473 148.618 113.069 149.207 113.836C149.797 114.603 150.163 115.498 150.305 116.521H147.791C147.599 115.775 147.173 115.115 146.512 114.539C145.859 113.957 144.978 113.666 143.87 113.666C142.89 113.666 142.031 113.921 141.292 114.433C140.56 114.937 139.989 115.651 139.577 116.574C139.172 117.49 138.97 118.566 138.97 119.802C138.97 121.066 139.168 122.167 139.566 123.105C139.971 124.042 140.539 124.77 141.271 125.289C142.009 125.807 142.876 126.066 143.87 126.066C144.523 126.066 145.117 125.953 145.649 125.725C146.182 125.498 146.633 125.171 147.002 124.745C147.372 124.319 147.634 123.808 147.791 123.211H150.305C150.163 124.177 149.811 125.047 149.25 125.821C148.696 126.588 147.961 127.199 147.045 127.654C146.136 128.101 145.077 128.325 143.87 128.325ZM156.494 118.14V127.984H153.98V106.166H156.494V114.177H156.707C157.091 113.332 157.666 112.661 158.433 112.164C159.207 111.659 160.237 111.407 161.523 111.407C162.638 111.407 163.614 111.631 164.452 112.078C165.291 112.519 165.94 113.197 166.402 114.113C166.871 115.022 167.105 116.18 167.105 117.586V127.984H164.591V117.757C164.591 116.457 164.254 115.452 163.579 114.742C162.911 114.024 161.984 113.666 160.798 113.666C159.974 113.666 159.236 113.84 158.582 114.188C157.936 114.536 157.425 115.044 157.048 115.711C156.679 116.379 156.494 117.188 156.494 118.14ZM176.52 128.367C175.483 128.367 174.542 128.172 173.697 127.781C172.852 127.384 172.181 126.812 171.683 126.066C171.186 125.313 170.938 124.404 170.938 123.339C170.938 122.402 171.122 121.642 171.492 121.059C171.861 120.47 172.355 120.008 172.973 119.674C173.59 119.34 174.272 119.092 175.018 118.928C175.771 118.758 176.527 118.623 177.287 118.524C178.281 118.396 179.088 118.3 179.706 118.236C180.331 118.165 180.785 118.048 181.069 117.884C181.36 117.721 181.506 117.437 181.506 117.032V116.947C181.506 115.896 181.218 115.079 180.643 114.497C180.075 113.914 179.212 113.623 178.054 113.623C176.854 113.623 175.913 113.886 175.231 114.411C174.549 114.937 174.07 115.498 173.793 116.095L171.406 115.242C171.833 114.248 172.401 113.474 173.111 112.92C173.828 112.359 174.61 111.968 175.455 111.748C176.307 111.521 177.145 111.407 177.969 111.407C178.495 111.407 179.098 111.471 179.78 111.599C180.469 111.72 181.133 111.972 181.772 112.355C182.419 112.739 182.955 113.318 183.381 114.092C183.807 114.866 184.02 115.903 184.02 117.203V127.984H181.506V125.768H181.378C181.208 126.123 180.924 126.503 180.526 126.908C180.128 127.313 179.599 127.657 178.938 127.941C178.278 128.225 177.472 128.367 176.52 128.367ZM176.904 126.109C177.898 126.109 178.736 125.914 179.418 125.523C180.107 125.132 180.625 124.628 180.973 124.01C181.328 123.392 181.506 122.742 181.506 122.061V119.759C181.399 119.887 181.165 120.004 180.803 120.111C180.448 120.21 180.036 120.299 179.567 120.377C179.105 120.448 178.654 120.512 178.214 120.569C177.781 120.619 177.429 120.661 177.159 120.697C176.506 120.782 175.895 120.921 175.327 121.112C174.766 121.297 174.311 121.578 173.963 121.954C173.622 122.323 173.452 122.828 173.452 123.467C173.452 124.34 173.775 125.001 174.421 125.448C175.075 125.889 175.902 126.109 176.904 126.109ZM188.609 127.984V111.62H191.038V114.092H191.209C191.507 113.282 192.047 112.625 192.828 112.121C193.609 111.617 194.49 111.365 195.47 111.365C195.655 111.365 195.885 111.368 196.162 111.375C196.439 111.382 196.649 111.393 196.791 111.407V113.964C196.706 113.943 196.51 113.911 196.205 113.868C195.907 113.818 195.591 113.794 195.257 113.794C194.461 113.794 193.751 113.96 193.126 114.294C192.508 114.621 192.018 115.076 191.656 115.658C191.301 116.233 191.123 116.89 191.123 117.629V127.984H188.609ZM207.913 111.62V113.751H199.433V111.62H207.913ZM201.905 107.7H204.419V123.296C204.419 124.007 204.522 124.539 204.728 124.894C204.941 125.242 205.211 125.477 205.537 125.598C205.871 125.711 206.223 125.768 206.592 125.768C206.869 125.768 207.096 125.754 207.274 125.725C207.451 125.69 207.593 125.661 207.7 125.64L208.211 127.899C208.041 127.963 207.803 128.027 207.498 128.09C207.192 128.161 206.805 128.197 206.336 128.197C205.626 128.197 204.93 128.044 204.248 127.739C203.574 127.433 203.012 126.968 202.565 126.343C202.125 125.718 201.905 124.93 201.905 123.978V107.7Z" fill="black"/>
<path d="M45.2649 310.497H42.6229C42.4666 309.737 42.1932 309.07 41.8025 308.494C41.419 307.919 40.9503 307.436 40.3963 307.046C39.8494 306.648 39.2422 306.35 38.5746 306.151C37.9069 305.952 37.2109 305.852 36.4865 305.852C35.1655 305.852 33.9687 306.186 32.8963 306.854C31.831 307.521 30.9822 308.505 30.3501 309.805C29.7251 311.105 29.4126 312.699 29.4126 314.588C29.4126 316.477 29.7251 318.072 30.3501 319.372C30.9822 320.671 31.831 321.655 32.8963 322.323C33.9687 322.99 35.1655 323.324 36.4865 323.324C37.2109 323.324 37.9069 323.225 38.5746 323.026C39.2422 322.827 39.8494 322.532 40.3963 322.141C40.9503 321.744 41.419 321.257 41.8025 320.682C42.1932 320.1 42.4666 319.432 42.6229 318.679H45.2649C45.066 319.794 44.7038 320.792 44.1783 321.673C43.6527 322.553 42.9993 323.303 42.218 323.921C41.4368 324.531 40.5596 324.997 39.5866 325.316C38.6207 325.636 37.5873 325.796 36.4865 325.796C34.6257 325.796 32.9709 325.341 31.522 324.432C30.0731 323.523 28.9332 322.23 28.1023 320.554C27.2713 318.878 26.8558 316.889 26.8558 314.588C26.8558 312.287 27.2713 310.298 28.1023 308.622C28.9332 306.946 30.0731 305.654 31.522 304.744C32.9709 303.835 34.6257 303.381 36.4865 303.381C37.5873 303.381 38.6207 303.541 39.5866 303.86C40.5596 304.18 41.4368 304.649 42.218 305.266C42.9993 305.877 43.6527 306.623 44.1783 307.504C44.7038 308.377 45.066 309.375 45.2649 310.497ZM51.7076 315.654V325.497H49.1933V303.679H51.7076V311.69H51.9206C52.3041 310.845 52.8794 310.174 53.6465 309.677C54.4206 309.173 55.4505 308.921 56.736 308.921C57.851 308.921 58.8276 309.144 59.6656 309.592C60.5037 310.032 61.1536 310.71 61.6152 311.627C62.084 312.536 62.3183 313.693 62.3183 315.1V325.497H59.8041V315.27C59.8041 313.97 59.4668 312.965 58.7921 312.255C58.1245 311.538 57.1976 311.179 56.0115 311.179C55.1877 311.179 54.449 311.353 53.7956 311.701C53.1493 312.049 52.638 312.557 52.2615 313.225C51.8922 313.892 51.7076 314.702 51.7076 315.654ZM71.7333 325.881C70.6964 325.881 69.7553 325.686 68.9101 325.295C68.065 324.897 67.3938 324.325 66.8967 323.58C66.3995 322.827 66.1509 321.918 66.1509 320.852C66.1509 319.915 66.3356 319.155 66.7049 318.573C67.0742 317.983 67.5678 317.521 68.1857 317.188C68.8036 316.854 69.4854 316.605 70.2312 316.442C70.984 316.271 71.7404 316.137 72.5003 316.037C73.4947 315.909 74.3008 315.813 74.9187 315.749C75.5437 315.678 75.9982 315.561 76.2823 315.398C76.5735 315.235 76.7191 314.95 76.7191 314.546V314.46C76.7191 313.409 76.4315 312.592 75.8562 312.01C75.288 311.428 74.4251 311.137 73.2674 311.137C72.0671 311.137 71.1261 311.399 70.4442 311.925C69.7624 312.45 69.283 313.012 69.006 313.608L66.6197 312.756C67.0458 311.762 67.614 310.987 68.3242 310.433C69.0415 309.872 69.8228 309.482 70.668 309.262C71.5202 309.034 72.3583 308.921 73.1822 308.921C73.7077 308.921 74.3114 308.985 74.9932 309.112C75.6822 309.233 76.3462 309.485 76.9854 309.869C77.6317 310.252 78.168 310.831 78.5941 311.605C79.0202 312.379 79.2333 313.416 79.2333 314.716V325.497H76.7191V323.281H76.5913C76.4208 323.637 76.1367 324.016 75.739 324.421C75.3413 324.826 74.8121 325.171 74.1516 325.455C73.4911 325.739 72.685 325.881 71.7333 325.881ZM72.1168 323.622C73.1111 323.622 73.9492 323.427 74.631 323.036C75.3199 322.646 75.8384 322.141 76.1864 321.524C76.5415 320.906 76.7191 320.256 76.7191 319.574V317.273C76.6126 317.401 76.3782 317.518 76.016 317.624C75.6609 317.724 75.2489 317.813 74.7802 317.891C74.3185 317.962 73.8675 318.026 73.4272 318.083C72.994 318.132 72.6424 318.175 72.3725 318.21C71.7191 318.296 71.1083 318.434 70.5401 318.626C69.979 318.811 69.5245 319.091 69.1765 319.467C68.8356 319.837 68.6651 320.341 68.6651 320.98C68.6651 321.854 68.9883 322.514 69.6346 322.962C70.288 323.402 71.1154 323.622 72.1168 323.622ZM83.8223 325.497V309.134H86.2512V311.605H86.4217C86.72 310.796 87.2598 310.139 88.041 309.634C88.8223 309.13 89.7029 308.878 90.6831 308.878C90.8677 308.878 91.0985 308.882 91.3755 308.889C91.6525 308.896 91.862 308.906 92.0041 308.921V311.477C91.9188 311.456 91.7235 311.424 91.4181 311.382C91.1198 311.332 90.8038 311.307 90.47 311.307C89.6745 311.307 88.9643 311.474 88.3393 311.808C87.7214 312.134 87.2313 312.589 86.8691 313.171C86.514 313.747 86.3365 314.404 86.3365 315.142V325.497H83.8223ZM101.091 331.975C99.8769 331.975 98.8329 331.818 97.9593 331.506C97.0857 331.2 96.3578 330.796 95.7754 330.291C95.2001 329.794 94.742 329.262 94.4011 328.693L96.4039 327.287C96.6312 327.585 96.9188 327.926 97.2669 328.31C97.6149 328.7 98.0907 329.038 98.6944 329.322C99.3052 329.613 100.104 329.759 101.091 329.759C102.412 329.759 103.503 329.439 104.362 328.8C105.221 328.161 105.651 327.159 105.651 325.796V322.472H105.438C105.253 322.77 104.991 323.139 104.65 323.58C104.316 324.013 103.833 324.4 103.201 324.741C102.576 325.075 101.731 325.242 100.665 325.242C99.3443 325.242 98.1582 324.929 97.1071 324.304C96.063 323.679 95.2356 322.77 94.6248 321.577C94.0211 320.384 93.7193 318.935 93.7193 317.23C93.7193 315.554 94.014 314.095 94.6035 312.852C95.193 311.602 96.0133 310.636 97.0644 309.954C98.1156 309.265 99.3301 308.921 100.708 308.921C101.773 308.921 102.618 309.098 103.243 309.453C103.876 309.801 104.358 310.199 104.692 310.646C105.033 311.087 105.296 311.449 105.481 311.733H105.736V309.134H108.165V325.966C108.165 327.372 107.846 328.516 107.206 329.396C106.574 330.284 105.722 330.934 104.65 331.346C103.584 331.765 102.398 331.975 101.091 331.975ZM101.006 322.983C102.015 322.983 102.867 322.752 103.563 322.291C104.259 321.829 104.788 321.165 105.15 320.298C105.513 319.432 105.694 318.395 105.694 317.188C105.694 316.009 105.516 314.968 105.161 314.066C104.806 313.164 104.28 312.458 103.584 311.946C102.888 311.435 102.029 311.179 101.006 311.179C99.9409 311.179 99.0531 311.449 98.3429 311.989C97.6397 312.529 97.1106 313.253 96.7555 314.162C96.4075 315.071 96.2335 316.08 96.2335 317.188C96.2335 318.324 96.411 319.329 96.7661 320.203C97.1284 321.069 97.661 321.751 98.3642 322.248C99.0744 322.738 99.9551 322.983 101.006 322.983ZM112.768 325.497V309.134H115.282V325.497H112.768ZM114.046 306.406C113.556 306.406 113.133 306.24 112.778 305.906C112.43 305.572 112.256 305.171 112.256 304.702C112.256 304.233 112.43 303.832 112.778 303.498C113.133 303.164 113.556 302.997 114.046 302.997C114.536 302.997 114.955 303.164 115.303 303.498C115.658 303.832 115.836 304.233 115.836 304.702C115.836 305.171 115.658 305.572 115.303 305.906C114.955 306.24 114.536 306.406 114.046 306.406ZM122.401 315.654V325.497H119.887V309.134H122.316V311.69H122.529C122.912 310.86 123.495 310.192 124.276 309.688C125.057 309.176 126.066 308.921 127.301 308.921C128.409 308.921 129.379 309.148 130.21 309.602C131.041 310.05 131.687 310.732 132.149 311.648C132.61 312.557 132.841 313.708 132.841 315.1V325.497H130.327V315.27C130.327 313.985 129.993 312.983 129.326 312.266C128.658 311.541 127.742 311.179 126.577 311.179C125.774 311.179 125.057 311.353 124.425 311.701C123.8 312.049 123.306 312.557 122.944 313.225C122.582 313.892 122.401 314.702 122.401 315.654ZM144.041 331.975C142.826 331.975 141.782 331.818 140.909 331.506C140.035 331.2 139.307 330.796 138.725 330.291C138.149 329.794 137.691 329.262 137.35 328.693L139.353 327.287C139.58 327.585 139.868 327.926 140.216 328.31C140.564 328.7 141.04 329.038 141.644 329.322C142.254 329.613 143.053 329.759 144.041 329.759C145.362 329.759 146.452 329.439 147.311 328.8C148.171 328.161 148.6 327.159 148.6 325.796V322.472H148.387C148.203 322.77 147.94 323.139 147.599 323.58C147.265 324.013 146.782 324.4 146.15 324.741C145.525 325.075 144.68 325.242 143.615 325.242C142.293 325.242 141.107 324.929 140.056 324.304C139.012 323.679 138.185 322.77 137.574 321.577C136.97 320.384 136.668 318.935 136.668 317.23C136.668 315.554 136.963 314.095 137.553 312.852C138.142 311.602 138.963 310.636 140.014 309.954C141.065 309.265 142.279 308.921 143.657 308.921C144.722 308.921 145.568 309.098 146.193 309.453C146.825 309.801 147.308 310.199 147.642 310.646C147.982 311.087 148.245 311.449 148.43 311.733H148.686V309.134H151.115V325.966C151.115 327.372 150.795 328.516 150.156 329.396C149.524 330.284 148.671 330.934 147.599 331.346C146.534 331.765 145.347 331.975 144.041 331.975ZM143.955 322.983C144.964 322.983 145.816 322.752 146.512 322.291C147.208 321.829 147.737 321.165 148.1 320.298C148.462 319.432 148.643 318.395 148.643 317.188C148.643 316.009 148.465 314.968 148.11 314.066C147.755 313.164 147.23 312.458 146.534 311.946C145.838 311.435 144.978 311.179 143.955 311.179C142.89 311.179 142.002 311.449 141.292 311.989C140.589 312.529 140.06 313.253 139.705 314.162C139.357 315.071 139.183 316.08 139.183 317.188C139.183 318.324 139.36 319.329 139.715 320.203C140.078 321.069 140.61 321.751 141.313 322.248C142.024 322.738 142.904 322.983 143.955 322.983ZM170.802 325.838C169.268 325.838 167.947 325.476 166.839 324.752C165.731 324.027 164.879 323.029 164.282 321.758C163.686 320.487 163.387 319.034 163.387 317.401C163.387 315.739 163.693 314.272 164.303 313.001C164.921 311.722 165.781 310.725 166.882 310.007C167.99 309.283 169.282 308.921 170.759 308.921C171.91 308.921 172.947 309.134 173.87 309.56C174.793 309.986 175.55 310.583 176.139 311.35C176.729 312.117 177.095 313.012 177.237 314.034H174.722C174.531 313.289 174.105 312.628 173.444 312.053C172.791 311.47 171.91 311.179 170.802 311.179C169.822 311.179 168.963 311.435 168.224 311.946C167.492 312.45 166.921 313.164 166.509 314.088C166.104 315.004 165.901 316.08 165.901 317.315C165.901 318.58 166.1 319.681 166.498 320.618C166.903 321.556 167.471 322.284 168.203 322.802C168.941 323.32 169.808 323.58 170.802 323.58C171.455 323.58 172.048 323.466 172.581 323.239C173.114 323.012 173.565 322.685 173.934 322.259C174.303 321.833 174.566 321.321 174.722 320.725H177.237C177.095 321.69 176.743 322.561 176.182 323.335C175.628 324.102 174.893 324.713 173.977 325.167C173.068 325.615 172.009 325.838 170.802 325.838ZM183.426 315.654V325.497H180.912V303.679H183.426V311.69H183.639C184.023 310.845 184.598 310.174 185.365 309.677C186.139 309.173 187.169 308.921 188.455 308.921C189.57 308.921 190.546 309.144 191.384 309.592C192.222 310.032 192.872 310.71 193.334 311.627C193.803 312.536 194.037 313.693 194.037 315.1V325.497H191.523V315.27C191.523 313.97 191.186 312.965 190.511 312.255C189.843 311.538 188.916 311.179 187.73 311.179C186.906 311.179 186.168 311.353 185.514 311.701C184.868 312.049 184.357 312.557 183.98 313.225C183.611 313.892 183.426 314.702 183.426 315.654ZM203.452 325.881C202.415 325.881 201.474 325.686 200.629 325.295C199.784 324.897 199.113 324.325 198.615 323.58C198.118 322.827 197.87 321.918 197.87 320.852C197.87 319.915 198.054 319.155 198.424 318.573C198.793 317.983 199.287 317.521 199.904 317.188C200.522 316.854 201.204 316.605 201.95 316.442C202.703 316.271 203.459 316.137 204.219 316.037C205.213 315.909 206.02 315.813 206.637 315.749C207.262 315.678 207.717 315.561 208.001 315.398C208.292 315.235 208.438 314.95 208.438 314.546V314.46C208.438 313.409 208.15 312.592 207.575 312.01C207.007 311.428 206.144 311.137 204.986 311.137C203.786 311.137 202.845 311.399 202.163 311.925C201.481 312.45 201.002 313.012 200.725 313.608L198.338 312.756C198.765 311.762 199.333 310.987 200.043 310.433C200.76 309.872 201.542 309.482 202.387 309.262C203.239 309.034 204.077 308.921 204.901 308.921C205.426 308.921 206.03 308.985 206.712 309.112C207.401 309.233 208.065 309.485 208.704 309.869C209.35 310.252 209.887 310.831 210.313 311.605C210.739 312.379 210.952 313.416 210.952 314.716V325.497H208.438V323.281H208.31C208.14 323.637 207.855 324.016 207.458 324.421C207.06 324.826 206.531 325.171 205.87 325.455C205.21 325.739 204.404 325.881 203.452 325.881ZM203.836 323.622C204.83 323.622 205.668 323.427 206.35 323.036C207.039 322.646 207.557 322.141 207.905 321.524C208.26 320.906 208.438 320.256 208.438 319.574V317.273C208.331 317.401 208.097 317.518 207.735 317.624C207.38 317.724 206.968 317.813 206.499 317.891C206.037 317.962 205.586 318.026 205.146 318.083C204.713 318.132 204.361 318.175 204.091 318.21C203.438 318.296 202.827 318.434 202.259 318.626C201.698 318.811 201.243 319.091 200.895 319.467C200.554 319.837 200.384 320.341 200.384 320.98C200.384 321.854 200.707 322.514 201.353 322.962C202.007 323.402 202.834 323.622 203.836 323.622ZM215.541 325.497V309.134H217.97V311.605H218.14C218.439 310.796 218.979 310.139 219.76 309.634C220.541 309.13 221.422 308.878 222.402 308.878C222.586 308.878 222.817 308.882 223.094 308.889C223.371 308.896 223.581 308.906 223.723 308.921V311.477C223.638 311.456 223.442 311.424 223.137 311.382C222.839 311.332 222.523 311.307 222.189 311.307C221.393 311.307 220.683 311.474 220.058 311.808C219.44 312.134 218.95 312.589 218.588 313.171C218.233 313.747 218.055 314.404 218.055 315.142V325.497H215.541ZM234.845 309.134V311.264H226.365V309.134H234.845ZM228.836 305.213H231.351V320.81C231.351 321.52 231.454 322.053 231.66 322.408C231.873 322.756 232.143 322.99 232.469 323.111C232.803 323.225 233.155 323.281 233.524 323.281C233.801 323.281 234.028 323.267 234.206 323.239C234.383 323.203 234.525 323.175 234.632 323.154L235.143 325.412C234.973 325.476 234.735 325.54 234.429 325.604C234.124 325.675 233.737 325.71 233.268 325.71C232.558 325.71 231.862 325.558 231.18 325.252C230.505 324.947 229.944 324.482 229.497 323.857C229.057 323.232 228.836 322.443 228.836 321.492V305.213Z" fill="black"/>
<path d="M157.657 60.6488V38.8306H160.299V58.3051H170.441V60.6488H157.657ZM180.838 60.9897C179.361 60.9897 178.065 60.6382 176.95 59.935C175.842 59.2319 174.975 58.2482 174.35 56.984C173.733 55.7198 173.424 54.2426 173.424 52.5522C173.424 50.8477 173.733 49.3597 174.35 48.0884C174.975 46.8171 175.842 45.8299 176.95 45.1268C178.065 44.4237 179.361 44.0721 180.838 44.0721C182.316 44.0721 183.608 44.4237 184.716 45.1268C185.831 45.8299 186.698 46.8171 187.316 48.0884C187.941 49.3597 188.253 50.8477 188.253 52.5522C188.253 54.2426 187.941 55.7198 187.316 56.984C186.698 58.2482 185.831 59.2319 184.716 59.935C183.608 60.6382 182.316 60.9897 180.838 60.9897ZM180.838 58.7312C181.961 58.7312 182.884 58.4435 183.608 57.8683C184.333 57.293 184.869 56.5366 185.217 55.5991C185.565 54.6616 185.739 53.646 185.739 52.5522C185.739 51.4585 185.565 50.4393 185.217 49.4947C184.869 48.5501 184.333 47.7866 183.608 47.2042C182.884 46.6218 181.961 46.3306 180.838 46.3306C179.716 46.3306 178.793 46.6218 178.069 47.2042C177.344 47.7866 176.808 48.5501 176.46 49.4947C176.112 50.4393 175.938 51.4585 175.938 52.5522C175.938 53.646 176.112 54.6616 176.46 55.5991C176.808 56.5366 177.344 57.293 178.069 57.8683C178.793 58.4435 179.716 58.7312 180.838 58.7312ZM198.696 67.1261C197.482 67.1261 196.438 66.9698 195.564 66.6573C194.69 66.3519 193.963 65.9471 193.38 65.4428C192.805 64.9457 192.347 64.413 192.006 63.8448L194.009 62.4386C194.236 62.7369 194.524 63.0778 194.872 63.4613C195.22 63.8519 195.695 64.1893 196.299 64.4734C196.91 64.7646 197.709 64.9102 198.696 64.9102C200.017 64.9102 201.107 64.5906 201.967 63.9514C202.826 63.3122 203.256 62.3107 203.256 60.9471V57.6232H203.043C202.858 57.9215 202.595 58.2908 202.254 58.7312C201.921 59.1644 201.438 59.5515 200.806 59.8924C200.181 60.2262 199.335 60.3931 198.27 60.3931C196.949 60.3931 195.763 60.0806 194.712 59.4556C193.668 58.8306 192.84 57.9215 192.23 56.7283C191.626 55.5352 191.324 54.0863 191.324 52.3818C191.324 50.7056 191.619 49.2461 192.208 48.0032C192.798 46.7532 193.618 45.7873 194.669 45.1055C195.72 44.4166 196.935 44.0721 198.313 44.0721C199.378 44.0721 200.223 44.2497 200.848 44.6048C201.48 44.9528 201.963 45.3505 202.297 45.798C202.638 46.2383 202.901 46.6005 203.085 46.8846H203.341V44.2852H205.77V61.1176C205.77 62.5238 205.45 63.6673 204.811 64.548C204.179 65.4357 203.327 66.0856 202.254 66.4975C201.189 66.9166 200.003 67.1261 198.696 67.1261ZM198.611 58.1346C199.619 58.1346 200.472 57.9038 201.168 57.4421C201.864 56.9805 202.393 56.3164 202.755 55.4499C203.117 54.5835 203.298 53.5465 203.298 52.3391C203.298 51.1602 203.121 50.1197 202.766 49.2177C202.411 48.3157 201.885 47.609 201.189 47.0977C200.493 46.5863 199.634 46.3306 198.611 46.3306C197.546 46.3306 196.658 46.6005 195.948 47.1403C195.244 47.6801 194.715 48.4045 194.36 49.3136C194.012 50.2227 193.838 51.2312 193.838 52.3391C193.838 53.4755 194.016 54.4805 194.371 55.3541C194.733 56.2205 195.266 56.9024 195.969 57.3995C196.679 57.8896 197.56 58.1346 198.611 58.1346ZM217.02 60.9897C215.543 60.9897 214.247 60.6382 213.132 59.935C212.024 59.2319 211.157 58.2482 210.532 56.984C209.914 55.7198 209.605 54.2426 209.605 52.5522C209.605 50.8477 209.914 49.3597 210.532 48.0884C211.157 46.8171 212.024 45.8299 213.132 45.1268C214.247 44.4237 215.543 44.0721 217.02 44.0721C218.497 44.0721 219.79 44.4237 220.898 45.1268C222.013 45.8299 222.879 46.8171 223.497 48.0884C224.122 49.3597 224.435 50.8477 224.435 52.5522C224.435 54.2426 224.122 55.7198 223.497 56.984C222.879 58.2482 222.013 59.2319 220.898 59.935C219.79 60.6382 218.497 60.9897 217.02 60.9897ZM217.02 58.7312C218.142 58.7312 219.065 58.4435 219.79 57.8683C220.514 57.293 221.051 56.5366 221.399 55.5991C221.747 54.6616 221.921 53.646 221.921 52.5522C221.921 51.4585 221.747 50.4393 221.399 49.4947C221.051 48.5501 220.514 47.7866 219.79 47.2042C219.065 46.6218 218.142 46.3306 217.02 46.3306C215.898 46.3306 214.975 46.6218 214.25 47.2042C213.526 47.7866 212.99 48.5501 212.641 49.4947C212.293 50.4393 212.119 51.4585 212.119 52.5522C212.119 53.646 212.293 54.6616 212.641 55.5991C212.99 56.5366 213.526 57.293 214.25 57.8683C214.975 58.4435 215.898 58.7312 217.02 58.7312Z" fill="black"/>
</svg>
