<svg width="264" height="503" viewBox="0 0 264 503" fill="none" xmlns="http://www.w3.org/2000/svg">
<path d="M66.2921 2.23403C102.122 2.903 139.875 -1.22884 197.446 2.23403M66.2921 2.23403C102.246 4.08352 138.965 2.35209 197.446 2.23403M197.446 2.23403C241.695 2.76527 264.74 26.6315 263.002 64.605M197.446 2.23403C240.102 0.187793 264.781 24.1524 263.002 64.605M263.002 64.605C259.713 186.297 264.761 303.878 263.002 439.284M263.002 64.605C258.265 195.132 260.479 330.42 263.002 439.284M263.002 439.284C263.209 478.162 243.495 501.635 197.446 501.655M263.002 439.284C259.817 479.126 245.191 501.91 197.446 501.655M197.446 501.655C162.196 499.274 119.23 502.678 66.2921 501.655M197.446 501.655C160.107 501.792 120.678 503.052 66.2921 501.655M66.2921 501.655C25.0221 502.579 1.62537 478.556 0.715149 439.284M66.2921 501.655C19.1884 501.261 -1.7052 478.536 0.715149 439.284M0.715149 439.284C1.23232 357.06 7.52109 271.649 0.715149 64.605M0.715149 439.284C1.17026 356.49 2.16322 275.171 0.715149 64.605M0.715149 64.605C-1.58108 23.7392 23.1603 -1.22884 66.2921 2.23403M0.715149 64.605C2.88726 19.1746 22.912 2.47014 66.2921 2.23403" stroke="black" stroke-linecap="round"/>
<path d="M29.8851 157.061C35.4706 148.561 43.7039 143.642 50.2409 134.789M29.8851 157.061C36.0084 150.647 44.4072 142.757 50.2409 134.789M30.6919 168.158C39.3597 151.631 55.7643 144.882 64.6182 131.031M30.6919 168.158C41.2835 155.349 50.8408 147.027 64.6182 131.031M30.1541 180.75C48.1102 168.197 54.7299 148.306 76.3062 130.263M30.1541 180.75C45.1106 166.623 56.9848 150.726 76.3062 130.263M30.9608 191.847C50.0961 169.063 64.8457 150.686 86.6082 130.971M30.9608 191.847C43.6211 178.92 57.8122 162.61 86.6082 130.971M30.423 204.439C56.84 174.887 84.1258 146.613 98.2962 130.184M30.423 204.439C54.0679 178.94 75.7477 153.441 98.2962 130.184M29.8851 217.032C45.938 196.766 67.5971 176.245 108.598 130.893M29.8851 217.032C58.0605 186.043 84.6016 156.864 108.598 130.893M30.7126 228.129C55.7022 198.34 77.8784 175.497 120.286 130.125M30.7126 228.129C56.7158 199.54 79.9264 172.29 120.286 130.125M31.5194 239.226C53.3439 216.284 78.9748 185.059 130.588 130.834M31.5194 239.226C68.3625 198.753 106.261 159.894 130.588 130.834M35.0568 247.371C58.9707 219.432 77.3198 193.441 142.276 130.047M35.0568 247.371C73.6583 207.155 109.612 166.466 142.276 130.047M38.5736 255.497C69.7692 222.305 96.9516 193.283 152.578 130.755M38.5736 255.497C81.7882 209.457 125.582 161.626 152.578 130.755M44.821 260.652C77.2371 222.895 114.866 182.324 162.901 131.463M44.821 260.652C90.7042 209.693 135.822 160.917 162.901 131.463M52.4337 264.331C96.8068 219.668 144.779 165.226 174.568 130.696M52.4337 264.331C100.282 211.227 144.345 160.563 174.568 130.696M64.101 263.564C96.1448 230.45 128.126 196.353 184.891 131.404M64.101 263.564C106.633 218.547 146.496 172.88 184.891 131.404M74.4237 264.272C105.123 236.077 130.423 206.564 196.558 130.637M74.4237 264.272C117.225 218.606 158.536 171.227 196.558 130.637M86.091 263.485C134.746 212.034 175.727 158.497 205.516 132.821M86.091 263.485C125.603 221.242 164.039 179.275 205.516 132.821M96.4137 264.194C143.952 219.708 188.077 164.734 217.204 132.054M96.4137 264.194C139.566 220.554 178.747 174.808 217.204 132.054M108.081 263.426C135.263 233.677 162.942 207.076 223.451 137.209M108.081 263.426C146.558 224.095 183.07 180.455 223.451 137.209M118.404 264.135C149.703 225.905 186.898 188.306 231.043 140.888M118.404 264.135C164.742 214.12 207.481 165.069 231.043 140.888M130.071 263.367C163.708 222.049 203.24 179.294 234.58 149.014M130.071 263.367C167.224 223.761 204.978 179.098 234.58 149.014M140.394 264.076C181.043 222.246 212.28 187.381 235.387 160.13M140.394 264.076C162.694 236.196 190.58 211.09 235.387 160.13M152.061 263.289C181.933 233.716 203.488 204.459 240.29 166.761M152.061 263.289C173.865 236.235 199.372 210.558 240.29 166.761M162.384 263.997C186.256 240.288 215.59 206.604 239.732 179.353M162.384 263.997C180.236 243.712 195.069 227.361 239.732 179.353M172.706 264.705C196.476 241.823 215.466 221.832 240.559 190.47M172.706 264.705C193 242.157 215.59 215.733 240.559 190.47M184.374 263.938C206.178 242.413 224.341 223.839 240.021 203.042M184.374 263.938C198.627 245.266 217.017 230.136 240.021 203.042M194.696 264.646C206.095 245.207 223.286 234.031 239.483 215.635M194.696 264.646C207.233 254.238 216.376 242.61 239.483 215.635M203.654 266.83C220.741 249.732 234.353 234.444 240.29 226.732M203.654 266.83C210.894 256.264 219.893 246.84 240.29 226.732M218.031 263.092C220.183 256.264 227.257 256.953 238.387 240.819M218.031 263.092C225.809 256.382 232.595 246.466 238.387 240.819" stroke="#CED4DA" stroke-width="0.5" stroke-linecap="round"/>
<path d="M63.0874 129.279C99.434 126.466 136.091 130.794 199.827 129.279M63.0874 129.279C108.619 130.066 154.275 130.598 199.827 129.279M199.827 129.279C225.23 127.154 234.394 137.661 235.098 162.826M199.827 129.279C223.223 125.915 235.78 140.18 235.098 162.826M235.098 162.826C231.395 189.447 234.787 214.887 235.098 229.919M235.098 162.826C234.932 189.742 236.794 212.388 235.098 229.919M235.098 229.919C233.96 250.873 223.451 260.652 199.827 263.485M235.098 229.919C239.214 251.326 220.534 264.725 199.827 263.485M199.827 263.485C149.786 266.319 103.509 265.846 63.0874 263.485M199.827 263.485C165.652 264.036 133.567 262.738 63.0874 263.485M63.0874 263.485C42.2765 264.981 26.5752 252.88 27.8164 229.919M63.0874 263.485C35.3051 261.636 28.4991 248.709 27.8164 229.919M27.8164 229.919C29.5955 208.414 30.8988 188.306 27.8164 162.826M27.8164 229.919C27.6096 214.12 28.2716 200.918 27.8164 162.826M27.8164 162.826C24.7548 142.816 38.7391 131.542 63.0874 129.279M27.8164 162.826C30.8367 140.849 36.4635 128.374 63.0874 129.279" stroke="black" stroke-linecap="round"/>
<path d="M32.3504 319.164C35.2052 315.701 40.0666 311.373 43.211 307.28M32.3504 319.164C35.4328 316.941 37.7083 313.694 43.211 307.28M31.8126 331.737C33.8192 327.231 44.0384 321.387 53.5337 307.988M31.8126 331.737C35.5776 325.657 43.1282 320.856 53.5337 307.988M31.2747 344.329C44.2246 329.671 49.4584 322.253 65.201 307.201M31.2747 344.329C42.1973 332.661 51.2167 323.02 65.201 307.201M37.5221 349.504C48.6309 331.678 64.3735 317.531 75.5237 307.91M37.5221 349.504C49.2308 338.269 57.4848 330.91 75.5237 307.91M47.8241 350.212C58.2709 338.426 70.2072 328.274 85.8257 308.618M47.8241 350.212C62.8013 332.602 77.9026 316.862 85.8257 308.618M58.1468 350.92C68.4074 341.515 78.3578 326.739 97.5137 307.851M58.1468 350.92C66.7318 339.587 76.9511 331.737 97.5137 307.851M69.8141 350.133C80.0127 332.858 97.9481 322.725 107.816 308.559M69.8141 350.133C82.6399 334.157 96.4793 320.738 107.816 308.559M80.1368 350.841C92.9833 339.961 97.2448 332.012 119.504 307.792M80.1368 350.841C92.4868 338.78 106.078 322.43 119.504 307.792M91.8041 350.074C101.548 333.35 112.967 324.457 129.806 308.5M91.8041 350.074C103.678 337.895 115.015 323.06 129.806 308.5M102.127 350.782C110.381 339.017 122.834 334.924 141.494 307.713M102.127 350.782C114.063 339.449 124.489 325.716 141.494 307.713M113.794 349.995C130.757 332.268 144.348 324.122 151.796 308.421M113.794 349.995C126.351 334.531 141.866 320.955 151.796 308.421M124.117 350.704C137.522 342.676 141.328 332.051 163.484 307.654M124.117 350.704C137.232 333.94 152.147 317.826 163.484 307.654M135.784 349.936C143.521 343.955 150.12 333.527 173.786 308.362M135.784 349.936C145.528 339.095 154.506 326.09 173.786 308.362M146.107 350.645C158.353 338.623 169.669 330.438 185.474 307.575M146.107 350.645C159.781 336.439 171.531 323.217 185.474 307.575M157.774 349.858C165.635 337.088 170.848 331.992 195.776 308.284M157.774 349.858C170.083 337.108 182.619 324.673 195.776 308.284M168.097 350.566C184.915 338.702 191.432 324.181 206.098 308.992M168.097 350.566C178.399 339.548 186.591 329.927 206.098 308.992M178.42 351.274C185.825 343.857 196.893 330.202 217.766 308.225M178.42 351.274C192.962 336.655 203.409 323.591 217.766 308.225M190.087 350.507C199.086 339.036 209.057 333.291 228.088 308.933M190.087 350.507C199.417 338.033 209.967 327.723 228.088 308.933M200.41 351.215C210.463 339.213 218.862 329.139 237.046 311.117M200.41 351.215C209.532 341.81 213.339 336.793 237.046 311.117M212.077 350.448C215.118 342.755 225.958 334.058 243.293 316.291M212.077 350.448C221.634 340.158 234.605 326.287 243.293 316.291M222.4 351.156C228.647 342.932 234.832 335.987 242.755 328.864M222.4 351.156C229.661 343.522 237.625 333.881 242.755 328.864" stroke="#CED4DA" stroke-width="0.5" stroke-linecap="round"/>
<path d="M39.9631 305.529C85.6808 308.303 121.283 303.05 226.951 305.529M39.9631 305.529C98.3618 303.994 160.463 304.368 226.951 305.529M226.951 305.529C236.239 308.421 241.721 309.523 238.432 316.449M226.951 305.529C236.301 309.11 239.321 307.497 238.432 316.449M238.432 316.449C237.501 323.139 238.99 333.724 238.432 338.269M238.432 316.449C239.528 321.663 238.473 326.444 238.432 338.269M238.432 338.269C238.949 341.988 232.102 350.31 226.951 349.189M238.432 338.269C241.1 346.395 238.887 351.176 226.951 349.189M226.951 349.189C182.557 346.965 135.184 346.139 39.9631 349.189M226.951 349.189C155.995 350.901 83.1364 350.546 39.9631 349.189M39.9631 349.189C35.5982 347.398 31.5643 343.601 28.482 338.269M39.9631 349.189C28.9371 348.736 31.8953 342.932 28.482 338.269M28.482 338.269C26.3512 330.832 28.5647 326.09 28.482 316.449M28.482 338.269C29.2267 332.327 27.9027 328.569 28.482 316.449M28.482 316.449C32.4538 307.438 31.5229 303.916 39.9631 305.529M28.482 316.449C32.64 310.113 33.4054 302.617 39.9631 305.529" stroke="black" stroke-linecap="round"/>
<path d="M36.9179 383.169C39.1107 380.985 41.076 376.991 47.7785 371.285M36.9179 383.169C39.1935 380.671 40.7657 378.506 47.7785 371.285M36.3801 395.742C41.3863 391.177 49.1231 378.742 58.1012 371.994M36.3801 395.742C45.896 386.14 53.6742 377.405 58.1012 371.994M35.8422 408.334C40.1451 401.841 52.2675 389.013 69.7685 371.207M35.8422 408.334C47.4682 394.916 63.397 377.896 69.7685 371.207M42.0896 413.509C51.3573 400.976 69.996 385.176 80.0912 371.915M42.0896 413.509C52.2882 399.874 63.6452 387.498 80.0912 371.915M52.3916 414.217C67.5964 398.949 81.3738 380.356 90.3932 372.623M52.3916 414.217C65.7139 398.949 74.6712 387.026 90.3932 372.623M62.7143 414.926C69.2927 403.888 84.3113 391.217 102.081 371.856M62.7143 414.926C75.1057 403.258 85.8214 390.292 102.081 371.856M74.3816 414.139C83.6493 403.907 92.0274 391.571 112.383 372.564M74.3816 414.139C91.5309 398.556 103.136 381.753 112.383 372.564M84.7043 414.847C95.358 402.176 105.101 394.542 124.071 371.797M84.7043 414.847C99.1437 398.103 114.41 380.257 124.071 371.797M96.3716 414.079C112.735 400.326 118.486 388.797 134.373 372.505M96.3716 414.079C106.984 401.389 115.093 392.869 134.373 372.505M106.694 414.788C112.983 405.324 127.195 397.887 146.061 371.718M106.694 414.788C118.92 400.956 130.712 390.39 146.061 371.718M118.362 414.001C130.712 399.225 137.89 394.955 156.363 372.427M118.362 414.001C126.636 403.888 133.194 394.443 156.363 372.427M128.684 414.709C138.242 404.065 145.192 390.882 168.051 371.659M128.684 414.709C137.787 403.553 146.951 393.401 168.051 371.659M140.352 413.942C146.889 405.501 164.121 388.6 178.353 372.368M140.352 413.942C149.764 401.428 164.017 388.797 178.353 372.368M150.674 414.65C165.341 397.769 183.111 378.703 190.041 371.581M150.674 414.65C159.073 403.337 166.065 397.591 190.041 371.581M162.342 413.863C165.941 406.445 180.236 397.1 200.343 372.289M162.342 413.863C176.305 398.418 193.289 381.163 200.343 372.289M172.664 414.571C182.842 404.399 195.027 393.676 210.666 372.997M172.664 414.571C184.414 401.743 195.627 393.046 210.666 372.997M182.987 415.28C199.164 397.454 213.521 386.16 222.333 372.23M182.987 415.28C193.33 406.524 197.468 397.336 222.333 372.23M194.654 414.512C205.805 404.734 212.383 394.109 232.656 372.938M194.654 414.512C209.983 397.867 224.981 379.923 232.656 372.938M204.977 415.221C215.879 406.898 222.064 392.751 241.613 375.122M204.977 415.221C214.079 406.603 223.223 394.089 241.613 375.122M216.644 414.453C223.388 401.743 238.924 387.793 247.861 380.297M216.644 414.453C223.595 403.986 231.994 396.195 247.861 380.297M226.967 415.162C230.484 409.338 242.13 401.94 247.323 392.869M226.967 415.162C233.98 409.849 240.496 403.199 247.323 392.869" stroke="#CED4DA" stroke-width="0.5" stroke-linecap="round"/>
<path d="M44.5306 369.534C116.355 368.806 187.89 373.037 231.518 369.534M44.5306 369.534C107.977 369.652 173.864 367.665 231.518 369.534M231.518 369.534C236.359 372.21 240.517 372.564 242.999 380.454M231.518 369.534C235.759 369.948 246.516 370.695 242.999 380.454M242.999 380.454C243.02 385.117 244.592 391.512 242.999 402.274M242.999 380.454C243.599 389.21 243.868 397.532 242.999 402.274M242.999 402.274C240.786 410.715 237.166 413.961 231.518 413.194M242.999 402.274C239.379 406.682 239.876 413.824 231.518 413.194M231.518 413.194C176.553 418.506 113.19 412.269 44.5306 413.194M231.518 413.194C184.477 412.702 136.711 413.273 44.5306 413.194M44.5306 413.194C33.1322 416.106 30.5257 411.522 33.0495 402.274M44.5306 413.194C38.7384 412.761 33.7942 408.472 33.0495 402.274M33.0495 402.274C33.1529 394.64 31.0843 393.007 33.0495 380.454M33.0495 402.274C33.9597 395.958 32.0772 390.784 33.0495 380.454M33.0495 380.454C29.6776 370.42 34.6631 370.931 44.5306 369.534M33.0495 380.454C31.0843 371.659 41.4897 372.781 44.5306 369.534" stroke="black" stroke-linecap="round"/>
<path d="M181.094 446.425C186.928 439.441 189.845 436.824 196.009 430.095M181.094 446.425C184.714 442.294 189.389 435.25 196.009 430.095M180.556 459.018C190.548 447.252 202.836 437.945 206.332 430.803M180.556 459.018C190.051 451.935 195.409 443.1 206.332 430.803M184.073 467.144C189.865 459.037 198.802 446.74 216.655 431.511M184.073 467.144C197.664 452.8 211.69 438.614 216.655 431.511M191.686 470.823C207.449 455.417 217.089 443.336 228.322 430.724M191.686 470.823C201.76 460.69 208.028 449.672 228.322 430.724M203.353 470.056C215.6 455.693 227.288 448.491 238.645 431.433M203.353 470.056C217.999 454.61 230.287 442.018 238.645 431.433M213.676 470.764C221.619 457.581 235.562 446.248 247.602 433.636M213.676 470.764C222.364 458.841 235.583 448.432 247.602 433.636M225.343 469.977C232.79 460.907 243.216 455.083 251.139 441.762M225.343 469.977C229.336 463.464 236.824 458.054 251.139 441.762M235.666 470.685C238.148 469.328 241.665 464.192 249.236 455.83M235.666 470.685C238.955 465.727 243.299 462.185 249.236 455.83" stroke="#CED4DA" stroke-width="0.5" stroke-linecap="round"/>
<path d="M191.934 427.99C208.07 424.527 218.434 426.396 234.735 427.99M191.934 427.99C200.664 429.485 209.642 426.14 234.735 427.99M234.735 427.99C240.506 428.855 248.574 430.252 245.802 438.516M234.735 427.99C241.189 427.872 242.285 430.961 245.802 438.516M245.802 438.516C245.223 443.848 246.547 453.587 245.802 459.588M245.802 438.516C246.692 444.045 246.443 448.59 245.802 459.588M245.802 459.588C243.547 468.954 244.313 466.376 234.735 470.115M245.802 459.588C241.665 463.661 246.464 469.642 234.735 470.115M234.735 470.115C226.688 469.367 219.716 469.8 191.934 470.115M234.735 470.115C220.564 472.003 209.414 470.292 191.934 470.115M191.934 470.115C185.5 466.18 179.625 470.233 180.866 459.588M191.934 470.115C183.928 471.649 183.845 464.074 180.866 459.588M180.866 459.588C178.963 453.43 182.646 447.153 180.866 438.516M180.866 459.588C181.611 453.056 180.453 448.688 180.866 438.516M180.866 438.516C176.833 430.528 188.438 430.941 191.934 427.99M180.866 438.516C177.867 429.564 181.115 429.721 191.934 427.99" stroke="black" stroke-linecap="round"/>
<path d="M37.9897 440.4C42.2512 435.225 44.6716 432.156 47.5057 430.011M37.9897 440.4C40.4722 437.901 43.4097 434.163 47.5057 430.011M38.8172 451.497C47.3402 445.319 51.9533 435.284 59.173 429.224M38.8172 451.497C47.485 442.348 55.9872 432.845 59.173 429.224M38.2794 464.089C50.919 450.021 60.6004 445.476 69.4957 429.933M38.2794 464.089C51.7878 453.11 63.4758 439.18 69.4957 429.933M43.1614 470.739C52.2636 461.039 64.2826 445.496 81.163 429.165M43.1614 470.739C52.8221 460.626 61.6347 453.878 81.163 429.165M54.8288 469.972C65.5238 458.383 69.868 456.849 91.4857 429.874M54.8288 469.972C67.3236 455.294 80.7699 441.03 91.4857 429.874M65.1514 470.68C81.8043 454.92 96.3057 441.167 103.153 429.087M65.1514 470.68C80.0666 454.448 93.2854 437.685 103.153 429.087M76.8188 469.893C86.6863 457.734 95.3748 453.228 113.476 429.795M76.8188 469.893C88.9205 456.75 98.8088 445.988 113.476 429.795M87.1415 470.602C98.0847 463.617 104.808 453.327 123.778 430.503M87.1415 470.602C98.3123 458.718 110.911 443.312 123.778 430.503M98.8088 469.834C111.138 455.255 127.294 444.965 135.466 429.736M98.8088 469.834C110.6 455.845 125.329 440.262 135.466 429.736M109.131 470.543C116.579 458.836 126.157 451.792 145.768 430.444M109.131 470.543C120.24 460.626 129.549 447.739 145.768 430.444M119.454 471.251C132.756 452.776 149.636 441.226 158.8 428.182M119.454 471.251C132.425 461.118 140.348 446.027 158.8 428.182M131.121 470.464C136.293 465.899 148.912 454.586 165.048 433.356M131.121 470.464C143.761 457.183 151.167 445.378 165.048 433.356M141.444 471.172C151.56 466.234 156.773 454.527 164.51 445.929M141.444 471.172C151.395 462.456 159.297 452.402 164.51 445.929M154.477 468.91C157.849 467.395 159.793 464.109 165.337 457.045M154.477 468.91C158.573 463.696 163.103 459.505 165.337 457.045" stroke="#CED4DA" stroke-width="0.5" stroke-linecap="round"/>
<path d="M45.106 426.922C86.3968 429.441 121.316 429.087 153.443 426.922M45.106 426.922C84.1005 427.768 119.061 429.46 153.443 426.922M153.443 426.922C163.083 424.483 162.152 434.222 164.241 437.193M153.443 426.922C157.911 425.171 162.338 427.552 164.241 437.193M164.241 437.193C162.152 442.013 162.917 448.487 164.241 457.734M164.241 437.193C164.386 443.469 163.91 451.989 164.241 457.734M164.241 457.734C161.634 467.217 157.518 464.443 153.443 468.004M164.241 457.734C166.951 460.567 158.138 469.716 153.443 468.004M153.443 468.004C112.586 466.549 72.1229 464.306 45.106 468.004M153.443 468.004C113.724 466.352 69.3923 466.057 45.106 468.004M45.106 468.004C35.3005 467.945 35.3419 467.808 34.3075 457.734M45.106 468.004C38.1553 472.117 34.4316 465.821 34.3075 457.734M34.3075 457.734C33.5628 451.694 34.804 442.663 34.3075 437.193M34.3075 457.734C33.2318 451.615 33.3559 446.637 34.3075 437.193M34.3075 437.193C34.3282 427.69 37.3278 430.602 45.106 426.922M34.3075 437.193C30.646 428.083 41.0721 427.906 45.106 426.922" stroke="black" stroke-linecap="round"/>
<path d="M42.7818 42.0998V40.3952L56.5034 33.4066V36.1339L45.9779 41.2049L46.0631 41.0344V41.4606L45.9779 41.2901L56.5034 46.3611V49.0884L42.7818 42.0998ZM70.6112 51.8157V29.9975H77.9834C79.6879 29.9975 81.0871 30.2887 82.1808 30.8711C83.2746 31.4464 84.0842 32.2383 84.6098 33.2468C85.1354 34.2553 85.3981 35.4023 85.3981 36.6878C85.3981 37.9733 85.1354 39.1133 84.6098 40.1076C84.0842 41.1019 83.2781 41.8831 82.1915 42.4513C81.1048 43.0124 79.7163 43.2929 78.026 43.2929H72.0601V40.9066H77.9408C79.1055 40.9066 80.043 40.7361 80.7533 40.3952C81.4706 40.0543 81.989 39.5714 82.3087 38.9464C82.6354 38.3143 82.7987 37.5614 82.7987 36.6878C82.7987 35.8143 82.6354 35.0508 82.3087 34.3973C81.9819 33.7439 81.4599 33.2397 80.7426 32.8846C80.0253 32.5223 79.0771 32.3412 77.8981 32.3412H73.2533V51.8157H70.6112ZM80.8811 42.0145L86.2504 51.8157H83.1822L77.8981 42.0145H80.8811ZM96.1448 52.1566C94.5681 52.1566 93.208 51.8086 92.0645 51.1125C90.9281 50.4094 90.051 49.4293 89.4331 48.1722C88.8223 46.908 88.5169 45.4378 88.5169 43.7617C88.5169 42.0856 88.8223 40.6083 89.4331 39.3299C90.051 38.0444 90.9104 37.0429 92.0112 36.3256C93.1192 35.6012 94.4118 35.239 95.8891 35.239C96.7414 35.239 97.583 35.381 98.4139 35.6651C99.2449 35.9492 100.001 36.4108 100.683 37.05C101.365 37.6822 101.908 38.5202 102.313 39.5643C102.718 40.6083 102.92 41.8938 102.92 43.4208V44.4861H90.3067V42.3128H100.364C100.364 41.3895 100.179 40.5657 99.8095 39.8412C99.4473 39.1168 98.9289 38.5451 98.2541 38.126C97.5865 37.707 96.7982 37.4975 95.8891 37.4975C94.8877 37.4975 94.0212 37.7461 93.2897 38.2432C92.5652 38.7333 92.0077 39.3725 91.6171 40.1608C91.2264 40.9492 91.0311 41.7944 91.0311 42.6964V44.1452C91.0311 45.381 91.2442 46.4286 91.6703 47.288C92.1036 48.1402 92.7037 48.7901 93.4708 49.2375C94.2378 49.6779 95.1291 49.8981 96.1448 49.8981C96.8053 49.8981 97.4019 49.8057 97.9345 49.6211C98.4743 49.4293 98.9395 49.1452 99.3301 48.7688C99.7208 48.3853 100.023 47.9094 100.236 47.3412L102.665 48.0231C102.409 48.8469 101.979 49.5714 101.376 50.1964C100.772 50.8143 100.026 51.2972 99.1384 51.6452C98.2506 51.9861 97.2527 52.1566 96.1448 52.1566ZM113.393 52.1566C111.859 52.1566 110.538 51.7944 109.43 51.0699C108.322 50.3455 107.469 49.3476 106.873 48.0763C106.276 46.805 105.978 45.3526 105.978 43.7191C105.978 42.0572 106.283 40.5905 106.894 39.3192C107.512 38.0408 108.371 37.0429 109.472 36.3256C110.58 35.6012 111.873 35.239 113.35 35.239C114.501 35.239 115.538 35.452 116.461 35.8782C117.384 36.3043 118.141 36.9009 118.73 37.6679C119.319 38.435 119.685 39.3299 119.827 40.3526H117.313C117.121 39.6069 116.695 38.9464 116.035 38.3711C115.381 37.7887 114.501 37.4975 113.393 37.4975C112.413 37.4975 111.553 37.7532 110.815 38.2645C110.083 38.7688 109.511 39.4826 109.099 40.4059C108.694 41.3221 108.492 42.3981 108.492 43.6339C108.492 44.8981 108.691 45.9989 109.089 46.9364C109.493 47.8739 110.062 48.6019 110.793 49.1204C111.532 49.6388 112.398 49.8981 113.393 49.8981C114.046 49.8981 114.639 49.7844 115.172 49.5572C115.704 49.3299 116.155 49.0032 116.525 48.577C116.894 48.1509 117.157 47.6395 117.313 47.0429H119.827C119.685 48.0089 119.334 48.8789 118.773 49.653C118.219 50.4201 117.484 51.0309 116.567 51.4854C115.658 51.9329 114.6 52.1566 113.393 52.1566ZM126.017 41.9719V51.8157H123.503V29.9975H126.017V38.0089H126.23C126.614 37.1637 127.189 36.4925 127.956 35.9954C128.73 35.4911 129.76 35.239 131.045 35.239C132.16 35.239 133.137 35.4627 133.975 35.9101C134.813 36.3505 135.463 37.0287 135.925 37.9449C136.393 38.854 136.628 40.0117 136.628 41.4179V51.8157H134.114V41.5884C134.114 40.2887 133.776 39.2837 133.101 38.5735C132.434 37.8562 131.507 37.4975 130.321 37.4975C129.497 37.4975 128.758 37.6715 128.105 38.0195C127.459 38.3675 126.947 38.8753 126.571 39.5429C126.202 40.2106 126.017 41.0202 126.017 41.9719ZM146.043 52.1992C145.006 52.1992 144.065 52.0039 143.22 51.6133C142.374 51.2155 141.703 50.6438 141.206 49.8981C140.709 49.1452 140.46 48.2361 140.46 47.1708C140.46 46.2333 140.645 45.4733 141.014 44.891C141.384 44.3015 141.877 43.8398 142.495 43.506C143.113 43.1722 143.795 42.9236 144.541 42.7603C145.293 42.5898 146.05 42.4549 146.81 42.3554C147.804 42.2276 148.61 42.1317 149.228 42.0678C149.853 41.9968 150.308 41.8796 150.592 41.7162C150.883 41.5529 151.028 41.2688 151.028 40.864V40.7787C151.028 39.7276 150.741 38.9108 150.166 38.3285C149.597 37.7461 148.734 37.4549 147.577 37.4549C146.376 37.4549 145.435 37.7177 144.754 38.2432C144.072 38.7688 143.592 39.3299 143.315 39.9265L140.929 39.0742C141.355 38.0799 141.923 37.3057 142.634 36.7518C143.351 36.1907 144.132 35.8 144.977 35.5799C145.83 35.3526 146.668 35.239 147.492 35.239C148.017 35.239 148.621 35.3029 149.303 35.4307C149.992 35.5515 150.656 35.8036 151.295 36.1871C151.941 36.5706 152.477 37.1495 152.903 37.9236C153.33 38.6978 153.543 39.7347 153.543 41.0344V51.8157H151.028V49.5998H150.901C150.73 49.9549 150.446 50.3348 150.048 50.7397C149.651 51.1445 149.122 51.489 148.461 51.7731C147.8 52.0572 146.994 52.1992 146.043 52.1992ZM146.426 49.9407C147.421 49.9407 148.259 49.7454 148.94 49.3547C149.629 48.9641 150.148 48.4598 150.496 47.842C150.851 47.2241 151.028 46.5742 151.028 45.8924V43.5912C150.922 43.7191 150.688 43.8363 150.325 43.9428C149.97 44.0422 149.558 44.131 149.09 44.2091C148.628 44.2802 148.177 44.3441 147.737 44.4009C147.303 44.4506 146.952 44.4932 146.682 44.5287C146.028 44.614 145.418 44.7525 144.849 44.9442C144.288 45.1289 143.834 45.4094 143.486 45.7858C143.145 46.1552 142.974 46.6594 142.974 47.2986C142.974 48.1722 143.298 48.8327 143.944 49.2802C144.597 49.7205 145.425 49.9407 146.426 49.9407ZM158.132 51.8157V35.452H160.561V37.9236H160.731C161.029 37.114 161.569 36.457 162.35 35.9527C163.132 35.4485 164.012 35.1964 164.992 35.1964C165.177 35.1964 165.408 35.1999 165.685 35.207C165.962 35.2141 166.171 35.2248 166.313 35.239V37.7958C166.228 37.7745 166.033 37.7425 165.728 37.6999C165.429 37.6502 165.113 37.6253 164.779 37.6253C163.984 37.6253 163.274 37.7922 162.649 38.126C162.031 38.4527 161.541 38.9073 161.179 39.4897C160.823 40.065 160.646 40.7219 160.646 41.4606V51.8157H158.132ZM175.401 58.2929C174.186 58.2929 173.142 58.1367 172.269 57.8242C171.395 57.5188 170.667 57.114 170.085 56.6097C169.509 56.1125 169.051 55.5799 168.71 55.0117L170.713 53.6054C170.941 53.9037 171.228 54.2447 171.576 54.6282C171.924 55.0188 172.4 55.3562 173.004 55.6402C173.615 55.9314 174.414 56.077 175.401 56.077C176.722 56.077 177.812 55.7574 178.671 55.1182C179.531 54.479 179.96 53.4776 179.96 52.114V48.7901H179.747C179.563 49.0884 179.3 49.4577 178.959 49.8981C178.625 50.3313 178.142 50.7184 177.51 51.0593C176.885 51.3931 176.04 51.56 174.975 51.56C173.654 51.56 172.468 51.2475 171.416 50.6225C170.372 49.9975 169.545 49.0884 168.934 47.8952C168.33 46.702 168.029 45.2532 168.029 43.5486C168.029 41.8725 168.323 40.413 168.913 39.1701C169.502 37.9201 170.323 36.9542 171.374 36.2723C172.425 35.5834 173.639 35.239 175.017 35.239C176.083 35.239 176.928 35.4165 177.553 35.7716C178.185 36.1197 178.668 36.5174 179.002 36.9648C179.343 37.4052 179.605 37.7674 179.79 38.0515H180.046V35.452H182.475V52.2844C182.475 53.6907 182.155 54.8341 181.516 55.7148C180.884 56.6026 180.031 57.2525 178.959 57.6644C177.894 58.0834 176.708 58.2929 175.401 58.2929ZM175.316 49.3015C176.324 49.3015 177.176 49.0706 177.872 48.609C178.568 48.1473 179.098 47.4833 179.46 46.6168C179.822 45.7503 180.003 44.7134 180.003 43.506C180.003 42.327 179.826 41.2866 179.47 40.3846C179.115 39.4826 178.59 38.7759 177.894 38.2645C177.198 37.7532 176.338 37.4975 175.316 37.4975C174.25 37.4975 173.362 37.7674 172.652 38.3072C171.949 38.8469 171.42 39.5714 171.065 40.4804C170.717 41.3895 170.543 42.3981 170.543 43.506C170.543 44.6424 170.72 45.6473 171.076 46.5209C171.438 47.3874 171.97 48.0692 172.674 48.5664C173.384 49.0564 174.264 49.3015 175.316 49.3015ZM193.938 52.1566C192.361 52.1566 191.001 51.8086 189.857 51.1125C188.721 50.4094 187.844 49.4293 187.226 48.1722C186.615 46.908 186.31 45.4378 186.31 43.7617C186.31 42.0856 186.615 40.6083 187.226 39.3299C187.844 38.0444 188.703 37.0429 189.804 36.3256C190.912 35.6012 192.205 35.239 193.682 35.239C194.534 35.239 195.376 35.381 196.207 35.6651C197.038 35.9492 197.794 36.4108 198.476 37.05C199.158 37.6822 199.701 38.5202 200.106 39.5643C200.511 40.6083 200.713 41.8938 200.713 43.4208V44.4861H188.1V42.3128H198.156C198.156 41.3895 197.972 40.5657 197.603 39.8412C197.24 39.1168 196.722 38.5451 196.047 38.126C195.379 37.707 194.591 37.4975 193.682 37.4975C192.681 37.4975 191.814 37.7461 191.083 38.2432C190.358 38.7333 189.801 39.3725 189.41 40.1608C189.019 40.9492 188.824 41.7944 188.824 42.6964V44.1452C188.824 45.381 189.037 46.4286 189.463 47.288C189.897 48.1402 190.497 48.7901 191.264 49.2375C192.031 49.6779 192.922 49.8981 193.938 49.8981C194.598 49.8981 195.195 49.8057 195.728 49.6211C196.267 49.4293 196.732 49.1452 197.123 48.7688C197.514 48.3853 197.816 47.9094 198.029 47.3412L200.458 48.0231C200.202 48.8469 199.772 49.5714 199.169 50.1964C198.565 50.8143 197.819 51.2972 196.931 51.6452C196.044 51.9861 195.046 52.1566 193.938 52.1566Z" fill="black"/>
<path d="M67.4382 92.179H64.8842C64.7332 91.4443 64.4689 90.799 64.0913 90.2429C63.7205 89.6868 63.2674 89.2199 62.7319 88.8423C62.2032 88.4578 61.6162 88.1695 60.9709 87.9773C60.3255 87.785 59.6527 87.6889 58.9524 87.6889C57.6754 87.6889 56.5186 88.0116 55.4819 88.6569C54.452 89.3023 53.6316 90.2532 53.0206 91.5096C52.4164 92.766 52.1143 94.3073 52.1143 96.1335C52.1143 97.9597 52.4164 99.501 53.0206 100.757C53.6316 102.014 54.452 102.965 55.4819 103.61C56.5186 104.255 57.6754 104.578 58.9524 104.578C59.6527 104.578 60.3255 104.482 60.9709 104.29C61.6162 104.098 62.2032 103.813 62.7319 103.435C63.2674 103.051 63.7205 102.58 64.0913 102.024C64.4689 101.461 64.7332 100.816 64.8842 100.088H67.4382C67.246 101.166 66.8958 102.131 66.3878 102.982C65.8797 103.833 65.2481 104.558 64.4929 105.155C63.7377 105.745 62.8898 106.195 61.9492 106.504C61.0155 106.813 60.0166 106.967 58.9524 106.967C57.1536 106.967 55.554 106.528 54.1534 105.649C52.7528 104.77 51.6509 103.521 50.8476 101.901C50.0444 100.28 49.6427 98.3579 49.6427 96.1335C49.6427 93.9091 50.0444 91.9867 50.8476 90.3665C51.6509 88.7462 52.7528 87.4967 54.1534 86.6179C55.554 85.7391 57.1536 85.2997 58.9524 85.2997C60.0166 85.2997 61.0155 85.4542 61.9492 85.7631C62.8898 86.0721 63.7377 86.5252 64.4929 87.1225C65.2481 87.7129 65.8797 88.4338 66.3878 89.2851C66.8958 90.1296 67.246 91.0942 67.4382 92.179ZM75.8905 107.05C74.8882 107.05 73.9785 106.861 73.1615 106.483C72.3445 106.099 71.6957 105.546 71.2151 104.825C70.7345 104.098 70.4942 103.219 70.4942 102.189C70.4942 101.283 70.6727 100.548 71.0297 99.9851C71.3867 99.4152 71.8639 98.969 72.4612 98.6463C73.0585 98.3236 73.7176 98.0833 74.4385 97.9254C75.1662 97.7606 75.8974 97.6302 76.632 97.5341C77.5932 97.4105 78.3724 97.3178 78.9697 97.256C79.5739 97.1874 80.0133 97.0741 80.2879 96.9162C80.5694 96.7583 80.7101 96.4836 80.7101 96.0923V96.0099C80.7101 94.9938 80.4321 94.2043 79.876 93.6413C79.3267 93.0783 78.4926 92.7969 77.3735 92.7969C76.2132 92.7969 75.3035 93.0509 74.6444 93.5589C73.9853 94.067 73.5219 94.6094 73.2542 95.1861L70.9473 94.3622C71.3593 93.401 71.9085 92.6527 72.5951 92.1172C73.2885 91.5748 74.0437 91.1972 74.8607 90.9844C75.6846 90.7647 76.4947 90.6548 77.2911 90.6548C77.7991 90.6548 78.3827 90.7166 79.0418 90.8402C79.7078 90.9569 80.3497 91.2006 80.9676 91.5714C81.5923 91.9421 82.1107 92.5016 82.5226 93.25C82.9346 93.9983 83.1405 95.0007 83.1405 96.2571V106.679H80.7101V104.537H80.5865C80.4218 104.88 80.1472 105.247 79.7627 105.639C79.3782 106.03 78.8667 106.363 78.2282 106.638C77.5897 106.912 76.8105 107.05 75.8905 107.05ZM76.2613 104.866C77.2224 104.866 78.0326 104.678 78.6917 104.3C79.3576 103.922 79.8588 103.435 80.1952 102.838C80.5385 102.24 80.7101 101.612 80.7101 100.953V98.7287C80.6071 98.8523 80.3806 98.9655 80.0304 99.0685C79.6872 99.1646 79.289 99.2505 78.8358 99.326C78.3896 99.3946 77.9536 99.4564 77.528 99.5113C77.1092 99.5594 76.7693 99.6006 76.5084 99.6349C75.8768 99.7173 75.2864 99.8512 74.7371 100.037C74.1947 100.215 73.7553 100.486 73.4189 100.85C73.0894 101.207 72.9246 101.695 72.9246 102.312C72.9246 103.157 73.237 103.795 73.8618 104.228C74.4934 104.654 75.2932 104.866 76.2613 104.866ZM87.5765 106.679V90.8608H89.9245V93.25H90.0893C90.3777 92.4673 90.8994 91.8322 91.6546 91.3448C92.4099 90.8573 93.2612 90.6136 94.2086 90.6136C94.3871 90.6136 94.6103 90.617 94.878 90.6239C95.1458 90.6308 95.3483 90.6411 95.4856 90.6548V93.1264C95.4032 93.1058 95.2144 93.0749 94.9192 93.0337C94.6308 92.9857 94.3253 92.9616 94.0027 92.9616C93.2337 92.9616 92.5472 93.123 91.943 93.4456C91.3457 93.7615 90.872 94.2009 90.5218 94.7638C90.1786 95.3199 90.0069 95.955 90.0069 96.669V106.679H87.5765ZM103.858 107.009C102.54 107.009 101.376 106.676 100.367 106.01C99.3578 105.337 98.5682 104.389 97.9984 103.167C97.4286 101.938 97.1436 100.486 97.1436 98.8111C97.1436 97.1496 97.4286 95.7078 97.9984 94.4858C98.5682 93.2637 99.3612 92.3197 100.377 91.6537C101.393 90.9878 102.567 90.6548 103.899 90.6548C104.929 90.6548 105.743 90.8264 106.34 91.1697C106.944 91.5061 107.404 91.8906 107.72 92.3231C108.043 92.7488 108.293 93.0989 108.472 93.3736H108.678V85.588H111.108V106.679H108.76V104.249H108.472C108.293 104.537 108.039 104.901 107.71 105.34C107.38 105.773 106.91 106.161 106.299 106.504C105.688 106.84 104.874 107.009 103.858 107.009ZM104.188 104.825C105.163 104.825 105.986 104.571 106.659 104.063C107.332 103.548 107.844 102.838 108.194 101.931C108.544 101.018 108.719 99.9645 108.719 98.7699C108.719 97.589 108.547 96.5557 108.204 95.6701C107.861 94.7776 107.353 94.0841 106.68 93.5898C106.007 93.0886 105.176 92.838 104.188 92.838C103.158 92.838 102.3 93.1024 101.613 93.631C100.933 94.1528 100.422 94.8634 100.079 95.7628C99.7422 96.6553 99.574 97.6576 99.574 98.7699C99.574 99.8958 99.7457 100.919 100.089 101.839C100.439 102.752 100.954 103.48 101.634 104.022C102.32 104.558 103.172 104.825 104.188 104.825Z" fill="black"/>
<path d="M62.9606 144.88L69.4378 163.247H69.6935L76.1708 144.88H78.9407L70.9293 166.698H68.202L60.1907 144.88H62.9606ZM81.9982 166.698V150.335H84.5124V166.698H81.9982ZM83.2766 147.608C82.7865 147.608 82.364 147.441 82.0088 147.107C81.6608 146.773 81.4868 146.372 81.4868 145.903C81.4868 145.434 81.6608 145.033 82.0088 144.699C82.364 144.365 82.7865 144.198 83.2766 144.198C83.7667 144.198 84.1857 144.365 84.5337 144.699C84.8888 145.033 85.0664 145.434 85.0664 145.903C85.0664 146.372 84.8888 146.773 84.5337 147.107C84.1857 147.441 83.7667 147.608 83.2766 147.608ZM100.708 154L98.4497 154.639C98.3077 154.262 98.0982 153.897 97.8212 153.542C97.5513 153.179 97.182 152.881 96.7132 152.647C96.2445 152.412 95.6443 152.295 94.9128 152.295C93.9114 152.295 93.0769 152.526 92.4092 152.988C91.7487 153.442 91.4185 154.021 91.4185 154.724C91.4185 155.349 91.6457 155.843 92.1003 156.205C92.5548 156.567 93.2651 156.869 94.231 157.11L96.66 157.707C98.123 158.062 99.2132 158.605 99.9305 159.337C100.648 160.061 101.007 160.995 101.007 162.139C101.007 163.076 100.737 163.914 100.197 164.653C99.6642 165.392 98.9185 165.974 97.9597 166.4C97.0009 166.826 95.8858 167.039 94.6145 167.039C92.9455 167.039 91.5641 166.677 90.4703 165.953C89.3766 165.228 88.6841 164.17 88.3929 162.778L90.7793 162.181C91.0065 163.062 91.4362 163.723 92.0683 164.163C92.7075 164.603 93.5421 164.823 94.5719 164.823C95.7438 164.823 96.6742 164.575 97.3631 164.078C98.0591 163.573 98.4071 162.97 98.4071 162.267C98.4071 161.698 98.2082 161.223 97.8105 160.839C97.4128 160.448 96.802 160.157 95.9781 159.966L93.2509 159.326C91.7523 158.971 90.6514 158.421 89.9483 157.675C89.2523 156.922 88.9043 155.981 88.9043 154.852C88.9043 153.929 89.1635 153.112 89.682 152.402C90.2075 151.691 90.9213 151.134 91.8233 150.729C92.7324 150.324 93.7622 150.122 94.9128 150.122C96.5321 150.122 97.8034 150.477 98.7267 151.187C99.6571 151.897 100.318 152.835 100.708 154ZM109.607 167.082C108.57 167.082 107.629 166.887 106.783 166.496C105.938 166.098 105.267 165.527 104.77 164.781C104.273 164.028 104.024 163.119 104.024 162.054C104.024 161.116 104.209 160.356 104.578 159.774C104.947 159.184 105.441 158.723 106.059 158.389C106.677 158.055 107.359 157.806 108.104 157.643C108.857 157.473 109.614 157.338 110.374 157.238C111.368 157.11 112.174 157.015 112.792 156.951C113.417 156.88 113.871 156.762 114.156 156.599C114.447 156.436 114.592 156.152 114.592 155.747V155.662C114.592 154.61 114.305 153.794 113.729 153.211C113.161 152.629 112.298 152.338 111.141 152.338C109.94 152.338 108.999 152.6 108.317 153.126C107.636 153.652 107.156 154.213 106.879 154.809L104.493 153.957C104.919 152.963 105.487 152.189 106.197 151.635C106.915 151.073 107.696 150.683 108.541 150.463C109.393 150.235 110.232 150.122 111.055 150.122C111.581 150.122 112.185 150.186 112.866 150.314C113.555 150.434 114.219 150.686 114.859 151.07C115.505 151.453 116.041 152.032 116.467 152.806C116.893 153.581 117.107 154.618 117.107 155.917V166.698H114.592V164.483H114.464C114.294 164.838 114.01 165.218 113.612 165.622C113.214 166.027 112.685 166.372 112.025 166.656C111.364 166.94 110.558 167.082 109.607 167.082ZM109.99 164.823C110.984 164.823 111.822 164.628 112.504 164.238C113.193 163.847 113.712 163.343 114.06 162.725C114.415 162.107 114.592 161.457 114.592 160.775V158.474C114.486 158.602 114.251 158.719 113.889 158.826C113.534 158.925 113.122 159.014 112.653 159.092C112.192 159.163 111.741 159.227 111.3 159.284C110.867 159.333 110.516 159.376 110.246 159.412C109.592 159.497 108.982 159.635 108.413 159.827C107.852 160.012 107.398 160.292 107.05 160.669C106.709 161.038 106.538 161.542 106.538 162.181C106.538 163.055 106.861 163.716 107.508 164.163C108.161 164.603 108.989 164.823 109.99 164.823ZM148.031 151.698H145.389C145.232 150.939 144.959 150.271 144.568 149.696C144.185 149.12 143.716 148.637 143.162 148.247C142.615 147.849 142.008 147.551 141.34 147.352C140.673 147.153 139.977 147.054 139.252 147.054C137.931 147.054 136.735 147.387 135.662 148.055C134.597 148.723 133.748 149.706 133.116 151.006C132.491 152.306 132.178 153.9 132.178 155.789C132.178 157.679 132.491 159.273 133.116 160.573C133.748 161.872 134.597 162.856 135.662 163.524C136.735 164.191 137.931 164.525 139.252 164.525C139.977 164.525 140.673 164.426 141.34 164.227C142.008 164.028 142.615 163.733 143.162 163.343C143.716 162.945 144.185 162.458 144.568 161.883C144.959 161.301 145.232 160.633 145.389 159.88H148.031C147.832 160.995 147.47 161.993 146.944 162.874C146.418 163.755 145.765 164.504 144.984 165.122C144.203 165.733 143.325 166.198 142.352 166.517C141.387 166.837 140.353 166.997 139.252 166.997C137.391 166.997 135.737 166.542 134.288 165.633C132.839 164.724 131.699 163.431 130.868 161.755C130.037 160.079 129.622 158.091 129.622 155.789C129.622 153.488 130.037 151.5 130.868 149.823C131.699 148.147 132.839 146.855 134.288 145.946C135.737 145.037 137.391 144.582 139.252 144.582C140.353 144.582 141.387 144.742 142.352 145.061C143.325 145.381 144.203 145.85 144.984 146.468C145.765 147.078 146.418 147.824 146.944 148.705C147.47 149.578 147.832 150.576 148.031 151.698ZM156.774 167.082C155.738 167.082 154.796 166.887 153.951 166.496C153.106 166.098 152.435 165.527 151.938 164.781C151.441 164.028 151.192 163.119 151.192 162.054C151.192 161.116 151.377 160.356 151.746 159.774C152.115 159.184 152.609 158.723 153.227 158.389C153.845 158.055 154.527 157.806 155.272 157.643C156.025 157.473 156.782 157.338 157.542 157.238C158.536 157.11 159.342 157.015 159.96 156.951C160.585 156.88 161.039 156.762 161.323 156.599C161.615 156.436 161.76 156.152 161.76 155.747V155.662C161.76 154.61 161.473 153.794 160.897 153.211C160.329 152.629 159.466 152.338 158.309 152.338C157.108 152.338 156.167 152.6 155.485 153.126C154.804 153.652 154.324 154.213 154.047 154.809L151.661 153.957C152.087 152.963 152.655 152.189 153.365 151.635C154.083 151.073 154.864 150.683 155.709 150.463C156.561 150.235 157.399 150.122 158.223 150.122C158.749 150.122 159.353 150.186 160.034 150.314C160.723 150.434 161.387 150.686 162.027 151.07C162.673 151.453 163.209 152.032 163.635 152.806C164.061 153.581 164.274 154.618 164.274 155.917V166.698H161.76V164.483H161.632C161.462 164.838 161.178 165.218 160.78 165.622C160.382 166.027 159.853 166.372 159.193 166.656C158.532 166.94 157.726 167.082 156.774 167.082ZM157.158 164.823C158.152 164.823 158.99 164.628 159.672 164.238C160.361 163.847 160.88 163.343 161.228 162.725C161.583 162.107 161.76 161.457 161.76 160.775V158.474C161.654 158.602 161.419 158.719 161.057 158.826C160.702 158.925 160.29 159.014 159.821 159.092C159.36 159.163 158.909 159.227 158.468 159.284C158.035 159.333 157.684 159.376 157.414 159.412C156.76 159.497 156.149 159.635 155.581 159.827C155.02 160.012 154.566 160.292 154.218 160.669C153.877 161.038 153.706 161.542 153.706 162.181C153.706 163.055 154.029 163.716 154.676 164.163C155.329 164.603 156.157 164.823 157.158 164.823ZM168.863 166.698V150.335H171.292V152.806H171.463C171.761 151.997 172.301 151.34 173.082 150.836C173.863 150.331 174.744 150.079 175.724 150.079C175.909 150.079 176.14 150.083 176.417 150.09C176.694 150.097 176.903 150.108 177.045 150.122V152.679C176.96 152.657 176.765 152.625 176.459 152.583C176.161 152.533 175.845 152.508 175.511 152.508C174.716 152.508 174.005 152.675 173.38 153.009C172.763 153.336 172.273 153.79 171.91 154.372C171.555 154.948 171.378 155.605 171.378 156.343V166.698H168.863ZM185.706 167.039C184.343 167.039 183.139 166.695 182.095 166.006C181.051 165.31 180.234 164.33 179.645 163.066C179.055 161.794 178.76 160.292 178.76 158.559C178.76 156.841 179.055 155.349 179.645 154.085C180.234 152.821 181.054 151.844 182.106 151.155C183.157 150.466 184.371 150.122 185.749 150.122C186.814 150.122 187.656 150.299 188.274 150.654C188.899 151.002 189.375 151.4 189.701 151.848C190.035 152.288 190.295 152.65 190.479 152.934H190.692V144.88H193.206V166.698H190.777V164.184H190.479C190.295 164.483 190.032 164.859 189.691 165.314C189.35 165.761 188.863 166.162 188.231 166.517C187.599 166.865 186.758 167.039 185.706 167.039ZM186.047 164.781C187.056 164.781 187.908 164.518 188.604 163.993C189.3 163.46 189.829 162.725 190.192 161.787C190.554 160.843 190.735 159.752 190.735 158.517C190.735 157.295 190.557 156.226 190.202 155.31C189.847 154.387 189.322 153.669 188.626 153.158C187.929 152.64 187.07 152.38 186.047 152.38C184.982 152.38 184.094 152.654 183.384 153.201C182.681 153.74 182.152 154.475 181.797 155.406C181.449 156.329 181.275 157.366 181.275 158.517C181.275 159.681 181.452 160.74 181.807 161.691C182.17 162.636 182.702 163.389 183.405 163.95C184.116 164.504 184.996 164.781 186.047 164.781Z" fill="black"/>
<path d="M57.6358 246.013V244.735L62.4369 239.479C63.0004 238.864 63.4644 238.329 63.829 237.874C64.1936 237.415 64.4635 236.984 64.6387 236.582C64.8186 236.174 64.9085 235.748 64.9085 235.303C64.9085 234.792 64.7854 234.349 64.5392 233.975C64.2977 233.601 63.9663 233.312 63.5449 233.109C63.1235 232.905 62.65 232.803 62.1244 232.803C61.5657 232.803 61.078 232.919 60.6614 233.151C60.2494 233.378 59.9298 233.698 59.7026 234.11C59.48 234.522 59.3688 235.005 59.3688 235.559H57.6926C57.6926 234.707 57.8891 233.959 58.2821 233.315C58.6751 232.671 59.2101 232.169 59.8872 231.809C60.569 231.449 61.3337 231.269 62.1813 231.269C63.0335 231.269 63.7887 231.449 64.4469 231.809C65.105 232.169 65.6211 232.654 65.9952 233.265C66.3692 233.876 66.5563 234.555 66.5563 235.303C66.5563 235.838 66.4592 236.361 66.2651 236.873C66.0757 237.379 65.7442 237.945 65.2708 238.57C64.802 239.191 64.151 239.948 63.3176 240.843L60.0506 244.337V244.451H66.8119V246.013H57.6358ZM74.66 246.212C73.7225 246.212 72.8868 246.051 72.1529 245.729C71.4237 245.407 70.8437 244.96 70.4128 244.387C69.9867 243.809 69.7547 243.139 69.7168 242.377H71.5065C71.5444 242.846 71.7054 243.251 71.9895 243.592C72.2736 243.928 72.6453 244.188 73.1046 244.373C73.5638 244.557 74.0728 244.65 74.6315 244.65C75.2565 244.65 75.8105 244.541 76.2935 244.323C76.7764 244.105 77.1552 243.802 77.4298 243.414C77.7045 243.026 77.8418 242.576 77.8418 242.065C77.8418 241.53 77.7092 241.058 77.444 240.651C77.1789 240.239 76.7906 239.917 76.2793 239.685C75.7679 239.453 75.1429 239.337 74.4043 239.337H73.2395V237.775H74.4043C74.9819 237.775 75.4886 237.671 75.9242 237.462C76.3645 237.254 76.7078 236.96 76.954 236.582C77.2049 236.203 77.3304 235.758 77.3304 235.246C77.3304 234.754 77.2215 234.325 77.0037 233.961C76.7859 233.596 76.4781 233.312 76.0804 233.109C75.6874 232.905 75.2234 232.803 74.6884 232.803C74.1865 232.803 73.713 232.896 73.2679 233.08C72.8276 233.26 72.4677 233.523 72.1884 233.869C71.909 234.209 71.7575 234.621 71.7338 235.104H70.0293C70.0577 234.342 70.2873 233.674 70.7182 233.101C71.1491 232.524 71.7125 232.074 72.4085 231.752C73.1093 231.43 73.8787 231.269 74.7168 231.269C75.6164 231.269 76.3882 231.451 77.0321 231.816C77.6761 232.176 78.1708 232.652 78.5165 233.244C78.8621 233.835 79.035 234.475 79.035 235.161C79.035 235.98 78.8195 236.679 78.3886 237.256C77.9625 237.834 77.3825 238.234 76.6486 238.457V238.57C77.5672 238.722 78.2845 239.112 78.8006 239.742C79.3167 240.367 79.5747 241.141 79.5747 242.065C79.5747 242.855 79.3593 243.566 78.9284 244.195C78.5023 244.82 77.9199 245.313 77.1813 245.673C76.4426 246.032 75.6022 246.212 74.66 246.212ZM87.3943 246.212C86.4568 246.212 85.6211 246.051 84.8872 245.729C84.1581 245.407 83.578 244.96 83.1472 244.387C82.721 243.809 82.489 243.139 82.4511 242.377H84.2409C84.2788 242.846 84.4398 243.251 84.7239 243.592C85.008 243.928 85.3797 244.188 85.8389 244.373C86.2982 244.557 86.8072 244.65 87.3659 244.65C87.9909 244.65 88.5449 244.541 89.0279 244.323C89.5108 244.105 89.8896 243.802 90.1642 243.414C90.4388 243.026 90.5762 242.576 90.5762 242.065C90.5762 241.53 90.4436 241.058 90.1784 240.651C89.9133 240.239 89.525 239.917 89.0137 239.685C88.5023 239.453 87.8773 239.337 87.1387 239.337H85.9739V237.775H87.1387C87.7163 237.775 88.2229 237.671 88.6585 237.462C89.0989 237.254 89.4422 236.96 89.6884 236.582C89.9393 236.203 90.0648 235.758 90.0648 235.246C90.0648 234.754 89.9559 234.325 89.7381 233.961C89.5203 233.596 89.2125 233.312 88.8148 233.109C88.4218 232.905 87.9578 232.803 87.4227 232.803C86.9208 232.803 86.4474 232.896 86.0023 233.08C85.5619 233.26 85.2021 233.523 84.9227 233.869C84.6434 234.209 84.4919 234.621 84.4682 235.104H82.7636C82.7921 234.342 83.0217 233.674 83.4526 233.101C83.8834 232.524 84.4469 232.074 85.1429 231.752C85.8437 231.43 86.6131 231.269 87.4512 231.269C88.3508 231.269 89.1226 231.451 89.7665 231.816C90.4104 232.176 90.9052 232.652 91.2509 233.244C91.5965 233.835 91.7693 234.475 91.7693 235.161C91.7693 235.98 91.5539 236.679 91.123 237.256C90.6969 237.834 90.1169 238.234 89.383 238.457V238.57C90.3015 238.722 91.0189 239.112 91.535 239.742C92.0511 240.367 92.3091 241.141 92.3091 242.065C92.3091 242.855 92.0937 243.566 91.6628 244.195C91.2367 244.82 90.6543 245.313 89.9156 245.673C89.177 246.032 88.3366 246.212 87.3943 246.212ZM99.873 246.212C98.8976 246.212 98.0359 246.039 97.2878 245.694C96.5444 245.343 95.9644 244.863 95.5477 244.252C95.1311 243.637 94.9251 242.936 94.9298 242.15C94.9251 241.534 95.0458 240.966 95.2921 240.445C95.5383 239.92 95.8744 239.482 96.3006 239.131C96.7315 238.776 97.212 238.551 97.7423 238.457V238.371C97.0463 238.191 96.4923 237.801 96.0804 237.2C95.6685 236.593 95.4649 235.905 95.4696 235.133C95.4649 234.394 95.6519 233.734 96.0307 233.151C96.4095 232.569 96.9303 232.11 97.5932 231.773C98.2608 231.437 99.0208 231.269 99.873 231.269C100.716 231.269 101.469 231.437 102.132 231.773C102.794 232.11 103.315 232.569 103.694 233.151C104.078 233.734 104.272 234.394 104.276 235.133C104.272 235.905 104.061 236.593 103.644 237.2C103.232 237.801 102.686 238.191 102.004 238.371V238.457C102.529 238.551 103.003 238.776 103.424 239.131C103.846 239.482 104.182 239.92 104.433 240.445C104.684 240.966 104.811 241.534 104.816 242.15C104.811 242.936 104.598 243.637 104.177 244.252C103.76 244.863 103.18 245.343 102.437 245.694C101.698 246.039 100.844 246.212 99.873 246.212ZM99.873 244.65C100.531 244.65 101.099 244.543 101.578 244.33C102.056 244.117 102.425 243.816 102.686 243.428C102.946 243.04 103.079 242.585 103.083 242.065C103.079 241.515 102.936 241.03 102.657 240.609C102.378 240.187 101.997 239.856 101.514 239.614C101.035 239.373 100.489 239.252 99.873 239.252C99.2528 239.252 98.6988 239.373 98.2111 239.614C97.7281 239.856 97.347 240.187 97.0676 240.609C96.793 241.03 96.6581 241.515 96.6628 242.065C96.6581 242.585 96.7835 243.04 97.0392 243.428C97.2996 243.816 97.6713 244.117 98.1543 244.33C98.6372 244.543 99.2101 244.65 99.873 244.65ZM99.873 237.746C100.394 237.746 100.856 237.642 101.258 237.434C101.665 237.226 101.985 236.934 102.217 236.56C102.449 236.186 102.567 235.748 102.572 235.246C102.567 234.754 102.451 234.325 102.224 233.961C101.997 233.592 101.682 233.307 101.279 233.109C100.877 232.905 100.408 232.803 99.873 232.803C99.3285 232.803 98.8527 232.905 98.4455 233.109C98.0383 233.307 97.7234 233.592 97.5009 233.961C97.2783 234.325 97.1694 234.754 97.1742 235.246C97.1694 235.748 97.2807 236.186 97.508 236.56C97.74 236.934 98.0596 237.226 98.4668 237.434C98.874 237.642 99.3427 237.746 99.873 237.746ZM118.078 246.212C117.14 246.212 116.305 246.051 115.571 245.729C114.842 245.407 114.262 244.96 113.831 244.387C113.405 243.809 113.173 243.139 113.135 242.377H114.925C114.962 242.846 115.123 243.251 115.407 243.592C115.692 243.928 116.063 244.188 116.523 244.373C116.982 244.557 117.491 244.65 118.05 244.65C118.675 244.65 119.228 244.541 119.711 244.323C120.194 244.105 120.573 243.802 120.848 243.414C121.122 243.026 121.26 242.576 121.26 242.065C121.26 241.53 121.127 241.058 120.862 240.651C120.597 240.239 120.209 239.917 119.697 239.685C119.186 239.453 118.561 239.337 117.822 239.337H116.657V237.775H117.822C118.4 237.775 118.907 237.671 119.342 237.462C119.782 237.254 120.126 236.96 120.372 236.582C120.623 236.203 120.748 235.758 120.748 235.246C120.748 234.754 120.639 234.325 120.422 233.961C120.204 233.596 119.896 233.312 119.498 233.109C119.105 232.905 118.641 232.803 118.106 232.803C117.604 232.803 117.131 232.896 116.686 233.08C116.246 233.26 115.886 233.523 115.606 233.869C115.327 234.209 115.175 234.621 115.152 235.104H113.447C113.476 234.342 113.705 233.674 114.136 233.101C114.567 232.524 115.13 232.074 115.827 231.752C116.527 231.43 117.297 231.269 118.135 231.269C119.034 231.269 119.806 231.451 120.45 231.816C121.094 232.176 121.589 232.652 121.934 233.244C122.28 233.835 122.453 234.475 122.453 235.161C122.453 235.98 122.237 236.679 121.807 237.256C121.38 237.834 120.8 238.234 120.067 238.457V238.57C120.985 238.722 121.702 239.112 122.219 239.742C122.735 240.367 122.993 241.141 122.993 242.065C122.993 242.855 122.777 243.566 122.346 244.195C121.92 244.82 121.338 245.313 120.599 245.673C119.861 246.032 119.02 246.212 118.078 246.212ZM125.557 243.03V241.582L131.949 231.468H133V233.712H132.29L127.46 241.354V241.468H136.068V243.03H125.557ZM132.403 246.013V242.59V241.915V231.468H134.079V246.013H132.403ZM138.389 243.03V241.582L144.781 231.468H145.832V233.712H145.122L140.292 241.354V241.468H148.9V243.03H138.389ZM145.235 246.013V242.59V241.915V231.468H146.911V246.013H145.235ZM152.016 246.013L158.522 233.144V233.03H151.022V231.468H160.34V233.116L153.863 246.013H152.016ZM173.271 246.212C172.296 246.212 171.434 246.039 170.686 245.694C169.943 245.343 169.363 244.863 168.946 244.252C168.53 243.637 168.324 242.936 168.328 242.15C168.324 241.534 168.444 240.966 168.69 240.445C168.937 239.92 169.273 239.482 169.699 239.131C170.13 238.776 170.61 238.551 171.141 238.457V238.371C170.445 238.191 169.891 237.801 169.479 237.2C169.067 236.593 168.863 235.905 168.868 235.133C168.863 234.394 169.05 233.734 169.429 233.151C169.808 232.569 170.329 232.11 170.992 231.773C171.659 231.437 172.419 231.269 173.271 231.269C174.114 231.269 174.867 231.437 175.53 231.773C176.193 232.11 176.714 232.569 177.092 233.151C177.476 233.734 177.67 234.394 177.675 235.133C177.67 235.905 177.459 236.593 177.043 237.2C176.631 237.801 176.084 238.191 175.402 238.371V238.457C175.928 238.551 176.401 238.776 176.823 239.131C177.244 239.482 177.58 239.92 177.831 240.445C178.082 240.966 178.21 241.534 178.215 242.15C178.21 242.936 177.997 243.637 177.575 244.252C177.159 244.863 176.579 245.343 175.835 245.694C175.097 246.039 174.242 246.212 173.271 246.212ZM173.271 244.65C173.93 244.65 174.498 244.543 174.976 244.33C175.454 244.117 175.824 243.816 176.084 243.428C176.344 243.04 176.477 242.585 176.482 242.065C176.477 241.515 176.335 241.03 176.056 240.609C175.776 240.187 175.395 239.856 174.912 239.614C174.434 239.373 173.887 239.252 173.271 239.252C172.651 239.252 172.097 239.373 171.61 239.614C171.127 239.856 170.745 240.187 170.466 240.609C170.191 241.03 170.057 241.515 170.061 242.065C170.057 242.585 170.182 243.04 170.438 243.428C170.698 243.816 171.07 244.117 171.553 244.33C172.036 244.543 172.609 244.65 173.271 244.65ZM173.271 237.746C173.792 237.746 174.254 237.642 174.656 237.434C175.064 237.226 175.383 236.934 175.615 236.56C175.847 236.186 175.966 235.748 175.97 235.246C175.966 234.754 175.85 234.325 175.622 233.961C175.395 233.592 175.08 233.307 174.678 233.109C174.275 232.905 173.807 232.803 173.271 232.803C172.727 232.803 172.251 232.905 171.844 233.109C171.437 233.307 171.122 233.592 170.899 233.961C170.677 234.325 170.568 234.754 170.573 235.246C170.568 235.748 170.679 236.186 170.906 236.56C171.138 236.934 171.458 237.226 171.865 237.434C172.272 237.642 172.741 237.746 173.271 237.746ZM185.596 246.212C184.62 246.212 183.759 246.039 183.01 245.694C182.267 245.343 181.687 244.863 181.27 244.252C180.854 243.637 180.648 242.936 180.652 242.15C180.648 241.534 180.769 240.966 181.015 240.445C181.261 239.92 181.597 239.482 182.023 239.131C182.454 238.776 182.935 238.551 183.465 238.457V238.371C182.769 238.191 182.215 237.801 181.803 237.2C181.391 236.593 181.188 235.905 181.192 235.133C181.188 234.394 181.375 233.734 181.753 233.151C182.132 232.569 182.653 232.11 183.316 231.773C183.983 231.437 184.743 231.269 185.596 231.269C186.438 231.269 187.191 231.437 187.854 231.773C188.517 232.11 189.038 232.569 189.417 233.151C189.8 233.734 189.994 234.394 189.999 235.133C189.994 235.905 189.784 236.593 189.367 237.2C188.955 237.801 188.408 238.191 187.726 238.371V238.457C188.252 238.551 188.725 238.776 189.147 239.131C189.568 239.482 189.904 239.92 190.155 240.445C190.406 240.966 190.534 241.534 190.539 242.15C190.534 242.936 190.321 243.637 189.9 244.252C189.483 244.863 188.903 245.343 188.16 245.694C187.421 246.039 186.566 246.212 185.596 246.212ZM185.596 244.65C186.254 244.65 186.822 244.543 187.3 244.33C187.778 244.117 188.148 243.816 188.408 243.428C188.669 243.04 188.801 242.585 188.806 242.065C188.801 241.515 188.659 241.03 188.38 240.609C188.1 240.187 187.719 239.856 187.236 239.614C186.758 239.373 186.211 239.252 185.596 239.252C184.975 239.252 184.421 239.373 183.934 239.614C183.451 239.856 183.07 240.187 182.79 240.609C182.516 241.03 182.381 241.515 182.385 242.065C182.381 242.585 182.506 243.04 182.762 243.428C183.022 243.816 183.394 244.117 183.877 244.33C184.36 244.543 184.933 244.65 185.596 244.65ZM185.596 237.746C186.117 237.746 186.578 237.642 186.981 237.434C187.388 237.226 187.707 236.934 187.939 236.56C188.171 236.186 188.29 235.748 188.295 235.246C188.29 234.754 188.174 234.325 187.947 233.961C187.719 233.592 187.404 233.307 187.002 233.109C186.599 232.905 186.131 232.803 185.596 232.803C185.051 232.803 184.575 232.905 184.168 233.109C183.761 233.307 183.446 233.592 183.224 233.961C183.001 234.325 182.892 234.754 182.897 235.246C182.892 235.748 183.003 236.186 183.231 236.56C183.463 236.934 183.782 237.226 184.189 237.434C184.597 237.642 185.065 237.746 185.596 237.746ZM193.715 246.013L200.221 233.144V233.03H192.721V231.468H202.039V233.116L195.562 246.013H193.715Z" fill="black"/>
</svg>
