<svg width="147" height="87" viewBox="0 0 147 87" fill="none" xmlns="http://www.w3.org/2000/svg">
<g clip-path="url(#clip0_272_1462)">
<path d="M34.6857 22.7015H62.4113V24.8624H37.2272V41.1246H60.9097V43.2853H37.2272V61.1397H62.7001V63.3003H34.6857V22.7015ZM64.8953 22.7015H67.8411L80.8951 40.556L94.2379 22.7012L112.386 0.0224609L82.5701 42.4326L97.9347 63.3003H94.8733L80.8951 44.3088L66.8589 63.3003H63.8554L79.3355 42.4323L64.8953 22.7015ZM99.0321 24.8624V22.7012H130.628V24.8621H116.072V63.3001H113.53V24.8624H99.0321ZM0 22.7012H3.17687L46.984 86.9774L28.8809 63.3001L2.65691 25.772L2.54149 63.3006H0L0 22.7012ZM130.372 60.4872C129.852 60.4872 129.463 60.0931 129.463 59.583C129.463 59.0734 129.852 58.6787 130.372 58.6787C130.897 58.6787 131.28 59.0731 131.28 59.583C131.28 60.0928 130.897 60.4872 130.372 60.4872ZM132.869 58.1084H134.229C134.247 58.8305 134.785 59.3161 135.576 59.3161C136.461 59.3161 136.961 58.7941 136.961 57.817V51.6265H138.346V57.8229C138.346 59.583 137.307 60.5967 135.589 60.5967C133.975 60.5967 132.869 59.6134 132.869 58.1081V58.1084ZM140.157 58.0296H141.529C141.647 58.8609 142.475 59.3887 143.668 59.3887C144.781 59.3887 145.597 58.8243 145.597 58.0476C145.597 57.3801 145.078 56.9795 143.897 56.7064L142.747 56.4334C141.133 56.0629 140.398 55.2983 140.398 54.0118C140.398 52.4522 141.696 51.4143 143.643 51.4143C145.454 51.4143 146.777 52.4519 146.858 53.9268H145.51C145.38 53.1197 144.663 52.6158 143.625 52.6158C142.531 52.6158 141.802 53.1318 141.802 53.9206C141.802 54.5455 142.271 54.9039 143.433 55.1708L144.416 55.4075C146.246 55.8264 147 56.5547 147 57.8716C147 59.5466 145.677 60.5967 143.563 60.5967C141.585 60.5967 140.256 59.5951 140.157 58.0293V58.0296Z" fill="black"/>
</g>
<defs>
<clipPath id="clip0_272_1462">
<rect width="147" height="87" fill="white"/>
</clipPath>
</defs>
</svg>
