<svg width="248" height="48" viewBox="0 0 248 48" fill="none" xmlns="http://www.w3.org/2000/svg">
<g clip-path="url(#clip0_272_1464)">
<path d="M33.348 29.8059L32.3115 31.5895C31.9992 32.1268 31.4211 32.458 30.7954 32.458H22.8548C22.2291 32.458 21.6511 32.1268 21.3388 31.5895L20.3022 29.8059H33.348ZM36.2499 24.8126L34.4222 27.9575H19.228L17.4004 24.8126H36.2499ZM34.4894 19.9298L36.2528 22.9643H17.3975L19.1609 19.9298H34.4894ZM30.7954 15.314C31.4211 15.314 31.9992 15.6451 32.3115 16.1824L33.4152 18.0815H20.2351L21.3388 16.1824C21.6511 15.6451 22.2291 15.314 22.8548 15.314H30.7954Z" fill="#00435B"/>
<path d="M11.2981 14.4864C10.4185 10.2596 10.2297 7.01774 10.7983 4.66368C11.1365 3.26362 11.7547 2.12148 12.6948 1.29744C13.6873 0.427464 14.9421 0.000567729 16.352 0.000567729C18.6779 0.000567729 21.1231 1.05165 23.7362 3.04842C24.802 3.86287 25.9082 4.84455 27.057 5.99403C27.1484 5.87738 27.2518 5.76735 27.3669 5.66565C30.6148 2.79746 33.3493 1.01542 35.6881 0.328319C37.0787 -0.080232 38.3844 -0.119155 39.5734 0.277358C40.8284 0.695903 41.8284 1.5611 42.534 2.77296C43.6983 4.77296 44.0054 7.40098 43.5713 10.6459C43.3944 11.9686 43.0918 13.4094 42.6644 14.9704C42.8257 14.9897 42.9873 15.0252 43.1474 15.0777C47.2682 16.431 50.1862 17.8863 51.9529 19.5494C53.004 20.5389 53.6904 21.6405 53.9385 22.8599C54.2004 24.147 53.945 25.438 53.2403 26.649C52.0781 28.6461 49.9411 30.2212 46.8967 31.4688C45.6743 31.9698 44.2912 32.4235 42.7458 32.8315C42.8163 32.9893 42.871 33.1568 42.9076 33.3326C43.7873 37.5593 43.976 40.8012 43.4074 43.1553C43.0693 44.5553 42.451 45.6975 41.511 46.5215C40.5185 47.3915 39.2637 47.8184 37.8538 47.8184C35.5278 47.8184 33.0827 46.7673 30.4696 44.7705C29.3924 43.9474 28.2741 42.9535 27.1121 41.7882C26.9925 41.9735 26.8457 42.1458 26.6721 42.2991C23.4242 45.1673 20.6898 46.9493 18.351 47.6364C16.9603 48.0449 15.6547 48.0839 14.4657 47.6874C13.2107 47.2688 12.2107 46.4036 11.5051 45.1918C10.3407 43.1918 10.0337 40.5637 10.4678 37.3188C10.6511 35.9483 10.9693 34.4511 11.4215 32.8245C11.2447 32.8068 11.0672 32.7697 10.8917 32.7121C6.77083 31.3588 3.85282 29.9036 2.08619 28.2404C1.03508 27.2509 0.348702 26.1493 0.10058 24.9299C-0.161314 23.6428 0.0940526 22.3518 0.798769 21.1408C1.96099 19.1437 4.09797 17.5686 7.14238 16.321C8.40123 15.8051 9.83048 15.3393 11.4318 14.922C11.3748 14.7835 11.3297 14.638 11.2981 14.4864Z" fill="#002B3B"/>
<path d="M40.0325 33.7482C40.4423 33.6762 40.8349 33.9366 40.9264 34.3359L40.9314 34.3596L40.9751 34.5843C42.3915 41.9636 41.3937 45.6533 37.9819 45.6533C34.6437 45.6533 30.3943 42.5049 25.2336 36.2081C25.1196 36.069 25.0581 35.8948 25.0596 35.7156C25.0634 35.2981 25.4014 34.9611 25.8198 34.952L25.844 34.9519L26.1158 34.9538C28.2874 34.9654 30.3986 34.8904 32.4492 34.7287C34.87 34.5377 37.3977 34.2109 40.0325 33.7482ZM16.6013 28.1702L16.6144 28.1921L16.7507 28.4279C17.8435 30.3106 18.982 32.0975 20.1663 33.7886C21.561 35.7801 23.1294 37.7963 24.8716 39.837C25.1411 40.1527 25.1103 40.6213 24.8062 40.9L24.7865 40.9175L24.6112 41.067C18.8472 45.9612 15.1008 46.9383 13.372 43.9982C11.6798 41.1202 12.2933 35.8874 15.2126 28.2995C15.2767 28.1328 15.3973 27.9933 15.5537 27.9048C15.9191 27.6981 16.3825 27.8175 16.6013 28.1702ZM42.9575 17.2814L42.9811 17.289L43.198 17.3633C50.3128 19.8158 53.0159 22.5111 51.3073 25.4491C49.6362 28.3226 44.7782 30.4147 36.7334 31.7255C36.554 31.7547 36.3699 31.7207 36.2132 31.6294C35.843 31.4137 35.7193 30.9415 35.9369 30.5747C37.0892 28.6324 38.127 26.6998 39.0502 24.7768C40.0974 22.596 41.08 20.2552 41.9982 17.7544C42.1374 17.3753 42.5464 17.1693 42.9338 17.2746L42.9575 17.2814ZM17.8257 16.0466C18.1959 16.2622 18.3196 16.7344 18.102 17.1013C16.9497 19.0436 15.912 20.9762 14.9887 22.8991C13.9416 25.08 12.9589 27.4208 12.0407 29.9215C11.8986 30.3084 11.4757 30.515 11.0814 30.3946L11.0578 30.3869L10.8409 30.3127C3.72613 27.8601 1.02305 25.1648 2.73164 22.2268C4.40269 19.3534 9.26066 17.2613 17.3055 15.9505C17.4849 15.9213 17.669 15.9552 17.8257 16.0466ZM40.6669 3.96673C42.3591 6.84466 41.7456 12.0775 38.8264 19.6654C38.7622 19.8321 38.6416 19.9716 38.4853 20.0601C38.1198 20.2668 37.6564 20.1474 37.4376 19.7947L37.4245 19.7728L37.2882 19.537C36.1954 17.6543 35.0569 15.8674 33.8726 14.1763C32.4779 12.1848 30.9095 10.1686 29.1674 8.12791C28.8979 7.81221 28.9286 7.3436 29.2327 7.06492L29.2524 7.04739L29.4277 6.89788C35.1917 2.00366 38.9381 1.0266 40.6669 3.96673ZM16.3486 2.21533C19.6868 2.21533 23.9362 5.36371 29.0969 11.6605C29.2109 11.7996 29.2724 11.9738 29.2709 12.153C29.2671 12.5705 28.929 12.9075 28.5107 12.9166L28.4865 12.9167L28.2147 12.9148C26.0431 12.9031 23.9319 12.9782 21.8812 13.1399C19.4605 13.3308 16.9328 13.6577 14.2979 14.1204C13.8882 14.1924 13.4956 13.932 13.4041 13.5327L13.3991 13.509L13.3554 13.2843C11.939 5.90498 12.9367 2.21533 16.3486 2.21533Z" fill="#FF4154"/>
<path d="M23.4933 15.4104H30.1586C31.1334 15.4104 32.0337 15.9271 32.5189 16.7649L35.8657 22.5437C36.3471 23.3751 36.3471 24.3971 35.8657 25.2285L32.5189 31.0073C32.0337 31.8451 31.1334 32.3618 30.1586 32.3618H23.4933C22.5185 32.3618 21.6182 31.8451 21.133 31.0073L17.7862 25.2285C17.3048 24.3971 17.3048 23.3751 17.7862 22.5437L21.133 16.7649C21.6182 15.9271 22.5185 15.4104 23.4933 15.4104ZM29.1428 17.1546C30.1181 17.1546 31.0188 17.6718 31.5038 18.5103L33.8376 22.545C34.318 23.3757 34.318 24.3965 33.8376 25.2272L31.5038 29.2619C31.0188 30.1004 30.1181 30.6176 29.1428 30.6176H24.5091C23.5338 30.6176 22.6331 30.1004 22.1481 29.2619L19.8143 25.2272C19.3338 24.3965 19.3338 23.3757 19.8143 22.545L22.1481 18.5103C22.6331 17.6718 23.5338 17.1546 24.5091 17.1546H29.1428ZM28.0478 19.0623H25.6041C24.6298 19.0623 23.7298 19.5784 23.2444 20.4156L22.0112 22.5426C21.5289 23.3745 21.5289 24.3977 22.0112 25.2296L23.2444 27.3566C23.7298 28.1937 24.6298 28.7099 25.6041 28.7099H28.0478C29.0221 28.7099 29.9221 28.1937 30.4075 27.3566L31.6407 25.2296C32.123 24.3977 32.123 23.3745 31.6407 22.5426L30.4075 20.4156C29.9221 19.5784 29.0221 19.0623 28.0478 19.0623ZM26.9935 20.8883C27.9671 20.8883 28.8665 21.4036 29.3521 22.2398L29.527 22.5408C30.0107 23.3736 30.0107 24.3986 29.527 25.2314L29.3521 25.5324C28.8665 26.3686 27.9671 26.8839 26.9935 26.8839H26.6584C25.6848 26.8839 24.7854 26.3686 24.2998 25.5324L24.1249 25.2314C23.6412 24.3986 23.6412 23.3736 24.1249 22.5408L24.2998 22.2398C24.7854 21.4036 25.6848 20.8883 26.6584 20.8883H26.9935ZM26.8264 22.687C26.3931 22.687 25.9935 22.9155 25.7771 23.2865C25.5608 23.6575 25.5608 24.1147 25.7771 24.4857C25.9935 24.8567 26.3931 25.0852 26.8255 25.0852C27.2588 25.0852 27.6584 24.8567 27.8748 24.4857C28.0911 24.1147 28.0911 23.6575 27.8748 23.2865C27.6584 22.9155 27.2588 22.687 26.8264 22.687ZM17.0088 23.8861H19.1874Z" fill="#FFD94C"/>
<path d="M69.7167 36.5031V27.6772H74.5846L79.164 36.5031H85.294L80.5703 26.8553C81.9886 26.2836 83.1064 25.295 83.9237 23.8895C84.7411 22.484 85.1497 21.0428 85.1497 19.5658C85.1497 17.1836 84.4706 15.2422 83.1124 13.7414C81.7542 12.2406 79.5607 11.4902 76.5318 11.4902H64.2358V36.5031H69.7167ZM76.6039 22.5316H69.7167V16.6357H76.6039C77.6135 16.6357 78.3407 16.9156 78.7854 17.4755C79.2301 18.0353 79.4525 18.7321 79.4525 19.5658C79.4525 21.543 78.503 22.5316 76.6039 22.5316ZM93.4983 36.9319C96.431 36.9319 98.8229 35.8242 100.674 33.6088L97.645 30.6072C96.5632 31.8936 95.181 32.5368 93.4983 32.5368C92.4646 32.5368 91.6112 32.2569 90.9381 31.6971C90.265 31.1373 89.9045 30.2856 89.8564 29.1422H101.647C101.744 28.5228 101.792 27.6295 101.792 26.4622C101.792 23.6513 101.022 21.5073 99.484 20.0303C97.9455 18.5534 95.9503 17.8149 93.4983 17.8149C90.8059 17.8149 88.6725 18.6725 87.0979 20.3877C85.5234 22.1028 84.7361 24.4255 84.7361 27.3556C84.7361 30.3571 85.5174 32.7036 87.0799 34.3949C88.6424 36.0863 90.7819 36.9319 93.4983 36.9319ZM96.7796 25.2473H89.8924C90.0126 24.2945 90.3732 23.55 90.9742 23.014C91.5752 22.478 92.3444 22.21 93.2819 22.21C95.3493 22.21 96.5152 23.2225 96.7796 25.2473ZM109.239 36.9319C111.186 36.9319 112.712 36.3364 113.818 35.1453V36.5031H119.011V24.9615C119.011 20.1971 116.402 17.8149 111.186 17.8149C108.181 17.8149 105.549 18.5772 103.289 20.1018L104.912 24.0682C106.859 22.7818 108.83 22.1386 110.825 22.1386C111.763 22.1386 112.496 22.3589 113.025 22.7996C113.554 23.2403 113.818 23.8776 113.818 24.7113V25.7119C112.857 25.2831 111.51 25.0687 109.78 25.0687C107.784 25.0687 106.042 25.5749 104.551 26.5873C103.061 27.5997 102.316 29.0469 102.316 30.9288C102.316 32.8584 102.959 34.3413 104.245 35.3776C105.531 36.4138 107.196 36.9319 109.239 36.9319ZM110.248 32.5725C108.373 32.5725 107.436 32.0366 107.436 30.9646C107.436 29.7973 108.518 29.2137 110.681 29.2137C111.811 29.2137 112.857 29.3566 113.818 29.6425V31.2862C112.736 32.1438 111.547 32.5725 110.248 32.5725ZM129.054 36.9319C133.237 36.9319 135.941 34.8714 137.167 30.7502L132.155 29.3209C131.602 31.0837 130.568 31.9651 129.054 31.9651C128.092 31.9651 127.299 31.5423 126.674 30.6966C126.049 29.8509 125.737 28.7491 125.737 27.3913C125.737 26.0335 126.055 24.9257 126.692 24.0682C127.329 23.2106 128.14 22.7818 129.126 22.7818C130.544 22.7818 131.554 23.5679 132.155 25.1401L137.131 23.5322C135.929 19.7207 133.237 17.8149 129.054 17.8149C126.458 17.8149 124.372 18.6785 122.798 20.4055C121.223 22.1326 120.436 24.4612 120.436 27.3913C120.436 30.369 121.217 32.7036 122.78 34.3949C124.342 36.0863 126.434 36.9319 129.054 36.9319ZM144.398 36.9319C146.057 36.9319 147.451 36.658 148.581 36.1101L149.158 31.7507C148.1 32.2271 147.042 32.4653 145.984 32.4653C145.696 32.4653 145.45 32.376 145.245 32.1974C145.041 32.0187 144.939 31.7626 144.939 31.4291V22.7818H148.941V18.2437H144.939V10.7041L139.746 13.1697V18.2437H137.222V22.7818H139.746V31.9294C139.746 35.2644 141.297 36.9319 144.398 36.9319ZM172.994 39.3975L177.033 36.8247L175.086 34.0019C177.465 31.5482 178.655 28.2131 178.655 23.9967C178.655 22.3768 178.445 20.8284 178.024 19.3514C177.604 17.8745 176.973 16.4988 176.131 15.2243C175.29 13.9498 174.124 12.9374 172.634 12.187C171.143 11.4366 169.424 11.0614 167.477 11.0614C165.891 11.0614 164.454 11.3116 163.168 11.8118C161.882 12.3121 160.818 12.985 159.977 13.8307C159.136 14.6764 158.433 15.659 157.868 16.7787C157.303 17.8983 156.894 19.0596 156.642 20.2626C156.389 21.4656 156.263 22.7103 156.263 23.9967C156.263 25.2831 156.389 26.5278 156.642 27.7308C156.894 28.9338 157.303 30.0951 157.868 31.2147C158.433 32.3343 159.136 33.317 159.977 34.1627C160.818 35.0083 161.882 35.6813 163.168 36.1816C164.454 36.6818 165.891 36.9319 167.477 36.9319C168.679 36.9319 169.845 36.7771 170.975 36.4674L172.994 39.3975ZM167.477 31.6792C166.492 31.6792 165.626 31.447 164.881 30.9824C164.136 30.5179 163.559 29.8985 163.15 29.1243C162.742 28.3501 162.441 27.5342 162.249 26.6766C162.057 25.8191 161.96 24.9257 161.96 23.9967C161.96 22.7579 162.117 21.5847 162.429 20.477C162.742 19.3693 163.337 18.3926 164.214 17.5469C165.091 16.7012 166.179 16.2784 167.477 16.2784C168.775 16.2784 169.857 16.6893 170.723 17.5112C171.588 18.333 172.177 19.2978 172.489 20.4055C172.802 21.5133 172.958 22.7103 172.958 23.9967C172.958 26.093 172.574 27.7844 171.804 29.0707L169.785 26.0692L165.71 28.6777L167.766 31.6435H167.585L167.477 31.6792ZM186.571 36.9319C188.783 36.9319 190.466 36.2292 191.619 34.8237V36.5031H196.848V18.2437H191.619V27.8201C191.619 29.2256 191.361 30.2618 190.844 30.9288C190.327 31.5958 189.516 31.9294 188.41 31.9294C187.304 31.9294 186.535 31.5958 186.102 30.9288C185.67 30.2618 185.453 29.2018 185.453 27.7486V18.2437H180.225V30.107C180.225 31.3457 180.423 32.4296 180.82 33.3587C181.217 34.2877 181.739 35.0024 182.388 35.5026C183.038 36.0029 183.711 36.3662 184.408 36.5925C185.105 36.8188 185.826 36.9319 186.571 36.9319ZM207.396 36.9319C210.329 36.9319 212.721 35.8242 214.572 33.6088L211.543 30.6072C210.461 31.8936 209.079 32.5368 207.396 32.5368C206.362 32.5368 205.509 32.2569 204.836 31.6971C204.163 31.1373 203.802 30.2856 203.754 29.1422H215.545C215.641 28.5228 215.689 27.6295 215.689 26.4622C215.689 23.6513 214.92 21.5073 213.382 20.0303C211.843 18.5534 209.848 17.8149 207.396 17.8149C204.704 17.8149 202.57 18.6725 200.996 20.3877C199.421 22.1028 198.634 24.4255 198.634 27.3556C198.634 30.3571 199.415 32.7036 200.978 34.3949C202.54 36.0863 204.68 36.9319 207.396 36.9319ZM210.677 25.2473H203.79C203.91 24.2945 204.271 23.55 204.872 23.014C205.473 22.478 206.242 22.21 207.18 22.21C209.247 22.21 210.413 23.2225 210.677 25.2473ZM222.524 36.5031V26.6052C222.524 24.0801 223.581 22.8175 225.697 22.8175C226.875 22.8175 227.968 23.2344 228.978 24.0682L229.663 19.3514C228.678 18.3271 227.464 17.8149 226.021 17.8149C225.18 17.8149 224.447 18.0412 223.822 18.4938C223.197 18.9465 222.764 19.411 222.524 19.8874V18.2437H217.295V36.5031H222.524ZM238.192 43.4353L248 18.2437H242.627L238.913 27.9988C238.649 28.7134 238.456 29.2851 238.336 29.7139C238.216 29.2851 238.024 28.7134 237.759 27.9988L234.009 18.2437H228.6L235.56 36.2888L232.783 43.4353H238.192Z" fill="#00435B"/>
</g>
<defs>
<clipPath id="clip0_272_1464">
<rect width="248" height="48" fill="white"/>
</clipPath>
</defs>
</svg>
