<svg width="1363" height="167" viewBox="0 0 1363 167" fill="none" xmlns="http://www.w3.org/2000/svg">
<rect width="1363" height="167" fill="#F9F9F9"/>
<g style="mix-blend-mode:exclusion">
<rect width="1363" height="167" rx="15" fill="white" fill-opacity="0.05"/>
</g>
<g style="mix-blend-mode:exclusion">
<path d="M0 15C0 6.71573 6.71573 0 15 0H37V167H15C6.71573 167 0 160.284 0 152V15Z" fill="white" fill-opacity="0.25"/>
</g>
<g style="mix-blend-mode:exclusion">
<path d="M100.906 54.9219L93.3945 52.2383V49.0859L103.602 53.375V55.6367L100.906 54.9219ZM93.3945 57.1719L100.918 54.4297L103.602 53.7852V56.0352L93.3945 60.3242V57.1719ZM116.012 59.293L119.41 44.9375H121.309L121.742 47.3281L118.121 62H116.082L116.012 59.293ZM114.266 44.9375L117.078 59.293L116.844 62H114.57L110.785 44.9375H114.266ZM124.73 59.2344L127.508 44.9375H130.988L127.215 62H124.941L124.73 59.2344ZM122.375 44.9375L125.797 59.3516L125.703 62H123.664L120.02 47.3164L120.488 44.9375H122.375ZM139.133 59.1406V53.4922C139.133 53.0859 139.066 52.7383 138.934 52.4492C138.801 52.1523 138.594 51.9219 138.312 51.7578C138.039 51.5938 137.684 51.5117 137.246 51.5117C136.871 51.5117 136.547 51.5781 136.273 51.7109C136 51.8359 135.789 52.0195 135.641 52.2617C135.492 52.4961 135.418 52.7734 135.418 53.0938H132.043C132.043 52.5547 132.168 52.043 132.418 51.5586C132.668 51.0742 133.031 50.6484 133.508 50.2812C133.984 49.9062 134.551 49.6133 135.207 49.4023C135.871 49.1914 136.613 49.0859 137.434 49.0859C138.418 49.0859 139.293 49.25 140.059 49.5781C140.824 49.9062 141.426 50.3984 141.863 51.0547C142.309 51.7109 142.531 52.5312 142.531 53.5156V58.9414C142.531 59.6367 142.574 60.207 142.66 60.6523C142.746 61.0898 142.871 61.4727 143.035 61.8008V62H139.625C139.461 61.6562 139.336 61.2266 139.25 60.7109C139.172 60.1875 139.133 59.6641 139.133 59.1406ZM139.578 54.2773L139.602 56.1875H137.715C137.27 56.1875 136.883 56.2383 136.555 56.3398C136.227 56.4414 135.957 56.5859 135.746 56.7734C135.535 56.9531 135.379 57.1641 135.277 57.4062C135.184 57.6484 135.137 57.9141 135.137 58.2031C135.137 58.4922 135.203 58.7539 135.336 58.9883C135.469 59.2148 135.66 59.3945 135.91 59.5273C136.16 59.6523 136.453 59.7148 136.789 59.7148C137.297 59.7148 137.738 59.6133 138.113 59.4102C138.488 59.207 138.777 58.957 138.98 58.6602C139.191 58.3633 139.301 58.082 139.309 57.8164L140.199 59.2461C140.074 59.5664 139.902 59.8984 139.684 60.2422C139.473 60.5859 139.203 60.9102 138.875 61.2148C138.547 61.5117 138.152 61.7578 137.691 61.9531C137.23 62.1406 136.684 62.2344 136.051 62.2344C135.246 62.2344 134.516 62.0742 133.859 61.7539C133.211 61.4258 132.695 60.9766 132.312 60.4062C131.938 59.8281 131.75 59.1719 131.75 58.4375C131.75 57.7734 131.875 57.1836 132.125 56.668C132.375 56.1523 132.742 55.7188 133.227 55.3672C133.719 55.0078 134.332 54.7383 135.066 54.5586C135.801 54.3711 136.652 54.2773 137.621 54.2773H139.578ZM151.344 49.3203V51.7109H143.961V49.3203H151.344ZM145.789 46.1914H149.164V58.1797C149.164 58.5469 149.211 58.8281 149.305 59.0234C149.406 59.2188 149.555 59.3555 149.75 59.4336C149.945 59.5039 150.191 59.5391 150.488 59.5391C150.699 59.5391 150.887 59.5312 151.051 59.5156C151.223 59.4922 151.367 59.4688 151.484 59.4453L151.496 61.9297C151.207 62.0234 150.895 62.0977 150.559 62.1523C150.223 62.207 149.852 62.2344 149.445 62.2344C148.703 62.2344 148.055 62.1133 147.5 61.8711C146.953 61.6211 146.531 61.2227 146.234 60.6758C145.938 60.1289 145.789 59.4102 145.789 58.5195V46.1914ZM159.102 62.2344C158.117 62.2344 157.234 62.0781 156.453 61.7656C155.672 61.4453 155.008 61.0039 154.461 60.4414C153.922 59.8789 153.508 59.2266 153.219 58.4844C152.93 57.7344 152.785 56.9375 152.785 56.0938V55.625C152.785 54.6641 152.922 53.7852 153.195 52.9883C153.469 52.1914 153.859 51.5 154.367 50.9141C154.883 50.3281 155.508 49.8789 156.242 49.5664C156.977 49.2461 157.805 49.0859 158.727 49.0859C159.625 49.0859 160.422 49.2344 161.117 49.5312C161.812 49.8281 162.395 50.25 162.863 50.7969C163.34 51.3438 163.699 52 163.941 52.7656C164.184 53.5234 164.305 54.3672 164.305 55.2969V56.7031H154.227V54.4531H160.988V54.1953C160.988 53.7266 160.902 53.3086 160.73 52.9414C160.566 52.5664 160.316 52.2695 159.98 52.0508C159.645 51.832 159.215 51.7227 158.691 51.7227C158.246 51.7227 157.863 51.8203 157.543 52.0156C157.223 52.2109 156.961 52.4844 156.758 52.8359C156.562 53.1875 156.414 53.6016 156.312 54.0781C156.219 54.5469 156.172 55.0625 156.172 55.625V56.0938C156.172 56.6016 156.242 57.0703 156.383 57.5C156.531 57.9297 156.738 58.3008 157.004 58.6133C157.277 58.9258 157.605 59.168 157.988 59.3398C158.379 59.5117 158.82 59.5977 159.312 59.5977C159.922 59.5977 160.488 59.4805 161.012 59.2461C161.543 59.0039 162 58.6406 162.383 58.1562L164.023 59.9375C163.758 60.3203 163.395 60.6875 162.934 61.0391C162.48 61.3906 161.934 61.6797 161.293 61.9062C160.652 62.125 159.922 62.2344 159.102 62.2344ZM169.602 52.0859V62H166.227V49.3203H169.402L169.602 52.0859ZM173.422 49.2383L173.363 52.3672C173.199 52.3438 173 52.3242 172.766 52.3086C172.539 52.2852 172.332 52.2734 172.145 52.2734C171.668 52.2734 171.254 52.3359 170.902 52.4609C170.559 52.5781 170.27 52.7539 170.035 52.9883C169.809 53.2227 169.637 53.5078 169.52 53.8438C169.41 54.1797 169.348 54.5625 169.332 54.9922L168.652 54.7812C168.652 53.9609 168.734 53.207 168.898 52.5195C169.062 51.8242 169.301 51.2188 169.613 50.7031C169.934 50.1875 170.324 49.7891 170.785 49.5078C171.246 49.2266 171.773 49.0859 172.367 49.0859C172.555 49.0859 172.746 49.1016 172.941 49.1328C173.137 49.1562 173.297 49.1914 173.422 49.2383ZM182.809 44.9375H185.785L190.168 57.4648L194.551 44.9375H197.527L191.363 62H188.973L182.809 44.9375ZM181.203 44.9375H184.168L184.707 57.1484V62H181.203V44.9375ZM196.168 44.9375H199.145V62H195.629V57.1484L196.168 44.9375ZM201.477 55.7891V55.543C201.477 54.6133 201.609 53.7578 201.875 52.9766C202.141 52.1875 202.527 51.5039 203.035 50.9258C203.543 50.3477 204.168 49.8984 204.91 49.5781C205.652 49.25 206.504 49.0859 207.465 49.0859C208.426 49.0859 209.281 49.25 210.031 49.5781C210.781 49.8984 211.41 50.3477 211.918 50.9258C212.434 51.5039 212.824 52.1875 213.09 52.9766C213.355 53.7578 213.488 54.6133 213.488 55.543V55.7891C213.488 56.7109 213.355 57.5664 213.09 58.3555C212.824 59.1367 212.434 59.8203 211.918 60.4062C211.41 60.9844 210.785 61.4336 210.043 61.7539C209.301 62.0742 208.449 62.2344 207.488 62.2344C206.527 62.2344 205.672 62.0742 204.922 61.7539C204.18 61.4336 203.551 60.9844 203.035 60.4062C202.527 59.8203 202.141 59.1367 201.875 58.3555C201.609 57.5664 201.477 56.7109 201.477 55.7891ZM204.852 55.543V55.7891C204.852 56.3203 204.898 56.8164 204.992 57.2773C205.086 57.7383 205.234 58.1445 205.438 58.4961C205.648 58.8398 205.922 59.1094 206.258 59.3047C206.594 59.5 207.004 59.5977 207.488 59.5977C207.957 59.5977 208.359 59.5 208.695 59.3047C209.031 59.1094 209.301 58.8398 209.504 58.4961C209.707 58.1445 209.855 57.7383 209.949 57.2773C210.051 56.8164 210.102 56.3203 210.102 55.7891V55.543C210.102 55.0273 210.051 54.543 209.949 54.0898C209.855 53.6289 209.703 53.2227 209.492 52.8711C209.289 52.5117 209.02 52.2305 208.684 52.0273C208.348 51.8242 207.941 51.7227 207.465 51.7227C206.988 51.7227 206.582 51.8242 206.246 52.0273C205.918 52.2305 205.648 52.5117 205.438 52.8711C205.234 53.2227 205.086 53.6289 204.992 54.0898C204.898 54.543 204.852 55.0273 204.852 55.543ZM218.867 52.0273V62H215.492V49.3203H218.656L218.867 52.0273ZM218.375 55.2148H217.461C217.461 54.2773 217.582 53.4336 217.824 52.6836C218.066 51.9258 218.406 51.2812 218.844 50.75C219.281 50.2109 219.801 49.8008 220.402 49.5195C221.012 49.2305 221.691 49.0859 222.441 49.0859C223.035 49.0859 223.578 49.1719 224.07 49.3438C224.562 49.5156 224.984 49.7891 225.336 50.1641C225.695 50.5391 225.969 51.0352 226.156 51.6523C226.352 52.2695 226.449 53.0234 226.449 53.9141V62H223.051V53.9023C223.051 53.3398 222.973 52.9023 222.816 52.5898C222.66 52.2773 222.43 52.0586 222.125 51.9336C221.828 51.8008 221.461 51.7344 221.023 51.7344C220.57 51.7344 220.176 51.8242 219.84 52.0039C219.512 52.1836 219.238 52.4336 219.02 52.7539C218.809 53.0664 218.648 53.4336 218.539 53.8555C218.43 54.2773 218.375 54.7305 218.375 55.2148ZM235.871 58.4961C235.871 58.2539 235.801 58.0352 235.66 57.8398C235.52 57.6445 235.258 57.4648 234.875 57.3008C234.5 57.1289 233.957 56.9727 233.246 56.832C232.605 56.6914 232.008 56.5156 231.453 56.3047C230.906 56.0859 230.43 55.8242 230.023 55.5195C229.625 55.2148 229.312 54.8555 229.086 54.4414C228.859 54.0195 228.746 53.5391 228.746 53C228.746 52.4688 228.859 51.9688 229.086 51.5C229.32 51.0312 229.652 50.6172 230.082 50.2578C230.52 49.8906 231.051 49.6055 231.676 49.4023C232.309 49.1914 233.02 49.0859 233.809 49.0859C234.91 49.0859 235.855 49.2617 236.645 49.6133C237.441 49.9648 238.051 50.4492 238.473 51.0664C238.902 51.6758 239.117 52.3711 239.117 53.1523H235.742C235.742 52.8242 235.672 52.5312 235.531 52.2734C235.398 52.0078 235.188 51.8008 234.898 51.6523C234.617 51.4961 234.25 51.418 233.797 51.418C233.422 51.418 233.098 51.4844 232.824 51.6172C232.551 51.7422 232.34 51.9141 232.191 52.1328C232.051 52.3438 231.98 52.5781 231.98 52.8359C231.98 53.0312 232.02 53.207 232.098 53.3633C232.184 53.5117 232.32 53.6484 232.508 53.7734C232.695 53.8984 232.938 54.0156 233.234 54.125C233.539 54.2266 233.914 54.3203 234.359 54.4062C235.273 54.5938 236.09 54.8398 236.809 55.1445C237.527 55.4414 238.098 55.8477 238.52 56.3633C238.941 56.8711 239.152 57.5391 239.152 58.3672C239.152 58.9297 239.027 59.4453 238.777 59.9141C238.527 60.3828 238.168 60.793 237.699 61.1445C237.23 61.4883 236.668 61.7578 236.012 61.9531C235.363 62.1406 234.633 62.2344 233.82 62.2344C232.641 62.2344 231.641 62.0234 230.82 61.6016C230.008 61.1797 229.391 60.6445 228.969 59.9961C228.555 59.3398 228.348 58.668 228.348 57.9805H231.547C231.562 58.4414 231.68 58.8125 231.898 59.0938C232.125 59.375 232.41 59.5781 232.754 59.7031C233.105 59.8281 233.484 59.8906 233.891 59.8906C234.328 59.8906 234.691 59.832 234.98 59.7148C235.27 59.5898 235.488 59.4258 235.637 59.2227C235.793 59.0117 235.871 58.7695 235.871 58.4961ZM247.555 49.3203V51.7109H240.172V49.3203H247.555ZM242 46.1914H245.375V58.1797C245.375 58.5469 245.422 58.8281 245.516 59.0234C245.617 59.2188 245.766 59.3555 245.961 59.4336C246.156 59.5039 246.402 59.5391 246.699 59.5391C246.91 59.5391 247.098 59.5312 247.262 59.5156C247.434 59.4922 247.578 59.4688 247.695 59.4453L247.707 61.9297C247.418 62.0234 247.105 62.0977 246.77 62.1523C246.434 62.207 246.062 62.2344 245.656 62.2344C244.914 62.2344 244.266 62.1133 243.711 61.8711C243.164 61.6211 242.742 61.2227 242.445 60.6758C242.148 60.1289 242 59.4102 242 58.5195V46.1914ZM255.312 62.2344C254.328 62.2344 253.445 62.0781 252.664 61.7656C251.883 61.4453 251.219 61.0039 250.672 60.4414C250.133 59.8789 249.719 59.2266 249.43 58.4844C249.141 57.7344 248.996 56.9375 248.996 56.0938V55.625C248.996 54.6641 249.133 53.7852 249.406 52.9883C249.68 52.1914 250.07 51.5 250.578 50.9141C251.094 50.3281 251.719 49.8789 252.453 49.5664C253.188 49.2461 254.016 49.0859 254.938 49.0859C255.836 49.0859 256.633 49.2344 257.328 49.5312C258.023 49.8281 258.605 50.25 259.074 50.7969C259.551 51.3438 259.91 52 260.152 52.7656C260.395 53.5234 260.516 54.3672 260.516 55.2969V56.7031H250.438V54.4531H257.199V54.1953C257.199 53.7266 257.113 53.3086 256.941 52.9414C256.777 52.5664 256.527 52.2695 256.191 52.0508C255.855 51.832 255.426 51.7227 254.902 51.7227C254.457 51.7227 254.074 51.8203 253.754 52.0156C253.434 52.2109 253.172 52.4844 252.969 52.8359C252.773 53.1875 252.625 53.6016 252.523 54.0781C252.43 54.5469 252.383 55.0625 252.383 55.625V56.0938C252.383 56.6016 252.453 57.0703 252.594 57.5C252.742 57.9297 252.949 58.3008 253.215 58.6133C253.488 58.9258 253.816 59.168 254.199 59.3398C254.59 59.5117 255.031 59.5977 255.523 59.5977C256.133 59.5977 256.699 59.4805 257.223 59.2461C257.754 59.0039 258.211 58.6406 258.594 58.1562L260.234 59.9375C259.969 60.3203 259.605 60.6875 259.145 61.0391C258.691 61.3906 258.145 61.6797 257.504 61.9062C256.863 62.125 256.133 62.2344 255.312 62.2344ZM265.812 52.0859V62H262.438V49.3203H265.613L265.812 52.0859ZM269.633 49.2383L269.574 52.3672C269.41 52.3438 269.211 52.3242 268.977 52.3086C268.75 52.2852 268.543 52.2734 268.355 52.2734C267.879 52.2734 267.465 52.3359 267.113 52.4609C266.77 52.5781 266.48 52.7539 266.246 52.9883C266.02 53.2227 265.848 53.5078 265.73 53.8438C265.621 54.1797 265.559 54.5625 265.543 54.9922L264.863 54.7812C264.863 53.9609 264.945 53.207 265.109 52.5195C265.273 51.8242 265.512 51.2188 265.824 50.7031C266.145 50.1875 266.535 49.7891 266.996 49.5078C267.457 49.2266 267.984 49.0859 268.578 49.0859C268.766 49.0859 268.957 49.1016 269.152 49.1328C269.348 49.1562 269.508 49.1914 269.633 49.2383Z" fill="white" fill-opacity="0.5"/>
</g>
<g style="mix-blend-mode:exclusion">
<path d="M115.994 98.708V104.641H99.5806V98.708H115.994ZM102.151 86.0078V118H94.439V86.0078H102.151ZM121.18 86.0078V118H113.489V86.0078H121.18ZM124.805 106.354V105.893C124.805 104.15 125.054 102.546 125.552 101.081C126.05 99.6016 126.783 98.3198 127.75 97.2358C128.716 96.1519 129.91 95.3096 131.331 94.709C132.752 94.0938 134.393 93.7861 136.253 93.7861C138.128 93.7861 139.776 94.0938 141.197 94.709C142.632 95.3096 143.833 96.1519 144.8 97.2358C145.767 98.3198 146.5 99.6016 146.998 101.081C147.496 102.546 147.745 104.15 147.745 105.893V106.354C147.745 108.083 147.496 109.687 146.998 111.167C146.5 112.631 145.767 113.913 144.8 115.012C143.833 116.096 142.64 116.938 141.219 117.539C139.798 118.139 138.157 118.439 136.297 118.439C134.437 118.439 132.789 118.139 131.353 117.539C129.917 116.938 128.716 116.096 127.75 115.012C126.783 113.913 126.05 112.631 125.552 111.167C125.054 109.687 124.805 108.083 124.805 106.354ZM132.21 105.893V106.354C132.21 107.248 132.276 108.083 132.408 108.859C132.54 109.636 132.759 110.317 133.067 110.903C133.375 111.474 133.792 111.921 134.319 112.243C134.847 112.565 135.506 112.727 136.297 112.727C137.073 112.727 137.718 112.565 138.23 112.243C138.758 111.921 139.175 111.474 139.483 110.903C139.791 110.317 140.01 109.636 140.142 108.859C140.274 108.083 140.34 107.248 140.34 106.354V105.893C140.34 105.029 140.274 104.216 140.142 103.454C140.01 102.678 139.791 101.997 139.483 101.411C139.175 100.81 138.758 100.341 138.23 100.004C137.703 99.6675 137.044 99.499 136.253 99.499C135.477 99.499 134.825 99.6675 134.297 100.004C133.785 100.341 133.375 100.81 133.067 101.411C132.759 101.997 132.54 102.678 132.408 103.454C132.276 104.216 132.21 105.029 132.21 105.893ZM158.27 110.925L162.664 94.2256H167.3L165.652 102.597L161.302 118H157.588L158.27 110.925ZM156.534 94.2256L159.258 110.793L159.566 118H155.062L149.437 94.2256H156.534ZM171.211 110.441L173.958 94.2256H181.055L175.474 118H170.97L171.211 110.441ZM167.828 94.2256L172.266 110.881L172.947 118H169.19L164.927 102.641L163.345 94.2256H167.828ZM209.466 86.0078V118H201.753V86.0078H209.466ZM219.09 86.0078V91.9624H192.349V86.0078H219.09ZM216.475 106.354V105.893C216.475 104.15 216.724 102.546 217.222 101.081C217.72 99.6016 218.453 98.3198 219.419 97.2358C220.386 96.1519 221.58 95.3096 223.001 94.709C224.422 94.0938 226.062 93.7861 227.923 93.7861C229.798 93.7861 231.446 94.0938 232.867 94.709C234.302 95.3096 235.503 96.1519 236.47 97.2358C237.437 98.3198 238.169 99.6016 238.667 101.081C239.166 102.546 239.415 104.15 239.415 105.893V106.354C239.415 108.083 239.166 109.687 238.667 111.167C238.169 112.631 237.437 113.913 236.47 115.012C235.503 116.096 234.31 116.938 232.889 117.539C231.468 118.139 229.827 118.439 227.967 118.439C226.106 118.439 224.458 118.139 223.023 117.539C221.587 116.938 220.386 116.096 219.419 115.012C218.453 113.913 217.72 112.631 217.222 111.167C216.724 109.687 216.475 108.083 216.475 106.354ZM223.88 105.893V106.354C223.88 107.248 223.946 108.083 224.078 108.859C224.209 109.636 224.429 110.317 224.737 110.903C225.044 111.474 225.462 111.921 225.989 112.243C226.517 112.565 227.176 112.727 227.967 112.727C228.743 112.727 229.388 112.565 229.9 112.243C230.428 111.921 230.845 111.474 231.153 110.903C231.46 110.317 231.68 109.636 231.812 108.859C231.944 108.083 232.01 107.248 232.01 106.354V105.893C232.01 105.029 231.944 104.216 231.812 103.454C231.68 102.678 231.46 101.997 231.153 101.411C230.845 100.81 230.428 100.341 229.9 100.004C229.373 99.6675 228.714 99.499 227.923 99.499C227.146 99.499 226.495 99.6675 225.967 100.004C225.455 100.341 225.044 100.81 224.737 101.411C224.429 101.997 224.209 102.678 224.078 103.454C223.946 104.216 223.88 105.029 223.88 105.893ZM254.268 86.0078H266.858C269.319 86.0078 271.458 86.374 273.274 87.1064C275.091 87.8389 276.49 88.9229 277.471 90.3584C278.467 91.7939 278.965 93.5664 278.965 95.6758C278.965 97.5068 278.68 99.0376 278.108 100.268C277.537 101.499 276.739 102.517 275.713 103.322C274.703 104.113 273.523 104.765 272.176 105.278L269.649 106.706H259.08L259.036 100.751H266.858C267.84 100.751 268.653 100.576 269.297 100.224C269.942 99.8726 270.425 99.3745 270.748 98.73C271.084 98.0708 271.253 97.2871 271.253 96.3789C271.253 95.4561 271.084 94.665 270.748 94.0059C270.411 93.3467 269.913 92.8413 269.253 92.4897C268.609 92.1382 267.811 91.9624 266.858 91.9624H261.98V118H254.268V86.0078ZM271.78 118L264.705 103.85L272.879 103.806L280.042 117.67V118H271.78ZM297.159 112.221V94.2256H304.585V118H297.642L297.159 112.221ZM297.862 107.387L299.795 107.343C299.795 108.94 299.605 110.419 299.224 111.782C298.843 113.129 298.279 114.301 297.532 115.297C296.8 116.293 295.892 117.07 294.808 117.626C293.738 118.168 292.5 118.439 291.094 118.439C289.922 118.439 288.846 118.278 287.864 117.956C286.897 117.619 286.062 117.099 285.359 116.396C284.656 115.678 284.107 114.763 283.711 113.649C283.331 112.521 283.14 111.174 283.14 109.606V94.2256H290.545V109.65C290.545 110.178 290.611 110.632 290.743 111.013C290.875 111.394 291.065 111.716 291.314 111.979C291.563 112.229 291.871 112.419 292.237 112.551C292.618 112.668 293.05 112.727 293.533 112.727C294.646 112.727 295.518 112.492 296.148 112.023C296.778 111.555 297.217 110.917 297.466 110.112C297.73 109.306 297.862 108.398 297.862 107.387ZM315.945 99.3013V118H308.541V94.2256H315.484L315.945 99.3013ZM315.066 105.3L313.331 105.344C313.331 103.527 313.55 101.909 313.99 100.488C314.429 99.0522 315.052 97.8364 315.857 96.8403C316.663 95.8442 317.623 95.0898 318.736 94.5771C319.864 94.0498 321.116 93.7861 322.493 93.7861C323.592 93.7861 324.595 93.9473 325.503 94.2695C326.426 94.5918 327.217 95.1118 327.876 95.8296C328.55 96.5474 329.063 97.4995 329.415 98.686C329.781 99.8579 329.964 101.308 329.964 103.037V118H322.515V103.015C322.515 102.062 322.383 101.337 322.12 100.839C321.856 100.327 321.475 99.9751 320.977 99.7847C320.479 99.5942 319.871 99.499 319.153 99.499C318.392 99.499 317.747 99.6455 317.22 99.9385C316.692 100.231 316.268 100.642 315.945 101.169C315.638 101.682 315.411 102.29 315.264 102.993C315.132 103.696 315.066 104.465 315.066 105.3ZM345.85 107.871H339.544C339.544 106.582 339.632 105.446 339.808 104.465C339.998 103.469 340.32 102.575 340.774 101.784C341.229 100.993 341.844 100.261 342.62 99.5869C343.309 99.0156 343.902 98.4663 344.4 97.939C344.898 97.4116 345.279 96.877 345.542 96.335C345.806 95.793 345.938 95.2144 345.938 94.5991C345.938 93.8374 345.828 93.2148 345.608 92.7314C345.403 92.248 345.088 91.8892 344.664 91.6548C344.253 91.4058 343.733 91.2812 343.104 91.2812C342.591 91.2812 342.107 91.4058 341.653 91.6548C341.214 91.9038 340.855 92.292 340.577 92.8193C340.298 93.332 340.145 94.0132 340.115 94.8628H332.667C332.71 92.6802 333.194 90.9077 334.117 89.5454C335.054 88.1685 336.299 87.165 337.852 86.5352C339.419 85.8906 341.17 85.5684 343.104 85.5684C345.242 85.5684 347.081 85.8979 348.619 86.5571C350.157 87.2163 351.336 88.1978 352.156 89.5015C352.977 90.7905 353.387 92.3799 353.387 94.2695C353.387 95.5293 353.145 96.6279 352.662 97.5654C352.193 98.4883 351.556 99.3525 350.75 100.158C349.959 100.949 349.073 101.799 348.091 102.707C347.242 103.454 346.663 104.216 346.355 104.992C346.048 105.754 345.879 106.713 345.85 107.871ZM338.643 114.55C338.643 113.496 339.024 112.617 339.786 111.914C340.547 111.196 341.536 110.837 342.752 110.837C343.968 110.837 344.957 111.196 345.718 111.914C346.48 112.617 346.861 113.496 346.861 114.55C346.861 115.605 346.48 116.491 345.718 117.209C344.957 117.912 343.968 118.264 342.752 118.264C341.536 118.264 340.547 117.912 339.786 117.209C339.024 116.491 338.643 115.605 338.643 114.55Z" fill="white"/>
</g>
<path d="M1363 15C1363 6.71573 1356.28 0 1348 0H1134V167H1348C1356.28 167 1363 160.284 1363 152V15Z" fill="#43B9C3"/>
<path d="M1260.77 81.3079C1263.96 81.3079 1267.09 82.2553 1269.74 84.0303C1272.4 85.8053 1274.47 88.3282 1275.69 91.2799C1276.92 94.2316 1277.24 97.4796 1276.61 100.613C1275.99 103.747 1274.45 106.625 1272.19 108.884C1269.93 111.143 1267.05 112.682 1263.92 113.305C1260.79 113.928 1257.54 113.608 1254.59 112.386C1251.64 111.163 1249.11 109.093 1247.34 106.436C1245.56 103.78 1244.62 100.657 1244.62 97.4617C1244.62 93.1774 1246.32 89.0686 1249.35 86.0392C1252.38 83.0098 1256.48 81.3079 1260.77 81.3079ZM1260.77 75.9233C1256.51 75.9233 1252.35 77.1865 1248.8 79.5532C1245.26 81.9198 1242.5 85.2837 1240.87 89.2193C1239.24 93.1549 1238.81 97.4856 1239.64 101.664C1240.48 105.842 1242.53 109.679 1245.54 112.692C1248.55 115.704 1252.39 117.755 1256.57 118.586C1260.75 119.417 1265.08 118.991 1269.01 117.361C1272.95 115.73 1276.31 112.97 1278.68 109.428C1281.04 105.886 1282.31 101.722 1282.31 97.4617C1282.31 91.7493 1280.04 86.271 1276 82.2317C1271.96 78.1925 1266.48 75.9233 1260.77 75.9233Z" fill="white"/>
<path d="M1274.23 49H1220.38C1218.96 49 1217.59 49.5673 1216.58 50.5771C1215.57 51.5869 1215 52.9565 1215 54.3846V108.231C1215 109.659 1215.57 111.028 1216.58 112.038C1217.59 113.048 1218.96 113.615 1220.38 113.615H1231.15V108.231H1220.38V70.5384H1279.62V54.3846C1279.62 52.9565 1279.05 51.5869 1278.04 50.5771C1277.03 49.5673 1275.66 49 1274.23 49ZM1220.38 65.1538V54.3846H1274.23V65.1538H1220.38Z" fill="white"/>
<path d="M1255.39 89.3849V105.539L1268.85 97.4618L1255.39 89.3849Z" fill="white"/>
</svg>
