<svg width="60" height="80" viewBox="0 0 60 80" fill="none" xmlns="http://www.w3.org/2000/svg">
<path d="M26.9167 78.4C4.21333 45.4733 0 42.0967 0 30C0 13.43 13.43 0 30 0C46.57 0 60 13.43 60 30C60 42.0967 55.7867 45.4667 33.0833 78.3867C32.7385 78.8832 32.2789 79.2891 31.7436 79.5699C31.2082 79.8506 30.613 79.9979 30.0085 79.9993C29.404 80.0006 28.8081 79.8559 28.2715 79.5774C27.735 79.299 27.2736 78.895 26.9267 78.4L26.92 78.3867L26.9167 78.4Z" fill="#43B9C3"/>
<path fill-rule="evenodd" clip-rule="evenodd" d="M28.642 79.7449C29.0766 79.9136 29.5399 80.0003 30.0085 79.9993C30.613 79.9979 31.2082 79.8506 31.7436 79.5699C32.2789 79.2891 32.7385 78.8832 33.0833 78.3867C37.1417 72.502 40.6092 67.5616 43.5674 63.3468C57.1583 43.983 60 39.9343 60 30C60 13.43 46.57 0 30 0C13.43 0 0 13.43 0 30C0 39.9377 2.84359 43.9903 16.4465 63.3765C19.0268 67.0539 21.9943 71.283 25.403 76.2087C25.8944 76.9188 26.3949 77.6434 26.9049 78.3829C26.9068 78.3857 26.9087 78.3885 26.9107 78.3913C26.9127 78.3942 26.9147 78.3971 26.9167 78.4L26.92 78.3867L26.9267 78.4L26.9288 78.403C27.2755 78.8967 27.7361 79.2995 28.2715 79.5774C28.3922 79.64 28.5159 79.6959 28.642 79.7449ZM28.6369 77.3483C28.7886 77.536 28.9778 77.6906 29.1927 77.8022C29.4434 77.9323 29.7218 77.9999 30.0041 77.9993C30.2865 77.9986 30.5646 77.9298 30.8147 77.7987C31.064 77.6679 31.2782 77.479 31.4391 77.248C35.5462 71.2927 39.0346 66.3229 41.9972 62.1021C47.2701 54.59 50.8771 49.4511 53.3415 45.3537C55.2409 42.1958 56.3859 39.7737 57.0693 37.4664C57.7481 35.1744 58 32.8992 58 30C58 14.5346 45.4654 2 30 2C14.5346 2 2 14.5346 2 30C2 32.8992 2.2519 35.1748 2.93078 37.4677C3.61421 39.7758 4.75925 42.1991 6.65863 45.3582C9.12519 49.4607 12.7365 54.607 18.0169 62.132C20.3524 65.4602 23.0143 69.2537 26.0481 73.6279L28.6369 77.3483Z" fill="white"/>
<circle cx="30" cy="29" r="24" fill="white"/>
<g clip-path="url(#clip0_207_1235)">
<rect x="4.5" y="5" width="51" height="51" rx="25.5" fill="#43B9C3"/>
<path d="M13.6643 28.338C13.4795 28.338 13.3297 28.2955 13.2149 28.2106C13.1 28.1208 13.0101 27.9834 12.9452 27.7986L11.4846 23.7309C11.4047 23.5062 11.4172 23.3164 11.5221 23.1616C11.6319 23.0018 11.8242 22.9219 12.0988 22.9219C12.2836 22.9219 12.4284 22.9668 12.5333 23.0567C12.6381 23.1416 12.7205 23.2765 12.7804 23.4612L13.8965 26.8098H13.5444L14.7429 23.4612C14.8128 23.2765 14.9002 23.1416 15.005 23.0567C15.1099 22.9668 15.2447 22.9219 15.4095 22.9219C15.5743 22.9219 15.7066 22.9668 15.8065 23.0567C15.9063 23.1416 15.9887 23.279 16.0536 23.4687L17.1772 26.8098H16.8776L18.0236 23.4612C18.0835 23.2765 18.1634 23.1416 18.2632 23.0567C18.3681 22.9668 18.5129 22.9219 18.6977 22.9219C18.9274 22.9219 19.0946 23.0018 19.1995 23.1616C19.3094 23.3164 19.3218 23.5062 19.237 23.7309L17.7614 27.8061C17.6965 27.9859 17.6066 28.1208 17.4918 28.2106C17.3819 28.2955 17.2346 28.338 17.0498 28.338C16.8601 28.338 16.7078 28.2955 16.5929 28.2106C16.4831 28.1208 16.3957 27.9834 16.3308 27.7986L15.2747 24.8321H15.4619L14.3833 27.8061C14.3134 27.9859 14.2235 28.1208 14.1137 28.2106C14.0038 28.2955 13.854 28.338 13.6643 28.338Z" fill="white"/>
<path d="M19.8101 28.338C19.6553 28.338 19.5255 28.303 19.4206 28.2331C19.3158 28.1582 19.2509 28.0583 19.2259 27.9335C19.2009 27.8036 19.2234 27.6588 19.2933 27.499L21.1584 23.4837C21.2482 23.2889 21.3581 23.1466 21.4879 23.0567C21.6228 22.9668 21.7751 22.9219 21.9448 22.9219C22.1146 22.9219 22.2619 22.9668 22.3867 23.0567C22.5166 23.1466 22.6289 23.2889 22.7238 23.4837L24.5889 27.499C24.6688 27.6588 24.6962 27.8036 24.6712 27.9335C24.6513 28.0633 24.5889 28.1632 24.484 28.2331C24.3841 28.303 24.2593 28.338 24.1095 28.338C23.9097 28.338 23.755 28.2931 23.6451 28.2032C23.5402 28.1133 23.4454 27.9684 23.3605 27.7687L22.956 26.8173L23.4803 27.1993H20.3944L20.9262 26.8173L20.5217 27.7687C20.4318 27.9684 20.3394 28.1133 20.2446 28.2032C20.1497 28.2931 20.0049 28.338 19.8101 28.338ZM21.9298 24.4276L21.061 26.5027L20.8513 26.1431H23.0309L22.8212 26.5027L21.9448 24.4276H21.9298Z" fill="white"/>
<path d="M26.6156 28.338C26.3959 28.338 26.2262 28.2781 26.1063 28.1582C25.9865 28.0334 25.9266 27.8611 25.9266 27.6413V24.113H24.7506C24.5658 24.113 24.4235 24.0655 24.3237 23.9706C24.2288 23.8708 24.1813 23.7309 24.1813 23.5511C24.1813 23.3664 24.2288 23.2265 24.3237 23.1316C24.4235 23.0367 24.5658 22.9893 24.7506 22.9893H28.4807C28.6655 22.9893 28.8053 23.0367 28.9002 23.1316C29 23.2265 29.05 23.3664 29.05 23.5511C29.05 23.7309 29 23.8708 28.9002 23.9706C28.8053 24.0655 28.6655 24.113 28.4807 24.113H27.3047V27.6413C27.3047 27.8611 27.2473 28.0334 27.1325 28.1582C27.0176 28.2781 26.8453 28.338 26.6156 28.338Z" fill="white"/>
<path d="M30.2226 28.2706C29.9879 28.2706 29.8081 28.2106 29.6833 28.0908C29.5634 27.9659 29.5035 27.7886 29.5035 27.5589V23.701C29.5035 23.4712 29.5634 23.2964 29.6833 23.1766C29.8081 23.0517 29.9879 22.9893 30.2226 22.9893H32.7617C32.9415 22.9893 33.0763 23.0342 33.1662 23.1241C33.2561 23.214 33.301 23.3439 33.301 23.5137C33.301 23.6885 33.2561 23.8233 33.1662 23.9182C33.0763 24.0081 32.9415 24.053 32.7617 24.053H30.8218V25.0569H32.597C32.7717 25.0569 32.9041 25.1018 32.9939 25.1917C33.0888 25.2816 33.1362 25.4139 33.1362 25.5887C33.1362 25.7635 33.0888 25.8959 32.9939 25.9858C32.9041 26.0757 32.7717 26.1206 32.597 26.1206H30.8218V27.2068H32.7617C32.9415 27.2068 33.0763 27.2543 33.1662 27.3492C33.2561 27.4391 33.301 27.5689 33.301 27.7387C33.301 27.9135 33.2561 28.0458 33.1662 28.1357C33.0763 28.2256 32.9415 28.2706 32.7617 28.2706H30.2226Z" fill="white"/>
<path d="M34.7935 28.338C34.5738 28.338 34.404 28.2781 34.2842 28.1582C34.1643 28.0334 34.1044 27.8611 34.1044 27.6413V23.686C34.1044 23.4612 34.1643 23.2889 34.2842 23.1691C34.409 23.0492 34.5813 22.9893 34.801 22.9893H36.6436C37.2428 22.9893 37.7047 23.1366 38.0293 23.4313C38.3588 23.7209 38.5236 24.1255 38.5236 24.6448C38.5236 24.9795 38.4487 25.2716 38.2989 25.5213C38.1541 25.766 37.9419 25.9558 37.6622 26.0906C37.3876 26.2205 37.048 26.2854 36.6436 26.2854L36.7035 26.1506H37.063C37.2777 26.1506 37.4675 26.203 37.6323 26.3079C37.7971 26.4078 37.9344 26.5626 38.0442 26.7723L38.4187 27.4465C38.4986 27.5914 38.5361 27.7337 38.5311 27.8735C38.5261 28.0084 38.4712 28.1208 38.3663 28.2106C38.2664 28.2955 38.1191 28.338 37.9244 28.338C37.7296 28.338 37.5699 28.298 37.445 28.2181C37.3252 28.1382 37.2178 28.0134 37.1229 27.8436L36.4413 26.5926C36.3814 26.4827 36.304 26.4078 36.2091 26.3678C36.1193 26.3229 36.0144 26.3004 35.8946 26.3004H35.4826V27.6413C35.4826 27.8611 35.4252 28.0334 35.3103 28.1582C35.1955 28.2781 35.0232 28.338 34.7935 28.338ZM35.4826 25.3265H36.3964C36.6611 25.3265 36.8633 25.2741 37.0031 25.1692C37.1429 25.0644 37.2128 24.902 37.2128 24.6823C37.2128 24.4725 37.1429 24.3152 37.0031 24.2104C36.8633 24.1005 36.6611 24.0456 36.3964 24.0456H35.4826V25.3265Z" fill="white"/>
<path d="M12.2486 35.0801C12.0489 35.0801 11.8941 35.0251 11.7842 34.9153C11.6794 34.8054 11.627 34.6506 11.627 34.4508V30.2932C11.627 30.0884 11.6844 29.9336 11.7992 29.8287C11.9141 29.7189 12.0764 29.6639 12.2861 29.6639C12.4609 29.6639 12.5982 29.6989 12.698 29.7688C12.8029 29.8337 12.8978 29.9436 12.9827 30.0984L14.5931 32.99H14.3309L15.9338 30.0984C16.0237 29.9436 16.1186 29.8337 16.2184 29.7688C16.3233 29.6989 16.4631 29.6639 16.6379 29.6639C16.8376 29.6639 16.9899 29.7189 17.0948 29.8287C17.2046 29.9336 17.2596 30.0884 17.2596 30.2932V34.4508C17.2596 34.6506 17.2071 34.8054 17.1023 34.9153C16.9974 35.0251 16.8426 35.0801 16.6379 35.0801C16.4381 35.0801 16.2833 35.0251 16.1735 34.9153C16.0686 34.8054 16.0162 34.6506 16.0162 34.4508V31.8738H16.1735L14.9676 33.9714C14.8977 34.0812 14.8228 34.1636 14.7429 34.2186C14.668 34.2735 14.5656 34.301 14.4358 34.301C14.3109 34.301 14.2086 34.2735 14.1287 34.2186C14.0488 34.1636 13.9764 34.0812 13.9115 33.9714L12.698 31.8663H12.8703V34.4508C12.8703 34.6506 12.8179 34.8054 12.713 34.9153C12.6082 35.0251 12.4534 35.0801 12.2486 35.0801Z" fill="white"/>
<path d="M20.7784 35.095C20.2441 35.095 19.7747 34.9827 19.3702 34.7579C18.9657 34.5282 18.6511 34.2086 18.4264 33.7991C18.2067 33.3895 18.0969 32.9126 18.0969 32.3683C18.0969 31.9587 18.1593 31.5867 18.2841 31.2521C18.414 30.9175 18.5962 30.6303 18.8309 30.3906C19.0706 30.1509 19.3552 29.9686 19.6848 29.8437C20.0144 29.7139 20.3789 29.649 20.7784 29.649C21.3127 29.649 21.7795 29.7613 22.179 29.9861C22.5835 30.2108 22.8981 30.5279 23.1228 30.9374C23.3475 31.342 23.4598 31.8189 23.4598 32.3683C23.4598 32.7778 23.3949 33.1498 23.2651 33.4844C23.1403 33.819 22.958 34.1087 22.7183 34.3534C22.4836 34.5931 22.2015 34.7779 21.8719 34.9078C21.5424 35.0326 21.1778 35.095 20.7784 35.095ZM20.7784 33.9414C21.043 33.9414 21.2677 33.879 21.4525 33.7541C21.6372 33.6293 21.7795 33.4495 21.8794 33.2148C21.9793 32.98 22.0292 32.6979 22.0292 32.3683C22.0292 31.8738 21.9194 31.4893 21.6996 31.2146C21.4799 30.9399 21.1728 30.8026 20.7784 30.8026C20.5187 30.8026 20.294 30.865 20.1042 30.9899C19.9195 31.1097 19.7772 31.287 19.6773 31.5217C19.5774 31.7515 19.5275 32.0336 19.5275 32.3683C19.5275 32.8627 19.6374 33.2497 19.8571 33.5294C20.0768 33.8041 20.3839 33.9414 20.7784 33.9414Z" fill="white"/>
<path d="M24.9177 35.0801C24.708 35.0801 24.5482 35.0251 24.4384 34.9153C24.3285 34.8054 24.2736 34.6431 24.2736 34.4283V30.3456C24.2736 30.1259 24.3285 29.9586 24.4384 29.8437C24.5482 29.7239 24.693 29.6639 24.8728 29.6639C25.0326 29.6639 25.1574 29.6939 25.2473 29.7538C25.3372 29.8138 25.437 29.9136 25.5469 30.0535L27.9213 33.02H27.7116V30.3082C27.7116 30.0984 27.764 29.9386 27.8688 29.8287C27.9787 29.7189 28.1385 29.6639 28.3482 29.6639C28.5579 29.6639 28.7152 29.7189 28.8201 29.8287C28.93 29.9386 28.9849 30.0984 28.9849 30.3082V34.4583C28.9849 34.6481 28.9349 34.8004 28.8351 34.9153C28.7352 35.0251 28.6004 35.0801 28.4306 35.0801C28.2608 35.0801 28.126 35.0501 28.0261 34.9902C27.9313 34.9252 27.8289 34.8254 27.719 34.6905L25.3447 31.7165H25.5544V34.4283C25.5544 34.6431 25.4995 34.8054 25.3896 34.9153C25.2847 35.0251 25.1274 35.0801 24.9177 35.0801Z" fill="white"/>
<path d="M31.9121 35.095C31.7124 35.095 31.5027 35.0801 31.283 35.0501C31.0682 35.0251 30.8635 34.9852 30.6688 34.9302C30.474 34.8753 30.2993 34.8104 30.1445 34.7355C30.0096 34.6705 29.9148 34.5856 29.8598 34.4808C29.8049 34.3709 29.7849 34.256 29.7999 34.1362C29.8149 34.0163 29.8573 33.9114 29.9272 33.8215C29.9971 33.7267 30.0895 33.6642 30.2044 33.6343C30.3192 33.5993 30.4491 33.6143 30.5939 33.6792C30.7836 33.7691 30.9983 33.839 31.238 33.889C31.4777 33.9389 31.7024 33.9639 31.9121 33.9639C32.2417 33.9639 32.4714 33.9214 32.6012 33.8365C32.736 33.7466 32.8035 33.6368 32.8035 33.5069C32.8035 33.392 32.756 33.2997 32.6611 33.2297C32.5713 33.1598 32.409 33.0999 32.1743 33.0499L31.2979 32.8627C30.8186 32.7628 30.4615 32.588 30.2268 32.3383C29.9922 32.0886 29.8748 31.7665 29.8748 31.3719C29.8748 31.1122 29.9272 30.8775 30.0321 30.6678C30.142 30.453 30.2943 30.2707 30.489 30.1209C30.6887 29.9711 30.9234 29.8562 31.1931 29.7763C31.4677 29.6914 31.7723 29.649 32.1069 29.649C32.3665 29.649 32.6287 29.6789 32.8933 29.7388C33.163 29.7938 33.3952 29.8787 33.5899 29.9935C33.7048 30.0535 33.7872 30.1359 33.8371 30.2408C33.887 30.3456 33.907 30.4555 33.897 30.5704C33.887 30.6802 33.8471 30.7776 33.7772 30.8625C33.7123 30.9474 33.6224 31.0049 33.5075 31.0348C33.3977 31.0598 33.2654 31.0398 33.1106 30.9749C32.9657 30.91 32.801 30.8625 32.6162 30.8326C32.4364 30.7976 32.2617 30.7801 32.0919 30.7801C31.9071 30.7801 31.7498 30.8026 31.62 30.8475C31.4902 30.8875 31.3903 30.9474 31.3204 31.0273C31.2555 31.1072 31.223 31.1996 31.223 31.3045C31.223 31.4094 31.2655 31.4993 31.3504 31.5742C31.4403 31.6441 31.6025 31.704 31.8372 31.754L32.7061 31.9413C33.1905 32.0461 33.5525 32.2184 33.7922 32.4581C34.0318 32.6979 34.1517 33.01 34.1517 33.3945C34.1517 33.6542 34.0993 33.889 33.9944 34.0987C33.8895 34.3085 33.7397 34.4883 33.545 34.6381C33.3502 34.7829 33.1156 34.8953 32.8409 34.9752C32.5663 35.0551 32.2567 35.095 31.9121 35.095Z" fill="white"/>
<path d="M36.6513 35.0801C36.4316 35.0801 36.2618 35.0201 36.142 34.9003C36.0221 34.7754 35.9622 34.6031 35.9622 34.3834V30.855H34.7862C34.6015 30.855 34.4592 30.8076 34.3593 30.7127C34.2644 30.6128 34.217 30.473 34.217 30.2932C34.217 30.1084 34.2644 29.9686 34.3593 29.8737C34.4592 29.7788 34.6015 29.7314 34.7862 29.7314H38.5164C38.7011 29.7314 38.8409 29.7788 38.9358 29.8737C39.0357 29.9686 39.0856 30.1084 39.0856 30.2932C39.0856 30.473 39.0357 30.6128 38.9358 30.7127C38.8409 30.8076 38.7011 30.855 38.5164 30.855H37.3404V34.3834C37.3404 34.6031 37.283 34.7754 37.1681 34.9003C37.0533 35.0201 36.881 35.0801 36.6513 35.0801Z" fill="white"/>
<path d="M40.2582 35.0126C40.0235 35.0126 39.8438 34.9527 39.7189 34.8328C39.5991 34.708 39.5392 34.5307 39.5392 34.301V30.443C39.5392 30.2133 39.5991 30.0385 39.7189 29.9186C39.8438 29.7938 40.0235 29.7314 40.2582 29.7314H42.7974C42.9772 29.7314 43.112 29.7763 43.2019 29.8662C43.2917 29.9561 43.3367 30.0859 43.3367 30.2557C43.3367 30.4305 43.2917 30.5654 43.2019 30.6603C43.112 30.7502 42.9772 30.7951 42.7974 30.7951H40.8574V31.7989H42.6326C42.8074 31.7989 42.9397 31.8439 43.0296 31.9338C43.1245 32.0237 43.1719 32.156 43.1719 32.3308C43.1719 32.5056 43.1245 32.6379 43.0296 32.7278C42.9397 32.8177 42.8074 32.8627 42.6326 32.8627H40.8574V33.9489H42.7974C42.9772 33.9489 43.112 33.9963 43.2019 34.0912C43.2917 34.1811 43.3367 34.311 43.3367 34.4808C43.3367 34.6556 43.2917 34.7879 43.2019 34.8778C43.112 34.9677 42.9772 35.0126 42.7974 35.0126H40.2582Z" fill="white"/>
<path d="M44.8292 35.0801C44.6094 35.0801 44.4397 35.0201 44.3198 34.9003C44.2 34.7754 44.1401 34.6031 44.1401 34.3834V30.428C44.1401 30.2033 44.2 30.031 44.3198 29.9111C44.4447 29.7913 44.6169 29.7314 44.8366 29.7314H46.6792C47.2784 29.7314 47.7403 29.8787 48.0649 30.1733C48.3945 30.463 48.5593 30.8675 48.5593 31.3869C48.5593 31.7215 48.4844 32.0137 48.3346 32.2634C48.1897 32.5081 47.9775 32.6979 47.6979 32.8327C47.4232 32.9626 47.0837 33.0275 46.6792 33.0275L46.7391 32.8926H47.0987C47.3134 32.8926 47.5031 32.9451 47.6679 33.0499C47.8327 33.1498 47.97 33.3046 48.0799 33.5144L48.4544 34.1886C48.5343 34.3334 48.5717 34.4758 48.5667 34.6156C48.5618 34.7504 48.5068 34.8628 48.402 34.9527C48.3021 35.0376 48.1548 35.0801 47.96 35.0801C47.7653 35.0801 47.6055 35.0401 47.4807 34.9602C47.3608 34.8803 47.2535 34.7554 47.1586 34.5856L46.477 33.3346C46.4171 33.2247 46.3397 33.1498 46.2448 33.1099C46.1549 33.0649 46.0501 33.0425 45.9302 33.0425H45.5183V34.3834C45.5183 34.6031 45.4608 34.7754 45.346 34.9003C45.2311 35.0201 45.0589 35.0801 44.8292 35.0801ZM45.5183 32.0686H46.432C46.6967 32.0686 46.8989 32.0162 47.0388 31.9113C47.1786 31.8064 47.2485 31.6441 47.2485 31.4244C47.2485 31.2146 47.1786 31.0573 47.0388 30.9524C46.8989 30.8425 46.6967 30.7876 46.432 30.7876H45.5183V32.0686Z" fill="white"/>
<path d="M11.6349 37.6362C11.5954 37.6362 11.5648 37.6254 11.5431 37.6037C11.5227 37.5808 11.5125 37.5496 11.5125 37.5101V36.3835C11.5125 36.3428 11.5227 36.3122 11.5431 36.2919C11.5648 36.2702 11.5954 36.2594 11.6349 36.2594C11.6744 36.2594 11.7044 36.2702 11.7248 36.2919C11.7465 36.3122 11.7573 36.3428 11.7573 36.3835V36.8705H11.7611L12.31 36.3205C12.3304 36.3002 12.3508 36.2849 12.3712 36.2747C12.3916 36.2645 12.4146 36.2594 12.4401 36.2594C12.477 36.2594 12.5032 36.269 12.5185 36.2881C12.535 36.3072 12.5414 36.3294 12.5376 36.3549C12.535 36.3804 12.5229 36.4039 12.5013 36.4255L11.9428 36.9774L11.9447 36.8666L12.528 37.4586C12.5548 37.4841 12.5688 37.5108 12.5701 37.5388C12.5714 37.5668 12.5625 37.5903 12.5433 37.6094C12.5255 37.6273 12.4987 37.6362 12.463 37.6362C12.4324 37.6362 12.4075 37.6298 12.3884 37.6171C12.3706 37.6044 12.3495 37.5859 12.3253 37.5617L11.7611 36.9984H11.7573V37.5101C11.7573 37.5496 11.7471 37.5808 11.7267 37.6037C11.7063 37.6254 11.6757 37.6362 11.6349 37.6362Z" fill="white"/>
<path d="M13.3893 37.64C13.2835 37.64 13.1923 37.6203 13.1158 37.5808C13.0393 37.5413 12.98 37.4853 12.938 37.4128C12.8972 37.3402 12.8768 37.2543 12.8768 37.155C12.8768 37.0582 12.8965 36.9736 12.9361 36.901C12.9769 36.8285 13.0323 36.7718 13.1024 36.7311C13.1738 36.6891 13.2548 36.6681 13.3453 36.6681C13.4116 36.6681 13.4709 36.6789 13.5232 36.7005C13.5767 36.7222 13.622 36.7533 13.659 36.7941C13.6972 36.8348 13.7259 36.8845 13.745 36.943C13.7654 37.0003 13.7756 37.0652 13.7756 37.1378C13.7756 37.1607 13.7674 37.1785 13.7508 37.1913C13.7355 37.2027 13.7132 37.2084 13.6838 37.2084H13.0699V37.071H13.6073L13.5767 37.0996C13.5767 37.041 13.5678 36.992 13.55 36.9526C13.5334 36.9131 13.5085 36.8832 13.4754 36.8628C13.4435 36.8412 13.4033 36.8304 13.3549 36.8304C13.3013 36.8304 13.2554 36.8431 13.2172 36.8686C13.1802 36.8927 13.1515 36.9277 13.1311 36.9736C13.112 37.0181 13.1024 37.0716 13.1024 37.134V37.1473C13.1024 37.2517 13.1267 37.33 13.1751 37.3822C13.2248 37.4331 13.2975 37.4586 13.3931 37.4586C13.4263 37.4586 13.4633 37.4548 13.5041 37.4471C13.5461 37.4382 13.5857 37.4236 13.6226 37.4032C13.6494 37.3879 13.673 37.3816 13.6934 37.3841C13.7138 37.3854 13.7297 37.3924 13.7412 37.4051C13.754 37.4179 13.7616 37.4338 13.7642 37.4529C13.7667 37.4707 13.7629 37.4891 13.7527 37.5082C13.7438 37.5273 13.7278 37.5439 13.7049 37.5579C13.6603 37.5859 13.6086 37.6069 13.55 37.6209C13.4926 37.6336 13.439 37.64 13.3893 37.64Z" fill="white"/>
<path d="M14.6171 37.64C14.5113 37.64 14.4201 37.6203 14.3436 37.5808C14.2671 37.5413 14.2079 37.4853 14.1658 37.4128C14.125 37.3402 14.1046 37.2543 14.1046 37.155C14.1046 37.0582 14.1243 36.9736 14.1639 36.901C14.2047 36.8285 14.2601 36.7718 14.3303 36.7311C14.4017 36.6891 14.4826 36.6681 14.5731 36.6681C14.6394 36.6681 14.6987 36.6789 14.751 36.7005C14.8046 36.7222 14.8498 36.7533 14.8868 36.7941C14.925 36.8348 14.9537 36.8845 14.9729 36.943C14.9933 37.0003 15.0035 37.0652 15.0035 37.1378C15.0035 37.1607 14.9952 37.1785 14.9786 37.1913C14.9633 37.2027 14.941 37.2084 14.9117 37.2084H14.2977V37.071H14.8352L14.8046 37.0996C14.8046 37.041 14.7956 36.992 14.7778 36.9526C14.7612 36.9131 14.7363 36.8832 14.7032 36.8628C14.6713 36.8412 14.6312 36.8304 14.5827 36.8304C14.5292 36.8304 14.4833 36.8431 14.445 36.8686C14.408 36.8927 14.3793 36.9277 14.3589 36.9736C14.3398 37.0181 14.3303 37.0716 14.3303 37.134V37.1473C14.3303 37.2517 14.3545 37.33 14.4029 37.3822C14.4527 37.4331 14.5253 37.4586 14.621 37.4586C14.6541 37.4586 14.6911 37.4548 14.7319 37.4471C14.774 37.4382 14.8135 37.4236 14.8505 37.4032C14.8772 37.3879 14.9008 37.3816 14.9212 37.3841C14.9416 37.3854 14.9576 37.3924 14.969 37.4051C14.9818 37.4179 14.9894 37.4338 14.992 37.4529C14.9945 37.4707 14.9907 37.4891 14.9805 37.5082C14.9716 37.5273 14.9556 37.5439 14.9327 37.5579C14.8881 37.5859 14.8364 37.6069 14.7778 37.6209C14.7204 37.6336 14.6669 37.64 14.6171 37.64Z" fill="white"/>
<path d="M15.5026 37.9799C15.4643 37.9799 15.435 37.9697 15.4146 37.9493C15.3942 37.929 15.384 37.8991 15.384 37.8596V36.7922C15.384 36.7527 15.3942 36.7228 15.4146 36.7024C15.435 36.6821 15.4637 36.6719 15.5007 36.6719C15.5389 36.6719 15.5683 36.6821 15.5887 36.7024C15.6091 36.7228 15.6193 36.7527 15.6193 36.7922V36.9411L15.5982 36.8838C15.6173 36.8189 15.6562 36.7667 15.7149 36.7272C15.7748 36.6878 15.8443 36.6681 15.9233 36.6681C16.0049 36.6681 16.0763 36.6878 16.1375 36.7272C16.2 36.7667 16.2485 36.8227 16.2829 36.8953C16.3173 36.9666 16.3345 37.0525 16.3345 37.1531C16.3345 37.2524 16.3173 37.3389 16.2829 37.4128C16.2485 37.4853 16.2007 37.5413 16.1395 37.5808C16.0783 37.6203 16.0062 37.64 15.9233 37.64C15.8456 37.64 15.7774 37.6209 15.7187 37.5827C15.6601 37.5432 15.6205 37.4923 15.6001 37.43H15.6231V37.8596C15.6231 37.8991 15.6122 37.929 15.5906 37.9493C15.5702 37.9697 15.5408 37.9799 15.5026 37.9799ZM15.8564 37.4586C15.9036 37.4586 15.945 37.4471 15.9807 37.4242C16.0164 37.4013 16.0438 37.3676 16.063 37.323C16.0834 37.2772 16.0936 37.2205 16.0936 37.1531C16.0936 37.0512 16.0719 36.9755 16.0285 36.9258C15.9852 36.8749 15.9278 36.8495 15.8564 36.8495C15.8092 36.8495 15.7678 36.8609 15.7321 36.8838C15.6964 36.9055 15.6683 36.9392 15.6479 36.985C15.6288 37.0296 15.6193 37.0856 15.6193 37.1531C15.6193 37.2536 15.6409 37.33 15.6843 37.3822C15.7276 37.4331 15.785 37.4586 15.8564 37.4586Z" fill="white"/>
<path d="M17.6696 37.9799C17.6416 37.9799 17.6186 37.9723 17.6008 37.957C17.5829 37.943 17.5721 37.9239 17.5683 37.8997C17.5657 37.8755 17.5702 37.85 17.5817 37.8233L17.7117 37.535V37.6343L17.3636 36.8304C17.3522 36.8024 17.3483 36.7763 17.3522 36.7521C17.356 36.7279 17.3675 36.7088 17.3866 36.6948C17.407 36.6795 17.4344 36.6719 17.4688 36.6719C17.4982 36.6719 17.5217 36.6789 17.5396 36.6929C17.5574 36.7056 17.5734 36.7304 17.5874 36.7673L17.8456 37.4109H17.7882L18.0521 36.7654C18.0662 36.7298 18.0827 36.7056 18.1019 36.6929C18.121 36.6789 18.1465 36.6719 18.1784 36.6719C18.2064 36.6719 18.2287 36.6795 18.2453 36.6948C18.2619 36.7088 18.2721 36.7279 18.2759 36.7521C18.2797 36.775 18.2753 36.8004 18.2625 36.8285L17.7978 37.8882C17.7812 37.9239 17.7634 37.9481 17.7442 37.9608C17.7251 37.9735 17.7002 37.9799 17.6696 37.9799Z" fill="white"/>
<path d="M19.0382 37.64C18.9413 37.64 18.8572 37.6203 18.7858 37.5808C18.7144 37.5413 18.6589 37.4853 18.6194 37.4128C18.5799 37.3389 18.5601 37.2524 18.5601 37.1531C18.5601 37.078 18.5709 37.0111 18.5926 36.9526C18.6156 36.8927 18.6481 36.8418 18.6902 36.7998C18.7322 36.7565 18.7826 36.7241 18.8412 36.7024C18.8999 36.6795 18.9656 36.6681 19.0382 36.6681C19.1351 36.6681 19.2193 36.6878 19.2907 36.7272C19.3621 36.7667 19.4175 36.8227 19.4571 36.8953C19.4966 36.9678 19.5164 37.0538 19.5164 37.1531C19.5164 37.2282 19.5049 37.2956 19.4819 37.3555C19.4603 37.4153 19.4284 37.4669 19.3863 37.5101C19.3442 37.5522 19.2939 37.5846 19.2352 37.6075C19.1766 37.6292 19.1109 37.64 19.0382 37.64ZM19.0382 37.4586C19.0854 37.4586 19.1268 37.4471 19.1625 37.4242C19.1982 37.4013 19.2257 37.3676 19.2448 37.323C19.2652 37.2772 19.2754 37.2205 19.2754 37.1531C19.2754 37.0512 19.2537 36.9755 19.2104 36.9258C19.167 36.8749 19.1096 36.8495 19.0382 36.8495C18.9911 36.8495 18.9496 36.8609 18.9139 36.8838C18.8782 36.9055 18.8502 36.9392 18.8298 36.985C18.8106 37.0296 18.8011 37.0856 18.8011 37.1531C18.8011 37.2536 18.8228 37.33 18.8661 37.3822C18.9095 37.4331 18.9668 37.4586 19.0382 37.4586Z" fill="white"/>
<path d="M20.2434 37.64C20.1657 37.64 20.1013 37.626 20.0503 37.598C19.9993 37.5687 19.961 37.5254 19.9355 37.4681C19.9113 37.4109 19.8992 37.3396 19.8992 37.2543V36.7922C19.8992 36.7514 19.9094 36.7215 19.9298 36.7024C19.9502 36.6821 19.9795 36.6719 20.0178 36.6719C20.056 36.6719 20.0853 36.6821 20.1057 36.7024C20.1274 36.7215 20.1382 36.7514 20.1382 36.7922V37.2581C20.1382 37.3243 20.1516 37.3733 20.1784 37.4051C20.2052 37.437 20.2479 37.4529 20.3065 37.4529C20.3703 37.4529 20.4226 37.4312 20.4634 37.3879C20.5042 37.3434 20.5246 37.2848 20.5246 37.2123V36.7922C20.5246 36.7514 20.5348 36.7215 20.5552 36.7024C20.5756 36.6821 20.6049 36.6719 20.6431 36.6719C20.6814 36.6719 20.7107 36.6821 20.7311 36.7024C20.7528 36.7215 20.7636 36.7514 20.7636 36.7922V37.514C20.7636 37.5954 20.7247 37.6362 20.647 37.6362C20.61 37.6362 20.5813 37.626 20.5609 37.6056C20.5405 37.584 20.5303 37.5534 20.5303 37.514V37.3688L20.5571 37.4261C20.5303 37.4949 20.4895 37.5477 20.4347 37.5846C20.3811 37.6215 20.3174 37.64 20.2434 37.64Z" fill="white"/>
<path d="M21.3261 37.6362C21.2866 37.6362 21.256 37.626 21.2343 37.6056C21.2139 37.584 21.2037 37.5534 21.2037 37.514V36.7922C21.2037 36.7527 21.2139 36.7228 21.2343 36.7024C21.2547 36.6821 21.2834 36.6719 21.3204 36.6719C21.3573 36.6719 21.386 36.6821 21.4064 36.7024C21.4268 36.7228 21.437 36.7527 21.437 36.7922V36.9125H21.4179C21.4358 36.8361 21.4708 36.7782 21.5231 36.7387C21.5754 36.6992 21.6449 36.6757 21.7316 36.6681C21.7583 36.6655 21.7794 36.6725 21.7947 36.6891C21.8112 36.7043 21.8208 36.7285 21.8234 36.7616C21.8259 36.7934 21.8183 36.8195 21.8004 36.8399C21.7838 36.859 21.7583 36.8705 21.7239 36.8743L21.6818 36.8781C21.6041 36.8857 21.5454 36.9099 21.5059 36.9507C21.4664 36.9901 21.4466 37.0461 21.4466 37.1187V37.514C21.4466 37.5534 21.4364 37.584 21.416 37.6056C21.3956 37.626 21.3656 37.6362 21.3261 37.6362Z" fill="white"/>
<path d="M23.2866 37.64C23.1884 37.64 23.103 37.6203 23.0303 37.5808C22.9576 37.5401 22.9015 37.4828 22.862 37.4089C22.8225 37.3351 22.8027 37.2485 22.8027 37.1493C22.8027 37.0741 22.8136 37.0073 22.8352 36.9488C22.8582 36.8889 22.8907 36.8386 22.9328 36.7979C22.9748 36.7559 23.0258 36.7241 23.0858 36.7024C23.1457 36.6795 23.2126 36.6681 23.2866 36.6681C23.3287 36.6681 23.3739 36.6738 23.4224 36.6852C23.4721 36.6967 23.5186 36.7158 23.562 36.7425C23.5824 36.7553 23.5958 36.7705 23.6021 36.7884C23.6085 36.8062 23.6098 36.8246 23.606 36.8437C23.6021 36.8616 23.5939 36.8775 23.5811 36.8915C23.5696 36.9042 23.555 36.9125 23.5371 36.9163C23.5193 36.9188 23.4995 36.9144 23.4778 36.9029C23.4498 36.8864 23.4211 36.8743 23.3918 36.8666C23.3624 36.8577 23.3344 36.8533 23.3076 36.8533C23.2655 36.8533 23.2286 36.8603 23.1967 36.8743C23.1648 36.887 23.1374 36.9061 23.1145 36.9316C23.0928 36.9558 23.0762 36.9863 23.0647 37.0232C23.0533 37.0601 23.0475 37.1028 23.0475 37.1512C23.0475 37.2454 23.0698 37.3198 23.1145 37.3746C23.1604 37.428 23.2247 37.4548 23.3076 37.4548C23.3344 37.4548 23.3618 37.451 23.3899 37.4433C23.4192 37.4357 23.4485 37.4236 23.4778 37.407C23.4995 37.3956 23.5186 37.3918 23.5352 37.3956C23.5531 37.3994 23.5677 37.4083 23.5792 37.4223C23.5907 37.435 23.5977 37.451 23.6002 37.4701C23.6028 37.4879 23.6002 37.5057 23.5926 37.5235C23.5862 37.5413 23.5735 37.556 23.5543 37.5674C23.5123 37.5929 23.4676 37.6114 23.4205 37.6228C23.3733 37.6343 23.3287 37.64 23.2866 37.64Z" fill="white"/>
<path d="M24.3555 37.64C24.2586 37.64 24.1745 37.6203 24.1031 37.5808C24.0317 37.5413 23.9762 37.4853 23.9367 37.4128C23.8971 37.3389 23.8774 37.2524 23.8774 37.1531C23.8774 37.078 23.8882 37.0111 23.9099 36.9526C23.9328 36.8927 23.9654 36.8418 24.0074 36.7998C24.0495 36.7565 24.0999 36.7241 24.1585 36.7024C24.2172 36.6795 24.2828 36.6681 24.3555 36.6681C24.4524 36.6681 24.5366 36.6878 24.608 36.7272C24.6794 36.7667 24.7348 36.8227 24.7743 36.8953C24.8139 36.9678 24.8336 37.0538 24.8336 37.1531C24.8336 37.2282 24.8222 37.2956 24.7992 37.3555C24.7775 37.4153 24.7457 37.4669 24.7036 37.5101C24.6615 37.5522 24.6111 37.5846 24.5525 37.6075C24.4938 37.6292 24.4282 37.64 24.3555 37.64ZM24.3555 37.4586C24.4027 37.4586 24.4441 37.4471 24.4798 37.4242C24.5155 37.4013 24.5429 37.3676 24.5621 37.323C24.5825 37.2772 24.5927 37.2205 24.5927 37.1531C24.5927 37.0512 24.571 36.9755 24.5276 36.9258C24.4843 36.8749 24.4269 36.8495 24.3555 36.8495C24.3083 36.8495 24.2669 36.8609 24.2312 36.8838C24.1955 36.9055 24.1674 36.9392 24.147 36.985C24.1279 37.0296 24.1184 37.0856 24.1184 37.1531C24.1184 37.2536 24.14 37.33 24.1834 37.3822C24.2267 37.4331 24.2841 37.4586 24.3555 37.4586Z" fill="white"/>
<path d="M25.3408 37.6362C25.3025 37.6362 25.2732 37.626 25.2528 37.6056C25.2324 37.584 25.2222 37.5534 25.2222 37.514V36.7922C25.2222 36.7527 25.2324 36.7228 25.2528 36.7024C25.2732 36.6821 25.3019 36.6719 25.3389 36.6719C25.3758 36.6719 25.4045 36.6821 25.4249 36.7024C25.4453 36.7228 25.4555 36.7527 25.4555 36.7922V36.922L25.4345 36.8743C25.4625 36.8068 25.5059 36.7559 25.5645 36.7215C25.6245 36.6859 25.692 36.6681 25.7673 36.6681C25.8425 36.6681 25.9043 36.6821 25.9528 36.7101C26.0012 36.7381 26.0376 36.7807 26.0618 36.838C26.086 36.894 26.0981 36.9653 26.0981 37.0519V37.514C26.0981 37.5534 26.0879 37.584 26.0675 37.6056C26.0471 37.626 26.0178 37.6362 25.9795 37.6362C25.9413 37.6362 25.9113 37.626 25.8897 37.6056C25.8693 37.584 25.8591 37.5534 25.8591 37.514V37.0633C25.8591 36.9908 25.845 36.9379 25.817 36.9048C25.7902 36.8717 25.7481 36.8552 25.6908 36.8552C25.6206 36.8552 25.5645 36.8775 25.5225 36.922C25.4817 36.9653 25.4613 37.0232 25.4613 37.0958V37.514C25.4613 37.5954 25.4211 37.6362 25.3408 37.6362Z" fill="white"/>
<path d="M26.9606 37.64C26.8777 37.64 26.8082 37.626 26.7521 37.598C26.6973 37.57 26.6565 37.5292 26.6297 37.4758C26.6029 37.421 26.5896 37.3536 26.5896 37.2734V36.8666H26.4901C26.4595 36.8666 26.4359 36.859 26.4193 36.8437C26.4028 36.8272 26.3945 36.8049 26.3945 36.7769C26.3945 36.7476 26.4028 36.7253 26.4193 36.7101C26.4359 36.6948 26.4595 36.6871 26.4901 36.6871H26.5896V36.5134C26.5896 36.4739 26.5998 36.444 26.6202 36.4236C26.6418 36.4033 26.6718 36.3931 26.71 36.3931C26.7483 36.3931 26.7776 36.4033 26.798 36.4236C26.8184 36.444 26.8286 36.4739 26.8286 36.5134V36.6871H27.0313C27.0619 36.6871 27.0855 36.6948 27.1021 36.7101C27.1187 36.7253 27.127 36.7476 27.127 36.7769C27.127 36.8049 27.1187 36.8272 27.1021 36.8437C27.0855 36.859 27.0619 36.8666 27.0313 36.8666H26.8286V37.26C26.8286 37.3211 26.842 37.3669 26.8688 37.3975C26.8956 37.428 26.9389 37.4433 26.9988 37.4433C27.0205 37.4433 27.0396 37.4414 27.0562 37.4376C27.0728 37.4338 27.0874 37.4312 27.1002 37.43C27.1155 37.4287 27.1282 37.4338 27.1384 37.4452C27.1486 37.4554 27.1537 37.4771 27.1537 37.5101C27.1537 37.5356 27.1493 37.5585 27.1404 37.5789C27.1327 37.598 27.118 37.6114 27.0964 37.619C27.0798 37.6241 27.0581 37.6285 27.0313 37.6324C27.0046 37.6375 26.981 37.64 26.9606 37.64Z" fill="white"/>
<path d="M27.7653 37.64C27.6978 37.64 27.6372 37.6273 27.5837 37.6018C27.5314 37.5751 27.4899 37.5394 27.4593 37.4949C27.43 37.4503 27.4154 37.4 27.4154 37.344C27.4154 37.2753 27.4332 37.2212 27.4689 37.1817C27.5046 37.141 27.5626 37.1117 27.6429 37.0939C27.7233 37.0761 27.831 37.0671 27.9662 37.0671H28.0618V37.2046H27.9681C27.889 37.2046 27.8259 37.2084 27.7787 37.2161C27.7316 37.2237 27.6978 37.2371 27.6774 37.2562C27.6582 37.274 27.6487 37.2995 27.6487 37.3326C27.6487 37.3746 27.6633 37.4089 27.6927 37.4357C27.722 37.4624 27.7628 37.4758 27.8151 37.4758C27.8571 37.4758 27.8941 37.4662 27.926 37.4471C27.9591 37.4268 27.9853 37.3994 28.0044 37.365C28.0235 37.3307 28.0331 37.2912 28.0331 37.2466V37.027C28.0331 36.9634 28.0191 36.9176 27.991 36.8896C27.963 36.8616 27.9158 36.8475 27.8495 36.8475C27.8125 36.8475 27.7724 36.852 27.729 36.8609C27.6869 36.8698 27.6423 36.8851 27.5951 36.9067C27.5709 36.9182 27.5492 36.9214 27.5301 36.9163C27.5123 36.9112 27.4982 36.901 27.488 36.8857C27.4778 36.8692 27.4727 36.8514 27.4727 36.8323C27.4727 36.8132 27.4778 36.7947 27.488 36.7769C27.4982 36.7578 27.5154 36.7438 27.5397 36.7349C27.5983 36.7107 27.6544 36.6935 27.708 36.6833C27.7628 36.6731 27.8125 36.6681 27.8571 36.6681C27.9489 36.6681 28.0242 36.6821 28.0828 36.7101C28.1427 36.7381 28.1874 36.7807 28.2167 36.838C28.246 36.894 28.2607 36.9666 28.2607 37.0557V37.514C28.2607 37.5534 28.2511 37.584 28.232 37.6056C28.2129 37.626 28.1855 37.6362 28.1498 37.6362C28.1141 37.6362 28.086 37.626 28.0656 37.6056C28.0465 37.584 28.0369 37.5534 28.0369 37.514V37.4223H28.0522C28.0433 37.4669 28.0254 37.5057 27.9987 37.5388C27.9732 37.5706 27.9407 37.5954 27.9011 37.6133C27.8616 37.6311 27.8163 37.64 27.7653 37.64Z" fill="white"/>
<path d="M28.8132 37.6343C28.7749 37.6343 28.7456 37.6228 28.7252 37.5999C28.7048 37.577 28.6946 37.5452 28.6946 37.5044V36.8036C28.6946 36.7616 28.7048 36.7298 28.7252 36.7082C28.7456 36.6852 28.7749 36.6738 28.8132 36.6738C28.8514 36.6738 28.8807 36.6852 28.9011 36.7082C28.9228 36.7298 28.9336 36.7616 28.9336 36.8036V37.5044C28.9336 37.5452 28.9234 37.577 28.903 37.5999C28.8826 37.6228 28.8527 37.6343 28.8132 37.6343ZM28.8132 36.4962C28.7685 36.4962 28.7335 36.4854 28.708 36.4637C28.6837 36.4408 28.6716 36.4096 28.6716 36.3702C28.6716 36.3294 28.6837 36.2982 28.708 36.2766C28.7335 36.255 28.7685 36.2441 28.8132 36.2441C28.8591 36.2441 28.8941 36.255 28.9183 36.2766C28.9426 36.2982 28.9547 36.3294 28.9547 36.3702C28.9547 36.4096 28.9426 36.4408 28.9183 36.4637C28.8941 36.4854 28.8591 36.4962 28.8132 36.4962Z" fill="white"/>
<path d="M29.4919 37.6362C29.4536 37.6362 29.4243 37.626 29.4039 37.6056C29.3835 37.584 29.3733 37.5534 29.3733 37.514V36.7922C29.3733 36.7527 29.3835 36.7228 29.4039 36.7024C29.4243 36.6821 29.453 36.6719 29.49 36.6719C29.5269 36.6719 29.5556 36.6821 29.576 36.7024C29.5964 36.7228 29.6066 36.7527 29.6066 36.7922V36.922L29.5856 36.8743C29.6136 36.8068 29.657 36.7559 29.7156 36.7215C29.7756 36.6859 29.8431 36.6681 29.9184 36.6681C29.9936 36.6681 30.0554 36.6821 30.1039 36.7101C30.1523 36.7381 30.1887 36.7807 30.2129 36.838C30.2371 36.894 30.2492 36.9653 30.2492 37.0519V37.514C30.2492 37.5534 30.239 37.584 30.2186 37.6056C30.1982 37.626 30.1689 37.6362 30.1306 37.6362C30.0924 37.6362 30.0624 37.626 30.0408 37.6056C30.0204 37.584 30.0102 37.5534 30.0102 37.514V37.0633C30.0102 36.9908 29.9961 36.9379 29.9681 36.9048C29.9413 36.8717 29.8992 36.8552 29.8419 36.8552C29.7717 36.8552 29.7156 36.8775 29.6736 36.922C29.6328 36.9653 29.6124 37.0232 29.6124 37.0958V37.514C29.6124 37.5954 29.5722 37.6362 29.4919 37.6362Z" fill="white"/>
<path d="M31.1442 37.64C31.0384 37.64 30.9472 37.6203 30.8707 37.5808C30.7942 37.5413 30.7349 37.4853 30.6928 37.4128C30.652 37.3402 30.6316 37.2543 30.6316 37.155C30.6316 37.0582 30.6514 36.9736 30.6909 36.901C30.7317 36.8285 30.7872 36.7718 30.8573 36.7311C30.9287 36.6891 31.0097 36.6681 31.1002 36.6681C31.1665 36.6681 31.2258 36.6789 31.2781 36.7005C31.3316 36.7222 31.3769 36.7533 31.4139 36.7941C31.4521 36.8348 31.4808 36.8845 31.4999 36.943C31.5203 37.0003 31.5305 37.0652 31.5305 37.1378C31.5305 37.1607 31.5222 37.1785 31.5057 37.1913C31.4904 37.2027 31.468 37.2084 31.4387 37.2084H30.8248V37.071H31.3622L31.3316 37.0996C31.3316 37.041 31.3227 36.992 31.3048 36.9526C31.2883 36.9131 31.2634 36.8832 31.2303 36.8628C31.1984 36.8412 31.1582 36.8304 31.1098 36.8304C31.0562 36.8304 31.0103 36.8431 30.9721 36.8686C30.9351 36.8927 30.9064 36.9277 30.886 36.9736C30.8669 37.0181 30.8573 37.0716 30.8573 37.134V37.1473C30.8573 37.2517 30.8815 37.33 30.93 37.3822C30.9797 37.4331 31.0524 37.4586 31.148 37.4586C31.1812 37.4586 31.2181 37.4548 31.2589 37.4471C31.301 37.4382 31.3405 37.4236 31.3775 37.4032C31.4043 37.3879 31.4279 37.3816 31.4483 37.3841C31.4687 37.3854 31.4846 37.3924 31.4961 37.4051C31.5088 37.4179 31.5165 37.4338 31.519 37.4529C31.5216 37.4707 31.5178 37.4891 31.5076 37.5082C31.4986 37.5273 31.4827 37.5439 31.4598 37.5579C31.4151 37.5859 31.3635 37.6069 31.3048 37.6209C31.2475 37.6336 31.1939 37.64 31.1442 37.64Z" fill="white"/>
<path d="M32.0335 37.6362C31.994 37.6362 31.9634 37.626 31.9417 37.6056C31.9213 37.584 31.9111 37.5534 31.9111 37.514V36.7922C31.9111 36.7527 31.9213 36.7228 31.9417 36.7024C31.9621 36.6821 31.9908 36.6719 32.0278 36.6719C32.0647 36.6719 32.0934 36.6821 32.1138 36.7024C32.1342 36.7228 32.1444 36.7527 32.1444 36.7922V36.9125H32.1253C32.1431 36.8361 32.1782 36.7782 32.2305 36.7387C32.2828 36.6992 32.3522 36.6757 32.4389 36.6681C32.4657 36.6655 32.4868 36.6725 32.5021 36.6891C32.5186 36.7043 32.5282 36.7285 32.5307 36.7616C32.5333 36.7934 32.5256 36.8195 32.5078 36.8399C32.4912 36.859 32.4657 36.8705 32.4313 36.8743L32.3892 36.8781C32.3114 36.8857 32.2528 36.9099 32.2133 36.9507C32.1737 36.9901 32.154 37.0461 32.154 37.1187V37.514C32.154 37.5534 32.1438 37.584 32.1234 37.6056C32.103 37.626 32.073 37.6362 32.0335 37.6362Z" fill="white"/>
<path d="M33.9003 37.64C33.8225 37.64 33.7581 37.626 33.7071 37.598C33.6561 37.5687 33.6178 37.5254 33.5923 37.4681C33.5681 37.4109 33.556 37.3396 33.556 37.2543V36.7922C33.556 36.7514 33.5662 36.7215 33.5866 36.7024C33.607 36.6821 33.6363 36.6719 33.6746 36.6719C33.7128 36.6719 33.7422 36.6821 33.7626 36.7024C33.7842 36.7215 33.7951 36.7514 33.7951 36.7922V37.2581C33.7951 37.3243 33.8085 37.3733 33.8352 37.4051C33.862 37.437 33.9047 37.4529 33.9634 37.4529C34.0271 37.4529 34.0794 37.4312 34.1202 37.3879C34.161 37.3434 34.1814 37.2848 34.1814 37.2123V36.7922C34.1814 36.7514 34.1916 36.7215 34.212 36.7024C34.2324 36.6821 34.2617 36.6719 34.3 36.6719C34.3382 36.6719 34.3675 36.6821 34.3879 36.7024C34.4096 36.7215 34.4205 36.7514 34.4205 36.7922V37.514C34.4205 37.5954 34.3816 37.6362 34.3038 37.6362C34.2668 37.6362 34.2381 37.626 34.2177 37.6056C34.1973 37.584 34.1871 37.5534 34.1871 37.514V37.3688L34.2139 37.4261C34.1871 37.4949 34.1463 37.5477 34.0915 37.5846C34.038 37.6215 33.9742 37.64 33.9003 37.64Z" fill="white"/>
<path d="M34.9791 37.6362C34.9408 37.6362 34.9115 37.626 34.8911 37.6056C34.8707 37.584 34.8605 37.5534 34.8605 37.514V36.7922C34.8605 36.7527 34.8707 36.7228 34.8911 36.7024C34.9115 36.6821 34.9402 36.6719 34.9772 36.6719C35.0142 36.6719 35.0428 36.6821 35.0632 36.7024C35.0836 36.7228 35.0938 36.7527 35.0938 36.7922V36.922L35.0728 36.8743C35.1009 36.8068 35.1442 36.7559 35.2029 36.7215C35.2628 36.6859 35.3304 36.6681 35.4056 36.6681C35.4808 36.6681 35.5426 36.6821 35.5911 36.7101C35.6395 36.7381 35.6759 36.7807 35.7001 36.838C35.7243 36.894 35.7364 36.9653 35.7364 37.0519V37.514C35.7364 37.5534 35.7262 37.584 35.7058 37.6056C35.6854 37.626 35.6561 37.6362 35.6179 37.6362C35.5796 37.6362 35.5497 37.626 35.528 37.6056C35.5076 37.584 35.4974 37.5534 35.4974 37.514V37.0633C35.4974 36.9908 35.4834 36.9379 35.4553 36.9048C35.4285 36.8717 35.3865 36.8552 35.3291 36.8552C35.259 36.8552 35.2029 36.8775 35.1608 36.922C35.12 36.9653 35.0996 37.0232 35.0996 37.0958V37.514C35.0996 37.5954 35.0594 37.6362 34.9791 37.6362Z" fill="white"/>
<path d="M36.5301 37.64C36.4485 37.64 36.3764 37.6203 36.3139 37.5808C36.2527 37.5413 36.2049 37.4853 36.1705 37.4128C36.1361 37.3389 36.1189 37.2524 36.1189 37.1531C36.1189 37.0525 36.1361 36.9666 36.1705 36.8953C36.2049 36.8227 36.2527 36.7667 36.3139 36.7272C36.3764 36.6878 36.4485 36.6681 36.5301 36.6681C36.6078 36.6681 36.6754 36.6871 36.7328 36.7253C36.7914 36.7635 36.831 36.8138 36.8514 36.8762H36.8303V36.3797C36.8303 36.3403 36.8405 36.3103 36.8609 36.29C36.8813 36.2696 36.9106 36.2594 36.9489 36.2594C36.9871 36.2594 37.0165 36.2696 37.0369 36.29C37.0585 36.3103 37.0694 36.3403 37.0694 36.3797V37.514C37.0694 37.5534 37.0592 37.584 37.0388 37.6056C37.0184 37.626 36.9891 37.6362 36.9508 37.6362C36.9126 37.6362 36.8832 37.626 36.8628 37.6056C36.8424 37.584 36.8322 37.5534 36.8322 37.514V37.365L36.8533 37.4223C36.8341 37.4885 36.7953 37.5413 36.7366 37.5808C36.678 37.6203 36.6091 37.64 36.5301 37.64ZM36.597 37.4586C36.6442 37.4586 36.6856 37.4471 36.7213 37.4242C36.757 37.4013 36.7844 37.3676 36.8035 37.323C36.8239 37.2772 36.8341 37.2205 36.8341 37.1531C36.8341 37.0512 36.8125 36.9755 36.7691 36.9258C36.7258 36.8749 36.6684 36.8495 36.597 36.8495C36.5498 36.8495 36.5084 36.8609 36.4727 36.8838C36.437 36.9055 36.4089 36.9392 36.3885 36.985C36.3694 37.0296 36.3598 37.0856 36.3598 37.1531C36.3598 37.2536 36.3815 37.33 36.4249 37.3822C36.4682 37.4331 36.5256 37.4586 36.597 37.4586Z" fill="white"/>
<path d="M37.9694 37.64C37.8636 37.64 37.7724 37.6203 37.6959 37.5808C37.6194 37.5413 37.5601 37.4853 37.5181 37.4128C37.4773 37.3402 37.4569 37.2543 37.4569 37.155C37.4569 37.0582 37.4766 36.9736 37.5162 36.901C37.557 36.8285 37.6124 36.7718 37.6825 36.7311C37.7539 36.6891 37.8349 36.6681 37.9254 36.6681C37.9917 36.6681 38.051 36.6789 38.1033 36.7005C38.1568 36.7222 38.2021 36.7533 38.2391 36.7941C38.2773 36.8348 38.306 36.8845 38.3252 36.943C38.3456 37.0003 38.3557 37.0652 38.3557 37.1378C38.3557 37.1607 38.3475 37.1785 38.3309 37.1913C38.3156 37.2027 38.2933 37.2084 38.264 37.2084H37.65V37.071H38.1874L38.1569 37.0996C38.1569 37.041 38.1479 36.992 38.1301 36.9526C38.1135 36.9131 38.0886 36.8832 38.0555 36.8628C38.0236 36.8412 37.9834 36.8304 37.935 36.8304C37.8814 36.8304 37.8355 36.8431 37.7973 36.8686C37.7603 36.8927 37.7316 36.9277 37.7112 36.9736C37.6921 37.0181 37.6825 37.0716 37.6825 37.134V37.1473C37.6825 37.2517 37.7068 37.33 37.7552 37.3822C37.805 37.4331 37.8776 37.4586 37.9733 37.4586C38.0064 37.4586 38.0434 37.4548 38.0842 37.4471C38.1263 37.4382 38.1658 37.4236 38.2028 37.4032C38.2295 37.3879 38.2531 37.3816 38.2735 37.3841C38.2939 37.3854 38.3099 37.3924 38.3213 37.4051C38.3341 37.4179 38.3417 37.4338 38.3443 37.4529C38.3468 37.4707 38.343 37.4891 38.3328 37.5082C38.3239 37.5273 38.3079 37.5439 38.285 37.5579C38.2404 37.5859 38.1887 37.6069 38.1301 37.6209C38.0727 37.6336 38.0191 37.64 37.9694 37.64Z" fill="white"/>
<path d="M38.8587 37.6362C38.8192 37.6362 38.7886 37.626 38.7669 37.6056C38.7465 37.584 38.7363 37.5534 38.7363 37.514V36.7922C38.7363 36.7527 38.7465 36.7228 38.7669 36.7024C38.7873 36.6821 38.816 36.6719 38.853 36.6719C38.89 36.6719 38.9186 36.6821 38.939 36.7024C38.9594 36.7228 38.9696 36.7527 38.9696 36.7922V36.9125H38.9505C38.9684 36.8361 39.0034 36.7782 39.0557 36.7387C39.108 36.6992 39.1775 36.6757 39.2642 36.6681C39.2909 36.6655 39.312 36.6725 39.3273 36.6891C39.3439 36.7043 39.3534 36.7285 39.356 36.7616C39.3585 36.7934 39.3509 36.8195 39.333 36.8399C39.3164 36.859 39.2909 36.8705 39.2565 36.8743L39.2144 36.8781C39.1367 36.8857 39.078 36.9099 39.0385 36.9507C38.999 36.9901 38.9792 37.0461 38.9792 37.1187V37.514C38.9792 37.5534 38.969 37.584 38.9486 37.6056C38.9282 37.626 38.8982 37.6362 38.8587 37.6362Z" fill="white"/>
<path d="M40.8192 37.64C40.721 37.64 40.6356 37.6203 40.5629 37.5808C40.4902 37.5401 40.4341 37.4828 40.3946 37.4089C40.3551 37.3351 40.3353 37.2485 40.3353 37.1493C40.3353 37.0741 40.3462 37.0073 40.3678 36.9488C40.3908 36.8889 40.4233 36.8386 40.4654 36.7979C40.5075 36.7559 40.5585 36.7241 40.6184 36.7024C40.6783 36.6795 40.7452 36.6681 40.8192 36.6681C40.8613 36.6681 40.9065 36.6738 40.955 36.6852C41.0047 36.6967 41.0512 36.7158 41.0946 36.7425C41.115 36.7553 41.1284 36.7705 41.1348 36.7884C41.1411 36.8062 41.1424 36.8246 41.1386 36.8437C41.1348 36.8616 41.1265 36.8775 41.1137 36.8915C41.1022 36.9042 41.0876 36.9125 41.0697 36.9163C41.0519 36.9188 41.0321 36.9144 41.0104 36.9029C40.9824 36.8864 40.9537 36.8743 40.9244 36.8666C40.8951 36.8577 40.867 36.8533 40.8402 36.8533C40.7982 36.8533 40.7612 36.8603 40.7293 36.8743C40.6974 36.887 40.67 36.9061 40.6471 36.9316C40.6254 36.9558 40.6088 36.9863 40.5973 37.0232C40.5859 37.0601 40.5801 37.1028 40.5801 37.1512C40.5801 37.2454 40.6024 37.3198 40.6471 37.3746C40.693 37.428 40.7574 37.4548 40.8402 37.4548C40.867 37.4548 40.8944 37.451 40.9225 37.4433C40.9518 37.4357 40.9811 37.4236 41.0104 37.407C41.0321 37.3956 41.0512 37.3918 41.0678 37.3956C41.0857 37.3994 41.1003 37.4083 41.1118 37.4223C41.1233 37.435 41.1303 37.451 41.1328 37.4701C41.1354 37.4879 41.1328 37.5057 41.1252 37.5235C41.1188 37.5413 41.1061 37.556 41.0869 37.5674C41.0449 37.5929 41.0002 37.6114 40.9531 37.6228C40.9059 37.6343 40.8613 37.64 40.8192 37.64Z" fill="white"/>
<path d="M41.8881 37.64C41.7912 37.64 41.7071 37.6203 41.6357 37.5808C41.5643 37.5413 41.5088 37.4853 41.4693 37.4128C41.4298 37.3389 41.41 37.2524 41.41 37.1531C41.41 37.078 41.4208 37.0111 41.4425 36.9526C41.4655 36.8927 41.498 36.8418 41.54 36.7998C41.5821 36.7565 41.6325 36.7241 41.6911 36.7024C41.7498 36.6795 41.8154 36.6681 41.8881 36.6681C41.985 36.6681 42.0692 36.6878 42.1406 36.7272C42.212 36.7667 42.2674 36.8227 42.307 36.8953C42.3465 36.9678 42.3662 37.0538 42.3662 37.1531C42.3662 37.2282 42.3548 37.2956 42.3318 37.3555C42.3101 37.4153 42.2783 37.4669 42.2362 37.5101C42.1941 37.5522 42.1438 37.5846 42.0851 37.6075C42.0265 37.6292 41.9608 37.64 41.8881 37.64ZM41.8881 37.4586C41.9353 37.4586 41.9767 37.4471 42.0124 37.4242C42.0481 37.4013 42.0755 37.3676 42.0947 37.323C42.1151 37.2772 42.1253 37.2205 42.1253 37.1531C42.1253 37.0512 42.1036 36.9755 42.0602 36.9258C42.0169 36.8749 41.9595 36.8495 41.8881 36.8495C41.8409 36.8495 41.7995 36.8609 41.7638 36.8838C41.7281 36.9055 41.7001 36.9392 41.6797 36.985C41.6605 37.0296 41.651 37.0856 41.651 37.1531C41.651 37.2536 41.6726 37.33 41.716 37.3822C41.7593 37.4331 41.8167 37.4586 41.8881 37.4586Z" fill="white"/>
<path d="M42.8734 37.6362C42.8351 37.6362 42.8058 37.626 42.7854 37.6056C42.765 37.584 42.7548 37.5534 42.7548 37.514V36.7922C42.7548 36.7527 42.765 36.7228 42.7854 36.7024C42.8058 36.6821 42.8345 36.6719 42.8715 36.6719C42.9085 36.6719 42.9371 36.6821 42.9575 36.7024C42.9779 36.7228 42.9881 36.7527 42.9881 36.7922V36.922L42.9671 36.8743C42.9952 36.8068 43.0385 36.7559 43.0972 36.7215C43.1571 36.6859 43.2247 36.6681 43.2999 36.6681C43.3751 36.6681 43.4369 36.6821 43.4854 36.7101C43.5338 36.7381 43.5702 36.7807 43.5944 36.838C43.6186 36.894 43.6307 36.9653 43.6307 37.0519V37.514C43.6307 37.5534 43.6205 37.584 43.6001 37.6056C43.5797 37.626 43.5504 37.6362 43.5122 37.6362C43.4739 37.6362 43.444 37.626 43.4223 37.6056C43.4019 37.584 43.3917 37.5534 43.3917 37.514V37.0633C43.3917 36.9908 43.3777 36.9379 43.3496 36.9048C43.3228 36.8717 43.2808 36.8552 43.2234 36.8552C43.1533 36.8552 43.0972 36.8775 43.0551 36.922C43.0143 36.9653 42.9939 37.0232 42.9939 37.0958V37.514C42.9939 37.5954 42.9537 37.6362 42.8734 37.6362Z" fill="white"/>
<path d="M44.4932 37.64C44.4103 37.64 44.3408 37.626 44.2847 37.598C44.2299 37.57 44.1891 37.5292 44.1623 37.4758C44.1356 37.421 44.1222 37.3536 44.1222 37.2734V36.8666H44.0227C43.9921 36.8666 43.9685 36.859 43.952 36.8437C43.9354 36.8272 43.9271 36.8049 43.9271 36.7769C43.9271 36.7476 43.9354 36.7253 43.952 36.7101C43.9685 36.6948 43.9921 36.6871 44.0227 36.6871H44.1222V36.5134C44.1222 36.4739 44.1324 36.444 44.1528 36.4236C44.1745 36.4033 44.2044 36.3931 44.2427 36.3931C44.2809 36.3931 44.3102 36.4033 44.3306 36.4236C44.351 36.444 44.3612 36.4739 44.3612 36.5134V36.6871H44.564C44.5946 36.6871 44.6182 36.6948 44.6347 36.7101C44.6513 36.7253 44.6596 36.7476 44.6596 36.7769C44.6596 36.8049 44.6513 36.8272 44.6347 36.8437C44.6182 36.859 44.5946 36.8666 44.564 36.8666H44.3612V37.26C44.3612 37.3211 44.3746 37.3669 44.4014 37.3975C44.4282 37.428 44.4715 37.4433 44.5315 37.4433C44.5531 37.4433 44.5723 37.4414 44.5888 37.4376C44.6054 37.4338 44.6201 37.4312 44.6328 37.43C44.6481 37.4287 44.6609 37.4338 44.6711 37.4452C44.6813 37.4554 44.6864 37.4771 44.6864 37.5101C44.6864 37.5356 44.6819 37.5585 44.673 37.5789C44.6653 37.598 44.6507 37.6114 44.629 37.619C44.6124 37.6241 44.5907 37.6285 44.564 37.6324C44.5372 37.6375 44.5136 37.64 44.4932 37.64Z" fill="white"/>
<path d="M45.1124 37.6362C45.0729 37.6362 45.0423 37.626 45.0206 37.6056C45.0002 37.584 44.99 37.5534 44.99 37.514V36.7922C44.99 36.7527 45.0002 36.7228 45.0206 36.7024C45.041 36.6821 45.0697 36.6719 45.1067 36.6719C45.1437 36.6719 45.1724 36.6821 45.1928 36.7024C45.2132 36.7228 45.2234 36.7527 45.2234 36.7922V36.9125H45.2042C45.2221 36.8361 45.2572 36.7782 45.3094 36.7387C45.3617 36.6992 45.4312 36.6757 45.5179 36.6681C45.5447 36.6655 45.5657 36.6725 45.581 36.6891C45.5976 36.7043 45.6071 36.7285 45.6097 36.7616C45.6122 36.7934 45.6046 36.8195 45.5867 36.8399C45.5702 36.859 45.5447 36.8705 45.5102 36.8743L45.4682 36.8781C45.3904 36.8857 45.3317 36.9099 45.2922 36.9507C45.2527 36.9901 45.2329 37.0461 45.2329 37.1187V37.514C45.2329 37.5534 45.2227 37.584 45.2023 37.6056C45.1819 37.626 45.152 37.6362 45.1124 37.6362Z" fill="white"/>
<path d="M46.3418 37.64C46.2449 37.64 46.1607 37.6203 46.0893 37.5808C46.0179 37.5413 45.9625 37.4853 45.9229 37.4128C45.8834 37.3389 45.8637 37.2524 45.8637 37.1531C45.8637 37.078 45.8745 37.0111 45.8962 36.9526C45.9191 36.8927 45.9516 36.8418 45.9937 36.7998C46.0358 36.7565 46.0861 36.7241 46.1448 36.7024C46.2034 36.6795 46.2691 36.6681 46.3418 36.6681C46.4387 36.6681 46.5228 36.6878 46.5942 36.7272C46.6656 36.7667 46.7211 36.8227 46.7606 36.8953C46.8001 36.9678 46.8199 37.0538 46.8199 37.1531C46.8199 37.2282 46.8084 37.2956 46.7855 37.3555C46.7638 37.4153 46.7319 37.4669 46.6899 37.5101C46.6478 37.5522 46.5974 37.5846 46.5388 37.6075C46.4801 37.6292 46.4145 37.64 46.3418 37.64ZM46.3418 37.4586C46.389 37.4586 46.4304 37.4471 46.4661 37.4242C46.5018 37.4013 46.5292 37.3676 46.5483 37.323C46.5687 37.2772 46.5789 37.2205 46.5789 37.1531C46.5789 37.0512 46.5573 36.9755 46.5139 36.9258C46.4706 36.8749 46.4132 36.8495 46.3418 36.8495C46.2946 36.8495 46.2532 36.8609 46.2175 36.8838C46.1818 36.9055 46.1537 36.9392 46.1333 36.985C46.1142 37.0296 46.1046 37.0856 46.1046 37.1531C46.1046 37.2536 46.1263 37.33 46.1697 37.3822C46.213 37.4331 46.2704 37.4586 46.3418 37.4586Z" fill="white"/>
<path d="M47.5279 37.64C47.422 37.64 47.3423 37.6101 47.2888 37.5502C47.2352 37.4891 47.2085 37.4 47.2085 37.2829V36.3797C47.2085 36.3403 47.2187 36.3103 47.2391 36.29C47.2595 36.2696 47.2888 36.2594 47.327 36.2594C47.3653 36.2594 47.3946 36.2696 47.415 36.29C47.4367 36.3103 47.4475 36.3403 47.4475 36.3797V37.2715C47.4475 37.33 47.4596 37.3733 47.4839 37.4013C47.5094 37.4293 47.5451 37.4433 47.591 37.4433C47.6012 37.4433 47.6107 37.4433 47.6197 37.4433C47.6286 37.442 47.6375 37.4408 47.6464 37.4395C47.6643 37.437 47.6764 37.442 47.6828 37.4548C47.6891 37.4662 47.6923 37.4904 47.6923 37.5273C47.6923 37.5592 47.686 37.584 47.6732 37.6018C47.6605 37.6196 47.6394 37.6304 47.6101 37.6343C47.5973 37.6355 47.584 37.6368 47.5699 37.6381C47.5559 37.6394 47.5419 37.64 47.5279 37.64Z" fill="white"/>
<path d="M48.3298 37.64C48.224 37.64 48.1443 37.6101 48.0908 37.5502C48.0372 37.4891 48.0105 37.4 48.0105 37.2829V36.3797C48.0105 36.3403 48.0207 36.3103 48.0411 36.29C48.0615 36.2696 48.0908 36.2594 48.129 36.2594C48.1673 36.2594 48.1966 36.2696 48.217 36.29C48.2387 36.3103 48.2495 36.3403 48.2495 36.3797V37.2715C48.2495 37.33 48.2616 37.3733 48.2859 37.4013C48.3114 37.4293 48.3471 37.4433 48.393 37.4433C48.4032 37.4433 48.4127 37.4433 48.4216 37.4433C48.4306 37.442 48.4395 37.4408 48.4484 37.4395C48.4663 37.437 48.4784 37.442 48.4848 37.4548C48.4911 37.4662 48.4943 37.4904 48.4943 37.5273C48.4943 37.5592 48.4879 37.584 48.4752 37.6018C48.4624 37.6196 48.4414 37.6304 48.4121 37.6343C48.3993 37.6355 48.3859 37.6368 48.3719 37.6381C48.3579 37.6394 48.3439 37.64 48.3298 37.64Z" fill="white"/>
<path fill-rule="evenodd" clip-rule="evenodd" d="M45.9375 19.3222C43.5145 20.7741 41.0667 20.5706 40.1026 20.7741C37.0567 21.4176 32.9918 20.9139 28.3835 19.3222C23.4555 17.6196 10.4127 17.3093 7.71983 18.4585C6.99729 18.767 6.19444 18.2372 6.19444 17.4519V13.6462C6.19444 10.6287 17.4074 2.61316 20.4263 2.61316H30.2262H40.3162C43.1563 2.61316 53.4097 10.5169 53.3472 13.3549L53.2761 16.5834C53.2496 17.7868 51.675 16.5834 45.9375 19.3222ZM38.2713 13.4768C36.9245 14.2104 36.5637 15.8878 37.5428 16.8657C38.3331 17.655 39.3838 17.7143 40.2486 17.0184C41.375 16.1121 41.4201 15.1566 40.3922 13.9768C39.455 12.9015 39.3655 12.8808 38.2713 13.4768ZM35.7969 12.5802C35.2352 12.0191 34.0783 12.4392 34.0783 13.2046C34.0783 14.0508 35.1587 14.3246 35.74 13.6254C36.1012 13.1908 36.1171 12.8999 35.7969 12.5802ZM19.579 11.6474C19.2133 12.1471 19.1795 12.5814 19.4646 13.1136C20.2037 14.4928 22.0334 13.7823 21.8089 12.2032C21.6392 11.008 20.2928 10.6729 19.579 11.6474ZM7.67421 40.7388C8.61182 40.2225 13.218 41.9494 14.182 41.7459C17.2279 41.1024 27.0082 39.2906 31.6165 40.8822C36.5445 42.5848 40.8217 42.8952 43.5145 41.7459C51.1172 39.3713 54.6024 41.9673 54.6024 42.7526V46.5583C54.6024 49.5758 42.5926 58.3869 39.5737 58.3869H29.7738H19.6838C16.8437 58.3869 5.79345 49.6876 5.85595 46.8496L5.92703 43.6211C5.95353 42.4177 6.61926 41.3194 7.67421 40.7388ZM21.7287 46.7277C23.0755 45.994 23.4363 44.3166 22.4572 43.3388C21.6668 42.5495 20.6162 42.4902 19.7514 43.1861C18.625 44.0924 18.5799 45.0479 19.6078 46.2276C20.545 47.3029 20.6345 47.3237 21.7287 46.7277ZM24.2031 47.6243C24.7648 48.1853 25.9217 47.7653 25.9217 46.9999C25.9217 46.1537 24.8413 45.8799 24.26 46.579C23.8988 47.0137 23.8829 47.3046 24.2031 47.6243ZM40.4211 48.557C40.7867 48.0573 40.8205 47.6231 40.5354 47.0909C39.7963 45.7117 37.9666 46.4222 38.1911 48.0013C38.3608 49.1964 39.7072 49.5316 40.4211 48.557Z" fill="white"/>
</g>
<defs>
<clipPath id="clip0_207_1235">
<rect x="4.5" y="5" width="51" height="51" rx="25.5" fill="white"/>
</clipPath>
</defs>
</svg>
