<svg width="50" height="50" viewBox="0 0 50 50" fill="none" xmlns="http://www.w3.org/2000/svg">
<path d="M8.18794 35.4821C8.5053 35.8007 8.74848 36.1854 8.90016 36.6087C9.05184 37.032 9.10827 37.4835 9.06544 37.9312C8.85056 40.0029 8.44317 42.05 7.84856 44.0461C12.1138 43.0586 14.7187 41.9151 15.902 41.3158C16.5731 40.9759 17.346 40.8953 18.0728 41.0896C20.1563 41.645 22.3036 41.9246 24.4599 41.9212C36.6776 41.9212 45.8623 33.3388 45.8623 23.5763C45.8623 13.8168 36.6776 5.23137 24.4599 5.23137C12.2422 5.23137 3.05748 13.8168 3.05748 23.5763C3.05748 28.0647 4.94395 32.229 8.18794 35.4821ZM6.6806 47.4216C5.95619 47.5652 5.22943 47.6967 4.50062 47.816C3.88912 47.9139 3.42438 47.2779 3.66592 46.7092C3.9374 46.069 4.18623 45.4194 4.41195 44.7616L4.42112 44.731C5.17938 42.5296 5.79699 39.998 6.02325 37.6407C2.27171 33.88 0 28.9575 0 23.5763C0 11.756 10.9519 2.17389 24.4599 2.17389C37.9678 2.17389 48.9198 11.756 48.9198 23.5763C48.9198 35.3965 37.9678 44.9787 24.4599 44.9787C22.0373 44.9819 19.6247 44.6674 17.284 44.0431C15.6941 44.8472 12.2727 46.3117 6.6806 47.4216V47.4216Z" fill="white"/>
</svg>
