<svg width="50" height="50" viewBox="0 0 50 50" fill="none" xmlns="http://www.w3.org/2000/svg">
<path fill-rule="evenodd" clip-rule="evenodd" d="M40.8176 13.6096C39.693 14.2324 37.8268 14.9425 36.6704 15.188C33.017 15.9641 28.1415 15.3565 22.614 13.4367C16.7031 11.383 11.5729 11.0086 8.34297 12.3949C7.47632 12.767 6.51334 12.1279 6.51334 11.1806V6.59019C6.51334 2.95053 9.44878 0 13.0698 0H24.8242H36.9267C40.3332 0 43.0735 2.81565 42.9985 6.23886L42.9132 10.133C42.8815 11.5846 42.0829 12.9093 40.8176 13.6096ZM34.4739 6.38585C32.8585 7.27082 32.4257 9.29409 33.6001 10.4736C34.5481 11.4256 35.8083 11.4972 36.8456 10.6578C38.1966 9.56458 38.2507 8.41206 37.0178 6.98906C35.8937 5.692 35.7864 5.66699 34.4739 6.38585ZM31.506 5.30439C30.8322 4.62768 29.4446 5.13436 29.4446 6.05753C29.4446 7.07824 30.7405 7.40852 31.4377 6.5652C31.871 6.04088 31.89 5.69003 31.506 5.30439ZM12.0534 4.17933C11.6148 4.78203 11.5743 5.30585 11.9163 5.94778C12.8029 7.61137 14.9974 6.75434 14.7281 4.84966C14.5247 3.40803 12.9097 3.00377 12.0534 4.17933ZM8.19555 17.4332C9.26893 16.905 11.1351 16.2033 12.3427 15.874C15.9727 14.8841 20.5541 15.0909 25.8195 16.4836C34.2343 18.7087 35.1242 18.8386 37.3729 18.1712C38.4995 17.837 40.1349 17.0226 41.0068 16.3615C41.6589 15.8671 42.5925 16.3346 42.5925 17.1556V18.6014C42.5925 21.9874 42.5662 22.058 41.0068 22.8797C38.3551 24.2777 32.3398 24.0205 28.4434 22.3426C19.0533 18.2995 14.5748 18.0918 6.81821 21.3391C6.0444 21.663 5.94877 21.4949 6.08635 20.0528C6.21761 18.6695 6.56791 18.2344 8.19555 17.4332ZM35.9458 22.4627C36.6845 22.3569 36.9816 21.9644 36.9816 21.0961C36.9816 19.698 35.7297 19.2124 34.8549 20.2709C34.0259 21.2744 34.7061 22.6406 35.9458 22.4627ZM6 25.7654C6 23.8132 7.028 23.0733 11.4791 21.8208C14.9959 20.831 21.2747 21.1044 23.6639 22.351C24.1284 22.5933 23.9582 23.2991 23.4349 23.3008L20.7365 23.3094C15.7619 23.3256 12.856 24.0278 8.31752 26.3103L7.52194 26.7105C6.82283 27.0621 6 26.5512 6 25.7654ZM25.9 26.4862C32.3017 27.7617 36.8533 27.6269 40.2467 26.0614C41.403 25.5282 42.4032 25.0735 42.4705 25.0505C42.5378 25.0279 42.5925 27.087 42.5925 29.6262V32.2936C42.5925 33.4621 41.8592 34.5034 40.7629 34.8919C39.7568 35.2481 37.067 35.5255 34.7861 35.5074C31.3201 35.4804 29.7578 35.1722 25.272 33.6306C20.4033 31.9577 19.5202 31.8024 15.758 31.9582C12.5193 32.0924 10.9902 32.4203 8.77908 33.4547L8.0378 33.8015C7.09627 34.2419 6.02903 33.5085 6.09563 32.4668C6.18756 31.0336 7.02551 29.7557 8.2996 29.1056L9.74756 28.3669C11.8699 27.2839 14.6485 26.3426 16.7958 25.979C19.9896 25.4376 20.8892 25.488 25.9 26.4862ZM17.4525 29.3979C17.8648 30.0682 19.0274 30.053 19.446 29.3724C19.628 29.0769 19.4573 28.5149 19.0669 28.1228C18.4463 27.4995 18.2814 27.5025 17.7477 28.1483C17.412 28.5545 17.2793 29.1166 17.4525 29.3979ZM34.5607 31.0737C34.9954 31.2413 35.433 31.0433 35.6014 30.6033C35.9449 29.7036 35.2823 28.9588 34.4202 29.2763C33.5693 29.5899 33.6581 30.7258 34.5607 31.0737ZM30.8829 32.6045C32.3827 32.6045 33.2365 31.231 32.3807 30.1956C32.028 29.7688 31.3537 29.4194 30.8829 29.4194C30.4121 29.4194 29.7378 29.7688 29.385 30.1956C28.5293 31.231 29.3831 32.6045 30.8829 32.6045ZM8.28825 36.3904C9.41286 35.7675 11.2791 35.0575 12.4354 34.812C16.0888 34.0358 20.9644 34.6435 26.4918 36.5633C32.4027 38.617 37.533 38.9914 40.7629 37.6051C41.6295 37.233 42.5925 37.8721 42.5925 38.8194V43.4098C42.5925 47.0495 39.6571 50 36.036 50H24.2816H12.1792C8.77266 50 6.03238 47.1843 6.10734 43.7611L6.1926 39.867C6.22438 38.4154 7.02289 37.0907 8.28825 36.3904ZM14.6319 43.6141C16.2474 42.7292 16.6801 40.7059 15.5058 39.5264C14.5578 38.5743 13.2975 38.5028 12.2602 39.3422C10.9092 40.4354 10.8551 41.5879 12.088 43.0109C13.2121 44.308 13.3195 44.333 14.6319 43.6141ZM17.5998 44.6956C18.2736 45.3723 19.6612 44.8656 19.6612 43.9424C19.6612 42.9217 18.3653 42.5915 17.6681 43.4348C17.2349 43.9591 17.2158 44.31 17.5998 44.6956ZM37.0524 45.8207C37.491 45.2179 37.5315 44.6941 37.1895 44.0522C36.303 42.3886 34.1084 43.2456 34.3777 45.1503C34.5812 46.5919 36.1961 46.9962 37.0524 45.8207Z" fill="white"/>
</svg>
