<svg width="60" height="80" viewBox="0 0 60 80" fill="none" xmlns="http://www.w3.org/2000/svg">
<path d="M26.9167 78.4C4.21333 45.4733 0 42.0967 0 30C0 13.43 13.43 0 30 0C46.57 0 60 13.43 60 30C60 42.0967 55.7867 45.4667 33.0833 78.3867C32.7385 78.8832 32.2789 79.2891 31.7436 79.5699C31.2082 79.8506 30.613 79.998 30.0085 79.9993C29.404 80.0006 28.8081 79.8558 28.2715 79.5774C27.735 79.299 27.2736 78.895 26.9267 78.4L26.92 78.3867L26.9167 78.4Z" fill="#43B9C3"/>
<path fill-rule="evenodd" clip-rule="evenodd" d="M28.642 79.7449C29.0766 79.9136 29.5399 80.0003 30.0085 79.9993C30.613 79.9979 31.2082 79.8506 31.7436 79.5699C32.2789 79.2891 32.7385 78.8832 33.0833 78.3867C37.1417 72.502 40.6092 67.5616 43.5674 63.3468C57.1583 43.983 60 39.9343 60 30C60 13.43 46.57 0 30 0C13.43 0 0 13.43 0 30C0 39.9377 2.84359 43.9903 16.4465 63.3765C19.0268 67.0539 21.9943 71.283 25.403 76.2087C25.8944 76.9188 26.3949 77.6434 26.9049 78.3829C26.9068 78.3857 26.9087 78.3885 26.9107 78.3913C26.9127 78.3942 26.9147 78.3971 26.9167 78.4L26.92 78.3867L26.9267 78.4L26.9288 78.403C27.2755 78.8967 27.7361 79.2995 28.2715 79.5774C28.3922 79.64 28.5159 79.6959 28.642 79.7449ZM28.6369 77.3483C28.7886 77.536 28.9778 77.6906 29.1927 77.8022C29.4434 77.9323 29.7218 77.9999 30.0041 77.9993C30.2865 77.9986 30.5646 77.9298 30.8147 77.7987C31.064 77.6679 31.2782 77.479 31.4391 77.248C35.5462 71.2927 39.0346 66.3229 41.9972 62.1021C47.2701 54.59 50.8771 49.4511 53.3415 45.3537C55.2409 42.1958 56.3859 39.7737 57.0693 37.4664C57.7481 35.1744 58 32.8992 58 30C58 14.5346 45.4654 2 30 2C14.5346 2 2 14.5346 2 30C2 32.8992 2.2519 35.1748 2.93078 37.4677C3.61421 39.7758 4.75925 42.1991 6.65863 45.3582C9.12519 49.4607 12.7365 54.607 18.0169 62.132C20.3524 65.4602 23.0143 69.2537 26.0481 73.6279L28.6369 77.3483Z" fill="white"/>
<circle cx="30" cy="29" r="24" fill="white"/>
<path fill-rule="evenodd" clip-rule="evenodd" d="M41.5254 21.2546C40.7655 21.6781 39.5046 22.1609 38.7233 22.3278C36.2548 22.8556 32.9604 22.4424 29.2257 21.1369C25.2318 19.7404 21.7655 19.4859 19.5831 20.4285C18.9975 20.6815 18.3469 20.2469 18.3469 19.6028V16.4813C18.3469 14.0064 20.3303 12 22.7769 12H30.7191H38.8964C41.1981 12 43.0496 13.9146 42.999 16.2424L42.9414 18.8905C42.9199 19.8775 42.3804 20.7783 41.5254 21.2546ZM37.2391 16.3424C36.1476 16.9442 35.8552 18.32 36.6487 19.122C37.2892 19.7694 38.1408 19.8181 38.8416 19.2473C39.7544 18.5039 39.791 17.7202 38.958 16.7526C38.1984 15.8706 38.1259 15.8536 37.2391 16.3424ZM35.2338 15.607C34.7785 15.1468 33.841 15.4914 33.841 16.1191C33.841 16.8132 34.7166 17.0378 35.1876 16.4643C35.4804 16.1078 35.4932 15.8692 35.2338 15.607ZM22.0902 14.8419C21.7938 15.2518 21.7664 15.608 21.9975 16.0445C22.5965 17.1757 24.0793 16.593 23.8974 15.2978C23.7599 14.3175 22.6687 14.0426 22.0902 14.8419ZM19.4835 23.8546C20.2087 23.4954 21.4697 23.0182 22.2856 22.7943C24.7383 22.1212 27.8338 22.2618 31.3915 23.2088C37.0772 24.7219 37.6785 24.8102 39.1979 24.3564C39.9591 24.1291 41.0642 23.5753 41.6533 23.1258C42.0938 22.7896 42.7247 23.1075 42.7247 23.6658V24.6489C42.7247 26.9514 42.7069 26.9994 41.6533 27.5582C39.8615 28.5088 35.7971 28.3339 33.1645 27.193C26.8198 24.4437 23.7938 24.3024 18.5528 26.5106C18.03 26.7308 17.9654 26.6165 18.0583 25.6359C18.147 24.6953 18.3837 24.3994 19.4835 23.8546ZM38.2337 27.2746C38.7328 27.2027 38.9335 26.9358 38.9335 26.3453C38.9335 25.3947 38.0876 25.0645 37.4965 25.7842C36.9365 26.4666 37.396 27.3956 38.2337 27.2746ZM18 29.5205C18 28.193 18.6946 27.6898 21.7021 26.8381C24.0783 26.165 28.3207 26.351 29.9351 27.1987C30.2489 27.3635 30.1339 27.8434 29.7803 27.8445L27.9571 27.8504C24.5959 27.8614 22.6324 28.3389 19.5659 29.891L19.0283 30.1631C18.556 30.4022 18 30.0548 18 29.5205ZM31.4459 30.0106C35.7714 30.878 38.8468 30.7863 41.1396 29.7217C41.9209 29.3592 42.5967 29.05 42.6422 29.0343C42.6877 29.019 42.7247 30.4191 42.7247 32.1458V33.9597C42.7247 34.7542 42.2292 35.4623 41.4884 35.7265C40.8087 35.9687 38.9912 36.1573 37.4501 36.145C35.1081 36.1267 34.0526 35.9171 31.0217 34.8688C27.732 33.7312 27.1353 33.6256 24.5932 33.7316C22.4049 33.8229 21.3718 34.0458 19.8778 34.7492L19.3769 34.985C18.7407 35.2845 18.0196 34.7858 18.0646 34.0774C18.1267 33.1029 18.6929 32.2339 19.5538 31.7918L20.5321 31.2895C21.9662 30.5531 23.8436 29.913 25.2944 29.6657C27.4524 29.2975 28.0603 29.3319 31.4459 30.0106ZM25.7382 31.9905C26.0167 32.4464 26.8023 32.436 27.0852 31.9732C27.2081 31.7723 27.0927 31.3901 26.829 31.1235C26.4097 30.6997 26.2983 30.7017 25.9376 31.1409C25.7108 31.4171 25.6211 31.7993 25.7382 31.9905ZM37.2978 33.1301C37.5915 33.2441 37.8872 33.1095 38.0009 32.8102C38.233 32.1985 37.7853 31.692 37.2028 31.9079C36.6279 32.1212 36.6879 32.8935 37.2978 33.1301ZM34.8128 34.1711C35.8262 34.1711 36.4031 33.2371 35.8248 32.533C35.5865 32.2428 35.1309 32.0052 34.8128 32.0052C34.4946 32.0052 34.0391 32.2428 33.8007 32.533C33.2225 33.2371 33.7994 34.1711 34.8128 34.1711ZM19.5461 36.7454C20.306 36.3219 21.5669 35.8391 22.3482 35.6722C24.8168 35.1444 28.1111 35.5575 31.8458 36.8631C35.8397 38.2595 39.3061 38.5141 41.4884 37.5715C42.074 37.3185 42.7247 37.753 42.7247 38.3972V41.5187C42.7247 43.9936 40.7413 46 38.2946 46H30.3524H22.1751C19.8734 46 18.0219 44.0853 18.0725 41.7576L18.1301 39.1095C18.1516 38.1225 18.6911 37.2217 19.5461 36.7454ZM23.8324 41.6576C24.9239 41.0558 25.2163 39.68 24.4228 38.878C23.7823 38.2306 22.9308 38.1819 22.2299 38.7527C21.3171 39.4961 21.2805 40.2798 22.1135 41.2474C22.8731 42.1294 22.9456 42.1464 23.8324 41.6576ZM25.8377 42.393C26.293 42.8532 27.2305 42.5086 27.2305 41.8809C27.2305 41.1868 26.355 40.9622 25.8839 41.5357C25.5911 41.8922 25.5783 42.1308 25.8377 42.393ZM38.9813 43.1581C39.2777 42.7482 39.3051 42.392 39.074 41.9555C38.475 40.8243 36.9922 41.407 37.1741 42.7022C37.3116 43.6825 38.4028 43.9574 38.9813 43.1581Z" fill="#43B9C3"/>
</svg>
