<svg width="150" height="150" viewBox="0 0 150 150" fill="none" xmlns="http://www.w3.org/2000/svg">
<path d="M36.9877 9.5C34.9162 9.5 33.2331 11.1774 33.2331 13.2513V16.9021C18.4224 17.1861 6.5 29.2637 6.5 44.1256V132.568C6.5 136.951 10.0577 140.5 14.4417 140.5H106.558C110.942 140.5 114.5 136.951 114.5 132.568V44.1256C114.5 29.2637 102.578 17.1861 87.7669 16.9021V13.2513C87.7669 11.1774 86.0838 9.5 84.0123 9.5H36.9877Z" fill="#FCFCFC" stroke="#727272" stroke-width="3"/>
<path fill-rule="evenodd" clip-rule="evenodd" d="M42.8848 35.4588C43.8824 35.2293 44.2096 35.2125 45.2167 35.2771C45.8662 35.3213 46.8368 35.4706 47.389 35.6239C47.9389 35.7667 48.7407 36.0517 49.1817 36.2513C49.6227 36.4508 50.5067 36.9592 51.1421 37.3904C51.7775 37.8215 52.57 38.4157 52.9009 38.7162C53.2212 39.019 53.4435 39.2774 53.3803 39.2912C53.3172 39.3051 53.036 39.1802 52.7328 39.0053C52.4424 38.8386 51.7412 38.5095 51.1752 38.2935C50.6069 38.067 49.7291 37.7876 49.22 37.6798C48.7086 37.5615 47.912 37.4508 47.4506 37.4093C46.8477 37.3768 46.2189 37.4268 45.2309 37.5993C44.1797 37.7857 43.6919 37.9255 43.1723 38.171C42.8036 38.3504 42.2181 38.6981 41.8527 38.9426C41.5001 39.1954 40.9527 39.6663 40.6291 40.0004C40.3054 40.3346 39.7807 41.0089 39.4728 41.5151C39.1626 42.0109 38.7461 42.826 38.5458 43.3196C38.356 43.8109 38.1043 44.6229 37.995 45.1295C37.8752 45.6383 37.7416 46.4354 37.6991 46.8944C37.6461 47.3558 37.6128 48.2076 37.6167 48.7772C37.61 49.349 37.6698 50.3231 37.7401 50.9439C37.8209 51.5624 37.9271 52.2959 37.9915 52.589C38.0569 52.9366 38.053 53.0691 37.9773 52.976C37.9063 52.9038 37.6232 52.3186 37.3414 51.6893C36.91 50.7308 36.7657 50.225 36.4205 48.6553C36.1076 47.2321 36.0001 46.5427 36.0002 45.8407C35.9973 45.3258 36.027 44.5076 36.0731 44.0148C36.1192 43.5221 36.2469 42.7483 36.3594 42.3068C36.4802 41.8526 36.6881 41.1928 36.8296 40.8327C36.9711 40.4727 37.3017 39.8189 37.5661 39.3661C37.8329 38.9238 38.2908 38.297 38.5829 37.9697C38.8773 37.653 39.372 37.1936 39.6848 36.9605C39.9976 36.7275 40.5867 36.3462 40.9906 36.126C41.5432 35.8295 42.0241 35.6584 42.8848 35.4588ZM72.5467 29.1257C73.0483 29.0487 73.7532 28.9931 74.1189 29.0007C74.4846 29.0083 75.2624 29.1341 75.8334 29.2723C76.4148 29.4082 77.2656 29.7154 77.752 29.9708C78.2384 30.2262 78.9659 30.725 79.3865 31.0826C79.8071 31.4401 80.3616 31.9549 80.599 32.2319C80.847 32.5067 81.3123 33.1177 81.6273 33.5971C81.9423 34.0766 82.401 34.9084 82.6434 35.4586C82.8857 36.0088 83.2352 36.9962 83.4223 37.6463C83.6231 38.3591 83.8092 39.3055 83.8874 40.0123C83.9541 40.6668 84.0069 41.6095 83.9993 42.1267C84.0022 42.6416 83.9867 43.0728 83.9784 43.0856C83.9597 43.1007 83.792 42.5889 83.6096 41.9598C83.4143 41.3225 83.0579 40.3037 82.8145 39.6989C82.5712 39.0941 82.0954 38.1344 81.762 37.5712C81.4286 37.0081 80.8751 36.197 80.5144 35.7604C80.1642 35.3216 79.5844 34.6918 79.2339 34.3518C78.8728 34.0141 78.0871 33.4513 77.4889 33.0887C76.8907 32.7262 76.1103 32.3377 75.7554 32.229C75.3982 32.1098 74.7783 31.9494 74.3672 31.8859C73.9538 31.812 73.2598 31.7665 72.8332 31.7832C72.3938 31.7917 71.717 31.8742 71.3275 31.9595C70.9276 32.0471 70.2971 32.24 69.9004 32.3927C69.5015 32.535 68.8542 32.8523 68.4549 33.0933C68.0555 33.3343 67.4336 33.7667 67.0691 34.066C66.7024 34.3547 66.135 34.8848 65.7949 35.2445C65.4524 35.5938 64.9597 36.1624 64.7143 36.5013C64.4712 36.8507 64.2531 37.063 64.237 36.9898C64.2232 36.927 64.3637 36.5123 64.544 36.0779C64.7348 35.6413 65.2427 34.7403 65.6786 34.0634C66.1473 33.3355 66.8022 32.501 67.2795 32.0126C67.7216 31.5648 68.4189 30.9732 68.809 30.6904C69.2014 30.4179 69.8665 30.0309 70.2796 29.8527C70.6904 29.664 71.1749 29.4591 71.3364 29.3908C71.5002 29.333 72.0475 29.2131 72.5467 29.1257ZM49.9651 44.9314C50.3275 44.874 50.9001 44.8692 51.2201 44.9197C51.5484 44.9575 52.0877 45.1026 52.4239 45.2264C52.7494 45.3525 53.2825 45.6197 53.6032 45.8237C53.9238 46.0276 54.4635 46.4249 54.8026 46.7126C55.1521 46.998 55.7717 47.6082 56.1792 48.0564C56.5866 48.5046 57.2834 49.4159 57.7264 50.0757C58.1693 50.7356 58.7852 51.7304 59.0871 52.3005C59.3994 52.8682 59.8532 53.778 60.1061 54.3258C60.3589 54.8737 60.5901 55.2728 60.6184 55.2008C60.6467 55.1288 60.7273 54.793 60.7846 54.4514C60.8523 54.1075 61.0705 53.1932 61.266 52.4265C61.4719 51.6574 61.8806 50.4052 62.1777 49.6491C62.4747 48.893 63.0044 47.7898 63.3616 47.207C63.7083 46.6264 64.2087 45.8916 64.4715 45.5818C64.7343 45.2719 65.2057 44.8067 65.5116 44.5423C65.8198 44.2883 66.3421 43.9545 66.6687 43.7842C66.9976 43.6244 67.4972 43.4382 67.7919 43.3736C68.0761 43.3114 68.6231 43.2903 68.9957 43.3293C69.3706 43.3788 69.9393 43.5065 70.2648 43.6326C70.5904 43.7588 71.1176 44.0491 71.4429 44.274C71.7599 44.5117 72.2469 44.9205 72.5265 45.1884C72.7955 45.4585 73.2249 45.9567 73.4762 46.2966C73.7274 46.6364 74.1621 47.309 74.4433 47.7849C74.7349 48.2585 75.1493 49.0891 75.3847 49.6079C75.6096 50.129 75.9607 50.9734 76.1472 51.4701C76.3928 52.0853 76.7225 53.3842 77.1919 55.519C77.7682 58.1898 77.8954 58.9188 78.0083 60.3858C78.074 61.3366 78.1432 62.6048 78.154 63.2057C78.1648 63.8066 78.1505 64.8957 78.1235 65.6255C78.107 66.3531 78.0387 67.4978 77.9686 68.1823C77.909 68.8644 77.7461 70.0299 77.6243 70.7805C77.5025 71.5311 77.2613 72.6918 77.0895 73.3656C76.9178 74.0394 76.6151 75.071 76.4016 75.6552C76.1986 76.2372 75.8449 77.1373 75.6024 77.6401C75.3705 78.1406 74.9202 78.9522 74.6077 79.4375C74.2952 79.9228 73.7833 80.6053 73.462 80.9499C73.1406 81.2945 72.5955 81.7759 72.2301 82.0205C71.8482 82.2906 71.2911 82.5662 70.8349 82.699C70.2991 82.8712 69.9238 82.9205 69.4775 82.8977C69.1411 82.8726 68.6155 82.7903 68.2991 82.7061C67.9933 82.6195 67.7377 82.511 67.7285 82.4691C67.717 82.4168 67.591 82.3456 67.4486 82.3001C67.2957 82.2568 67.003 82.0796 66.3959 81.5764L66.8228 81.8119C67.0596 81.9356 67.3033 82.0906 67.3826 82.15C67.449 82.2013 67.8038 82.31 68.1518 82.3873C68.4998 82.4647 69.0839 82.5122 69.4427 82.4885C69.8459 82.4659 70.2797 82.3819 70.5501 82.2568C70.8017 82.1469 71.1974 81.9396 71.4398 81.7877C71.6822 81.6359 72.1358 81.2404 72.4618 80.9167C72.7855 80.5826 73.2855 79.9465 73.5838 79.4973C73.8799 79.0375 74.2773 78.3362 74.4667 77.9437C74.6539 77.5408 74.978 76.7568 75.175 76.1981C75.3826 75.6371 75.7186 74.4557 75.9308 73.5646C76.1431 72.6735 76.406 71.3106 76.4998 70.5332C76.6042 69.7535 76.7185 68.4671 76.7551 67.6803C76.8022 66.8912 76.8148 65.5941 76.7988 64.8188C76.7828 64.0436 76.7066 62.744 76.6311 61.9489C76.547 60.9143 76.3442 59.7412 75.9346 57.8785C75.5125 55.9088 75.2528 54.9785 74.9158 54.0981C74.6761 53.4595 74.2424 52.4906 73.9685 51.9473C73.6946 51.404 73.2648 50.6536 73.0195 50.2905C72.7847 49.9251 72.3217 49.3246 72.0027 48.9776C71.6943 48.6284 71.1083 48.1206 70.7166 47.8444C70.3167 47.581 69.779 47.2929 69.5175 47.2076C69.2561 47.1223 68.7854 47.0389 68.4805 47.007C68.1674 46.9878 67.7303 47.0068 67.4988 47.0575C67.2672 47.1083 66.8202 47.2829 66.5019 47.4404C66.194 47.5956 65.7572 47.8668 65.5322 48.0477C65.3178 48.2263 64.851 48.7125 64.4908 49.1314C64.1306 49.5503 63.6138 50.3107 63.3293 50.8228C63.0553 51.3325 62.6385 52.2465 62.4144 52.833C62.1798 53.4219 61.8077 54.5893 61.199 56.9383L61.6685 58.3711C61.9414 59.2107 62.3888 60.9445 62.7478 62.577C63.0778 64.1281 63.3943 65.8686 63.4633 66.5335C63.53 67.188 63.62 68.1993 63.6518 68.7957C63.6942 69.3897 63.721 70.4148 63.7246 71.0832C63.7176 71.7538 63.6981 72.3174 63.684 72.3534C63.6593 72.3918 63.6172 72.401 63.5893 72.3742C63.5613 72.3474 63.5318 71.7616 63.5236 71.0723C63.5155 70.3831 63.4357 69.1172 63.3569 68.257C63.2485 67.1619 63.0296 65.9156 62.6049 64.0342C62.2045 62.2134 61.8642 60.9168 61.517 59.9399C61.2451 59.1549 60.7713 57.9534 60.4652 57.2636C60.1591 56.5738 59.659 55.5536 59.3466 54.9858C59.0447 54.4158 58.4485 53.4604 58.0405 52.8588C57.6219 52.2595 56.9668 51.4377 56.5919 51.0372C56.2065 50.639 55.5833 50.0626 55.1975 49.7632C54.8223 49.4615 54.23 49.0757 53.8975 48.9182C53.5522 48.7525 52.9908 48.5574 52.6406 48.4696C52.1291 48.3513 51.8078 48.3449 51.098 48.4784C50.4281 48.5923 50.0794 48.7125 49.762 48.9246C49.5196 49.0765 49.1094 49.4186 48.8479 49.6843C48.5947 49.9372 48.1897 50.4537 47.9618 50.8217C47.7315 51.1793 47.3749 51.9155 47.1709 52.4428C46.9564 52.9724 46.6751 53.9006 46.5422 54.5001C46.3987 55.1019 46.2341 56.0593 46.1575 56.6136C46.0913 57.1655 46.0211 58.201 45.9977 58.8972C45.9742 59.5933 45.9866 60.7533 46.0227 61.4693C46.0588 62.1854 46.16 63.3478 46.2382 64.0546C46.3269 64.7591 46.6148 66.3194 46.8817 67.5333C47.1486 68.7472 47.5418 70.2845 47.7568 70.9613C47.9824 71.6358 48.3782 72.7338 48.6459 73.3991C48.9135 74.0644 49.3669 75.0729 49.6478 75.6476C49.9286 76.2222 50.4244 77.1227 50.751 77.6545C51.0775 78.1862 51.674 79.0427 52.0742 79.5584C52.4744 80.074 53.1193 80.7992 53.5083 81.1637C53.8974 81.5282 54.5021 82.021 54.8379 82.2436C55.1865 82.4743 55.737 82.7705 56.0755 82.9048C56.4033 83.0414 56.9299 83.1783 57.2499 83.2289C57.6143 83.2807 58.0912 83.242 58.5543 83.1406C58.9542 83.053 59.5042 82.8448 59.7782 82.686C60.0416 82.5296 60.3567 82.307 60.4646 82.1956C60.5853 82.0924 60.6814 82.0275 60.6883 82.0589C60.6952 82.0903 60.5087 82.2957 60.2636 82.5358C60.0268 82.7632 59.5489 83.0982 59.1907 83.2754C58.7529 83.492 58.3201 83.6306 57.8478 83.6902C57.3883 83.758 56.8742 83.728 56.3418 83.6143C55.8922 83.5263 55.2841 83.3195 54.975 83.1678C54.6763 83.0139 54.1551 82.7003 53.8298 82.4754C53.5069 82.2609 52.9406 81.7927 52.5644 81.4363C52.1905 81.0904 51.4874 80.3012 50.9987 79.6843C50.51 79.0674 49.8356 78.1073 49.4916 77.5464C49.1477 76.9856 48.5683 75.906 48.1912 75.144C47.814 74.382 47.3431 73.3444 47.1462 72.8501C46.9387 72.3581 46.536 71.2288 46.2456 70.36C45.9149 69.3575 45.5181 67.854 45.1683 66.2634C44.8541 64.8843 44.5445 63.1752 44.4557 62.4707C44.3775 61.7639 44.2672 60.5596 44.2173 59.7808C44.1697 59.0124 44.1412 57.7792 44.1577 57.0516C44.1743 56.3241 44.2247 55.2491 44.284 54.6657C44.3327 54.0847 44.494 53.0621 44.6237 52.3975C44.7533 51.733 44.9938 50.7699 45.1663 50.2495C45.3281 49.7314 45.6088 49.0008 45.7818 48.6339C45.9548 48.2669 46.3404 47.6121 46.6433 47.1837C46.9463 46.7554 47.4601 46.1822 47.787 45.9131C48.114 45.644 48.5883 45.3427 48.8376 45.2223C49.0892 45.1123 49.5898 44.9807 49.9546 44.9337L49.9651 44.9314ZM54.6032 69.6371C54.8979 69.5725 55.3373 69.564 55.5919 69.6179C55.8464 69.6719 56.3154 69.8982 56.6407 70.1231C56.9554 70.3503 57.4049 70.7893 57.6493 71.0977C57.8831 71.4085 58.2211 71.9926 58.4079 72.3904C58.5818 72.7801 58.8143 73.486 58.9155 73.9465C59.0167 74.4069 59.1018 75.1451 59.1097 75.5821C59.1047 76.011 59.0428 76.6827 58.9609 77.0626C58.8684 77.4448 58.6443 78.0314 58.4539 78.3692C58.2506 78.699 57.9325 79.1087 57.7345 79.2617C57.5388 79.4253 57.1678 79.5943 56.8625 79.6612C56.5573 79.728 56.1495 79.7296 55.8926 79.6652C55.6591 79.6067 55.1984 79.3676 54.8754 79.1531C54.5607 78.9259 54.1112 78.4869 53.8668 78.1785C53.633 77.8677 53.295 77.2837 53.1105 76.8963C52.9343 76.4961 52.7018 75.7902 52.6006 75.3298C52.4993 74.8693 52.4143 74.1311 52.4087 73.7046C52.4114 73.2652 52.4733 72.5935 52.5552 72.2136C52.6477 71.8314 52.8717 71.2449 53.0622 70.907C53.2655 70.5773 53.5731 70.1699 53.75 70.0214C53.9375 69.8706 54.298 69.7039 54.6032 69.6371ZM68.8672 67.379C69.1409 67.319 69.4869 67.2871 69.648 67.3176C69.8092 67.3481 70.1733 67.4987 70.4531 67.6677C70.7412 67.824 71.1316 68.1443 71.3154 68.3783C71.5098 68.6099 71.8074 69.0603 71.9885 69.3826C72.2243 69.8026 72.3874 70.2933 72.5586 71.1224C72.7299 71.9514 72.7887 72.5198 72.7643 73.1614C72.7392 73.6495 72.6092 74.4129 72.4862 74.8566C72.349 75.3364 72.0618 75.9368 71.7963 76.335C71.545 76.6971 71.1592 77.0998 70.9437 77.2237C70.7306 77.3582 70.2872 77.4992 69.9563 77.5497C69.4758 77.6221 69.2492 77.5949 68.876 77.4025C68.6053 77.2753 68.2264 77.0073 68.0202 76.8221C67.814 76.6369 67.4789 76.2167 67.2767 75.8991C67.0222 75.4941 66.8207 74.9789 66.6119 74.18C66.3857 73.3521 66.2976 72.801 66.2905 72.1664C66.284 71.6852 66.3814 70.8741 66.5012 70.3652C66.621 69.8564 66.8605 69.1897 67.0345 68.8773C67.2085 68.565 67.5769 68.1333 67.8558 67.8967C68.2038 67.623 68.5199 67.455 68.8567 67.3813L68.8672 67.379ZM44.9963 95.4824C44.3888 95.3458 43.8444 95.2349 43.8063 95.2378C43.7682 95.2407 42.8491 97.0451 41.7613 99.2587C41.5109 99.7682 41.2678 100.262 41.0413 100.723C40.2835 102.263 39.7098 103.429 39.6598 103.551C39.5449 103.807 39.6127 103.844 41.0259 104.308C41.8351 104.581 42.6397 104.844 42.8153 104.888C43.1014 104.976 43.132 104.924 43.6964 103.242C44.0161 102.288 44.3025 101.504 44.336 101.49C44.3694 101.476 44.7727 101.75 45.2467 102.099C45.7207 102.448 46.5719 102.977 47.1462 103.284C47.7363 103.597 48.698 104.016 49.3065 104.217C49.9104 104.407 50.7707 104.646 51.2027 104.739C51.63 104.821 52.4884 104.931 53.108 104.971C53.7117 105.005 54.6313 105.011 55.1422 104.98C55.6372 104.942 56.5994 104.8 57.2634 104.665C58.0862 104.503 58.9099 104.25 59.8459 103.858C60.8933 103.42 61.4894 103.092 62.4549 102.428C63.1363 101.96 63.9987 101.3 64.357 100.968C64.7264 100.631 65.3798 99.9407 65.8141 99.4463C66.2549 98.9363 66.897 98.0945 67.2524 97.5681C67.6077 97.0417 67.9509 96.4552 68.0177 96.271C68.0797 96.0757 68.0982 95.9637 68.0407 96.0138C67.9943 96.0593 67.5312 96.5787 67.0198 97.1704C66.5038 97.751 65.7595 98.5053 65.3678 98.8515C64.9714 99.1867 64.2622 99.7439 63.785 100.074C63.1259 100.532 62.4695 100.872 60.9764 101.496C59.1935 102.242 58.901 102.326 57.6658 102.504C56.9228 102.606 55.8073 102.695 55.1905 102.693C54.5738 102.69 53.6374 102.613 53.0912 102.529C52.5561 102.44 51.7079 102.261 51.2192 102.127C50.7306 101.993 49.8962 101.691 49.3768 101.452C48.8463 101.218 48.0936 100.83 47.7089 100.6C47.3241 100.37 46.6262 99.8935 46.1791 99.5465C45.721 99.2041 45.3231 98.8496 45.2952 98.7831C45.2626 98.7055 45.4497 98.0281 45.7074 97.269C45.9697 96.521 46.1661 95.8657 46.1475 95.8214C46.1242 95.766 45.6151 95.6143 44.9963 95.4824Z" fill="#727272"/>
<path fill-rule="evenodd" clip-rule="evenodd" d="M8 132V119.488C9.6923 119.692 11.3798 119.908 13.061 120.138C46.001 124.638 52.9672 123.555 69.3393 121.01C78.6635 119.561 91.0385 117.637 113 116V132H8Z" fill="#BEBEBE"/>
<path fill-rule="evenodd" clip-rule="evenodd" d="M113 125.865C101.058 125.371 90.4413 124.877 82.6455 124.416C68.215 123.563 38.8188 124.127 8 125.15V130.207V132.276V132.762C8 136.207 10.8841 139 14.4417 139H106.558C110.116 139 113 136.207 113 132.762V125.865Z" fill="#AAAAAA"/>
</svg>
