<svg width="150" height="150" viewBox="0 0 150 150" fill="none" xmlns="http://www.w3.org/2000/svg">
<path fill-rule="evenodd" clip-rule="evenodd" d="M34.1706 1.06086C23.8148 6.47884 18.0924 15.7545 18.0385 27.2112L18.0174 31.6449L18.8996 34.7924C21.1374 42.7763 26.7969 49.7699 33.7869 53.1894L36.4015 54.4684V60.6832V66.8976L35.2861 67.1165C19.2269 70.2668 7.4977 82.283 5.59495 97.5353C2.1894 124.836 11.055 142.424 31.3313 148.593L34.9819 149.704L51.744 149.852L68.5056 150L70.7925 149.285C73.9259 148.306 76.8711 145.831 78.371 142.916L79.5786 140.57L79.583 137.498L79.5879 134.426L78.6602 132.411C78.1504 131.302 77.1676 129.815 76.4768 129.106L75.221 127.816L76.5563 126.305C80.1846 122.198 80.6981 116.098 77.7983 111.554L76.6419 109.742L79.035 109.526C83.6327 109.112 87.6049 105.88 88.9183 101.485L89.5373 99.4148L89.5304 87.8996L89.5231 76.3849L88.9357 73.63C86.1382 60.5091 73.6959 54.0818 59.2174 58.2781L58.3048 58.5425V56.5405V54.5385L60.9275 53.2156C70.6668 48.3035 76.6147 38.4772 76.6679 27.2112L76.689 22.7775L75.7905 19.5711C73.5564 11.599 68.2278 5.02942 60.9413 1.26481L58.5076 0.007255L58.3048 11.1906L58.102 22.3744L57.2092 23.8005C56.7184 24.5848 55.5985 25.628 54.7204 26.1181L53.1243 27.0097H47.3532H41.582L40.1003 26.1822C39.2854 25.7267 38.1651 24.6977 37.6115 23.8952L36.6043 22.4357L36.4015 11.2177L36.1987 0L34.1706 1.06086ZM70.6842 62.9178C75.6287 63.8263 80.3748 67.3785 82.3664 71.6622L83.2502 73.5635L83.3719 86.9923L83.494 100.422L81.8987 102.006C81.0213 102.878 79.9347 103.592 79.4845 103.592H78.6651L79.263 101.677C80.3582 98.1725 79.3121 93.7469 76.5786 90.3172L75.3658 88.7952L76.3097 87.9146C76.8285 87.4301 77.7707 85.998 78.4035 84.732L79.5534 82.4309L79.5664 79.4079L79.5794 76.3849L78.6331 74.2834C77.5716 71.925 74.5063 68.8396 72.1886 67.7957L70.6761 67.1145L62.361 66.9129L54.0458 66.7114L58.4411 64.9601C64.4077 62.5824 66.74 62.1935 70.6842 62.9178ZM70.2583 73.4756C71.1442 73.9742 72.301 75.0141 72.8291 75.7864L73.7892 77.1911L73.6334 79.7033L73.4777 82.2152L72.2799 83.4663C70.1731 85.6659 70.3321 85.6421 56.2171 85.8569L42.9749 86.0584L42.1219 86.8263C41.1253 87.7235 40.9874 89.7537 41.8441 90.919L42.4192 91.7013L56.0118 91.9029L69.6045 92.1044L70.7487 92.9476C74.8787 95.9907 74.7615 101.437 70.5049 104.287L69.1364 105.204H56.2714H43.4065L42.3377 106.039L41.2689 106.875V108.395C41.2689 109.338 41.5419 110.161 41.9873 110.562L42.7056 111.208L55.8796 111.33L69.0536 111.451L70.3398 112.151C71.0472 112.535 72.0511 113.442 72.5707 114.166L73.5154 115.482V118.102V120.722L72.5707 122.038C72.0511 122.762 71.0472 123.669 70.3398 124.053L69.0536 124.753L55.8796 124.874L42.7056 124.996L41.9873 125.642C41.0069 126.524 41.0572 128.774 42.0801 129.791L42.8914 130.597H55.5823H68.2732L70.0798 131.504C71.0736 132.003 72.3144 133.046 72.838 133.821L73.7892 135.232L73.6383 137.668C73.4594 140.556 72.4413 142.227 70.1772 143.345L68.648 144.1L56.0788 144.227C26.9811 144.523 15.5869 138.566 11.8662 121.113L11.2675 118.304L11.2602 108.191L11.2533 98.0778L12.0678 94.9129C14.961 83.6719 24.0006 75.2596 35.6207 72.994C36.608 72.8017 44.4429 72.6272 53.0318 72.6066L68.648 72.5691L70.2583 73.4756Z" fill="#727272"/>
</svg>
