<svg width="50" height="50" viewBox="0 0 50 50" fill="none" xmlns="http://www.w3.org/2000/svg">
<path fill-rule="evenodd" clip-rule="evenodd" d="M21.3902 0.353621C17.9383 2.15961 16.0308 5.25151 16.0128 9.0704L16.0058 10.5483L16.2999 11.5975C17.0458 14.2588 18.9323 16.5899 21.2623 17.7298L22.1338 18.1561V20.2277V22.2992L21.762 22.3722C16.409 23.4223 12.4992 27.4277 11.865 32.5118C10.7298 41.6119 13.685 47.4745 20.4438 49.5311L21.6606 49.9014L27.248 49.9507L32.8352 50L33.5975 49.7618C34.642 49.4353 35.6237 48.6102 36.1237 47.6387L36.5262 46.8566L36.5277 45.8327L36.5293 44.8087L36.2201 44.1369C36.0501 43.7674 35.7225 43.2717 35.4923 43.0352L35.0737 42.6053L35.5188 42.1016C36.7282 40.7328 36.8994 38.6992 35.9328 37.1846L35.5473 36.5807L36.345 36.5088C37.8776 36.3707 39.2016 35.2934 39.6394 33.8284L39.8458 33.1383L39.8435 29.2999L39.841 25.4616L39.6452 24.5433C38.7127 20.1697 34.5653 18.0273 29.7391 19.426L29.4349 19.5142V18.8468V18.1795L30.3092 17.7385C33.5556 16.1012 35.5382 12.8257 35.556 9.0704L35.563 7.5925L35.2635 6.52371C34.5188 3.86632 32.7426 1.67647 30.3138 0.421604L29.5025 0.00241833L29.4349 3.73022L29.3673 7.45815L29.0697 7.9335C28.9061 8.19495 28.5328 8.54266 28.2401 8.70603L27.7081 9.00322H25.7844H23.8607L23.3668 8.72739C23.0951 8.57557 22.7217 8.23257 22.5372 7.96507L22.2014 7.47857L22.1338 3.73922L22.0662 0L21.3902 0.353621ZM33.5614 20.9726C35.2096 21.2754 36.7916 22.4595 37.4555 23.8874L37.7501 24.5212L37.7906 28.9974L37.8313 33.4739L37.2996 34.0021C37.0071 34.2928 36.6449 34.5306 36.4948 34.5306H36.2217L36.421 33.8924C36.7861 32.7242 36.4374 31.249 35.5262 30.1057L35.1219 29.5984L35.4366 29.3048C35.6095 29.1434 35.9236 28.666 36.1345 28.244L36.5178 27.477L36.5221 26.4693L36.5265 25.4616L36.211 24.7611C35.8572 23.975 34.8354 22.9465 34.0629 22.5985L33.5587 22.3715L30.787 22.3043L28.0153 22.2371L29.4804 21.6534C31.4692 20.8608 32.2467 20.7312 33.5614 20.9726ZM33.4194 24.4919C33.7147 24.6581 34.1003 25.0047 34.2764 25.2621L34.5964 25.7304L34.5445 26.5678L34.4926 27.4051L34.0933 27.8221C33.391 28.5553 33.444 28.5474 28.739 28.619L24.325 28.6861L24.0406 28.9421C23.7084 29.2412 23.6625 29.9179 23.948 30.3063L24.1397 30.5671L28.6706 30.6343L33.2015 30.7015L33.5829 30.9825C34.9596 31.9969 34.9205 33.8123 33.5016 34.7625L33.0455 35.068H28.7571H24.4688L24.1126 35.3465L23.7563 35.6249V36.1318C23.7563 36.4461 23.8473 36.7204 23.9958 36.854L24.2352 37.0692L28.6265 37.1099L33.0179 37.1505L33.4466 37.3836C33.6824 37.5118 34.017 37.814 34.1902 38.0554L34.5051 38.494V39.3673V40.2406L34.1902 40.6793C34.017 40.9206 33.6824 41.2229 33.4466 41.3511L33.0179 41.5842L28.6265 41.6247L24.2352 41.6655L23.9958 41.8807C23.669 42.1747 23.6857 42.9248 24.0267 43.2636L24.2971 43.5323H28.5274H32.7577L33.3599 43.8346C33.6912 44.0009 34.1048 44.3485 34.2793 44.6071L34.5964 45.0774L34.5461 45.8893C34.4865 46.8521 34.1471 47.4088 33.3924 47.7815L32.8827 48.0332L28.6929 48.0758C18.9937 48.1743 15.1956 46.1886 13.9554 40.3711L13.7558 39.4345L13.7534 36.0635L13.7511 32.6926L14.0226 31.6376C14.987 27.8906 18.0002 25.0865 21.8736 24.3313C22.2027 24.2672 24.8143 24.2091 27.6773 24.2022L32.8827 24.1897L33.4194 24.4919Z" fill="#727272"/>
</svg>
