<svg width="43" height="43" viewBox="0 0 43 43" fill="none" xmlns="http://www.w3.org/2000/svg">
<path fill-rule="evenodd" clip-rule="evenodd" d="M10.78 5.78002C13.8406 2.71942 17.9917 1 22.32 1C26.6483 1 30.7994 2.71942 33.86 5.78002C36.9206 8.84061 38.64 12.9917 38.64 17.32C38.64 22.0948 36.7026 26.2383 33.8833 30.2238C31.7172 33.286 28.9417 36.3696 26.0101 39.6266C25.1638 40.5668 24.3044 41.5216 23.443 42.4944C23.1583 42.816 22.7494 43 22.3199 43C21.8904 43 21.4815 42.8158 21.1968 42.4942C20.3567 41.5452 19.5189 40.6129 18.6934 39.6944C15.8966 36.5825 13.2412 33.628 11.1171 30.7088C8.34557 26.8999 6.33344 22.9678 6.00408 18.5105C6.00136 18.4738 6 18.4369 6 18.4V17.32C6 12.9917 7.71942 8.84061 10.78 5.78002ZM22.32 4C18.7873 4 15.3993 5.40335 12.9013 7.90134C10.4034 10.3993 9 13.7873 9 17.32V18.3433C9.28283 21.9854 10.9373 25.3628 13.5429 28.9437C15.5671 31.7256 18.0791 34.5212 20.8516 37.6068C21.3337 38.1433 21.8237 38.6886 22.3203 39.2441C22.8417 38.6614 23.3557 38.0902 23.8609 37.5288C26.7662 34.3 29.3795 31.3958 31.4342 28.4912C34.0724 24.7617 35.64 21.2252 35.64 17.32C35.64 13.7873 34.2366 10.3993 31.7387 7.90134C29.2407 5.40335 25.8527 4 22.32 4ZM22.32 11.7C20.8282 11.7 19.3974 12.2921 18.3418 13.3462C17.2862 14.4003 16.6921 15.8303 16.69 17.3221C16.6884 18.4359 17.0173 19.5252 17.635 20.4521C18.2527 21.379 19.1314 22.1018 20.16 22.5292C21.1886 22.9565 22.3209 23.0691 23.4135 22.8528C24.5061 22.6364 25.51 22.1009 26.2982 21.3138C27.0864 20.5268 27.6234 19.5236 27.8412 18.4313C28.0591 17.3389 27.9481 16.2065 27.5222 15.1773C27.0963 14.1481 26.3747 13.2684 25.4487 12.6494C24.5227 12.0304 23.4338 11.7 22.32 11.7ZM16.2219 11.2234C17.84 9.60757 20.0333 8.7 22.32 8.7C24.0274 8.7 25.6964 9.20645 27.1158 10.1553C28.5353 11.1041 29.6414 12.4526 30.2942 14.0302C30.9471 15.6079 31.1173 17.3437 30.7833 19.0181C30.4493 20.6925 29.6262 22.2302 28.418 23.4366C27.2099 24.6431 25.6711 25.464 23.9962 25.7957C22.3213 26.1273 20.5858 25.9546 19.009 25.2996C17.4323 24.6446 16.0854 23.5365 15.1385 22.1158C14.1917 20.695 13.6876 19.0253 13.69 17.3179C13.6932 15.0312 14.6039 12.8392 16.2219 11.2234Z" fill="white"/>
</svg>
