<svg width="44" height="44" viewBox="0 0 44 44" fill="none" xmlns="http://www.w3.org/2000/svg">
<path fill-rule="evenodd" clip-rule="evenodd" d="M16.5631 41.6584C13.1341 40.5918 10.1139 38.5701 7.80104 35.8977C7.62446 35.6937 7.54211 35.4239 7.58219 35.157C7.89066 33.1029 8.83146 31.191 10.2837 29.7138C12.0525 27.9146 14.4379 26.9051 16.9237 26.9038H28.2819C30.7678 26.9051 33.1531 27.9146 34.922 29.7138C36.1438 30.9566 37.0036 32.5071 37.4294 34.1911C37.4985 34.4644 37.4347 34.7532 37.2635 34.9772C33.8028 39.5049 28.425 42.436 22.3728 42.5039C20.3941 42.4832 18.4421 42.1952 16.5631 41.6584ZM22.4264 3.50391C22.7723 3.50876 23.1161 3.52296 23.4574 3.54629C24.8403 3.68993 26.1727 4.18057 27.3355 4.98099C28.7364 5.94527 29.8283 7.31584 30.473 8.91939C31.1178 10.5229 31.2865 12.2874 30.9578 13.9897C30.6291 15.692 29.8178 17.2557 28.6264 18.483C27.4351 19.7103 25.9172 20.5461 24.2647 20.8847C22.6123 21.2233 20.8995 21.0495 19.3429 20.3853C17.7863 19.7211 16.4559 18.5963 15.5198 17.1532C14.5838 15.71 14.0842 14.0133 14.0842 12.2777C14.0842 9.95024 14.9817 7.71811 16.5793 6.07236C18.1352 4.4695 20.231 3.55072 22.4264 3.50391Z" fill="white"/>
</svg>
