<svg width="43" height="43" viewBox="0 0 43 43" fill="none" xmlns="http://www.w3.org/2000/svg">
<path d="M12.1429 4.72911e-07C10.5137 4.72911e-07 8.95121 0.647193 7.7992 1.7992C6.64719 2.95121 6 4.51367 6 6.14286V36.8571C6 38.4863 6.64719 40.0488 7.7992 41.2008C8.95121 42.3528 10.5137 43 12.1429 43H30.5714C32.2006 43 33.7631 42.3528 34.9151 41.2008C36.0671 40.0488 36.7143 38.4863 36.7143 36.8571V13.5573C36.7132 12.3358 36.2271 11.1648 35.3629 10.3016L26.4158 1.34836C25.9878 0.920609 25.4797 0.58137 24.9205 0.350017C24.3614 0.118663 23.7621 -0.000273692 23.157 4.72911e-07H12.1429ZM9.07143 6.14286C9.07143 5.32826 9.39503 4.54703 9.97103 3.97103C10.547 3.39502 11.3283 3.07143 12.1429 3.07143H21.3571V10.75C21.3571 11.9719 21.8425 13.1437 22.7065 14.0077C23.5705 14.8717 24.7424 15.3571 25.9643 15.3571H33.6429V36.8571C33.6429 37.6717 33.3193 38.453 32.7433 39.029C32.1673 39.605 31.386 39.9286 30.5714 39.9286H12.1429C11.3283 39.9286 10.547 39.605 9.97103 39.029C9.39503 38.453 9.07143 37.6717 9.07143 36.8571V6.14286ZM33.0071 12.2857H25.9643C25.557 12.2857 25.1664 12.1239 24.8784 11.8359C24.5904 11.5479 24.4286 11.1573 24.4286 10.75V3.70721L33.0071 12.2857Z" fill="white"/>
</svg>
