<svg width="36" height="36" viewBox="0 0 36 36" fill="none" xmlns="http://www.w3.org/2000/svg">
<path d="M26.2664 5.11006C26.4712 5.18887 26.6459 5.33041 26.7652 5.51431C26.8845 5.69821 26.9423 5.91497 26.9302 6.13338L26.7272 9.83756C27.0904 10.2274 27.4239 10.6367 27.7262 11.0695L31.4048 11.6479C31.6215 11.6824 31.8219 11.7845 31.977 11.9397C32.1321 12.0948 32.234 12.2949 32.2679 12.5111L33.1711 18.1679C33.2054 18.3842 33.1701 18.6056 33.0701 18.8002C32.97 18.9948 32.8106 19.1526 32.6146 19.2507L29.2963 20.9178C29.1411 21.4225 28.9513 21.9159 28.7283 22.3946L30.0724 25.8595C30.1521 26.0637 30.1647 26.2877 30.1085 26.4992C30.0523 26.7106 29.9302 26.8987 29.7597 27.0362L25.2977 30.6313C25.1275 30.7686 24.9178 30.8484 24.6989 30.8593C24.4799 30.8701 24.263 30.8114 24.0793 30.6916L20.9614 28.6557C20.4497 28.7731 19.9252 28.8546 19.3963 28.9013L17.0626 31.7858C16.9251 31.956 16.737 32.0782 16.5252 32.1347C16.3134 32.1913 16.0889 32.1793 15.8841 32.1005L10.5196 30.037C10.3148 29.9582 10.1401 29.8166 10.0208 29.6327C9.90154 29.4488 9.84376 29.232 9.85581 29.0136L10.06 25.3121C9.69773 24.9234 9.3631 24.51 9.05861 24.0749L5.38124 23.4991C5.16448 23.4646 4.96411 23.3625 4.80899 23.2074C4.65387 23.0522 4.55201 22.8521 4.51807 22.6359L3.61494 16.9791C3.58057 16.7628 3.61594 16.5414 3.71595 16.3468C3.81597 16.1522 3.97546 15.9944 4.17144 15.8963L7.49118 14.2254C7.64604 13.722 7.83534 13.2299 8.05775 12.7525L6.71362 9.2875C6.63394 9.08332 6.62129 8.85934 6.67748 8.64787C6.73367 8.4364 6.85581 8.24836 7.02627 8.11086L11.4883 4.51569C11.6586 4.37839 11.8682 4.2986 12.0872 4.28777C12.3061 4.27694 12.523 4.33563 12.7067 4.45542L15.8219 6.49253C16.3383 6.37466 16.8635 6.29122 17.3944 6.24533L19.7254 3.36193C19.8624 3.19229 20.0498 3.07036 20.2607 3.01358C20.4717 2.9568 20.6955 2.96807 20.9 3.0458L26.2644 5.10932L26.2664 5.11006ZM19.8762 13.7177C18.8497 13.3229 17.709 13.3504 16.705 13.7943C15.701 14.2382 14.9159 15.0621 14.5226 16.0847C14.1292 17.1073 14.1597 18.2449 14.6074 19.2472C15.0551 20.2495 15.8833 21.0344 16.9098 21.4293C17.9363 21.8241 19.077 21.7966 20.081 21.3527C21.085 20.9088 21.8701 20.085 22.2634 19.0623C22.6568 18.0397 22.6263 16.9021 22.1786 15.8998C21.7309 14.8975 20.9027 14.1126 19.8762 13.7177Z" fill="#AAAAAA"/>
</svg>
