<svg width="43" height="43" viewBox="0 0 43 43" fill="none" xmlns="http://www.w3.org/2000/svg">
<path fill-rule="evenodd" clip-rule="evenodd" d="M1.5 0C2.32843 0 3 0.671573 3 1.5V37.0556C3 37.8365 3.31022 38.5854 3.86241 39.1376C4.4146 39.6898 5.16353 40 5.94444 40H41.5C42.3284 40 43 40.6716 43 41.5C43 42.3284 42.3284 43 41.5 43H5.94444C4.36788 43 2.85589 42.3737 1.74109 41.2589C0.626288 40.1441 0 38.6321 0 37.0556V1.5C0 0.671573 0.671573 0 1.5 0Z" fill="white"/>
<path fill-rule="evenodd" clip-rule="evenodd" d="M42.5609 11.5502C43.1467 12.136 43.1467 13.0858 42.5609 13.6716L29.2275 27.0049C28.9462 27.2862 28.5647 27.4442 28.1669 27.4442C27.769 27.4442 27.3875 27.2862 27.1062 27.0049L19.278 19.1767L11.4498 27.0049C10.864 27.5907 9.91423 27.5907 9.32844 27.0049C8.74265 26.4191 8.74265 25.4694 9.32844 24.8836L18.2173 15.9947C18.4986 15.7134 18.8802 15.5553 19.278 15.5553C19.6758 15.5553 20.0573 15.7134 20.3386 15.9947L28.1669 23.8229L40.4395 11.5502C41.0253 10.9645 41.9751 10.9645 42.5609 11.5502Z" fill="white"/>
<path fill-rule="evenodd" clip-rule="evenodd" d="M33.3339 12.6109C33.3339 11.7825 34.0055 11.1109 34.8339 11.1109H41.5006C42.329 11.1109 43.0006 11.7825 43.0006 12.6109V19.2776C43.0006 20.106 42.329 20.7776 41.5006 20.7776C40.6721 20.7776 40.0006 20.106 40.0006 19.2776V14.1109H34.8339C34.0055 14.1109 33.3339 13.4393 33.3339 12.6109Z" fill="white"/>
</svg>
