<svg width="60" height="80" viewBox="0 0 60 80" fill="none" xmlns="http://www.w3.org/2000/svg">
<path d="M26.9167 78.4C4.21333 45.4733 0 42.0967 0 30C0 13.43 13.43 0 30 0C46.57 0 60 13.43 60 30C60 42.0967 55.7867 45.4667 33.0833 78.3867C32.7385 78.8832 32.2789 79.2891 31.7436 79.5699C31.2082 79.8506 30.613 79.998 30.0085 79.9993C29.404 80.0006 28.8081 79.8558 28.2715 79.5774C27.735 79.299 27.2736 78.895 26.9267 78.4L26.92 78.3867L26.9167 78.4Z" fill="#43B9C3"/>
<path fill-rule="evenodd" clip-rule="evenodd" d="M28.642 79.7449C29.0766 79.9136 29.5399 80.0003 30.0085 79.9993C30.613 79.9979 31.2082 79.8506 31.7436 79.5699C32.2789 79.2891 32.7385 78.8832 33.0833 78.3867C37.1417 72.502 40.6092 67.5616 43.5674 63.3468C57.1583 43.983 60 39.9343 60 30C60 13.43 46.57 0 30 0C13.43 0 0 13.43 0 30C0 39.9377 2.84359 43.9903 16.4465 63.3765C19.0268 67.0539 21.9943 71.283 25.403 76.2087C25.8944 76.9188 26.3949 77.6434 26.9049 78.3829C26.9068 78.3857 26.9087 78.3885 26.9107 78.3913C26.9127 78.3942 26.9147 78.3971 26.9167 78.4L26.92 78.3867L26.9267 78.4L26.9288 78.403C27.2755 78.8967 27.7361 79.2995 28.2715 79.5774C28.3922 79.64 28.5159 79.6959 28.642 79.7449ZM28.6369 77.3483C28.7886 77.536 28.9778 77.6906 29.1927 77.8022C29.4434 77.9323 29.7218 77.9999 30.0041 77.9993C30.2865 77.9986 30.5646 77.9298 30.8147 77.7987C31.064 77.6679 31.2782 77.479 31.4391 77.248C35.5462 71.2927 39.0346 66.3229 41.9972 62.1021C47.2701 54.59 50.8771 49.4511 53.3415 45.3537C55.2409 42.1958 56.3859 39.7737 57.0693 37.4664C57.7481 35.1744 58 32.8992 58 30C58 14.5346 45.4654 2 30 2C14.5346 2 2 14.5346 2 30C2 32.8992 2.2519 35.1748 2.93078 37.4677C3.61421 39.7758 4.75925 42.1991 6.65863 45.3582C9.12519 49.4607 12.7365 54.607 18.0169 62.132C20.3524 65.4602 23.0143 69.2537 26.0481 73.6279L28.6369 77.3483Z" fill="white"/>
<circle cx="30" cy="29" r="24" fill="white"/>
<path fill-rule="evenodd" clip-rule="evenodd" d="M22.5217 21.25H14.6957L10.2005 27.2331C10.0704 27.4063 10 27.6171 10 27.8338V34.3125C10 34.8648 10.4477 35.3125 11 35.3125H13.1304C13.1304 37.9688 15.1652 40 17.8261 40C20.487 40 22.5217 37.9688 22.5217 35.3125H31.913C31.913 37.9688 33.9478 40 36.6087 40C39.2696 40 41.3043 37.9688 41.3043 35.3125H46.8696V30.625H22.5217V21.25ZM38.9565 35.3125C38.9565 36.5625 37.8609 37.6562 36.6087 37.6562C35.3565 37.6562 34.2609 36.5625 34.2609 35.3125C34.2609 34.0625 35.3565 32.9688 36.6087 32.9688C37.8609 32.9688 38.9565 34.0625 38.9565 35.3125ZM20.1739 35.3125C20.1739 36.5625 19.0783 37.6562 17.8261 37.6562C16.5739 37.6562 15.4783 36.5625 15.4783 35.3125C15.4783 34.0625 16.5739 32.9688 17.8261 32.9688C19.0783 32.9688 20.1739 34.0625 20.1739 35.3125ZM19.3913 23.5938V27.5H12.3478L15.4783 23.5938H19.3913ZM23.087 24.5938V30.0625H28.5652H37.9565H48C48.5523 30.0625 49 29.6148 49 29.0625V18.5625C49 18.0102 48.5523 17.5625 48 17.5625H38.7391V16H32.4783V17.5625H24.087C23.5347 17.5625 23.087 18.0102 23.087 18.5625V24.5938Z" fill="#43B9C3"/>
</svg>
