<svg width="60" height="37" viewBox="0 0 60 37" fill="none" xmlns="http://www.w3.org/2000/svg">
<path fill-rule="evenodd" clip-rule="evenodd" d="M19.2642 8.09375H7.22408L0.1999 17.4625C0.0701403 17.6356 -1.07288e-06 17.8461 -1.07288e-06 18.0624V28.7734C-1.07288e-06 29.3257 0.447714 29.7734 0.999999 29.7734H4.81605C4.81605 33.8685 7.94649 37 12.0401 37C16.1338 37 19.2642 33.8685 19.2642 29.7734H33.7124C33.7124 33.8685 36.8428 37 40.9365 37C45.0301 37 48.1605 33.8685 48.1605 29.7734H56.7224V22.5469H19.2642V8.09375ZM44.5485 29.7734C44.5485 31.7005 42.8629 33.3867 40.9365 33.3867C39.01 33.3867 37.3244 31.7005 37.3244 29.7734C37.3244 27.8464 39.01 26.1602 40.9365 26.1602C42.8629 26.1602 44.5485 27.8464 44.5485 29.7734ZM15.6522 29.7734C15.6522 31.7005 13.9666 33.3867 12.0401 33.3867C10.1137 33.3867 8.4281 31.7005 8.4281 29.7734C8.4281 27.8464 10.1137 26.1602 12.0401 26.1602C13.9666 26.1602 15.6522 27.8464 15.6522 29.7734ZM14.4482 11.707V17.7292H3.61204L8.4281 11.707H14.4482ZM20.1338 13.2487V21.6797H28.5619H43.01H59C59.5523 21.6797 60 21.232 60 20.6797V3.40885C60 2.85657 59.5523 2.40885 59 2.40885H44.214V0H34.5819V2.40885H21.1338C20.5815 2.40885 20.1338 2.85657 20.1338 3.40885V13.2487Z" fill="#43B9C3"/>
</svg>
