<svg width="44" height="44" viewBox="0 0 44 44" fill="none" xmlns="http://www.w3.org/2000/svg">
<path fill-rule="evenodd" clip-rule="evenodd" d="M27.6069 1.63443C26.0145 0.571334 24.1424 0.00390625 22.2273 0.00390625C19.6593 0.00390625 17.1964 1.02323 15.3805 2.83764C13.5646 4.65205 12.5444 7.11291 12.5444 9.67887C12.5444 11.5924 13.1123 13.463 14.1763 15.054C15.2402 16.645 16.7525 17.8851 18.5218 18.6174C20.2911 19.3496 22.2381 19.5412 24.1164 19.1679C25.9947 18.7946 27.72 17.8732 29.0742 16.5201C30.4283 15.167 31.3506 13.4431 31.7242 11.5664C32.0978 9.6896 31.906 7.74429 31.1732 5.97642C30.4403 4.20855 29.1992 2.69753 27.6069 1.63443ZM8.22445 28.9018C6.21383 30.8854 5.06565 33.5803 5.02832 36.4033C9.74747 40.6524 15.8748 43.0039 22.2273 43.0039C28.5799 43.0039 34.7072 40.6524 39.4263 36.4033C39.389 33.5803 38.2408 30.8854 36.2302 28.9018C34.2196 26.9182 31.5082 25.8053 28.6826 25.8038H15.772C12.9465 25.8053 10.2351 26.9182 8.22445 28.9018Z" fill="white"/>
</svg>
