<svg width="1363" height="301" viewBox="0 0 1363 301" fill="none" xmlns="http://www.w3.org/2000/svg">
<rect width="1363" height="301" fill="#F9F9F9"/>
<g style="mix-blend-mode:exclusion">
<rect width="1363" height="301" rx="15" fill="white" fill-opacity="0.05"/>
</g>
<path d="M0 15C0 6.71573 6.71573 0 15 0H37V301H15C6.71573 301 0 294.284 0 286V15Z" fill="#43B9C3"/>
<g style="mix-blend-mode:exclusion">
<path d="M104.004 140.455L111.792 104.898H116.438L118.963 107.933L110.665 144H105.535L104.004 140.455ZM101.937 104.898L108.516 140.724L106.824 144H100.889L92.5908 104.898H101.937ZM123.233 140.536L129.759 104.898H139.078L130.779 144H124.871L123.233 140.536ZM119.795 104.898L127.771 140.67L126.16 144H121.031L112.544 107.879L115.176 104.898H119.795ZM156.534 136.695V124.718C156.534 123.894 156.417 123.187 156.185 122.596C155.952 122.005 155.585 121.549 155.083 121.227C154.582 120.886 153.911 120.716 153.069 120.716C152.389 120.716 151.807 120.833 151.324 121.065C150.84 121.298 150.473 121.647 150.223 122.113C149.972 122.578 149.847 123.169 149.847 123.885H140.796C140.796 122.542 141.092 121.298 141.683 120.152C142.291 118.989 143.151 117.977 144.261 117.118C145.389 116.258 146.731 115.596 148.289 115.13C149.865 114.647 151.619 114.405 153.553 114.405C155.862 114.405 157.921 114.79 159.729 115.56C161.556 116.33 162.997 117.485 164.053 119.024C165.11 120.546 165.638 122.462 165.638 124.771V136.668C165.638 138.566 165.745 140.007 165.96 140.992C166.175 141.959 166.479 142.809 166.873 143.543V144H157.796C157.366 143.105 157.044 142.013 156.829 140.724C156.632 139.417 156.534 138.074 156.534 136.695ZM157.635 126.249L157.688 131.083H153.687C152.846 131.083 152.129 131.199 151.539 131.432C150.966 131.664 150.5 131.987 150.142 132.398C149.802 132.792 149.551 133.24 149.39 133.741C149.247 134.243 149.175 134.771 149.175 135.326C149.175 135.863 149.301 136.346 149.551 136.776C149.82 137.188 150.178 137.51 150.625 137.743C151.073 137.975 151.574 138.092 152.129 138.092C153.132 138.092 153.982 137.904 154.681 137.528C155.397 137.134 155.943 136.66 156.319 136.104C156.695 135.549 156.883 135.03 156.883 134.547L158.87 138.253C158.512 138.969 158.1 139.694 157.635 140.428C157.187 141.162 156.623 141.843 155.943 142.469C155.28 143.078 154.466 143.579 153.499 143.973C152.532 144.349 151.36 144.537 149.981 144.537C148.191 144.537 146.543 144.17 145.04 143.436C143.554 142.702 142.363 141.681 141.468 140.375C140.573 139.05 140.125 137.528 140.125 135.809C140.125 134.305 140.394 132.962 140.931 131.781C141.486 130.599 142.318 129.597 143.428 128.773C144.538 127.949 145.953 127.323 147.671 126.893C149.39 126.463 151.413 126.249 153.741 126.249H157.635ZM185.967 114.942V121.227H168.458V114.942H185.967ZM172.137 107.718H181.187V134.52C181.187 135.29 181.277 135.89 181.456 136.319C181.635 136.731 181.939 137.027 182.369 137.206C182.816 137.367 183.407 137.447 184.141 137.447C184.66 137.447 185.09 137.438 185.43 137.42C185.77 137.385 186.093 137.34 186.397 137.286V143.758C185.627 144.009 184.821 144.197 183.98 144.322C183.139 144.465 182.243 144.537 181.294 144.537C179.361 144.537 177.705 144.233 176.326 143.624C174.965 143.015 173.927 142.057 173.211 140.75C172.495 139.444 172.137 137.743 172.137 135.648V107.718ZM203.638 144.537C201.275 144.537 199.162 144.17 197.3 143.436C195.438 142.684 193.863 141.655 192.574 140.348C191.303 139.041 190.327 137.537 189.646 135.836C188.984 134.135 188.653 132.336 188.653 130.438V129.417C188.653 127.287 188.948 125.318 189.539 123.509C190.13 121.683 191.007 120.09 192.171 118.729C193.335 117.368 194.794 116.312 196.548 115.56C198.303 114.79 200.344 114.405 202.671 114.405C204.73 114.405 206.574 114.736 208.204 115.399C209.833 116.061 211.211 117.01 212.339 118.246C213.485 119.481 214.354 120.976 214.944 122.73C215.553 124.485 215.857 126.454 215.857 128.639V132.318H192.117V126.651H207.022V125.953C207.04 124.986 206.87 124.163 206.512 123.482C206.172 122.802 205.67 122.283 205.008 121.925C204.345 121.567 203.54 121.388 202.591 121.388C201.606 121.388 200.792 121.603 200.147 122.032C199.52 122.462 199.028 123.053 198.67 123.805C198.33 124.539 198.088 125.389 197.945 126.356C197.802 127.323 197.73 128.343 197.73 129.417V130.438C197.73 131.512 197.873 132.488 198.16 133.365C198.464 134.243 198.894 134.994 199.449 135.621C200.022 136.23 200.702 136.704 201.49 137.044C202.295 137.385 203.208 137.555 204.229 137.555C205.464 137.555 206.682 137.322 207.881 136.856C209.081 136.391 210.11 135.621 210.97 134.547L215.079 139.435C214.488 140.276 213.646 141.091 212.554 141.878C211.48 142.666 210.191 143.311 208.687 143.812C207.183 144.295 205.5 144.537 203.638 144.537ZM228.667 122.14V144H219.617V114.942H228.077L228.667 122.14ZM237.261 114.728L237.1 123.133C236.742 123.097 236.259 123.053 235.65 122.999C235.041 122.945 234.531 122.918 234.119 122.918C233.063 122.918 232.15 123.044 231.38 123.294C230.628 123.527 230.001 123.885 229.5 124.369C229.017 124.834 228.659 125.425 228.426 126.141C228.211 126.857 228.112 127.69 228.13 128.639L226.492 127.564C226.492 125.613 226.68 123.84 227.056 122.247C227.45 120.636 228.005 119.248 228.721 118.084C229.437 116.903 230.306 115.999 231.326 115.372C232.347 114.728 233.493 114.405 234.764 114.405C235.211 114.405 235.65 114.432 236.08 114.486C236.527 114.54 236.921 114.62 237.261 114.728ZM259.175 104.898H266.856L275.584 132.103L284.312 104.898H291.993L278.699 144H272.469L259.175 104.898ZM254.502 104.898H262.452L263.929 134.869V144H254.502V104.898ZM288.716 104.898H296.692V144H287.239V134.869L288.716 104.898ZM301.177 129.767V129.203C301.177 127.072 301.482 125.112 302.09 123.321C302.699 121.513 303.594 119.946 304.776 118.622C305.958 117.297 307.417 116.267 309.153 115.533C310.89 114.781 312.895 114.405 315.169 114.405C317.461 114.405 319.475 114.781 321.211 115.533C322.966 116.267 324.434 117.297 325.616 118.622C326.797 119.946 327.693 121.513 328.301 123.321C328.91 125.112 329.214 127.072 329.214 129.203V129.767C329.214 131.879 328.91 133.84 328.301 135.648C327.693 137.438 326.797 139.005 325.616 140.348C324.434 141.673 322.975 142.702 321.238 143.436C319.502 144.17 317.496 144.537 315.223 144.537C312.949 144.537 310.935 144.17 309.18 143.436C307.426 142.702 305.958 141.673 304.776 140.348C303.594 139.005 302.699 137.438 302.09 135.648C301.482 133.84 301.177 131.879 301.177 129.767ZM310.228 129.203V129.767C310.228 130.859 310.308 131.879 310.469 132.828C310.63 133.777 310.899 134.61 311.275 135.326C311.651 136.024 312.161 136.57 312.806 136.964C313.45 137.358 314.256 137.555 315.223 137.555C316.172 137.555 316.959 137.358 317.586 136.964C318.23 136.57 318.741 136.024 319.117 135.326C319.493 134.61 319.761 133.777 319.922 132.828C320.083 131.879 320.164 130.859 320.164 129.767V129.203C320.164 128.146 320.083 127.153 319.922 126.222C319.761 125.273 319.493 124.44 319.117 123.724C318.741 122.99 318.23 122.417 317.586 122.005C316.941 121.594 316.136 121.388 315.169 121.388C314.22 121.388 313.423 121.594 312.779 122.005C312.152 122.417 311.651 122.99 311.275 123.724C310.899 124.44 310.63 125.273 310.469 126.222C310.308 127.153 310.228 128.146 310.228 129.203ZM342.132 121.146V144H333.082V114.942H341.568L342.132 121.146ZM341.058 128.478L338.936 128.531C338.936 126.311 339.205 124.333 339.742 122.596C340.279 120.842 341.04 119.356 342.024 118.138C343.009 116.921 344.182 115.999 345.542 115.372C346.921 114.728 348.452 114.405 350.135 114.405C351.478 114.405 352.704 114.602 353.814 114.996C354.942 115.39 355.909 116.026 356.714 116.903C357.538 117.78 358.165 118.944 358.594 120.394C359.042 121.826 359.266 123.599 359.266 125.711V144H350.162V125.685C350.162 124.521 350 123.635 349.678 123.026C349.356 122.399 348.89 121.97 348.282 121.737C347.673 121.504 346.93 121.388 346.053 121.388C345.122 121.388 344.334 121.567 343.689 121.925C343.045 122.283 342.526 122.784 342.132 123.429C341.756 124.055 341.478 124.798 341.299 125.658C341.138 126.517 341.058 127.457 341.058 128.478ZM379.515 135.836C379.515 135.335 379.345 134.905 379.004 134.547C378.682 134.171 378.109 133.831 377.286 133.526C376.462 133.204 375.307 132.882 373.821 132.56C372.407 132.255 371.073 131.852 369.82 131.351C368.584 130.85 367.501 130.241 366.57 129.525C365.639 128.809 364.905 127.958 364.368 126.974C363.849 125.989 363.589 124.861 363.589 123.59C363.589 122.354 363.849 121.191 364.368 120.099C364.905 118.989 365.684 118.013 366.705 117.171C367.743 116.312 369.005 115.641 370.491 115.157C371.977 114.656 373.669 114.405 375.567 114.405C378.181 114.405 380.437 114.808 382.334 115.614C384.232 116.402 385.691 117.512 386.712 118.944C387.75 120.358 388.27 121.996 388.27 123.858H379.219C379.219 123.124 379.094 122.498 378.843 121.979C378.611 121.459 378.226 121.065 377.688 120.797C377.151 120.51 376.435 120.367 375.54 120.367C374.913 120.367 374.34 120.484 373.821 120.716C373.32 120.949 372.917 121.271 372.613 121.683C372.308 122.095 372.156 122.578 372.156 123.133C372.156 123.527 372.246 123.885 372.425 124.208C372.622 124.512 372.917 124.798 373.311 125.067C373.705 125.318 374.206 125.55 374.815 125.765C375.424 125.962 376.158 126.141 377.017 126.302C378.969 126.66 380.795 127.171 382.496 127.833C384.196 128.495 385.575 129.435 386.631 130.653C387.706 131.87 388.243 133.508 388.243 135.567C388.243 136.856 387.947 138.047 387.356 139.139C386.766 140.213 385.915 141.162 384.805 141.986C383.695 142.792 382.361 143.418 380.804 143.866C379.246 144.313 377.492 144.537 375.54 144.537C372.765 144.537 370.42 144.045 368.504 143.06C366.588 142.057 365.138 140.804 364.153 139.3C363.187 137.778 362.703 136.239 362.703 134.681H371.136C371.172 135.576 371.386 136.31 371.78 136.883C372.192 137.456 372.738 137.877 373.418 138.146C374.099 138.414 374.887 138.548 375.782 138.548C376.605 138.548 377.286 138.432 377.823 138.199C378.378 137.966 378.799 137.653 379.085 137.259C379.371 136.847 379.515 136.373 379.515 135.836ZM407.793 114.942V121.227H390.284V114.942H407.793ZM393.963 107.718H403.013V134.52C403.013 135.29 403.103 135.89 403.282 136.319C403.461 136.731 403.765 137.027 404.195 137.206C404.642 137.367 405.233 137.447 405.967 137.447C406.486 137.447 406.916 137.438 407.256 137.42C407.597 137.385 407.919 137.34 408.223 137.286V143.758C407.453 144.009 406.648 144.197 405.806 144.322C404.965 144.465 404.069 144.537 403.121 144.537C401.187 144.537 399.531 144.233 398.152 143.624C396.792 143.015 395.753 142.057 395.037 140.75C394.321 139.444 393.963 137.743 393.963 135.648V107.718ZM425.464 144.537C423.101 144.537 420.988 144.17 419.126 143.436C417.264 142.684 415.689 141.655 414.4 140.348C413.129 139.041 412.153 137.537 411.473 135.836C410.81 134.135 410.479 132.336 410.479 130.438V129.417C410.479 127.287 410.774 125.318 411.365 123.509C411.956 121.683 412.833 120.09 413.997 118.729C415.161 117.368 416.62 116.312 418.375 115.56C420.129 114.79 422.17 114.405 424.498 114.405C426.556 114.405 428.401 114.736 430.03 115.399C431.659 116.061 433.038 117.01 434.166 118.246C435.311 119.481 436.18 120.976 436.771 122.73C437.379 124.485 437.684 126.454 437.684 128.639V132.318H413.943V126.651H428.848V125.953C428.866 124.986 428.696 124.163 428.338 123.482C427.998 122.802 427.496 122.283 426.834 121.925C426.172 121.567 425.366 121.388 424.417 121.388C423.432 121.388 422.618 121.603 421.973 122.032C421.347 122.462 420.854 123.053 420.496 123.805C420.156 124.539 419.914 125.389 419.771 126.356C419.628 127.323 419.556 128.343 419.556 129.417V130.438C419.556 131.512 419.699 132.488 419.986 133.365C420.29 134.243 420.72 134.994 421.275 135.621C421.848 136.23 422.528 136.704 423.316 137.044C424.122 137.385 425.035 137.555 426.055 137.555C427.291 137.555 428.508 137.322 429.708 136.856C430.907 136.391 431.937 135.621 432.796 134.547L436.905 139.435C436.314 140.276 435.472 141.091 434.38 141.878C433.306 142.666 432.017 143.311 430.513 143.812C429.009 144.295 427.326 144.537 425.464 144.537ZM450.494 122.14V144H441.443V114.942H449.903L450.494 122.14ZM459.087 114.728L458.926 123.133C458.568 123.097 458.085 123.053 457.476 122.999C456.867 122.945 456.357 122.918 455.945 122.918C454.889 122.918 453.976 123.044 453.206 123.294C452.454 123.527 451.827 123.885 451.326 124.369C450.843 124.834 450.485 125.425 450.252 126.141C450.037 126.857 449.939 127.69 449.957 128.639L448.318 127.564C448.318 125.613 448.506 123.84 448.882 122.247C449.276 120.636 449.831 119.248 450.547 118.084C451.264 116.903 452.132 115.999 453.152 115.372C454.173 114.728 455.319 114.405 456.59 114.405C457.037 114.405 457.476 114.432 457.906 114.486C458.353 114.54 458.747 114.62 459.087 114.728Z" fill="white"/>
</g>
<g style="mix-blend-mode:exclusion">
<path d="M104.339 59.3726L97.5713 80H92.1196L101.365 55.1172H104.834L104.339 59.3726ZM109.961 80L103.177 59.3726L102.63 55.1172H106.133L115.43 80H109.961ZM109.654 70.7373V74.7534H96.5117V70.7373H109.654ZM117.43 53.75H122.352V75.7617L121.856 80H117.43V53.75ZM134.058 70.5664V70.9253C134.058 72.3039 133.91 73.5685 133.614 74.7192C133.329 75.87 132.885 76.8669 132.281 77.71C131.677 78.5417 130.925 79.1911 130.025 79.6582C129.136 80.1139 128.088 80.3418 126.88 80.3418C125.752 80.3418 124.773 80.1139 123.941 79.6582C123.121 79.2025 122.431 78.5588 121.873 77.7271C121.315 76.8953 120.865 75.9212 120.523 74.8047C120.181 73.6882 119.925 72.4691 119.754 71.1475V70.3613C119.925 69.0397 120.181 67.8206 120.523 66.7041C120.865 65.5876 121.315 64.6134 121.873 63.7817C122.431 62.95 123.121 62.3063 123.941 61.8506C124.761 61.3949 125.73 61.167 126.846 61.167C128.065 61.167 129.125 61.4006 130.025 61.8677C130.936 62.3234 131.688 62.9728 132.281 63.8159C132.885 64.6476 133.329 65.6388 133.614 66.7896C133.91 67.9289 134.058 69.1878 134.058 70.5664ZM129.136 70.9253V70.5664C129.136 69.8145 129.079 69.1081 128.965 68.4473C128.863 67.7751 128.681 67.1883 128.418 66.687C128.156 66.1743 127.798 65.7699 127.342 65.4736C126.897 65.1774 126.322 65.0293 125.616 65.0293C124.944 65.0293 124.374 65.1432 123.907 65.3711C123.44 65.599 123.052 65.918 122.745 66.3281C122.448 66.7383 122.226 67.2282 122.078 67.7979C121.93 68.3561 121.839 68.9714 121.805 69.6436V71.8823C121.839 72.7824 121.987 73.5799 122.249 74.2749C122.522 74.9585 122.933 75.4997 123.479 75.8984C124.038 76.2858 124.761 76.4795 125.65 76.4795C126.345 76.4795 126.92 76.3428 127.376 76.0693C127.832 75.7959 128.185 75.4085 128.436 74.9072C128.698 74.4059 128.88 73.8192 128.982 73.147C129.085 72.4634 129.136 71.7228 129.136 70.9253ZM148.038 75.9668V53.75H152.994V80H148.533L148.038 75.9668ZM136.348 70.9766V70.6177C136.348 69.2049 136.508 67.9232 136.827 66.7725C137.146 65.6104 137.613 64.6134 138.228 63.7817C138.843 62.95 139.601 62.3063 140.501 61.8506C141.401 61.3949 142.426 61.167 143.577 61.167C144.66 61.167 145.605 61.3949 146.414 61.8506C147.234 62.3063 147.929 62.9557 148.499 63.7988C149.08 64.6305 149.547 65.616 149.9 66.7554C150.254 67.8833 150.51 69.1195 150.669 70.4639V71.25C150.51 72.5374 150.254 73.7337 149.9 74.8389C149.547 75.944 149.08 76.9124 148.499 77.7441C147.929 78.5645 147.234 79.2025 146.414 79.6582C145.594 80.1139 144.637 80.3418 143.543 80.3418C142.392 80.3418 141.367 80.1082 140.467 79.6411C139.578 79.174 138.826 78.5189 138.211 77.6758C137.607 76.8327 137.146 75.8415 136.827 74.7021C136.508 73.5628 136.348 72.321 136.348 70.9766ZM141.27 70.6177V70.9766C141.27 71.7399 141.327 72.452 141.441 73.1128C141.566 73.7736 141.766 74.3604 142.039 74.873C142.324 75.3743 142.688 75.7674 143.133 76.0522C143.589 76.3257 144.141 76.4624 144.791 76.4624C145.634 76.4624 146.329 76.2744 146.875 75.8984C147.422 75.5111 147.838 74.9813 148.123 74.3091C148.419 73.6369 148.59 72.8621 148.636 71.9849V69.7461C148.602 69.0283 148.499 68.3846 148.328 67.8149C148.169 67.2339 147.929 66.7383 147.61 66.3281C147.303 65.918 146.915 65.599 146.448 65.3711C145.993 65.1432 145.451 65.0293 144.825 65.0293C144.187 65.0293 143.64 65.1774 143.184 65.4736C142.728 65.7585 142.358 66.1515 142.073 66.6528C141.8 67.1541 141.595 67.7466 141.458 68.4302C141.333 69.1024 141.27 69.8315 141.27 70.6177ZM166.819 75.8301V67.5928C166.819 67.0003 166.722 66.4933 166.529 66.0718C166.335 65.6388 166.033 65.3027 165.623 65.0635C165.224 64.8242 164.706 64.7046 164.068 64.7046C163.521 64.7046 163.048 64.8014 162.649 64.9951C162.251 65.1774 161.943 65.4451 161.727 65.7983C161.51 66.1401 161.402 66.5446 161.402 67.0117H156.48C156.48 66.2256 156.662 65.4793 157.027 64.7729C157.391 64.0666 157.921 63.4456 158.616 62.9102C159.311 62.3633 160.137 61.936 161.094 61.6284C162.063 61.3208 163.145 61.167 164.341 61.167C165.777 61.167 167.053 61.4062 168.169 61.8848C169.286 62.3633 170.163 63.0811 170.801 64.0381C171.451 64.9951 171.775 66.1914 171.775 67.627V75.5396C171.775 76.5535 171.838 77.3853 171.963 78.0347C172.089 78.6727 172.271 79.231 172.51 79.7095V80H167.537C167.298 79.4987 167.116 78.8721 166.99 78.1201C166.876 77.3568 166.819 76.5934 166.819 75.8301ZM167.469 68.7378L167.503 71.5234H164.751C164.102 71.5234 163.538 71.5975 163.06 71.7456C162.581 71.8937 162.188 72.1045 161.88 72.3779C161.573 72.64 161.345 72.9476 161.197 73.3008C161.06 73.654 160.992 74.0413 160.992 74.4629C160.992 74.8844 161.089 75.2661 161.282 75.6079C161.476 75.9383 161.755 76.2004 162.12 76.394C162.484 76.5763 162.911 76.6675 163.401 76.6675C164.142 76.6675 164.786 76.5194 165.333 76.2231C165.879 75.9269 166.301 75.5623 166.597 75.1294C166.905 74.6965 167.064 74.2863 167.076 73.8989L168.375 75.9839C168.192 76.451 167.942 76.9352 167.623 77.4365C167.315 77.9378 166.922 78.4106 166.443 78.855C165.965 79.2879 165.389 79.6468 164.717 79.9316C164.045 80.2051 163.248 80.3418 162.325 80.3418C161.151 80.3418 160.086 80.1082 159.129 79.6411C158.183 79.1626 157.431 78.5075 156.873 77.6758C156.326 76.8327 156.053 75.8757 156.053 74.8047C156.053 73.8363 156.235 72.9761 156.6 72.2241C156.964 71.4722 157.5 70.8398 158.206 70.3271C158.924 69.8031 159.818 69.41 160.889 69.1479C161.96 68.8745 163.202 68.7378 164.615 68.7378H167.469ZM180.765 53.75V80H175.826V53.75H180.765ZM190.027 53.75V80H185.088V53.75H190.027ZM204.075 75.8301V67.5928C204.075 67.0003 203.978 66.4933 203.785 66.0718C203.591 65.6388 203.289 65.3027 202.879 65.0635C202.48 64.8242 201.962 64.7046 201.324 64.7046C200.777 64.7046 200.304 64.8014 199.905 64.9951C199.507 65.1774 199.199 65.4451 198.982 65.7983C198.766 66.1401 198.658 66.5446 198.658 67.0117H193.736C193.736 66.2256 193.918 65.4793 194.283 64.7729C194.647 64.0666 195.177 63.4456 195.872 62.9102C196.567 62.3633 197.393 61.936 198.35 61.6284C199.319 61.3208 200.401 61.167 201.597 61.167C203.033 61.167 204.309 61.4062 205.425 61.8848C206.542 62.3633 207.419 63.0811 208.057 64.0381C208.707 64.9951 209.031 66.1914 209.031 67.627V75.5396C209.031 76.5535 209.094 77.3853 209.219 78.0347C209.345 78.6727 209.527 79.231 209.766 79.7095V80H204.793C204.554 79.4987 204.371 78.8721 204.246 78.1201C204.132 77.3568 204.075 76.5934 204.075 75.8301ZM204.725 68.7378L204.759 71.5234H202.007C201.358 71.5234 200.794 71.5975 200.315 71.7456C199.837 71.8937 199.444 72.1045 199.136 72.3779C198.829 72.64 198.601 72.9476 198.453 73.3008C198.316 73.654 198.248 74.0413 198.248 74.4629C198.248 74.8844 198.344 75.2661 198.538 75.6079C198.732 75.9383 199.011 76.2004 199.375 76.394C199.74 76.5763 200.167 76.6675 200.657 76.6675C201.398 76.6675 202.042 76.5194 202.588 76.2231C203.135 75.9269 203.557 75.5623 203.853 75.1294C204.161 74.6965 204.32 74.2863 204.332 73.8989L205.63 75.9839C205.448 76.451 205.197 76.9352 204.878 77.4365C204.571 77.9378 204.178 78.4106 203.699 78.855C203.221 79.2879 202.645 79.6468 201.973 79.9316C201.301 80.2051 200.503 80.3418 199.581 80.3418C198.407 80.3418 197.342 80.1082 196.385 79.6411C195.439 79.1626 194.687 78.5075 194.129 77.6758C193.582 76.8327 193.309 75.8757 193.309 74.8047C193.309 73.8363 193.491 72.9761 193.855 72.2241C194.22 71.4722 194.756 70.8398 195.462 70.3271C196.18 69.8031 197.074 69.41 198.145 69.1479C199.216 68.8745 200.458 68.7378 201.871 68.7378H204.725ZM217.627 53.75V80H212.706V53.75H217.627ZM216.927 70.105H215.577C215.588 68.8175 215.759 67.6326 216.089 66.5503C216.42 65.4565 216.893 64.5109 217.508 63.7134C218.123 62.9045 218.858 62.2778 219.712 61.8335C220.578 61.3892 221.535 61.167 222.583 61.167C223.495 61.167 224.321 61.298 225.062 61.5601C225.813 61.8107 226.457 62.2209 226.993 62.7905C227.54 63.3488 227.961 64.0837 228.257 64.9951C228.554 65.9066 228.702 67.0117 228.702 68.3105V80H223.746V68.2764C223.746 67.4561 223.626 66.8123 223.387 66.3452C223.159 65.8667 222.823 65.5306 222.378 65.3369C221.945 65.1318 221.41 65.0293 220.772 65.0293C220.066 65.0293 219.462 65.1603 218.96 65.4224C218.471 65.6844 218.077 66.049 217.781 66.5161C217.485 66.9718 217.269 67.5073 217.132 68.1226C216.995 68.7378 216.927 69.3986 216.927 70.105ZM243.809 55.1172H248.15L254.542 73.3862L260.933 55.1172H265.274L256.285 80H252.798L243.809 55.1172ZM241.468 55.1172H245.792L246.578 72.9248V80H241.468V55.1172ZM263.292 55.1172H267.632V80H262.505V72.9248L263.292 55.1172ZM271.033 70.9424V70.5835C271.033 69.2277 271.227 67.9801 271.614 66.8408C272.002 65.6901 272.566 64.6932 273.306 63.8501C274.047 63.007 274.958 62.3519 276.041 61.8848C277.123 61.4062 278.365 61.167 279.766 61.167C281.167 61.167 282.415 61.4062 283.509 61.8848C284.603 62.3519 285.52 63.007 286.26 63.8501C287.012 64.6932 287.582 65.6901 287.969 66.8408C288.357 67.9801 288.55 69.2277 288.55 70.5835V70.9424C288.55 72.2868 288.357 73.5343 287.969 74.6851C287.582 75.8244 287.012 76.8213 286.26 77.6758C285.52 78.5189 284.608 79.174 283.526 79.6411C282.444 80.1082 281.202 80.3418 279.8 80.3418C278.399 80.3418 277.151 80.1082 276.058 79.6411C274.975 79.174 274.058 78.5189 273.306 77.6758C272.566 76.8213 272.002 75.8244 271.614 74.6851C271.227 73.5343 271.033 72.2868 271.033 70.9424ZM275.955 70.5835V70.9424C275.955 71.7171 276.023 72.4406 276.16 73.1128C276.297 73.785 276.513 74.3774 276.81 74.8901C277.117 75.3914 277.516 75.7845 278.006 76.0693C278.496 76.3542 279.094 76.4966 279.8 76.4966C280.484 76.4966 281.071 76.3542 281.561 76.0693C282.05 75.7845 282.444 75.3914 282.74 74.8901C283.036 74.3774 283.252 73.785 283.389 73.1128C283.537 72.4406 283.611 71.7171 283.611 70.9424V70.5835C283.611 69.8315 283.537 69.1252 283.389 68.4644C283.252 67.7922 283.03 67.1997 282.723 66.687C282.426 66.1629 282.033 65.7528 281.543 65.4565C281.054 65.1603 280.461 65.0122 279.766 65.0122C279.071 65.0122 278.479 65.1603 277.989 65.4565C277.51 65.7528 277.117 66.1629 276.81 66.687C276.513 67.1997 276.297 67.7922 276.16 68.4644C276.023 69.1252 275.955 69.8315 275.955 70.5835ZM302.513 75.5737V61.5088H307.435V80H302.803L302.513 75.5737ZM303.06 71.7798L304.512 71.7456C304.512 72.9761 304.37 74.1211 304.085 75.1807C303.8 76.2288 303.373 77.1403 302.803 77.915C302.234 78.6784 301.516 79.2765 300.65 79.7095C299.784 80.131 298.764 80.3418 297.591 80.3418C296.691 80.3418 295.859 80.2165 295.096 79.9658C294.344 79.7038 293.694 79.2993 293.147 78.7524C292.612 78.1942 292.19 77.4821 291.883 76.6162C291.587 75.7389 291.438 74.6851 291.438 73.4546V61.5088H296.36V73.4888C296.36 74.0356 296.423 74.4971 296.548 74.873C296.685 75.249 296.873 75.5566 297.112 75.7959C297.352 76.0352 297.631 76.2061 297.95 76.3086C298.28 76.4111 298.645 76.4624 299.043 76.4624C300.057 76.4624 300.855 76.2573 301.436 75.8472C302.028 75.437 302.444 74.8787 302.684 74.1724C302.934 73.4546 303.06 72.6571 303.06 71.7798ZM311.194 53.75H316.116V75.7617L315.621 80H311.194V53.75ZM327.823 70.5664V70.9253C327.823 72.3039 327.675 73.5685 327.378 74.7192C327.094 75.87 326.649 76.8669 326.045 77.71C325.442 78.5417 324.69 79.1911 323.79 79.6582C322.901 80.1139 321.853 80.3418 320.645 80.3418C319.517 80.3418 318.537 80.1139 317.706 79.6582C316.885 79.2025 316.196 78.5588 315.638 77.7271C315.079 76.8953 314.629 75.9212 314.288 74.8047C313.946 73.6882 313.689 72.4691 313.519 71.1475V70.3613C313.689 69.0397 313.946 67.8206 314.288 66.7041C314.629 65.5876 315.079 64.6134 315.638 63.7817C316.196 62.95 316.885 62.3063 317.706 61.8506C318.526 61.3949 319.494 61.167 320.611 61.167C321.83 61.167 322.889 61.4006 323.79 61.8677C324.701 62.3234 325.453 62.9728 326.045 63.8159C326.649 64.6476 327.094 65.6388 327.378 66.7896C327.675 67.9289 327.823 69.1878 327.823 70.5664ZM322.901 70.9253V70.5664C322.901 69.8145 322.844 69.1081 322.73 68.4473C322.627 67.7751 322.445 67.1883 322.183 66.687C321.921 66.1743 321.562 65.7699 321.106 65.4736C320.662 65.1774 320.087 65.0293 319.38 65.0293C318.708 65.0293 318.139 65.1432 317.671 65.3711C317.204 65.599 316.817 65.918 316.509 66.3281C316.213 66.7383 315.991 67.2282 315.843 67.7979C315.695 68.3561 315.604 68.9714 315.569 69.6436V71.8823C315.604 72.7824 315.752 73.5799 316.014 74.2749C316.287 74.9585 316.697 75.4997 317.244 75.8984C317.802 76.2858 318.526 76.4795 319.415 76.4795C320.11 76.4795 320.685 76.3428 321.141 76.0693C321.596 75.7959 321.95 75.4085 322.2 74.9072C322.462 74.4059 322.645 73.8192 322.747 73.147C322.85 72.4634 322.901 71.7228 322.901 70.9253ZM340.862 75.8301V67.5928C340.862 67.0003 340.765 66.4933 340.572 66.0718C340.378 65.6388 340.076 65.3027 339.666 65.0635C339.267 64.8242 338.749 64.7046 338.111 64.7046C337.564 64.7046 337.091 64.8014 336.692 64.9951C336.294 65.1774 335.986 65.4451 335.77 65.7983C335.553 66.1401 335.445 66.5446 335.445 67.0117H330.523C330.523 66.2256 330.705 65.4793 331.07 64.7729C331.434 64.0666 331.964 63.4456 332.659 62.9102C333.354 62.3633 334.18 61.936 335.137 61.6284C336.106 61.3208 337.188 61.167 338.384 61.167C339.82 61.167 341.096 61.4062 342.212 61.8848C343.329 62.3633 344.206 63.0811 344.844 64.0381C345.494 64.9951 345.818 66.1914 345.818 67.627V75.5396C345.818 76.5535 345.881 77.3853 346.006 78.0347C346.132 78.6727 346.314 79.231 346.553 79.7095V80H341.58C341.341 79.4987 341.159 78.8721 341.033 78.1201C340.919 77.3568 340.862 76.5934 340.862 75.8301ZM341.512 68.7378L341.546 71.5234H338.794C338.145 71.5234 337.581 71.5975 337.103 71.7456C336.624 71.8937 336.231 72.1045 335.923 72.3779C335.616 72.64 335.388 72.9476 335.24 73.3008C335.103 73.654 335.035 74.0413 335.035 74.4629C335.035 74.8844 335.132 75.2661 335.325 75.6079C335.519 75.9383 335.798 76.2004 336.163 76.394C336.527 76.5763 336.954 76.6675 337.444 76.6675C338.185 76.6675 338.829 76.5194 339.375 76.2231C339.922 75.9269 340.344 75.5623 340.64 75.1294C340.948 74.6965 341.107 74.2863 341.119 73.8989L342.417 75.9839C342.235 76.451 341.985 76.9352 341.666 77.4365C341.358 77.9378 340.965 78.4106 340.486 78.855C340.008 79.2879 339.432 79.6468 338.76 79.9316C338.088 80.2051 337.291 80.3418 336.368 80.3418C335.194 80.3418 334.129 80.1082 333.172 79.6411C332.226 79.1626 331.474 78.5075 330.916 77.6758C330.369 76.8327 330.096 75.8757 330.096 74.8047C330.096 73.8363 330.278 72.9761 330.643 72.2241C331.007 71.4722 331.543 70.8398 332.249 70.3271C332.967 69.8031 333.861 69.41 334.932 69.1479C336.003 68.8745 337.245 68.7378 338.658 68.7378H341.512ZM354.534 65.542V80H349.612V61.5088H354.244L354.534 65.542ZM360.105 61.3892L360.02 65.9521C359.781 65.918 359.49 65.8895 359.148 65.8667C358.818 65.8325 358.516 65.8154 358.243 65.8154C357.548 65.8154 356.944 65.9066 356.431 66.0889C355.93 66.2598 355.508 66.5161 355.167 66.8579C354.836 67.1997 354.585 67.6156 354.415 68.1055C354.255 68.5954 354.164 69.1536 354.141 69.7803L353.15 69.4727C353.15 68.2764 353.27 67.1769 353.509 66.1743C353.748 65.1603 354.096 64.2773 354.551 63.5254C355.018 62.7734 355.588 62.1924 356.26 61.7822C356.932 61.3721 357.701 61.167 358.567 61.167C358.841 61.167 359.12 61.1898 359.405 61.2354C359.69 61.2695 359.923 61.3208 360.105 61.3892ZM371.829 75.8301V67.5928C371.829 67.0003 371.732 66.4933 371.539 66.0718C371.345 65.6388 371.043 65.3027 370.633 65.0635C370.234 64.8242 369.716 64.7046 369.078 64.7046C368.531 64.7046 368.058 64.8014 367.659 64.9951C367.26 65.1774 366.953 65.4451 366.736 65.7983C366.52 66.1401 366.412 66.5446 366.412 67.0117H361.49C361.49 66.2256 361.672 65.4793 362.037 64.7729C362.401 64.0666 362.931 63.4456 363.626 62.9102C364.321 62.3633 365.147 61.936 366.104 61.6284C367.072 61.3208 368.155 61.167 369.351 61.167C370.787 61.167 372.063 61.4062 373.179 61.8848C374.296 62.3633 375.173 63.0811 375.811 64.0381C376.46 64.9951 376.785 66.1914 376.785 67.627V75.5396C376.785 76.5535 376.848 77.3853 376.973 78.0347C377.098 78.6727 377.281 79.231 377.52 79.7095V80H372.547C372.308 79.4987 372.125 78.8721 372 78.1201C371.886 77.3568 371.829 76.5934 371.829 75.8301ZM372.479 68.7378L372.513 71.5234H369.761C369.112 71.5234 368.548 71.5975 368.069 71.7456C367.591 71.8937 367.198 72.1045 366.89 72.3779C366.583 72.64 366.355 72.9476 366.207 73.3008C366.07 73.654 366.001 74.0413 366.001 74.4629C366.001 74.8844 366.098 75.2661 366.292 75.6079C366.486 75.9383 366.765 76.2004 367.129 76.394C367.494 76.5763 367.921 76.6675 368.411 76.6675C369.152 76.6675 369.795 76.5194 370.342 76.2231C370.889 75.9269 371.311 75.5623 371.607 75.1294C371.915 74.6965 372.074 74.2863 372.085 73.8989L373.384 75.9839C373.202 76.451 372.951 76.9352 372.632 77.4365C372.325 77.9378 371.932 78.4106 371.453 78.855C370.975 79.2879 370.399 79.6468 369.727 79.9316C369.055 80.2051 368.257 80.3418 367.334 80.3418C366.161 80.3418 365.096 80.1082 364.139 79.6411C363.193 79.1626 362.441 78.5075 361.883 77.6758C361.336 76.8327 361.062 75.8757 361.062 74.8047C361.062 73.8363 361.245 72.9761 361.609 72.2241C361.974 71.4722 362.509 70.8398 363.216 70.3271C363.934 69.8031 364.828 69.41 365.899 69.1479C366.97 68.8745 368.212 68.7378 369.625 68.7378H372.479ZM385.501 53.7329V80H380.579V53.7329H385.501ZM397.156 61.5088L389.124 70.6689L384.817 75.0269L383.023 71.4722L386.441 67.1313L391.243 61.5088H397.156ZM392.046 80L386.578 71.4551L389.979 68.4814L397.72 80H392.046Z" fill="white" fill-opacity="0.5"/>
</g>
<g style="mix-blend-mode:exclusion">
<rect x="92" y="181" width="1179" height="80" rx="13.3333" fill="white" fill-opacity="0.1"/>
</g>
<rect x="105" y="194.333" width="212" height="53.3333" rx="6.66667" fill="#43B9C3"/>
<path d="M171.823 213.167H177.792C178.958 213.167 179.972 213.34 180.833 213.687C181.694 214.035 182.358 214.549 182.823 215.229C183.295 215.91 183.531 216.75 183.531 217.75C183.531 218.618 183.396 219.344 183.125 219.927C182.854 220.51 182.476 220.993 181.99 221.375C181.51 221.75 180.951 222.059 180.312 222.302L179.115 222.979H174.104L174.083 220.156H177.792C178.257 220.156 178.642 220.073 178.948 219.906C179.253 219.74 179.483 219.503 179.635 219.198C179.795 218.885 179.875 218.514 179.875 218.083C179.875 217.646 179.795 217.271 179.635 216.958C179.476 216.646 179.24 216.406 178.927 216.24C178.622 216.073 178.243 215.99 177.792 215.99H175.479V228.333H171.823V213.167ZM180.125 228.333L176.771 221.625L180.646 221.604L184.042 228.177V228.333H180.125ZM191.031 228.542C190.115 228.542 189.295 228.399 188.573 228.115C187.851 227.823 187.24 227.424 186.74 226.917C186.247 226.41 185.868 225.826 185.604 225.167C185.347 224.507 185.219 223.809 185.219 223.073V222.677C185.219 221.851 185.333 221.087 185.562 220.385C185.792 219.677 186.132 219.059 186.583 218.531C187.035 218.003 187.601 217.594 188.281 217.302C188.962 217.003 189.753 216.854 190.656 216.854C191.455 216.854 192.17 216.983 192.802 217.24C193.434 217.497 193.969 217.865 194.406 218.344C194.851 218.823 195.187 219.403 195.417 220.083C195.653 220.764 195.771 221.528 195.771 222.375V223.802H186.562V221.604H192.344V221.333C192.351 220.958 192.285 220.639 192.146 220.375C192.014 220.111 191.819 219.91 191.562 219.771C191.306 219.632 190.993 219.562 190.625 219.562C190.243 219.562 189.927 219.646 189.677 219.812C189.434 219.979 189.243 220.208 189.104 220.5C188.972 220.785 188.878 221.115 188.823 221.49C188.767 221.865 188.74 222.26 188.74 222.677V223.073C188.74 223.49 188.795 223.868 188.906 224.208C189.024 224.549 189.191 224.84 189.406 225.083C189.628 225.319 189.892 225.503 190.198 225.635C190.51 225.767 190.865 225.833 191.26 225.833C191.74 225.833 192.212 225.743 192.677 225.562C193.142 225.382 193.542 225.083 193.875 224.667L195.469 226.562C195.24 226.889 194.913 227.205 194.49 227.51C194.073 227.816 193.573 228.066 192.99 228.26C192.406 228.448 191.753 228.542 191.031 228.542ZM203.052 225.5V220.854C203.052 220.535 203.007 220.26 202.917 220.031C202.826 219.802 202.684 219.625 202.49 219.5C202.295 219.368 202.035 219.302 201.708 219.302C201.444 219.302 201.219 219.347 201.031 219.437C200.844 219.528 200.701 219.663 200.604 219.844C200.507 220.024 200.458 220.253 200.458 220.531H196.948C196.948 220.01 197.062 219.528 197.292 219.083C197.528 218.632 197.861 218.24 198.292 217.906C198.729 217.573 199.25 217.316 199.854 217.135C200.465 216.948 201.146 216.854 201.896 216.854C202.792 216.854 203.59 217.003 204.292 217.302C205 217.601 205.559 218.049 205.969 218.646C206.378 219.236 206.583 219.979 206.583 220.875V225.49C206.583 226.226 206.625 226.785 206.708 227.167C206.792 227.542 206.91 227.872 207.062 228.156V228.333H203.542C203.375 227.986 203.25 227.562 203.167 227.062C203.09 226.556 203.052 226.035 203.052 225.5ZM203.479 221.448L203.5 223.323H201.948C201.622 223.323 201.344 223.368 201.115 223.458C200.892 223.549 200.712 223.674 200.573 223.833C200.441 223.986 200.344 224.16 200.281 224.354C200.226 224.549 200.198 224.753 200.198 224.969C200.198 225.177 200.247 225.365 200.344 225.531C200.448 225.691 200.587 225.816 200.76 225.906C200.934 225.997 201.128 226.042 201.344 226.042C201.733 226.042 202.062 225.969 202.333 225.823C202.611 225.67 202.823 225.486 202.969 225.271C203.115 225.056 203.187 224.854 203.187 224.667L203.958 226.104C203.819 226.382 203.66 226.663 203.479 226.948C203.306 227.233 203.087 227.497 202.823 227.74C202.566 227.976 202.25 228.17 201.875 228.323C201.5 228.469 201.045 228.542 200.51 228.542C199.816 228.542 199.177 228.399 198.594 228.115C198.017 227.83 197.556 227.434 197.208 226.927C196.861 226.413 196.687 225.823 196.687 225.156C196.687 224.573 196.792 224.052 197 223.594C197.215 223.135 197.538 222.747 197.969 222.427C198.399 222.108 198.948 221.865 199.615 221.698C200.281 221.531 201.066 221.448 201.969 221.448H203.479ZM213.292 225.833C213.618 225.833 213.896 225.774 214.125 225.656C214.361 225.531 214.538 225.358 214.656 225.135C214.781 224.906 214.84 224.632 214.833 224.312H218.135C218.142 225.16 217.934 225.903 217.51 226.542C217.094 227.174 216.524 227.667 215.802 228.021C215.087 228.368 214.278 228.542 213.375 228.542C212.493 228.542 211.722 228.399 211.062 228.115C210.403 227.823 209.851 227.42 209.406 226.906C208.969 226.385 208.639 225.778 208.417 225.083C208.201 224.389 208.094 223.635 208.094 222.823V222.583C208.094 221.771 208.201 221.017 208.417 220.323C208.639 219.622 208.969 219.014 209.406 218.5C209.851 217.979 210.399 217.576 211.052 217.292C211.712 217 212.479 216.854 213.354 216.854C214.292 216.854 215.118 217.031 215.833 217.385C216.556 217.74 217.122 218.253 217.531 218.927C217.941 219.601 218.142 220.417 218.135 221.375H214.833C214.84 221.035 214.788 220.729 214.677 220.458C214.566 220.187 214.392 219.972 214.156 219.812C213.927 219.646 213.632 219.562 213.271 219.562C212.91 219.562 212.618 219.642 212.396 219.802C212.174 219.962 212.003 220.184 211.885 220.469C211.774 220.747 211.698 221.066 211.656 221.427C211.622 221.788 211.604 222.174 211.604 222.583V222.823C211.604 223.24 211.622 223.632 211.656 224C211.698 224.361 211.778 224.681 211.896 224.958C212.014 225.229 212.184 225.444 212.406 225.604C212.628 225.757 212.924 225.833 213.292 225.833ZM225.573 217.062V219.5H218.781V217.062H225.573ZM220.208 214.26H223.719V224.656C223.719 224.955 223.753 225.187 223.823 225.354C223.892 225.514 224.01 225.628 224.177 225.698C224.351 225.76 224.58 225.792 224.865 225.792C225.066 225.792 225.233 225.788 225.365 225.781C225.497 225.767 225.622 225.75 225.74 225.729V228.24C225.441 228.337 225.128 228.41 224.802 228.458C224.476 228.514 224.128 228.542 223.76 228.542C223.01 228.542 222.368 228.424 221.833 228.187C221.306 227.951 220.903 227.58 220.625 227.073C220.347 226.566 220.208 225.906 220.208 225.094V214.26ZM233.167 223.573V213.167H236.812V223.573C236.812 224.587 236.58 225.465 236.115 226.208C235.656 226.951 235.031 227.528 234.24 227.937C233.455 228.34 232.573 228.542 231.594 228.542C230.58 228.542 229.677 228.372 228.885 228.031C228.101 227.691 227.483 227.167 227.031 226.458C226.587 225.75 226.365 224.847 226.365 223.75H230.031C230.031 224.264 230.09 224.667 230.208 224.958C230.326 225.243 230.5 225.444 230.729 225.562C230.965 225.674 231.253 225.729 231.594 225.729C231.927 225.729 232.208 225.646 232.437 225.479C232.674 225.306 232.854 225.059 232.979 224.74C233.104 224.413 233.167 224.024 233.167 223.573ZM246.948 224.302C246.948 224.066 246.913 223.854 246.844 223.667C246.774 223.472 246.646 223.292 246.458 223.125C246.271 222.958 246 222.792 245.646 222.625C245.299 222.451 244.84 222.271 244.271 222.083C243.604 221.861 242.962 221.611 242.344 221.333C241.726 221.049 241.174 220.719 240.687 220.344C240.201 219.962 239.816 219.517 239.531 219.01C239.247 218.497 239.104 217.899 239.104 217.219C239.104 216.566 239.25 215.979 239.542 215.458C239.833 214.931 240.24 214.483 240.76 214.115C241.288 213.74 241.906 213.455 242.615 213.26C243.323 213.059 244.097 212.958 244.937 212.958C246.049 212.958 247.028 213.153 247.875 213.542C248.729 213.924 249.396 214.469 249.875 215.177C250.361 215.878 250.604 216.708 250.604 217.667H246.969C246.969 217.285 246.889 216.948 246.729 216.656C246.576 216.365 246.344 216.135 246.031 215.969C245.719 215.802 245.326 215.719 244.854 215.719C244.396 215.719 244.01 215.788 243.698 215.927C243.385 216.066 243.149 216.253 242.99 216.49C242.83 216.719 242.75 216.972 242.75 217.25C242.75 217.479 242.812 217.687 242.937 217.875C243.069 218.056 243.253 218.226 243.49 218.385C243.733 218.545 244.024 218.698 244.365 218.844C244.712 218.99 245.101 219.132 245.531 219.271C246.337 219.528 247.052 219.816 247.677 220.135C248.309 220.448 248.84 220.806 249.271 221.208C249.708 221.604 250.038 222.056 250.26 222.562C250.49 223.069 250.604 223.642 250.604 224.281C250.604 224.962 250.472 225.566 250.208 226.094C249.944 226.622 249.566 227.069 249.073 227.437C248.58 227.799 247.99 228.073 247.302 228.26C246.615 228.448 245.847 228.542 245 228.542C244.222 228.542 243.455 228.444 242.698 228.25C241.948 228.049 241.267 227.743 240.656 227.333C240.045 226.917 239.556 226.385 239.187 225.74C238.826 225.087 238.646 224.312 238.646 223.417H242.312C242.312 223.861 242.372 224.236 242.49 224.542C242.608 224.847 242.781 225.094 243.01 225.281C243.24 225.462 243.521 225.594 243.854 225.677C244.187 225.753 244.569 225.792 245 225.792C245.465 225.792 245.84 225.726 246.125 225.594C246.41 225.455 246.618 225.274 246.75 225.052C246.882 224.823 246.948 224.573 246.948 224.302Z" fill="white"/>
<rect x="337" y="194.333" width="212" height="53.3333" rx="6.66667" fill="#43B9C3"/>
<path d="M426 213.167V228.333H422.354L416.99 218.896V228.333H413.333V213.167H416.99L422.354 222.604V213.167H426ZM433.604 228.542C432.687 228.542 431.868 228.399 431.146 228.115C430.424 227.823 429.812 227.424 429.312 226.917C428.819 226.41 428.441 225.826 428.177 225.167C427.92 224.507 427.792 223.809 427.792 223.073V222.677C427.792 221.851 427.906 221.087 428.135 220.385C428.365 219.677 428.705 219.059 429.156 218.531C429.608 218.003 430.174 217.594 430.854 217.302C431.535 217.003 432.326 216.854 433.229 216.854C434.028 216.854 434.743 216.983 435.375 217.24C436.007 217.497 436.542 217.865 436.979 218.344C437.424 218.823 437.76 219.403 437.99 220.083C438.226 220.764 438.344 221.528 438.344 222.375V223.802H429.135V221.604H434.917V221.333C434.924 220.958 434.858 220.639 434.719 220.375C434.587 220.111 434.392 219.91 434.135 219.771C433.878 219.632 433.566 219.562 433.198 219.562C432.816 219.562 432.5 219.646 432.25 219.812C432.007 219.979 431.816 220.208 431.677 220.5C431.545 220.785 431.451 221.115 431.396 221.49C431.34 221.865 431.312 222.26 431.312 222.677V223.073C431.312 223.49 431.368 223.868 431.479 224.208C431.597 224.549 431.764 224.84 431.979 225.083C432.201 225.319 432.465 225.503 432.771 225.635C433.083 225.767 433.437 225.833 433.833 225.833C434.312 225.833 434.785 225.743 435.25 225.562C435.715 225.382 436.115 225.083 436.448 224.667L438.042 226.562C437.812 226.889 437.486 227.205 437.062 227.51C436.646 227.816 436.146 228.066 435.562 228.26C434.979 228.448 434.326 228.542 433.604 228.542ZM442.75 217.062L444.333 220.167L445.969 217.062H449.615L446.656 222.552L449.771 228.333H446.094L444.333 225L442.583 228.333H438.906L442.021 222.552L439.073 217.062H442.75ZM456.708 217.062V219.5H449.917V217.062H456.708ZM451.344 214.26H454.854V224.656C454.854 224.955 454.889 225.187 454.958 225.354C455.028 225.514 455.146 225.628 455.313 225.698C455.486 225.76 455.715 225.792 456 225.792C456.201 225.792 456.368 225.788 456.5 225.781C456.632 225.767 456.757 225.75 456.875 225.729V228.24C456.576 228.337 456.264 228.41 455.938 228.458C455.611 228.514 455.264 228.542 454.896 228.542C454.146 228.542 453.503 228.424 452.969 228.187C452.441 227.951 452.038 227.58 451.76 227.073C451.483 226.566 451.344 225.906 451.344 225.094V214.26ZM458.365 217.062H461.885V228.698C461.885 229.601 461.712 230.361 461.365 230.979C461.017 231.604 460.521 232.076 459.875 232.396C459.229 232.722 458.458 232.885 457.562 232.885C457.264 232.885 456.99 232.872 456.74 232.844C456.483 232.823 456.201 232.778 455.896 232.708V230.052C456.076 230.08 456.243 230.101 456.396 230.115C456.549 230.135 456.715 230.146 456.896 230.146C457.215 230.146 457.483 230.094 457.698 229.99C457.913 229.885 458.076 229.726 458.187 229.51C458.306 229.295 458.365 229.024 458.365 228.698V217.062ZM458.104 214.156C458.104 213.656 458.285 213.247 458.646 212.927C459.007 212.608 459.476 212.448 460.052 212.448C460.628 212.448 461.097 212.608 461.458 212.927C461.819 213.247 462 213.656 462 214.156C462 214.656 461.819 215.066 461.458 215.385C461.097 215.705 460.628 215.865 460.052 215.865C459.476 215.865 459.007 215.705 458.646 215.385C458.285 215.066 458.104 214.656 458.104 214.156ZM469.781 225.167C469.781 224.972 469.715 224.806 469.583 224.667C469.458 224.521 469.236 224.389 468.917 224.271C468.597 224.146 468.149 224.021 467.573 223.896C467.024 223.778 466.507 223.622 466.021 223.427C465.542 223.233 465.122 222.997 464.76 222.719C464.399 222.441 464.115 222.111 463.906 221.729C463.705 221.347 463.604 220.91 463.604 220.417C463.604 219.937 463.705 219.486 463.906 219.062C464.115 218.632 464.417 218.253 464.812 217.927C465.215 217.594 465.705 217.333 466.281 217.146C466.858 216.951 467.514 216.854 468.25 216.854C469.264 216.854 470.139 217.01 470.875 217.323C471.611 217.628 472.177 218.059 472.573 218.615C472.976 219.163 473.177 219.799 473.177 220.521H469.667C469.667 220.236 469.618 219.993 469.521 219.792C469.431 219.59 469.281 219.437 469.073 219.333C468.865 219.222 468.587 219.167 468.24 219.167C467.997 219.167 467.774 219.212 467.573 219.302C467.378 219.392 467.222 219.517 467.104 219.677C466.986 219.837 466.927 220.024 466.927 220.24C466.927 220.392 466.962 220.531 467.031 220.656C467.108 220.774 467.222 220.885 467.375 220.99C467.528 221.087 467.722 221.177 467.958 221.26C468.194 221.337 468.479 221.406 468.812 221.469C469.569 221.608 470.278 221.806 470.937 222.062C471.597 222.319 472.132 222.684 472.542 223.156C472.958 223.628 473.167 224.264 473.167 225.062C473.167 225.562 473.052 226.024 472.823 226.448C472.594 226.865 472.264 227.233 471.833 227.552C471.403 227.865 470.885 228.108 470.281 228.281C469.677 228.455 468.997 228.542 468.24 228.542C467.163 228.542 466.253 228.351 465.51 227.969C464.767 227.58 464.205 227.094 463.823 226.51C463.448 225.92 463.26 225.323 463.26 224.719H466.531C466.545 225.066 466.628 225.351 466.781 225.573C466.941 225.795 467.153 225.958 467.417 226.062C467.681 226.167 467.986 226.219 468.333 226.219C468.653 226.219 468.917 226.174 469.125 226.083C469.34 225.993 469.503 225.872 469.615 225.719C469.726 225.559 469.781 225.375 469.781 225.167Z" fill="white"/>
<rect x="569" y="194.333" width="212" height="53.3333" rx="6.66667" fill="#43B9C3"/>
<path d="M650.771 220.229V226.458C650.514 226.743 650.118 227.049 649.583 227.375C649.056 227.694 648.389 227.969 647.583 228.198C646.778 228.427 645.83 228.542 644.74 228.542C643.733 228.542 642.819 228.382 642 228.062C641.181 227.736 640.476 227.26 639.885 226.635C639.302 226.003 638.851 225.233 638.531 224.323C638.219 223.406 638.062 222.358 638.062 221.177V220.333C638.062 219.153 638.222 218.104 638.542 217.187C638.861 216.271 639.309 215.5 639.885 214.875C640.469 214.243 641.153 213.764 641.937 213.437C642.729 213.111 643.597 212.948 644.542 212.948C645.937 212.948 647.073 213.17 647.948 213.615C648.823 214.052 649.486 214.66 649.937 215.437C650.389 216.208 650.663 217.101 650.76 218.115H647.25C647.181 217.615 647.049 217.191 646.854 216.844C646.667 216.49 646.396 216.222 646.042 216.042C645.687 215.854 645.229 215.76 644.667 215.76C644.229 215.76 643.83 215.854 643.469 216.042C643.115 216.229 642.812 216.514 642.562 216.896C642.312 217.271 642.118 217.743 641.979 218.312C641.847 218.882 641.781 219.549 641.781 220.312V221.177C641.781 221.934 641.844 222.597 641.969 223.167C642.101 223.736 642.295 224.212 642.552 224.594C642.816 224.969 643.149 225.253 643.552 225.448C643.962 225.635 644.444 225.729 645 225.729C645.389 225.729 645.722 225.698 646 225.635C646.278 225.566 646.507 225.483 646.687 225.385C646.875 225.281 647.017 225.184 647.115 225.094V222.74H644.573V220.229H650.771ZM656.281 219.854V228.333H652.771V217.062H656.052L656.281 219.854ZM659.615 216.979L659.552 220.24C659.413 220.226 659.226 220.208 658.99 220.187C658.753 220.167 658.556 220.156 658.396 220.156C657.986 220.156 657.632 220.205 657.333 220.302C657.042 220.392 656.799 220.531 656.604 220.719C656.417 220.899 656.278 221.128 656.187 221.406C656.104 221.684 656.066 222.007 656.073 222.375L655.437 221.958C655.437 221.201 655.51 220.514 655.656 219.896C655.809 219.271 656.024 218.733 656.302 218.281C656.58 217.823 656.917 217.472 657.312 217.229C657.708 216.979 658.153 216.854 658.646 216.854C658.819 216.854 658.99 216.865 659.156 216.885C659.33 216.906 659.483 216.937 659.615 216.979ZM666.365 225.5V220.854C666.365 220.535 666.319 220.26 666.229 220.031C666.139 219.802 665.997 219.625 665.802 219.5C665.608 219.368 665.347 219.302 665.021 219.302C664.757 219.302 664.531 219.347 664.344 219.437C664.156 219.528 664.014 219.663 663.917 219.844C663.819 220.024 663.771 220.253 663.771 220.531H660.26C660.26 220.01 660.375 219.528 660.604 219.083C660.84 218.632 661.174 218.24 661.604 217.906C662.042 217.573 662.562 217.316 663.167 217.135C663.778 216.948 664.458 216.854 665.208 216.854C666.104 216.854 666.903 217.003 667.604 217.302C668.312 217.601 668.872 218.049 669.281 218.646C669.691 219.236 669.896 219.979 669.896 220.875V225.49C669.896 226.226 669.937 226.785 670.021 227.167C670.104 227.542 670.222 227.872 670.375 228.156V228.333H666.854C666.687 227.986 666.562 227.562 666.479 227.062C666.403 226.556 666.365 226.035 666.365 225.5ZM666.792 221.448L666.812 223.323H665.26C664.934 223.323 664.656 223.368 664.427 223.458C664.205 223.549 664.024 223.674 663.885 223.833C663.753 223.986 663.656 224.16 663.594 224.354C663.538 224.549 663.51 224.753 663.51 224.969C663.51 225.177 663.559 225.365 663.656 225.531C663.76 225.691 663.899 225.816 664.073 225.906C664.247 225.997 664.441 226.042 664.656 226.042C665.045 226.042 665.375 225.969 665.646 225.823C665.924 225.67 666.135 225.486 666.281 225.271C666.427 225.056 666.5 224.854 666.5 224.667L667.271 226.104C667.132 226.382 666.972 226.663 666.792 226.948C666.618 227.233 666.399 227.497 666.135 227.74C665.878 227.976 665.562 228.17 665.187 228.323C664.812 228.469 664.358 228.542 663.823 228.542C663.128 228.542 662.49 228.399 661.906 228.115C661.33 227.83 660.868 227.434 660.521 226.927C660.174 226.413 660 225.823 660 225.156C660 224.573 660.104 224.052 660.312 223.594C660.528 223.135 660.851 222.747 661.281 222.427C661.712 222.108 662.26 221.865 662.927 221.698C663.594 221.531 664.378 221.448 665.281 221.448H666.792ZM675.385 219.229V232.667H671.875V217.062H675.146L675.385 219.229ZM682.302 222.562V222.781C682.302 223.601 682.208 224.361 682.021 225.062C681.833 225.764 681.556 226.375 681.187 226.896C680.819 227.417 680.361 227.823 679.812 228.115C679.271 228.399 678.642 228.542 677.927 228.542C677.253 228.542 676.674 228.392 676.187 228.094C675.701 227.795 675.295 227.382 674.969 226.854C674.642 226.326 674.378 225.722 674.177 225.042C673.976 224.361 673.816 223.642 673.698 222.885V222.604C673.816 221.792 673.976 221.038 674.177 220.344C674.378 219.642 674.642 219.031 674.969 218.51C675.295 217.99 675.698 217.583 676.177 217.292C676.663 217 677.243 216.854 677.917 216.854C678.632 216.854 679.26 216.99 679.802 217.26C680.351 217.531 680.809 217.92 681.177 218.427C681.552 218.927 681.833 219.528 682.021 220.229C682.208 220.931 682.302 221.708 682.302 222.562ZM678.792 222.781V222.562C678.792 222.125 678.76 221.726 678.698 221.365C678.635 220.997 678.535 220.677 678.396 220.406C678.264 220.135 678.087 219.927 677.865 219.781C677.642 219.635 677.368 219.562 677.042 219.562C676.667 219.562 676.351 219.622 676.094 219.74C675.844 219.851 675.642 220.024 675.49 220.26C675.344 220.49 675.24 220.778 675.177 221.125C675.122 221.465 675.097 221.865 675.104 222.323V223.177C675.09 223.705 675.142 224.17 675.26 224.573C675.378 224.969 675.583 225.278 675.875 225.5C676.167 225.722 676.562 225.833 677.062 225.833C677.396 225.833 677.674 225.757 677.896 225.604C678.118 225.444 678.295 225.226 678.427 224.948C678.559 224.663 678.653 224.337 678.708 223.969C678.764 223.601 678.792 223.205 678.792 222.781ZM687.302 212.333V228.333H683.792V212.333H687.302ZM686.885 222.312L686.063 222.333C686.063 221.542 686.16 220.812 686.354 220.146C686.549 219.479 686.826 218.899 687.188 218.406C687.549 217.913 687.983 217.531 688.49 217.26C688.997 216.99 689.559 216.854 690.177 216.854C690.733 216.854 691.24 216.934 691.698 217.094C692.163 217.253 692.563 217.51 692.896 217.865C693.236 218.219 693.497 218.681 693.677 219.25C693.865 219.819 693.958 220.514 693.958 221.333V228.333H690.427V221.312C690.427 220.854 690.361 220.5 690.229 220.25C690.104 219.993 689.924 219.816 689.688 219.719C689.451 219.615 689.163 219.562 688.823 219.562C688.413 219.562 688.08 219.632 687.823 219.771C687.566 219.91 687.368 220.104 687.229 220.354C687.097 220.597 687.007 220.885 686.958 221.219C686.91 221.552 686.885 221.917 686.885 222.312ZM702.385 232.667V219.427L702.875 217.062H705.917V232.667H702.385ZM695.469 222.802V222.583C695.469 221.729 695.562 220.951 695.75 220.25C695.937 219.542 696.215 218.937 696.583 218.437C696.951 217.931 697.406 217.542 697.948 217.271C698.497 216.993 699.128 216.854 699.844 216.854C700.517 216.854 701.094 217 701.573 217.292C702.059 217.583 702.465 217.993 702.792 218.521C703.118 219.042 703.382 219.653 703.583 220.354C703.792 221.056 703.955 221.812 704.073 222.625V222.885C703.955 223.649 703.792 224.372 703.583 225.052C703.382 225.733 703.118 226.337 702.792 226.865C702.465 227.385 702.059 227.795 701.573 228.094C701.087 228.392 700.503 228.542 699.823 228.542C699.115 228.542 698.49 228.399 697.948 228.115C697.406 227.823 696.951 227.42 696.583 226.906C696.215 226.385 695.937 225.778 695.75 225.083C695.562 224.382 695.469 223.622 695.469 222.802ZM698.979 222.583V222.802C698.979 223.226 699.007 223.622 699.062 223.99C699.118 224.351 699.212 224.67 699.344 224.948C699.483 225.226 699.663 225.444 699.885 225.604C700.108 225.757 700.385 225.833 700.719 225.833C701.226 225.833 701.625 225.722 701.917 225.5C702.208 225.278 702.413 224.969 702.531 224.573C702.649 224.17 702.698 223.701 702.677 223.167V222.344C702.684 221.885 702.656 221.483 702.594 221.135C702.531 220.788 702.424 220.5 702.271 220.271C702.125 220.035 701.927 219.858 701.677 219.74C701.427 219.622 701.115 219.562 700.74 219.562C700.413 219.562 700.135 219.639 699.906 219.792C699.684 219.937 699.503 220.146 699.365 220.417C699.233 220.687 699.135 221.007 699.073 221.375C699.01 221.743 698.979 222.146 698.979 222.583ZM711.615 212.333V228.333H708.094V212.333H711.615Z" fill="white"/>
<rect x="801" y="194.333" width="212" height="53.3333" rx="6.66667" fill="#43B9C3"/>
<path d="M892.448 213.167V228.333H888.802L883.438 218.896V228.333H879.781V213.167H883.438L888.802 222.604V213.167H892.448ZM900.052 228.542C899.135 228.542 898.316 228.399 897.594 228.115C896.872 227.823 896.26 227.424 895.76 226.917C895.267 226.41 894.889 225.826 894.625 225.167C894.368 224.507 894.24 223.809 894.24 223.073V222.677C894.24 221.851 894.354 221.087 894.583 220.385C894.812 219.677 895.153 219.059 895.604 218.531C896.056 218.003 896.622 217.594 897.302 217.302C897.983 217.003 898.774 216.854 899.677 216.854C900.476 216.854 901.191 216.983 901.823 217.24C902.455 217.497 902.99 217.865 903.427 218.344C903.872 218.823 904.208 219.403 904.437 220.083C904.674 220.764 904.792 221.528 904.792 222.375V223.802H895.583V221.604H901.365V221.333C901.372 220.958 901.306 220.639 901.167 220.375C901.035 220.111 900.84 219.91 900.583 219.771C900.326 219.632 900.014 219.562 899.646 219.562C899.264 219.562 898.948 219.646 898.698 219.812C898.455 219.979 898.264 220.208 898.125 220.5C897.993 220.785 897.899 221.115 897.844 221.49C897.788 221.865 897.76 222.26 897.76 222.677V223.073C897.76 223.49 897.816 223.868 897.927 224.208C898.045 224.549 898.212 224.84 898.427 225.083C898.649 225.319 898.913 225.503 899.219 225.635C899.531 225.767 899.885 225.833 900.281 225.833C900.76 225.833 901.233 225.743 901.698 225.562C902.163 225.382 902.562 225.083 902.896 224.667L904.49 226.562C904.26 226.889 903.934 227.205 903.51 227.51C903.094 227.816 902.594 228.066 902.01 228.26C901.427 228.448 900.774 228.542 900.052 228.542ZM905.781 222.812V222.594C905.781 221.767 905.899 221.007 906.135 220.312C906.372 219.611 906.719 219.003 907.177 218.49C907.635 217.976 908.201 217.576 908.875 217.292C909.549 217 910.326 216.854 911.208 216.854C912.097 216.854 912.878 217 913.552 217.292C914.233 217.576 914.802 217.976 915.26 218.49C915.719 219.003 916.066 219.611 916.302 220.312C916.538 221.007 916.656 221.767 916.656 222.594V222.812C916.656 223.632 916.538 224.392 916.302 225.094C916.066 225.788 915.719 226.396 915.26 226.917C914.802 227.431 914.236 227.83 913.563 228.115C912.889 228.399 912.111 228.542 911.229 228.542C910.347 228.542 909.566 228.399 908.885 228.115C908.205 227.83 907.635 227.431 907.177 226.917C906.719 226.396 906.372 225.788 906.135 225.094C905.899 224.392 905.781 223.632 905.781 222.812ZM909.292 222.594V222.812C909.292 223.236 909.323 223.632 909.385 224C909.448 224.368 909.552 224.691 909.698 224.969C909.844 225.24 910.042 225.451 910.292 225.604C910.542 225.757 910.854 225.833 911.229 225.833C911.597 225.833 911.903 225.757 912.146 225.604C912.396 225.451 912.594 225.24 912.74 224.969C912.885 224.691 912.99 224.368 913.052 224C913.115 223.632 913.146 223.236 913.146 222.812V222.594C913.146 222.184 913.115 221.799 913.052 221.437C912.99 221.069 912.885 220.747 912.74 220.469C912.594 220.184 912.396 219.962 912.146 219.802C911.896 219.642 911.583 219.562 911.208 219.562C910.84 219.562 910.531 219.642 910.281 219.802C910.038 219.962 909.844 220.184 909.698 220.469C909.552 220.747 909.448 221.069 909.385 221.437C909.323 221.799 909.292 222.184 909.292 222.594ZM928.969 222.406V225.115H918.052L917.844 222.969L923.938 213.167H926.708L923.698 218.094L921.198 222.406H928.969ZM927.438 213.167V228.333H923.927V213.167H927.438ZM930.854 217.062H934.375V228.698C934.375 229.601 934.201 230.361 933.854 230.979C933.507 231.604 933.01 232.076 932.365 232.396C931.719 232.722 930.948 232.885 930.052 232.885C929.753 232.885 929.479 232.872 929.229 232.844C928.972 232.823 928.691 232.778 928.385 232.708V230.052C928.566 230.08 928.733 230.101 928.885 230.115C929.038 230.135 929.205 230.146 929.385 230.146C929.705 230.146 929.972 230.094 930.188 229.99C930.403 229.885 930.566 229.726 930.677 229.51C930.795 229.295 930.854 229.024 930.854 228.698V217.062ZM930.594 214.156C930.594 213.656 930.774 213.247 931.135 212.927C931.497 212.608 931.965 212.448 932.542 212.448C933.118 212.448 933.587 212.608 933.948 212.927C934.309 213.247 934.49 213.656 934.49 214.156C934.49 214.656 934.309 215.066 933.948 215.385C933.587 215.705 933.118 215.865 932.542 215.865C931.965 215.865 931.497 215.705 931.135 215.385C930.774 215.066 930.594 214.656 930.594 214.156Z" fill="white"/>
<rect x="1033" y="194.333" width="212" height="53.3333" rx="6.66667" fill="#43B9C3"/>
<path d="M1100.09 216.354L1096.4 228.333H1092.47L1098.04 213.167H1100.53L1100.09 216.354ZM1103.16 228.333L1099.45 216.354L1098.97 213.167H1101.49L1107.09 228.333H1103.16ZM1103.01 222.677V225.5H1095.23V222.677H1103.01ZM1111.58 219.854V228.333H1108.07V217.062H1111.35L1111.58 219.854ZM1114.92 216.979L1114.85 220.24C1114.72 220.226 1114.53 220.208 1114.29 220.187C1114.06 220.167 1113.86 220.156 1113.7 220.156C1113.29 220.156 1112.93 220.205 1112.64 220.302C1112.34 220.392 1112.1 220.531 1111.91 220.719C1111.72 220.899 1111.58 221.128 1111.49 221.406C1111.41 221.684 1111.37 222.007 1111.37 222.375L1110.74 221.958C1110.74 221.201 1110.81 220.514 1110.96 219.896C1111.11 219.271 1111.33 218.733 1111.6 218.281C1111.88 217.823 1112.22 217.472 1112.61 217.229C1113.01 216.979 1113.45 216.854 1113.95 216.854C1114.12 216.854 1114.29 216.865 1114.46 216.885C1114.63 216.906 1114.78 216.937 1114.92 216.979ZM1115.31 222.812V222.594C1115.31 221.767 1115.43 221.007 1115.67 220.312C1115.9 219.611 1116.25 219.003 1116.71 218.49C1117.17 217.976 1117.73 217.576 1118.41 217.292C1119.08 217 1119.86 216.854 1120.74 216.854C1121.63 216.854 1122.41 217 1123.08 217.292C1123.76 217.576 1124.33 217.976 1124.79 218.49C1125.25 219.003 1125.6 219.611 1125.83 220.312C1126.07 221.007 1126.19 221.767 1126.19 222.594V222.812C1126.19 223.632 1126.07 224.392 1125.83 225.094C1125.6 225.788 1125.25 226.396 1124.79 226.917C1124.33 227.431 1123.77 227.83 1123.09 228.115C1122.42 228.399 1121.64 228.542 1120.76 228.542C1119.88 228.542 1119.1 228.399 1118.42 228.115C1117.74 227.83 1117.17 227.431 1116.71 226.917C1116.25 226.396 1115.9 225.788 1115.67 225.094C1115.43 224.392 1115.31 223.632 1115.31 222.812ZM1118.82 222.594V222.812C1118.82 223.236 1118.85 223.632 1118.92 224C1118.98 224.368 1119.08 224.691 1119.23 224.969C1119.37 225.24 1119.57 225.451 1119.82 225.604C1120.07 225.757 1120.39 225.833 1120.76 225.833C1121.13 225.833 1121.43 225.757 1121.68 225.604C1121.93 225.451 1122.12 225.24 1122.27 224.969C1122.42 224.691 1122.52 224.368 1122.58 224C1122.65 223.632 1122.68 223.236 1122.68 222.812V222.594C1122.68 222.184 1122.65 221.799 1122.58 221.437C1122.52 221.069 1122.42 220.747 1122.27 220.469C1122.12 220.184 1121.93 219.962 1121.68 219.802C1121.43 219.642 1121.11 219.562 1120.74 219.562C1120.37 219.562 1120.06 219.642 1119.81 219.802C1119.57 219.962 1119.37 220.184 1119.23 220.469C1119.08 220.747 1118.98 221.069 1118.92 221.437C1118.85 221.799 1118.82 222.184 1118.82 222.594ZM1134.33 225.594V217.062H1137.85V228.333H1134.56L1134.33 225.594ZM1134.67 223.302L1135.58 223.281C1135.58 224.038 1135.49 224.74 1135.31 225.385C1135.13 226.024 1134.86 226.58 1134.51 227.052C1134.16 227.524 1133.73 227.892 1133.22 228.156C1132.71 228.413 1132.12 228.542 1131.46 228.542C1130.9 228.542 1130.39 228.465 1129.93 228.312C1129.47 228.153 1129.07 227.906 1128.74 227.573C1128.41 227.233 1128.15 226.799 1127.96 226.271C1127.78 225.736 1127.69 225.097 1127.69 224.354V217.062H1131.2V224.375C1131.2 224.625 1131.23 224.84 1131.29 225.021C1131.35 225.201 1131.44 225.354 1131.56 225.479C1131.68 225.597 1131.83 225.687 1132 225.75C1132.18 225.806 1132.39 225.833 1132.61 225.833C1133.14 225.833 1133.56 225.722 1133.85 225.5C1134.15 225.278 1134.36 224.976 1134.48 224.594C1134.6 224.212 1134.67 223.781 1134.67 223.302ZM1143.33 219.854V228.333H1139.82V217.062H1143.1L1143.33 219.854ZM1146.67 216.979L1146.6 220.24C1146.47 220.226 1146.28 220.208 1146.04 220.187C1145.81 220.167 1145.61 220.156 1145.45 220.156C1145.04 220.156 1144.68 220.205 1144.39 220.302C1144.09 220.392 1143.85 220.531 1143.66 220.719C1143.47 220.899 1143.33 221.128 1143.24 221.406C1143.16 221.684 1143.12 222.007 1143.12 222.375L1142.49 221.958C1142.49 221.201 1142.56 220.514 1142.71 219.896C1142.86 219.271 1143.08 218.733 1143.35 218.281C1143.63 217.823 1143.97 217.472 1144.36 217.229C1144.76 216.979 1145.2 216.854 1145.7 216.854C1145.87 216.854 1146.04 216.865 1146.21 216.885C1146.38 216.906 1146.53 216.937 1146.67 216.979ZM1153.42 225.5V220.854C1153.42 220.535 1153.37 220.26 1153.28 220.031C1153.19 219.802 1153.05 219.625 1152.85 219.5C1152.66 219.368 1152.4 219.302 1152.07 219.302C1151.81 219.302 1151.58 219.347 1151.4 219.437C1151.21 219.528 1151.07 219.663 1150.97 219.844C1150.87 220.024 1150.82 220.253 1150.82 220.531H1147.31C1147.31 220.01 1147.43 219.528 1147.66 219.083C1147.89 218.632 1148.23 218.24 1148.66 217.906C1149.09 217.573 1149.61 217.316 1150.22 217.135C1150.83 216.948 1151.51 216.854 1152.26 216.854C1153.16 216.854 1153.95 217.003 1154.66 217.302C1155.36 217.601 1155.92 218.049 1156.33 218.646C1156.74 219.236 1156.95 219.979 1156.95 220.875V225.49C1156.95 226.226 1156.99 226.785 1157.07 227.167C1157.16 227.542 1157.27 227.872 1157.43 228.156V228.333H1153.91C1153.74 227.986 1153.61 227.562 1153.53 227.062C1153.45 226.556 1153.42 226.035 1153.42 225.5ZM1153.84 221.448L1153.86 223.323H1152.31C1151.99 223.323 1151.71 223.368 1151.48 223.458C1151.26 223.549 1151.08 223.674 1150.94 223.833C1150.81 223.986 1150.71 224.16 1150.65 224.354C1150.59 224.549 1150.56 224.753 1150.56 224.969C1150.56 225.177 1150.61 225.365 1150.71 225.531C1150.81 225.691 1150.95 225.816 1151.12 225.906C1151.3 225.997 1151.49 226.042 1151.71 226.042C1152.1 226.042 1152.43 225.969 1152.7 225.823C1152.98 225.67 1153.19 225.486 1153.33 225.271C1153.48 225.056 1153.55 224.854 1153.55 224.667L1154.32 226.104C1154.18 226.382 1154.02 226.663 1153.84 226.948C1153.67 227.233 1153.45 227.497 1153.19 227.74C1152.93 227.976 1152.61 228.17 1152.24 228.323C1151.86 228.469 1151.41 228.542 1150.87 228.542C1150.18 228.542 1149.54 228.399 1148.96 228.115C1148.38 227.83 1147.92 227.434 1147.57 226.927C1147.23 226.413 1147.05 225.823 1147.05 225.156C1147.05 224.573 1147.16 224.052 1147.36 223.594C1147.58 223.135 1147.9 222.747 1148.33 222.427C1148.76 222.108 1149.31 221.865 1149.98 221.698C1150.65 221.531 1151.43 221.448 1152.33 221.448H1153.84ZM1163.99 228.333H1160.63L1160.65 225.521H1163.99C1164.68 225.521 1165.27 225.354 1165.75 225.021C1166.24 224.687 1166.6 224.191 1166.85 223.531C1167.11 222.865 1167.24 222.045 1167.24 221.073V220.417C1167.24 219.687 1167.17 219.049 1167.02 218.5C1166.88 217.944 1166.67 217.483 1166.4 217.115C1166.12 216.74 1165.77 216.458 1165.35 216.271C1164.94 216.083 1164.47 215.99 1163.94 215.99H1160.56V213.167H1163.94C1164.97 213.167 1165.91 213.344 1166.76 213.698C1167.62 214.045 1168.36 214.545 1168.99 215.198C1169.62 215.844 1170.11 216.611 1170.45 217.5C1170.8 218.382 1170.97 219.361 1170.97 220.437V221.073C1170.97 222.142 1170.8 223.122 1170.45 224.01C1170.11 224.899 1169.63 225.667 1169 226.312C1168.38 226.958 1167.64 227.458 1166.78 227.812C1165.93 228.16 1165 228.333 1163.99 228.333ZM1162.72 213.167V228.333H1159.06V213.167H1162.72ZM1179.06 221.885H1175.16L1175.14 219.49H1178.3C1178.87 219.49 1179.33 219.427 1179.67 219.302C1180.01 219.17 1180.25 218.979 1180.41 218.729C1180.57 218.479 1180.65 218.167 1180.65 217.792C1180.65 217.361 1180.57 217.014 1180.41 216.75C1180.25 216.486 1179.99 216.295 1179.65 216.177C1179.31 216.052 1178.86 215.99 1178.32 215.99H1176.53V228.333H1172.88V213.167H1178.32C1179.26 213.167 1180.1 213.253 1180.83 213.427C1181.57 213.594 1182.19 213.851 1182.71 214.198C1183.23 214.545 1183.63 214.983 1183.9 215.51C1184.17 216.031 1184.3 216.646 1184.3 217.354C1184.3 217.972 1184.17 218.552 1183.91 219.094C1183.64 219.635 1183.2 220.076 1182.58 220.417C1181.97 220.75 1181.14 220.924 1180.07 220.937L1179.06 221.885ZM1178.92 228.333H1174.27L1175.52 225.521H1178.92C1179.42 225.521 1179.82 225.444 1180.11 225.292C1180.42 225.132 1180.64 224.924 1180.77 224.667C1180.91 224.403 1180.98 224.111 1180.98 223.792C1180.98 223.403 1180.91 223.066 1180.78 222.781C1180.66 222.497 1180.45 222.278 1180.18 222.125C1179.9 221.965 1179.53 221.885 1179.06 221.885H1175.99L1176.01 219.49H1179.69L1180.54 220.448C1181.56 220.406 1182.36 220.549 1182.95 220.875C1183.55 221.201 1183.97 221.632 1184.23 222.167C1184.49 222.701 1184.61 223.26 1184.61 223.844C1184.61 224.837 1184.4 225.667 1183.97 226.333C1183.55 227 1182.91 227.5 1182.06 227.833C1181.22 228.167 1180.17 228.333 1178.92 228.333Z" fill="white"/>
</svg>
