<svg width="1363" height="167" viewBox="0 0 1363 167" fill="none" xmlns="http://www.w3.org/2000/svg">
<g style="mix-blend-mode:exclusion">
<rect width="1363" height="167" rx="15" fill="white" fill-opacity="0.05"/>
</g>
<g style="mix-blend-mode:exclusion">
<path d="M0 15C0 6.71573 6.71573 0 15 0H37V167H15C6.71573 167 0 160.284 0 152V15Z" fill="white" fill-opacity="0.25"/>
</g>
<g style="mix-blend-mode:exclusion">
<path d="M100.906 54.9219L93.3945 52.2383V49.0859L103.602 53.375V55.6367L100.906 54.9219ZM93.3945 57.1719L100.918 54.4297L103.602 53.7852V56.0352L93.3945 60.3242V57.1719ZM116.012 59.293L119.41 44.9375H121.309L121.742 47.3281L118.121 62H116.082L116.012 59.293ZM114.266 44.9375L117.078 59.293L116.844 62H114.57L110.785 44.9375H114.266ZM124.73 59.2344L127.508 44.9375H130.988L127.215 62H124.941L124.73 59.2344ZM122.375 44.9375L125.797 59.3516L125.703 62H123.664L120.02 47.3164L120.488 44.9375H122.375ZM139.133 59.1406V53.4922C139.133 53.0859 139.066 52.7383 138.934 52.4492C138.801 52.1523 138.594 51.9219 138.312 51.7578C138.039 51.5938 137.684 51.5117 137.246 51.5117C136.871 51.5117 136.547 51.5781 136.273 51.7109C136 51.8359 135.789 52.0195 135.641 52.2617C135.492 52.4961 135.418 52.7734 135.418 53.0938H132.043C132.043 52.5547 132.168 52.043 132.418 51.5586C132.668 51.0742 133.031 50.6484 133.508 50.2812C133.984 49.9062 134.551 49.6133 135.207 49.4023C135.871 49.1914 136.613 49.0859 137.434 49.0859C138.418 49.0859 139.293 49.25 140.059 49.5781C140.824 49.9062 141.426 50.3984 141.863 51.0547C142.309 51.7109 142.531 52.5312 142.531 53.5156V58.9414C142.531 59.6367 142.574 60.207 142.66 60.6523C142.746 61.0898 142.871 61.4727 143.035 61.8008V62H139.625C139.461 61.6562 139.336 61.2266 139.25 60.7109C139.172 60.1875 139.133 59.6641 139.133 59.1406ZM139.578 54.2773L139.602 56.1875H137.715C137.27 56.1875 136.883 56.2383 136.555 56.3398C136.227 56.4414 135.957 56.5859 135.746 56.7734C135.535 56.9531 135.379 57.1641 135.277 57.4062C135.184 57.6484 135.137 57.9141 135.137 58.2031C135.137 58.4922 135.203 58.7539 135.336 58.9883C135.469 59.2148 135.66 59.3945 135.91 59.5273C136.16 59.6523 136.453 59.7148 136.789 59.7148C137.297 59.7148 137.738 59.6133 138.113 59.4102C138.488 59.207 138.777 58.957 138.98 58.6602C139.191 58.3633 139.301 58.082 139.309 57.8164L140.199 59.2461C140.074 59.5664 139.902 59.8984 139.684 60.2422C139.473 60.5859 139.203 60.9102 138.875 61.2148C138.547 61.5117 138.152 61.7578 137.691 61.9531C137.23 62.1406 136.684 62.2344 136.051 62.2344C135.246 62.2344 134.516 62.0742 133.859 61.7539C133.211 61.4258 132.695 60.9766 132.312 60.4062C131.938 59.8281 131.75 59.1719 131.75 58.4375C131.75 57.7734 131.875 57.1836 132.125 56.668C132.375 56.1523 132.742 55.7188 133.227 55.3672C133.719 55.0078 134.332 54.7383 135.066 54.5586C135.801 54.3711 136.652 54.2773 137.621 54.2773H139.578ZM151.344 49.3203V51.7109H143.961V49.3203H151.344ZM145.789 46.1914H149.164V58.1797C149.164 58.5469 149.211 58.8281 149.305 59.0234C149.406 59.2188 149.555 59.3555 149.75 59.4336C149.945 59.5039 150.191 59.5391 150.488 59.5391C150.699 59.5391 150.887 59.5312 151.051 59.5156C151.223 59.4922 151.367 59.4688 151.484 59.4453L151.496 61.9297C151.207 62.0234 150.895 62.0977 150.559 62.1523C150.223 62.207 149.852 62.2344 149.445 62.2344C148.703 62.2344 148.055 62.1133 147.5 61.8711C146.953 61.6211 146.531 61.2227 146.234 60.6758C145.938 60.1289 145.789 59.4102 145.789 58.5195V46.1914ZM159.102 62.2344C158.117 62.2344 157.234 62.0781 156.453 61.7656C155.672 61.4453 155.008 61.0039 154.461 60.4414C153.922 59.8789 153.508 59.2266 153.219 58.4844C152.93 57.7344 152.785 56.9375 152.785 56.0938V55.625C152.785 54.6641 152.922 53.7852 153.195 52.9883C153.469 52.1914 153.859 51.5 154.367 50.9141C154.883 50.3281 155.508 49.8789 156.242 49.5664C156.977 49.2461 157.805 49.0859 158.727 49.0859C159.625 49.0859 160.422 49.2344 161.117 49.5312C161.812 49.8281 162.395 50.25 162.863 50.7969C163.34 51.3438 163.699 52 163.941 52.7656C164.184 53.5234 164.305 54.3672 164.305 55.2969V56.7031H154.227V54.4531H160.988V54.1953C160.988 53.7266 160.902 53.3086 160.73 52.9414C160.566 52.5664 160.316 52.2695 159.98 52.0508C159.645 51.832 159.215 51.7227 158.691 51.7227C158.246 51.7227 157.863 51.8203 157.543 52.0156C157.223 52.2109 156.961 52.4844 156.758 52.8359C156.562 53.1875 156.414 53.6016 156.312 54.0781C156.219 54.5469 156.172 55.0625 156.172 55.625V56.0938C156.172 56.6016 156.242 57.0703 156.383 57.5C156.531 57.9297 156.738 58.3008 157.004 58.6133C157.277 58.9258 157.605 59.168 157.988 59.3398C158.379 59.5117 158.82 59.5977 159.312 59.5977C159.922 59.5977 160.488 59.4805 161.012 59.2461C161.543 59.0039 162 58.6406 162.383 58.1562L164.023 59.9375C163.758 60.3203 163.395 60.6875 162.934 61.0391C162.48 61.3906 161.934 61.6797 161.293 61.9062C160.652 62.125 159.922 62.2344 159.102 62.2344ZM169.602 52.0859V62H166.227V49.3203H169.402L169.602 52.0859ZM173.422 49.2383L173.363 52.3672C173.199 52.3438 173 52.3242 172.766 52.3086C172.539 52.2852 172.332 52.2734 172.145 52.2734C171.668 52.2734 171.254 52.3359 170.902 52.4609C170.559 52.5781 170.27 52.7539 170.035 52.9883C169.809 53.2227 169.637 53.5078 169.52 53.8438C169.41 54.1797 169.348 54.5625 169.332 54.9922L168.652 54.7812C168.652 53.9609 168.734 53.207 168.898 52.5195C169.062 51.8242 169.301 51.2188 169.613 50.7031C169.934 50.1875 170.324 49.7891 170.785 49.5078C171.246 49.2266 171.773 49.0859 172.367 49.0859C172.555 49.0859 172.746 49.1016 172.941 49.1328C173.137 49.1562 173.297 49.1914 173.422 49.2383ZM182.809 44.9375H185.785L190.168 57.4648L194.551 44.9375H197.527L191.363 62H188.973L182.809 44.9375ZM181.203 44.9375H184.168L184.707 57.1484V62H181.203V44.9375ZM196.168 44.9375H199.145V62H195.629V57.1484L196.168 44.9375ZM201.477 55.7891V55.543C201.477 54.6133 201.609 53.7578 201.875 52.9766C202.141 52.1875 202.527 51.5039 203.035 50.9258C203.543 50.3477 204.168 49.8984 204.91 49.5781C205.652 49.25 206.504 49.0859 207.465 49.0859C208.426 49.0859 209.281 49.25 210.031 49.5781C210.781 49.8984 211.41 50.3477 211.918 50.9258C212.434 51.5039 212.824 52.1875 213.09 52.9766C213.355 53.7578 213.488 54.6133 213.488 55.543V55.7891C213.488 56.7109 213.355 57.5664 213.09 58.3555C212.824 59.1367 212.434 59.8203 211.918 60.4062C211.41 60.9844 210.785 61.4336 210.043 61.7539C209.301 62.0742 208.449 62.2344 207.488 62.2344C206.527 62.2344 205.672 62.0742 204.922 61.7539C204.18 61.4336 203.551 60.9844 203.035 60.4062C202.527 59.8203 202.141 59.1367 201.875 58.3555C201.609 57.5664 201.477 56.7109 201.477 55.7891ZM204.852 55.543V55.7891C204.852 56.3203 204.898 56.8164 204.992 57.2773C205.086 57.7383 205.234 58.1445 205.438 58.4961C205.648 58.8398 205.922 59.1094 206.258 59.3047C206.594 59.5 207.004 59.5977 207.488 59.5977C207.957 59.5977 208.359 59.5 208.695 59.3047C209.031 59.1094 209.301 58.8398 209.504 58.4961C209.707 58.1445 209.855 57.7383 209.949 57.2773C210.051 56.8164 210.102 56.3203 210.102 55.7891V55.543C210.102 55.0273 210.051 54.543 209.949 54.0898C209.855 53.6289 209.703 53.2227 209.492 52.8711C209.289 52.5117 209.02 52.2305 208.684 52.0273C208.348 51.8242 207.941 51.7227 207.465 51.7227C206.988 51.7227 206.582 51.8242 206.246 52.0273C205.918 52.2305 205.648 52.5117 205.438 52.8711C205.234 53.2227 205.086 53.6289 204.992 54.0898C204.898 54.543 204.852 55.0273 204.852 55.543ZM218.867 52.0273V62H215.492V49.3203H218.656L218.867 52.0273ZM218.375 55.2148H217.461C217.461 54.2773 217.582 53.4336 217.824 52.6836C218.066 51.9258 218.406 51.2812 218.844 50.75C219.281 50.2109 219.801 49.8008 220.402 49.5195C221.012 49.2305 221.691 49.0859 222.441 49.0859C223.035 49.0859 223.578 49.1719 224.07 49.3438C224.562 49.5156 224.984 49.7891 225.336 50.1641C225.695 50.5391 225.969 51.0352 226.156 51.6523C226.352 52.2695 226.449 53.0234 226.449 53.9141V62H223.051V53.9023C223.051 53.3398 222.973 52.9023 222.816 52.5898C222.66 52.2773 222.43 52.0586 222.125 51.9336C221.828 51.8008 221.461 51.7344 221.023 51.7344C220.57 51.7344 220.176 51.8242 219.84 52.0039C219.512 52.1836 219.238 52.4336 219.02 52.7539C218.809 53.0664 218.648 53.4336 218.539 53.8555C218.43 54.2773 218.375 54.7305 218.375 55.2148ZM235.871 58.4961C235.871 58.2539 235.801 58.0352 235.66 57.8398C235.52 57.6445 235.258 57.4648 234.875 57.3008C234.5 57.1289 233.957 56.9727 233.246 56.832C232.605 56.6914 232.008 56.5156 231.453 56.3047C230.906 56.0859 230.43 55.8242 230.023 55.5195C229.625 55.2148 229.312 54.8555 229.086 54.4414C228.859 54.0195 228.746 53.5391 228.746 53C228.746 52.4688 228.859 51.9688 229.086 51.5C229.32 51.0312 229.652 50.6172 230.082 50.2578C230.52 49.8906 231.051 49.6055 231.676 49.4023C232.309 49.1914 233.02 49.0859 233.809 49.0859C234.91 49.0859 235.855 49.2617 236.645 49.6133C237.441 49.9648 238.051 50.4492 238.473 51.0664C238.902 51.6758 239.117 52.3711 239.117 53.1523H235.742C235.742 52.8242 235.672 52.5312 235.531 52.2734C235.398 52.0078 235.188 51.8008 234.898 51.6523C234.617 51.4961 234.25 51.418 233.797 51.418C233.422 51.418 233.098 51.4844 232.824 51.6172C232.551 51.7422 232.34 51.9141 232.191 52.1328C232.051 52.3438 231.98 52.5781 231.98 52.8359C231.98 53.0312 232.02 53.207 232.098 53.3633C232.184 53.5117 232.32 53.6484 232.508 53.7734C232.695 53.8984 232.938 54.0156 233.234 54.125C233.539 54.2266 233.914 54.3203 234.359 54.4062C235.273 54.5938 236.09 54.8398 236.809 55.1445C237.527 55.4414 238.098 55.8477 238.52 56.3633C238.941 56.8711 239.152 57.5391 239.152 58.3672C239.152 58.9297 239.027 59.4453 238.777 59.9141C238.527 60.3828 238.168 60.793 237.699 61.1445C237.23 61.4883 236.668 61.7578 236.012 61.9531C235.363 62.1406 234.633 62.2344 233.82 62.2344C232.641 62.2344 231.641 62.0234 230.82 61.6016C230.008 61.1797 229.391 60.6445 228.969 59.9961C228.555 59.3398 228.348 58.668 228.348 57.9805H231.547C231.562 58.4414 231.68 58.8125 231.898 59.0938C232.125 59.375 232.41 59.5781 232.754 59.7031C233.105 59.8281 233.484 59.8906 233.891 59.8906C234.328 59.8906 234.691 59.832 234.98 59.7148C235.27 59.5898 235.488 59.4258 235.637 59.2227C235.793 59.0117 235.871 58.7695 235.871 58.4961ZM247.555 49.3203V51.7109H240.172V49.3203H247.555ZM242 46.1914H245.375V58.1797C245.375 58.5469 245.422 58.8281 245.516 59.0234C245.617 59.2188 245.766 59.3555 245.961 59.4336C246.156 59.5039 246.402 59.5391 246.699 59.5391C246.91 59.5391 247.098 59.5312 247.262 59.5156C247.434 59.4922 247.578 59.4688 247.695 59.4453L247.707 61.9297C247.418 62.0234 247.105 62.0977 246.77 62.1523C246.434 62.207 246.062 62.2344 245.656 62.2344C244.914 62.2344 244.266 62.1133 243.711 61.8711C243.164 61.6211 242.742 61.2227 242.445 60.6758C242.148 60.1289 242 59.4102 242 58.5195V46.1914ZM255.312 62.2344C254.328 62.2344 253.445 62.0781 252.664 61.7656C251.883 61.4453 251.219 61.0039 250.672 60.4414C250.133 59.8789 249.719 59.2266 249.43 58.4844C249.141 57.7344 248.996 56.9375 248.996 56.0938V55.625C248.996 54.6641 249.133 53.7852 249.406 52.9883C249.68 52.1914 250.07 51.5 250.578 50.9141C251.094 50.3281 251.719 49.8789 252.453 49.5664C253.188 49.2461 254.016 49.0859 254.938 49.0859C255.836 49.0859 256.633 49.2344 257.328 49.5312C258.023 49.8281 258.605 50.25 259.074 50.7969C259.551 51.3438 259.91 52 260.152 52.7656C260.395 53.5234 260.516 54.3672 260.516 55.2969V56.7031H250.438V54.4531H257.199V54.1953C257.199 53.7266 257.113 53.3086 256.941 52.9414C256.777 52.5664 256.527 52.2695 256.191 52.0508C255.855 51.832 255.426 51.7227 254.902 51.7227C254.457 51.7227 254.074 51.8203 253.754 52.0156C253.434 52.2109 253.172 52.4844 252.969 52.8359C252.773 53.1875 252.625 53.6016 252.523 54.0781C252.43 54.5469 252.383 55.0625 252.383 55.625V56.0938C252.383 56.6016 252.453 57.0703 252.594 57.5C252.742 57.9297 252.949 58.3008 253.215 58.6133C253.488 58.9258 253.816 59.168 254.199 59.3398C254.59 59.5117 255.031 59.5977 255.523 59.5977C256.133 59.5977 256.699 59.4805 257.223 59.2461C257.754 59.0039 258.211 58.6406 258.594 58.1562L260.234 59.9375C259.969 60.3203 259.605 60.6875 259.145 61.0391C258.691 61.3906 258.145 61.6797 257.504 61.9062C256.863 62.125 256.133 62.2344 255.312 62.2344ZM265.812 52.0859V62H262.438V49.3203H265.613L265.812 52.0859ZM269.633 49.2383L269.574 52.3672C269.41 52.3438 269.211 52.3242 268.977 52.3086C268.75 52.2852 268.543 52.2734 268.355 52.2734C267.879 52.2734 267.465 52.3359 267.113 52.4609C266.77 52.5781 266.48 52.7539 266.246 52.9883C266.02 53.2227 265.848 53.5078 265.73 53.8438C265.621 54.1797 265.559 54.5625 265.543 54.9922L264.863 54.7812C264.863 53.9609 264.945 53.207 265.109 52.5195C265.273 51.8242 265.512 51.2188 265.824 50.7031C266.145 50.1875 266.535 49.7891 266.996 49.5078C267.457 49.2266 267.984 49.0859 268.578 49.0859C268.766 49.0859 268.957 49.1016 269.152 49.1328C269.348 49.1562 269.508 49.1914 269.633 49.2383Z" fill="white" fill-opacity="0.5"/>
</g>
<g style="mix-blend-mode:exclusion">
<path d="M107.205 107.146H99.251V101.191H107.205C108.289 101.191 109.168 101.008 109.842 100.642C110.516 100.275 111.006 99.77 111.314 99.1255C111.636 98.4663 111.797 97.7266 111.797 96.9062C111.797 96.0273 111.636 95.2144 111.314 94.4673C111.006 93.7202 110.516 93.1196 109.842 92.6655C109.168 92.1968 108.289 91.9624 107.205 91.9624H102.151V118H94.439V86.0078H107.205C109.769 86.0078 111.973 86.4766 113.819 87.4141C115.679 88.3516 117.107 89.6406 118.104 91.2812C119.1 92.9072 119.598 94.7676 119.598 96.8623C119.598 98.9277 119.1 100.729 118.104 102.268C117.107 103.806 115.679 105.007 113.819 105.871C111.973 106.721 109.769 107.146 107.205 107.146ZM130.87 100.114V118H123.465V94.2256H130.386L130.87 100.114ZM137.901 94.0498L137.769 100.927C137.476 100.898 137.081 100.861 136.583 100.817C136.084 100.773 135.667 100.751 135.33 100.751C134.466 100.751 133.719 100.854 133.089 101.059C132.474 101.25 131.961 101.542 131.551 101.938C131.155 102.319 130.862 102.802 130.672 103.388C130.496 103.974 130.416 104.655 130.43 105.432L129.09 104.553C129.09 102.956 129.244 101.506 129.551 100.202C129.874 98.8838 130.328 97.7485 130.914 96.7964C131.5 95.8296 132.21 95.0898 133.045 94.5771C133.88 94.0498 134.817 93.7861 135.857 93.7861C136.224 93.7861 136.583 93.8081 136.934 93.8521C137.3 93.896 137.623 93.9619 137.901 94.0498ZM138.736 106.354V105.893C138.736 104.15 138.985 102.546 139.483 101.081C139.981 99.6016 140.713 98.3198 141.68 97.2358C142.647 96.1519 143.841 95.3096 145.262 94.709C146.683 94.0938 148.323 93.7861 150.184 93.7861C152.059 93.7861 153.707 94.0938 155.127 94.709C156.563 95.3096 157.764 96.1519 158.731 97.2358C159.698 98.3198 160.43 99.6016 160.928 101.081C161.426 102.546 161.675 104.15 161.675 105.893V106.354C161.675 108.083 161.426 109.687 160.928 111.167C160.43 112.631 159.698 113.913 158.731 115.012C157.764 116.096 156.57 116.938 155.149 117.539C153.729 118.139 152.088 118.439 150.228 118.439C148.367 118.439 146.719 118.139 145.284 117.539C143.848 116.938 142.647 116.096 141.68 115.012C140.713 113.913 139.981 112.631 139.483 111.167C138.985 109.687 138.736 108.083 138.736 106.354ZM146.141 105.893V106.354C146.141 107.248 146.207 108.083 146.338 108.859C146.47 109.636 146.69 110.317 146.998 110.903C147.305 111.474 147.723 111.921 148.25 112.243C148.777 112.565 149.437 112.727 150.228 112.727C151.004 112.727 151.648 112.565 152.161 112.243C152.688 111.921 153.106 111.474 153.414 110.903C153.721 110.317 153.941 109.636 154.073 108.859C154.205 108.083 154.271 107.248 154.271 106.354V105.893C154.271 105.029 154.205 104.216 154.073 103.454C153.941 102.678 153.721 101.997 153.414 101.411C153.106 100.81 152.688 100.341 152.161 100.004C151.634 99.6675 150.975 99.499 150.184 99.499C149.407 99.499 148.755 99.6675 148.228 100.004C147.715 100.341 147.305 100.81 146.998 101.411C146.69 101.997 146.47 102.678 146.338 103.454C146.207 104.216 146.141 105.029 146.141 105.893ZM177.496 94.2256V99.3672H163.169V94.2256H177.496ZM166.18 88.3149H173.584V110.244C173.584 110.874 173.658 111.364 173.804 111.716C173.951 112.053 174.2 112.294 174.551 112.441C174.917 112.573 175.401 112.639 176.001 112.639C176.426 112.639 176.778 112.631 177.056 112.617C177.334 112.587 177.598 112.551 177.847 112.507V117.802C177.217 118.007 176.558 118.161 175.87 118.264C175.181 118.381 174.449 118.439 173.672 118.439C172.09 118.439 170.735 118.19 169.607 117.692C168.494 117.194 167.645 116.411 167.059 115.341C166.473 114.272 166.18 112.88 166.18 111.167V88.3149ZM178.858 106.354V105.893C178.858 104.15 179.107 102.546 179.605 101.081C180.103 99.6016 180.835 98.3198 181.802 97.2358C182.769 96.1519 183.963 95.3096 185.384 94.709C186.805 94.0938 188.445 93.7861 190.306 93.7861C192.181 93.7861 193.829 94.0938 195.25 94.709C196.685 95.3096 197.886 96.1519 198.853 97.2358C199.82 98.3198 200.552 99.6016 201.05 101.081C201.548 102.546 201.797 104.15 201.797 105.893V106.354C201.797 108.083 201.548 109.687 201.05 111.167C200.552 112.631 199.82 113.913 198.853 115.012C197.886 116.096 196.692 116.938 195.271 117.539C193.851 118.139 192.21 118.439 190.35 118.439C188.489 118.439 186.841 118.139 185.406 117.539C183.97 116.938 182.769 116.096 181.802 115.012C180.835 113.913 180.103 112.631 179.605 111.167C179.107 109.687 178.858 108.083 178.858 106.354ZM186.263 105.893V106.354C186.263 107.248 186.329 108.083 186.46 108.859C186.592 109.636 186.812 110.317 187.12 110.903C187.427 111.474 187.845 111.921 188.372 112.243C188.899 112.565 189.559 112.727 190.35 112.727C191.126 112.727 191.771 112.565 192.283 112.243C192.811 111.921 193.228 111.474 193.536 110.903C193.843 110.317 194.063 109.636 194.195 108.859C194.327 108.083 194.393 107.248 194.393 106.354V105.893C194.393 105.029 194.327 104.216 194.195 103.454C194.063 102.678 193.843 101.997 193.536 101.411C193.228 100.81 192.811 100.341 192.283 100.004C191.756 99.6675 191.097 99.499 190.306 99.499C189.529 99.499 188.877 99.6675 188.35 100.004C187.837 100.341 187.427 100.81 187.12 101.411C186.812 101.997 186.592 102.678 186.46 103.454C186.329 104.216 186.263 105.029 186.263 105.893ZM217.618 94.2256V99.3672H203.292V94.2256H217.618ZM206.302 88.3149H213.707V110.244C213.707 110.874 213.78 111.364 213.926 111.716C214.073 112.053 214.322 112.294 214.673 112.441C215.04 112.573 215.523 112.639 216.124 112.639C216.548 112.639 216.9 112.631 217.178 112.617C217.457 112.587 217.72 112.551 217.969 112.507V117.802C217.339 118.007 216.68 118.161 215.992 118.264C215.303 118.381 214.571 118.439 213.794 118.439C212.212 118.439 210.857 118.19 209.729 117.692C208.616 117.194 207.767 116.411 207.181 115.341C206.595 114.272 206.302 112.88 206.302 111.167V88.3149ZM227.857 115.209L234.009 94.2256H241.963L232.405 121.538C232.2 122.138 231.929 122.783 231.592 123.471C231.255 124.174 230.794 124.841 230.208 125.471C229.622 126.101 228.868 126.613 227.945 127.009C227.037 127.404 225.909 127.602 224.561 127.602C223.843 127.602 223.316 127.565 222.979 127.492C222.657 127.434 222.159 127.324 221.485 127.163V121.867C221.675 121.867 221.836 121.867 221.968 121.867C222.115 121.867 222.276 121.867 222.452 121.867C223.243 121.867 223.873 121.787 224.341 121.625C224.825 121.464 225.191 121.23 225.44 120.922C225.704 120.615 225.909 120.241 226.055 119.802L227.857 115.209ZM226.297 94.2256L230.977 110.859L231.79 118.703H226.824L218.365 94.2256H226.297ZM251.368 98.7959V127.141H243.963V94.2256H250.862L251.368 98.7959ZM265.958 105.827V106.289C265.958 108.017 265.76 109.621 265.364 111.101C264.969 112.58 264.383 113.869 263.606 114.968C262.83 116.066 261.863 116.923 260.706 117.539C259.563 118.139 258.238 118.439 256.729 118.439C255.308 118.439 254.085 118.125 253.06 117.495C252.034 116.865 251.177 115.993 250.489 114.88C249.8 113.767 249.244 112.492 248.819 111.057C248.394 109.621 248.057 108.105 247.808 106.508V105.915C248.057 104.201 248.394 102.612 248.819 101.147C249.244 99.6675 249.8 98.3784 250.489 97.2798C251.177 96.1812 252.027 95.3242 253.038 94.709C254.063 94.0938 255.286 93.7861 256.707 93.7861C258.216 93.7861 259.542 94.0718 260.684 94.6431C261.841 95.2144 262.808 96.0347 263.584 97.104C264.375 98.1587 264.969 99.4258 265.364 100.905C265.76 102.385 265.958 104.025 265.958 105.827ZM258.553 106.289V105.827C258.553 104.904 258.487 104.062 258.355 103.3C258.223 102.524 258.011 101.85 257.718 101.279C257.439 100.708 257.066 100.268 256.597 99.9604C256.128 99.6528 255.55 99.499 254.861 99.499C254.07 99.499 253.404 99.6235 252.862 99.8726C252.334 100.107 251.91 100.473 251.587 100.971C251.28 101.455 251.06 102.062 250.928 102.795C250.811 103.513 250.76 104.355 250.774 105.322V107.124C250.745 108.237 250.855 109.218 251.104 110.068C251.353 110.903 251.785 111.555 252.4 112.023C253.016 112.492 253.851 112.727 254.905 112.727C255.608 112.727 256.194 112.565 256.663 112.243C257.132 111.906 257.505 111.445 257.784 110.859C258.062 110.258 258.26 109.57 258.377 108.793C258.494 108.017 258.553 107.182 258.553 106.289ZM277.076 94.2256V118H269.649V94.2256H277.076ZM269.209 88.0952C269.209 87.0405 269.59 86.1763 270.352 85.5024C271.114 84.8286 272.103 84.4917 273.318 84.4917C274.534 84.4917 275.523 84.8286 276.285 85.5024C277.046 86.1763 277.427 87.0405 277.427 88.0952C277.427 89.1499 277.046 90.0142 276.285 90.688C275.523 91.3618 274.534 91.6987 273.318 91.6987C272.103 91.6987 271.114 91.3618 270.352 90.688C269.59 90.0142 269.209 89.1499 269.209 88.0952ZM288.919 99.3013V118H281.514V94.2256H288.458L288.919 99.3013ZM288.04 105.3L286.304 105.344C286.304 103.527 286.524 101.909 286.963 100.488C287.403 99.0522 288.025 97.8364 288.831 96.8403C289.637 95.8442 290.596 95.0898 291.709 94.5771C292.837 94.0498 294.09 93.7861 295.467 93.7861C296.565 93.7861 297.569 93.9473 298.477 94.2695C299.4 94.5918 300.191 95.1118 300.85 95.8296C301.524 96.5474 302.037 97.4995 302.388 98.686C302.754 99.8579 302.938 101.308 302.938 103.037V118H295.489V103.015C295.489 102.062 295.357 101.337 295.093 100.839C294.83 100.327 294.449 99.9751 293.951 99.7847C293.453 99.5942 292.845 99.499 292.127 99.499C291.365 99.499 290.721 99.6455 290.193 99.9385C289.666 100.231 289.241 100.642 288.919 101.169C288.611 101.682 288.384 102.29 288.238 102.993C288.106 103.696 288.04 104.465 288.04 105.3ZM321.988 94.2256H328.711V117.077C328.711 119.274 328.206 121.135 327.195 122.658C326.185 124.196 324.771 125.361 322.955 126.152C321.153 126.958 319.043 127.36 316.626 127.36C315.557 127.36 314.466 127.221 313.353 126.943C312.239 126.679 311.199 126.284 310.232 125.756C309.266 125.229 308.453 124.577 307.793 123.801L310.892 119.45C311.492 120.124 312.247 120.695 313.155 121.164C314.063 121.647 315.132 121.889 316.363 121.889C317.432 121.889 318.326 121.699 319.043 121.318C319.776 120.937 320.333 120.38 320.713 119.648C321.094 118.93 321.285 118.059 321.285 117.033V99.8506L321.988 94.2256ZM306.189 106.398V105.937C306.189 104.135 306.409 102.495 306.849 101.015C307.303 99.521 307.947 98.2393 308.782 97.1699C309.632 96.0859 310.657 95.251 311.858 94.665C313.06 94.0791 314.415 93.7861 315.923 93.7861C317.549 93.7861 318.882 94.1011 319.922 94.731C320.977 95.3462 321.819 96.2104 322.449 97.3237C323.094 98.437 323.592 99.7407 323.943 101.235C324.31 102.714 324.617 104.311 324.866 106.025V106.574C324.617 108.186 324.273 109.709 323.833 111.145C323.409 112.565 322.852 113.825 322.164 114.924C321.475 116.022 320.611 116.887 319.571 117.517C318.545 118.132 317.315 118.439 315.879 118.439C314.385 118.439 313.038 118.139 311.836 117.539C310.65 116.938 309.632 116.096 308.782 115.012C307.947 113.928 307.303 112.653 306.849 111.188C306.409 109.724 306.189 108.127 306.189 106.398ZM313.594 105.937V106.398C313.594 107.292 313.675 108.12 313.836 108.881C314.012 109.643 314.275 110.317 314.627 110.903C314.979 111.474 315.411 111.921 315.923 112.243C316.451 112.565 317.066 112.727 317.769 112.727C318.838 112.727 319.703 112.5 320.362 112.045C321.021 111.591 321.497 110.947 321.79 110.112C322.083 109.277 322.208 108.295 322.164 107.167V105.432C322.193 104.465 322.127 103.615 321.966 102.883C321.805 102.136 321.548 101.513 321.197 101.015C320.86 100.517 320.406 100.144 319.834 99.8945C319.278 99.6309 318.604 99.499 317.813 99.499C317.125 99.499 316.517 99.6602 315.989 99.9824C315.462 100.305 315.022 100.759 314.671 101.345C314.319 101.916 314.048 102.597 313.858 103.388C313.682 104.165 313.594 105.014 313.594 105.937Z" fill="white"/>
</g>
<path d="M1363 15C1363 6.71573 1356.28 0 1348 0H1134V167H1348C1356.28 167 1363 160.284 1363 152V15Z" fill="#43B9C3"/>
<path fill-rule="evenodd" clip-rule="evenodd" d="M1203 49C1203 47.8954 1203.9 47 1205 47H1292.5C1293.6 47 1294.5 47.8954 1294.5 49V118.996C1294.5 120.101 1293.6 120.996 1292.5 120.996H1205C1203.9 120.996 1203 120.101 1203 118.996V49ZM1207 51V55.4945H1290.5V51H1207ZM1290.5 59.4945H1235.44V116.996H1290.5V59.4945ZM1231.44 116.996V59.4945H1207V116.996H1231.44Z" fill="white"/>
<path fill-rule="evenodd" clip-rule="evenodd" d="M1209.97 64.8004C1209.97 63.6958 1210.87 62.8004 1211.97 62.8004H1225.97C1227.08 62.8004 1227.97 63.6958 1227.97 64.8004V84.1956C1227.97 85.3001 1227.08 86.1956 1225.97 86.1956H1211.97C1210.87 86.1956 1209.97 85.3001 1209.97 84.1956V64.8004ZM1213.97 66.8004V82.1956H1223.97V66.8004H1213.97ZM1239.58 65.6964C1239.58 64.5918 1240.47 63.6964 1241.58 63.6964H1284.5C1285.61 63.6964 1286.5 64.5918 1286.5 65.6964V111.905C1286.5 113.01 1285.61 113.905 1284.5 113.905H1241.58C1240.47 113.905 1239.58 113.01 1239.58 111.905V65.6964ZM1243.58 67.6964V109.905H1282.5V67.6964H1243.58ZM1209.81 95.9363C1209.81 94.8317 1210.71 93.9363 1211.81 93.9363H1220.73C1221.84 93.9363 1222.73 94.8317 1222.73 95.9363C1222.73 97.0409 1221.84 97.9363 1220.73 97.9363H1211.81C1210.71 97.9363 1209.81 97.0409 1209.81 95.9363ZM1209.81 102.936C1209.81 101.832 1210.71 100.936 1211.81 100.936H1226.35C1227.46 100.936 1228.35 101.832 1228.35 102.936C1228.35 104.041 1227.46 104.936 1226.35 104.936H1211.81C1210.71 104.936 1209.81 104.041 1209.81 102.936ZM1209.81 109.936C1209.81 108.832 1210.71 107.936 1211.81 107.936H1220.73C1221.84 107.936 1222.73 108.832 1222.73 109.936C1222.73 111.041 1221.84 111.936 1220.73 111.936H1211.81C1210.71 111.936 1209.81 111.041 1209.81 109.936Z" fill="white"/>
</svg>
