<svg width="1363" height="167" viewBox="0 0 1363 167" fill="none" xmlns="http://www.w3.org/2000/svg">
<g style="mix-blend-mode:exclusion">
<rect width="1363" height="167" rx="15" fill="white" fill-opacity="0.05"/>
</g>
<g style="mix-blend-mode:exclusion">
<path d="M0 15C0 6.71573 6.71573 0 15 0H37V167H15C6.71573 167 0 160.284 0 152V15Z" fill="white" fill-opacity="0.25"/>
</g>
<g style="mix-blend-mode:exclusion">
<path d="M100.906 54.9219L93.3945 52.2383V49.0859L103.602 53.375V55.6367L100.906 54.9219ZM93.3945 57.1719L100.918 54.4297L103.602 53.7852V56.0352L93.3945 60.3242V57.1719ZM116.012 59.293L119.41 44.9375H121.309L121.742 47.3281L118.121 62H116.082L116.012 59.293ZM114.266 44.9375L117.078 59.293L116.844 62H114.57L110.785 44.9375H114.266ZM124.73 59.2344L127.508 44.9375H130.988L127.215 62H124.941L124.73 59.2344ZM122.375 44.9375L125.797 59.3516L125.703 62H123.664L120.02 47.3164L120.488 44.9375H122.375ZM139.133 59.1406V53.4922C139.133 53.0859 139.066 52.7383 138.934 52.4492C138.801 52.1523 138.594 51.9219 138.312 51.7578C138.039 51.5938 137.684 51.5117 137.246 51.5117C136.871 51.5117 136.547 51.5781 136.273 51.7109C136 51.8359 135.789 52.0195 135.641 52.2617C135.492 52.4961 135.418 52.7734 135.418 53.0938H132.043C132.043 52.5547 132.168 52.043 132.418 51.5586C132.668 51.0742 133.031 50.6484 133.508 50.2812C133.984 49.9062 134.551 49.6133 135.207 49.4023C135.871 49.1914 136.613 49.0859 137.434 49.0859C138.418 49.0859 139.293 49.25 140.059 49.5781C140.824 49.9062 141.426 50.3984 141.863 51.0547C142.309 51.7109 142.531 52.5312 142.531 53.5156V58.9414C142.531 59.6367 142.574 60.207 142.66 60.6523C142.746 61.0898 142.871 61.4727 143.035 61.8008V62H139.625C139.461 61.6562 139.336 61.2266 139.25 60.7109C139.172 60.1875 139.133 59.6641 139.133 59.1406ZM139.578 54.2773L139.602 56.1875H137.715C137.27 56.1875 136.883 56.2383 136.555 56.3398C136.227 56.4414 135.957 56.5859 135.746 56.7734C135.535 56.9531 135.379 57.1641 135.277 57.4062C135.184 57.6484 135.137 57.9141 135.137 58.2031C135.137 58.4922 135.203 58.7539 135.336 58.9883C135.469 59.2148 135.66 59.3945 135.91 59.5273C136.16 59.6523 136.453 59.7148 136.789 59.7148C137.297 59.7148 137.738 59.6133 138.113 59.4102C138.488 59.207 138.777 58.957 138.98 58.6602C139.191 58.3633 139.301 58.082 139.309 57.8164L140.199 59.2461C140.074 59.5664 139.902 59.8984 139.684 60.2422C139.473 60.5859 139.203 60.9102 138.875 61.2148C138.547 61.5117 138.152 61.7578 137.691 61.9531C137.23 62.1406 136.684 62.2344 136.051 62.2344C135.246 62.2344 134.516 62.0742 133.859 61.7539C133.211 61.4258 132.695 60.9766 132.312 60.4062C131.938 59.8281 131.75 59.1719 131.75 58.4375C131.75 57.7734 131.875 57.1836 132.125 56.668C132.375 56.1523 132.742 55.7188 133.227 55.3672C133.719 55.0078 134.332 54.7383 135.066 54.5586C135.801 54.3711 136.652 54.2773 137.621 54.2773H139.578ZM151.344 49.3203V51.7109H143.961V49.3203H151.344ZM145.789 46.1914H149.164V58.1797C149.164 58.5469 149.211 58.8281 149.305 59.0234C149.406 59.2188 149.555 59.3555 149.75 59.4336C149.945 59.5039 150.191 59.5391 150.488 59.5391C150.699 59.5391 150.887 59.5312 151.051 59.5156C151.223 59.4922 151.367 59.4688 151.484 59.4453L151.496 61.9297C151.207 62.0234 150.895 62.0977 150.559 62.1523C150.223 62.207 149.852 62.2344 149.445 62.2344C148.703 62.2344 148.055 62.1133 147.5 61.8711C146.953 61.6211 146.531 61.2227 146.234 60.6758C145.938 60.1289 145.789 59.4102 145.789 58.5195V46.1914ZM159.102 62.2344C158.117 62.2344 157.234 62.0781 156.453 61.7656C155.672 61.4453 155.008 61.0039 154.461 60.4414C153.922 59.8789 153.508 59.2266 153.219 58.4844C152.93 57.7344 152.785 56.9375 152.785 56.0938V55.625C152.785 54.6641 152.922 53.7852 153.195 52.9883C153.469 52.1914 153.859 51.5 154.367 50.9141C154.883 50.3281 155.508 49.8789 156.242 49.5664C156.977 49.2461 157.805 49.0859 158.727 49.0859C159.625 49.0859 160.422 49.2344 161.117 49.5312C161.812 49.8281 162.395 50.25 162.863 50.7969C163.34 51.3438 163.699 52 163.941 52.7656C164.184 53.5234 164.305 54.3672 164.305 55.2969V56.7031H154.227V54.4531H160.988V54.1953C160.988 53.7266 160.902 53.3086 160.73 52.9414C160.566 52.5664 160.316 52.2695 159.98 52.0508C159.645 51.832 159.215 51.7227 158.691 51.7227C158.246 51.7227 157.863 51.8203 157.543 52.0156C157.223 52.2109 156.961 52.4844 156.758 52.8359C156.562 53.1875 156.414 53.6016 156.312 54.0781C156.219 54.5469 156.172 55.0625 156.172 55.625V56.0938C156.172 56.6016 156.242 57.0703 156.383 57.5C156.531 57.9297 156.738 58.3008 157.004 58.6133C157.277 58.9258 157.605 59.168 157.988 59.3398C158.379 59.5117 158.82 59.5977 159.312 59.5977C159.922 59.5977 160.488 59.4805 161.012 59.2461C161.543 59.0039 162 58.6406 162.383 58.1562L164.023 59.9375C163.758 60.3203 163.395 60.6875 162.934 61.0391C162.48 61.3906 161.934 61.6797 161.293 61.9062C160.652 62.125 159.922 62.2344 159.102 62.2344ZM169.602 52.0859V62H166.227V49.3203H169.402L169.602 52.0859ZM173.422 49.2383L173.363 52.3672C173.199 52.3438 173 52.3242 172.766 52.3086C172.539 52.2852 172.332 52.2734 172.145 52.2734C171.668 52.2734 171.254 52.3359 170.902 52.4609C170.559 52.5781 170.27 52.7539 170.035 52.9883C169.809 53.2227 169.637 53.5078 169.52 53.8438C169.41 54.1797 169.348 54.5625 169.332 54.9922L168.652 54.7812C168.652 53.9609 168.734 53.207 168.898 52.5195C169.062 51.8242 169.301 51.2188 169.613 50.7031C169.934 50.1875 170.324 49.7891 170.785 49.5078C171.246 49.2266 171.773 49.0859 172.367 49.0859C172.555 49.0859 172.746 49.1016 172.941 49.1328C173.137 49.1562 173.297 49.1914 173.422 49.2383ZM182.809 44.9375H185.785L190.168 57.4648L194.551 44.9375H197.527L191.363 62H188.973L182.809 44.9375ZM181.203 44.9375H184.168L184.707 57.1484V62H181.203V44.9375ZM196.168 44.9375H199.145V62H195.629V57.1484L196.168 44.9375ZM201.477 55.7891V55.543C201.477 54.6133 201.609 53.7578 201.875 52.9766C202.141 52.1875 202.527 51.5039 203.035 50.9258C203.543 50.3477 204.168 49.8984 204.91 49.5781C205.652 49.25 206.504 49.0859 207.465 49.0859C208.426 49.0859 209.281 49.25 210.031 49.5781C210.781 49.8984 211.41 50.3477 211.918 50.9258C212.434 51.5039 212.824 52.1875 213.09 52.9766C213.355 53.7578 213.488 54.6133 213.488 55.543V55.7891C213.488 56.7109 213.355 57.5664 213.09 58.3555C212.824 59.1367 212.434 59.8203 211.918 60.4062C211.41 60.9844 210.785 61.4336 210.043 61.7539C209.301 62.0742 208.449 62.2344 207.488 62.2344C206.527 62.2344 205.672 62.0742 204.922 61.7539C204.18 61.4336 203.551 60.9844 203.035 60.4062C202.527 59.8203 202.141 59.1367 201.875 58.3555C201.609 57.5664 201.477 56.7109 201.477 55.7891ZM204.852 55.543V55.7891C204.852 56.3203 204.898 56.8164 204.992 57.2773C205.086 57.7383 205.234 58.1445 205.438 58.4961C205.648 58.8398 205.922 59.1094 206.258 59.3047C206.594 59.5 207.004 59.5977 207.488 59.5977C207.957 59.5977 208.359 59.5 208.695 59.3047C209.031 59.1094 209.301 58.8398 209.504 58.4961C209.707 58.1445 209.855 57.7383 209.949 57.2773C210.051 56.8164 210.102 56.3203 210.102 55.7891V55.543C210.102 55.0273 210.051 54.543 209.949 54.0898C209.855 53.6289 209.703 53.2227 209.492 52.8711C209.289 52.5117 209.02 52.2305 208.684 52.0273C208.348 51.8242 207.941 51.7227 207.465 51.7227C206.988 51.7227 206.582 51.8242 206.246 52.0273C205.918 52.2305 205.648 52.5117 205.438 52.8711C205.234 53.2227 205.086 53.6289 204.992 54.0898C204.898 54.543 204.852 55.0273 204.852 55.543ZM218.867 52.0273V62H215.492V49.3203H218.656L218.867 52.0273ZM218.375 55.2148H217.461C217.461 54.2773 217.582 53.4336 217.824 52.6836C218.066 51.9258 218.406 51.2812 218.844 50.75C219.281 50.2109 219.801 49.8008 220.402 49.5195C221.012 49.2305 221.691 49.0859 222.441 49.0859C223.035 49.0859 223.578 49.1719 224.07 49.3438C224.562 49.5156 224.984 49.7891 225.336 50.1641C225.695 50.5391 225.969 51.0352 226.156 51.6523C226.352 52.2695 226.449 53.0234 226.449 53.9141V62H223.051V53.9023C223.051 53.3398 222.973 52.9023 222.816 52.5898C222.66 52.2773 222.43 52.0586 222.125 51.9336C221.828 51.8008 221.461 51.7344 221.023 51.7344C220.57 51.7344 220.176 51.8242 219.84 52.0039C219.512 52.1836 219.238 52.4336 219.02 52.7539C218.809 53.0664 218.648 53.4336 218.539 53.8555C218.43 54.2773 218.375 54.7305 218.375 55.2148ZM235.871 58.4961C235.871 58.2539 235.801 58.0352 235.66 57.8398C235.52 57.6445 235.258 57.4648 234.875 57.3008C234.5 57.1289 233.957 56.9727 233.246 56.832C232.605 56.6914 232.008 56.5156 231.453 56.3047C230.906 56.0859 230.43 55.8242 230.023 55.5195C229.625 55.2148 229.312 54.8555 229.086 54.4414C228.859 54.0195 228.746 53.5391 228.746 53C228.746 52.4688 228.859 51.9688 229.086 51.5C229.32 51.0312 229.652 50.6172 230.082 50.2578C230.52 49.8906 231.051 49.6055 231.676 49.4023C232.309 49.1914 233.02 49.0859 233.809 49.0859C234.91 49.0859 235.855 49.2617 236.645 49.6133C237.441 49.9648 238.051 50.4492 238.473 51.0664C238.902 51.6758 239.117 52.3711 239.117 53.1523H235.742C235.742 52.8242 235.672 52.5312 235.531 52.2734C235.398 52.0078 235.188 51.8008 234.898 51.6523C234.617 51.4961 234.25 51.418 233.797 51.418C233.422 51.418 233.098 51.4844 232.824 51.6172C232.551 51.7422 232.34 51.9141 232.191 52.1328C232.051 52.3438 231.98 52.5781 231.98 52.8359C231.98 53.0312 232.02 53.207 232.098 53.3633C232.184 53.5117 232.32 53.6484 232.508 53.7734C232.695 53.8984 232.938 54.0156 233.234 54.125C233.539 54.2266 233.914 54.3203 234.359 54.4062C235.273 54.5938 236.09 54.8398 236.809 55.1445C237.527 55.4414 238.098 55.8477 238.52 56.3633C238.941 56.8711 239.152 57.5391 239.152 58.3672C239.152 58.9297 239.027 59.4453 238.777 59.9141C238.527 60.3828 238.168 60.793 237.699 61.1445C237.23 61.4883 236.668 61.7578 236.012 61.9531C235.363 62.1406 234.633 62.2344 233.82 62.2344C232.641 62.2344 231.641 62.0234 230.82 61.6016C230.008 61.1797 229.391 60.6445 228.969 59.9961C228.555 59.3398 228.348 58.668 228.348 57.9805H231.547C231.562 58.4414 231.68 58.8125 231.898 59.0938C232.125 59.375 232.41 59.5781 232.754 59.7031C233.105 59.8281 233.484 59.8906 233.891 59.8906C234.328 59.8906 234.691 59.832 234.98 59.7148C235.27 59.5898 235.488 59.4258 235.637 59.2227C235.793 59.0117 235.871 58.7695 235.871 58.4961ZM247.555 49.3203V51.7109H240.172V49.3203H247.555ZM242 46.1914H245.375V58.1797C245.375 58.5469 245.422 58.8281 245.516 59.0234C245.617 59.2188 245.766 59.3555 245.961 59.4336C246.156 59.5039 246.402 59.5391 246.699 59.5391C246.91 59.5391 247.098 59.5312 247.262 59.5156C247.434 59.4922 247.578 59.4688 247.695 59.4453L247.707 61.9297C247.418 62.0234 247.105 62.0977 246.77 62.1523C246.434 62.207 246.062 62.2344 245.656 62.2344C244.914 62.2344 244.266 62.1133 243.711 61.8711C243.164 61.6211 242.742 61.2227 242.445 60.6758C242.148 60.1289 242 59.4102 242 58.5195V46.1914ZM255.312 62.2344C254.328 62.2344 253.445 62.0781 252.664 61.7656C251.883 61.4453 251.219 61.0039 250.672 60.4414C250.133 59.8789 249.719 59.2266 249.43 58.4844C249.141 57.7344 248.996 56.9375 248.996 56.0938V55.625C248.996 54.6641 249.133 53.7852 249.406 52.9883C249.68 52.1914 250.07 51.5 250.578 50.9141C251.094 50.3281 251.719 49.8789 252.453 49.5664C253.188 49.2461 254.016 49.0859 254.938 49.0859C255.836 49.0859 256.633 49.2344 257.328 49.5312C258.023 49.8281 258.605 50.25 259.074 50.7969C259.551 51.3438 259.91 52 260.152 52.7656C260.395 53.5234 260.516 54.3672 260.516 55.2969V56.7031H250.438V54.4531H257.199V54.1953C257.199 53.7266 257.113 53.3086 256.941 52.9414C256.777 52.5664 256.527 52.2695 256.191 52.0508C255.855 51.832 255.426 51.7227 254.902 51.7227C254.457 51.7227 254.074 51.8203 253.754 52.0156C253.434 52.2109 253.172 52.4844 252.969 52.8359C252.773 53.1875 252.625 53.6016 252.523 54.0781C252.43 54.5469 252.383 55.0625 252.383 55.625V56.0938C252.383 56.6016 252.453 57.0703 252.594 57.5C252.742 57.9297 252.949 58.3008 253.215 58.6133C253.488 58.9258 253.816 59.168 254.199 59.3398C254.59 59.5117 255.031 59.5977 255.523 59.5977C256.133 59.5977 256.699 59.4805 257.223 59.2461C257.754 59.0039 258.211 58.6406 258.594 58.1562L260.234 59.9375C259.969 60.3203 259.605 60.6875 259.145 61.0391C258.691 61.3906 258.145 61.6797 257.504 61.9062C256.863 62.125 256.133 62.2344 255.312 62.2344ZM265.812 52.0859V62H262.438V49.3203H265.613L265.812 52.0859ZM269.633 49.2383L269.574 52.3672C269.41 52.3438 269.211 52.3242 268.977 52.3086C268.75 52.2852 268.543 52.2734 268.355 52.2734C267.879 52.2734 267.465 52.3359 267.113 52.4609C266.77 52.5781 266.48 52.7539 266.246 52.9883C266.02 53.2227 265.848 53.5078 265.73 53.8438C265.621 54.1797 265.559 54.5625 265.543 54.9922L264.863 54.7812C264.863 53.9609 264.945 53.207 265.109 52.5195C265.273 51.8242 265.512 51.2188 265.824 50.7031C266.145 50.1875 266.535 49.7891 266.996 49.5078C267.457 49.2266 267.984 49.0859 268.578 49.0859C268.766 49.0859 268.957 49.1016 269.152 49.1328C269.348 49.1562 269.508 49.1914 269.633 49.2383Z" fill="white" fill-opacity="0.5"/>
</g>
<g style="mix-blend-mode:exclusion">
<path d="M102.635 86.0078V118H94.9443V86.0078H102.635ZM115.181 99.2573V118H107.776V94.2256H114.72L115.181 99.2573ZM114.28 105.3L112.588 105.344C112.588 103.674 112.786 102.136 113.182 100.729C113.577 99.3232 114.163 98.1001 114.939 97.0601C115.716 96.02 116.668 95.2144 117.796 94.6431C118.938 94.0718 120.257 93.7861 121.751 93.7861C122.791 93.7861 123.736 93.9473 124.585 94.2695C125.435 94.5771 126.167 95.0679 126.783 95.7417C127.398 96.4009 127.867 97.2651 128.189 98.3345C128.526 99.3892 128.694 100.656 128.694 102.136V118H121.29V103.081C121.29 102.07 121.172 101.308 120.938 100.795C120.718 100.283 120.396 99.9385 119.971 99.7627C119.546 99.5869 119.026 99.499 118.411 99.499C117.767 99.499 117.188 99.6455 116.675 99.9385C116.163 100.231 115.723 100.642 115.357 101.169C115.005 101.682 114.734 102.29 114.544 102.993C114.368 103.696 114.28 104.465 114.28 105.3ZM127.859 105.3L125.794 105.344C125.794 103.674 125.977 102.136 126.343 100.729C126.724 99.3232 127.288 98.1001 128.035 97.0601C128.797 96.02 129.742 95.2144 130.87 94.6431C131.998 94.0718 133.309 93.7861 134.803 93.7861C135.887 93.7861 136.883 93.9473 137.791 94.2695C138.699 94.5918 139.483 95.1118 140.142 95.8296C140.801 96.5474 141.314 97.4995 141.68 98.686C142.046 99.8579 142.229 101.308 142.229 103.037V118H134.803V103.037C134.803 102.055 134.686 101.315 134.451 100.817C134.231 100.305 133.909 99.9604 133.484 99.7847C133.06 99.5942 132.554 99.499 131.968 99.499C131.265 99.499 130.657 99.6455 130.145 99.9385C129.632 100.231 129.2 100.642 128.848 101.169C128.511 101.682 128.262 102.29 128.101 102.993C127.94 103.696 127.859 104.465 127.859 105.3ZM153.941 98.7959V127.141H146.536V94.2256H153.436L153.941 98.7959ZM168.531 105.827V106.289C168.531 108.017 168.333 109.621 167.938 111.101C167.542 112.58 166.956 113.869 166.18 114.968C165.403 116.066 164.437 116.923 163.279 117.539C162.137 118.139 160.811 118.439 159.302 118.439C157.881 118.439 156.658 118.125 155.633 117.495C154.607 116.865 153.75 115.993 153.062 114.88C152.374 113.767 151.817 112.492 151.392 111.057C150.967 109.621 150.63 108.105 150.381 106.508V105.915C150.63 104.201 150.967 102.612 151.392 101.147C151.817 99.6675 152.374 98.3784 153.062 97.2798C153.75 96.1812 154.6 95.3242 155.611 94.709C156.636 94.0938 157.859 93.7861 159.28 93.7861C160.789 93.7861 162.115 94.0718 163.257 94.6431C164.415 95.2144 165.381 96.0347 166.158 97.104C166.949 98.1587 167.542 99.4258 167.938 100.905C168.333 102.385 168.531 104.025 168.531 105.827ZM161.126 106.289V105.827C161.126 104.904 161.06 104.062 160.928 103.3C160.796 102.524 160.584 101.85 160.291 101.279C160.013 100.708 159.639 100.268 159.17 99.9604C158.702 99.6528 158.123 99.499 157.435 99.499C156.644 99.499 155.977 99.6235 155.435 99.8726C154.908 100.107 154.483 100.473 154.161 100.971C153.853 101.455 153.633 102.062 153.501 102.795C153.384 103.513 153.333 104.355 153.348 105.322V107.124C153.318 108.237 153.428 109.218 153.677 110.068C153.926 110.903 154.358 111.555 154.974 112.023C155.589 112.492 156.424 112.727 157.479 112.727C158.182 112.727 158.768 112.565 159.236 112.243C159.705 111.906 160.079 111.445 160.357 110.859C160.635 110.258 160.833 109.57 160.95 108.793C161.067 108.017 161.126 107.182 161.126 106.289ZM179.649 84.25V118H172.222V84.25H179.649ZM195.733 118.439C193.799 118.439 192.071 118.139 190.547 117.539C189.024 116.923 187.735 116.081 186.68 115.012C185.64 113.942 184.842 112.712 184.285 111.32C183.743 109.929 183.472 108.457 183.472 106.904V106.069C183.472 104.326 183.714 102.714 184.197 101.235C184.681 99.7407 185.398 98.437 186.351 97.3237C187.303 96.2104 188.497 95.3462 189.932 94.731C191.368 94.1011 193.038 93.7861 194.942 93.7861C196.626 93.7861 198.135 94.0571 199.468 94.5991C200.801 95.1411 201.929 95.9175 202.852 96.9282C203.79 97.939 204.5 99.1621 204.983 100.598C205.481 102.033 205.73 103.645 205.73 105.432V108.442H186.307V103.806H198.501V103.234C198.516 102.443 198.377 101.77 198.084 101.213C197.806 100.656 197.396 100.231 196.854 99.9385C196.312 99.6455 195.652 99.499 194.876 99.499C194.07 99.499 193.404 99.6748 192.876 100.026C192.364 100.378 191.961 100.861 191.668 101.477C191.39 102.077 191.192 102.773 191.075 103.564C190.958 104.355 190.899 105.19 190.899 106.069V106.904C190.899 107.783 191.016 108.581 191.25 109.299C191.5 110.017 191.851 110.632 192.305 111.145C192.774 111.643 193.331 112.031 193.975 112.309C194.634 112.587 195.381 112.727 196.216 112.727C197.227 112.727 198.223 112.536 199.205 112.155C200.186 111.774 201.028 111.145 201.731 110.266L205.093 114.265C204.61 114.953 203.921 115.62 203.028 116.264C202.149 116.909 201.094 117.436 199.864 117.846C198.633 118.242 197.256 118.439 195.733 118.439ZM216.211 99.2573V118H208.807V94.2256H215.75L216.211 99.2573ZM215.311 105.3L213.619 105.344C213.619 103.674 213.816 102.136 214.212 100.729C214.607 99.3232 215.193 98.1001 215.97 97.0601C216.746 96.02 217.698 95.2144 218.826 94.6431C219.969 94.0718 221.287 93.7861 222.781 93.7861C223.821 93.7861 224.766 93.9473 225.616 94.2695C226.465 94.5771 227.198 95.0679 227.813 95.7417C228.428 96.4009 228.897 97.2651 229.219 98.3345C229.556 99.3892 229.725 100.656 229.725 102.136V118H222.32V103.081C222.32 102.07 222.203 101.308 221.968 100.795C221.749 100.283 221.426 99.9385 221.001 99.7627C220.577 99.5869 220.057 99.499 219.441 99.499C218.797 99.499 218.218 99.6455 217.706 99.9385C217.193 100.231 216.753 100.642 216.387 101.169C216.036 101.682 215.765 102.29 215.574 102.993C215.398 103.696 215.311 104.465 215.311 105.3ZM228.89 105.3L226.824 105.344C226.824 103.674 227.007 102.136 227.374 100.729C227.754 99.3232 228.318 98.1001 229.065 97.0601C229.827 96.02 230.772 95.2144 231.9 94.6431C233.028 94.0718 234.339 93.7861 235.833 93.7861C236.917 93.7861 237.913 93.9473 238.821 94.2695C239.729 94.5918 240.513 95.1118 241.172 95.8296C241.832 96.5474 242.344 97.4995 242.71 98.686C243.077 99.8579 243.26 101.308 243.26 103.037V118H235.833V103.037C235.833 102.055 235.716 101.315 235.481 100.817C235.262 100.305 234.939 99.9604 234.515 99.7847C234.09 99.5942 233.584 99.499 232.999 99.499C232.295 99.499 231.688 99.6455 231.175 99.9385C230.662 100.231 230.23 100.642 229.878 101.169C229.542 101.682 229.292 102.29 229.131 102.993C228.97 103.696 228.89 104.465 228.89 105.3ZM259.014 118.439C257.081 118.439 255.352 118.139 253.829 117.539C252.305 116.923 251.016 116.081 249.961 115.012C248.921 113.942 248.123 112.712 247.566 111.32C247.024 109.929 246.753 108.457 246.753 106.904V106.069C246.753 104.326 246.995 102.714 247.479 101.235C247.962 99.7407 248.68 98.437 249.632 97.3237C250.584 96.2104 251.778 95.3462 253.213 94.731C254.649 94.1011 256.319 93.7861 258.223 93.7861C259.908 93.7861 261.417 94.0571 262.75 94.5991C264.083 95.1411 265.21 95.9175 266.133 96.9282C267.071 97.939 267.781 99.1621 268.265 100.598C268.763 102.033 269.012 103.645 269.012 105.432V108.442H249.588V103.806H261.783V103.234C261.797 102.443 261.658 101.77 261.365 101.213C261.087 100.656 260.677 100.231 260.135 99.9385C259.593 99.6455 258.934 99.499 258.157 99.499C257.352 99.499 256.685 99.6748 256.158 100.026C255.645 100.378 255.242 100.861 254.949 101.477C254.671 102.077 254.473 102.773 254.356 103.564C254.239 104.355 254.18 105.19 254.18 106.069V106.904C254.18 107.783 254.297 108.581 254.532 109.299C254.781 110.017 255.132 110.632 255.586 111.145C256.055 111.643 256.612 112.031 257.256 112.309C257.916 112.587 258.663 112.727 259.498 112.727C260.508 112.727 261.504 112.536 262.486 112.155C263.467 111.774 264.31 111.145 265.013 110.266L268.375 114.265C267.891 114.953 267.203 115.62 266.309 116.264C265.43 116.909 264.375 117.436 263.145 117.846C261.915 118.242 260.538 118.439 259.014 118.439ZM279.295 99.3013V118H271.89V94.2256H278.833L279.295 99.3013ZM278.416 105.3L276.68 105.344C276.68 103.527 276.9 101.909 277.339 100.488C277.779 99.0522 278.401 97.8364 279.207 96.8403C280.013 95.8442 280.972 95.0898 282.085 94.5771C283.213 94.0498 284.466 93.7861 285.843 93.7861C286.941 93.7861 287.945 93.9473 288.853 94.2695C289.776 94.5918 290.567 95.1118 291.226 95.8296C291.9 96.5474 292.413 97.4995 292.764 98.686C293.13 99.8579 293.313 101.308 293.313 103.037V118H285.865V103.015C285.865 102.062 285.733 101.337 285.469 100.839C285.206 100.327 284.825 99.9751 284.327 99.7847C283.829 99.5942 283.221 99.499 282.503 99.499C281.741 99.499 281.097 99.6455 280.569 99.9385C280.042 100.231 279.617 100.642 279.295 101.169C278.987 101.682 278.76 102.29 278.614 102.993C278.482 103.696 278.416 104.465 278.416 105.3ZM309.947 94.2256V99.3672H295.621V94.2256H309.947ZM298.631 88.3149H306.036V110.244C306.036 110.874 306.109 111.364 306.255 111.716C306.402 112.053 306.651 112.294 307.002 112.441C307.369 112.573 307.852 112.639 308.453 112.639C308.877 112.639 309.229 112.631 309.507 112.617C309.786 112.587 310.049 112.551 310.298 112.507V117.802C309.668 118.007 309.009 118.161 308.321 118.264C307.632 118.381 306.9 118.439 306.124 118.439C304.542 118.439 303.187 118.19 302.059 117.692C300.945 117.194 300.096 116.411 299.51 115.341C298.924 114.272 298.631 112.88 298.631 111.167V88.3149ZM325.24 112.023V102.224C325.24 101.55 325.145 100.971 324.954 100.488C324.764 100.004 324.463 99.6309 324.053 99.3672C323.643 99.0889 323.094 98.9497 322.405 98.9497C321.849 98.9497 321.373 99.0449 320.977 99.2354C320.582 99.4258 320.281 99.7114 320.076 100.092C319.871 100.473 319.769 100.957 319.769 101.542H312.364C312.364 100.444 312.605 99.4258 313.089 98.4883C313.587 97.5361 314.29 96.7085 315.198 96.0054C316.121 95.3022 317.22 94.7603 318.494 94.3794C319.783 93.9839 321.219 93.7861 322.801 93.7861C324.69 93.7861 326.375 94.1011 327.854 94.731C329.349 95.3608 330.528 96.3057 331.392 97.5654C332.256 98.8105 332.688 100.378 332.688 102.268V112.001C332.688 113.554 332.776 114.733 332.952 115.539C333.128 116.33 333.377 117.026 333.699 117.626V118H326.272C325.921 117.268 325.657 116.374 325.481 115.319C325.32 114.25 325.24 113.151 325.24 112.023ZM326.141 103.476L326.185 107.431H322.911C322.222 107.431 321.636 107.526 321.153 107.717C320.684 107.907 320.303 108.171 320.01 108.508C319.732 108.83 319.527 109.196 319.395 109.606C319.278 110.017 319.219 110.449 319.219 110.903C319.219 111.342 319.322 111.738 319.527 112.089C319.747 112.426 320.04 112.69 320.406 112.88C320.772 113.071 321.182 113.166 321.636 113.166C322.457 113.166 323.152 113.012 323.724 112.705C324.31 112.382 324.756 111.994 325.064 111.54C325.372 111.086 325.525 110.661 325.525 110.266L327.151 113.298C326.858 113.884 326.521 114.477 326.141 115.078C325.774 115.678 325.313 116.235 324.756 116.748C324.214 117.246 323.548 117.656 322.757 117.978C321.966 118.286 321.006 118.439 319.878 118.439C318.414 118.439 317.066 118.139 315.835 117.539C314.62 116.938 313.646 116.103 312.913 115.034C312.181 113.95 311.814 112.705 311.814 111.298C311.814 110.068 312.034 108.969 312.474 108.002C312.928 107.036 313.609 106.215 314.517 105.542C315.425 104.868 316.583 104.355 317.989 104.003C319.395 103.652 321.05 103.476 322.955 103.476H326.141ZM349.322 94.2256V99.3672H334.996V94.2256H349.322ZM338.006 88.3149H345.411V110.244C345.411 110.874 345.484 111.364 345.63 111.716C345.777 112.053 346.026 112.294 346.377 112.441C346.744 112.573 347.227 112.639 347.828 112.639C348.252 112.639 348.604 112.631 348.882 112.617C349.161 112.587 349.424 112.551 349.673 112.507V117.802C349.043 118.007 348.384 118.161 347.696 118.264C347.007 118.381 346.275 118.439 345.499 118.439C343.917 118.439 342.562 118.19 341.434 117.692C340.32 117.194 339.471 116.411 338.885 115.341C338.299 114.272 338.006 112.88 338.006 111.167V88.3149ZM360.088 94.2256V118H352.662V94.2256H360.088ZM352.222 88.0952C352.222 87.0405 352.603 86.1763 353.365 85.5024C354.126 84.8286 355.115 84.4917 356.331 84.4917C357.547 84.4917 358.536 84.8286 359.297 85.5024C360.059 86.1763 360.44 87.0405 360.44 88.0952C360.44 89.1499 360.059 90.0142 359.297 90.688C358.536 91.3618 357.547 91.6987 356.331 91.6987C355.115 91.6987 354.126 91.3618 353.365 90.688C352.603 90.0142 352.222 89.1499 352.222 88.0952ZM363.736 106.354V105.893C363.736 104.15 363.985 102.546 364.483 101.081C364.981 99.6016 365.713 98.3198 366.68 97.2358C367.647 96.1519 368.841 95.3096 370.262 94.709C371.683 94.0938 373.323 93.7861 375.184 93.7861C377.059 93.7861 378.707 94.0938 380.127 94.709C381.563 95.3096 382.764 96.1519 383.731 97.2358C384.698 98.3198 385.43 99.6016 385.928 101.081C386.426 102.546 386.675 104.15 386.675 105.893V106.354C386.675 108.083 386.426 109.687 385.928 111.167C385.43 112.631 384.698 113.913 383.731 115.012C382.764 116.096 381.57 116.938 380.149 117.539C378.729 118.139 377.088 118.439 375.228 118.439C373.367 118.439 371.719 118.139 370.284 117.539C368.848 116.938 367.647 116.096 366.68 115.012C365.713 113.913 364.981 112.631 364.483 111.167C363.985 109.687 363.736 108.083 363.736 106.354ZM371.141 105.893V106.354C371.141 107.248 371.207 108.083 371.338 108.859C371.47 109.636 371.69 110.317 371.998 110.903C372.305 111.474 372.723 111.921 373.25 112.243C373.777 112.565 374.437 112.727 375.228 112.727C376.004 112.727 376.648 112.565 377.161 112.243C377.688 111.921 378.106 111.474 378.414 110.903C378.721 110.317 378.941 109.636 379.073 108.859C379.205 108.083 379.271 107.248 379.271 106.354V105.893C379.271 105.029 379.205 104.216 379.073 103.454C378.941 102.678 378.721 101.997 378.414 101.411C378.106 100.81 377.688 100.341 377.161 100.004C376.634 99.6675 375.975 99.499 375.184 99.499C374.407 99.499 373.755 99.6675 373.228 100.004C372.715 100.341 372.305 100.81 371.998 101.411C371.69 101.997 371.47 102.678 371.338 103.454C371.207 104.216 371.141 105.029 371.141 105.893ZM397.244 99.3013V118H389.839V94.2256H396.783L397.244 99.3013ZM396.365 105.3L394.629 105.344C394.629 103.527 394.849 101.909 395.289 100.488C395.728 99.0522 396.351 97.8364 397.156 96.8403C397.962 95.8442 398.921 95.0898 400.035 94.5771C401.163 94.0498 402.415 93.7861 403.792 93.7861C404.891 93.7861 405.894 93.9473 406.802 94.2695C407.725 94.5918 408.516 95.1118 409.175 95.8296C409.849 96.5474 410.362 97.4995 410.713 98.686C411.08 99.8579 411.263 101.308 411.263 103.037V118H403.814V103.015C403.814 102.062 403.682 101.337 403.418 100.839C403.155 100.327 402.774 99.9751 402.276 99.7847C401.778 99.5942 401.17 99.499 400.452 99.499C399.69 99.499 399.046 99.6455 398.519 99.9385C397.991 100.231 397.566 100.642 397.244 101.169C396.937 101.682 396.709 102.29 396.563 102.993C396.431 103.696 396.365 104.465 396.365 105.3Z" fill="white"/>
</g>
<path d="M1363 15C1363 6.71573 1356.28 0 1348 0H1134V167H1348C1356.28 167 1363 160.284 1363 152V15Z" fill="#43B9C3"/>
<path d="M1281.5 49H1216.5L1214 51.5V116.5L1216.5 119H1281.5L1284 116.5V51.5L1281.5 49ZM1279 114H1234V104H1245.5C1247 107 1250.5 109 1254 109C1259.5 109 1264 104.5 1264 99C1264 93.5 1259.5 89 1254 89C1248.5 89 1244 93.5 1244 99H1229V114H1219V54H1229V65.5C1226 67 1224 70.5 1224 74C1224 79.5 1228.5 84 1234 84C1239.5 84 1244 79.5 1244 74H1254C1254 79.5 1258.5 84 1264 84C1269.5 84 1274 79.5 1274 74C1274 68.5 1269.5 64 1264 64C1260.5 64 1257 66 1255.5 69H1242.5C1241 66 1237.5 64 1234 64V54H1279V114ZM1249 99C1249 96 1251 94 1254 94C1257 94 1259 96 1259 99C1259 102 1257 104 1254 104C1251 104 1249 102 1249 99ZM1234 69C1237 69 1239 71 1239 74C1239 77 1237 79 1234 79C1231 79 1229 77 1229 74C1229 71 1231 69 1234 69ZM1264 69C1267 69 1269 71 1269 74C1269 77 1267 79 1264 79C1261 79 1259 77 1259 74C1259 71 1261 69 1264 69Z" fill="white"/>
</svg>
