<svg width="1363" height="167" viewBox="0 0 1363 167" fill="none" xmlns="http://www.w3.org/2000/svg">
<g style="mix-blend-mode:exclusion">
<rect width="1363" height="167" rx="15" fill="white" fill-opacity="0.05"/>
</g>
<g style="mix-blend-mode:exclusion">
<path d="M0 15C0 6.71573 6.71573 0 15 0H37V167H15C6.71573 167 0 160.284 0 152V15Z" fill="white" fill-opacity="0.25"/>
</g>
<g style="mix-blend-mode:exclusion">
<path d="M100.906 54.9219L93.3945 52.2383V49.0859L103.602 53.375V55.6367L100.906 54.9219ZM93.3945 57.1719L100.918 54.4297L103.602 53.7852V56.0352L93.3945 60.3242V57.1719ZM116.012 59.293L119.41 44.9375H121.309L121.742 47.3281L118.121 62H116.082L116.012 59.293ZM114.266 44.9375L117.078 59.293L116.844 62H114.57L110.785 44.9375H114.266ZM124.73 59.2344L127.508 44.9375H130.988L127.215 62H124.941L124.73 59.2344ZM122.375 44.9375L125.797 59.3516L125.703 62H123.664L120.02 47.3164L120.488 44.9375H122.375ZM139.133 59.1406V53.4922C139.133 53.0859 139.066 52.7383 138.934 52.4492C138.801 52.1523 138.594 51.9219 138.312 51.7578C138.039 51.5938 137.684 51.5117 137.246 51.5117C136.871 51.5117 136.547 51.5781 136.273 51.7109C136 51.8359 135.789 52.0195 135.641 52.2617C135.492 52.4961 135.418 52.7734 135.418 53.0938H132.043C132.043 52.5547 132.168 52.043 132.418 51.5586C132.668 51.0742 133.031 50.6484 133.508 50.2812C133.984 49.9062 134.551 49.6133 135.207 49.4023C135.871 49.1914 136.613 49.0859 137.434 49.0859C138.418 49.0859 139.293 49.25 140.059 49.5781C140.824 49.9062 141.426 50.3984 141.863 51.0547C142.309 51.7109 142.531 52.5312 142.531 53.5156V58.9414C142.531 59.6367 142.574 60.207 142.66 60.6523C142.746 61.0898 142.871 61.4727 143.035 61.8008V62H139.625C139.461 61.6562 139.336 61.2266 139.25 60.7109C139.172 60.1875 139.133 59.6641 139.133 59.1406ZM139.578 54.2773L139.602 56.1875H137.715C137.27 56.1875 136.883 56.2383 136.555 56.3398C136.227 56.4414 135.957 56.5859 135.746 56.7734C135.535 56.9531 135.379 57.1641 135.277 57.4062C135.184 57.6484 135.137 57.9141 135.137 58.2031C135.137 58.4922 135.203 58.7539 135.336 58.9883C135.469 59.2148 135.66 59.3945 135.91 59.5273C136.16 59.6523 136.453 59.7148 136.789 59.7148C137.297 59.7148 137.738 59.6133 138.113 59.4102C138.488 59.207 138.777 58.957 138.98 58.6602C139.191 58.3633 139.301 58.082 139.309 57.8164L140.199 59.2461C140.074 59.5664 139.902 59.8984 139.684 60.2422C139.473 60.5859 139.203 60.9102 138.875 61.2148C138.547 61.5117 138.152 61.7578 137.691 61.9531C137.23 62.1406 136.684 62.2344 136.051 62.2344C135.246 62.2344 134.516 62.0742 133.859 61.7539C133.211 61.4258 132.695 60.9766 132.312 60.4062C131.938 59.8281 131.75 59.1719 131.75 58.4375C131.75 57.7734 131.875 57.1836 132.125 56.668C132.375 56.1523 132.742 55.7188 133.227 55.3672C133.719 55.0078 134.332 54.7383 135.066 54.5586C135.801 54.3711 136.652 54.2773 137.621 54.2773H139.578ZM151.344 49.3203V51.7109H143.961V49.3203H151.344ZM145.789 46.1914H149.164V58.1797C149.164 58.5469 149.211 58.8281 149.305 59.0234C149.406 59.2188 149.555 59.3555 149.75 59.4336C149.945 59.5039 150.191 59.5391 150.488 59.5391C150.699 59.5391 150.887 59.5312 151.051 59.5156C151.223 59.4922 151.367 59.4688 151.484 59.4453L151.496 61.9297C151.207 62.0234 150.895 62.0977 150.559 62.1523C150.223 62.207 149.852 62.2344 149.445 62.2344C148.703 62.2344 148.055 62.1133 147.5 61.8711C146.953 61.6211 146.531 61.2227 146.234 60.6758C145.938 60.1289 145.789 59.4102 145.789 58.5195V46.1914ZM159.102 62.2344C158.117 62.2344 157.234 62.0781 156.453 61.7656C155.672 61.4453 155.008 61.0039 154.461 60.4414C153.922 59.8789 153.508 59.2266 153.219 58.4844C152.93 57.7344 152.785 56.9375 152.785 56.0938V55.625C152.785 54.6641 152.922 53.7852 153.195 52.9883C153.469 52.1914 153.859 51.5 154.367 50.9141C154.883 50.3281 155.508 49.8789 156.242 49.5664C156.977 49.2461 157.805 49.0859 158.727 49.0859C159.625 49.0859 160.422 49.2344 161.117 49.5312C161.812 49.8281 162.395 50.25 162.863 50.7969C163.34 51.3438 163.699 52 163.941 52.7656C164.184 53.5234 164.305 54.3672 164.305 55.2969V56.7031H154.227V54.4531H160.988V54.1953C160.988 53.7266 160.902 53.3086 160.73 52.9414C160.566 52.5664 160.316 52.2695 159.98 52.0508C159.645 51.832 159.215 51.7227 158.691 51.7227C158.246 51.7227 157.863 51.8203 157.543 52.0156C157.223 52.2109 156.961 52.4844 156.758 52.8359C156.562 53.1875 156.414 53.6016 156.312 54.0781C156.219 54.5469 156.172 55.0625 156.172 55.625V56.0938C156.172 56.6016 156.242 57.0703 156.383 57.5C156.531 57.9297 156.738 58.3008 157.004 58.6133C157.277 58.9258 157.605 59.168 157.988 59.3398C158.379 59.5117 158.82 59.5977 159.312 59.5977C159.922 59.5977 160.488 59.4805 161.012 59.2461C161.543 59.0039 162 58.6406 162.383 58.1562L164.023 59.9375C163.758 60.3203 163.395 60.6875 162.934 61.0391C162.48 61.3906 161.934 61.6797 161.293 61.9062C160.652 62.125 159.922 62.2344 159.102 62.2344ZM169.602 52.0859V62H166.227V49.3203H169.402L169.602 52.0859ZM173.422 49.2383L173.363 52.3672C173.199 52.3438 173 52.3242 172.766 52.3086C172.539 52.2852 172.332 52.2734 172.145 52.2734C171.668 52.2734 171.254 52.3359 170.902 52.4609C170.559 52.5781 170.27 52.7539 170.035 52.9883C169.809 53.2227 169.637 53.5078 169.52 53.8438C169.41 54.1797 169.348 54.5625 169.332 54.9922L168.652 54.7812C168.652 53.9609 168.734 53.207 168.898 52.5195C169.062 51.8242 169.301 51.2188 169.613 50.7031C169.934 50.1875 170.324 49.7891 170.785 49.5078C171.246 49.2266 171.773 49.0859 172.367 49.0859C172.555 49.0859 172.746 49.1016 172.941 49.1328C173.137 49.1562 173.297 49.1914 173.422 49.2383ZM182.809 44.9375H185.785L190.168 57.4648L194.551 44.9375H197.527L191.363 62H188.973L182.809 44.9375ZM181.203 44.9375H184.168L184.707 57.1484V62H181.203V44.9375ZM196.168 44.9375H199.145V62H195.629V57.1484L196.168 44.9375ZM201.477 55.7891V55.543C201.477 54.6133 201.609 53.7578 201.875 52.9766C202.141 52.1875 202.527 51.5039 203.035 50.9258C203.543 50.3477 204.168 49.8984 204.91 49.5781C205.652 49.25 206.504 49.0859 207.465 49.0859C208.426 49.0859 209.281 49.25 210.031 49.5781C210.781 49.8984 211.41 50.3477 211.918 50.9258C212.434 51.5039 212.824 52.1875 213.09 52.9766C213.355 53.7578 213.488 54.6133 213.488 55.543V55.7891C213.488 56.7109 213.355 57.5664 213.09 58.3555C212.824 59.1367 212.434 59.8203 211.918 60.4062C211.41 60.9844 210.785 61.4336 210.043 61.7539C209.301 62.0742 208.449 62.2344 207.488 62.2344C206.527 62.2344 205.672 62.0742 204.922 61.7539C204.18 61.4336 203.551 60.9844 203.035 60.4062C202.527 59.8203 202.141 59.1367 201.875 58.3555C201.609 57.5664 201.477 56.7109 201.477 55.7891ZM204.852 55.543V55.7891C204.852 56.3203 204.898 56.8164 204.992 57.2773C205.086 57.7383 205.234 58.1445 205.438 58.4961C205.648 58.8398 205.922 59.1094 206.258 59.3047C206.594 59.5 207.004 59.5977 207.488 59.5977C207.957 59.5977 208.359 59.5 208.695 59.3047C209.031 59.1094 209.301 58.8398 209.504 58.4961C209.707 58.1445 209.855 57.7383 209.949 57.2773C210.051 56.8164 210.102 56.3203 210.102 55.7891V55.543C210.102 55.0273 210.051 54.543 209.949 54.0898C209.855 53.6289 209.703 53.2227 209.492 52.8711C209.289 52.5117 209.02 52.2305 208.684 52.0273C208.348 51.8242 207.941 51.7227 207.465 51.7227C206.988 51.7227 206.582 51.8242 206.246 52.0273C205.918 52.2305 205.648 52.5117 205.438 52.8711C205.234 53.2227 205.086 53.6289 204.992 54.0898C204.898 54.543 204.852 55.0273 204.852 55.543ZM218.867 52.0273V62H215.492V49.3203H218.656L218.867 52.0273ZM218.375 55.2148H217.461C217.461 54.2773 217.582 53.4336 217.824 52.6836C218.066 51.9258 218.406 51.2812 218.844 50.75C219.281 50.2109 219.801 49.8008 220.402 49.5195C221.012 49.2305 221.691 49.0859 222.441 49.0859C223.035 49.0859 223.578 49.1719 224.07 49.3438C224.562 49.5156 224.984 49.7891 225.336 50.1641C225.695 50.5391 225.969 51.0352 226.156 51.6523C226.352 52.2695 226.449 53.0234 226.449 53.9141V62H223.051V53.9023C223.051 53.3398 222.973 52.9023 222.816 52.5898C222.66 52.2773 222.43 52.0586 222.125 51.9336C221.828 51.8008 221.461 51.7344 221.023 51.7344C220.57 51.7344 220.176 51.8242 219.84 52.0039C219.512 52.1836 219.238 52.4336 219.02 52.7539C218.809 53.0664 218.648 53.4336 218.539 53.8555C218.43 54.2773 218.375 54.7305 218.375 55.2148ZM235.871 58.4961C235.871 58.2539 235.801 58.0352 235.66 57.8398C235.52 57.6445 235.258 57.4648 234.875 57.3008C234.5 57.1289 233.957 56.9727 233.246 56.832C232.605 56.6914 232.008 56.5156 231.453 56.3047C230.906 56.0859 230.43 55.8242 230.023 55.5195C229.625 55.2148 229.312 54.8555 229.086 54.4414C228.859 54.0195 228.746 53.5391 228.746 53C228.746 52.4688 228.859 51.9688 229.086 51.5C229.32 51.0312 229.652 50.6172 230.082 50.2578C230.52 49.8906 231.051 49.6055 231.676 49.4023C232.309 49.1914 233.02 49.0859 233.809 49.0859C234.91 49.0859 235.855 49.2617 236.645 49.6133C237.441 49.9648 238.051 50.4492 238.473 51.0664C238.902 51.6758 239.117 52.3711 239.117 53.1523H235.742C235.742 52.8242 235.672 52.5312 235.531 52.2734C235.398 52.0078 235.188 51.8008 234.898 51.6523C234.617 51.4961 234.25 51.418 233.797 51.418C233.422 51.418 233.098 51.4844 232.824 51.6172C232.551 51.7422 232.34 51.9141 232.191 52.1328C232.051 52.3438 231.98 52.5781 231.98 52.8359C231.98 53.0312 232.02 53.207 232.098 53.3633C232.184 53.5117 232.32 53.6484 232.508 53.7734C232.695 53.8984 232.938 54.0156 233.234 54.125C233.539 54.2266 233.914 54.3203 234.359 54.4062C235.273 54.5938 236.09 54.8398 236.809 55.1445C237.527 55.4414 238.098 55.8477 238.52 56.3633C238.941 56.8711 239.152 57.5391 239.152 58.3672C239.152 58.9297 239.027 59.4453 238.777 59.9141C238.527 60.3828 238.168 60.793 237.699 61.1445C237.23 61.4883 236.668 61.7578 236.012 61.9531C235.363 62.1406 234.633 62.2344 233.82 62.2344C232.641 62.2344 231.641 62.0234 230.82 61.6016C230.008 61.1797 229.391 60.6445 228.969 59.9961C228.555 59.3398 228.348 58.668 228.348 57.9805H231.547C231.562 58.4414 231.68 58.8125 231.898 59.0938C232.125 59.375 232.41 59.5781 232.754 59.7031C233.105 59.8281 233.484 59.8906 233.891 59.8906C234.328 59.8906 234.691 59.832 234.98 59.7148C235.27 59.5898 235.488 59.4258 235.637 59.2227C235.793 59.0117 235.871 58.7695 235.871 58.4961ZM247.555 49.3203V51.7109H240.172V49.3203H247.555ZM242 46.1914H245.375V58.1797C245.375 58.5469 245.422 58.8281 245.516 59.0234C245.617 59.2188 245.766 59.3555 245.961 59.4336C246.156 59.5039 246.402 59.5391 246.699 59.5391C246.91 59.5391 247.098 59.5312 247.262 59.5156C247.434 59.4922 247.578 59.4688 247.695 59.4453L247.707 61.9297C247.418 62.0234 247.105 62.0977 246.77 62.1523C246.434 62.207 246.062 62.2344 245.656 62.2344C244.914 62.2344 244.266 62.1133 243.711 61.8711C243.164 61.6211 242.742 61.2227 242.445 60.6758C242.148 60.1289 242 59.4102 242 58.5195V46.1914ZM255.312 62.2344C254.328 62.2344 253.445 62.0781 252.664 61.7656C251.883 61.4453 251.219 61.0039 250.672 60.4414C250.133 59.8789 249.719 59.2266 249.43 58.4844C249.141 57.7344 248.996 56.9375 248.996 56.0938V55.625C248.996 54.6641 249.133 53.7852 249.406 52.9883C249.68 52.1914 250.07 51.5 250.578 50.9141C251.094 50.3281 251.719 49.8789 252.453 49.5664C253.188 49.2461 254.016 49.0859 254.938 49.0859C255.836 49.0859 256.633 49.2344 257.328 49.5312C258.023 49.8281 258.605 50.25 259.074 50.7969C259.551 51.3438 259.91 52 260.152 52.7656C260.395 53.5234 260.516 54.3672 260.516 55.2969V56.7031H250.438V54.4531H257.199V54.1953C257.199 53.7266 257.113 53.3086 256.941 52.9414C256.777 52.5664 256.527 52.2695 256.191 52.0508C255.855 51.832 255.426 51.7227 254.902 51.7227C254.457 51.7227 254.074 51.8203 253.754 52.0156C253.434 52.2109 253.172 52.4844 252.969 52.8359C252.773 53.1875 252.625 53.6016 252.523 54.0781C252.43 54.5469 252.383 55.0625 252.383 55.625V56.0938C252.383 56.6016 252.453 57.0703 252.594 57.5C252.742 57.9297 252.949 58.3008 253.215 58.6133C253.488 58.9258 253.816 59.168 254.199 59.3398C254.59 59.5117 255.031 59.5977 255.523 59.5977C256.133 59.5977 256.699 59.4805 257.223 59.2461C257.754 59.0039 258.211 58.6406 258.594 58.1562L260.234 59.9375C259.969 60.3203 259.605 60.6875 259.145 61.0391C258.691 61.3906 258.145 61.6797 257.504 61.9062C256.863 62.125 256.133 62.2344 255.312 62.2344ZM265.812 52.0859V62H262.438V49.3203H265.613L265.812 52.0859ZM269.633 49.2383L269.574 52.3672C269.41 52.3438 269.211 52.3242 268.977 52.3086C268.75 52.2852 268.543 52.2734 268.355 52.2734C267.879 52.2734 267.465 52.3359 267.113 52.4609C266.77 52.5781 266.48 52.7539 266.246 52.9883C266.02 53.2227 265.848 53.5078 265.73 53.8438C265.621 54.1797 265.559 54.5625 265.543 54.9922L264.863 54.7812C264.863 53.9609 264.945 53.207 265.109 52.5195C265.273 51.8242 265.512 51.2188 265.824 50.7031C266.145 50.1875 266.535 49.7891 266.996 49.5078C267.457 49.2266 267.984 49.0859 268.578 49.0859C268.766 49.0859 268.957 49.1016 269.152 49.1328C269.348 49.1562 269.508 49.1914 269.633 49.2383Z" fill="white" fill-opacity="0.5"/>
</g>
<g style="mix-blend-mode:exclusion">
<path d="M109.93 86.0078V118H102.217V86.0078H109.93ZM119.554 86.0078V91.9624H92.813V86.0078H119.554ZM132.012 118.439C130.079 118.439 128.35 118.139 126.827 117.539C125.303 116.923 124.014 116.081 122.959 115.012C121.919 113.942 121.121 112.712 120.564 111.32C120.022 109.929 119.751 108.457 119.751 106.904V106.069C119.751 104.326 119.993 102.714 120.477 101.235C120.96 99.7407 121.678 98.437 122.63 97.3237C123.582 96.2104 124.776 95.3462 126.211 94.731C127.647 94.1011 129.317 93.7861 131.221 93.7861C132.906 93.7861 134.415 94.0571 135.748 94.5991C137.081 95.1411 138.208 95.9175 139.131 96.9282C140.069 97.939 140.779 99.1621 141.263 100.598C141.761 102.033 142.01 103.645 142.01 105.432V108.442H122.586V103.806H134.781V103.234C134.795 102.443 134.656 101.77 134.363 101.213C134.085 100.656 133.675 100.231 133.133 99.9385C132.591 99.6455 131.932 99.499 131.155 99.499C130.35 99.499 129.683 99.6748 129.156 100.026C128.643 100.378 128.24 100.861 127.947 101.477C127.669 102.077 127.471 102.773 127.354 103.564C127.237 104.355 127.178 105.19 127.178 106.069V106.904C127.178 107.783 127.295 108.581 127.53 109.299C127.779 110.017 128.13 110.632 128.584 111.145C129.053 111.643 129.61 112.031 130.254 112.309C130.914 112.587 131.661 112.727 132.496 112.727C133.506 112.727 134.502 112.536 135.484 112.155C136.465 111.774 137.308 111.145 138.011 110.266L141.373 114.265C140.889 114.953 140.201 115.62 139.307 116.264C138.428 116.909 137.374 117.436 136.143 117.846C134.913 118.242 133.536 118.439 132.012 118.439ZM155.062 112.727C155.75 112.727 156.336 112.602 156.819 112.353C157.317 112.089 157.691 111.723 157.94 111.254C158.204 110.771 158.328 110.192 158.313 109.519H165.279C165.293 111.306 164.854 112.873 163.96 114.221C163.082 115.554 161.88 116.594 160.357 117.341C158.848 118.073 157.142 118.439 155.237 118.439C153.377 118.439 151.751 118.139 150.359 117.539C148.968 116.923 147.803 116.074 146.866 114.99C145.943 113.891 145.247 112.609 144.778 111.145C144.324 109.68 144.097 108.09 144.097 106.376V105.871C144.097 104.157 144.324 102.568 144.778 101.103C145.247 99.6235 145.943 98.3418 146.866 97.2578C147.803 96.1592 148.96 95.3096 150.337 94.709C151.729 94.0938 153.348 93.7861 155.193 93.7861C157.171 93.7861 158.914 94.1597 160.423 94.9067C161.946 95.6538 163.14 96.7378 164.004 98.1587C164.869 99.5796 165.293 101.301 165.279 103.322H158.313C158.328 102.604 158.218 101.96 157.984 101.389C157.75 100.817 157.383 100.363 156.885 100.026C156.402 99.6748 155.779 99.499 155.018 99.499C154.256 99.499 153.641 99.6675 153.172 100.004C152.703 100.341 152.344 100.81 152.095 101.411C151.861 101.997 151.7 102.67 151.612 103.432C151.539 104.194 151.502 105.007 151.502 105.871V106.376C151.502 107.255 151.539 108.083 151.612 108.859C151.7 109.621 151.868 110.295 152.117 110.881C152.366 111.452 152.725 111.906 153.194 112.243C153.663 112.565 154.285 112.727 155.062 112.727ZM175.694 84.25V118H168.289V84.25H175.694ZM174.815 105.3L173.079 105.344C173.079 103.674 173.284 102.136 173.694 100.729C174.104 99.3232 174.69 98.1001 175.452 97.0601C176.214 96.02 177.129 95.2144 178.199 94.6431C179.268 94.0718 180.455 93.7861 181.758 93.7861C182.93 93.7861 184 93.9546 184.966 94.2915C185.948 94.6284 186.79 95.1704 187.493 95.9175C188.211 96.6646 188.76 97.6387 189.141 98.8398C189.537 100.041 189.734 101.506 189.734 103.234V118H182.286V103.19C182.286 102.224 182.146 101.477 181.868 100.949C181.604 100.407 181.224 100.034 180.726 99.8286C180.228 99.6089 179.62 99.499 178.902 99.499C178.038 99.499 177.334 99.6455 176.792 99.9385C176.25 100.231 175.833 100.642 175.54 101.169C175.262 101.682 175.071 102.29 174.969 102.993C174.866 103.696 174.815 104.465 174.815 105.3ZM221.88 109.497C221.88 108.999 221.807 108.552 221.661 108.156C221.514 107.746 221.243 107.365 220.848 107.014C220.452 106.662 219.881 106.311 219.134 105.959C218.401 105.593 217.435 105.212 216.233 104.816C214.827 104.348 213.472 103.82 212.168 103.234C210.865 102.634 209.7 101.938 208.675 101.147C207.649 100.341 206.836 99.4038 206.236 98.3345C205.635 97.2505 205.335 95.9907 205.335 94.5552C205.335 93.1782 205.643 91.9404 206.258 90.8418C206.873 89.7285 207.73 88.7837 208.829 88.0073C209.942 87.2163 211.246 86.6157 212.74 86.2056C214.234 85.7808 215.867 85.5684 217.64 85.5684C219.983 85.5684 222.049 85.9785 223.836 86.7988C225.638 87.6045 227.044 88.7544 228.055 90.2485C229.08 91.728 229.593 93.4785 229.593 95.5H221.924C221.924 94.6943 221.756 93.9839 221.419 93.3687C221.097 92.7534 220.606 92.27 219.947 91.9185C219.288 91.5669 218.46 91.3911 217.464 91.3911C216.497 91.3911 215.684 91.5376 215.025 91.8306C214.366 92.1235 213.868 92.519 213.531 93.0171C213.194 93.5005 213.025 94.0352 213.025 94.6211C213.025 95.1045 213.157 95.5439 213.421 95.9395C213.699 96.3203 214.087 96.6792 214.585 97.0161C215.098 97.353 215.713 97.6753 216.431 97.9829C217.164 98.2905 217.984 98.5908 218.892 98.8838C220.591 99.4258 222.1 100.034 223.418 100.708C224.751 101.367 225.872 102.121 226.78 102.971C227.703 103.806 228.399 104.758 228.868 105.827C229.351 106.896 229.593 108.105 229.593 109.453C229.593 110.888 229.314 112.163 228.758 113.276C228.201 114.389 227.403 115.334 226.363 116.11C225.323 116.872 224.078 117.451 222.627 117.846C221.177 118.242 219.559 118.439 217.771 118.439C216.131 118.439 214.512 118.234 212.916 117.824C211.333 117.399 209.898 116.755 208.609 115.891C207.32 115.012 206.287 113.891 205.511 112.529C204.749 111.152 204.368 109.519 204.368 107.629H212.103C212.103 108.566 212.227 109.357 212.476 110.002C212.725 110.646 213.091 111.167 213.575 111.562C214.058 111.943 214.651 112.221 215.354 112.397C216.058 112.558 216.863 112.639 217.771 112.639C218.753 112.639 219.544 112.5 220.145 112.221C220.745 111.928 221.185 111.547 221.463 111.079C221.741 110.595 221.88 110.068 221.88 109.497ZM245.743 94.2256V99.3672H231.417V94.2256H245.743ZM234.427 88.3149H241.832V110.244C241.832 110.874 241.905 111.364 242.051 111.716C242.198 112.053 242.447 112.294 242.798 112.441C243.165 112.573 243.648 112.639 244.249 112.639C244.673 112.639 245.025 112.631 245.303 112.617C245.582 112.587 245.845 112.551 246.094 112.507V117.802C245.464 118.007 244.805 118.161 244.117 118.264C243.428 118.381 242.696 118.439 241.919 118.439C240.337 118.439 238.982 118.19 237.854 117.692C236.741 117.194 235.892 116.411 235.306 115.341C234.72 114.272 234.427 112.88 234.427 111.167V88.3149ZM261.036 112.023V102.224C261.036 101.55 260.94 100.971 260.75 100.488C260.56 100.004 260.259 99.6309 259.849 99.3672C259.439 99.0889 258.89 98.9497 258.201 98.9497C257.645 98.9497 257.168 99.0449 256.773 99.2354C256.377 99.4258 256.077 99.7114 255.872 100.092C255.667 100.473 255.564 100.957 255.564 101.542H248.16C248.16 100.444 248.401 99.4258 248.885 98.4883C249.383 97.5361 250.086 96.7085 250.994 96.0054C251.917 95.3022 253.016 94.7603 254.29 94.3794C255.579 93.9839 257.015 93.7861 258.597 93.7861C260.486 93.7861 262.171 94.1011 263.65 94.731C265.145 95.3608 266.324 96.3057 267.188 97.5654C268.052 98.8105 268.484 100.378 268.484 102.268V112.001C268.484 113.554 268.572 114.733 268.748 115.539C268.924 116.33 269.173 117.026 269.495 117.626V118H262.068C261.717 117.268 261.453 116.374 261.277 115.319C261.116 114.25 261.036 113.151 261.036 112.023ZM261.937 103.476L261.98 107.431H258.707C258.018 107.431 257.432 107.526 256.949 107.717C256.48 107.907 256.099 108.171 255.806 108.508C255.528 108.83 255.323 109.196 255.191 109.606C255.074 110.017 255.015 110.449 255.015 110.903C255.015 111.342 255.118 111.738 255.323 112.089C255.542 112.426 255.835 112.69 256.202 112.88C256.568 113.071 256.978 113.166 257.432 113.166C258.252 113.166 258.948 113.012 259.52 112.705C260.105 112.382 260.552 111.994 260.86 111.54C261.167 111.086 261.321 110.661 261.321 110.266L262.947 113.298C262.654 113.884 262.317 114.477 261.937 115.078C261.57 115.678 261.109 116.235 260.552 116.748C260.01 117.246 259.344 117.656 258.553 117.978C257.762 118.286 256.802 118.439 255.674 118.439C254.209 118.439 252.862 118.139 251.631 117.539C250.416 116.938 249.441 116.103 248.709 115.034C247.977 113.95 247.61 112.705 247.61 111.298C247.61 110.068 247.83 108.969 248.27 108.002C248.724 107.036 249.405 106.215 250.313 105.542C251.221 104.868 252.378 104.355 253.785 104.003C255.191 103.652 256.846 103.476 258.75 103.476H261.937ZM282.635 112.727C283.323 112.727 283.909 112.602 284.393 112.353C284.891 112.089 285.264 111.723 285.513 111.254C285.777 110.771 285.901 110.192 285.887 109.519H292.852C292.867 111.306 292.427 112.873 291.534 114.221C290.655 115.554 289.454 116.594 287.93 117.341C286.421 118.073 284.715 118.439 282.811 118.439C280.95 118.439 279.324 118.139 277.933 117.539C276.541 116.923 275.376 116.074 274.439 114.99C273.516 113.891 272.82 112.609 272.352 111.145C271.897 109.68 271.67 108.09 271.67 106.376V105.871C271.67 104.157 271.897 102.568 272.352 101.103C272.82 99.6235 273.516 98.3418 274.439 97.2578C275.376 96.1592 276.534 95.3096 277.911 94.709C279.302 94.0938 280.921 93.7861 282.767 93.7861C284.744 93.7861 286.487 94.1597 287.996 94.9067C289.52 95.6538 290.713 96.7378 291.578 98.1587C292.442 99.5796 292.867 101.301 292.852 103.322H285.887C285.901 102.604 285.792 101.96 285.557 101.389C285.323 100.817 284.957 100.363 284.458 100.026C283.975 99.6748 283.353 99.499 282.591 99.499C281.829 99.499 281.214 99.6675 280.745 100.004C280.276 100.341 279.917 100.81 279.668 101.411C279.434 101.997 279.273 102.67 279.185 103.432C279.112 104.194 279.075 105.007 279.075 105.871V106.376C279.075 107.255 279.112 108.083 279.185 108.859C279.273 109.621 279.441 110.295 279.69 110.881C279.939 111.452 280.298 111.906 280.767 112.243C281.236 112.565 281.858 112.727 282.635 112.727ZM303.487 84.228V118H296.082V84.228H303.487ZM318.692 94.2256L308.365 106.333L302.959 111.738L299.729 107.036L304.234 101.169L309.815 94.2256H318.692ZM310.76 118L304.41 107.167L309.881 103.278L319.241 118H310.76Z" fill="white"/>
</g>
<path d="M1363 15C1363 6.71573 1356.28 0 1348 0H1134V167H1348C1356.28 167 1363 160.284 1363 152V15Z" fill="#43B9C3"/>
<path fill-rule="evenodd" clip-rule="evenodd" d="M1218.5 55C1218.37 55 1218.24 55.0527 1218.15 55.1464C1218.05 55.2402 1218 55.3674 1218 55.5V111.5C1218 111.633 1218.05 111.76 1218.15 111.854C1218.24 111.947 1218.37 112 1218.5 112H1278C1278.13 112 1278.26 111.947 1278.35 111.854C1278.45 111.76 1278.5 111.633 1278.5 111.5V66C1278.5 65.8674 1278.45 65.7402 1278.35 65.6464C1278.26 65.5527 1278.13 65.5 1278 65.5H1248.25C1247.36 65.5 1246.52 65.1045 1245.95 64.4206L1238.09 55H1218.5ZM1213.9 50.9038C1215.12 49.6848 1216.78 49 1218.5 49H1239.5C1240.39 49 1241.23 49.3955 1241.8 50.0794L1249.66 59.5H1278C1279.72 59.5 1281.38 60.1848 1282.6 61.4038C1283.82 62.6228 1284.5 64.2761 1284.5 66V111.5C1284.5 113.224 1283.82 114.877 1282.6 116.096C1281.38 117.315 1279.72 118 1278 118H1218.5C1216.78 118 1215.12 117.315 1213.9 116.096C1212.68 114.877 1212 113.224 1212 111.5V55.5C1212 53.7761 1212.68 52.1228 1213.9 50.9038Z" fill="white"/>
<path fill-rule="evenodd" clip-rule="evenodd" d="M1243.72 77.5251C1245.09 78.892 1245.09 81.108 1243.72 82.4749L1237.45 88.75L1243.72 95.0251C1245.09 96.392 1245.09 98.608 1243.72 99.9749C1242.36 101.342 1240.14 101.342 1238.78 99.9749L1230.03 91.2249C1228.66 89.858 1228.66 87.642 1230.03 86.2751L1238.78 77.5251C1240.14 76.1583 1242.36 76.1583 1243.72 77.5251Z" fill="white"/>
<path fill-rule="evenodd" clip-rule="evenodd" d="M1252.03 99.9749C1250.66 98.608 1250.66 96.392 1252.03 95.0251L1258.3 88.75L1252.03 82.4749C1250.66 81.108 1250.66 78.892 1252.03 77.5251C1253.39 76.1583 1255.61 76.1583 1256.97 77.5251L1265.72 86.2751C1267.09 87.642 1267.09 89.858 1265.72 91.2249L1256.97 99.9749C1255.61 101.342 1253.39 101.342 1252.03 99.9749Z" fill="white"/>
</svg>
